<svg xmlns="http://www.w3.org/2000/svg" width="253.137" height="257.124" viewBox="0 0 253.137 257.124">
  <g id="Grupo_176544" data-name="Grupo 176544" transform="translate(-738.778 -38.359)">
    <path id="Trazado_224605" data-name="Trazado 224605" d="M899.9,65l-10.91-1.142c-1.016-.106-2.218-.343-2.613-1.286a2.231,2.231,0,0,1,.171-1.775c1.457-3.111,5.558-3.688,8.99-3.821q15.885-.616,31.787-.577a38.85,38.85,0,0,1,10.826,1.072c1.173.343,2.54,1.14,2.394,2.353A2.553,2.553,0,0,1,939.39,61.4c-2.776,2.107-6.278,2.983-9.7,3.625-9.145,1.715-15.944.354-25.2-.561Z" fill="#f59f18"/>
    <path id="Trazado_224606" data-name="Trazado 224606" d="M926.263,62.26a5.5,5.5,0,0,0,1.574,3.283,2.534,2.534,0,0,0,3.364.079,9.851,9.851,0,0,1-3.385,3.968c-1.529.874-3.734.808-4.8-.594Z"/>
    <path id="Trazado_224607" data-name="Trazado 224607" d="M910.2,145.511a333.716,333.716,0,0,1,44.381.9c4.578,5.789,6.356,13.363,6.621,20.739s-.848,14.722-1.427,22.08c-2.292,29.1-5.518,47.581-6.794,76.746-6.845,4.3-5.272,3.391-13.061,1.239-3.856-18.53-6.746-35.773-10.071-54.517,0,0-6.829,37.214-10.279,55.931-7.323,2.159-8.8,2.878-15.881.031,2.327-27.946-2.214-46,.872-73.877Z" fill="#6da8c6"/>
    <path id="Trazado_224608" data-name="Trazado 224608" d="M873.575,135.587c4.341-7.149,8.721-14.35,14.376-20.512a68.22,68.22,0,0,0,4.587-5.156,44.575,44.575,0,0,0,2.772-4.383l5.114-8.827,9.377,9.528a1.564,1.564,0,0,1,.529.847,1.488,1.488,0,0,1-.292.9c-2.587,4.3-3.582,8.322-7.1,11.9-2.5,2.542-6.628,6.517-8.767,9.372a141.727,141.727,0,0,1-13.246,15.425,43,43,0,0,0-7.5-7.565Z" fill="#fed5b7"/>
    <path id="Trazado_224609" data-name="Trazado 224609" d="M921.378,79.07l-3.688,4.135c-6.686-.141-14.541-.011-18.684,5.238-3.262,4.133-4.7,9.722-6.046,14.814-1.007,3.812-5.162,7.847-5.14,11.79,4.053,1.4,11.063,3.435,15.116,4.838,1.943.671,1.692,11.148,3.326,12.395s6.414-4.807,6.338-2.753c-.04,1.076-.335,2.408.548,3.024a2.453,2.453,0,0,0,1.25.321q20.034,1.448,39.886,4.665.162-15.127.322-30.254a1.52,1.52,0,0,1,1.71-1.807c3.006-.378,3.226.046,6.232-.332-1.935-13.64-10.841-26.1-24.486-28a24.876,24.876,0,0,0-9.435.368,20.339,20.339,0,0,0-7.664,3.772Z" fill="#8e8b5e"/>
    <path id="Trazado_224610" data-name="Trazado 224610" d="M903.092,102.255a212.762,212.762,0,0,1,35.978-1.338c-.908,5.321-.618,10.764-.326,16.155A32.585,32.585,0,0,0,940,125.728a16.623,16.623,0,0,0,13.332,10.941c1,.128,2.138.234,2.731,1.046a3.34,3.34,0,0,1,.453,1.862c.982,23.421-1.56,47.11,2.55,70.189.505,2.835,1.09,5.863-.057,8.5-1.5,3.452-5.575,5.125-9.338,5.16s-7.4-1.2-11.093-1.944a43.056,43.056,0,0,0-19.471.585c-5.584,1.48-11.462,4.094-16.884,2.1-2.427-16.736.9-33.768.171-50.662-.192-4.42-.663-8.834-.574-13.257.19-9.493,2.94-18.724,4.462-28.1,1.245-7.669,1.181-12.665-1.384-18.789a23.936,23.936,0,0,1-1.842-10.244Z" fill="#33637a"/>
    <path id="Trazado_224611" data-name="Trazado 224611" d="M937.078,275.023c.1.987-.319,6.133-1.015,6.839a69.711,69.711,0,0,1-11.042,4.183,8.618,8.618,0,0,0-3.88,1.66,2.96,2.96,0,0,0-.661,3.821,4.33,4.33,0,0,0,2.442,1.243c6.644,1.726,13.522,3.465,20.3,2.375a2.356,2.356,0,0,0,1.451-.613c.806-.917.714-3.134,1.859-2.709a2.86,2.86,0,0,1,.883,2.315,8.155,8.155,0,0,0,7.8-1.425,245.926,245.926,0,0,1,.669-39.672,99.869,99.869,0,0,1-21.69-.236S936.237,266.973,937.078,275.023Z" fill="#f59f18"/>
    <path id="Trazado_224612" data-name="Trazado 224612" d="M902.489,270.972c-.021.992-1.082,6.045-1.861,6.659a69.534,69.534,0,0,1-11.476,2.773,8.62,8.62,0,0,0-4.057,1.165,2.958,2.958,0,0,0-1.132,3.708,4.326,4.326,0,0,0,2.268,1.538c6.377,2.541,12.984,5.124,19.844,4.887a2.352,2.352,0,0,0,1.516-.427c.914-.81,1.1-3.021,2.182-2.457a2.861,2.861,0,0,1,.588,2.407,8.151,8.151,0,0,0,7.921-.441,245.934,245.934,0,0,1,5.61-39.279,99.9,99.9,0,0,1-21.492-2.937S902.658,262.88,902.489,270.972Z" fill="#f59f18"/>
    <path id="Trazado_224613" data-name="Trazado 224613" d="M777.109,240.194A46.54,46.54,0,0,1,757.1,208.888a4.933,4.933,0,0,1,.693-3.419c1.173-1.815,2.821-1.561,4.3-1.186a29.458,29.458,0,0,1,12.3,6.524,54.936,54.936,0,0,1-2.326-31.775,7.108,7.108,0,0,1,11.756-3.7,45.369,45.369,0,0,1,7.671,10.267,69.757,69.757,0,0,1-.938-41.058c1.669-5.844,5.459-12.425,11.537-12.391,3.937.023,7.346,3.076,8.992,6.653s1.882,7.618,2.092,11.55c.289-4.4.592-8.861,2.093-13s4.39-7.992,8.486-9.614c2.579-1.021,5.862-.947,7.75,1.085,1.378,1.483,1.71,3.633,1.907,5.648a86.648,86.648,0,0,1-.871,23.242c3.839-.013,7.041,3.452,7.811,7.213s-.4,7.661-2.034,11.134c-1.607,3.408-3.745,7.036-2.818,10.688a19.769,19.769,0,0,0,1.977,4.2c3.352,6.377,3.407,14.154,1.2,21.012s-6.506,12.881-11.468,18.105Z" fill="#8e8b5e"/>
    <path id="Trazado_224614" data-name="Trazado 224614" d="M840.839,218.982a12.8,12.8,0,0,1,4.454-8.765c2.657-2.067,6.651-2.551,9.412-.624,3.506,2.447,3.867,7.627,2.522,11.686s-3.972,7.59-5.392,11.623c2.257-2.451,6.635-1.932,8.859.549s2.515,6.253,1.514,9.431-3.1,5.881-5.274,8.408c3.511.426,5.463,4.689,4.755,8.155s-3.226,6.237-5.642,8.82l-7.117,7.607a46.081,46.081,0,0,1-5.521,5.284c-9.383,7.173-22.446,6.147-34.178,4.78q9.534-31.66,20.038-63.019Z" fill="#8e8b5e"/>
    <path id="Trazado_224615" data-name="Trazado 224615" d="M872.481,133.1a50.214,50.214,0,0,1-5.36,8.5c-5.41,6.471-14.187,10.427-17.02,18.373-.4,1.123-.623,2.493.138,3.411a51.966,51.966,0,0,0,7.409-6.841l-4.926,5.194a3.1,3.1,0,0,0-1.142,2.127,1.183,1.183,0,0,0,.635,1.057c.675.32,1.293-.172,1.787-.625l6.2-5.686a22.02,22.02,0,0,0-4.041,5.987.847.847,0,0,0,.155.958c.373.357.869.106,1.243-.149a22.62,22.62,0,0,0,5.062-4.717A24.508,24.508,0,0,0,860.7,165.4a1.307,1.307,0,0,0,.371,1.354c.712.611,1.633-.044,2.228-.668,2.914-3.055,14.3-15.381,16.01-17.051a23.579,23.579,0,0,0,5.125-7.452,12.346,12.346,0,0,1-4.3-3.8c-1.405-1.79-5.368-4.651-7.644-4.684Z" fill="#f59f18"/>
    <path id="Trazado_224616" data-name="Trazado 224616" d="M868.362,143.435c-.4.992-1.747,1.071-2.812.984l-7.715-.629a4.533,4.533,0,0,0-2.03.144,1.549,1.549,0,0,0-1.055,1.576,2.006,2.006,0,0,0,.731,1.081,16.208,16.208,0,0,0,5.012,2.713c2.4.937,5.038,1.831,7.5,1.064a4.767,4.767,0,0,0,2.974-2.5,3.414,3.414,0,0,0-.584-3.722Z" fill="#f59f18"/>
    <path id="Trazado_224617" data-name="Trazado 224617" d="M942.455,105.781l1.5,12.876a5.623,5.623,0,0,1-.032,2.183,5.841,5.841,0,0,1-1.245,2.007,76.265,76.265,0,0,0-11.922,20.293l6.59,2.5a2.805,2.805,0,0,0,1.273.267,2.754,2.754,0,0,0,1.242-.59,77.332,77.332,0,0,0,12.2-10.708,20.876,20.876,0,0,0,4.8-7.224c.919-2.728.83-5.677.731-8.554q-.262-7.617-.525-15.235a22.609,22.609,0,0,0-14.224,2.493Z" fill="#fed5b7"/>
    <path id="Trazado_224618" data-name="Trazado 224618" d="M790.555,292.729c5.833,1.339,11.783,2.6,17.753,2.17s12.055-2.757,15.77-7.449c1.226-1.548,2.166-3.31,3.446-4.813,3.916-4.6,10.289-6.075,15.459-9.194s9.346-10.188,5.663-14.973a29.369,29.369,0,0,0,7.039-13.757c.726-3.484.714-7.41-1.432-10.249s-7-3.684-9.2-.89a45.6,45.6,0,0,0,9.557-15c1.521-3.919,2.395-8.662-.04-12.089s-9.213-3.012-9.7,1.164a79.379,79.379,0,0,0,11.546-18.336c1.795-3.966,3.283-8.2,3.15-12.556S857.4,167.9,853.589,165.8s-9.383-.967-11.3,2.94c14.281-13.676,22.074-33.39,6.476-40.7-14.709-6.892-25.539,7.358-28.225,28.629-1.076-6.067-2.242-12.355-5.8-17.384s-10.254-8.406-16-6.192a14.713,14.713,0,0,0-6.787,6.015c-4.032,6.278-4.913,14.071-4.783,21.532.2,11.294,2.457,22.439,4.707,33.508-3.784-5.083-8.778-10.729-15.076-10.037-4.791.526-8.482,4.873-9.663,9.545s-.347,9.6.745,14.3a134.477,134.477,0,0,0,10.115,28.477c-2.991-2.682-6.143-5.453-10.035-6.453s-8.722.417-10.227,4.142c-1.14,2.824-.115,6.02,1.032,8.841A106.578,106.578,0,0,0,772.092,266.6c-3.022-.246-6.144-.482-9.016.492s-5.449,3.49-5.506,6.521c-.068,3.64,3.255,6.335,6.334,8.277,7.687,4.847,8.164,6.252,16.763,9.191Z" fill="#c1bf8e"/>
    <path id="Trazado_224619" data-name="Trazado 224619" d="M897.893,58.116q2.214,8.814,4.429,17.628a8,8,0,0,0,1.756,3.868,5.407,5.407,0,0,0,5.2,1.047,15.955,15.955,0,0,0,4.853-2.653l1.7,5.275a3.475,3.475,0,0,0,.738,1.454c.835.829,2.217.607,3.345.272a37.165,37.165,0,0,0,8.793-3.909,2.655,2.655,0,0,0,1.277-1.293,2.751,2.751,0,0,0-.193-1.7q-2.415-7.146-4.828-14.293a2.538,2.538,0,0,0,3.016,1.4,3.624,3.624,0,0,0,2.37-2.567,4.585,4.585,0,0,0-7.979-4.112q-1.23-5.643-2.459-11.287Z" fill="#fed5b7"/>
    <path id="Trazado_224620" data-name="Trazado 224620" d="M811.219,294.177a36.309,36.309,0,0,1-28.793-22.443,7.784,7.784,0,0,1-.7-3.954c.46-2.923,3.865-4.61,6.8-4.26s5.471,2.15,7.862,3.893c-5.892-9.63-11.556-20.872-10.763-31.7a4.974,4.974,0,0,1,8.134-3.484,23.859,23.859,0,0,1,8.455,15.714,68.7,68.7,0,0,1-3.327-44.9c1.167-4.338,3.662-9.285,8.142-9.62,2.962-.222,5.652,1.784,7.517,4.1,7.669,9.506,5.494,23.3,2.918,35.243a35.391,35.391,0,0,1,6.556-17.554,5,5,0,0,1,2.213-1.761c4.193-1.622,6.776,4.029,6.987,8.277a66.16,66.16,0,0,1-5.122,28.935c-.088-3.536,5.517-4.751,7.9-2.139s1.963,6.772.527,10.005-3.711,6.083-4.778,9.456c-.986,3.117-.872,6.475-1.587,9.665-1.988,8.88-11.132,15.552-20.194,14.736Z" fill="#e0dcb1"/>
    <path id="Trazado_224621" data-name="Trazado 224621" d="M929.419,137.935c-1.085,1.61-3.613,10.675-4.835,12.9-3.336,6.063-1.109,14.05,3.694,19.032.545.565,1.358,1.14,2.044.76.638-.354.646-1.252.571-1.977q-.269-2.577-.538-5.152a1.951,1.951,0,0,0,3.789-.93,2.256,2.256,0,0,0,3.944-1.929c1.548.889,3.41-1.012,3.444-2.8s-.941-3.421-1.3-5.169a7.786,7.786,0,0,1,2.652-7.453c1.05-.855,2.509-1.992,1.9-3.2-.459-.918-1.726-.924-2.725-1.159-1.554-.365-2.769-1.528-4.087-2.427s-3.065-1.559-4.477-.815Z" fill="#f59f18"/>
    <path id="Trazado_224622" data-name="Trazado 224622" d="M934.236,101.764a61.094,61.094,0,0,1,6.294-24.233l3.7,1.324a52.677,52.677,0,0,0-6.582,23.747l-3.894-.519Z" fill="#33637a"/>
    <path id="Trazado_224623" data-name="Trazado 224623" d="M905.472,103.726a89.466,89.466,0,0,1,1.62-21.109c.736.445,3.051.117,3.909.059-.981,6.7-2.755,14.032-2.435,20.794a4.977,4.977,0,0,0-2.942.027Z" fill="#33637a"/>
    <g id="Grupo_176460" data-name="Grupo 176460">
      <path id="Trazado_224624" data-name="Trazado 224624" d="M934.091,102.909a1.58,1.58,0,0,0,1.4,1.91,1.338,1.338,0,0,0,.8-.211,1.64,1.64,0,0,0,.756-1.391,1.411,1.411,0,0,0-.9-1.26,1.553,1.553,0,0,0-1.672.277.41.41,0,0,0,0,.576.415.415,0,0,0,.575,0l.054-.05c.061-.056-.062.035-.014.012s.074-.048.113-.069c0,.027-.023,0,.036-.015a1.114,1.114,0,0,1,.14-.038c.012,0,.092-.012.018-.005s.006,0,.018,0a1,1,0,0,1,.122,0c.04,0,.083.012.122.009-.1.008-.054-.008-.011,0l.072.016c.043.012.085.031.128.041s-.093-.045-.018-.008c.022.011.044.021.065.033a.993.993,0,0,1,.1.063c-.011-.012-.02-.018.013.01.054.049.1.111.119.12l-.034-.045c.067.1.077.124.089.145.035.063-.015-.023-.01-.027s.041.131.045.148c.012.07.011.059,0-.007a.289.289,0,0,0,.005.064c0,.047,0,.093,0,.141s-.021,0,.005-.032a.3.3,0,0,0-.015.076c-.011.051-.028.1-.044.149-.026.083.035-.062.006-.013-.01.018-.018.039-.028.058-.02.039-.042.077-.065.113l-.045.064c-.007-.005.057-.067.015-.021s-.069.077-.107.112l-.059.05c-.005-.02.078-.051.01-.01l-.122.071c-.044.026-.01-.017.028-.009-.014,0-.058.021-.073.026l-.049.014-.05.011c-.045.008-.034.007.031,0a.581.581,0,0,0-.137.005c-.1,0,0,0,0,0l-.054-.01c-.044-.009-.087-.024-.131-.037-.089-.026.079.043,0,0-.025-.013-.049-.024-.073-.038s-.047-.028-.07-.043-.031-.021-.046-.032c0,.022-.056-.053-.083-.083s-.037-.041-.056-.062c-.058-.065.039.062,0-.006-.03-.047-.061-.093-.086-.142-.031-.065-.028-.058-.005,0-.017-.015-.025-.069-.032-.091s-.013-.044-.018-.066l-.012-.053c-.006-.036-.006-.036,0,0,0,.009,0-.009,0-.027s0-.064,0-.1l.005-.068c-.009.063-.009.072,0,.027,0-.018.008-.036.013-.054a.407.407,0,1,0-.785-.217Z" fill="#6da8c6"/>
    </g>
    <g id="Grupo_176461" data-name="Grupo 176461">
      <path id="Trazado_224625" data-name="Trazado 224625" d="M905.591,103.479a1.583,1.583,0,0,0,1.4,1.91,1.349,1.349,0,0,0,.8-.211,1.641,1.641,0,0,0,.755-1.391,1.41,1.41,0,0,0-.894-1.26,1.554,1.554,0,0,0-1.673.277.407.407,0,1,0,.576.576c.017-.017.036-.033.054-.05.06-.055-.062.035-.015.012s.075-.049.114-.068c0,.026-.024,0,.035-.016a1.161,1.161,0,0,1,.14-.038c.013,0,.092-.012.018-.005s.007,0,.019,0a.989.989,0,0,1,.122,0c.039,0,.083.012.122.009-.1.007-.054-.008-.011,0,.024,0,.048.01.071.017.044.011.086.03.129.04s-.093-.045-.018-.008l.065.033a.984.984,0,0,1,.1.063c-.01-.011-.019-.018.014.01.054.049.1.112.118.12l-.034-.045c.067.1.078.124.09.145.035.063-.015-.022-.01-.027s.041.131.044.148c.013.07.012.059,0-.007a.24.24,0,0,0,.005.064c0,.047,0,.094,0,.141s-.021,0,.005-.032a.3.3,0,0,0-.015.076c-.012.051-.029.1-.044.149-.027.083.034-.062.006-.013-.011.018-.018.039-.028.059a1.256,1.256,0,0,1-.066.112l-.044.064c-.007-.005.057-.067.015-.021s-.069.077-.108.112c-.005.005-.059.047-.059.05,0-.02.078-.051.01-.01-.04.024-.08.048-.121.071s-.011-.017.027-.009c-.013,0-.058.021-.072.025s-.033.01-.049.015l-.051.011c-.044.008-.034.007.032,0a.589.589,0,0,0-.138.005c-.1,0,0,0,0,0s-.058-.011-.054-.01c-.045-.009-.087-.024-.131-.037-.089-.026.079.043,0,0-.024-.013-.049-.024-.073-.038s-.047-.028-.07-.043l-.045-.032c0,.022-.056-.053-.084-.083s-.036-.041-.055-.062c-.058-.065.039.062,0-.006-.029-.047-.06-.093-.085-.142-.031-.065-.029-.058-.005,0a.246.246,0,0,1-.032-.091c-.007-.022-.013-.044-.019-.066s-.008-.035-.011-.053c-.006-.036-.006-.036,0,0,0,.009,0-.009,0-.027s0-.064,0-.1l.006-.069c-.009.063-.01.072,0,.027,0-.019.009-.037.013-.054a.407.407,0,1,0-.785-.217Z" fill="#6da8c6"/>
    </g>
    <g id="Grupo_176462" data-name="Grupo 176462">
      <path id="Trazado_224626" data-name="Trazado 224626" d="M910.411,107.6q7.914-.553,15.848-.708,2.262-.043,4.523-.055l-.407-.407a20.486,20.486,0,0,1-1.019,6.756,7.062,7.062,0,0,1-3.885,4.161,13.537,13.537,0,0,1-3.378.728,22.027,22.027,0,0,1-3.549.1,21.184,21.184,0,0,1-3.537-.488,3.122,3.122,0,0,1-2.456-1.492,11.117,11.117,0,0,1-.6-1.757q-.269-.93-.47-1.879a26.779,26.779,0,0,1-.539-4.048c-.03-.521-.844-.524-.814,0a26.35,26.35,0,0,0,1.47,7.5,3.914,3.914,0,0,0,.752,1.347,3.286,3.286,0,0,0,1.347.82,16.088,16.088,0,0,0,3.621.714,20.529,20.529,0,0,0,7.549-.49,7.4,7.4,0,0,0,2.98-1.561,8.3,8.3,0,0,0,1.842-2.429c1.261-2.46,1.393-5.269,1.5-7.978a.411.411,0,0,0-.407-.407q-7.932.041-15.856.479-2.259.126-4.515.284c-.519.036-.523.85,0,.814Z" fill="#6da8c6"/>
    </g>
    <g id="Grupo_176463" data-name="Grupo 176463">
      <path id="Trazado_224627" data-name="Trazado 224627" d="M911.089,111.675l14.815-.706,4.175-.2c.522-.025.525-.84,0-.815l-14.815.706-4.175.2c-.522.025-.525.839,0,.814Z" fill="#6da8c6"/>
    </g>
    <g id="Grupo_176464" data-name="Grupo 176464">
      <path id="Trazado_224628" data-name="Trazado 224628" d="M910.2,131.017l20.637-1.232,5.8-.346c.52-.031.524-.846,0-.815L916,129.856l-5.8.347c-.521.031-.524.845,0,.814Z" fill="#6da8c6"/>
    </g>
    <g id="Grupo_176465" data-name="Grupo 176465">
      <path id="Trazado_224629" data-name="Trazado 224629" d="M929.084,127.825l.4,1.537a.407.407,0,0,0,.785-.216q-.2-.77-.4-1.537a.407.407,0,0,0-.785.216Z" fill="#6da8c6"/>
    </g>
    <g id="Grupo_176466" data-name="Grupo 176466">
      <path id="Trazado_224630" data-name="Trazado 224630" d="M930.977,127.514v1.528a.407.407,0,0,0,.814,0v-1.528a.407.407,0,0,0-.814,0Z" fill="#6da8c6"/>
    </g>
    <g id="Grupo_176467" data-name="Grupo 176467">
      <path id="Trazado_224631" data-name="Trazado 224631" d="M917.558,130.172l-.952,2.149a.418.418,0,0,0,.146.557.412.412,0,0,0,.557-.146q.475-1.074.952-2.149a.418.418,0,0,0-.147-.557.412.412,0,0,0-.556.146Z" fill="#6da8c6"/>
    </g>
    <g id="Grupo_176468" data-name="Grupo 176468">
      <path id="Trazado_224632" data-name="Trazado 224632" d="M919.237,130.672l.347,1.981a.409.409,0,0,0,.5.284.419.419,0,0,0,.284-.5q-.174-.99-.347-1.98a.409.409,0,0,0-.5-.284.417.417,0,0,0-.284.5Z" fill="#6da8c6"/>
    </g>
    <g id="Grupo_176469" data-name="Grupo 176469">
      <path id="Trazado_224633" data-name="Trazado 224633" d="M954.616,138.646a15.459,15.459,0,0,0,5.785,5.205c1.166.677,2.363,1.325,3.584,1.9a10.6,10.6,0,0,0,4.239,1.155,5.62,5.62,0,0,0,3.9-1.322,3.183,3.183,0,0,0,.7-3.859,5.589,5.589,0,0,0-3.239-2.487,33.1,33.1,0,0,0-4.361-1.291,89.146,89.146,0,0,0-10.234-1.54v1.629a49.738,49.738,0,0,0,7.786-.863,20.219,20.219,0,0,0,3.682-1.163,12.088,12.088,0,0,0,3.268-1.957c.969-.86,1.776-2.245,1.2-3.542-.591-1.319-2.26-1.644-3.56-1.594a14.777,14.777,0,0,0-4.136.9,21.7,21.7,0,0,0-3.748,1.694,28.449,28.449,0,0,0-3.65,2.607,11.837,11.837,0,0,1-3.495,2.18.835.835,0,0,0-.569,1,.824.824,0,0,0,1,.569c2.313-.788,3.983-2.558,5.936-3.934a19.908,19.908,0,0,1,6.718-3.065,5.941,5.941,0,0,1,3.5-.116,1.112,1.112,0,0,1,.47.327.524.524,0,0,1,.1.476,2.117,2.117,0,0,1-.175.458,2.916,2.916,0,0,1-.436.593,9.026,9.026,0,0,1-2.792,1.8,17.1,17.1,0,0,1-3.255,1.088,44.153,44.153,0,0,1-7.843.916.814.814,0,0,0,0,1.629c2.734.3,5.471.611,8.174,1.136,1.36.265,2.71.584,4.038.982a10.141,10.141,0,0,1,3.466,1.461,2.5,2.5,0,0,1,.826,1.128,1.408,1.408,0,0,1-.155,1.285,3.433,3.433,0,0,1-2.714,1.246,7.912,7.912,0,0,1-3.536-.8c-1.142-.512-2.251-1.117-3.343-1.728a14.574,14.574,0,0,1-5.721-4.918.815.815,0,0,0-1.406.822Z" fill="#33637a"/>
    </g>
    <g id="Grupo_176470" data-name="Grupo 176470">
      <path id="Trazado_224634" data-name="Trazado 224634" d="M954.659,137.772c.094,5.383,4.415,9.627,9.068,11.692a44.818,44.818,0,0,0,8.856,2.6c1.467.316,2.938.623,4.392.994a18.776,18.776,0,0,1,4,1.412,8.007,8.007,0,0,1,3.221,2.8,5.082,5.082,0,0,1,.773,3.865c-.246,1.018,1.324,1.453,1.571.433a7.4,7.4,0,0,0-2.906-7.318c-2.365-1.859-5.339-2.591-8.22-3.237-5.471-1.226-11.515-2.094-15.708-6.153a10.335,10.335,0,0,1-3.419-7.1.814.814,0,0,0-1.628,0Z" fill="#33637a"/>
    </g>
    <g id="Grupo_176471" data-name="Grupo 176471">
      <path id="Trazado_224635" data-name="Trazado 224635" d="M955.016,137.362c.711,5.531,5.642,9.309,10.734,10.721a42.321,42.321,0,0,0,9.94,1.164,41.465,41.465,0,0,1,8.466.761,12.2,12.2,0,0,1,3.7,1.476,7.054,7.054,0,0,1,2.546,2.683c.494.924,1.9.1,1.406-.822-2.57-4.813-8.768-5.455-13.623-5.643-5.934-.23-12.339-.063-17.316-3.756a12.041,12.041,0,0,1-2.787-2.894,8.846,8.846,0,0,1-1.44-3.69.84.84,0,0,0-.814-.814.819.819,0,0,0-.815.814Z" fill="#33637a"/>
    </g>
    <path id="Trazado_224636" data-name="Trazado 224636" d="M940.752,103.8a70.628,70.628,0,0,1,20.433-2.609,1.719,1.719,0,0,1,.963.213,1.748,1.748,0,0,1,.565,1.144q.243,1.152.484,2.3c.068.32.114.706-.129.923a.94.94,0,0,1-.6.168c-7.221.324-14.76-.386-21.4,2.475a12.767,12.767,0,0,0-.016-4.709Z" fill="#66623c"/>
    <path id="Trazado_224637" data-name="Trazado 224637" d="M902.506,121.153l1.65-3.52a.648.648,0,0,0-.21-1,47.014,47.014,0,0,0-15.271-7.594l-3.2,4.557a.333.333,0,0,0-.087.254c.021.084.1.135.177.178,3.785,2.18,7.626,4.383,11.848,5.5a19.216,19.216,0,0,1,4.958,1.62Z" fill="#66623c"/>
    <g id="Grupo_176472" data-name="Grupo 176472">
      <path id="Trazado_224638" data-name="Trazado 224638" d="M940.925,91.71q.207,6.552.412,13.105c.016.523.83.525.814,0L941.74,91.71c-.017-.523-.831-.525-.815,0Z" fill="#66623c"/>
    </g>
    <g id="Grupo_176473" data-name="Grupo 176473">
      <path id="Trazado_224639" data-name="Trazado 224639" d="M942.8,91.717a15.131,15.131,0,0,1-1.117,4.357.423.423,0,0,0,.146.558.411.411,0,0,0,.557-.147,16.449,16.449,0,0,0,1.228-4.768.41.41,0,0,0-.407-.407.416.416,0,0,0-.407.407Z" fill="#66623c"/>
    </g>
    <g id="Grupo_176474" data-name="Grupo 176474">
      <path id="Trazado_224640" data-name="Trazado 224640" d="M900.739,89.744a117.6,117.6,0,0,0,.92,20.885q.395,2.943.935,5.864c.1.514.88.3.785-.217a116.72,116.72,0,0,1-1.946-20.7q-.012-2.916.12-5.828c.024-.524-.79-.523-.814,0Z" fill="#66623c"/>
    </g>
    <g id="Grupo_176475" data-name="Grupo 176475">
      <path id="Trazado_224641" data-name="Trazado 224641" d="M899.173,92.131a9.287,9.287,0,0,0,1.568,2.066.407.407,0,1,0,.576-.575q-.219-.218-.422-.448c-.066-.075-.131-.151-.194-.228-.034-.041-.067-.082-.1-.124-.005-.006-.051-.064-.023-.028s-.033-.044-.032-.042a8.982,8.982,0,0,1-.671-1.032.407.407,0,1,0-.7.411Z" fill="#66623c"/>
    </g>
    <g id="Grupo_176476" data-name="Grupo 176476">
      <path id="Trazado_224642" data-name="Trazado 224642" d="M915.087,86.4a2.538,2.538,0,0,0,2.514,1.786c1.429.055,2.668-.854,3.987-1.257a40.618,40.618,0,0,1,4.624-.744,14.245,14.245,0,0,0,4.224-1.5c1.2-.654,2.542-1.79,2.2-3.317-.113-.511-.9-.3-.785.216.252,1.135-1.042,1.973-1.884,2.427a13.5,13.5,0,0,1-3.735,1.344c-1.329.268-2.692.305-4.02.577a9.828,9.828,0,0,0-1.9.612,13.743,13.743,0,0,1-1.766.7c-.957.263-2.43.117-2.679-1.06-.108-.512-.893-.295-.785.217Z" fill="#66623c"/>
    </g>
    <g id="Grupo_176477" data-name="Grupo 176477">
      <path id="Trazado_224643" data-name="Trazado 224643" d="M922.652,92.583l-.224,1.964a.409.409,0,0,0,.407.408.419.419,0,0,0,.407-.408l.225-1.964a.409.409,0,0,0-.408-.407.42.42,0,0,0-.407.407Z" fill="#66623c"/>
    </g>
    <g id="Grupo_176478" data-name="Grupo 176478">
      <path id="Trazado_224644" data-name="Trazado 224644" d="M925.738,93.242v.873a.42.42,0,0,0,.119.288.408.408,0,0,0,.576,0,.425.425,0,0,0,.119-.288v-.873a.418.418,0,0,0-.119-.288.408.408,0,0,0-.576,0,.425.425,0,0,0-.119.288Z" fill="#66623c"/>
    </g>
    <g id="Grupo_176479" data-name="Grupo 176479">
      <path id="Trazado_224645" data-name="Trazado 224645" d="M929.244,90.732q-.246.975-.493,1.95a.407.407,0,0,0,.785.217q.247-.975.493-1.951a.407.407,0,0,0-.785-.216Z" fill="#66623c"/>
    </g>
    <g id="Grupo_176480" data-name="Grupo 176480">
      <path id="Trazado_224646" data-name="Trazado 224646" d="M947.434,93.762a3.534,3.534,0,0,1,.115.408,1.428,1.428,0,0,1,.041.224c0-.1,0,0,0,.021,0,.038.007.076.01.114a3.33,3.33,0,0,1,.006.424c0,.07-.011.14-.017.211-.008.1.012-.067,0,.021-.007.043-.014.086-.022.129a.415.415,0,0,0,.285.5.411.411,0,0,0,.5-.284,3.9,3.9,0,0,0-.133-1.984.407.407,0,1,0-.785.216Z" fill="#66623c"/>
    </g>
    <g id="Grupo_176481" data-name="Grupo 176481">
      <path id="Trazado_224647" data-name="Trazado 224647" d="M950.951,93.381a1.048,1.048,0,0,0-.223.376.781.781,0,0,0-.03.125,1.272,1.272,0,0,0-.019.222,1.014,1.014,0,0,0,.306.708.426.426,0,0,0,.288.12.415.415,0,0,0,.288-.12.407.407,0,0,0,0-.575.757.757,0,0,1-.061-.066l.063.082a.609.609,0,0,1-.078-.135l.041.1a.716.716,0,0,1-.043-.163l.014.108a.738.738,0,0,1,0-.169l-.015.108a.651.651,0,0,1,.045-.162l-.041.1a.619.619,0,0,1,.067-.117L951.49,94c.012-.015.024-.029.037-.043a.43.43,0,0,0,.119-.288.407.407,0,0,0-.7-.288Z" fill="#66623c"/>
    </g>
    <g id="Grupo_176482" data-name="Grupo 176482">
      <path id="Trazado_224648" data-name="Trazado 224648" d="M952.625,90.406a2.192,2.192,0,0,0-.229,1.631.411.411,0,0,0,.5.284.415.415,0,0,0,.285-.5,1.6,1.6,0,0,1-.038-.195l.014.109a1.832,1.832,0,0,1,0-.462l-.015.109a1.869,1.869,0,0,1,.127-.466l-.041.1a1.894,1.894,0,0,1,.1-.2.407.407,0,0,0-.7-.411Z" fill="#66623c"/>
    </g>
    <g id="Grupo_176483" data-name="Grupo 176483">
      <path id="Trazado_224649" data-name="Trazado 224649" d="M954.786,98.154l-.437,1.092a.4.4,0,0,0,.041.313.406.406,0,0,0,.557.147l.082-.064a.4.4,0,0,0,.1-.18l.437-1.091a.415.415,0,0,0-.041-.314.42.42,0,0,0-.244-.187.407.407,0,0,0-.313.041l-.083.064a.4.4,0,0,0-.1.179Z" fill="#66623c"/>
    </g>
    <g id="Grupo_176484" data-name="Grupo 176484">
      <path id="Trazado_224650" data-name="Trazado 224650" d="M944.79,120.566l4.375,1.054c.509.123.727-.662.217-.785l-4.375-1.054c-.509-.123-.726.662-.217.785Z" fill="#ab6844"/>
    </g>
    <g id="Grupo_176485" data-name="Grupo 176485">
      <path id="Trazado_224651" data-name="Trazado 224651" d="M887.4,119.136a22.908,22.908,0,0,1,4.579,1.13c.494.177.707-.609.217-.785a22.926,22.926,0,0,0-4.579-1.13.42.42,0,0,0-.5.284.411.411,0,0,0,.284.5Z" fill="#ab6844"/>
    </g>
    <g id="Grupo_176486" data-name="Grupo 176486">
      <path id="Trazado_224652" data-name="Trazado 224652" d="M925.474,62.591l2.828-1.979a.418.418,0,0,0,.146-.557.41.41,0,0,0-.557-.146l-2.827,1.979a.419.419,0,0,0-.147.557.41.41,0,0,0,.557.146Z" fill="#ab6844"/>
    </g>
    <g id="Grupo_176487" data-name="Grupo 176487">
      <path id="Trazado_224653" data-name="Trazado 224653" d="M926.73,61.659l.874.873a.408.408,0,0,0,.7-.288.426.426,0,0,0-.12-.288l-.873-.873a.419.419,0,0,0-.288-.119.414.414,0,0,0-.288.119.41.41,0,0,0-.119.288.43.43,0,0,0,.119.288Z" fill="#ab6844"/>
    </g>
    <path id="Trazado_224654" data-name="Trazado 224654" d="M898.034,58.024c-.7,2-.008,2.528.534,4.576a1.21,1.21,0,0,0,.5.821,1.267,1.267,0,0,0,.687.076l3.18-.237q.413-1.362.826-2.723c-.134,1.256,1.155,2.261,2.407,2.434a18.969,18.969,0,0,0,3.769-.281,14.275,14.275,0,0,1,.754-3c.551.255.551,1.021.8,1.574a2.2,2.2,0,0,0,2.1,1.12,6.453,6.453,0,0,0,2.4-.722q.528-1.593,1.187-3.14a8.112,8.112,0,0,1,1.172,3.15,3.159,3.159,0,0,1,3.2.138c.933.622,2.541,2.8,2.423,3.914.747-.98.383-3.012,1.03-4.06,1.337-2.167,2.453-4.958,1.18-7.164-.931-1.614-2.866-2.352-4.7-2.678-3.6-.639-7.3-.146-10.931.348l-8.4,1.144Z"/>
    <path id="Trazado_224655" data-name="Trazado 224655" d="M895.38,57.55a13.3,13.3,0,0,0,6.762-10.1,28.194,28.194,0,0,1,.5-4.942c.465-1.593,1.778-3.122,3.437-3.107a10.609,10.609,0,0,1,2.4.59c3.646.907,7.3-2.027,11.035-1.58,2.774.332,5.011,2.494,6.429,4.9,2.383,4.045,5.908,9.692,6.148,14.381.027.525-2.878.294-3.237.677a1.983,1.983,0,0,1-1.145.472,77.667,77.667,0,0,1-31.857-1.075Z" fill="#f59f18"/>
    <path id="Trazado_224656" data-name="Trazado 224656" d="M914.135,78.006l8.123-3.452-7.246,6.027Z" fill="#ab6844"/>
    <g id="Grupo_176488" data-name="Grupo 176488">
      <path id="Trazado_224657" data-name="Trazado 224657" d="M909.089,66.391q.038-.3.074-.6l-.8.108a19.255,19.255,0,0,1,.685,5.951.411.411,0,0,0,.7.288l1.646-1.508c.387-.354-.19-.929-.576-.575l-1.646,1.508.695.287a19.97,19.97,0,0,0-.714-6.167.409.409,0,0,0-.8.108c-.025.2-.049.4-.074.6a.409.409,0,0,0,.407.407.417.417,0,0,0,.407-.407Z" fill="#ab6844"/>
    </g>
    <g id="Grupo_176489" data-name="Grupo 176489">
      <path id="Trazado_224658" data-name="Trazado 224658" d="M911.864,73.17a4.315,4.315,0,0,0,2.426-1.979.407.407,0,0,0-.7-.411c-.057.1-.119.2-.185.3-.032.046-.065.091-.1.136s.04-.049-.009.011c-.021.026-.042.052-.064.077a3.8,3.8,0,0,1-.49.484l-.065.053c.044-.035.019-.014-.011.008s-.09.066-.137.1c-.1.066-.2.128-.3.185s-.2.1-.3.15.078-.03-.027.011c-.026.01-.052.021-.078.03-.058.022-.116.042-.175.061a.407.407,0,1,0,.217.785Z" fill="#ab6844"/>
    </g>
    <g id="Grupo_176490" data-name="Grupo 176490">
      <path id="Trazado_224659" data-name="Trazado 224659" d="M914.14,65.67a6.22,6.22,0,0,1,3.059-1.239.419.419,0,0,0,.407-.407.411.411,0,0,0-.407-.407,6.987,6.987,0,0,0-3.47,1.35.421.421,0,0,0-.146.557.41.41,0,0,0,.557.146Z"/>
    </g>
    <g id="Grupo_176491" data-name="Grupo 176491">
      <path id="Trazado_224660" data-name="Trazado 224660" d="M902.007,67.378a6.625,6.625,0,0,1,3.3.039.407.407,0,0,0,.217-.785,7.5,7.5,0,0,0-3.731-.039c-.509.125-.293.91.216.785Z"/>
    </g>
    <g id="Grupo_176492" data-name="Grupo 176492">
      <path id="Trazado_224661" data-name="Trazado 224661" d="M858.892,149.562c.916.1,1.584.994,2.315,1.468a4.105,4.105,0,0,0,3,.505c2.247-.413,3.763-2.252,5.1-3.952.32-.408-.253-.988-.576-.576-1.261,1.608-2.689,3.432-4.844,3.761a3.328,3.328,0,0,1-2.654-.726,4.613,4.613,0,0,0-2.334-1.294c-.52-.056-.516.759,0,.814Z" fill="#a06117"/>
    </g>
    <g id="Grupo_176493" data-name="Grupo 176493">
      <path id="Trazado_224662" data-name="Trazado 224662" d="M852.073,162.582l5.779-6.219c.356-.383-.219-.96-.576-.575l-5.779,6.219c-.357.383.218.96.576.575Z" fill="#a06117"/>
    </g>
    <g id="Grupo_176494" data-name="Grupo 176494">
      <path id="Trazado_224663" data-name="Trazado 224663" d="M858.38,161.682l2.346-2.883a.419.419,0,0,0,0-.576.411.411,0,0,0-.576,0l-2.345,2.883a.419.419,0,0,0,0,.576.41.41,0,0,0,.575,0Z" fill="#a06117"/>
    </g>
    <g id="Grupo_176495" data-name="Grupo 176495">
      <path id="Trazado_224664" data-name="Trazado 224664" d="M856.7,155.919a104.238,104.238,0,0,1,7.592,7.257c.361.381.936-.195.576-.576a104.651,104.651,0,0,0-7.592-7.257c-.4-.341-.973.232-.576.576Z" fill="#a06117"/>
    </g>
    <g id="Grupo_176496" data-name="Grupo 176496">
      <path id="Trazado_224665" data-name="Trazado 224665" d="M864.842,159.112a16.435,16.435,0,0,1,3.7-4.274.409.409,0,0,0,.1-.4,4.109,4.109,0,0,1,2.809-4.5.408.408,0,0,0-.217-.786,4.94,4.94,0,0,0-3.377,5.5l.1-.4a17.094,17.094,0,0,0-3.831,4.44.407.407,0,0,0,.7.41Z" fill="#a06117"/>
    </g>
    <g id="Grupo_176497" data-name="Grupo 176497">
      <path id="Trazado_224666" data-name="Trazado 224666" d="M879.9,147.394c-1.407-1.065-2.989-2.275-3.64-3.98-.211-.552-.624-2.048.415-1.995a3.336,3.336,0,0,1,1.341.517,11.581,11.581,0,0,1,1.28.82,27.731,27.731,0,0,1,2.658,2.318c.38.36.957-.214.576-.576a30.546,30.546,0,0,0-2.732-2.378,11.651,11.651,0,0,0-1.52-.967,3.748,3.748,0,0,0-1.653-.549c-1.23-.01-1.563,1.21-1.378,2.214a6.1,6.1,0,0,0,1.439,2.8,17.171,17.171,0,0,0,2.8,2.478c.417.317.823-.39.411-.7Z" fill="#a06117"/>
    </g>
    <g id="Grupo_176498" data-name="Grupo 176498">
      <path id="Trazado_224667" data-name="Trazado 224667" d="M928.545,159.824a10.727,10.727,0,0,0,1.845,5c.3.427,1,.02.7-.411a9.9,9.9,0,0,1-1.734-4.586.419.419,0,0,0-.407-.407.41.41,0,0,0-.407.407Z" fill="#a06117"/>
    </g>
    <g id="Grupo_176499" data-name="Grupo 176499">
      <path id="Trazado_224668" data-name="Trazado 224668" d="M932.247,158.853a10.808,10.808,0,0,0,2.171,4.053.41.41,0,0,0,.576,0,.415.415,0,0,0,0-.575,9.855,9.855,0,0,1-1.962-3.694.407.407,0,0,0-.785.216Z" fill="#a06117"/>
    </g>
    <g id="Grupo_176500" data-name="Grupo 176500">
      <path id="Trazado_224669" data-name="Trazado 224669" d="M935.981,157.637a3.4,3.4,0,0,0,1.755,3.173.407.407,0,1,0,.411-.7,2.486,2.486,0,0,1-1.044-1.037,2.3,2.3,0,0,1-.256-.676c-.016-.067-.029-.135-.04-.2s0,.007-.005-.036l-.009-.1a2.73,2.73,0,0,1,0-.415.411.411,0,0,0-.408-.407.415.415,0,0,0-.407.407Z" fill="#a06117"/>
    </g>
    <g id="Grupo_176501" data-name="Grupo 176501">
      <path id="Trazado_224670" data-name="Trazado 224670" d="M927.447,159.513a92.175,92.175,0,0,0,11.447-2.214.407.407,0,0,0-.216-.785,90.65,90.65,0,0,1-11.231,2.185c-.512.066-.519.881,0,.814Z" fill="#a06117"/>
    </g>
    <g id="Grupo_176502" data-name="Grupo 176502">
      <path id="Trazado_224671" data-name="Trazado 224671" d="M930.252,140.672a4.1,4.1,0,0,0,1.907.359,3.554,3.554,0,0,0,1.433-.609,2.086,2.086,0,0,1,1.417-.463,2.518,2.518,0,0,1,1.383.864,17.109,17.109,0,0,0,2.093,2.576,2.391,2.391,0,0,0,2.784.225c.418-.307.012-1.014-.411-.7-.83.609-1.84-.014-2.413-.678a15.247,15.247,0,0,0-2.039-2.506,2.487,2.487,0,0,0-2.825-.257,6.3,6.3,0,0,1-1.31.705,3.04,3.04,0,0,1-1.8-.3c-.492-.182-.7.6-.216.785Z" fill="#a06117"/>
    </g>
    <g id="Grupo_176503" data-name="Grupo 176503">
      <path id="Trazado_224672" data-name="Trazado 224672" d="M899.508,56.156c7.026,3.628,15.133,2.084,22.559.887,2.3-.372,4.618-.707,6.951-.853.52-.032.524-.846,0-.814-7.76.483-15.475,3.167-23.293,1.924a19.189,19.189,0,0,1-5.806-1.847c-.465-.24-.877.463-.411.7Z" fill="#a06117"/>
    </g>
    <g id="Grupo_176504" data-name="Grupo 176504">
      <path id="Trazado_224673" data-name="Trazado 224673" d="M902.113,51.245c5.987,2.652,12.662,2.511,19.026,1.664,1.882-.25,3.756-.555,5.63-.861.515-.085.3-.869-.217-.785-6.276,1.027-12.749,2.078-19.074.819a23.592,23.592,0,0,1-4.954-1.54c-.474-.21-.889.491-.411.7Z" fill="#a06117"/>
    </g>
    <g id="Grupo_176505" data-name="Grupo 176505">
      <path id="Trazado_224674" data-name="Trazado 224674" d="M908.477,42.84a12.02,12.02,0,0,0,7.64-2.035c.431-.293.024-1-.41-.7a11.307,11.307,0,0,1-7.23,1.924c-.523-.04-.52.774,0,.814Z" fill="#a06117"/>
    </g>
    <g id="Grupo_176506" data-name="Grupo 176506">
      <path id="Trazado_224675" data-name="Trazado 224675" d="M921.445,289.865a38.859,38.859,0,0,0,21.834,3.278.41.41,0,0,0,.284-.5.418.418,0,0,0-.5-.284,38.3,38.3,0,0,1-16.765-1.465,37.827,37.827,0,0,1-4.441-1.731c-.472-.22-.886.482-.411.7Z" fill="#a06117"/>
    </g>
    <g id="Grupo_176507" data-name="Grupo 176507">
      <path id="Trazado_224676" data-name="Trazado 224676" d="M947.763,293.229a20.488,20.488,0,0,0,7.088-.945c.5-.158.285-.944-.217-.785a19.8,19.8,0,0,1-6.871.916c-.523-.022-.522.792,0,.814Z" fill="#a06117"/>
    </g>
    <g id="Grupo_176508" data-name="Grupo 176508">
      <path id="Trazado_224677" data-name="Trazado 224677" d="M936.84,282.284a21.576,21.576,0,0,0,4.579,3.442.407.407,0,0,0,.411-.7,20.733,20.733,0,0,1-4.414-3.314c-.374-.368-.95.207-.576.575Z" fill="#a06117"/>
    </g>
    <g id="Grupo_176509" data-name="Grupo 176509">
      <path id="Trazado_224678" data-name="Trazado 224678" d="M937.5,280.972a9.33,9.33,0,0,0,5.457,2.577.409.409,0,0,0,.407-.407.416.416,0,0,0-.407-.407,8.434,8.434,0,0,1-4.882-2.339c-.375-.366-.951.209-.575.576Z" fill="#a06117"/>
    </g>
    <g id="Grupo_176510" data-name="Grupo 176510">
      <path id="Trazado_224679" data-name="Trazado 224679" d="M954.415,256.943a7.923,7.923,0,0,0-6.5,1.25,2.091,2.091,0,0,0-.638,2.765,4.26,4.26,0,0,0,2.741,1.774,8.921,8.921,0,0,0,4.182.128c.513-.1.3-.889-.216-.785a8.015,8.015,0,0,1-3.927-.18c-.963-.292-2.453-.957-2.244-2.219.1-.583.687-.934,1.156-1.2a7.135,7.135,0,0,1,1.665-.685,7.241,7.241,0,0,1,3.567-.059c.51.12.727-.665.216-.786Z" fill="#a06117"/>
    </g>
    <g id="Grupo_176511" data-name="Grupo 176511">
      <path id="Trazado_224680" data-name="Trazado 224680" d="M936.322,255.509a33.343,33.343,0,0,0,15.914.125c.51-.121.294-.907-.216-.785a32.437,32.437,0,0,1-15.481-.125.407.407,0,0,0-.217.785Z" fill="#a06117"/>
    </g>
    <g id="Grupo_176512" data-name="Grupo 176512">
      <path id="Trazado_224681" data-name="Trazado 224681" d="M950.4,259.13a1.368,1.368,0,0,0,.508,1.69,1.826,1.826,0,0,0,1.94-.011,2.318,2.318,0,0,0,.805-.658.828.828,0,0,0-.184-1.063,2.475,2.475,0,0,0-1.456-.75,2.514,2.514,0,0,0-1.868.422.419.419,0,0,0-.146.557.411.411,0,0,0,.557.146,1.974,1.974,0,0,1,.253-.162c.041-.022.083-.043.125-.061-.059.025.069-.024.089-.031a2.411,2.411,0,0,1,.29-.073l.059-.01c-.069.01,0,0,.012,0,.053,0,.106-.008.16-.009a2.5,2.5,0,0,1,.3.013c.068.007-.056-.01.012,0l.059.01c.059.011.118.025.176.041a1.4,1.4,0,0,1,.487.214,1.48,1.48,0,0,1,.378.34c.07.089,0,.014.017.008,0-.045.09-.116-.019-.019-.078.07-.16.148-.238.2a1.9,1.9,0,0,1-.62.313.92.92,0,0,1-.593-.012c-.025-.013-.055-.03-.084-.047s-.045-.028-.067-.044c.035.025,0,0-.013-.011a1.411,1.411,0,0,1-.127-.129c-.017-.024-.035-.052-.052-.081s-.025-.046-.037-.069c-.028-.057.018.08-.011-.029-.006-.024-.035-.157-.025-.078a.685.685,0,0,1,0-.15c-.009.1.051-.124.018-.053a.419.419,0,0,0-.146-.557.411.411,0,0,0-.557.146Z" fill="#a06117"/>
    </g>
    <g id="Grupo_176513" data-name="Grupo 176513">
      <path id="Trazado_224682" data-name="Trazado 224682" d="M922.647,254.629a13.594,13.594,0,0,0-9.183-.932,4.7,4.7,0,0,0-2.029.813c-.6.562-.22,1.341.174,1.893a7.327,7.327,0,0,0,3.4,2.5,18.439,18.439,0,0,0,5.669.9c.524.028.522-.786,0-.814-2.714-.146-5.786-.331-7.83-2.369a4.942,4.942,0,0,1-.57-.672c-.133-.19-.472-.594-.3-.833.134-.191.5-.267.71-.338q.518-.177,1.048-.31a12.773,12.773,0,0,1,4.063-.329,12.5,12.5,0,0,1,4.437,1.193c.47.226.884-.476.411-.7Z" fill="#a06117"/>
    </g>
    <g id="Grupo_176514" data-name="Grupo 176514">
      <path id="Trazado_224683" data-name="Trazado 224683" d="M915.871,256.169a2.35,2.35,0,0,0,.953,1.425,1.553,1.553,0,0,0,1.691.046,1.37,1.37,0,0,0,.657-1.541,1.385,1.385,0,0,0-1.1-.906,3.205,3.205,0,0,0-1.667.174.416.416,0,0,0-.284.5.411.411,0,0,0,.5.284,3.432,3.432,0,0,1,.544-.152l.079-.014c.014,0,.083-.014.026,0s.038,0,.042,0l.064-.006a2.714,2.714,0,0,1,.285-.009c.046,0,.092,0,.138.008.026,0,.1.015,0,0l.059.01a2.127,2.127,0,0,1,.249.067c.087.028-.057-.033-.007,0,.015.009.032.016.048.024.036.019.069.041.1.063.053.034-.023-.013-.019-.015l.039.035.037.038c.039.042.034.05,0,0,.022.035.044.069.064.106s.027.083,0-.006c.006.019.014.037.019.056s.012.044.017.066c.019.076,0,.007,0-.009,0,.023,0,.044,0,.066,0,.045-.013.09,0,.022-.011.048-.028.094-.039.141s.046-.075-.005.009c-.012.019-.021.039-.032.058s-.088.116-.034.055a1.555,1.555,0,0,1-.12.123c-.017.015-.034.031-.053.045.064-.05,0,0-.016.007a1.523,1.523,0,0,1-.136.077c-.018.009-.07.022,0,0-.022.007-.043.016-.066.023l-.066.019c-.035.008-.1.016-.028.009a1.144,1.144,0,0,1-.155.005c-.024,0-.1-.015-.013,0l-.07-.014c-.046-.01-.09-.025-.135-.039-.073-.023-.017-.005,0,0-.032-.014-.063-.029-.094-.046-.051-.028-.1-.06-.149-.093-.091-.06.032.034-.015-.011-.021-.021-.045-.039-.066-.059a1.679,1.679,0,0,1-.125-.128s-.072-.088-.036-.043-.027-.038-.033-.046a2.305,2.305,0,0,1-.186-.333c-.026-.057.018.056,0,0-.011-.034-.026-.068-.037-.1-.02-.063-.037-.127-.052-.192a.41.41,0,0,0-.5-.284.416.416,0,0,0-.284.5Z" fill="#a06117"/>
    </g>
    <g id="Grupo_176515" data-name="Grupo 176515">
      <path id="Trazado_224684" data-name="Trazado 224684" d="M904.482,251.753a25.609,25.609,0,0,0,7.693,1.679c.523.032.521-.782,0-.814a24.938,24.938,0,0,1-7.477-1.65c-.488-.189-.7.6-.216.785Z" fill="#a06117"/>
    </g>
    <g id="Grupo_176516" data-name="Grupo 176516">
      <path id="Trazado_224685" data-name="Trazado 224685" d="M901.217,277.966a16.317,16.317,0,0,0,4.143,3.675c.446.277.856-.427.411-.7a15.661,15.661,0,0,1-3.978-3.548.41.41,0,0,0-.576,0,.417.417,0,0,0,0,.576Z" fill="#a06117"/>
    </g>
    <g id="Grupo_176517" data-name="Grupo 176517">
      <path id="Trazado_224686" data-name="Trazado 224686" d="M902.717,276.9a17.716,17.716,0,0,0,3.358,2.465.407.407,0,0,0,.411-.7,16.836,16.836,0,0,1-3.193-2.337c-.383-.357-.96.217-.576.575Z" fill="#a06117"/>
    </g>
    <g id="Grupo_176518" data-name="Grupo 176518">
      <path id="Trazado_224687" data-name="Trazado 224687" d="M885.68,283.236a14.254,14.254,0,0,0,3.487,2.121c1.284.579,2.6,1.1,3.919,1.592a30.1,30.1,0,0,0,8.472,2.021,16.673,16.673,0,0,0,4.788-.365c.51-.117.294-.9-.217-.785-5.46,1.245-11.1-.811-16.065-2.952a14.629,14.629,0,0,1-3.808-2.207c-.4-.34-.975.234-.576.575Z" fill="#a06117"/>
    </g>
    <g id="Grupo_176519" data-name="Grupo 176519">
      <path id="Trazado_224688" data-name="Trazado 224688" d="M911.323,290.37a12.619,12.619,0,0,0,5.382-.536c.5-.161.284-.948-.216-.785a12.044,12.044,0,0,1-5.166.507.409.409,0,0,0-.407.407.417.417,0,0,0,.407.407Z" fill="#a06117"/>
    </g>
    <g id="Grupo_176520" data-name="Grupo 176520">
      <path id="Trazado_224689" data-name="Trazado 224689" d="M953.342,285.031a10.447,10.447,0,0,0-4.638,5.886c-.154.5.631.716.785.216a9.59,9.59,0,0,1,4.264-5.4.407.407,0,0,0-.411-.7Z" fill="#a06117"/>
    </g>
    <g id="Grupo_176521" data-name="Grupo 176521">
      <path id="Trazado_224690" data-name="Trazado 224690" d="M917.744,280.586a9.176,9.176,0,0,0-5.554,6.386c-.118.509.667.727.785.216a8.34,8.34,0,0,1,4.985-5.817c.482-.189.272-.977-.216-.785Z" fill="#a06117"/>
    </g>
    <g id="Grupo_176522" data-name="Grupo 176522">
      <path id="Trazado_224691" data-name="Trazado 224691" d="M904.288,220.357c4.07,2.217,8.891,1.17,13.072-.135a53.009,53.009,0,0,1,7.066-1.943,15.592,15.592,0,0,1,3.649-.187,29.936,29.936,0,0,1,3.522.534c2.567.494,5.243,1.028,7.8.216.5-.158.285-.944-.217-.785-2.238.709-4.576.319-6.828-.112a23.585,23.585,0,0,0-6.935-.615c-4.686.492-8.944,2.8-13.611,3.371a11.752,11.752,0,0,1-7.112-1.047c-.461-.251-.872.452-.411.7Z" fill="#6da8c6"/>
    </g>
    <g id="Grupo_176523" data-name="Grupo 176523">
      <path id="Trazado_224692" data-name="Trazado 224692" d="M906.54,165.06q.131,2.291.26,4.581c.029.521.844.525.814,0l-.259-4.581c-.03-.521-.844-.525-.815,0Z" fill="#6da8c6"/>
    </g>
    <g id="Grupo_176524" data-name="Grupo 176524">
      <path id="Trazado_224693" data-name="Trazado 224693" d="M908.959,167.131q.221,1.528.442,3.055a.41.41,0,0,0,.5.285.419.419,0,0,0,.284-.5q-.22-1.527-.442-3.055a.411.411,0,0,0-.5-.285.417.417,0,0,0-.284.5Z" fill="#6da8c6"/>
    </g>
    <g id="Grupo_176525" data-name="Grupo 176525">
      <path id="Trazado_224694" data-name="Trazado 224694" d="M926.143,140.5l-16.619-.457a.411.411,0,0,0-.407.407l.784,10.8q.094,1.316.191,2.632a23.915,23.915,0,0,0,.2,2.407,2.022,2.022,0,0,0,1.155,1.562,11.737,11.737,0,0,0,2.294.708,20.391,20.391,0,0,0,5.658.507c.522-.027.525-.841,0-.814a19.341,19.341,0,0,1-7.033-.921,2.733,2.733,0,0,1-.862-.385,1.338,1.338,0,0,1-.427-.874c-.131-.782-.132-1.6-.189-2.393q-.089-1.215-.176-2.429l-.372-5.128-.412-5.668-.407.407,16.619.457a.407.407,0,0,0,0-.814Z" fill="#6da8c6"/>
    </g>
    <g id="Grupo_176526" data-name="Grupo 176526">
      <path id="Trazado_224695" data-name="Trazado 224695" d="M943.257,157.509a4.392,4.392,0,0,0,1.387-1.95.41.41,0,0,0-.285-.5.417.417,0,0,0-.5.285c-.017.045-.034.089-.052.134s0,.006.008-.018a.49.49,0,0,1-.029.066c-.035.079-.074.156-.114.232a4.178,4.178,0,0,1-.289.464l-.034.046c-.037.048-.031.019,0,0a.584.584,0,0,0-.082.1c-.058.07-.119.137-.182.2a4.005,4.005,0,0,1-.406.365.41.41,0,0,0-.119.288.406.406,0,0,0,.407.407.472.472,0,0,0,.288-.119Z" fill="#6da8c6"/>
    </g>
    <g id="Grupo_176527" data-name="Grupo 176527">
      <path id="Trazado_224696" data-name="Trazado 224696" d="M945.945,150.212a34.046,34.046,0,0,0,.252-5.453c-.017-.522-.832-.525-.814,0a34.032,34.032,0,0,1-.252,5.453.409.409,0,0,0,.407.407.417.417,0,0,0,.407-.407Z" fill="#6da8c6"/>
    </g>
    <g id="Grupo_176528" data-name="Grupo 176528">
      <path id="Trazado_224697" data-name="Trazado 224697" d="M937.056,248.245a73.393,73.393,0,0,0,15.3-.382.421.421,0,0,0,.407-.407.409.409,0,0,0-.407-.407,73.392,73.392,0,0,1-15.3.382c-.522-.042-.519.772,0,.814Z" fill="#33637a"/>
    </g>
    <g id="Grupo_176529" data-name="Grupo 176529">
      <path id="Trazado_224698" data-name="Trazado 224698" d="M904.909,243.833a69.778,69.778,0,0,0,14.686,1.683.407.407,0,0,0,0-.814,68.729,68.729,0,0,1-14.47-1.654c-.51-.114-.728.671-.216.785Z" fill="#33637a"/>
    </g>
    <g id="Grupo_176530" data-name="Grupo 176530">
      <path id="Trazado_224699" data-name="Trazado 224699" d="M937.828,235.444q.3,1.427.595,2.851a.408.408,0,0,0,.786-.217l-.6-2.85a.407.407,0,0,0-.785.216Z" fill="#33637a"/>
    </g>
    <g id="Grupo_176531" data-name="Grupo 176531">
      <path id="Trazado_224700" data-name="Trazado 224700" d="M939.782,231.615c.053.08.1.161.147.245.022.043.044.085.064.128.011.024.042.1.016.034a2.913,2.913,0,0,1,.155.532c.008.041.015.082.021.124-.014-.1,0,.052.005.069a2.657,2.657,0,0,1,.009.268c0,.09-.008.179-.017.268-.006.048-.006.047,0,0,0,.024-.007.047-.012.071-.008.047-.018.093-.029.14a.407.407,0,1,0,.785.216,3.237,3.237,0,0,0-.441-2.5.407.407,0,1,0-.7.411Z" fill="#33637a"/>
    </g>
    <g id="Grupo_176532" data-name="Grupo 176532">
      <path id="Trazado_224701" data-name="Trazado 224701" d="M941.292,227.37l.642,2.187a.407.407,0,0,0,.785-.216l-.642-2.187a.407.407,0,1,0-.785.216Z" fill="#33637a"/>
    </g>
    <g id="Grupo_176533" data-name="Grupo 176533">
      <path id="Trazado_224702" data-name="Trazado 224702" d="M909.982,231.862q.105.982.212,1.966a.417.417,0,0,0,.407.407.411.411,0,0,0,.407-.407q-.106-.982-.212-1.966a.417.417,0,0,0-.407-.407.411.411,0,0,0-.407.407Z" fill="#33637a"/>
    </g>
    <g id="Grupo_176534" data-name="Grupo 176534">
      <path id="Trazado_224703" data-name="Trazado 224703" d="M912.705,229.221c.012.026.049.139.014.027.008.025.02.05.029.075.023.059.042.119.06.18s.032.122.045.184c.006.026.011.053.016.08l.008.053h0c0-.037-.005-.037,0,0l.005.054.006.081q0,.095,0,.189c0,.063-.005.127-.011.189s-.006.059,0,0c-.011.007-.015.091-.018.106a.439.439,0,0,0,.041.314.407.407,0,0,0,.744-.1,3.015,3.015,0,0,0-.241-1.845.41.41,0,0,0-.557-.146.419.419,0,0,0-.146.557Z" fill="#33637a"/>
    </g>
    <g id="Grupo_176535" data-name="Grupo 176535">
      <path id="Trazado_224704" data-name="Trazado 224704" d="M916.248,228.074a1.359,1.359,0,0,0-.308,1.27.417.417,0,0,0,.187.243.406.406,0,0,0,.556-.146.42.42,0,0,0,.042-.314.733.733,0,0,1-.027-.13l.014.108a.966.966,0,0,1,0-.24l-.015.108a1,1,0,0,1,.067-.245l-.042.1a.975.975,0,0,1,.121-.207l-.063.083c.014-.018.028-.035.043-.051a.431.431,0,0,0,.119-.288.414.414,0,0,0-.119-.288.408.408,0,0,0-.576,0Z" fill="#33637a"/>
    </g>
    <g id="Grupo_176536" data-name="Grupo 176536">
      <path id="Trazado_224705" data-name="Trazado 224705" d="M916.411,235.585a1.234,1.234,0,0,0-.228.753,1.273,1.273,0,0,0,.065.391,1.392,1.392,0,0,0,.24.424.406.406,0,0,0,.288.119.406.406,0,0,0,.407-.407l-.015-.108a.409.409,0,0,0-.1-.18l.054.07a.824.824,0,0,1-.109-.188l.041.1a.937.937,0,0,1-.06-.225l.014.108a1.036,1.036,0,0,1,0-.249l-.014.108a.975.975,0,0,1,.062-.225l-.041.1a.842.842,0,0,1,.1-.174.407.407,0,0,0-.46-.6l-.1.041a.408.408,0,0,0-.146.146Z" fill="#33637a"/>
    </g>
    <g id="Grupo_176537" data-name="Grupo 176537">
      <path id="Trazado_224706" data-name="Trazado 224706" d="M808.642,251.366c-1.388-.182-2.1-1.807-2.543-2.946a26.862,26.862,0,0,1-1.224-15.4c.259-1.183.709-2.658,1.816-3.326,1.307-.79,2.4.517,3.007,1.544a25.51,25.51,0,0,1,2.455,19.947l.744-.1a13.078,13.078,0,0,1-.267-12.045,9.174,9.174,0,0,1,1.762-2.592c.378-.357.923-.682,1.406-.312a4.163,4.163,0,0,1,.926,1.353,15.25,15.25,0,0,1,.28,13.737l.744.314a6.265,6.265,0,0,1,4.6-4.657,5.971,5.971,0,0,1,5.982,2.188,5.8,5.8,0,0,1,1.285,3.138,7.716,7.716,0,0,1-.782,3.881,16.215,16.215,0,0,1-2.237,3.417,22.14,22.14,0,0,1-2.839,2.937,8.342,8.342,0,0,1-3.886,1.929,5.046,5.046,0,0,1-3.948-.855c-.407-.321-.987.251-.576.576,2.325,1.832,5.542,1.31,7.868-.234a17.129,17.129,0,0,0,3.252-2.956,20.479,20.479,0,0,0,2.707-3.694c1.353-2.463,1.837-5.44.292-7.935a6.924,6.924,0,0,0-6.472-3.328,7.071,7.071,0,0,0-6.027,5.377c-.092.427.53.749.744.313a16.1,16.1,0,0,0-.128-14.269c-.484-.946-1.155-2.355-2.432-2.2-1.182.141-1.988,1.394-2.571,2.312a13.814,13.814,0,0,0-2.073,6.552,13.569,13.569,0,0,0,1.691,7.467.412.412,0,0,0,.744-.1,26.393,26.393,0,0,0-2.455-20.434c-.723-1.246-1.826-2.6-3.444-2.278-1.393.277-2.213,1.75-2.641,2.976a14.745,14.745,0,0,0-.561,2.459c-.152.919-.261,1.847-.321,2.777a27.94,27.94,0,0,0,.229,5.715,26.965,26.965,0,0,0,1.614,6.13c.6,1.518,1.5,3.2,3.283,3.431a.41.41,0,0,0,.407-.408.418.418,0,0,0-.407-.407Z" fill="#8e8b5e"/>
    </g>
    <g id="Grupo_176538" data-name="Grupo 176538">
      <path id="Trazado_224707" data-name="Trazado 224707" d="M797.692,263.735c-.891-2.62-1.963-5.623-4.634-6.912a5,5,0,0,0-3.789-.358,4.84,4.84,0,0,0-2.7,2.819,19.428,19.428,0,0,0-1.3,9.391c.272,2.787,1.008,5.823,2.888,7.988a5.7,5.7,0,0,0,3.143,1.948,5.081,5.081,0,0,0,3.241-.508,3.761,3.761,0,0,0,1.967-2.356,1.683,1.683,0,0,0-.28-1.566,2.171,2.171,0,0,0-1.309-.729A2.774,2.774,0,0,0,792,274.935a7.392,7.392,0,0,0-.747,3.755,11.013,11.013,0,0,0,2.4,6.742,7.657,7.657,0,0,0,6.749,2.778c3.011-.323,5.652-2.081,7.961-3.925.589-.471,1.164-.96,1.733-1.456.4-.345-.182-.919-.575-.576-3.541,3.088-8.969,7.253-13.718,4.058a8.817,8.817,0,0,1-3.4-5.166,10.717,10.717,0,0,1-.324-3.235,4.732,4.732,0,0,1,1.091-3.179,1.747,1.747,0,0,1,2.388-.084c.608.656-.14,1.751-.659,2.225a4.076,4.076,0,0,1-2.542,1,4.2,4.2,0,0,1-2.859-1.035c-1.89-1.566-2.718-4.107-3.164-6.437a19.915,19.915,0,0,1,.3-8.733,8.418,8.418,0,0,1,1.56-3.513,3.341,3.341,0,0,1,3.052-1.063c2.624.388,4.108,2.728,5,5.007.239.611.452,1.231.663,1.852.168.493.954.281.785-.217Z" fill="#8e8b5e"/>
    </g>
    <g id="Grupo_176539" data-name="Grupo 176539">
      <path id="Trazado_224708" data-name="Trazado 224708" d="M821.689,171.553a11.568,11.568,0,0,0,2.072-2.389,10.06,10.06,0,0,1,1.948-2.283,2.239,2.239,0,0,1,2.592-.164,5.858,5.858,0,0,1,2,3.032,25.572,25.572,0,0,1,.631,15.887,24.908,24.908,0,0,1-4,8.168l.351-.2c-.875-.093-1.212-1.067-1.341-1.809a7.386,7.386,0,0,1,.176-2.842c.386-1.729,1.247-3.9,3.094-4.5,2.212-.723,4.037,1.181,4.95,2.981a12.91,12.91,0,0,1,1.162,6.814,13.921,13.921,0,0,1-2.852,7.381l.64.082c-.972-1.667.238-3.917,1.988-4.442,2.191-.658,4.43.791,5.443,2.682a9.908,9.908,0,0,1,.61,6.772,13.7,13.7,0,0,1-2.855,5.721,13.309,13.309,0,0,1-5.865,4.08c-.493.167-.282.954.216.785a14.51,14.51,0,0,0,9.256-10.227,10.835,10.835,0,0,0-.659-7.542,5.761,5.761,0,0,0-6.124-3.119c-2.377.552-4,3.489-2.713,5.7a.409.409,0,0,0,.639.083,14.894,14.894,0,0,0,3.061-7.639,13.424,13.424,0,0,0-1.485-7.987,6.518,6.518,0,0,0-2.673-2.675,3.988,3.988,0,0,0-3.429-.047c-2.09.971-3.015,3.567-3.339,5.685a6.368,6.368,0,0,0,.206,3.31,2.623,2.623,0,0,0,.929,1.248,1.892,1.892,0,0,0,.626.273.985.985,0,0,0,.447.035c.192-.053.293-.252.4-.4a25.351,25.351,0,0,0,3.715-7.435,26.429,26.429,0,0,0-.165-16.333c-.725-2.1-2.055-5.175-4.826-4.615a4.324,4.324,0,0,0-2.323,1.625c-.707.849-1.288,1.794-1.993,2.645a7.46,7.46,0,0,1-1.087,1.089c-.41.326.169.9.576.576Z" fill="#8e8b5e"/>
    </g>
    <g id="Grupo_176540" data-name="Grupo 176540">
      <path id="Trazado_224709" data-name="Trazado 224709" d="M794.939,202.579c-.837-2.5-1.775-5.206-4.012-6.8a5.806,5.806,0,0,0-3.487-1.143,4.836,4.836,0,0,0-3.312,1.578c-3.06,3.157-3.741,8.113-2.555,12.22a13.076,13.076,0,0,0,3.109,5.463,7.861,7.861,0,0,0,2.785,2.027,1.815,1.815,0,0,0,1.773-.229,2.135,2.135,0,0,0,.715-1.427c.271-2.2-1.806-3.9-3.806-4.159a4.928,4.928,0,0,0-5.062,3.34,7.137,7.137,0,0,0,1.192,6.893,14.8,14.8,0,0,0,6.63,4.557c.666.265,1.341.509,2.017.748.495.174.708-.612.216-.785a20.238,20.238,0,0,1-6.784-3.469,7.706,7.706,0,0,1-2.906-5.719,4.911,4.911,0,0,1,3.133-4.655,3.746,3.746,0,0,1,4.4,2c.287.733.3,2.25-.815,2.229a2.958,2.958,0,0,1-1.538-.722,10.187,10.187,0,0,1-1.063-.893,11.966,11.966,0,0,1-2.983-4.7,12.467,12.467,0,0,1,1.114-10.873,6.175,6.175,0,0,1,2.385-2.291,4.044,4.044,0,0,1,3.17.017c2.273.884,3.492,3.134,4.3,5.3.212.568.406,1.143.6,1.718.166.494.953.283.785-.216Z" fill="#8e8b5e"/>
    </g>
    <path id="Trazado_224710" data-name="Trazado 224710" d="M755.212,225.144c-5.571-2.9-11.508-6.168-14.212-11.836A16.032,16.032,0,0,1,754.691,225.1a24.6,24.6,0,0,0-15.913-1.416,18.106,18.106,0,0,0,16.053.652Z" fill="#8e8b5e"/>
    <path id="Trazado_224711" data-name="Trazado 224711" d="M864.935,235.862a27.832,27.832,0,0,1,4.653-6.662c.89-.944,2.463-1.828,3.336-.868.7.773.188,2.015-.45,2.844a12.848,12.848,0,0,1-7.4,4.675Z" fill="#8e8b5e"/>
    <path id="Trazado_224712" data-name="Trazado 224712" d="M864.487,240.634a37.529,37.529,0,0,0,9.9,4.546,5.621,5.621,0,0,0-9.806-4.508Z" fill="#8e8b5e"/>
    <g id="Grupo_176541" data-name="Grupo 176541">
      <path id="Trazado_224713" data-name="Trazado 224713" d="M800.342,165.488a11.882,11.882,0,0,1,.764-4.848,11.676,11.676,0,0,1,1.139-2.225,10.964,10.964,0,0,1,.656-.9,3.226,3.226,0,0,1,.944-.915c.778-.385,1.442.618,1.842,1.143a15.661,15.661,0,0,1,2.96,6.792,5.284,5.284,0,0,1,.054,2.517c-.141.433-.552,1.307-1.113.917l.2.351a11.042,11.042,0,0,1,3.723-9.466,6.816,6.816,0,0,1,4.48-1.539,7.58,7.58,0,0,1,4.326,1.567,5.453,5.453,0,0,1,2.247,4.3.407.407,0,0,0,.814,0c.021-3.3-2.815-5.806-5.864-6.485a7.521,7.521,0,0,0-4.773.457,9.3,9.3,0,0,0-3.888,3.463,12.276,12.276,0,0,0-1.811,5.057,13.052,13.052,0,0,0-.106,1.326,6.309,6.309,0,0,0,.046,1.374c.078.386.606.548.955.523a1.431,1.431,0,0,0,.957-.535,3.357,3.357,0,0,0,.741-2.419,16.206,16.206,0,0,0-.555-3.169,16.453,16.453,0,0,0-2.893-5.7c-.6-.762-1.437-1.681-2.512-1.28a2.971,2.971,0,0,0-1.173.936,12.5,12.5,0,0,0-.961,1.283,12.674,12.674,0,0,0-2,5.931,12.186,12.186,0,0,0-.015,1.553c.027.522.841.525.814,0Z" fill="#8e8b5e"/>
    </g>
    <g id="Grupo_176542" data-name="Grupo 176542">
      <path id="Trazado_224714" data-name="Trazado 224714" d="M832.248,148.462c1.148-1.356,3.121-1.21,4.552-.4,1.879,1.066,2.545,3.191,2.569,5.247a17.6,17.6,0,0,1-.5,3.989c-.113.51.672.728.785.216.56-2.527.914-5.306-.212-7.734a5.515,5.515,0,0,0-4.9-3.155,3.718,3.718,0,0,0-2.872,1.261c-.337.4.236.976.575.575Z" fill="#8e8b5e"/>
    </g>
    <g id="Grupo_176543" data-name="Grupo 176543">
      <path id="Trazado_224715" data-name="Trazado 224715" d="M778.871,241.526c-2.765-1.755-6.58-.736-8.639,1.649a6,6,0,0,0-1.488,4.59,7.3,7.3,0,0,0,2.548,4.647,7.189,7.189,0,0,0,5.761,1.762c.448-.07.348-.849-.109-.8a4.391,4.391,0,0,0-3.628,3.687,7.01,7.01,0,0,0,1.885,5.925,24.67,24.67,0,0,0,2.92,2.807c.4.339.974-.234.575-.576a14.955,14.955,0,0,1-4.2-4.786,4.978,4.978,0,0,1,.321-4.883,3.016,3.016,0,0,1,2.124-1.36l-.108-.8a6.723,6.723,0,0,1-7.2-5.182c-.634-2.986,1.552-5.656,4.327-6.486a5.431,5.431,0,0,1,4.5.509c.444.281.853-.423.411-.7Z" fill="#8e8b5e"/>
    </g>
  </g>
</svg>
