<svg id="agricultor" xmlns="http://www.w3.org/2000/svg" width="70" height="72.227" viewBox="0 0 70 72.227">
  <path id="Trazado_225023" data-name="Trazado 225023" d="M70,50.756A35,35,0,1,1,35,15.785,34.986,34.986,0,0,1,70,50.756Zm0,0" transform="translate(0 -13.501)" fill="#ead065"/>
  <path id="Trazado_225024" data-name="Trazado 225024" d="M241.453,227.295a36.349,36.349,0,0,0-.2-3.816,9.755,9.755,0,0,0-6.408-2.377,9.632,9.632,0,0,0-9.327,6.973c-.111,0-.223-.008-.336-.008a7.3,7.3,0,0,0-4.728,1.722,8.4,8.4,0,0,0-14.616.951,6.109,6.109,0,0,0-1.533-.2,5.9,5.9,0,0,0-5.963,5.826,5.718,5.718,0,0,0,.146,1.283h41.447A35.913,35.913,0,0,0,241.453,227.295Zm0,0" transform="translate(-171.453 -190.144)" fill="#9fbc22"/>
  <path id="Trazado_225025" data-name="Trazado 225025" d="M230.106,233.191c.079-.088.159-.173.242-.256a1.992,1.992,0,0,0,.53-1.911,8.412,8.412,0,0,1,5.017-9.866,9.929,9.929,0,0,0-1.052-.058,9.632,9.632,0,0,0-9.327,6.973c-.111-.005-.223-.008-.336-.008a7.3,7.3,0,0,0-4.729,1.723,8.4,8.4,0,0,0-14.616.951,6.105,6.105,0,0,0-1.533-.2,5.9,5.9,0,0,0-5.963,5.827,5.689,5.689,0,0,0,.147,1.283h30.09A6.007,6.007,0,0,1,230.106,233.191Zm0,0" transform="translate(-171.453 -190.144)" fill="#7fa017"/>
  <path id="Trazado_225026" data-name="Trazado 225026" d="M0,227.307a36.353,36.353,0,0,1,.2-3.816,9.75,9.75,0,0,1,15.735,4.6c.111,0,.223-.008.336-.008A7.3,7.3,0,0,1,21,229.8a8.4,8.4,0,0,1,14.616.951,6.109,6.109,0,0,1,1.533-.2,5.9,5.9,0,0,1,5.963,5.826,5.718,5.718,0,0,1-.146,1.283H1.519A35.912,35.912,0,0,1,0,227.307Zm0,0" transform="translate(0 -190.157)" fill="#7fa017"/>
  <path id="Trazado_225027" data-name="Trazado 225027" d="M76.463,319.711l-.018-.016a6.055,6.055,0,0,0-8.264.006,1.137,1.137,0,0,1-1.56,0,6.055,6.055,0,0,0-8.264-.006,1.148,1.148,0,0,1-1.573,0,6.055,6.055,0,0,0-8.258,0,1.159,1.159,0,0,1-1.573,0,6.055,6.055,0,0,0-8.288.029,1.1,1.1,0,0,1-1.513,0,6.056,6.056,0,0,0-8.288-.029,1.148,1.148,0,0,1-1.573,0,6.055,6.055,0,0,0-8.258,0,1.144,1.144,0,0,1-1.57,0,6.045,6.045,0,0,0-8.423.159c4.1,15.155,17.63,26.279,33.692,26.279C58.846,346.137,72.412,334.941,76.463,319.711Zm0,0" transform="translate(-7.731 -273.911)" fill="#c1d12a"/>
  <path id="Trazado_225028" data-name="Trazado 225028" d="M43.621,345.727a6.149,6.149,0,0,1,5.582-6.082,1.178,1.178,0,0,0,1.063-1.151,6.15,6.15,0,0,1,5.581-6.041,1.165,1.165,0,0,0,1.063-1.151,6.149,6.149,0,0,1,5.59-6.041,1.155,1.155,0,0,0,1.054-1.141,6.147,6.147,0,0,1,3.26-5.355,6.34,6.34,0,0,0-7.133.928,1.2,1.2,0,0,1-1.616,0,6.341,6.341,0,0,0-8.481,0,1.215,1.215,0,0,1-1.616,0,6.341,6.341,0,0,0-8.512.028,1.148,1.148,0,0,1-1.553,0,6.342,6.342,0,0,0-8.512-.028,1.2,1.2,0,0,1-1.616,0,6.341,6.341,0,0,0-8.481,0,1.2,1.2,0,0,1-1.611,0,6.329,6.329,0,0,0-8.651.159,35.924,35.924,0,0,0,34.507,26.278A1.108,1.108,0,0,0,43.621,345.727Zm0,0" transform="translate(-7.727 -273.909)" fill="#9fbc22"/>
  <path id="Trazado_225029" data-name="Trazado 225029" d="M165.188,17.36,161.862,3.231A4.608,4.608,0,0,0,155.77.288a18.975,18.975,0,0,1-6.37,1.1h-2.207a18.981,18.981,0,0,1-6.371-1.1,4.608,4.608,0,0,0-6.091,2.943L131.406,17.36C141.146,14.814,155.421,14.807,165.188,17.36Zm0,0" transform="translate(-113.297 0)" fill="#a34c3e"/>
  <path id="Trazado_225030" data-name="Trazado 225030" d="M141.3,3.975a3.74,3.74,0,0,1,2.47-2.9,18.758,18.758,0,0,1-2.95-.785,4.608,4.608,0,0,0-6.092,2.943L131.406,17.36a56.349,56.349,0,0,1,7.558-1.38Zm0,0" transform="translate(-112.969 0)" fill="#7f383f"/>
  <path id="Trazado_225031" data-name="Trazado 225031" d="M132.584,72.8l-1.174,4.99c9.739-2.545,24.015-2.553,33.781,0l-1.174-4.99a58.707,58.707,0,0,0-31.432,0Zm0,0" transform="translate(-113.3 -60.433)" fill="#7f383f"/>
  <path id="Trazado_225032" data-name="Trazado 225032" d="M139.981,74.48a47.114,47.114,0,0,0-7.4,1.59l-1.174,4.99a56.611,56.611,0,0,1,7.558-1.379Zm0,0" transform="translate(-112.938 -63.701)" fill="#70303a"/>
  <path id="Trazado_225033" data-name="Trazado 225033" d="M100.494,327.657a33.822,33.822,0,0,0,23.917-9.966L122.9,309.8a6.3,6.3,0,0,0-4.007-4.838l-.815-.25c-.068-.02-6.252-1.575-9.7-2.442a2.716,2.716,0,0,1-2.264-2.562v-3.189a12.751,12.751,0,0,1-11.232-.058v3.246a2.716,2.716,0,0,1-2.264,2.562c-3.45.867-9.634,2.421-9.7,2.442a6.36,6.36,0,0,0-4.822,5.088l-1.514,7.893A33.822,33.822,0,0,0,100.494,327.657Zm0,0" transform="translate(-65.495 -255.43)" fill="#dc3647"/>
  <path id="Trazado_225034" data-name="Trazado 225034" d="M203.036,298.254,201.973,298a2.738,2.738,0,0,1-2.35-2.562v-3.912a13.732,13.732,0,0,1-5.148,1.26,13.55,13.55,0,0,1-6.511-1.317v3.969a2.739,2.739,0,0,1-2.35,2.562l-1.012.245a9.432,9.432,0,0,0,5.843,6.859,5.168,5.168,0,0,1,3.112,3.528h0a.271.271,0,0,0,.524,0A5.172,5.172,0,0,1,197.2,305.1,9.431,9.431,0,0,0,203.036,298.254Zm0,0" transform="translate(-158.794 -250.676)" fill="#fd995b"/>
  <path id="Trazado_225035" data-name="Trazado 225035" d="M198.63,304.4a9.055,9.055,0,0,1-3.094-1.247,5.835,5.835,0,0,1-2.718-4.946v-5.451a13.53,13.53,0,0,1-4.855-1.294v3.97a2.739,2.739,0,0,1-2.35,2.562l-1.012.245a9.431,9.431,0,0,0,5.843,6.859,5.169,5.169,0,0,1,3.112,3.528h0a.271.271,0,0,0,.524,0,5.17,5.17,0,0,1,3.115-3.53A9.415,9.415,0,0,0,198.63,304.4Zm0,0" transform="translate(-158.724 -250.672)" fill="#f28b51"/>
  <path id="Trazado_225036" data-name="Trazado 225036" d="M306.507,343.929V330.938a2.023,2.023,0,0,0-1.6-1.978c-.064-.014-1.555-.326-1.967-.436a1.186,1.186,0,0,0-1.5,1.144v14.262Zm0,0" transform="translate(-259.002 -282.816)" fill="#6cafff"/>
  <path id="Trazado_225037" data-name="Trazado 225037" d="M164.839,343.55V329.224a1.185,1.185,0,0,0-1.464-1.152l-.008,0-2.047.5a2.023,2.023,0,0,0-1.547,1.966V343.55Zm0,0" transform="translate(-137.279 -282.438)" fill="#6cafff"/>
  <g id="Grupo_176789" data-name="Grupo 176789" transform="translate(18.406 55.668)">
    <path id="Trazado_225038" data-name="Trazado 225038" d="M301.441,397.738v5.423h5.066v-5.423A2.692,2.692,0,0,1,301.441,397.738Zm0,0" transform="translate(-277.128 -397.717)" fill="#308cef"/>
    <path id="Trazado_225039" data-name="Trazado 225039" d="M159.773,397.594v5.444h5.066v-5.444A2.682,2.682,0,0,1,159.773,397.594Zm0,0" transform="translate(-155.965 -397.594)" fill="#308cef"/>
    <path id="Trazado_225040" data-name="Trazado 225040" d="M165.826,430.451a2.981,2.981,0,0,1-2.99-2.981,1.263,1.263,0,0,0-1.263-1.262H138.529a1.263,1.263,0,0,0-1.263,1.262,2.981,2.981,0,0,1-2.991,2.981.829.829,0,0,0-.818.838v3.277a35.716,35.716,0,0,0,15.631,4.045l.1,0q.432.01.866.011t.867-.011l.1,0a35.72,35.72,0,0,0,15.631-4.045v-3.277A.83.83,0,0,0,165.826,430.451Zm0,0" transform="translate(-133.457 -422.066)" fill="#308cef"/>
  </g>
  <path id="Trazado_225041" data-name="Trazado 225041" d="M137.266,427.47a2.981,2.981,0,0,1-2.991,2.981.829.829,0,0,0-.818.838v3.277a35.681,35.681,0,0,0,13.693,3.941v-10.39a2.006,2.006,0,0,1,1.416-1.91H138.529A1.263,1.263,0,0,0,137.266,427.47Zm0,0" transform="translate(-114.761 -366.397)" fill="#2a77e8"/>
  <path id="Trazado_225042" data-name="Trazado 225042" d="M117.683,107.49c0-4.063-11.321-7.357-25.287-7.357s-25.287,3.294-25.287,7.357,11.321,7.357,25.287,7.357S117.683,111.553,117.683,107.49Zm0,0" transform="translate(-57.396 -86.098)" fill="#a34c3e"/>
  <path id="Trazado_225043" data-name="Trazado 225043" d="M84.174,103.309c-9.965,1.041-17.064,3.737-17.064,6.9,0,3.13,6.961,5.8,16.773,6.866V108.02A2.747,2.747,0,0,1,84.174,103.309Zm0,0" transform="translate(-57.396 -88.822)" fill="#7f383f"/>
  <path id="Trazado_225044" data-name="Trazado 225044" d="M344,149.73a3.934,3.934,0,0,0-1.144.17v7.2a3.934,3.934,0,0,0,1.144.17,3.769,3.769,0,1,0,0-7.536Zm0,0" transform="translate(-294.584 -128.671)" fill="#fd995b"/>
  <path id="Trazado_225045" data-name="Trazado 225045" d="M344,165.8a3.934,3.934,0,0,1-1.144-.17V169.1a3.931,3.931,0,0,0,1.144.17,3.814,3.814,0,0,0,3.859-3.768,3.678,3.678,0,0,0-.434-1.737A3.871,3.871,0,0,1,344,165.8Zm0,0" transform="translate(-294.584 -140.712)" fill="#f28b51"/>
  <path id="Trazado_225046" data-name="Trazado 225046" d="M122.93,149.73a3.931,3.931,0,0,1,1.144.17v7.2a3.931,3.931,0,0,1-1.144.17,3.769,3.769,0,1,1,0-7.536Zm0,0" transform="translate(-102.306 -128.671)" fill="#fd995b"/>
  <path id="Trazado_225047" data-name="Trazado 225047" d="M122.93,165.8a3.931,3.931,0,0,0,1.144-.17V169.1a3.931,3.931,0,0,1-1.144.17,3.814,3.814,0,0,1-3.859-3.768,3.679,3.679,0,0,1,.435-1.737A3.87,3.87,0,0,0,122.93,165.8Zm0,0" transform="translate(-102.306 -140.712)" fill="#f28b51"/>
  <path id="Trazado_225048" data-name="Trazado 225048" d="M170.863,446.338a1.085,1.085,0,1,1,1.086-1.086A1.087,1.087,0,0,1,170.863,446.338Zm0,0" transform="translate(-145.847 -381.758)" fill="#308cef"/>
  <path id="Trazado_225049" data-name="Trazado 225049" d="M312.531,446.336a1.085,1.085,0,1,1,1.086-1.085A1.086,1.086,0,0,1,312.531,446.336Zm0,0" transform="translate(-267.546 -381.755)" fill="#6cafff"/>
  <path id="Trazado_225050" data-name="Trazado 225050" d="M180.18,131.981c-4.032-3.108-22.625-3.145-26.887-.057a.9.9,0,0,0-.371.73v8.452a13.8,13.8,0,1,0,27.608.2V132.7A.9.9,0,0,0,180.18,131.981Zm0,0" transform="translate(-131.7 -111.592)" fill="#fcad6d"/>
  <path id="Trazado_225051" data-name="Trazado 225051" d="M159.066,144.211V133.258a14.793,14.793,0,0,0-5.773,1.77.9.9,0,0,0-.371.73v8.452a13.892,13.892,0,0,0,16.9,13.652A14.01,14.01,0,0,1,159.066,144.211Zm0,0" transform="translate(-131.522 -114.708)" fill="#fd995b"/>
  <path id="Trazado_225052" data-name="Trazado 225052" d="M209.981,473.77H197.9a1.469,1.469,0,0,0-1.465,1.465v3.286a35.942,35.942,0,0,0,6.55.771c.309.007.618.012.928.012h0c.311,0,.621,0,.931-.012a36,36,0,0,0,6.6-.781v-3.275A1.469,1.469,0,0,0,209.981,473.77Zm0,0" transform="translate(-168.917 -407.076)" fill="#0b658d"/>
  <path id="Trazado_225053" data-name="Trazado 225053" d="M196.438,475.234v3.286a35.845,35.845,0,0,0,4.577.665V473.77H197.9A1.469,1.469,0,0,0,196.438,475.234Zm0,0" transform="translate(-168.775 -407.076)" fill="#00557f"/>
</svg>
