<svg xmlns="http://www.w3.org/2000/svg" width="257.808" height="217.718" viewBox="0 0 257.808 217.718">
  <g id="Grupo_176746" data-name="Grupo 176746" transform="translate(-546.34 -189.701)">
    <path id="Trazado_224853" data-name="Trazado 224853" d="M553.792,333.882c1.681-3.192,4.8-3.683,7.563-3.832a143.2,143.2,0,0,1,24.009.726c2.6.3,5.276.652,7.746-.55,4.72-2.3,7.388-9.521,11.523-13.555,4.6-4.49,10.514-4.609,16.053-4.573,9.389.061,18.779.123,28.161.623,12.446.666,34.267,3.858,37.98,14.957,3.806,11.382-10.47,13.532-13.956,17.25-1.673,1.784-3.516,4.03-3.511,7.051a10.5,10.5,0,0,0,1.284,4.61c2.995,6.038,7.6,9.872,11.417,14.825s7.068,12.215,5.873,19.458a16.494,16.494,0,0,1-8.05,11.769c-3.7,2.047-7.716,2.41-11.645,3.106a72.278,72.278,0,0,0-19.477,6.468c-5.584,2.764-11.051,6.293-16.887,7.542s-12.305-.155-16.561-6.1c-1.225-1.711-2.246-3.763-3.656-5.137-3.159-3.079-7.328-2.026-11.1-1.346-15.172,2.736-30.984-2.879-43.588-15.479-2.025-2.024-4.105-4.523-4.611-8.023-.666-4.613,1.634-9.56.457-13.951-.674-2.519-2.324-4.138-3.59-6.115-3.756-5.865-3.858-15.923-.221-21.946Z" transform="translate(0 -12.758)" fill="#d38531"/>
    <g id="Grupo_176649" data-name="Grupo 176649" transform="translate(608.217 383.948)">
      <path id="Trazado_224854" data-name="Trazado 224854" d="M616.309,410.229a3.591,3.591,0,0,1,3.021-2.764l-.394-.226,1.387,2.428a.456.456,0,0,0,.787-.46l-1.387-2.428a.448.448,0,0,0-.393-.226,4.513,4.513,0,0,0-3.9,3.434c-.126.572.752.816.88.242Z" transform="translate(-615.417 -406.551)" fill="#874f0b"/>
    </g>
    <g id="Grupo_176650" data-name="Grupo 176650" transform="translate(612.596 377.79)">
      <path id="Trazado_224855" data-name="Trazado 224855" d="M621.2,402.7a2.754,2.754,0,0,1,5.329-.1.457.457,0,0,0,.88-.243,3.667,3.667,0,0,0-7.088.1.457.457,0,0,0,.88.243Z" transform="translate(-620.306 -399.677)" fill="#874f0b"/>
    </g>
    <g id="Grupo_176651" data-name="Grupo 176651" transform="translate(620.127 385.343)">
      <path id="Trazado_224856" data-name="Trazado 224856" d="M629.629,410.838a1.667,1.667,0,1,1,3.314.036.46.46,0,0,0,.456.456.465.465,0,0,0,.456-.456,2.676,2.676,0,0,0-1.631-2.577,2.5,2.5,0,0,0-2.916.793,2.573,2.573,0,0,0-.591,1.749.466.466,0,0,0,.456.456.46.46,0,0,0,.456-.456Z" transform="translate(-628.713 -408.109)" fill="#874f0b"/>
    </g>
    <g id="Grupo_176652" data-name="Grupo 176652" transform="translate(591.778 376.515)">
      <path id="Trazado_224857" data-name="Trazado 224857" d="M597.55,400.563c1.138-2.216,3.7-1.709,4.444.881.153.536.658.072.506-.46-.888-3.091-4.006-3.712-5.365-1.066-.234.454.179,1.1.415.645Z" transform="translate(-597.066 -398.254)" fill="#874f0b"/>
    </g>
    <g id="Grupo_176653" data-name="Grupo 176653" transform="translate(596.424 369.338)">
      <path id="Trazado_224858" data-name="Trazado 224858" d="M602.8,392.509c.428-1.061,1.314-1.6,2.09-1.244a3.137,3.137,0,0,1,1.307,2.829c-.005.587.581.588.587,0,.015-1.654-.713-3.236-1.738-3.708s-2.187.265-2.752,1.663c-.2.5.306.957.506.46Z" transform="translate(-602.252 -390.242)" fill="#874f0b"/>
    </g>
    <g id="Grupo_176654" data-name="Grupo 176654" transform="translate(599.65 380.824)">
      <path id="Trazado_224859" data-name="Trazado 224859" d="M606.407,405.057c.66-1.6,2.579-1.414,3.063.373.061.227.193.39.36.318a.524.524,0,0,0,.205-.561c-.679-2.5-3.178-2.91-4.135-.59-.2.5.3.954.506.46Z" transform="translate(-605.853 -403.064)" fill="#874f0b"/>
    </g>
    <g id="Grupo_176655" data-name="Grupo 176655" transform="translate(578.211 379.278)">
      <path id="Trazado_224860" data-name="Trazado 224860" d="M582.506,404.558c0-1.1.556-2.161,1.269-2.3.728-.138,1.436.7,1.6,1.79.085.572.65.33.565-.242-.224-1.5-1.219-2.638-2.212-2.451-1.01.19-1.813,1.619-1.807,3.2,0,.587.589.589.586,0Z" transform="translate(-581.92 -401.338)" fill="#874f0b"/>
    </g>
    <g id="Grupo_176656" data-name="Grupo 176656" transform="translate(568.758 372.95)">
      <path id="Trazado_224861" data-name="Trazado 224861" d="M571.8,396.744c.706-.739,1.516-1.627,2.41-1.558a1.743,1.743,0,0,1,1.371,1.84c0,.587.587.588.587,0a2.67,2.67,0,0,0-1.71-2.711c-1.091-.257-2.091.737-2.954,1.641-.311.326-.018,1.116.3.787Z" transform="translate(-571.367 -394.274)" fill="#874f0b"/>
    </g>
    <g id="Grupo_176657" data-name="Grupo 176657" transform="translate(555.009 351.594)">
      <path id="Trazado_224862" data-name="Trazado 224862" d="M556.611,373.373c-.064-1,.463-2.037,1.134-2.039s1.2,1.027,1.139,2.032c-.015.245.145.456.293.456.171,0,.278-.21.293-.456a3.172,3.172,0,0,0-1.108-2.743c-.718-.47-1.512-.033-1.975.9a3.73,3.73,0,0,0-.362,1.846c.015.245.124.457.293.457.146,0,.309-.21.293-.457Z" transform="translate(-556.018 -370.432)" fill="#874f0b"/>
    </g>
    <g id="Grupo_176658" data-name="Grupo 176658" transform="translate(645.848 370.79)">
      <path id="Trazado_224863" data-name="Trazado 224863" d="M658.363,395.514a2.346,2.346,0,1,1,4.646-.623.469.469,0,0,0,.456.456.459.459,0,0,0,.456-.456,3.251,3.251,0,1,0-6.47.623.471.471,0,0,0,.456.456.458.458,0,0,0,.456-.456Z" transform="translate(-657.428 -391.863)" fill="#874f0b"/>
    </g>
    <g id="Grupo_176659" data-name="Grupo 176659" transform="translate(656.535 367.056)">
      <path id="Trazado_224864" data-name="Trazado 224864" d="M669.919,388.745a3.369,3.369,0,0,1,3.862,1.56c.284.514,1.071.055.787-.46a4.288,4.288,0,0,0-4.892-1.978c-.559.172-.321,1.053.243.879Z" transform="translate(-669.358 -387.693)" fill="#874f0b"/>
    </g>
    <g id="Grupo_176660" data-name="Grupo 176660" transform="translate(659.164 379.292)">
      <path id="Trazado_224865" data-name="Trazado 224865" d="M673.2,402.9c-.029.073-.008.017.011-.02s.032-.061.049-.09.038-.056.056-.085c.038-.063-.048.049.021-.025.046-.048.091-.094.14-.138l.038-.031s-.069.049-.027.022.063-.044.1-.064c.056-.034.115-.062.174-.091-.069.034-.031.012.014,0l.111-.037c.065-.019.131-.035.2-.047.017,0,.123-.018.057-.01s.056,0,.076-.005a2.512,2.512,0,0,1,.434.011c.066.006-.083-.015-.018,0l.052.008.1.021a2.233,2.233,0,0,1,.218.06l.1.035.048.019s-.077-.035-.03-.013c.066.033.133.064.2.1s.113.073.168.111c-.064-.044-.022-.02.012.011s.057.051.085.079.053.055.079.083c.011.012.021.025.032.037.041.047-.046-.066-.012-.014s.081.127.118.2c.049.09-.008-.045.014.027.011.038.025.073.036.111s.017.078.027.116c0,.011.012.07,0,.008s0,.041,0,.045a.467.467,0,0,0,.456.456.459.459,0,0,0,.456-.456c-.126-1.678-2.228-2.422-3.6-1.683a1.926,1.926,0,0,0-.872,1.017.459.459,0,0,0,.319.561.467.467,0,0,0,.561-.319Z" transform="translate(-672.293 -401.354)" fill="#874f0b"/>
    </g>
    <g id="Grupo_176661" data-name="Grupo 176661" transform="translate(584.762 342.272)">
      <path id="Trazado_224866" data-name="Trazado 224866" d="M589.82,362.376c.017-.742.467-1.439.949-1.439s.932.7.95,1.439c.013.586.6.589.586,0-.029-1.246-.721-2.35-1.535-2.35s-1.506,1.1-1.535,2.35c-.013.588.573.587.587,0Z" transform="translate(-589.233 -360.026)" fill="#874f0b"/>
    </g>
    <g id="Grupo_176662" data-name="Grupo 176662" transform="translate(553.497 332.053)">
      <path id="Trazado_224867" data-name="Trazado 224867" d="M554.9,351.42c.108-1.1.783-2.01,1.516-1.88.716.125,1.245,1.235,1.2,2.323-.025.586.561.583.587,0,.068-1.572-.738-3.047-1.739-3.227-.983-.177-1.978,1.027-2.127,2.542-.023.244.039.49.205.561.139.06.336-.073.36-.318Z" transform="translate(-554.33 -348.618)" fill="#874f0b"/>
    </g>
    <path id="Trazado_224868" data-name="Trazado 224868" d="M634.73,379.615c1.867-2.062,3.872-4.774,2.856-7.364a8.044,8.044,0,0,0-3.056-3.206c-3.167-2.322-6.234-5.055-7.742-8.681a13.239,13.239,0,0,1,3.505-14.725c2.023-1.736,4.526-2.8,6.727-4.3s4.212-3.7,4.374-6.357c.173-2.821-1.766-5.614-.993-8.332.794-2.793,4.425-4.1,7.113-3s4.335,3.976,4.685,6.859a19.822,19.822,0,0,1-1.3,8.54,48.819,48.819,0,0,0-2.429,8.351,17.967,17.967,0,0,0,1.92,10.918c1.106,2.074,2.664,4.478,1.566,6.556-.906,1.713-3.193,2.187-4.414,3.691-1.815,2.237-.729,5.974-2.717,8.057-2.322,2.435-6.951.728-9.389,3.046Z" transform="translate(-8.289 -13.922)" fill="#e0dcb1"/>
    <path id="Trazado_224869" data-name="Trazado 224869" d="M632.236,381.718c-.019-1.7.311-2.731-1.182-3.548a5.238,5.238,0,0,0-2.571-.389c-5.778.03-12.373-2.188-14.345-7.619-.941-2.592-.659-5.528-1.738-8.066-1.393-3.278-4.724-5.229-7.093-7.891s-3.491-7.371-.581-9.426a2.964,2.964,0,0,1,1.724-.587c1.914.029,2.967,2.185,3.578,4q2.128,6.314,4.256,12.628a5.314,5.314,0,0,0,1.421,2.535,7.063,7.063,0,0,0,2.877,1.031,10.885,10.885,0,0,1,7.78,7.915c.286,1.23.461,2.682,1.541,3.339a5.261,5.261,0,0,0,1.994.481,5.089,5.089,0,0,1,3.611,2.111,3.059,3.059,0,0,1-.463,3.914Z" transform="translate(-5.905 -16.103)" fill="#e0dcb1"/>
    <path id="Trazado_224870" data-name="Trazado 224870" d="M640.267,381.447c4.284-.125,8.67-.271,12.652-1.855s7.547-4.922,8.167-9.164a34.523,34.523,0,0,0-.018-5.324,13.586,13.586,0,0,1,3.39-9.651c2.439-2.507,6.5-3.571,9.591-1.923s4.35,6.268,2.051,8.9c-1.868,2.143-5.332,2.562-6.8,5-1.6,2.652.021,6.268-1.258,9.089a8.4,8.4,0,0,1-3.808,3.529,34.309,34.309,0,0,1-28.273,2.2Z" transform="translate(-9.342 -16.995)" fill="#e0dcb1"/>
    <g id="Grupo_176663" data-name="Grupo 176663" transform="translate(627.484 321.374)">
      <path id="Trazado_224871" data-name="Trazado 224871" d="M637.586,380.366c2.8-2.01,5.844-4.185,7.276-7.441a9,9,0,0,0,.771-4.827,7.422,7.422,0,0,0-2.11-4.083,16.493,16.493,0,0,1-2.808-3.24,4.145,4.145,0,0,1,.2-4.046,28.589,28.589,0,0,1,2.888-3.8,15.043,15.043,0,0,0,2.392-4.263c1.328-3.669,1.355-7.676,1.352-11.529a.456.456,0,0,0-.912,0,36.884,36.884,0,0,1-.948,10.129,14.148,14.148,0,0,1-2.124,4.486c-.92,1.265-2.025,2.385-2.912,3.676a6.06,6.06,0,0,0-1.275,4.033,6.383,6.383,0,0,0,1.95,3.607,16.273,16.273,0,0,1,2.817,3.275,6.623,6.623,0,0,1,.418,4.693c-.965,3.871-4.362,6.339-7.431,8.542-.473.339-.018,1.131.46.788Z" transform="translate(-636.926 -336.696)" fill="#8e8b5e"/>
    </g>
    <g id="Grupo_176664" data-name="Grupo 176664" transform="translate(632.589 330.818)">
      <path id="Trazado_224872" data-name="Trazado 224872" d="M642.639,347.695a6.316,6.316,0,0,0,1.744,4.751c.408.425,1.052-.221.645-.645a5.418,5.418,0,0,1-1.477-4.106.456.456,0,0,0-.912,0Z" transform="translate(-642.626 -347.239)" fill="#8e8b5e"/>
    </g>
    <g id="Grupo_176665" data-name="Grupo 176665" transform="translate(633.266 343.625)">
      <path id="Trazado_224873" data-name="Trazado 224873" d="M644.338,361.992a6.735,6.735,0,0,1-.891,3.951.456.456,0,0,0,.787.46,7.574,7.574,0,0,0,1.016-4.411.467.467,0,0,0-.456-.456.458.458,0,0,0-.456.456Z" transform="translate(-643.381 -361.536)" fill="#8e8b5e"/>
    </g>
    <g id="Grupo_176666" data-name="Grupo 176666" transform="translate(630.526 340.729)">
      <path id="Trazado_224874" data-name="Trazado 224874" d="M640.644,383.5a23.432,23.432,0,0,0,10.046.544,19.49,19.49,0,0,0,8.351-3.31,11.438,11.438,0,0,0,4.644-6.853c.349-1.646.4-3.334.669-4.992a16.53,16.53,0,0,1,1.083-3.8c1.126-2.643,3.087-5.054,5.93-5.887a.457.457,0,0,0-.243-.88,10.022,10.022,0,0,0-5.728,4.809,15.932,15.932,0,0,0-1.5,3.614,25.708,25.708,0,0,0-.714,4.271,14.868,14.868,0,0,1-1.06,4.754,10.46,10.46,0,0,1-2.411,3.243,16.943,16.943,0,0,1-7.568,3.808,22.4,22.4,0,0,1-11.256-.2.456.456,0,0,0-.243.879Z" transform="translate(-640.322 -358.304)" fill="#8e8b5e"/>
    </g>
    <g id="Grupo_176667" data-name="Grupo 176667" transform="translate(654.626 342.22)">
      <path id="Trazado_224875" data-name="Trazado 224875" d="M667.251,360.425a4.554,4.554,0,0,0,1.076,3.4.46.46,0,0,0,.645,0,.465.465,0,0,0,0-.645,3.65,3.65,0,0,1-.809-2.754.46.46,0,0,0-.456-.457.466.466,0,0,0-.456.457Z" transform="translate(-667.227 -359.968)" fill="#8e8b5e"/>
    </g>
    <g id="Grupo_176668" data-name="Grupo 176668" transform="translate(600.78 335.386)">
      <path id="Trazado_224876" data-name="Trazado 224876" d="M607.265,353.1a18.073,18.073,0,0,1,4.74,6.883,41.533,41.533,0,0,1,1.411,3.973c.393,1.279.743,2.574,1.24,3.818a10.581,10.581,0,0,0,1.931,3.278,7.52,7.52,0,0,0,3.2,1.974,31.115,31.115,0,0,1,3.558,1.193,4.692,4.692,0,0,1,1.416,1.01c.509.55.84,1.24,1.368,1.776,1.093,1.112,2.674,1.437,4.091,1.938,1.209.428,2.722,1.318,2.713,2.776a.457.457,0,0,0,.913,0,3.632,3.632,0,0,0-1.978-3.006,34.75,34.75,0,0,0-3.807-1.492,4.183,4.183,0,0,1-1.668-1.311,9.885,9.885,0,0,0-1.287-1.618,8.736,8.736,0,0,0-3.411-1.633,12,12,0,0,1-3.493-1.392,7.382,7.382,0,0,1-2.353-3.015,26.547,26.547,0,0,1-1.328-3.791c-.4-1.362-.84-2.716-1.36-4.039a19.638,19.638,0,0,0-5.251-7.965c-.444-.379-1.093.263-.645.645Z" transform="translate(-607.114 -352.339)" fill="#8e8b5e"/>
    </g>
    <g id="Grupo_176669" data-name="Grupo 176669" transform="translate(602.526 334.333)">
      <path id="Trazado_224877" data-name="Trazado 224877" d="M609.209,351.93a3.266,3.266,0,0,1,.846,3.616.471.471,0,0,0,.164.624.458.458,0,0,0,.623-.164,4.188,4.188,0,0,0-.988-4.721c-.435-.392-1.082.251-.645.644Z" transform="translate(-609.064 -351.163)" fill="#8e8b5e"/>
    </g>
    <g id="Grupo_176670" data-name="Grupo 176670" transform="translate(612.824 350.818)">
      <path id="Trazado_224878" data-name="Trazado 224878" d="M620.628,370.251a4.7,4.7,0,0,1,.725,4.37c-.19.557.691.8.88.243a5.548,5.548,0,0,0-.817-5.074.472.472,0,0,0-.624-.163.459.459,0,0,0-.163.623Z" transform="translate(-620.561 -369.566)" fill="#8e8b5e"/>
    </g>
    <g id="Grupo_176671" data-name="Grupo 176671" transform="translate(604.833 318.493)">
      <path id="Trazado_224879" data-name="Trazado 224879" d="M612.408,335.123a2.134,2.134,0,0,1,3.744,1.593.456.456,0,1,0,.912,0,3.045,3.045,0,0,0-5.3-2.238c-.394.434.249,1.081.645.645Z" transform="translate(-611.639 -333.48)" fill="#874f0b"/>
    </g>
    <g id="Grupo_176672" data-name="Grupo 176672" transform="translate(610.512 314.466)">
      <path id="Trazado_224880" data-name="Trazado 224880" d="M618.756,330.33a2.016,2.016,0,0,1,2.078-.271,2.043,2.043,0,0,1,1.151,1.758.456.456,0,0,0,.912,0,2.886,2.886,0,0,0-4.786-2.132.459.459,0,0,0,0,.645.467.467,0,0,0,.645,0Z" transform="translate(-617.979 -328.984)" fill="#874f0b"/>
    </g>
    <g id="Grupo_176673" data-name="Grupo 176673" transform="translate(619.979 334.985)">
      <path id="Trazado_224881" data-name="Trazado 224881" d="M629.046,353.391a1.142,1.142,0,0,1,.469-.505.64.64,0,0,1,.579-.03,1.539,1.539,0,0,1,.712,1.265c.03.243.218.38.361.319.164-.07.234-.318.205-.561a2.373,2.373,0,0,0-1.122-1.9,1.3,1.3,0,0,0-1.618.77.67.67,0,0,0,0,.645.229.229,0,0,0,.415,0Z" transform="translate(-628.549 -351.891)" fill="#874f0b"/>
    </g>
    <g id="Grupo_176674" data-name="Grupo 176674" transform="translate(621.766 327.584)">
      <path id="Trazado_224882" data-name="Trazado 224882" d="M630.982,344.652c-.048.031.029-.014.038-.02.032-.016.064-.031.1-.045l.083-.03c.01,0,.088-.021.059-.016s.063-.007.074-.008c.029,0,.056,0,.085,0a.986.986,0,0,1,.17.015c-.052-.009.023.006.036.01l.084.027a1.425,1.425,0,0,1,.166.074c.027.014.054.03.081.047.062.036-.017-.017.037.025s.112.086.166.136.1.1.145.149c.016.019.015.018,0,0l.034.043c.026.033.051.067.076.1.042.06.082.124.121.191.019.033.038.067.056.1-.032-.062.022.048.022.05.033.073.063.148.09.225.013.039.027.079.039.118,0,.013.033.125.015.053.021.083.039.168.053.254.008.05.014.1.021.152,0,.022,0,.044.007.066,0-.047,0-.042,0,.013.015.245.125.456.294.456.146,0,.308-.21.293-.456a3.43,3.43,0,0,0-.969-2.3,1.36,1.36,0,0,0-1.766-.213.618.618,0,0,0-.106.624c.089.234.255.26.4.163Z" transform="translate(-630.543 -343.629)" fill="#874f0b"/>
    </g>
    <g id="Grupo_176675" data-name="Grupo 176675" transform="translate(605.566 332.664)">
      <path id="Trazado_224883" data-name="Trazado 224883" d="M612.892,351.256a5.065,5.065,0,0,1,1.067-.857,1.026,1.026,0,0,1,1.031-.078,1.5,1.5,0,0,1,.558.822,1.3,1.3,0,0,1-.039.975.62.62,0,0,0,.106.623c.148.134.308.037.4-.163a2.774,2.774,0,0,0-.677-3.007c-.924-.721-1.953.139-2.741.9-.32.308-.026,1.1.3.787Z" transform="translate(-612.458 -349.3)" fill="#874f0b"/>
    </g>
    <g id="Grupo_176676" data-name="Grupo 176676" transform="translate(609.253 339.671)">
      <path id="Trazado_224884" data-name="Trazado 224884" d="M617.151,358.885c.005-.027.012-.054.018-.081-.013.044-.012.041,0-.007s.033-.1.052-.148.03-.071.045-.1c-.033.072.033-.057.041-.07a1.325,1.325,0,0,1,.078-.117s.071-.085.025-.034a1.789,1.789,0,0,1,.187-.175c.073-.06-.047.022.03-.021.034-.019.068-.038.1-.053s.071-.026.107-.038c.08-.027-.052,0,.03-.005.036,0,.072-.006.107-.005.013,0,.123.015.057,0a.815.815,0,0,1,.184.073c.032.019.035.02.006,0l.048.038a.907.907,0,0,1,.07.064c.015.014.03.03.046.047-.023-.03-.022-.028,0,.006s.054.073.08.114.036.063.055.094.023.043,0,.007c.011.022.021.046.031.069.035.083.065.169.093.26-.025-.082.017.072.021.088.011.054.021.108.029.163s.011.083.015.125c-.011-.1,0,.069,0,.088,0,.049,0,.1,0,.148,0,.021-.013.165,0,.067a2.555,2.555,0,0,1-.058.324.528.528,0,0,0,.2.562c.166.071.3-.089.361-.319a3.139,3.139,0,0,0-.412-2.421,1.011,1.011,0,0,0-1.621-.171,2.3,2.3,0,0,0-.61,1.189.531.531,0,0,0,.205.562c.159.068.311-.084.36-.319Z" transform="translate(-616.573 -357.122)" fill="#874f0b"/>
    </g>
    <g id="Grupo_176677" data-name="Grupo 176677" transform="translate(597.974 323.594)">
      <path id="Trazado_224885" data-name="Trazado 224885" d="M604.484,340.653a1.091,1.091,0,0,1,1.13-.555.624.624,0,0,1,.111.029,1.284,1.284,0,0,1,.169.067.928.928,0,0,1,.264.174,1.639,1.639,0,0,1,.443.631c.2.492.71.035.506-.46-.644-1.558-2.189-1.842-3.038-.529-.269.415.146,1.06.414.645Z" transform="translate(-603.983 -339.175)" fill="#874f0b"/>
    </g>
    <g id="Grupo_176678" data-name="Grupo 176678" transform="translate(599.324 315.473)">
      <path id="Trazado_224886" data-name="Trazado 224886" d="M605.928,331.159c-.038.026.006,0,.022-.013s.044-.025.067-.037c.04-.02.082-.038.123-.053l.069-.022c.006,0,.08-.019.045-.012s.047-.006.046-.006l.056-.005a1.114,1.114,0,0,1,.283.016c-.031-.005-.015,0,.006,0s.047.013.07.021a1.369,1.369,0,0,1,.138.054,1.218,1.218,0,0,1,.442.331c.019.021.039.042.057.064-.024-.03-.006-.007.007.011.035.048.071.1.1.149s.065.107.095.163c.011.021.025.051.007.013l.048.108c.088.205.259.294.4.164a.623.623,0,0,0,.1-.623c-.537-1.256-1.607-1.716-2.488-1.113a.618.618,0,0,0-.1.624c.087.232.255.263.4.163Z" transform="translate(-605.49 -330.108)" fill="#874f0b"/>
    </g>
    <g id="Grupo_176679" data-name="Grupo 176679" transform="translate(614.473 346.397)">
      <path id="Trazado_224887" data-name="Trazado 224887" d="M622.941,366.289a1.918,1.918,0,0,1,.065-.2c.013-.032.027-.065.041-.1-.027.06-.014.029.008-.01a1.278,1.278,0,0,1,.09-.139c.025-.034.046-.051.006-.011l.053-.056c.039-.039.08-.072.121-.106.067-.056-.037.017.019-.014.021-.011.04-.023.061-.033a.9.9,0,0,1,.125-.054l.064-.02c.059-.019-.059,0,.019,0a1.373,1.373,0,0,1,.271,0c-.078-.007-.01,0,.007,0l.064.021a1.048,1.048,0,0,1,.133.063c.062.032-.01-.014.009,0s.045.034.065.052c.038.032.072.071.107.107-.061-.061-.006-.006.006.011s.031.045.047.069.029.049.043.073.019.034-.005-.013c.009.019.017.037.025.056.09.2.258.294.4.163a.619.619,0,0,0,.106-.623,1.27,1.27,0,0,0-1.279-.9,1.522,1.522,0,0,0-1.18,1.188.64.64,0,0,0,.106.624c.124.113.337.063.4-.164Z" transform="translate(-622.402 -364.631)" fill="#874f0b"/>
    </g>
    <g id="Grupo_176745" data-name="Grupo 176745" transform="translate(670.537 189.701)">
      <path id="Trazado_224888" data-name="Trazado 224888" d="M760.089,357.524c-1.229,1.222-1.076,3.259-.515,4.9s1.45,3.233,1.422,4.966c-.02,1.278-.546,2.511-.553,3.789-.014,2.265,1.587,4.232,3.384,5.611a21.567,21.567,0,0,0,6.3,3.236c2.325.781,5.029,1.229,7.115-.061a5.814,5.814,0,0,0,2.557-5.006,8.645,8.645,0,0,0-2.175-5.339,6.678,6.678,0,0,1-1.443-2.062,5.15,5.15,0,0,1-.118-1.975q.236-3.42.475-6.84a35.451,35.451,0,0,0-16.328-1.62Z" transform="translate(-692.72 -207.119)" fill="#e0dcb1"/>
      <path id="Trazado_224889" data-name="Trazado 224889" d="M700.631,366.368a1.171,1.171,0,0,1-.584-1.156,3.327,3.327,0,0,1,.46-1.288,64.8,64.8,0,0,1,3.975-6.556,12.992,12.992,0,0,1,2.854-3.213,2.014,2.014,0,0,1,2.114-.415c.7.414.749,1.4.621,2.195a20.081,20.081,0,0,1-2.448,6.131l-2.163,4.052a7.19,7.19,0,0,1-1.2,1.79,2.417,2.417,0,0,1-1.946.762A1.481,1.481,0,0,1,701,367.213Z" transform="translate(-686.558 -206.783)" fill="#6da8c6"/>
      <path id="Trazado_224890" data-name="Trazado 224890" d="M723.142,207.548a8.44,8.44,0,0,0,.387,10.64,6.692,6.692,0,0,0-4.956,5.16,6.954,6.954,0,0,0,2.519,6.8c-2.212-.1-3.689,2.766-3.213,5.045s2.195,3.994,3.829,5.56a36.684,36.684,0,0,1,5.392-3.938,7.712,7.712,0,0,1,.1-4.466c.854,1.332,1.968,2.814,3.5,2.772a4.357,4.357,0,0,0,1.706-.534,100.743,100.743,0,0,0,14.574-8.488,1.8,1.8,0,0,0,.755-.822,1.914,1.914,0,0,0-.125-1.192,201.39,201.39,0,0,0-8.424-21.236Z" transform="translate(-688.408 -191.072)"/>
      <path id="Trazado_224891" data-name="Trazado 224891" d="M741.8,245.77q1.806-4.165,3.967-8.166a14.512,14.512,0,0,1,1.741-2.691c1.885-2.16,4.769-3.1,7.507-3.949,3.5-1.082,7.624-2.068,10.544.136,2.744,2.071,3.1,5.989,3.167,9.426.19,9.633-.135,19.726-4.815,28.148a5.288,5.288,0,0,1-2.2,2.423c-1.764.8-3.775-.313-5.331-1.468a54.928,54.928,0,0,1-15.732-18.324Z" transform="translate(-690.791 -193.879)" fill="#87795b"/>
      <path id="Trazado_224892" data-name="Trazado 224892" d="M713.481,339.875a36.849,36.849,0,0,1,.414,5.792c-.352,4.169-3.363,7.588-6.1,10.708a.982.982,0,0,1-1.08.3c-.557-.217-.532-.855-.454-1.371q.371-2.476.938-4.92l-6.212,7.4a6.1,6.1,0,0,1,.973-7.275c-.374.9-1.886.795-2.351-.066a2.205,2.205,0,0,1,.715-2.613l-1.692,1.292c-1.071-1.316-.631-3.335.344-4.723s2.386-2.418,3.407-3.772c2.744-3.635,2.172-8.675,1.766-13.21a105.008,105.008,0,0,1,.479-23.062,46.659,46.659,0,0,1,17.027,1.873S712.754,330.113,713.481,339.875Z" transform="translate(-686.346 -201.638)" fill="#fed5b7"/>
      <path id="Trazado_224893" data-name="Trazado 224893" d="M691.06,383.849c.684,2.422,1.268,5.913,2.491,8.18a.642.642,0,0,0,.5.348c.546.047.674-.73.581-1.261a24.066,24.066,0,0,0-1.094-4.081,2.623,2.623,0,0,1-.241-1.662.956.956,0,0,1,.526-.618,1.085,1.085,0,0,1,1.219.463c1.473,1.665,1.642,4.337,3.457,5.62.128-2.085-2.477-7.495-2.37-7.6a.985.985,0,0,1,1.457,0c.943,2.067,3.687,6.876,3.79,5.831.179-2.506-1.735-5.207-2.754-7.5a3.866,3.866,0,0,0-.97-1.452,2.241,2.241,0,0,0-2.133-.389c-.305-.7.435-1.363.847-2a4.522,4.522,0,0,0,.292-3.323A19.472,19.472,0,0,0,694.5,368.6a2.236,2.236,0,0,0-1.061-1.108.9.9,0,0,0-.939.151,1.227,1.227,0,0,0-.128,1.264,39.638,39.638,0,0,0,1.679,4.851,2.706,2.706,0,0,1,.171,2.1.4.4,0,0,1-.692-.013l-4.047-7.026a.751.751,0,0,0-1.105-.255c-.368.285-.213.715-.056,1.063.8,1.768,1.69,3.894,2.527,5.806a.4.4,0,0,1-.674.426c-1.376-1.617-3.266-4.752-4.242-5.472-.245-.18-.6-.344-.823-.134-.188.179-.112.489-.023.733,1.026,2.8,2.327,6.986,4.921,8.462.682.389,1.749-.582,2.42,1.572a1.929,1.929,0,0,1-.838.1A3.093,3.093,0,0,0,691.06,383.849Z" transform="translate(-684.989 -208.226)" fill="#606060"/>
      <path id="Trazado_224894" data-name="Trazado 224894" d="M695.039,379.006l5.333-11.741a.752.752,0,0,1,.331-.417.57.57,0,0,1,.466.047,1.562,1.562,0,0,1,.761,1.451,4.521,4.521,0,0,1-.466,1.656q-2.114,4.949-4.49,9.779c-.192.39-.482.839-.916.814-.494-.029-.706-.631-.8-1.117q-.11-.6-.222-1.21Z" transform="translate(-686.037 -208.163)" fill="#606060"/>
      <path id="Trazado_224895" data-name="Trazado 224895" d="M745.623,250.719a93.771,93.771,0,0,0,10.487,14.213,84.162,84.162,0,0,0,4.7-23.822c.13-2.618.106-5.376-1.153-7.676s-4.141-3.914-6.562-2.909a6.12,6.12,0,0,1,6.728-2.413,30.554,30.554,0,0,1,3.419,1.646c5.192,2.35,11.436-.143,16.9,1.494,5.819,1.745,9.316,7.739,10.932,13.6s1.956,12.083,4.342,17.671c1.5,3.518,3.768,6.661,5.37,10.134s2.509,7.543,1.122,11.107c-1.01-3.719-3.453-7.369-7.163-8.413-3.948-1.11-8.994,2.164-7.974,6.38a3.174,3.174,0,0,1,.055,1.394c-.348,1.667-1.258,1.421-2.06,1.568-2.441.447-2.706,3.811-2.365,6.269.852.827,2.294-1,3.37-.089a1.371,1.371,0,0,1,.367,1.472c-.346,1.078-1.37,1.565-2.228,2.18-6.12,4.387-4.043,15.351-10.317,19.512a11.355,11.355,0,0,0-1.087-9.192,3.947,3.947,0,0,0-2.059-1.721c-2.686-.916-4.777,1.929-5.505,4.49-.687,2.414-1.055,5.231-3.11,6.673a8.6,8.6,0,0,1-2.6,1.073l-21.189,6.111a3.221,3.221,0,0,1-4.808-1.853c-2.824-5.625-5.7-12.194-3.193-17.97.467-1.078,1.127-2.209.836-3.347a5.062,5.062,0,0,0-1.17-1.837,14.514,14.514,0,0,1-3.017-11.6,14.438,14.438,0,0,0-2.168,11.651c.321,1.282.808,2.693.188,3.86a5.744,5.744,0,0,1-1.491,1.534c-1.842,1.572-3.488,3.043-3.981,5.414-5.145-.591-10.276-1.64-15.452-1.458-.362-3.672-2.681-5.415-2.393-9.094.221-2.829,2.114-5.225,3-7.921,1.548-4.723-.077-10.093,1.692-14.738,1.059-2.779,3.224-4.987,4.6-7.625a29.434,29.434,0,0,0,2.165-6.391q1.045-4.1,2.092-8.2a13.758,13.758,0,0,1,1.9-4.814,10.626,10.626,0,0,1,3.385-2.812c7.168-4.121,16.456-4.4,22.483-10.06l-.074,5.324A21.117,21.117,0,0,0,745.623,250.719Z" transform="translate(-686.696 -193.679)" fill="#f59f18"/>
      <path id="Trazado_224896" data-name="Trazado 224896" d="M740.343,326.987a35.98,35.98,0,0,0,15.12,17.913,3.5,3.5,0,0,1,1.048.807c.853,1.115.037,2.694.044,4.1.012,2.288,2.258,3.919,4.424,4.655,4.527,1.539,9.521.894,14.113-.441a9.573,9.573,0,0,0,3.556-1.651,9.3,9.3,0,0,0,2.239-3.249c2.493-5.246,3.66-11.789.491-16.657a42.816,42.816,0,0,0,17.542-8.564,6.056,6.056,0,0,0,4.284,2.942,14.873,14.873,0,0,0,5.345-.162,57.635,57.635,0,0,0,7.207-1.7,1.925,1.925,0,0,0,1.656-1.967,61.34,61.34,0,0,0,.244-19.117c-.494-3.411-1.44-7.051-4.134-9.2-3.132-2.5-7.578-2.21-11.564-1.8a26.453,26.453,0,0,0-8.242,1.764c-3.129,1.416-5.725,4.056-9.09,4.744-5.966,1.218-11.972-4.124-17.836-2.485a15.806,15.806,0,0,0-5.6,3.464c-5.2,4.331-10.545,8.829-13.658,14.842-1.371,2.65-2.291,5.563-4.092,7.942Z" transform="translate(-690.759 -200.43)" fill="#6da8c6"/>
      <path id="Trazado_224897" data-name="Trazado 224897" d="M802.242,328.677c1.981-2.061,5.119-2.367,7.973-2.548l11.216-.709a3.972,3.972,0,0,1,1.649.128c1.537.575,1.744,2.639,1.628,4.276-.391,5.526-1.489,10.975-2.263,16.461a141.351,141.351,0,0,0-1.368,21.823,9.1,9.1,0,0,0,.63,3.826c.612,1.276.308,3.754,1.332,4.732,2.736,2.61,6.262,4.346,7.445,7.937a4.63,4.63,0,0,1,.314,2.034,3.5,3.5,0,0,1-2.368,2.618,10.285,10.285,0,0,1-3.666.417l-5.587-.039c-2.441-.017-5.53-.506-6.145-2.869-.283-1.083.1-2.273-.269-3.332s-1.6-3.059-1.792-1.956c-.03.161-.649,1.886-.721,2.034-.153.317-.6.334-.942.263-2.4-.493-3.953-1.981-3.293-4.338.272-.975.75-3.078,1.1-4.025a11.486,11.486,0,0,0,.534-3.8,136.472,136.472,0,0,0-4.333-37.342Z" transform="translate(-697.211 -203.845)" fill="#e0dcb1"/>
      <g id="Grupo_176680" data-name="Grupo 176680" transform="translate(81.164 120.638)">
        <path id="Trazado_224898" data-name="Trazado 224898" d="M775.751,325.135a32.333,32.333,0,0,1,4.329,4.581,59.529,59.529,0,0,1,4.114,5.746c.612.973,1.194,1.965,1.71,2.993.263.524,1.051.063.787-.46a43.96,43.96,0,0,0-3.417-5.549,56.416,56.416,0,0,0-4.449-5.591,25.218,25.218,0,0,0-2.429-2.364c-.448-.374-1.1.269-.645.645Z" transform="translate(-775.598 -324.377)" fill="#1b4b5e"/>
      </g>
      <g id="Grupo_176681" data-name="Grupo 176681" transform="translate(90.734 115.347)">
        <path id="Trazado_224899" data-name="Trazado 224899" d="M786.981,324.717l7.678-3.313,3.874-1.671a4.558,4.558,0,0,1,.846-.323.97.97,0,0,1,.838.248,9.081,9.081,0,0,1,1.239,1.2,10.918,10.918,0,0,1,2,3.337c.206.544,1.088.308.88-.242a12.206,12.206,0,0,0-1.842-3.264,11.252,11.252,0,0,0-1.31-1.4,2.516,2.516,0,0,0-1.552-.82,5,5,0,0,0-1.976.653l-2.144.925-4.151,1.791-4.843,2.089c-.537.232-.073,1.018.46.787Z" transform="translate(-786.281 -318.471)" fill="#1b4b5e"/>
      </g>
      <g id="Grupo_176682" data-name="Grupo 176682" transform="translate(102.058 109.124)">
        <path id="Trazado_224900" data-name="Trazado 224900" d="M799.828,321.719a44.726,44.726,0,0,1,5.461-9.54c.351-.47-.44-.925-.788-.46a45.7,45.7,0,0,0-5.553,9.758.459.459,0,0,0,.318.562.469.469,0,0,0,.562-.319Z" transform="translate(-798.923 -311.524)" fill="#1b4b5e"/>
      </g>
      <g id="Grupo_176683" data-name="Grupo 176683" transform="translate(102.934 112.687)">
        <path id="Trazado_224901" data-name="Trazado 224901" d="M800.756,323.131a79.635,79.635,0,0,1,5.939-6.847c.409-.421-.235-1.067-.645-.645a81.665,81.665,0,0,0-6.081,7.032.458.458,0,0,0,.164.623.466.466,0,0,0,.623-.163Z" transform="translate(-799.901 -315.502)" fill="#1b4b5e"/>
      </g>
      <g id="Grupo_176684" data-name="Grupo 176684" transform="translate(57.038 130.74)">
        <path id="Trazado_224902" data-name="Trazado 224902" d="M748.727,336.338a38.468,38.468,0,0,0,2.292,3.724,19.445,19.445,0,0,0,2.869,3.112c2.027,1.794,4.32,3.356,5.961,5.542a8.988,8.988,0,0,1,1.767,3.92c.095.579.975.333.88-.242-.94-5.718-7.021-8.143-10.3-12.277a32.169,32.169,0,0,1-2.682-4.239.456.456,0,0,0-.787.46Z" transform="translate(-748.664 -335.655)" fill="#1b4b5e"/>
      </g>
      <g id="Grupo_176685" data-name="Grupo 176685" transform="translate(58.496 104.083)">
        <path id="Trazado_224903" data-name="Trazado 224903" d="M750.624,315.99a26.236,26.236,0,0,0,6.751-.35,56.381,56.381,0,0,0,5.9-.989,25.161,25.161,0,0,0,5.655-1.992,26.469,26.469,0,0,0,4.64-3.243c1.554-1.262,3.285-2.577,5.375-2.608a.456.456,0,0,0,0-.912c-3.827.057-6.342,3.562-9.383,5.375-3.417,2.035-7.407,2.823-11.3,3.344-1.114.149-2.231.279-3.347.4a16.546,16.546,0,0,1-4.047.095.472.472,0,0,0-.561.318.458.458,0,0,0,.318.561Z" transform="translate(-750.292 -305.896)" fill="#1b4b5e"/>
      </g>
      <path id="Trazado_224904" data-name="Trazado 224904" d="M808.207,286.707c.927,2.879-.659,6.089-3.028,7.971s-5.375,2.724-8.292,3.523c-7.614,2.086-12.306,1.22-19.92,3.305-.487.133-2.624,5.831-4.956,7.58s-4.25,6.726-6.524,9.542a.779.779,0,0,1-1.371-.643,30.166,30.166,0,0,1,2.351-7.26,21.9,21.9,0,0,1-4.258,8.467.92.92,0,0,1-1.586-.866,68.961,68.961,0,0,1,3.567-8.675,64.721,64.721,0,0,1-4.886,10.562,1.043,1.043,0,0,1-1.944-.586c.222-3.671,2.388-8.406,3.694-11.091-.763,3.039-3.077,8.97-4.024,11.958a1.116,1.116,0,0,1-1.311-.8c-.177-.545,4.406-16.641,9.037-20.345,3.506-2.8,8.168-3.637,12.139-5.73,3.453-1.819,6.317-4.554,9.262-7.116s6.114-5.036,9.852-6.158a12.634,12.634,0,0,1,7.194-.076,6.663,6.663,0,0,1,4.425,4.493Z" transform="translate(-692.361 -199.09)" fill="#fed5b7"/>
      <path id="Trazado_224905" data-name="Trazado 224905" d="M723.12,206.019a116.429,116.429,0,0,0,5.063,14.067l-6.651,3.94c1.918.11,6.916.407,7.362.752.424.326,2.78,6.309,3.949,8.7a7.424,7.424,0,0,0,1.76,2.565,5.288,5.288,0,0,0,5.3.485,15.59,15.59,0,0,0,4.5-3.266c1.123,2.245,1.821,3.88,2.59,5.616a4.094,4.094,0,0,0,5.842,1.859q1.493-.892,2.965-1.818a11.754,11.754,0,0,0,3.411-3.6c.634-1.154,1.073-1.551.6-3.1-2.038-6.621-6.156-11.683-8.194-18.3a2.737,2.737,0,0,0,3.029.36,5.028,5.028,0,0,0-6.022-7.813c-.435.216-2.461-8.178-3.666-11.168Z" transform="translate(-688.798 -190.285)" fill="#fed5b7"/>
      <g id="Grupo_176686" data-name="Grupo 176686" transform="translate(69.098 72.429)">
        <path id="Trazado_224906" data-name="Trazado 224906" d="M762.146,271.123q2.359,8.7,4.721,17.407l1.349,4.973a.457.457,0,0,0,.88-.243l-4.722-17.406-1.349-4.974a.456.456,0,0,0-.879.243Z" transform="translate(-762.128 -270.558)" fill="#a06117"/>
      </g>
      <g id="Grupo_176687" data-name="Grupo 176687" transform="translate(67.548 81.815)">
        <path id="Trazado_224907" data-name="Trazado 224907" d="M761.188,286.17a16.813,16.813,0,0,1,12.729-4.143c.583.056.58-.855,0-.912a17.7,17.7,0,0,0-13.374,4.41c-.438.392.209,1.036.645.645Z" transform="translate(-760.397 -281.037)" fill="#a06117"/>
      </g>
      <g id="Grupo_176688" data-name="Grupo 176688" transform="translate(67.185 84.026)">
        <path id="Trazado_224908" data-name="Trazado 224908" d="M760.686,289.687l11.173-5.345c.529-.253.067-1.04-.46-.787L760.226,288.9c-.528.253-.066,1.04.461.787Z" transform="translate(-759.992 -283.505)" fill="#a06117"/>
      </g>
      <g id="Grupo_176689" data-name="Grupo 176689" transform="translate(93.354 75.653)">
        <path id="Trazado_224909" data-name="Trazado 224909" d="M789.959,281.358a17.167,17.167,0,0,1,12.331-6.273,16.217,16.217,0,0,1,4,.273c.573.113.819-.766.243-.88a18.051,18.051,0,0,0-14.2,3.322,17.069,17.069,0,0,0-3.017,2.913c-.365.453.277,1.1.645.645Z" transform="translate(-789.206 -274.158)" fill="#a06117"/>
      </g>
      <g id="Grupo_176690" data-name="Grupo 176690" transform="translate(98.933 77.84)">
        <path id="Trazado_224910" data-name="Trazado 224910" d="M796.187,280.447a7.962,7.962,0,0,1,9.36-2.277c.528.246.992-.54.46-.787a8.868,8.868,0,0,0-10.465,2.419c-.361.455.28,1.105.645.645Z" transform="translate(-795.435 -276.599)" fill="#a06117"/>
      </g>
      <g id="Grupo_176691" data-name="Grupo 176691" transform="translate(87.51 38.937)">
        <path id="Trazado_224911" data-name="Trazado 224911" d="M782.685,233.606c.313,3.357.632,6.719,1.224,10.042a47.959,47.959,0,0,0,1.119,4.882c.474,1.638,1.091,3.215,1.724,4.8a20.816,20.816,0,0,1,1.37,4.582,21.493,21.493,0,0,1,.158,4.3c-.144,2.943-.669,5.849-.878,8.787a17,17,0,0,0,1.491,9.261c.274.52,1.062.059.787-.46-2.714-5.147-.936-11.263-.54-16.727a25.816,25.816,0,0,0,0-4.324,17.771,17.771,0,0,0-1.043-4.467c-.572-1.555-1.25-3.066-1.769-4.641a42.753,42.753,0,0,1-1.27-4.842,104.158,104.158,0,0,1-1.456-11.187c-.055-.58-.967-.586-.913,0Z" transform="translate(-782.682 -233.169)" fill="#a06117"/>
      </g>
      <g id="Grupo_176692" data-name="Grupo 176692" transform="translate(32.737 56.923)">
        <path id="Trazado_224912" data-name="Trazado 224912" d="M721.69,254a19.307,19.307,0,0,1,6.2,10.534c1.186,4.82,1.031,9.84.931,14.763q-.089,4.355-.178,8.709a.456.456,0,0,0,.912,0q.081-3.941.161-7.883c.053-2.573.126-5.147.047-7.719-.143-4.649-.835-9.359-3.012-13.526a17.566,17.566,0,0,0-4.42-5.523c-.451-.367-1.1.274-.645.645Z" transform="translate(-721.535 -253.248)" fill="#a06117"/>
      </g>
      <g id="Grupo_176693" data-name="Grupo 176693" transform="translate(37.778 58.146)">
        <path id="Trazado_224913" data-name="Trazado 224913" d="M727.174,255.189q.43,2.237.861,4.473a.46.46,0,0,0,.561.319.465.465,0,0,0,.318-.561l-.86-4.473a.456.456,0,1,0-.88.242Z" transform="translate(-727.163 -254.614)" fill="#a06117"/>
      </g>
      <g id="Grupo_176694" data-name="Grupo 176694" transform="translate(19.018 91.564)">
        <path id="Trazado_224914" data-name="Trazado 224914" d="M706.543,292.818l8.473,2.281a.457.457,0,0,0,.243-.88l-8.473-2.281a.457.457,0,0,0-.243.88Z" transform="translate(-706.221 -291.92)" fill="#a06117"/>
      </g>
      <g id="Grupo_176695" data-name="Grupo 176695" transform="translate(21.224 96.092)">
        <path id="Trazado_224915" data-name="Trazado 224915" d="M709.016,297.862l6.251.9a.472.472,0,0,0,.562-.319.459.459,0,0,0-.319-.561l-6.251-.9a.472.472,0,0,0-.562.318.46.46,0,0,0,.319.562Z" transform="translate(-708.683 -296.975)" fill="#a06117"/>
      </g>
      <g id="Grupo_176696" data-name="Grupo 176696" transform="translate(17.227 108.715)">
        <path id="Trazado_224916" data-name="Trazado 224916" d="M704.66,312.043c4.946-.331,9.808.737,14.724,1.053.586.038.584-.875,0-.912-4.916-.316-9.777-1.385-14.724-1.053-.583.039-.588.951,0,.912Z" transform="translate(-704.221 -311.067)" fill="#a06117"/>
      </g>
      <g id="Grupo_176697" data-name="Grupo 176697" transform="translate(32.368 88.087)">
        <path id="Trazado_224917" data-name="Trazado 224917" d="M725.9,293.112a21.148,21.148,0,0,1-3.923-4.853.456.456,0,0,0-.787.46,21.984,21.984,0,0,0,4.066,5.038c.432.4,1.078-.246.645-.645Z" transform="translate(-721.123 -288.039)" fill="#a06117"/>
      </g>
      <g id="Grupo_176698" data-name="Grupo 176698" transform="translate(35.482 89.414)">
        <path id="Trazado_224918" data-name="Trazado 224918" d="M724.6,289.976a4.971,4.971,0,0,0,1,2.9.468.468,0,0,0,.624.164.461.461,0,0,0,.164-.623,4.506,4.506,0,0,1-.391-.6q-.075-.138-.14-.282c-.013-.027-.024-.055-.036-.082.017.04.015.035-.005-.015s-.043-.112-.063-.168a4.535,4.535,0,0,1-.175-.651c-.012-.059-.021-.117-.03-.177.013.089-.009-.085-.011-.1-.012-.12-.018-.239-.021-.359a.456.456,0,0,0-.912,0Z" transform="translate(-724.6 -289.52)" fill="#a06117"/>
      </g>
      <g id="Grupo_176699" data-name="Grupo 176699" transform="translate(43.546 98.795)">
        <path id="Trazado_224919" data-name="Trazado 224919" d="M734.268,305.72a34.6,34.6,0,0,1,10.634-4.83.456.456,0,0,0-.242-.88,35.371,35.371,0,0,0-10.852,4.921c-.483.328-.027,1.118.46.788Z" transform="translate(-733.602 -299.993)" fill="#a06117"/>
      </g>
      <g id="Grupo_176700" data-name="Grupo 176700" transform="translate(44.428 102.492)">
        <path id="Trazado_224920" data-name="Trazado 224920" d="M735.137,308.8l9.921-3.768c.544-.206.308-1.088-.242-.88l-9.921,3.768c-.543.206-.307,1.088.243.88Z" transform="translate(-734.587 -304.12)" fill="#a06117"/>
      </g>
      <g id="Grupo_176701" data-name="Grupo 176701" transform="translate(49.299 54.994)">
        <path id="Trazado_224921" data-name="Trazado 224921" d="M758.275,268.037,744.65,257.595c-.26-.2-.571.035-.669.272a6.018,6.018,0,0,1-1.953,2.509,3.86,3.86,0,0,1-.7.448c-.25.11-.319.058-.368-.2a5.738,5.738,0,0,1,.086-1.617,22.835,22.835,0,0,1,2.082-7.215c.252-.527-.535-.991-.787-.46a23.873,23.873,0,0,0-2.1,6.871c-.085.586-.151,1.173-.193,1.764a2.262,2.262,0,0,0,.209,1.345c.626,1.043,1.87.157,2.521-.362a7,7,0,0,0,2.09-2.838l-.669.272,13.625,10.443c.466.357.921-.435.46-.787Z" transform="translate(-740.025 -251.094)" fill="#a06117"/>
      </g>
      <g id="Grupo_176702" data-name="Grupo 176702" transform="translate(70.767 42.556)">
        <path id="Trazado_224922" data-name="Trazado 224922" d="M764.888,266.773q2.1-7.769,4.2-15.539.6-2.225,1.2-4.45l-.67.272,1.577.956c.506.306,1.007.66,1.537.922.942.466,1.633-.219,1.691-1.153a6.768,6.768,0,0,0-.172-1.486q-.149-.9-.348-1.791a33.17,33.17,0,0,0-.945-3.377,34.339,34.339,0,0,0-1.494-3.683c-.251-.53-1.037-.068-.787.46a32.673,32.673,0,0,1,2.436,7.254q.195.927.335,1.864c.033.22.213,1.007-.065,1.156-.154.083-.522-.223-.656-.3l-.883-.536-1.766-1.07a.461.461,0,0,0-.67.272q-2.1,7.77-4.2,15.54-.6,2.225-1.2,4.45a.456.456,0,0,0,.88.242Z" transform="translate(-763.991 -237.209)" fill="#a06117"/>
      </g>
      <g id="Grupo_176703" data-name="Grupo 176703" transform="translate(52.242 94.784)">
        <path id="Trazado_224923" data-name="Trazado 224923" d="M744.148,315.721A42.346,42.346,0,0,1,763,296.357c.522-.268.062-1.055-.46-.787a43.522,43.522,0,0,0-16.118,14.353,42.251,42.251,0,0,0-3.056,5.338c-.254.527.533.99.787.46Z" transform="translate(-743.311 -295.515)" fill="#a06117"/>
      </g>
      <g id="Grupo_176704" data-name="Grupo 176704" transform="translate(77.949 90.403)">
        <path id="Trazado_224924" data-name="Trazado 224924" d="M772.585,292.358l3.586-.841a.456.456,0,0,0-.243-.88l-3.585.841a.456.456,0,1,0,.242.88Z" transform="translate(-772.009 -290.624)" fill="#a06117"/>
      </g>
      <g id="Grupo_176705" data-name="Grupo 176705" transform="translate(93.965 63.054)">
        <path id="Trazado_224925" data-name="Trazado 224925" d="M790.662,263.507a9.816,9.816,0,0,1,3.873-2.514.467.467,0,0,0,.319-.561.46.46,0,0,0-.561-.318,10.8,10.8,0,0,0-4.276,2.747c-.4.425.239,1.072.645.646Z" transform="translate(-789.889 -260.093)" fill="#a06117"/>
      </g>
      <g id="Grupo_176706" data-name="Grupo 176706" transform="translate(94.468 65.769)">
        <path id="Trazado_224926" data-name="Trazado 224926" d="M791.025,265.8a11.394,11.394,0,0,0,4.593-1.82.467.467,0,0,0,.163-.624.46.46,0,0,0-.623-.164,10.764,10.764,0,0,1-4.375,1.729.459.459,0,0,0-.318.561.467.467,0,0,0,.561.319Z" transform="translate(-790.45 -263.123)" fill="#a06117"/>
      </g>
      <g id="Grupo_176707" data-name="Grupo 176707" transform="translate(61.228 17.463)">
        <path id="Trazado_224927" data-name="Trazado 224927" d="M754.185,213.281l1.642-3.4a.47.47,0,0,0-.164-.624.461.461,0,0,0-.624.164l-1.642,3.4a.468.468,0,0,0,.164.623.461.461,0,0,0,.624-.163Z" transform="translate(-753.342 -209.196)" fill="#ab6844"/>
      </g>
      <g id="Grupo_176708" data-name="Grupo 176708" transform="translate(62.266 19.364)">
        <path id="Trazado_224928" data-name="Trazado 224928" d="M754.633,212.094l1.677,1.491a.456.456,0,0,0,.645-.645l-1.677-1.491a.456.456,0,0,0-.645.645Z" transform="translate(-754.501 -211.319)" fill="#ab6844"/>
      </g>
      <path id="Trazado_224929" data-name="Trazado 224929" d="M746.973,237.564l7.443-5.237-5.375,8.959Z" transform="translate(-691.45 -194.144)" fill="#ab6844" opacity="0.48"/>
      <g id="Grupo_176709" data-name="Grupo 176709" transform="translate(43.102 31.193)">
        <path id="Trazado_224930" data-name="Trazado 224930" d="M733.789,229.931a7.422,7.422,0,0,0,3.9-4.84c.141-.57-.739-.812-.879-.242a6.543,6.543,0,0,1-3.48,4.293.462.462,0,0,0-.164.624.466.466,0,0,0,.624.164Z" transform="translate(-733.106 -224.524)" fill="#ab6844"/>
      </g>
      <path id="Trazado_224931" data-name="Trazado 224931" d="M736.129,219.559c.382.932.226,1.878-.348,2.112s-1.348-.331-1.73-1.263-.225-1.878.348-2.112S735.748,218.626,736.129,219.559Z" transform="translate(-690.082 -192.676)"/>
      <path id="Trazado_224932" data-name="Trazado 224932" d="M740.627,197.741l5.317,10.913c-1.207-.133-1.783,1.494-1.624,2.7a7.522,7.522,0,0,0,3.768,5.519,5.713,5.713,0,0,0,3.24,9.6c-.068.992,1.326,1.359,2.29,1.116a5.834,5.834,0,0,0,3.622-2.771,56.764,56.764,0,0,1-8.663-17.607c-.18-.617-.3-1.4.193-1.807a1.6,1.6,0,0,1,1.27-.185,7.309,7.309,0,0,1,4.4,2.155,4.242,4.242,0,0,1,.778,4.631,3.021,3.021,0,0,1-4.237,1.173,54.6,54.6,0,0,0,6.82,11.565l11.575-8.459a3.019,3.019,0,0,0,.958-.951,2.328,2.328,0,0,0-.1-2.006,4.973,4.973,0,0,0-6.056-2.529,9.226,9.226,0,0,0-.137-9.6c-1.921-2.774-5.985-4-8.924-2.342a6.217,6.217,0,0,0-8.985-6.305c-1.021-2.148-3.793-3.014-6.115-2.5a12.659,12.659,0,0,0-5.939,3.773,34.3,34.3,0,0,1-5.23,4.83c-1.934,1.258-4.224,1.952-6,3.424s-2.892,4.215-1.547,6.089a2.152,2.152,0,0,0,1.361.921,2.472,2.472,0,0,0,1.231-.184,5.4,5.4,0,0,0,3.3-3.7c-1.1.81-.541,2.8.746,3.258a3.251,3.251,0,0,0,3.539-1.422,9.508,9.508,0,0,0,1.3-3.853c-.253,1.806,2.348,2.87,3.94,1.981s2.293-2.773,2.87-4.5a1.416,1.416,0,0,0,2.073-.559Z" transform="translate(-688.712 -189.723)"/>
      <path id="Trazado_224933" data-name="Trazado 224933" d="M752.939,215.873c1.164.975,2.925-.408,4.41-.095a3.261,3.261,0,0,1,1.507.913c2.22,2.107,3.3,5.123,4.2,8.049a1.652,1.652,0,0,1,.1.881,1.445,1.445,0,0,1-.511.692,11.179,11.179,0,0,1-3.51,1.779,1.13,1.13,0,0,1-.564.1,1.1,1.1,0,0,1-.534-.324,18.4,18.4,0,0,1-5.611-10.408,1.4,1.4,0,0,1,.008-.7c.348-.966,2.063-.358,2.694-1.167Z" transform="translate(-692.014 -192.4)"/>
      <g id="Grupo_176710" data-name="Grupo 176710" transform="translate(55.9 11.23)">
        <path id="Trazado_224934" data-name="Trazado 224934" d="M750.755,208.7a4.139,4.139,0,0,1,5.633-.745c.266.21.831.117.778-.322a6.02,6.02,0,0,0-9.577-4.232c-.467.345-.013,1.137.46.787a5.116,5.116,0,0,1,8.2,3.445l.778-.322a5.044,5.044,0,0,0-6.923.745c-.358.457.283,1.106.645.645Z" transform="translate(-747.394 -202.238)"/>
      </g>
      <path id="Trazado_224935" data-name="Trazado 224935" d="M731.228,215.864l.8.912a3.694,3.694,0,0,1,2.436-1.666c.982-.251,2.007-.284,3-.5a5.267,5.267,0,0,0-3.653-1.676,2.881,2.881,0,0,0-2.854,2.445Z" transform="translate(-689.781 -192.123)"/>
      <g id="Grupo_176711" data-name="Grupo 176711" transform="translate(56.336)">
        <path id="Trazado_224936" data-name="Trazado 224936" d="M748.8,192.772c-.047-.545.493-.859.923-1.071a10.82,10.82,0,0,1,1.742-.648,9.793,9.793,0,0,1,3.788-.4,5.37,5.37,0,0,1,4.717,3.717,3.7,3.7,0,0,1-.33,3.037c-.2.321.135.811.515.67,2.6-.961,5.658-1.529,8.176-.014,2.33,1.4,2.852,4.18,2.725,6.7-.03.587.883.585.912,0a8.834,8.834,0,0,0-1.677-6.23,7.435,7.435,0,0,0-6.1-2.312,14.739,14.739,0,0,0-4.281.975l.515.67c1.272-2.066.485-4.738-1.154-6.356-2.089-2.064-5.324-2.118-7.988-1.351-1.191.342-3.54.984-3.4,2.617.05.58.963.586.913,0Z" transform="translate(-747.881 -189.701)"/>
      </g>
      <g id="Grupo_176712" data-name="Grupo 176712" transform="translate(33.022 1.98)">
        <path id="Trazado_224937" data-name="Trazado 224937" d="M737.362,192.059c-2.174,2.461-5.444,3.438-8.294,4.866a27.514,27.514,0,0,0-4.524,2.729,6.475,6.475,0,0,0-2.59,3.623,3.894,3.894,0,0,0,1.347,4.017c.474.348.93-.443.46-.787a3.034,3.034,0,0,1-.869-3.236,6.239,6.239,0,0,1,2.648-3.226,31.519,31.519,0,0,1,4.374-2.523c1.361-.662,2.765-1.23,4.114-1.916a13.142,13.142,0,0,0,3.977-2.9c.387-.438-.255-1.086-.645-.645Z" transform="translate(-721.854 -191.912)"/>
      </g>
      <path id="Trazado_224938" data-name="Trazado 224938" d="M744.378,200.461a5.787,5.787,0,0,0,5.309,9.009,78.045,78.045,0,0,1-2.731-8.954Z" transform="translate(-691.078 -190.823)"/>
      <g id="Grupo_176713" data-name="Grupo 176713" transform="translate(64.546 108.872)">
        <path id="Trazado_224939" data-name="Trazado 224939" d="M757.952,323.63a54.575,54.575,0,0,1,5.551-11.713c.314-.5-.476-.957-.787-.46a55.584,55.584,0,0,0-5.643,11.931c-.187.558.693.8.88.243Z" transform="translate(-757.046 -311.243)" fill="#ab6844"/>
      </g>
      <g id="Grupo_176714" data-name="Grupo 176714" transform="translate(67.713 110.19)">
        <path id="Trazado_224940" data-name="Trazado 224940" d="M761.494,322.152a47.579,47.579,0,0,1,4.567-8.77c.324-.491-.465-.949-.787-.46a48.645,48.645,0,0,0-4.658,8.987c-.215.547.666.784.879.243Z" transform="translate(-760.582 -312.713)" fill="#ab6844"/>
      </g>
      <g id="Grupo_176715" data-name="Grupo 176715" transform="translate(71.483 109.712)">
        <path id="Trazado_224941" data-name="Trazado 224941" d="M765.629,320.039l3.531-7.166c.259-.525-.528-.988-.787-.46l-3.531,7.166c-.259.525.528.987.787.46Z" transform="translate(-764.79 -312.18)" fill="#ab6844"/>
      </g>
      <g id="Grupo_176716" data-name="Grupo 176716" transform="translate(69 108.689)">
        <path id="Trazado_224942" data-name="Trazado 224942" d="M762.348,311.927q3.938.744,7.855,1.6c.571.125.816-.754.242-.88q-3.915-.853-7.855-1.6c-.573-.108-.82.77-.242.88Z" transform="translate(-762.018 -311.038)" fill="#ab6844"/>
      </g>
      <g id="Grupo_176717" data-name="Grupo 176717" transform="translate(81.065 98.349)">
        <path id="Trazado_224943" data-name="Trazado 224943" d="M775.71,300.346l2.664,1.809a.46.46,0,0,0,.624-.164.468.468,0,0,0-.164-.624l-2.664-1.809a.459.459,0,0,0-.624.164.467.467,0,0,0,.164.623Z" transform="translate(-775.487 -299.495)" fill="#ab6844"/>
      </g>
      <g id="Grupo_176718" data-name="Grupo 176718" transform="translate(13.974 145.381)">
        <path id="Trazado_224944" data-name="Trazado 224944" d="M701.447,357.093a27.127,27.127,0,0,1,3.288-4.307c.4-.429-.243-1.075-.645-.645a28.366,28.366,0,0,0-3.431,4.492c-.309.5.479.959.787.459Z" transform="translate(-700.589 -352)" fill="#ab6844"/>
      </g>
      <g id="Grupo_176719" data-name="Grupo 176719" transform="translate(15.134 141.711)">
        <path id="Trazado_224945" data-name="Trazado 224945" d="M701.96,348.572l3.35,5.136c.319.49,1.109.033.787-.46l-3.35-5.136c-.319-.489-1.109-.033-.787.46Z" transform="translate(-701.885 -347.902)" fill="#ab6844"/>
      </g>
      <g id="Grupo_176720" data-name="Grupo 176720" transform="translate(12.489 143.168)">
        <path id="Trazado_224946" data-name="Trazado 224946" d="M699.709,353.923l3.533-3.612c.411-.42-.234-1.066-.645-.645l-3.533,3.612c-.411.42.234,1.065.645.645Z" transform="translate(-698.932 -349.529)" fill="#ab6844"/>
      </g>
      <g id="Grupo_176721" data-name="Grupo 176721" transform="translate(11.621 142.172)">
        <path id="Trazado_224947" data-name="Trazado 224947" d="M698.74,351.822l2.728-2.63a.459.459,0,0,0,0-.644.464.464,0,0,0-.645,0l-2.728,2.629a.461.461,0,0,0,0,.645.466.466,0,0,0,.645,0Z" transform="translate(-697.963 -348.417)" fill="#ab6844"/>
      </g>
      <g id="Grupo_176722" data-name="Grupo 176722" transform="translate(18.969 133.861)">
        <path id="Trazado_224948" data-name="Trazado 224948" d="M706.742,340.168a6.246,6.246,0,0,1,3.558.335.46.46,0,0,0,.562-.319.467.467,0,0,0-.319-.561,7.108,7.108,0,0,0-4.043-.334.456.456,0,1,0,.243.879Z" transform="translate(-706.166 -339.139)" fill="#ab6844"/>
      </g>
      <g id="Grupo_176723" data-name="Grupo 176723" transform="translate(45.804 74.786)">
        <path id="Trazado_224949" data-name="Trazado 224949" d="M736.817,280.243q6.617-3.191,13.31-6.22c.534-.242.071-1.028-.46-.787q-6.693,3.029-13.31,6.219c-.528.255-.066,1.042.46.788Z" transform="translate(-736.123 -273.19)" fill="#a06117"/>
      </g>
      <g id="Grupo_176724" data-name="Grupo 176724" transform="translate(104.45 117.087)">
        <path id="Trazado_224950" data-name="Trazado 224950" d="M802.287,326.08a47.579,47.579,0,0,1,15.2-4.446q2.239-.262,4.494-.31a.456.456,0,0,0,0-.912,48.59,48.59,0,0,0-15.911,3.056q-2.166.812-4.249,1.824c-.528.255-.066,1.043.46.787Z" transform="translate(-801.594 -320.413)" fill="#1b4b5e"/>
      </g>
      <g id="Grupo_176725" data-name="Grupo 176725" transform="translate(115.262 113.95)">
        <path id="Trazado_224951" data-name="Trazado 224951" d="M814.229,319.249l5.556-1.441a.456.456,0,0,0-.242-.88l-5.556,1.441a.456.456,0,0,0,.242.88Z" transform="translate(-813.663 -316.911)" fill="#1b4b5e"/>
      </g>
      <g id="Grupo_176726" data-name="Grupo 176726" transform="translate(65.241 140.094)">
        <path id="Trazado_224952" data-name="Trazado 224952" d="M758.494,351.226A39.573,39.573,0,0,1,767.3,347c.554-.185.316-1.067-.243-.88a40.568,40.568,0,0,0-9.024,4.316c-.493.316-.036,1.105.46.787Z" transform="translate(-757.822 -346.097)" fill="#1b4b5e"/>
      </g>
      <g id="Grupo_176727" data-name="Grupo 176727" transform="translate(66.923 142.723)">
        <path id="Trazado_224953" data-name="Trazado 224953" d="M760.386,352.489a26.268,26.268,0,0,1,6.921-2.565c.573-.125.331-1-.243-.88a27.157,27.157,0,0,0-7.138,2.657c-.516.279-.056,1.067.46.787Z" transform="translate(-759.7 -349.033)" fill="#1b4b5e"/>
      </g>
      <g id="Grupo_176728" data-name="Grupo 176728" transform="translate(67.712 147.639)">
        <path id="Trazado_224954" data-name="Trazado 224954" d="M760.9,357.631a22.641,22.641,0,0,0,15.064-.319,22.187,22.187,0,0,0,3.906-1.932c.5-.311.039-1.1-.46-.787a21.831,21.831,0,0,1-14.194,3.1,21.02,21.02,0,0,1-4.073-.938c-.558-.187-.8.693-.243.88Z" transform="translate(-760.581 -354.521)" fill="#1b4b5e"/>
      </g>
      <g id="Grupo_176729" data-name="Grupo 176729" transform="translate(81.639 111.557)">
        <path id="Trazado_224955" data-name="Trazado 224955" d="M776.144,314.806a76.351,76.351,0,0,0,3.768,11c.23.537,1.017.073.787-.46a74.822,74.822,0,0,1-3.675-10.786.457.457,0,0,0-.88.243Z" transform="translate(-776.128 -314.239)" fill="#1b4b5e"/>
      </g>
      <g id="Grupo_176730" data-name="Grupo 176730" transform="translate(116.385 180.463)">
        <path id="Trazado_224956" data-name="Trazado 224956" d="M814.977,391.9a3.536,3.536,0,0,0,2.244,1.556,24.457,24.457,0,0,0,3.66.736,16.23,16.23,0,0,0,7.184-.461,11.194,11.194,0,0,0,3.4-1.791.46.46,0,0,0,0-.645.467.467,0,0,0-.645,0,11.925,11.925,0,0,1-7.618,2.179,23.655,23.655,0,0,1-4.457-.584c-1.034-.226-2.428-.424-2.984-1.45-.279-.516-1.068-.056-.787.46Z" transform="translate(-814.918 -391.164)" fill="#8e8b5e"/>
      </g>
      <g id="Grupo_176731" data-name="Grupo 176731" transform="translate(109.027 174.684)">
        <path id="Trazado_224957" data-name="Trazado 224957" d="M806.767,385.4A8.593,8.593,0,0,0,810.4,388.4a.472.472,0,0,0,.624-.164.46.46,0,0,0-.164-.624,7.738,7.738,0,0,1-3.3-2.677.469.469,0,0,0-.624-.164.461.461,0,0,0-.164.624Z" transform="translate(-806.703 -384.712)" fill="#8e8b5e"/>
      </g>
      <g id="Grupo_176732" data-name="Grupo 176732" transform="translate(105.879 124.66)">
        <path id="Trazado_224958" data-name="Trazado 224958" d="M803.627,331.221l5.745-.423,2.873-.211a1.7,1.7,0,0,1,.589-.025c.134.05.119.134.122.273a3.129,3.129,0,0,0,.113,1.047c.552,1.551,2.277,1.915,3.73,1.984a7.434,7.434,0,0,0,4-.569,3.383,3.383,0,0,0,1.445-1.751c.256-.616.657-1.965,1.576-1.757.573.13.816-.749.243-.88a1.9,1.9,0,0,0-1.908.778,20.46,20.46,0,0,0-1.044,2.1c-.737,1.173-2.377,1.216-3.609,1.19s-3.636-.082-3.645-1.84c0-.7-.114-1.41-.965-1.489a7.772,7.772,0,0,0-1.256.068l-1.512.111-6.5.479c-.581.043-.587.956,0,.912Z" transform="translate(-803.189 -328.868)" fill="#8e8b5e"/>
      </g>
      <g id="Grupo_176733" data-name="Grupo 176733" transform="translate(114.131 168.407)">
        <path id="Trazado_224959" data-name="Trazado 224959" d="M812.731,378.593a33.494,33.494,0,0,0,9.953.212.472.472,0,0,0,.456-.456.459.459,0,0,0-.456-.457,32.7,32.7,0,0,1-9.71-.179c-.574-.1-.82.781-.243.88Z" transform="translate(-812.401 -377.706)" fill="#8e8b5e"/>
      </g>
      <g id="Grupo_176734" data-name="Grupo 176734" transform="translate(117.445 170.351)">
        <path id="Trazado_224960" data-name="Trazado 224960" d="M816.672,381.875l6.071-1.112c.577-.106.332-.985-.242-.88L816.43,381c-.577.106-.332.984.243.88Z" transform="translate(-816.1 -379.875)" fill="#8e8b5e"/>
      </g>
      <g id="Grupo_176735" data-name="Grupo 176735" transform="translate(68.192 162.005)">
        <path id="Trazado_224961" data-name="Trazado 224961" d="M761.152,371.1a11.507,11.507,0,0,0,2.33,4.046c1.242,1.216,3.005,1.732,4.584,2.357,2.993,1.184,6.727,3.064,9.833,1.188a4.185,4.185,0,0,0,2.2-3.854c-.059-.579-.972-.585-.913,0a3.227,3.227,0,0,1-1.612,2.978,5.465,5.465,0,0,1-4.123.6,27.559,27.559,0,0,1-4.67-1.6c-.775-.307-1.553-.606-2.325-.922a7.932,7.932,0,0,1-1.974-1.07,9.3,9.3,0,0,1-2.453-3.964c-.219-.537-1.1-.3-.88.243Z" transform="translate(-761.117 -370.558)" fill="#8e8b5e"/>
      </g>
      <g id="Grupo_176736" data-name="Grupo 176736" transform="translate(75.72 159.306)">
        <path id="Trazado_224962" data-name="Trazado 224962" d="M770.083,369.786a39.754,39.754,0,0,1,6.578-1.328.47.47,0,0,0,.456-.456.458.458,0,0,0-.456-.456,41.23,41.23,0,0,0-6.82,1.36.457.457,0,0,0,.243.88Z" transform="translate(-769.52 -367.545)" fill="#8e8b5e"/>
      </g>
      <g id="Grupo_176737" data-name="Grupo 176737" transform="translate(76.136 160.653)">
        <path id="Trazado_224963" data-name="Trazado 224963" d="M770.668,372.533l5.822-2.642a.459.459,0,0,0,.164-.624.467.467,0,0,0-.624-.163l-5.823,2.642a.458.458,0,0,0-.164.623.467.467,0,0,0,.624.164Z" transform="translate(-769.985 -369.049)" fill="#8e8b5e"/>
      </g>
      <g id="Grupo_176738" data-name="Grupo 176738" transform="translate(109.231 138.053)">
        <path id="Trazado_224964" data-name="Trazado 224964" d="M807.259,344.71a34.925,34.925,0,0,0,7.34.994c2.5-.018,5.01-.406,7.494-.671.578-.062.584-.975,0-.913-2.436.261-4.894.634-7.346.67a33.265,33.265,0,0,1-7.245-.96c-.573-.12-.818.759-.243.88Z" transform="translate(-806.931 -343.819)" fill="#8e8b5e"/>
      </g>
      <g id="Grupo_176739" data-name="Grupo 176739" transform="translate(110.539 140.019)">
        <path id="Trazado_224965" data-name="Trazado 224965" d="M808.719,347.708a24.842,24.842,0,0,0,13.4-.787c.551-.191.313-1.073-.243-.88a23.916,23.916,0,0,1-12.916.787c-.572-.125-.817.754-.243.88Z" transform="translate(-808.391 -346.013)" fill="#8e8b5e"/>
      </g>
      <g id="Grupo_176740" data-name="Grupo 176740" transform="translate(119.254 131.188)">
        <path id="Trazado_224966" data-name="Trazado 224966" d="M818.735,336.6q.013,14.4-.37,28.806-.106,4.016-.245,8.032c-.02.587.892.586.912,0q.493-14.4.591-28.8.028-4.018.023-8.036a.456.456,0,0,0-.912,0Z" transform="translate(-818.121 -336.155)" fill="#8e8b5e"/>
      </g>
      <g id="Grupo_176741" data-name="Grupo 176741" transform="translate(78.46 154.674)">
        <path id="Trazado_224967" data-name="Trazado 224967" d="M772.882,362.7a8.238,8.238,0,0,0,2.151,8.06c.421.409,1.067-.235.645-.645a7.312,7.312,0,0,1-1.916-7.173.456.456,0,0,0-.88-.242Z" transform="translate(-772.579 -362.374)" fill="#8e8b5e"/>
      </g>
      <g id="Grupo_176742" data-name="Grupo 176742" transform="translate(120.348 172.25)">
        <path id="Trazado_224968" data-name="Trazado 224968" d="M819.4,382.686c1.583,3.084,3.974,6.436,7.807,6.513a.456.456,0,0,0,0-.912c-3.482-.07-5.6-3.292-7.019-6.062-.268-.522-1.055-.062-.787.46Z" transform="translate(-819.342 -381.995)" fill="#8e8b5e"/>
      </g>
      <g id="Grupo_176743" data-name="Grupo 176743" transform="translate(25.447 69.794)">
        <path id="Trazado_224969" data-name="Trazado 224969" d="M713.733,268.517a26.093,26.093,0,0,0,4.935,1.241.471.471,0,0,0,.562-.319.459.459,0,0,0-.319-.561,26.077,26.077,0,0,1-4.935-1.241.461.461,0,0,0-.562.319.466.466,0,0,0,.319.561Z" transform="translate(-713.398 -267.617)" fill="#a06117"/>
      </g>
      <g id="Grupo_176744" data-name="Grupo 176744" transform="translate(25.869 72.069)">
        <path id="Trazado_224970" data-name="Trazado 224970" d="M714.1,271a22.824,22.824,0,0,0,4.182,1.7.457.457,0,0,0,.243-.88,21.606,21.606,0,0,1-3.965-1.612c-.519-.273-.98.513-.461.787Z" transform="translate(-713.869 -270.157)" fill="#a06117"/>
      </g>
    </g>
  </g>
</svg>
