<svg xmlns="http://www.w3.org/2000/svg" width="400" height="259" viewBox="0 0 400 259">
  <g id="Grupo_953465" data-name="Grupo 953465" transform="translate(-915 -8721)">
    <circle id="Elipse_7774" data-name="Elipse 7774" cx="62" cy="62" r="62" transform="translate(1191 8856)" fill="#fff"/>
    <circle id="Elipse_7770" data-name="Elipse 7770" cx="62" cy="62" r="62" transform="translate(1122 8721)" fill="#fff"/>
    <circle id="Elipse_7773" data-name="Elipse 7773" cx="62" cy="62" r="62" transform="translate(1053 8856)" fill="#fff"/>
    <circle id="Elipse_7771" data-name="Elipse 7771" cx="62" cy="62" r="62" transform="translate(984 8721)" fill="#fff"/>
    <circle id="Elipse_7772" data-name="Elipse 7772" cx="62" cy="62" r="62" transform="translate(915 8856)" fill="#fff"/>
    <g id="Grupo_176825" data-name="Grupo 176825" transform="translate(990.981 8753.036)">
      <g id="Grupo_176817" data-name="Grupo 176817" transform="translate(29.009 33.785)">
        <path id="Trazado_225231" data-name="Trazado 225231" d="M83.659,613.963l-6.486-8.891,1.58.048,5.166,8.11Z" transform="translate(-77.173 -605.072)" fill="#47393c"/>
        <path id="Trazado_225232" data-name="Trazado 225232" d="M85.554,635.544H83.621s2.546-9.727,2.514-17.611l.982-1.887S87.24,629.545,85.554,635.544Z" transform="translate(-79.618 -609.234)" fill="#47393c"/>
      </g>
      <g id="Grupo_176818" data-name="Grupo 176818" transform="translate(37.806 34.849)">
        <path id="Trazado_225233" data-name="Trazado 225233" d="M99.79,615.317l-8.446-8.531,1.591.046,6.954,7.783Z" transform="translate(-91.344 -606.786)" fill="#47393c"/>
        <path id="Trazado_225234" data-name="Trazado 225234" d="M108.232,636.026H106.3s.4-9.334-1.368-16.9l.567-1.811S108.6,630.269,108.232,636.026Z" transform="translate(-96.496 -610.779)" fill="#47393c"/>
      </g>
      <g id="Grupo_176819" data-name="Grupo 176819" transform="translate(51.436 37.942)">
        <path id="Trazado_225235" data-name="Trazado 225235" d="M122.3,619.255l-9-7.486,1.594.04,7.461,6.829Z" transform="translate(-113.3 -611.769)" fill="#47393c"/>
        <path id="Trazado_225236" data-name="Trazado 225236" d="M132.164,637.426h-1.933a58.4,58.4,0,0,0-2.468-14.828l.448-1.589S132.152,632.375,132.164,637.426Z" transform="translate(-118.785 -615.273)" fill="#47393c"/>
      </g>
      <g id="Grupo_176820" data-name="Grupo 176820" transform="translate(64.245 41.277)">
        <path id="Trazado_225237" data-name="Trazado 225237" d="M143.3,622.656l-9.366-5.515,1.6.029,7.793,5.031Z" transform="translate(-133.934 -617.141)" fill="#47393c"/>
        <path id="Trazado_225238" data-name="Trazado 225238" d="M154.594,638.167h-1.933a48.068,48.068,0,0,0-3.756-13.356l.119-1.592S154.085,633.568,154.594,638.167Z" transform="translate(-139.611 -619.446)" fill="#47393c"/>
      </g>
      <g id="Grupo_176821" data-name="Grupo 176821" transform="translate(81.89 18.097)">
        <path id="Trazado_225239" data-name="Trazado 225239" d="M162.846,598.468l-.489-.383c7.769-9.9,21.285-16.652,28.4-18.284l.139.6C183.87,582.019,170.52,588.688,162.846,598.468Z" transform="translate(-162.357 -579.801)" fill="#56494b"/>
      </g>
      <g id="Grupo_176822" data-name="Grupo 176822" transform="translate(71.634 0.883)">
        <path id="Trazado_225240" data-name="Trazado 225240" d="M146.416,585.874l-.581-.22c4.585-12.156,14.808-26.593,23.779-33.582l.381.49C161.1,559.49,150.966,573.811,146.416,585.874Z" transform="translate(-145.835 -552.072)" fill="#56494b"/>
      </g>
      <path id="Trazado_225241" data-name="Trazado 225241" d="M47.874,583.11l-4.35-7.7,10.53,7.645Z" transform="translate(-35.404 -560.039)" fill="#56494b"/>
      <path id="Trazado_225242" data-name="Trazado 225242" d="M39.319,586.033l-8.875-9.119,15.692,8.025Z" transform="translate(-30.444 -560.61)" fill="#56494b"/>
      <path id="Trazado_225243" data-name="Trazado 225243" d="M41.811,587.347c10.634,14.887,17.981,23.2,20.687,25.133s28.033,11.6,47.56-1.933l5.607-1.74,2.32-6.38-16.627-4.833Z" transform="translate(-34.755 -564.566)" fill="#635357"/>
      <path id="Trazado_225244" data-name="Trazado 225244" d="M44.428,588.977c10.18,13.96,17.213,21.753,19.8,23.562s26.521,11.042,45.215-1.723l6.243-1.455,1.662-6.408-11.908-4.292Z" transform="translate(-35.747 -565.184)" fill="#56494b"/>
      <path id="Trazado_225245" data-name="Trazado 225245" d="M108.368,621.719c-6.232-3.1-16.93-4.019-27.258-6.383C72.761,613.425,66.7,610.163,60.981,610c4.6,5.631,7.734,9.523,9.3,10.618C72.534,622.193,91.414,628.964,108.368,621.719Z" transform="translate(-42.024 -573.157)" fill="#635357"/>
      <path id="Trazado_225246" data-name="Trazado 225246" d="M83.692,627.249a54.87,54.87,0,0,0-9.226-1.134,6.827,6.827,0,0,0,.673.551c1.455,1.016,9.853,4.2,20.187,4.374A50.4,50.4,0,0,0,83.692,627.249Z" transform="translate(-47.138 -579.267)" fill="#725f64"/>
      <path id="Trazado_225247" data-name="Trazado 225247" d="M147.092,623.428c-1.665.1-5.389-2.057-5.389-2.057s6.119,1.173,6.743,1.45A4.867,4.867,0,0,1,147.092,623.428Z" transform="translate(-72.634 -577.468)" fill="#47393c"/>
      <g id="Grupo_176823" data-name="Grupo 176823" transform="translate(62.825 40.59)">
        <path id="Trazado_225248" data-name="Trazado 225248" d="M149.673,620.483c-7.742-2.8-16.81-3.917-17.375-3.149-.157.214.031.86.217,1.252l-.442-.064c-.343-.4-.77-1.833.015-2.308,1.883-1.14,16.482,3.517,17.7,3.9Z" transform="translate(-131.645 -616.035)" fill="#47393c"/>
      </g>
      <path id="Trazado_225249" data-name="Trazado 225249" d="M132.482,612.147c1.43-.139,8.024.29,17.3,3.674,0,0,4.447-5.124,4.447-6.091a4.412,4.412,0,0,0-1.74-2.8,98.878,98.878,0,0,0-10.15-2.611C137.992,604.075,128.519,612.534,132.482,612.147Z" transform="translate(-68.778 -570.999)" fill="#635357"/>
      <path id="Trazado_225250" data-name="Trazado 225250" d="M155.117,607.375a91.946,91.946,0,0,0-9.43-2.425c-1.6-.089-3.947,1.091-5.97,2.526a40.286,40.286,0,0,0,8.747,2.2,42.154,42.154,0,0,0,8.241.457.584.584,0,0,0,.029-.151A4.1,4.1,0,0,0,155.117,607.375Z" transform="translate(-71.881 -571.239)" fill="#755e64"/>
      <path id="Trazado_225251" data-name="Trazado 225251" d="M116.491,620.3l5.85-6.382-1.577.034-4.586,5.822Z" transform="translate(-62.955 -574.644)" fill="#47393c"/>
      <path id="Trazado_225252" data-name="Trazado 225252" d="M125.932,608.384c-.836-.272-3.922,1.572-4.844,2.692s-.459,3.009.377,3.281,3.17-1.23,4.092-2.35S126.768,608.657,125.932,608.384Z" transform="translate(-64.625 -572.533)" fill="#47393c"/>
      <path id="Trazado_225253" data-name="Trazado 225253" d="M114.041,608.172c-.8-.358-4.065,1.153-5.1,2.171s-.77,2.945.033,3.3,3.281-.892,4.315-1.91S114.844,608.53,114.041,608.172Z" transform="translate(-59.954 -572.443)" fill="#47393c"/>
      <path id="Trazado_225254" data-name="Trazado 225254" d="M96.789,606.29c-.832-.384-4.4.852-5.563,1.752s-1.007,2.731-.174,3.115,3.548-.651,4.712-1.551S97.621,606.674,96.789,606.29Z" transform="translate(-53.176 -571.722)" fill="#47393c"/>
      <path id="Trazado_225255" data-name="Trazado 225255" d="M78.207,601.1c-.832-.384-4.4.852-5.563,1.751s-1.007,2.731-.175,3.115,3.548-.651,4.712-1.55S79.039,601.484,78.207,601.1Z" transform="translate(-46.13 -569.754)" fill="#47393c"/>
      <path id="Trazado_225256" data-name="Trazado 225256" d="M98.533,621.459,108,614.205l-1.6.039-7.882,6.617Z" transform="translate(-56.258 -574.751)" fill="#47393c"/>
      <path id="Trazado_225257" data-name="Trazado 225257" d="M77.746,619.618l11.134-7.742L87,611.917l-9.273,7.063Z" transform="translate(-48.375 -573.867)" fill="#47393c"/>
      <path id="Trazado_225258" data-name="Trazado 225258" d="M56.88,617.3l12.5-11.026-1.748-.514-10.77,10.9Z" transform="translate(-40.463 -571.548)" fill="#47393c"/>
      <path id="Trazado_225259" data-name="Trazado 225259" d="M35.271,585.011c2.224,1.934,27.454,21.654,58.484,17.981l8.217-5.835C79.255,589.844,59.825,586.461,35.271,585.011Z" transform="translate(-32.275 -563.68)" fill="#6d5a5e"/>
      <path id="Trazado_225260" data-name="Trazado 225260" d="M94.487,601.792l7.055-5.01c-21.671-6.864-40.476-10.151-63.83-11.619C44.23,590.052,67.1,605.034,94.487,601.792Z" transform="translate(-33.2 -563.738)" fill="#9e727e"/>
      <path id="Trazado_225261" data-name="Trazado 225261" d="M117.995,637.475h1.934s-3.352-7.991-3.9-14.6L115,621.138S115.868,632.448,117.995,637.475Z" transform="translate(-62.508 -577.38)" fill="#47393c"/>
      <path id="Trazado_225262" data-name="Trazado 225262" d="M89.944,638.3h1.933a51.054,51.054,0,0,1,3.438-13.534l-.345-1.449S90.285,633.691,89.944,638.3Z" transform="translate(-53.007 -578.206)" fill="#47393c"/>
      <path id="Trazado_225263" data-name="Trazado 225263" d="M67.65,637.685h2.274a50.353,50.353,0,0,1,4.044-14.445l-.405-1.548S68.052,632.764,67.65,637.685Z" transform="translate(-44.553 -577.59)" fill="#47393c"/>
      <path id="Trazado_225264" data-name="Trazado 225264" d="M46.784,637.685h2.274A50.353,50.353,0,0,1,53.1,623.24l-.405-1.548S47.186,632.764,46.784,637.685Z" transform="translate(-36.64 -577.59)" fill="#47393c"/>
      <path id="Trazado_225265" data-name="Trazado 225265" d="M149.782,610.316a12.4,12.4,0,0,1-6.9-.4,7.377,7.377,0,0,1,1.008-3.487Z" transform="translate(-73.082 -571.802)" fill="#47393c"/>
      <path id="Trazado_225266" data-name="Trazado 225266" d="M161.14,612.236a24.238,24.238,0,0,0,5.269,1.546s1.644-2,2.578-3.416Z" transform="translate(-80.005 -573.295)" fill="#47393c"/>
      <path id="Trazado_225267" data-name="Trazado 225267" d="M182.994,551.617a.967.967,0,1,0,.967-.967A.966.966,0,0,0,182.994,551.617Z" transform="translate(-88.292 -550.65)" fill="#56494b"/>
      <path id="Trazado_225268" data-name="Trazado 225268" d="M206.2,579.724a.967.967,0,1,0,.967-.967A.966.966,0,0,0,206.2,579.724Z" transform="translate(-97.091 -561.308)" fill="#56494b"/>
      <path id="Trazado_225269" data-name="Trazado 225269" d="M40.942,585.883A84.494,84.494,0,0,0,59,596q.692.058,1.391.109c11.971.854,22.457-.4,27.551-2.952A235.345,235.345,0,0,0,40.942,585.883Z" transform="translate(-34.425 -564.011)" fill="#b5919c"/>
      <path id="Trazado_225270" data-name="Trazado 225270" d="M104.233,598.958c-5.812,2.272-14.383,3.708-23.942,3.708q-1.987,0-3.913-.081a68.609,68.609,0,0,0,31.472,4.044l6.573-4.668C110.959,600.864,107.575,599.867,104.233,598.958Z" transform="translate(-47.863 -568.969)" fill="#b5919c"/>
      <g id="Grupo_176824" data-name="Grupo 176824" transform="translate(10.104 21.818)">
        <path id="Trazado_225271" data-name="Trazado 225271" d="M82.875,601.736l-5.246-3.388L91.5,598.1l6.2,3.694-.338,1.012.368.123.436-1.308-6.461-3.851-.782-1.759,12.534,2.162.431.733.333-.2-.523-.887-12.966-2.237-.063-.142-9.248-4.725q-.727-.156-1.454-.309l3.725,1.9-11.894.37-16.478-6.081-1.552,6.481-6.493-7.246-.559-.045,6.927,7.73.042.048,23.228,4.774,5.564,3.594-.042,1.346.2.023.187.006Zm-28.748-8.468,1.473-6.149,16.062,5.927L76.2,597.8Zm22.733,4.673-4.651-4.88,12.2-.379,5.965,3.047.885,1.99-14.251.253Z" transform="translate(-46.72 -585.796)" fill="#6d5a5e"/>
      </g>
      <path id="Trazado_225272" data-name="Trazado 225272" d="M148.883,610.583a8.827,8.827,0,0,1-4.915-.285,5.247,5.247,0,0,1,.719-2.484Z" transform="translate(-73.493 -572.327)" fill="#ff4571"/>
      <path id="Trazado_225273" data-name="Trazado 225273" d="M163.579,612.9a14.576,14.576,0,0,0,3.171.931s.99-1.2,1.552-2.055Z" transform="translate(-80.93 -573.829)" fill="#ff4571"/>
    </g>
    <g id="Grupo_176828" data-name="Grupo 176828" transform="translate(1136.33 8746.987)">
      <g id="Grupo_176826" data-name="Grupo 176826" transform="translate(42.608 46.29)">
        <path id="Trazado_225274" data-name="Trazado 225274" d="M329.081,615.475l-6.089-8.084,1.6.33,4.774,7.182Z" transform="translate(-322.992 -607.391)" fill="#99332e"/>
        <path id="Trazado_225275" data-name="Trazado 225275" d="M329.255,636.44l-2.328,0s3.433-10.286,3.645-17.292l1.014-1.407S331.376,630.082,329.255,636.44Z" transform="translate(-324.447 -611.215)" fill="#99332e"/>
        <path id="Trazado_225276" data-name="Trazado 225276" d="M347.636,616.651l-7.008-7.971,1.573.339,5.615,7.076Z" transform="translate(-329.511 -607.867)" fill="#99332e"/>
        <path id="Trazado_225277" data-name="Trazado 225277" d="M352.51,636.894l-2.178,0s1.737-9.813.9-16.606l.75-1.365S353.569,630.818,352.51,636.894Z" transform="translate(-333.098 -611.653)" fill="#99332e"/>
        <path id="Trazado_225278" data-name="Trazado 225278" d="M363.216,617.631l-6.907-9.895,1.32-.088,5.683,9.461Z" transform="translate(-335.308 -607.486)" fill="#99332e"/>
        <path id="Trazado_225279" data-name="Trazado 225279" d="M369.832,637.758l-1.792,0s.546-8.954-.781-15.248l.5-1.285S370.154,632.207,369.832,637.758Z" transform="translate(-339.355 -612.504)" fill="#99332e"/>
      </g>
      <path id="Trazado_225280" data-name="Trazado 225280" d="M308.275,591.072c-4.746,9.882-22.066,12.647-30.33,10.3-11.721-3.325-22.547-14.889-22.547-14.889s14.721-17.312,29.723-16.269S310.849,585.714,308.275,591.072Z" transform="translate(-255.398 -547.343)" fill="#ffba55"/>
      <path id="Trazado_225281" data-name="Trazado 225281" d="M272.579,595.6c-4.3.352-14.069-.524-17.136-2.772l-.045.052s10.826,11.564,22.547,14.889c8.265,2.344,25.584-.422,30.33-10.3,1.154-2.4,1.612-6.23-2.977-8.8C296.977,584.006,286.625,594.451,272.579,595.6Z" transform="translate(-255.398 -553.739)" fill="#ffa143"/>
      <path id="Trazado_225282" data-name="Trazado 225282" d="M303.4,578.725c-3.512-4.08-9.021-6.941-16.706-6.951-8.738-.012-17.07,6.794-21.414,11.036C272.456,587.527,290.44,584.867,303.4,578.725Z" transform="translate(-259.052 -547.935)" fill="#ffd473"/>
      <path id="Trazado_225283" data-name="Trazado 225283" d="M309.945,594.776c-3.444,2.74-5.359,12.947,6.077,14.371a26.911,26.911,0,0,0,7.018-3.778Z" transform="translate(-274.579 -556.438)" fill="#ff7c33"/>
      <path id="Trazado_225284" data-name="Trazado 225284" d="M327.689,601.826c-7.194,3.877-16.655,2.464-18.364-2.163s-.137-10.4,12.469-11.677S336.249,597.213,327.689,601.826Z" transform="translate(-275.121 -553.888)" fill="#ffba55"/>
      <path id="Trazado_225285" data-name="Trazado 225285" d="M328.716,597.372c-7.194,3.876-16.655,2.463-18.364-2.163-.044-.12-.084-.241-.124-.362a7.528,7.528,0,0,0-1.21,7.493c1.708,4.626,11.6,6.085,18.8,2.208,4.614-2.486,5.988-6.989,4.5-10.132A11.348,11.348,0,0,1,328.716,597.372Z" transform="translate(-275.035 -556.305)" fill="#ffa143"/>
      <path id="Trazado_225286" data-name="Trazado 225286" d="M330.5,600.858c-2.056.428-4.8,5.434-.908,7.931a10.593,10.593,0,0,0,5.33-2.5Z" transform="translate(-282.097 -558.686)" fill="#ff7c33"/>
      <path id="Trazado_225287" data-name="Trazado 225287" d="M345.174,607.184c-4.09,3.27-15.557,2.913-16.4-3.846s16.3-9.819,19.155-4.5C349.117,601.038,349.264,603.914,345.174,607.184Z" transform="translate(-282.511 -556.939)" fill="#ffba55"/>
      <path id="Trazado_225288" data-name="Trazado 225288" d="M333.237,599.721a21.173,21.173,0,0,0,5.775.063,17.076,17.076,0,0,0,7.281-2.256C342.95,595.8,335.963,596.916,333.237,599.721Z" transform="translate(-284.171 -557.151)" fill="#ffd473"/>
      <path id="Trazado_225289" data-name="Trazado 225289" d="M337.744,605.051a28.574,28.574,0,0,1-8.655-1.234,3.774,3.774,0,0,0-.311,2.04c.839,6.759,12.306,7.115,16.4,3.846,3.168-2.532,3.793-4.828,3.365-6.759A24.977,24.977,0,0,1,337.744,605.051Z" transform="translate(-282.511 -559.457)" fill="#ffa143"/>
      <g id="Grupo_176827" data-name="Grupo 176827" transform="translate(75.257 2.944)">
        <path id="Trazado_225290" data-name="Trazado 225290" d="M375.1,578.948l-.316-.15c.378-13.822,7-32.688,19.435-40.171l.2,1.759C382.231,547.724,375.474,565.339,375.1,578.948Z" transform="translate(-374.786 -538.627)" fill="#d6524c"/>
      </g>
      <path id="Trazado_225291" data-name="Trazado 225291" d="M357.54,575.6c-2.808-12.189-.482-31.535,10.963-41.646l.147,2.208c-11.2,9.9-13.521,27.389-10.763,39.358Z" transform="translate(-292.755 -533.956)" fill="#d6524c"/>
      <path id="Trazado_225292" data-name="Trazado 225292" d="M343.018,603.866c-.135,1.877,3.3,6.544,6.858,6.5a6.369,6.369,0,0,0,.572-.4,10.839,10.839,0,0,0,2.732-3.016C351.1,605.856,343.092,602.838,343.018,603.866Z" transform="translate(-287.785 -559.72)" fill="#ff7c33"/>
      <path id="Trazado_225293" data-name="Trazado 225293" d="M360.779,611.4c-4.249.193-18.846-6.135-17.865-9.865s28.94-4.793,31.558.115C375.9,604.323,362.218,611.333,360.779,611.4Z" transform="translate(-287.73 -557.756)" fill="#ffba55"/>
      <path id="Trazado_225294" data-name="Trazado 225294" d="M344.317,601.609c.605-1.961,8.306-3.2,15.967-3.26-8.149-.108-16.83,1.135-17.369,3.185-.785,2.987,8.413,7.637,14.294,9.274C351.436,608.932,343.422,604.505,344.317,601.609Z" transform="translate(-287.73 -557.756)" fill="#ffa143"/>
      <path id="Trazado_225295" data-name="Trazado 225295" d="M358.252,599.383a38.5,38.5,0,0,0,7.054,2.182c5.865,1.249,11.089,1.14,13.2-.1C376.715,598.761,365.939,598.408,358.252,599.383Z" transform="translate(-293.417 -557.958)" fill="#ffd473"/>
      <path id="Trazado_225296" data-name="Trazado 225296" d="M358.865,606.412c-8.782,0-15.9-1.428-15.9-3.19,0-.016.005-.031.006-.047a1,1,0,0,0-.055.145c-.981,3.73,13.616,10.058,17.865,9.865,1.389-.064,14.177-6.595,13.783-9.455C373.349,605.251,366.784,606.412,358.865,606.412Z" transform="translate(-287.73 -559.542)" fill="#ffa143"/>
      <path id="Trazado_225297" data-name="Trazado 225297" d="M337.213,615.763l4.651-5.75-.932-1.08-3.893,6.208Z" transform="translate(-285.576 -561.671)" fill="#d6524c"/>
      <path id="Trazado_225298" data-name="Trazado 225298" d="M336.192,636.183l1.882,0s-1.857-10.572-1.41-17.608l-.693-1.609S335,629.346,336.192,636.183Z" transform="translate(-285.043 -564.639)" fill="#d6524c"/>
      <path id="Trazado_225299" data-name="Trazado 225299" d="M318.825,613.535l8.423-6.139-1.428-.174-7.048,5.651Z" transform="translate(-278.824 -561.039)" fill="#d6524c"/>
      <path id="Trazado_225300" data-name="Trazado 225300" d="M309.534,635.178h2.606s.629-11.712,3.3-19.216l-.462-1.718S309.98,627.592,309.534,635.178Z" transform="translate(-275.409 -563.634)" fill="#d6524c"/>
      <path id="Trazado_225301" data-name="Trazado 225301" d="M315.976,601.279c-.586-.718-1.445-.848-1.913-.361a1.6,1.6,0,0,0,.069,1.964,1.406,1.406,0,0,0,1.864.59A1.539,1.539,0,0,0,315.976,601.279Z" transform="translate(-276.971 -558.601)" fill="#d6524c"/>
      <path id="Trazado_225302" data-name="Trazado 225302" d="M331.308,605.564c-.581-.718-1.379-.9-1.779-.463a1.582,1.582,0,0,0,.18,1.868c.49.685,1.266,1.012,1.748.678C331.981,607.284,331.92,606.321,331.308,605.564Z" transform="translate(-282.714 -560.168)" fill="#d6524c"/>
      <path id="Trazado_225303" data-name="Trazado 225303" d="M343.4,608.614c-.579-.719-1.331-.933-1.68-.539-.323.364-.2,1.148.268,1.8.492.682,1.232,1.038,1.662.744C344.118,610.3,344.009,609.372,343.4,608.614Z" transform="translate(-287.239 -561.281)" fill="#d6524c"/>
      <path id="Trazado_225304" data-name="Trazado 225304" d="M303.1,610.347l8.921-7.482-1.444-.657-7.442,7.443Z" transform="translate(-273.029 -559.185)" fill="#d6524c"/>
      <path id="Trazado_225305" data-name="Trazado 225305" d="M287.687,634.337h3.063s2.5-12.645,6.7-20.56l-.282-1.808S289.385,626.162,287.687,634.337Z" transform="translate(-267.333 -562.793)" fill="#d6524c"/>
      <path id="Trazado_225306" data-name="Trazado 225306" d="M290.75,638.353a113.933,113.933,0,0,1,3.209-12.044c-.067-1.215-.162-2.38-.284-3.477-2.3,4.767-5.058,11.044-5.988,15.521Z" transform="translate(-267.333 -566.809)" fill="#ef6f6f"/>
      <path id="Trazado_225307" data-name="Trazado 225307" d="M364.525,602.182c.3-.884-.593-1.964-2.2-2.514-1.892-.649-4.152-.378-4.747.774-.628,1.217.985,2.589,3.208,2.938C362.647,603.67,364.209,603.1,364.525,602.182Z" transform="translate(-293.118 -558.118)" fill="#47393c"/>
      <path id="Trazado_225308" data-name="Trazado 225308" d="M375.744,602.132c-.316-.921.668-2.066,2.413-2.667,2.057-.708,4.5-.456,5.129.743.664,1.265-1.1,2.728-3.512,3.126C377.758,603.666,376.073,603.091,375.744,602.132Z" transform="translate(-299.861 -558.026)" fill="#47393c"/>
      <path id="Trazado_225309" data-name="Trazado 225309" d="M366.746,622.262c-7.792.139-12.85-2.992-13.082-5.636s3.856-5.357,3.856-5.357,4.875.9,5.468,2.644c0,0-3.756,1.052-3.522,3.34C359.756,620.105,366.746,622.262,366.746,622.262Z" transform="translate(-291.718 -562.534)" fill="#d6524c"/>
      <path id="Trazado_225310" data-name="Trazado 225310" d="M355.965,616.4c-.226-1.9,1.612-3.837,2.768-4.851-.706-.185-1.213-.28-1.213-.28s-4.089,2.714-3.856,5.357,5.291,5.775,13.082,5.636c0,0-.11-.034-.3-.1C360.239,621.6,356.251,618.8,355.965,616.4Z" transform="translate(-291.718 -562.534)" fill="#b73939"/>
      <path id="Trazado_225311" data-name="Trazado 225311" d="M379.964,620.889c6.182-2.6,9.024-6.757,8.53-9.145-.525-2.537-4.677-4.18-4.677-4.18s-4.482,1.781-4.309,3.775c0,0,4.132.466,4.7,2.693C384.872,616.646,379.964,620.889,379.964,620.889Z" transform="translate(-301.272 -561.165)" fill="#d6524c"/>
      <path id="Trazado_225312" data-name="Trazado 225312" d="M379.964,622.194c.159-.067.306-.139.46-.208,1.352-1.1,5.509-4.709,5.03-7.293-.486-2.627-5.241-3.486-5.241-3.486,0-.038,0-.075.006-.113a2.075,2.075,0,0,0-.711,1.55s4.132.466,4.7,2.693C384.871,617.951,379.964,622.194,379.964,622.194Z" transform="translate(-301.272 -562.47)" fill="#b73939"/>
      <path id="Trazado_225313" data-name="Trazado 225313" d="M378.969,602.364c-.19-.554.4-1.243,1.455-1.6,1.24-.426,2.712-.273,3.09.448.4.762-.664,1.641-2.117,1.88C380.182,603.287,379.167,602.941,378.969,602.364Z" transform="translate(-301.062 -558.563)" fill="#ed4343"/>
      <path id="Trazado_225314" data-name="Trazado 225314" d="M364.823,602.837c.167-.487-.327-1.081-1.211-1.384-1.041-.358-2.286-.208-2.614.426-.345.669.543,1.426,1.767,1.618C363.789,603.657,364.649,603.343,364.823,602.837Z" transform="translate(-294.405 -558.835)" fill="#ed4343"/>
      <path id="Trazado_225315" data-name="Trazado 225315" d="M342.851,608.287c-.344-.227-.7-.219-.8-.008-.093.195.062.508.35.721s.668.275.815.1C343.382,608.9,343.214,608.525,342.851,608.287Z" transform="translate(-287.42 -561.37)" fill="#ffa143"/>
      <path id="Trazado_225316" data-name="Trazado 225316" d="M330.939,605.354c-.344-.227-.7-.218-.8-.008-.093.2.062.508.35.721s.668.275.816.1C331.47,605.967,331.3,605.592,330.939,605.354Z" transform="translate(-283.017 -560.286)" fill="#ffa143"/>
      <path id="Trazado_225317" data-name="Trazado 225317" d="M315.8,601.266c-.344-.226-.7-.218-.8-.007-.092.195.062.508.35.72s.668.275.816.1C316.326,601.88,316.159,601.5,315.8,601.266Z" transform="translate(-277.419 -558.775)" fill="#ffa143"/>
      <path id="Trazado_225318" data-name="Trazado 225318" d="M317.408,590.924c1.481,1.2,4.307,2.016,7.552,2.016,3.354,0,6.259-.869,7.7-2.138-1.527-1.393-4.13-2.213-7.824-1.838A19.985,19.985,0,0,0,317.408,590.924Z" transform="translate(-278.32 -554.256)" fill="#ffd473"/>
      <path id="Trazado_225319" data-name="Trazado 225319" d="M366.947,615.112a2.416,2.416,0,0,0,.393,3.141s-3.223-.409-2.945-2.536S366.947,615.112,366.947,615.112Z" transform="translate(-295.682 -563.76)" fill="#d6524c"/>
      <path id="Trazado_225320" data-name="Trazado 225320" d="M371.93,613.828a2.416,2.416,0,0,0,.393,3.141s-3.223-.409-2.945-2.536S371.93,613.828,371.93,613.828Z" transform="translate(-297.524 -563.285)" fill="#d6524c"/>
      <path id="Trazado_225321" data-name="Trazado 225321" d="M379.309,613.244a2.4,2.4,0,0,1-.4,3.141s3.258-.409,2.977-2.536S379.309,613.244,379.309,613.244Z" transform="translate(-301.054 -563.069)" fill="#b73939"/>
      <path id="Trazado_225322" data-name="Trazado 225322" d="M374.809,613.143a2.4,2.4,0,0,1,.452,3.133s3.032-1.26,2.2-3.236S374.809,613.143,374.809,613.143Z" transform="translate(-299.538 -562.874)" fill="#d6524c"/>
      <path id="Trazado_225323" data-name="Trazado 225323" d="M367.5,607.013c-.713.475-2.135-.1-1.129-.393S368.38,606.424,367.5,607.013Z" transform="translate(-296.289 -560.756)" fill="#47393c"/>
      <path id="Trazado_225324" data-name="Trazado 225324" d="M375.543,606.468c.664.475,1.989-.1,1.052-.393S374.72,605.879,375.543,606.468Z" transform="translate(-299.692 -560.555)" fill="#47393c"/>
      <path id="Trazado_225325" data-name="Trazado 225325" d="M296.818,573.432a16.84,16.84,0,0,0-4,.623,21.1,21.1,0,0,0,9.292,4.842,20.277,20.277,0,0,0,9.421-.114C308.275,575.464,303.41,573.246,296.818,573.432Z" transform="translate(-269.229 -548.544)" fill="#fff1ab"/>
      <path id="Trazado_225326" data-name="Trazado 225326" d="M273.342,604.593a16.871,16.871,0,0,0-4.049-.149,21.1,21.1,0,0,0,8.2,6.52,20.28,20.28,0,0,0,9.271,1.679C284.2,608.766,279.85,605.665,273.342,604.593Z" transform="translate(-260.534 -559.99)" fill="#ffba55"/>
      <path id="Trazado_225327" data-name="Trazado 225327" d="M286.757,575.8a3.545,3.545,0,0,0-1.116.681,5.088,5.088,0,0,0,2.963,1.144,3.443,3.443,0,0,0,2.09-.808A3.157,3.157,0,0,0,286.757,575.8Z" transform="translate(-266.577 -549.32)" fill="#fff1ab"/>
      <path id="Trazado_225328" data-name="Trazado 225328" d="M331.879,590.069a11.135,11.135,0,0,0-1.809.343,7.015,7.015,0,0,0,3.125.708,9.406,9.406,0,0,0,2.438-.413A6.22,6.22,0,0,0,331.879,590.069Z" transform="translate(-283 -554.684)" fill="#fff1ab"/>
    </g>
    <g id="Grupo_176841" data-name="Grupo 176841" transform="translate(1215.535 8874.095)">
      <path id="Trazado_225329" data-name="Trazado 225329" d="M947.625,510.976c-.009-1.211-15.266,3.093-22.328,14.387-3.927,6.279-13.5,22.574-13.5,22.574l.866.585C926.9,538.057,947.668,516.474,947.625,510.976Z" transform="translate(-873.679 -507.57)" fill="#a8e2db"/>
      <path id="Trazado_225330" data-name="Trazado 225330" d="M944.2,519.727c2.665-3.45,4.3-6.245,4.293-7.765-.009-1.167-14.71,2.98-21.515,13.863-2.746,4.392-8.359,13.868-11.229,18.733C923.518,535.786,935.933,524.977,944.2,519.727Z" transform="translate(-875.166 -507.944)" fill="#8ecec6"/>
      <path id="Trazado_225331" data-name="Trazado 225331" d="M947.564,510.509c-1.925-.547-15.708,3.978-22.37,14.633-3.516,5.622-11.656,19.44-13.234,22.123a3.138,3.138,0,0,1,.379.123c1.669-2.837,9.7-16.466,13.185-22.04,5.83-9.323,17.367-13.831,20.91-14.419a2.254,2.254,0,0,1,1.059-.034c-.043,5.512-20.277,26.462-34.359,36.963a2.691,2.691,0,0,1,.286.272c14.174-10.586,34.5-31.729,34.462-37.273C947.879,510.78,947.848,510.589,947.564,510.509Z" transform="translate(-873.739 -507.452)" fill="#cef2ed"/>
      <path id="Trazado_225332" data-name="Trazado 225332" d="M941.771,519.663c-1.293-.353-11.135,2.944-16.772,11.193-3.257,4.766-11.772,17.862-13.595,20.669a2.436,2.436,0,0,1,.354.072c1.918-2.964,10.277-15.867,13.5-20.593,4.954-7.275,13.346-10.622,15.761-11.051a1.522,1.522,0,0,1,.71-.032c-.008,3.758-15.731,20.887-29.25,32.035a1.833,1.833,0,0,1,.246.231c13.579-11.249,29.318-28.521,29.263-32.294C941.983,519.84,941.961,519.714,941.771,519.663Z" transform="translate(-873.53 -510.904)" fill="#cef2ed"/>
      <g id="Grupo_176829" data-name="Grupo 176829" transform="translate(40.132 44.723)">
        <path id="Trazado_225333" data-name="Trazado 225333" d="M922.406,610.154l-.8-.879c1.16-10.587-.949-22.761-6.577-31.717l.291-.214C921,586.407,923.623,599.569,922.406,610.154Z" transform="translate(-915.026 -577.344)" fill="#4c3f42"/>
      </g>
      <g id="Grupo_176830" data-name="Grupo 176830" transform="translate(39.224 45.174)">
        <path id="Trazado_225334" data-name="Trazado 225334" d="M917.631,611.418l-.663-.747c2.584-9.2,1.554-23.249-3.4-32.391l.309-.213C918.96,587.474,920.318,602.045,917.631,611.418Z" transform="translate(-913.57 -578.067)" fill="#4c3f42"/>
      </g>
      <g id="Grupo_176831" data-name="Grupo 176831" transform="translate(37.575 44.49)">
        <path id="Trazado_225335" data-name="Trazado 225335" d="M912.859,612.94l-.533-.938c4.1-10.575,3.983-26.48-1.4-34.746l.288-.286C916.673,585.373,917.021,602.374,912.859,612.94Z" transform="translate(-910.926 -576.97)" fill="#4c3f42"/>
      </g>
      <path id="Trazado_225336" data-name="Trazado 225336" d="M910.354,569.422c-.745-1-.114-2.19,1.706-1.761s2.528,1.64,1.862,2.717S910.354,569.422,910.354,569.422Z" transform="translate(-873.02 -528.943)" fill="#664950"/>
      <path id="Trazado_225337" data-name="Trazado 225337" d="M853.709,505.952c-1.464.65-4.018,7.167-1.923,15.432,2.8,11.055,24.283,18.575,36.583,25.241l.976-1.063C882.614,532.32,855.655,505.088,853.709,505.952Z" transform="translate(-850.796 -505.746)" fill="#a8e2db"/>
      <path id="Trazado_225338" data-name="Trazado 225338" d="M871.332,530.529A126.764,126.764,0,0,1,888.7,544.365c-7.645-13.614-33.1-39.252-34.994-38.413-1.349.6-3.62,6.18-2.331,13.519A125.5,125.5,0,0,1,871.332,530.529Z" transform="translate(-850.798 -505.746)" fill="#8ecec6"/>
      <path id="Trazado_225339" data-name="Trazado 225339" d="M864,518.553a126.44,126.44,0,0,1,12.28,9.994c-6.895-9.3-20.175-21.183-20.891-20.887-.508.21-1.368,2.215-.866,5.081A69.484,69.484,0,0,1,864,518.553Z" transform="translate(-852.066 -506.395)" fill="#a8e2db"/>
      <path id="Trazado_225340" data-name="Trazado 225340" d="M887.982,546.149c-2.639-1.414-5.658-2.859-8.849-4.386-11.774-5.632-25.118-12.016-27.278-20.539-2.117-8.354.546-14.645,1.814-15.207h0c1.691-.715,28.07,25.645,35.176,39.12a1.747,1.747,0,0,1,.352-.165c-3.026-5.734-10.248-14.935-19.441-24.751-5.788-6.181-14.883-15.16-16.245-14.56-1.647.732-4.124,7.4-2.032,15.657,2.205,8.7,15.637,15.125,27.488,20.794,3.2,1.533,6.234,2.984,8.877,4.4A2.815,2.815,0,0,1,887.982,546.149Z" transform="translate(-850.677 -505.634)" fill="#cef2ed"/>
      <path id="Trazado_225341" data-name="Trazado 225341" d="M890.56,549.853c-2.856-1.776-5.982-3.566-9.166-5.389-10.789-6.174-21.452-12.277-23.071-18.761-1.46-5.849.313-9.944,1.155-10.3h0c1.126-.455,23.059,20.04,31.771,33.513a1.254,1.254,0,0,1,.325-.126c-3.922-6.037-11.669-14.933-20.028-23.246-4.681-4.655-11.271-10.75-12.175-10.369-1.091.463-2.744,4.806-1.312,10.585,1.641,6.623,12.364,12.784,23.223,19.023,3.2,1.839,6.341,3.645,9.2,5.433A2.314,2.314,0,0,1,890.56,549.853Z" transform="translate(-853.245 -509.218)" fill="#cef2ed"/>
      <path id="Trazado_225342" data-name="Trazado 225342" d="M952.5,513.334c.379-2.195-12.455,4.013-16.769,8.935a52.51,52.51,0,0,0-6.187,9.262C935.518,525.416,952.158,515.313,952.5,513.334Z" transform="translate(-880.357 -508.361)" fill="#a8e2db"/>
      <path id="Trazado_225343" data-name="Trazado 225343" d="M860.552,623.164c-2.06-4.484-3.058-18.067,4.466-28.724s19.967-12.384,21.81-11.215-11.448,29.911-14.2,33.216S860.552,623.164,860.552,623.164Z" transform="translate(-853.835 -534.715)" fill="#664950"/>
      <path id="Trazado_225344" data-name="Trazado 225344" d="M861.252,622.6c-1.917-4.044-2.679-17.224,4.484-27.552,7.243-10.446,18.814-11.726,20.506-10.605s-10.856,28.539-13.433,31.655S861.252,622.6,861.252,622.6Z" transform="translate(-854.163 -535.165)" fill="#4f3138"/>
      <path id="Trazado_225345" data-name="Trazado 225345" d="M862.035,621.876c-1.794-3.833-2.653-15.908,4.128-25.867,6.858-10.072,17.947-11.951,19.537-10.9s-10.317,27.394-12.755,30.4S862.035,621.876,862.035,621.876Z" transform="translate(-854.472 -535.445)" fill="#dd3a65"/>
      <path id="Trazado_225346" data-name="Trazado 225346" d="M868.963,606.285c-.745-1.469-1.072-6.29,2.406-11.4,4.679-6.88,14.025-9,15.508-8.685,1.532.322-10.767,16.267-12.353,17.668C873.081,605.14,868.963,606.285,868.963,606.285Z" transform="translate(-857.376 -535.941)" fill="#f9437c"/>
      <path id="Trazado_225347" data-name="Trazado 225347" d="M866.625,617.873c-.72-.814-1.575-3.054-1.489-6.193a13.125,13.125,0,0,0-2.016,3.4c-1.545,3.922-.633,6.93.069,7.723a14.732,14.732,0,0,0,3.3-2.6,37.042,37.042,0,0,0,1.7-3.328C867.3,617.468,866.625,617.873,866.625,617.873Z" transform="translate(-855.042 -545.542)" fill="#f9437c"/>
      <g id="Grupo_176832" data-name="Grupo 176832" transform="translate(22.123 50.414)">
        <path id="Trazado_225348" data-name="Trazado 225348" d="M891.164,595.664c-2.5-.509-4.312-3.348-4.837-5.5-.463-1.9,0-3.311,1.2-3.691l.118.37c-1,.318-1.356,1.526-.94,3.229.614,2.516,3,5.735,5.876,5.234l.067.383A3.964,3.964,0,0,1,891.164,595.664Z" transform="translate(-886.149 -586.469)" fill="#4f3138"/>
      </g>
      <g id="Grupo_176833" data-name="Grupo 176833" transform="translate(15.827 54.309)">
        <path id="Trazado_225349" data-name="Trazado 225349" d="M882.6,605.553a7.885,7.885,0,0,1-5.559-4.807c-1.447-3.288-1.173-7.017.027-8.032l.251.3c-1.075.909-1.28,4.492.078,7.578a7.367,7.367,0,0,0,8.131,4.656l.049.385A9.075,9.075,0,0,1,882.6,605.553Z" transform="translate(-876.054 -592.713)" fill="#4f3138"/>
      </g>
      <g id="Grupo_176834" data-name="Grupo 176834" transform="translate(9.011 62.293)">
        <path id="Trazado_225350" data-name="Trazado 225350" d="M873.263,617.575a11.351,11.351,0,0,1-6.7-3.809c-1.252-1.615-2.329-4.358-.347-8.25l.346.176c-1.5,2.936-1.389,5.646.309,7.835,2.535,3.27,7.774,4.477,11.172,3.719l.085.379A11.986,11.986,0,0,1,873.263,617.575Z" transform="translate(-865.125 -605.516)" fill="#4f3138"/>
      </g>
      <g id="Grupo_176835" data-name="Grupo 176835" transform="translate(6.07 74.164)">
        <path id="Trazado_225351" data-name="Trazado 225351" d="M867.445,631.412a10.574,10.574,0,0,1-4.147-1.853c-1.966-1.466-3.063-3.385-2.864-5.009l.385.047c-.182,1.486.856,3.267,2.71,4.651a9.406,9.406,0,0,0,9.288,1.249l.155.356A9.12,9.12,0,0,1,867.445,631.412Z" transform="translate(-860.411 -624.55)" fill="#4f3138"/>
      </g>
      <g id="Grupo_176836" data-name="Grupo 176836" transform="translate(7.151 49.472)">
        <path id="Trazado_225352" data-name="Trazado 225352" d="M862.157,622.421c-.457-10.739,11.708-34.18,24.014-37.463l.1.375c-12.159,3.244-24.178,26.443-23.726,37.073Z" transform="translate(-862.144 -584.958)" fill="#4f3138"/>
      </g>
      <path id="Trazado_225353" data-name="Trazado 225353" d="M906.836,570.879c-1.282-.325-1.491-1.654.367-2.439s3.244-.271,3.349.988S906.836,570.879,906.836,570.879Z" transform="translate(-871.437 -529.129)" fill="#664950"/>
      <path id="Trazado_225354" data-name="Trazado 225354" d="M912.9,573.268c.438-1.38-3.3-4.6-5.115-4.855s-6.928,3.108-7.445,4.144.453,5.214,1.424,5.941S911.609,577.347,912.9,573.268Z" transform="translate(-869.314 -529.254)" fill="#7f5e65"/>
      <path id="Trazado_225355" data-name="Trazado 225355" d="M900.239,575.572c.132,1.643.642,4.437,1.35,4.967.972.727,10.036-1.587,11.33-5.665a12.651,12.651,0,0,0-.833-2.209C908.322,575.359,900.4,576.908,900.239,575.572Z" transform="translate(-869.329 -530.859)" fill="#664950"/>
      <path id="Trazado_225356" data-name="Trazado 225356" d="M925.283,569.725c-1.963-1.57-5.841-1.731-6.74,1.239s6.76,6.817,8.164,3.294C927.277,572.829,925.93,570.242,925.283,569.725Z" transform="translate(-876.19 -529.336)" fill="#7f5e65"/>
      <path id="Trazado_225357" data-name="Trazado 225357" d="M918.518,572.379c-1.159,3.326,6.922,7.011,8.327,3.488.28-.7-.158-2.479-.494-3.358C923.966,573.174,920.015,573.637,918.518,572.379Z" transform="translate(-876.165 -530.752)" fill="#664950"/>
      <path id="Trazado_225358" data-name="Trazado 225358" d="M929.925,577.354s-7.735-8.492-3.561-10.877c1.36-.777,8.763,2.31,9.712,3.625C938.083,572.887,929.925,577.354,929.925,577.354Z" transform="translate(-878.695 -528.484)" fill="#7f5e65"/>
      <path id="Trazado_225359" data-name="Trazado 225359" d="M931.15,574.355c-2.964-1.224-5.823-5.7-5.436-6.981-2.6,2.9,4.084,10.7,4.084,10.7s5.158-3.1,6.341-5.632C935.023,573.043,933.563,575.352,931.15,574.355Z" transform="translate(-878.69 -528.869)" fill="#664950"/>
      <g id="Grupo_176837" data-name="Grupo 176837" transform="translate(27.996 44.778)">
        <path id="Trazado_225360" data-name="Trazado 225360" d="M898.471,618.186c-4.611-13.161-3.827-32.205,3.045-40.755l.3.363c-6.8,8.416-7.22,26.4-2.661,39.6Z" transform="translate(-895.567 -577.431)" fill="#7f5e65"/>
      </g>
      <g id="Grupo_176838" data-name="Grupo 176838" transform="translate(30.672 43.944)">
        <path id="Trazado_225361" data-name="Trazado 225361" d="M902.543,614.924c-4.076-11.819-3.613-29.793,2.067-38.829l.337.327c-5.632,8.91-5.771,25.8-1.74,37.65Z" transform="translate(-899.856 -576.095)" fill="#7f5e65"/>
      </g>
      <g id="Grupo_176839" data-name="Grupo 176839" transform="translate(32.897 43.965)">
        <path id="Trazado_225362" data-name="Trazado 225362" d="M906.581,611.233c-4.56-10.859-4.192-27.5,1.188-35.1l.329.359c-5.317,7.477-5.244,23.267-.746,34.1Z" transform="translate(-903.425 -576.128)" fill="#7f5e65"/>
      </g>
      <path id="Trazado_225363" data-name="Trazado 225363" d="M942.826,571.213c-1.941,1.206-6.922,5.156-6.922,5.156s5.162-.78,7.571-1.388a11.906,11.906,0,0,0-.382-2.875Q942.975,571.649,942.826,571.213Z" transform="translate(-882.751 -530.313)" fill="#47393c"/>
      <path id="Trazado_225364" data-name="Trazado 225364" d="M923.149,567.337c1.991,2.154,6.32,6.1,6.32,6.1s-2.034-6.016-3.192-8.67A10.35,10.35,0,0,0,923.149,567.337Z" transform="translate(-877.951 -527.887)" fill="#47393c"/>
      <path id="Trazado_225365" data-name="Trazado 225365" d="M943.711,572.934c-1.193.741-4.255,3.169-4.255,3.169s3.173-.479,4.654-.853a7.331,7.331,0,0,0-.234-1.767Q943.8,573.2,943.711,572.934Z" transform="translate(-884.087 -530.961)" fill="#ffba55"/>
      <path id="Trazado_225366" data-name="Trazado 225366" d="M925.146,568.426c1.162,1.257,3.8,4.02,3.8,4.02s-1.295-3.971-1.971-5.519A6.042,6.042,0,0,0,925.146,568.426Z" transform="translate(-878.702 -528.7)" fill="#ffba55"/>
      <path id="Trazado_225367" data-name="Trazado 225367" d="M905.245,577.7a.953.953,0,0,0-.216-1.112c-.287-.185-.656.017-.821.448a.95.95,0,0,0,.219,1.105C904.713,578.328,905.078,578.132,905.245,577.7Z" transform="translate(-870.793 -532.312)" fill="#7f5e65"/>
      <path id="Trazado_225368" data-name="Trazado 225368" d="M907.765,576.239a1.142,1.142,0,0,0-.027-1.291c-.268-.234-.687-.033-.937.447a1.139,1.139,0,0,0,.033,1.283C907.1,576.909,907.515,576.714,907.765,576.239Z" transform="translate(-871.732 -531.682)" fill="#7f5e65"/>
      <path id="Trazado_225369" data-name="Trazado 225369" d="M910.479,576.757a1.16,1.16,0,0,0,.127-1.293c-.236-.286-.676-.165-.98.268a1.155,1.155,0,0,0-.12,1.287C909.741,577.3,910.176,577.183,910.479,576.757Z" transform="translate(-872.761 -531.855)" fill="#7f5e65"/>
      <path id="Trazado_225370" data-name="Trazado 225370" d="M910.987,576.267a.493.493,0,0,0-.069-.557c-.138-.168-.331-.189-.431-.048a.494.494,0,0,0,.07.557C910.694,576.385,910.886,576.407,910.987,576.267Z" transform="translate(-873.164 -531.952)" fill="#bc959f"/>
      <path id="Trazado_225371" data-name="Trazado 225371" d="M908.142,575.788a.5.5,0,0,0-.073-.556c-.138-.167-.33-.188-.428-.047a.5.5,0,0,0,.074.556C907.853,575.907,908.044,575.928,908.142,575.788Z" transform="translate(-872.094 -531.773)" fill="#bc959f"/>
      <path id="Trazado_225372" data-name="Trazado 225372" d="M905.487,577.431a.489.489,0,0,0-.076-.548c-.138-.165-.327-.186-.422-.048a.49.49,0,0,0,.077.548C905.2,577.548,905.391,577.569,905.487,577.431Z" transform="translate(-871.096 -532.395)" fill="#bc959f"/>
      <g id="Grupo_176840" data-name="Grupo 176840" transform="translate(50.453 48.044)">
        <path id="Trazado_225373" data-name="Trazado 225373" d="M937.578,614.817c-.864-6.333-5.958-31.893-6-32.148l1.239.1c.046.255,4.111,25.682,4.975,32.023Z" transform="translate(-931.574 -582.669)" fill="#664950"/>
      </g>
    </g>
    <g id="Grupo_176857" data-name="Grupo 176857" transform="translate(1069.044 8879)">
      <path id="Trazado_225374" data-name="Trazado 225374" d="M773.444,535.229c1.786-.7,10.914,8,12.917,17.313s-9.667,20.264-17.713,21.424l-1.205-1.922c11.146-3.013,8.911-7.235,10.633-8.4s3.631-8.541-2.967-8.463C782.686,539.81,771.658,535.928,773.444,535.229Z" transform="translate(-694.133 -535.19)" fill="#604046"/>
      <g id="Grupo_176842" data-name="Grupo 176842" transform="translate(73.853 0.065)">
        <path id="Trazado_225375" data-name="Trazado 225375" d="M786.593,552.57c-1.833-8.522-9.622-16.519-12.305-17.287,3.385,2.426,9.159,9.233,10.7,16.413,1.927,8.96-6.454,20.266-16.773,21.244l.662,1.054C776.926,572.835,788.6,561.888,786.593,552.57Z" transform="translate(-768.218 -535.283)" fill="#443135"/>
        <path id="Trazado_225376" data-name="Trazado 225376" d="M778.371,563.418a6.476,6.476,0,0,1,1.857.226,3.789,3.789,0,0,0-1.553-.86C778.577,562.994,778.476,563.2,778.371,563.418Z" transform="translate(-771.248 -543.491)" fill="#443135"/>
      </g>
      <path id="Trazado_225377" data-name="Trazado 225377" d="M682.67,566.1s7.136,9.947,8.444,15.835l25.931-4.547Z" transform="translate(-668.833 -544.416)" fill="#604046"/>
      <g id="Grupo_176843" data-name="Grupo 176843" transform="translate(40.451 53.149)">
        <path id="Trazado_225378" data-name="Trazado 225378" d="M731.414,625.072l-10.808-6.955,1.8.037,9.011,6.345Z" transform="translate(-720.606 -613.089)" fill="#443135"/>
        <path id="Trazado_225379" data-name="Trazado 225379" d="M742.189,640.966H740a48.168,48.168,0,0,0-4.048-13.776l.372-1.476S741.747,636.273,742.189,640.966Z" transform="translate(-725.187 -615.356)" fill="#443135"/>
        <path id="Trazado_225380" data-name="Trazado 225380" d="M751.372,623.564l-12.7-7.424,2.122.04,10.59,6.772Z" transform="translate(-725.997 -612.499)" fill="#443135"/>
        <path id="Trazado_225381" data-name="Trazado 225381" d="M764.023,640.528h-2.57a47.713,47.713,0,0,0-4.744-14.7l.44-1.576S763.508,635.519,764.023,640.528Z" transform="translate(-731.381 -614.919)" fill="#443135"/>
        <path id="Trazado_225382" data-name="Trazado 225382" d="M771.558,622.015l-14.3-10.572,1.967-.493L771.568,621.4Z" transform="translate(-731.545 -610.95)" fill="#443135"/>
        <path id="Trazado_225383" data-name="Trazado 225383" d="M784.889,640.528h-2.57a47.709,47.709,0,0,0-4.744-14.7l.44-1.576S784.374,635.519,784.889,640.528Z" transform="translate(-737.608 -614.919)" fill="#443135"/>
      </g>
      <path id="Trazado_225384" data-name="Trazado 225384" d="M662.946,594.132c9.759,19.518,29.544,36.842,72.246,20.829,2.331-.874,5.826-13.692,5.68-17.77L675.618,595.3Z" transform="translate(-662.946 -552.781)" fill="#443135"/>
      <path id="Trazado_225385" data-name="Trazado 225385" d="M734.39,604.8a28.27,28.27,0,0,1-8.183-1.126c-.3,9.909-16.867,13.458-37.41,4.695a46.384,46.384,0,0,1-16.081-12.09l-6.11-.558c9.092,18.068,27.526,34.1,67.311,19.281,1.423-.53,3.311-5.805,4.406-10.442A31.927,31.927,0,0,1,734.39,604.8Z" transform="translate(-664.038 -553.256)" fill="#513a40"/>
      <path id="Trazado_225386" data-name="Trazado 225386" d="M680.774,613.607c7.056,7.831,17.534,13.206,33.342,11.549a67.963,67.963,0,0,0-14.782-7.347C691.818,615.015,684.892,613.523,680.774,613.607Z" transform="translate(-668.267 -558.592)" fill="#60454e"/>
      <g id="Grupo_176844" data-name="Grupo 176844" transform="translate(58.811 55.355)">
        <path id="Trazado_225387" data-name="Trazado 225387" d="M759.113,620.191a15.521,15.521,0,0,1-12.337-5.849l.361-.248a15.077,15.077,0,0,0,11.976,5.66h.15l0,.437Z" transform="translate(-746.776 -614.094)" fill="#443135"/>
      </g>
      <g id="Grupo_176845" data-name="Grupo 176845" transform="translate(60.92 52.814)">
        <path id="Trazado_225388" data-name="Trazado 225388" d="M759.914,613.985c-4.721,0-9.872-2.984-10.132-3.136l.222-.378c.075.044,7.547,4.371,12.564,2.676l.14.414A8.721,8.721,0,0,1,759.914,613.985Z" transform="translate(-749.782 -610.472)" fill="#443135"/>
      </g>
      <g id="Grupo_176846" data-name="Grupo 176846" transform="translate(55.569 57.579)">
        <path id="Trazado_225389" data-name="Trazado 225389" d="M748.654,625.134c-3.414-.89-6.347-5.02-6.5-7.846l.436-.024c.144,2.665,3.021,6.625,6.174,7.448Z" transform="translate(-742.155 -617.264)" fill="#443135"/>
      </g>
      <g id="Grupo_176847" data-name="Grupo 176847" transform="translate(50.465 59.005)">
        <path id="Trazado_225390" data-name="Trazado 225390" d="M737.593,627.67c-2.532-1.936-3.02-6.062-2.558-8.373l.428.086c-.44,2.2.012,6.118,2.4,7.94Z" transform="translate(-734.879 -619.297)" fill="#443135"/>
      </g>
      <g id="Grupo_176848" data-name="Grupo 176848" transform="translate(43.534 59.115)">
        <path id="Trazado_225391" data-name="Trazado 225391" d="M727.543,628.481c-2.481-2.088-2.861-6.536-2.339-9.028l.426.092c-.5,2.373-.147,6.6,2.188,8.562Z" transform="translate(-725 -619.453)" fill="#443135"/>
      </g>
      <g id="Grupo_176849" data-name="Grupo 176849" transform="translate(36.428 58.33)">
        <path id="Trazado_225392" data-name="Trazado 225392" d="M715.366,627.93c-1.334-3.031.28-7.436,1.853-9.6l.347.267c-1.5,2.055-3.041,6.234-1.785,9.086Z" transform="translate(-714.871 -618.335)" fill="#443135"/>
      </g>
      <g id="Grupo_176850" data-name="Grupo 176850" transform="translate(31.348 57.62)">
        <path id="Trazado_225393" data-name="Trazado 225393" d="M708.125,626.918c-1.334-3.031.28-7.436,1.853-9.595l.346.266c-1.5,2.056-3.04,6.235-1.785,9.087Z" transform="translate(-707.63 -617.323)" fill="#443135"/>
      </g>
      <g id="Grupo_176851" data-name="Grupo 176851" transform="translate(24.377 55.897)">
        <path id="Trazado_225394" data-name="Trazado 225394" d="M697.806,624.163c-.678-3.29,1.848-7.417,3.858-9.3l.286.331c-1.914,1.79-4.322,5.7-3.684,8.8Z" transform="translate(-697.693 -614.866)" fill="#443135"/>
      </g>
      <g id="Grupo_176852" data-name="Grupo 176852" transform="translate(18.994 52.692)">
        <path id="Trazado_225395" data-name="Trazado 225395" d="M690.109,620.013c-.608-3.386,2.068-7.72,4.162-9.715l.283.336c-1.994,1.9-4.545,6.007-3.972,9.195Z" transform="translate(-690.021 -610.298)" fill="#443135"/>
      </g>
      <g id="Grupo_176853" data-name="Grupo 176853" transform="translate(13.24 49.875)">
        <path id="Trazado_225396" data-name="Trazado 225396" d="M681.819,615.183c-.041-3.441,3.311-7.276,5.7-8.9l.223.378c-2.277,1.546-5.468,5.18-5.43,8.418Z" transform="translate(-681.818 -606.283)" fill="#443135"/>
      </g>
      <g id="Grupo_176854" data-name="Grupo 176854" transform="translate(9.044 46.594)">
        <path id="Trazado_225397" data-name="Trazado 225397" d="M675.838,609.526c.488-3.407,4.388-6.682,7-7.92l.163.408c-2.488,1.179-6.2,4.28-6.658,7.485Z" transform="translate(-675.838 -601.606)" fill="#443135"/>
      </g>
      <g id="Grupo_176855" data-name="Grupo 176855" transform="translate(4.707 43.399)">
        <path id="Trazado_225398" data-name="Trazado 225398" d="M669.655,602.723c1.412-3.138,6.067-5.206,8.921-5.671l.044.437c-2.716.443-7.141,2.4-8.47,5.349Z" transform="translate(-669.655 -597.052)" fill="#443135"/>
      </g>
      <path id="Trazado_225399" data-name="Trazado 225399" d="M663.154,572.124c1.893,13.983,27.59,39.846,56.66,30.442,6.205-2.008,2.331-12.964,11.071-17.327-17.043-3.939-31.158-13.828-46.612-4.667C674.645,578.82,669.849,577.365,663.154,572.124Z" transform="translate(-663.008 -546.213)" fill="#604046"/>
      <path id="Trazado_225400" data-name="Trazado 225400" d="M666.58,575.861c4.094,14.312,26.7,35.079,53.748,26.182,4.446-1.463,2.83-8.922,5.388-13.874C696.507,585.975,672.536,580.641,666.58,575.861Z" transform="translate(-664.031 -547.328)" fill="#825760"/>
      <path id="Trazado_225401" data-name="Trazado 225401" d="M723.486,607.894a47.166,47.166,0,0,0-12.946,3.654A37.113,37.113,0,0,0,732.484,611c1.616-.532,2.35-1.936,2.8-3.717A52.182,52.182,0,0,0,723.486,607.894Z" transform="translate(-677.15 -556.671)" fill="#936772"/>
      <path id="Trazado_225402" data-name="Trazado 225402" d="M673.135,587.052c7.095,2.84,17.367,4.626,28.8,4.626A91.525,91.525,0,0,0,724.747,589c.009-.018.017-.036.027-.054-28.125-2.112-51.2-7.248-56.94-11.851A30.922,30.922,0,0,0,673.135,587.052Z" transform="translate(-664.405 -547.696)" fill="#936772"/>
      <path id="Trazado_225403" data-name="Trazado 225403" d="M731.637,585.357l3.277-1.165-49.96-16.532s6.336,8.812,7.793,11.725Z" transform="translate(-669.514 -544.881)" fill="#825760"/>
      <path id="Trazado_225404" data-name="Trazado 225404" d="M686.757,569.594c3.84,3.28,12.37,6.953,22.644,9.435a89.044,89.044,0,0,0,15.5,2.422l-38.857-12.858S686.317,568.974,686.757,569.594Z" transform="translate(-669.84 -545.159)" fill="#936772"/>
      <path id="Trazado_225405" data-name="Trazado 225405" d="M750.8,599.217c1.966-2.112,10.342-3.969,16.969-2.949l1.311-4.115s-4.88-6.481-8.885-6.992C748.558,583.681,750.8,599.217,750.8,599.217Z" transform="translate(-689.114 -550.074)" fill="#825760"/>
      <path id="Trazado_225406" data-name="Trazado 225406" d="M759.543,588.45a15.574,15.574,0,0,1,9.048,2.869c-1.3-1.581-4.787-5.479-7.758-5.857-4.7-.6-6.967,1.778-8.034,4.663A13.874,13.874,0,0,1,759.543,588.45Z" transform="translate(-689.763 -550.166)" fill="#9e747e"/>
      <path id="Trazado_225407" data-name="Trazado 225407" d="M759.53,536.708c-1.383-.655-12.672,7.5-17.7,16.241s1.821,19.008,8.736,20.1l1.757-1.8c-9.1-2.827-5.614-6.787-6.779-7.879s-.364-8.011,5.607-7.938C749.553,541.005,760.914,537.364,759.53,536.708Z" transform="translate(-685.974 -535.632)" fill="#604046"/>
      <g id="Grupo_176856" data-name="Grupo 176856" transform="translate(54.129 1.076)">
        <path id="Trazado_225408" data-name="Trazado 225408" d="M755.118,563.193c-.019-.169-.027-.33-.042-.5a5.377,5.377,0,0,0-1.7.7A6.523,6.523,0,0,1,755.118,563.193Z" transform="translate(-744.066 -544.475)" fill="#443135"/>
        <path id="Trazado_225409" data-name="Trazado 225409" d="M743.362,552.309c3.988-6.934,11.913-13.5,15.71-15.586-2.539.54-12.579,8.137-17.239,16.241-5.025,8.739,1.821,19.009,8.736,20.1l.79-.81C744.709,570.583,738.517,560.736,743.362,552.309Z" transform="translate(-740.103 -536.723)" fill="#443135"/>
      </g>
      <path id="Trazado_225410" data-name="Trazado 225410" d="M765.913,604.47c-.932.505-4.917.6-6.5-.71C759.413,603.76,764.929,603.705,765.913,604.47Z" transform="translate(-691.737 -555.654)" fill="#2d1d21"/>
      <path id="Trazado_225411" data-name="Trazado 225411" d="M715.543,626.313l9.829-6.569-1.8.035-8.118,5.993Z" transform="translate(-678.617 -560.425)" fill="#755b61"/>
      <path id="Trazado_225412" data-name="Trazado 225412" d="M709.483,641.325h2.185a39.747,39.747,0,0,1,2.109-13.011l-.58-1.395S709.265,636.893,709.483,641.325Z" transform="translate(-676.832 -562.567)" fill="#755b61"/>
      <path id="Trazado_225413" data-name="Trazado 225413" d="M694.593,624.889l11.658-7.012-2.117.037-9.637,6.4Z" transform="translate(-672.362 -559.868)" fill="#755b61"/>
      <path id="Trazado_225414" data-name="Trazado 225414" d="M687.192,640.913h2.57s-.062-7.672,2.674-13.889l-.662-1.488S687,636.181,687.192,640.913Z" transform="translate(-670.18 -562.154)" fill="#755b61"/>
      <path id="Trazado_225415" data-name="Trazado 225415" d="M674.8,620.6l13.354-11.158-2.012-.52-11.406,11.033Z" transform="translate(-666.465 -557.196)" fill="#755b61"/>
      <path id="Trazado_225416" data-name="Trazado 225416" d="M666.328,640.145h2.57s.354-8.571,3.426-15.519l-.581-1.663S666.393,634.858,666.328,640.145Z" transform="translate(-663.955 -561.386)" fill="#755b61"/>
      <path id="Trazado_225417" data-name="Trazado 225417" d="M760.056,588.509,749.6,585.152l.091,6.37Z" transform="translate(-688.809 -550.101)" fill="#443135"/>
      <path id="Trazado_225418" data-name="Trazado 225418" d="M766.061,589.421l10.083-2.011-1.2,4.916Z" transform="translate(-693.721 -550.775)" fill="#443135"/>
      <path id="Trazado_225419" data-name="Trazado 225419" d="M758.611,589.033l-7.1-1.857-.273,3.714Z" transform="translate(-689.297 -550.705)" fill="#f22f62"/>
      <path id="Trazado_225420" data-name="Trazado 225420" d="M769,590.006l6.435-1.039-.328,2.294Z" transform="translate(-694.599 -551.24)" fill="#f22f62"/>
      <path id="Trazado_225421" data-name="Trazado 225421" d="M769.77,598.477l-1.129-.123-.15,1.393,1.333.145Z" transform="translate(-694.446 -554.041)" fill="#c49da6"/>
      <path id="Trazado_225422" data-name="Trazado 225422" d="M772.365,599.6l-1.13-.122-.082.763,1.333.144Z" transform="translate(-695.241 -554.376)" fill="#c49da6"/>
      <path id="Trazado_225423" data-name="Trazado 225423" d="M764.124,598.274l-1.134.039.05,1.4,1.338-.047Z" transform="translate(-692.804 -554.017)" fill="#c49da6"/>
      <path id="Trazado_225424" data-name="Trazado 225424" d="M758.577,599.522l-1.1.274.259,1.037,1.3-.323Z" transform="translate(-691.158 -554.39)" fill="#c49da6"/>
      <path id="Trazado_225425" data-name="Trazado 225425" d="M767.1,597.812l-1.134-.037-.057,1.743,1.338.043Z" transform="translate(-693.677 -553.869)" fill="#c49da6"/>
      <path id="Trazado_225426" data-name="Trazado 225426" d="M761.215,598.073l-1.122.169.259,1.724,1.324-.2Z" transform="translate(-691.94 -553.957)" fill="#c49da6"/>
      <path id="Trazado_225427" data-name="Trazado 225427" d="M750.8,603.872l-.182-1.639a28.322,28.322,0,0,1,17.151-1.493l-.109.328C760.7,599.829,756.122,601.052,750.8,603.872Z" transform="translate(-689.111 -554.546)" fill="#2d1d21"/>
      <path id="Trazado_225428" data-name="Trazado 225428" d="M762.715,591.78c-.626.521-1.174,1.01-1.338.983s-.464-.655-.246-.792S762.939,591.594,762.715,591.78Z" transform="translate(-692.227 -552.059)" fill="#443135"/>
      <path id="Trazado_225429" data-name="Trazado 225429" d="M766.478,591.663c.61.521,1.145,1.01,1.3.984s.453-.656.24-.792S766.261,591.477,766.478,591.663Z" transform="translate(-693.839 -552.024)" fill="#443135"/>
    </g>
    <g id="Grupo_176859" data-name="Grupo 176859" transform="translate(932 8879)">
      <path id="Trazado_225430" data-name="Trazado 225430" d="M481.2,509.282c8.757,3.035,2.978,19.906-7.021,24.763-11.932,5.8-32.733,12.656-33.609,32.154-.585,13.038,9.983,20.315,22.241,18.739l-1.751-7.063c-5.488.35-14.828-2.335-14.828-13.077s16.276-21.038,26.386-26.5C489.523,529.159,491.3,511.325,481.2,509.282Z" transform="translate(-440.552 -509.282)" fill="#ed8b7e"/>
      <g id="Grupo_176858" data-name="Grupo 176858" transform="translate(0.007)">
        <path id="Trazado_225431" data-name="Trazado 225431" d="M440.572,611.292c-.324,12.755,10.133,19.85,22.25,18.292l-.69-2.783C451.168,627.811,441.66,621.91,440.572,611.292Z" transform="translate(-440.565 -553.928)" fill="#d8645b"/>
        <path id="Trazado_225432" data-name="Trazado 225432" d="M512.845,509.282l.08.03-.043-.022Z" transform="translate(-472.199 -509.282)" fill="#d8645b"/>
        <path id="Trazado_225433" data-name="Trazado 225433" d="M486.834,509.951c7.479,4,4.933,19.169-10.426,27.272-10.026,5.288-26.143,15.252-25.978,25.646a15.808,15.808,0,0,0,.138,1.875c.344-10.616,16.377-20.751,26.378-26.157C493.076,529.868,495.433,513.227,486.834,509.951Z" transform="translate(-444.882 -509.575)" fill="#d8645b"/>
      </g>
      <path id="Trazado_225434" data-name="Trazado 225434" d="M530.094,645.554H514.768s8.119-2.406,10.832-2.44C529.5,643.067,530.094,645.554,530.094,645.554Z" transform="translate(-473.034 -567.856)" fill="#47393c"/>
      <path id="Trazado_225435" data-name="Trazado 225435" d="M543.533,625.078c1.712,3.9,6.347,5.27,10.491,5.27l.246-.577s-9.533-2.52-6.844-11.982c.514-1.81.17-4.692-2.5-1.876S542.836,623.49,543.533,625.078Z" transform="translate(-485.367 -555.435)" fill="#47393c"/>
      <path id="Trazado_225436" data-name="Trazado 225436" d="M560.539,579.911c-.691-4.524-7.4-14.791-8.44-14.968s-5.33,7.794,1.309,13.394C554.517,579.273,560.747,581.28,560.539,579.911Z" transform="translate(-488.357 -533.642)" fill="#47393c"/>
      <path id="Trazado_225437" data-name="Trazado 225437" d="M562.6,580.46c-.9-4.007-6.826-13.063-7.481-13.056-.619.007-1.742,6.638,2.378,10.953C558.258,579.16,562.859,581.627,562.6,580.46Z" transform="translate(-490.42 -534.72)" fill="#604c51"/>
      <path id="Trazado_225438" data-name="Trazado 225438" d="M562.877,580.621c-.651-2.879-4.908-9.385-5.379-9.38-.444.005-1.248,4.769,1.712,7.869C559.761,579.687,563.067,581.459,562.877,580.621Z" transform="translate(-491.54 -536.399)" fill="#6d535a"/>
      <path id="Trazado_225439" data-name="Trazado 225439" d="M519.251,601.058l-6.129-13.4s-7.413,2.315-11.881.732c-5.069-4-15.123-5.68-24.838-1.17-9.807,4.553-15.411,18.8-6.421,32.691h32.808c.062-.089.118-.181.179-.27v.01l.063-.107a25.382,25.382,0,0,0,1.367-2.263C509.812,608.621,515.713,602.586,519.251,601.058Z" transform="translate(-451.453 -542.215)" fill="#47393c"/>
      <path id="Trazado_225440" data-name="Trazado 225440" d="M501.7,587.564c-5.346-3.382-14.647-4.525-23.659-.341a18.713,18.713,0,0,0-8.837,8.94c1.386,5.856,11.183,18.73,19.986,18.73,9.793,0,13.178-13.146,13.178-19.965C502.371,592.51,503.426,589.469,501.7,587.564Z" transform="translate(-453.093 -542.215)" fill="#604c51"/>
      <path id="Trazado_225441" data-name="Trazado 225441" d="M487.7,594.461c7.741,0,14.135-2.867,15.159-6.587-4.847-2.775-12.857-3.6-20.626.011a16.025,16.025,0,0,0-5.5,4.265A24.68,24.68,0,0,0,487.7,594.461Z" transform="translate(-456.387 -542.63)" fill="#70575e"/>
      <path id="Trazado_225442" data-name="Trazado 225442" d="M477.77,605.773c-12.622-1.094-11.617,11.091-4.553,21.424l13.325.555C488.176,621.33,486.527,606.531,477.77,605.773Z" transform="translate(-452.587 -551.483)" fill="#47393c"/>
      <path id="Trazado_225443" data-name="Trazado 225443" d="M535.325,604.607c3.1,3.5,13,3.853,16.7,2.568,0,0-8.539-15.487-19.272-14.924C532.749,592.251,530.422,599.061,535.325,604.607Z" transform="translate(-480.662 -545.588)" fill="#604c51"/>
      <path id="Trazado_225444" data-name="Trazado 225444" d="M547.244,608.089c3.634,1.27,9.136,3.327,9.643,3.506,0,0-1.456-10.38-9.031-8.847C545.345,603.255,542.82,606.543,547.244,608.089Z" transform="translate(-486.189 -550.121)" fill="#47393c"/>
      <path id="Trazado_225445" data-name="Trazado 225445" d="M555.424,612.359c-3.211-1.226-8.873-2.8-8.348-3.678s4.2-1.459,4.845-.934A57.109,57.109,0,0,1,555.424,612.359Z" transform="translate(-487.159 -552.29)" fill="#e2cda1"/>
      <path id="Trazado_225446" data-name="Trazado 225446" d="M553.667,611.9c-2.254-.86-6.228-1.967-5.86-2.582a2.037,2.037,0,0,1,2.268-.539C550.526,609.152,553.667,611.9,553.667,611.9Z" transform="translate(-487.483 -552.759)" fill="#fff6e1"/>
      <path id="Trazado_225447" data-name="Trazado 225447" d="M533.282,587.934c.526-2.889,4.864-6.46,12.821-5.333,10.508,1.488,19.264,26.707,22.592,31l-1.4.7s-15.429-8.165-21.454-17.162C541.346,590.423,533.282,587.934,533.282,587.934Z" transform="translate(-481.137 -541.278)" fill="#604c51"/>
      <path id="Trazado_225448" data-name="Trazado 225448" d="M566.944,603.119c-4.328-8.694-9.688-19.593-16.426-20.548a19.879,19.879,0,0,0-7.915.574,33.529,33.529,0,0,0,7.52,11.4C556.3,600.973,563.353,604.462,566.944,603.119Z" transform="translate(-485.216 -541.285)" fill="#6d535a"/>
      <path id="Trazado_225449" data-name="Trazado 225449" d="M560.269,596.768l-9.894-4.265s.393-3.44,3.064-3.266S560.269,596.768,560.269,596.768Z" transform="translate(-488.618 -544.273)" fill="#604c51"/>
      <path id="Trazado_225450" data-name="Trazado 225450" d="M546.031,595.45c-4.334-2.934-13.879-3.371-10.77-7.837S543.272,590.415,546.031,595.45Z" transform="translate(-481.735 -542.955)" fill="#6d535a"/>
      <path id="Trazado_225451" data-name="Trazado 225451" d="M553.326,605.888a10.1,10.1,0,0,0-3.109-3.021,21.516,21.516,0,0,1,2.628,3.11c6.31,9.162,21.81,17.293,21.81,17.293l.672-.333C572.249,621.1,559.577,613.859,553.326,605.888Z" transform="translate(-488.548 -550.241)" fill="#47393c"/>
      <path id="Trazado_225452" data-name="Trazado 225452" d="M539.79,576.473c-2.861-3.969-14.828-10.974-16-10.624s-.818,11.208,8.873,13.018C534.183,579.15,540.635,577.646,539.79,576.473Z" transform="translate(-476.779 -534.034)" fill="#604c51"/>
      <path id="Trazado_225453" data-name="Trazado 225453" d="M538.573,577.384c-2.693-4.085-14.045-10.705-15.226-10.4s-1.6,10.287,8.011,12.5C532.86,579.825,539.369,578.591,538.573,577.384Z" transform="translate(-476.522 -534.53)" fill="#47393c"/>
      <path id="Trazado_225454" data-name="Trazado 225454" d="M540.6,579.992c-2.042-2.834-11.819-7.824-12.653-7.574s.652,7.991,7.569,9.283C536.593,581.9,541.2,580.829,540.6,579.992Z" transform="translate(-478.708 -536.91)" fill="#d8645b"/>
      <path id="Trazado_225455" data-name="Trazado 225455" d="M559.978,597.944l-6.465-2.693,2.17-1.315S559.072,596.223,559.978,597.944Z" transform="translate(-489.991 -546.332)" fill="#47393c"/>
      <path id="Trazado_225456" data-name="Trazado 225456" d="M559.7,598.016l-4.346-1.864,1.287-.721A11.642,11.642,0,0,1,559.7,598.016Z" transform="translate(-490.795 -546.987)" fill="#ff4d63"/>
      <path id="Trazado_225457" data-name="Trazado 225457" d="M591.778,636.931c.972,1.868,3.628,2.906,4.329-.188S591.778,636.931,591.778,636.931Z" transform="translate(-506.738 -564.486)" fill="#d8645b"/>
      <path id="Trazado_225458" data-name="Trazado 225458" d="M476.016,599.076c-12.668.233-13.134,16.871-6.071,27.2h11.5C483.079,619.859,489.208,598.833,476.016,599.076Z" transform="translate(-451.416 -548.581)" fill="#604c51"/>
      <path id="Trazado_225459" data-name="Trazado 225459" d="M486.285,605.309c-.04-.416-.091-.825-.147-1.229-1.058-2.425-3.076-4.011-6.594-3.947a9.316,9.316,0,0,0-6.392,2.374,28.387,28.387,0,0,0,.106,4.066c.737,7.591,4.25,13.462,7.847,13.113S487.021,612.9,486.285,605.309Z" transform="translate(-454.807 -549.044)" fill="#70575e"/>
      <path id="Trazado_225460" data-name="Trazado 225460" d="M492.513,645.136H475.992s8.752-2.936,11.676-2.977C491.871,642.1,492.513,645.136,492.513,645.136Z" transform="translate(-456.063 -567.438)" fill="#604c51"/>
      <path id="Trazado_225461" data-name="Trazado 225461" d="M502.749,646.011h1.927a12.735,12.735,0,0,0-2.149-1.854C502.02,644.121,502.749,646.011,502.749,646.011Z" transform="translate(-467.598 -568.312)" fill="#896f77"/>
      <path id="Trazado_225462" data-name="Trazado 225462" d="M499.3,646.011h1.927s-1.251-1.829-1.595-1.854C499.141,644.121,499.3,646.011,499.3,646.011Z" transform="translate(-466.254 -568.312)" fill="#896f77"/>
      <path id="Trazado_225463" data-name="Trazado 225463" d="M495.379,646.011h1.927s-1.021-1.829-1.361-1.854C495.454,644.121,495.379,646.011,495.379,646.011Z" transform="translate(-464.548 -568.312)" fill="#896f77"/>
      <path id="Trazado_225464" data-name="Trazado 225464" d="M515.52,625.677c3.28,3.718,9.568,4.019,14.31,3.417l.086-.622s-11.762-1.177-11.89-11.188c-.025-1.915-1.395-4.795-3.5-1.545S514.185,624.163,515.52,625.677Z" transform="translate(-472.503 -555.231)" fill="#47393c"/>
      <path id="Trazado_225465" data-name="Trazado 225465" d="M538.358,639.815a18.251,18.251,0,0,1,3.649,2.605c.292.233.128-1.1-.334-1.657a12.278,12.278,0,0,0-1.184-1.27C540.051,639.085,537.132,639.26,538.358,639.815Z" transform="translate(-483.228 -566.173)" fill="#47393c"/>
      <path id="Trazado_225466" data-name="Trazado 225466" d="M552.793,639.457a16,16,0,0,1,2.16,3.695c.161.318.63-.923.462-1.589a10.655,10.655,0,0,0-.5-1.574C554.7,639.461,551.919,638.5,552.793,639.457Z" transform="translate(-489.602 -566.077)" fill="#47393c"/>
      <path id="Trazado_225467" data-name="Trazado 225467" d="M516.562,624.849c3.455,3.659,9.421,3.947,14.1,3.358l.085-.6s-11.789-1.144-12.207-11.25c-.082-1.992-1.622-5.057-3.734-1.667C512.719,618.046,515.128,623.33,516.562,624.849Z" transform="translate(-472.694 -554.751)" fill="#604c51"/>
      <path id="Trazado_225468" data-name="Trazado 225468" d="M529.143,576.778c-.076.023-.132.11-.168.247a9.688,9.688,0,0,0,7.255,6.277,10.74,10.74,0,0,0,3.79-.661C536.5,579.881,529.825,576.573,529.143,576.778Z" transform="translate(-479.252 -538.819)" fill="#ed8b7e"/>
      <path id="Trazado_225469" data-name="Trazado 225469" d="M546.976,606.787c.7-.62,4.215,1.8,4.215,1.8s-2.046-2.227-1.763-2.594-1.17-.959-1.837-.62S546.976,606.787,546.976,606.787Z" transform="translate(-487.13 -551.296)" fill="#47393c"/>
      <path id="Trazado_225470" data-name="Trazado 225470" d="M559.813,599.147l-10.479-4.48,8.419,3.044Z" transform="translate(-488.162 -546.652)" fill="#47393c"/>
      <path id="Trazado_225471" data-name="Trazado 225471" d="M557.235,591.714l-1.153-.058a23.541,23.541,0,0,1,4.233,3.678A12.691,12.691,0,0,0,557.235,591.714Z" transform="translate(-491.115 -545.334)" fill="#47393c"/>
      <path id="Trazado_225472" data-name="Trazado 225472" d="M595.454,637.738c.332-.385.691-1.012.38-1.167-.346-.173-1.183.18-1.737.6-.682.52-.219.687.328.826C594.9,638.12,595.063,638.193,595.454,637.738Z" transform="translate(-507.604 -564.972)" fill="#9b2f2a"/>
      <path id="Trazado_225473" data-name="Trazado 225473" d="M541.556,637.995c1.586-.17,2.945-1.151,3.791-.48s1.138,3.3,1.08,3.444-1.547-2.16-1.956-2.306-2.28.524-2.8.539S540.739,638.082,541.556,637.995Z" transform="translate(-484.555 -565.304)" fill="#604c51"/>
      <path id="Trazado_225474" data-name="Trazado 225474" d="M540.045,638.545c1.569.287,3.151-.268,3.772.616s.156,3.486.058,3.609S543,640.26,542.655,640s-2.335-.144-2.842-.278S539.237,638.4,540.045,638.545Z" transform="translate(-483.829 -565.851)" fill="#604c51"/>
      <path id="Trazado_225475" data-name="Trazado 225475" d="M537.2,637.8c1.47.615,3.132.41,3.549,1.407s-.59,3.44-.711,3.54-.315-2.639-.6-2.964-2.248-.64-2.714-.879S536.443,637.48,537.2,637.8Z" transform="translate(-482.531 -565.505)" fill="#604c51"/>
      <path id="Trazado_225476" data-name="Trazado 225476" d="M558.914,639.628c1.3-.013,2.484-.7,3.12-.092s.667,2.771.608,2.885-1.089-1.878-1.409-2.028a16.257,16.257,0,0,0-2.322.219C558.484,640.583,558.243,639.636,558.914,639.628Z" transform="translate(-492.172 -566.179)" fill="#47393c"/>
      <path id="Trazado_225477" data-name="Trazado 225477" d="M557.681,639.775c1.253.357,2.582.029,3.018.8s-.147,2.846-.236,2.939-.511-2.109-.775-2.345a16.219,16.219,0,0,0-2.289-.449C557,640.568,557.035,639.592,557.681,639.775Z" transform="translate(-491.578 -566.384)" fill="#47393c"/>
      <path id="Trazado_225478" data-name="Trazado 225478" d="M555.421,638.945c1.147.616,2.514.579,2.776,1.422s-.75,2.751-.856,2.823-.049-2.171-.258-2.457a16.161,16.161,0,0,0-2.138-.927C554.585,639.574,554.83,638.627,555.421,638.945Z" transform="translate(-490.544 -566.003)" fill="#47393c"/>
    </g>
  </g>
</svg>
