<svg xmlns="http://www.w3.org/2000/svg" width="715" height="238.653" viewBox="0 0 715 238.653">
  <g id="Grupo_953456" data-name="Grupo 953456" transform="translate(-285 -12134.898)">
    <g id="Grupo_175209" data-name="Grupo 175209" transform="translate(443.443 12310.76)">
      <g id="Grupo_175207" data-name="Grupo 175207" transform="translate(35.813)">
        <g id="Grupo_175205" data-name="Grupo 175205">
          <path id="Trazado_222578" data-name="Trazado 222578" d="M153.023,253.916q4.667-.132,9.335-.267c-15.214-15.6-12.514-32.805-6.667-36.8,4.293-2.936,10.065-2.276,11.5,3.005,1.109,4.078-2.362,6.2-2.168,9.8.307,5.674,9.623,12.181,14.935,9.6,4.158-2.02,6.291-11,2.4-16.269-2.206-2.988-4.262-2.125-8.8-5.868-1.585-1.306-9.1-10.146-19.736-5.067C144.011,216.728,138.451,236.789,153.023,253.916Z" transform="translate(-144.128 -210.485)" fill="#56b300"/>
          <path id="Trazado_222579" data-name="Trazado 222579" d="M153.4,215.025a9.5,9.5,0,0,1,5.887-4.471c-15.14,1.254-21.812,24.971-6.22,43.295l4.663-.133C149.405,242.252,145.845,228.374,153.4,215.025Z" transform="translate(-144.108 -210.447)" fill="#00ab00"/>
          <path id="Trazado_222580" data-name="Trazado 222580" d="M151.075,212.647c-7.119,5.935-11.842,23.832,1.986,40.083q1.795-.053,3.59-.1C146.187,240.323,142.573,224.011,151.075,212.647Z" transform="translate(-144.099 -209.313)" fill="#006d00"/>
        </g>
        <g id="Grupo_175206" data-name="Grupo 175206" transform="translate(18.741 4.5)">
          <path id="Trazado_222581" data-name="Trazado 222581" d="M161.207,216.866c-1.776,3.754-4.128,4.752-4.885,8.559-.822,4.134,11.427,20.873,18.645,5.636a16.258,16.258,0,0,0,.968-2.643C169.826,225.9,164.141,222.341,161.207,216.866Z" transform="translate(-156.283 -211.526)" fill="#007e00"/>
          <path id="Trazado_222582" data-name="Trazado 222582" d="M168.142,216.777c-2.331-1.547-3.283-3.486-3.466-3.369-.344.219,2.943,6.319,2.851,6.37,0,0-2.9-6.306-6.957-5.03-1.452.458-2.587,2-2.263,2.766.233.554,1.032.27,1.539.931.581.759.2,1.98-.281,3.428-.731,2.2-1.974,3.179-1.869,6.69.167,5.614,16.042,18.136,19.2,1.881,1.44-7.418-1.906-9.976-5.34-11.937C169.818,217.517,169.383,217.6,168.142,216.777Z" transform="translate(-155.52 -213.403)" fill="#64cf00"/>
          <path id="Trazado_222583" data-name="Trazado 222583" d="M162.161,221.866c.658-2.637-.176-6.1-2.5-7.262-.973.658-1.6,1.718-1.352,2.318.233.554,1.031.27,1.539.931,1.452,1.9-2.29,5.457-2.149,10.118.086,2.927,4.112,7.323,8.48,9.108C160.078,232.649,160.485,229.132,162.161,221.866Z" transform="translate(-155.519 -212.752)" fill="#00cb00"/>
          <path id="Trazado_222584" data-name="Trazado 222584" d="M167.795,217.132a15.96,15.96,0,0,1-4.049-3.724c-.344.219,2.943,6.319,2.849,6.37,0,0-3.112-6.652-7.233-4.928a7.906,7.906,0,0,1,4.539,2.882c3.773,4.313,4.536,9.373,4.641,20.722a34.036,34.036,0,0,0-.748-21.321Z" transform="translate(-154.614 -213.4)" fill="#dada2d"/>
        </g>
      </g>
      <g id="Grupo_175208" data-name="Grupo 175208" transform="translate(0 27.48)">
        <path id="Trazado_222585" data-name="Trazado 222585" d="M128.453,250c1.659-1.272.715-2.9,2.45-5.446.126-.185,2.538-3.633,5.585-3.506,2.106.088,2.8,1.812,3.825,1.372,1.539-.658.066-4.558,2.58-8.15a5.7,5.7,0,0,1,5.831-2.538c1.01-2.971,4.277-4.01,6.026-3.107,1.26.652.919,1.739,2.179,2.959,2.094,2.026,6.152-.065,7.136,6.724a14.244,14.244,0,0,1,7.583-4.888c6.576-1.232,7.6,2.543,13.993,7.986,3.862-5.02,10.906-4.06,13.831,1.332a9.4,9.4,0,0,1,7.517,9.535c6.094-1.093,9.985,6.154,5.824,10.8l-88.268.546c-5.229-3.719-4.146-10.329-1.022-12.343C125.454,250.03,126.823,251.245,128.453,250Z" transform="translate(-120.901 -228.306)" fill="#070a0b"/>
        <path id="Trazado_222586" data-name="Trazado 222586" d="M154.454,239.8c-.012.951-.809,1.038-1.136,2.307-.518,2.023,1.193,3.024.554,3.983-.825,1.238-3.846-.225-6.659,1.408-1.371.8-1.032,1.334-2.84,2.478-1.218.771-2.991,1.892-4.754,1.4a3.665,3.665,0,0,1-2.567-2.99c-.217-2.112,2.216-2.817,1.969-4.6-.285-2.072-3.722-2.247-3.949-4.135-.224-1.87,2.843-4.3,5.367-4.132,2.078.14,2.35,1.947,4.624,2.135,2.3.19,2.951-1.587,5.232-1.377C152.433,236.468,154.474,238.267,154.454,239.8Z" transform="translate(-113.229 -224.407)" fill="#745f69"/>
        <path id="Trazado_222587" data-name="Trazado 222587" d="M145.235,232.408c2.746-.1,5.048,2.3,2.863,5.279a4.049,4.049,0,0,1-3.354,1.627c-1.284-.15-1.1-1.284-2.823-2.052-1.59-.709-2.469-.062-3.346-.783-1.109-.91-1.008-3.01-.029-3.562.826-.467,1.95.361,2.536-.131.612-.512-.4-1.593.247-2.415C142.577,228.786,146.152,230.079,145.235,232.408Z" transform="translate(-111.756 -227.567)" fill="#4d3640"/>
        <path id="Trazado_222588" data-name="Trazado 222588" d="M143.894,232.55c1.824-.066,3.355,1.528,1.9,3.509a2.694,2.694,0,0,1-2.23,1.081c-.853-.1-.732-.853-1.875-1.363-1.058-.472-1.642-.042-2.225-.521a1.6,1.6,0,0,1-.02-2.368c.55-.31,1.3.241,1.687-.086.407-.341-.265-1.059.163-1.605C142.181,230.074,144.486,231.044,143.894,232.55Z" transform="translate(-111.128 -227.005)" fill="#745f69"/>
        <path id="Trazado_222589" data-name="Trazado 222589" d="M156.659,242.4c.473,1.473-1.138,2.5-.47,3.434.433.6,1.209.313,2,1.132a2.153,2.153,0,0,1-.635,3.577c-.978.443-1.531-.157-2.688.254-.982.35-.831.874-1.787,1.2a4.414,4.414,0,0,1-2.994-.267c-.817-.372-.708-.646-1.881-1.382s-1.4-.544-1.961-1.025c-1-.865-1.429-2.507-.692-3.426.683-.853,4.04-1.324,4.724-2.021.618-.631.176-1.058.726-1.872a3.554,3.554,0,0,1,3.312-1.451A2.972,2.972,0,0,1,156.659,242.4Z" transform="translate(-107.743 -221.687)" fill="#4d3640"/>
        <path id="Trazado_222590" data-name="Trazado 222590" d="M173.987,251.2c-1.028-.333-.8-1.986-1.707-2.169-.657-.133-.99.691-2.1,1.1a5.037,5.037,0,0,1-5.077-1.24c-1.016-1.147-1.422-3.165-.245-3.994a3.315,3.315,0,0,1,3.38.16c1.193.813.867,2.145,1.708,2.351.871.211,1.4-1.172,2.734-1.289,1.861-.163,4.444,2.228,3.833,3.79A2.4,2.4,0,0,1,173.987,251.2Z" transform="translate(-97.471 -219.53)" fill="#745f69"/>
        <path id="Trazado_222591" data-name="Trazado 222591" d="M136.543,246.311c.967.533,1.068,2.529.032,3.744-2.247,2.632-8.985.4-8.718-1.283.106-.674,1.377-.683,1.685-1.6.3-.9-.749-1.419-.473-2.156.43-1.147,3.651-1.65,4.347-.828.518.611-.594,1.687-.06,2.176C133.951,246.912,135.553,245.765,136.543,246.311Z" transform="translate(-117.135 -219.919)" fill="#745f69"/>
        <path id="Trazado_222592" data-name="Trazado 222592" d="M134.316,239c.845.645.217,1.42,1.1,2.478,1.139,1.368,2.839.86,3.582,2.034a2.483,2.483,0,0,1-1.073,3.367c-.782.3-1.673-.086-2.916-.618-1.749-.748-1.755-1.274-2.97-1.616-1.815-.51-2.792.4-3.591-.159-1.121-.782-.831-3.707,1.224-5.093C131.04,238.475,133.257,238.2,134.316,239Z" transform="translate(-117.161 -222.767)" fill="#4d3640"/>
        <path id="Trazado_222593" data-name="Trazado 222593" d="M164.7,235.557c.791,1.551-.808,7.071.16,8.776,1.092,1.921,3.3,1.525,4.367,3.483,2.136,3.93-3.213,6.329-6.194,4.505-1.039-.637-.719-1.38-1.782-1.914-2.125-1.065-5.4,2.231-5.8-3.616-.1-1.4.365-1.528.082-2.2-.671-1.584-3.32-1.073-4.7-2.774-1.109-1.368-.958-3.623.191-4.379,1.2-.789,2.982.393,3.878-.4s-.555-2.248.308-3.414C156.585,231.772,163.1,232.418,164.7,235.557Z" transform="translate(-105.091 -225.983)" fill="#745f69"/>
        <path id="Trazado_222594" data-name="Trazado 222594" d="M162.811,236.389c.609,1.2-.66,5.394.123,6.774.842,1.482,2.549,1.176,3.369,2.686,1.648,3.034-2.479,4.886-4.78,3.479-.8-.492-.554-1.065-1.375-1.477-1.639-.822-4.166,1.722-4.473-2.791-.074-1.078.282-1.178.062-1.7-.517-1.224-2.561-.83-3.627-2.142-.856-1.055-.739-2.8.148-3.38.927-.609,2.3.3,2.993-.308s-.429-1.735.239-2.634C156.608,233.39,161.619,234.047,162.811,236.389Z" transform="translate(-104.305 -225.173)" fill="#4d3640"/>
        <path id="Trazado_222595" data-name="Trazado 222595" d="M171.935,238.684c1.335,1.3.988,2.563,2.265,3.014,1.232.435,1.966-.592,3.836-.3,6.026.939,2.344,7.941-2.165,8.82-1.59.31-3.963.165-5.128-1.069-.947-1-.276-1.853-1.3-2.745-.979-.85-1.961-.4-3.849-1.078-.524-.188-2.939-1.056-3.542-2.729C160.73,238.934,167.415,234.279,171.935,238.684Z" transform="translate(-98.695 -223.654)" fill="#4d3640"/>
      </g>
    </g>
    <g id="Grupo_175218" data-name="Grupo 175218" transform="translate(578.658 12259.889)">
      <g id="Grupo_175217" data-name="Grupo 175217">
        <g id="Grupo_175214" data-name="Grupo 175214">
          <g id="Grupo_175210" data-name="Grupo 175210" transform="translate(0 15.034)">
            <path id="Trazado_222596" data-name="Trazado 222596" d="M237.128,188.446c-12.309-3.73-24.747,1.28-28.533,14.061l.257-.062c6.417-17.578,29.276-18.586,34.02,10.113.085-.254.207-.415.4-.453.826-.162,1.3,2.342,3.051,2.735,1.826.41,4.043-1.7,5.105-3.472C254.77,205.8,251.384,192.765,237.128,188.446Z" transform="translate(-208.595 -187.243)" fill="#64cf00"/>
            <path id="Trazado_222597" data-name="Trazado 222597" d="M208.762,201.489c7.839-1.895,11.336-.5,13.063,1.237,3.144,3.158.577,7.56,4.6,13.2,5.366,7.531,11.865,6.009,14.295,3.267,2.211-2.495,1.634-6.288,2.066-7.592C238.03,182.857,215.181,183.91,208.762,201.489Z" transform="translate(-208.505 -186.287)" fill="#64cf00"/>
            <path id="Trazado_222598" data-name="Trazado 222598" d="M228.755,200.779c-2.1-7.361-11.845-8.975-18.144-2.68,5.87-.945,8.71.308,10.212,1.816,3.144,3.158.577,7.56,4.6,13.2.714,1,3.961,5.56,8.781,5.514a9.223,9.223,0,0,0,2.5-.39C231.846,214.62,229.959,207.276,228.755,200.779Z" transform="translate(-207.503 -183.476)" fill="#006d00"/>
            <path id="Trazado_222599" data-name="Trazado 222599" d="M208.761,201.273c1.022-.247,1.972-.438,2.852-.58,6.2-6.192,16-4.826,18.144,2.68,1.2,6.5,3.091,13.842,7.947,17.462,5.682-1.736,4.513-7.742,5.079-9.449,4.848,1.719,9.063-1.158,8.665-8.212-.2-3.553-2.188-6.134-2.452-6.035s1.206,2.849-.006,5.283c-.459.922-1.392,1.977-1.975,1.79-1.028-.33.384-4.1-1.414-8.2-.984-2.24-2.57-3.768-2.923-3.583-.368.194.847,2.117.472,4.809-.211,1.52-.958,3.492-1.742,3.492-1.127,0-.76-4.075-3.633-7.452a11.923,11.923,0,0,0-7.073-3.867c-.014.032,2.754.731,3.4,2.735a2.192,2.192,0,0,1-.318,2.188c-.968.8-2.971-.737-5.275-1.577C222.593,190.594,213.243,192.917,208.761,201.273Z" transform="translate(-208.505 -186.071)" fill="#00ab00"/>
          </g>
          <g id="Grupo_175211" data-name="Grupo 175211" transform="translate(45.761)">
            <path id="Trazado_222600" data-name="Trazado 222600" d="M249.886,205.047c-11.244-.532-12.887-11.947-10.775-17.63,3.018-8.12,18.511-12.2,38.4-8.621,1.377,4.632,3.5,14.474-.783,24.684-1.775,4.225-5.019,11.954-11.754,12.929C259.156,217.251,251.6,212.711,249.886,205.047Z" transform="translate(-238.249 -177.492)" fill="#dada2d"/>
            <path id="Trazado_222601" data-name="Trazado 222601" d="M277.8,179.451c-.018,4.983-.378,9.93-2.7,14.355-2.72,5.1-7.82,10.54-13.94,10.54-3.741.341-5.441-4.08-4.081-7.48-5.588,1.863-13.468,2.058-18.423-1.695,1.386,5.421,5.407,8.547,11.046,8.814,1.687,7.563,9.18,12.218,15.084,11.362,6.735-.976,9.979-8.7,11.754-12.929C280.356,193.331,279.092,184.541,277.8,179.451Z" transform="translate(-238.066 -176.43)" fill="#006d00"/>
            <path id="Trazado_222602" data-name="Trazado 222602" d="M276.22,178.194c-1.338,4.473-4.646,8.029-9.467,8.829a9.1,9.1,0,0,1,5.054-6.086c-.072-.148-2.88.345-5.409,2.507-2.68,2.291-2.231,4.052-4.871,6.074-1.844,1.412-4.592,2.49-5.4,1.664-.845-.86.395-3.758,2.06-5.6a13.194,13.194,0,0,1,3.5-2.533c-.222-.452-6.511,2.2-9.785,6.474-1.813,2.368-2.136,4.209-2.61,4.118-.538-.1-.984-2.637-.109-4.945,1.349-3.56,5.136-4.729,4.937-5.119s-4.283.276-6.63,3.4a8.9,8.9,0,0,0-1.676,4.478,7.936,7.936,0,0,1,.285-11.089c-6.272,2.99-9.156,7.95-7.228,15.488a11.242,11.242,0,0,0,18.423,1.695c-8.218,7.392,1.149,14.463,8.132,13.663,8.655-.993,16.6-18.248,12.113-32.795Z" transform="translate(-238.274 -177.111)" fill="#64cf00"/>
          </g>
          <g id="Grupo_175213" data-name="Grupo 175213" transform="translate(16.961 10.645)">
            <path id="Trazado_222603" data-name="Trazado 222603" d="M240.679,234.161c-3.051-7.531-1.149-20.74,22.433-45.563a90.522,90.522,0,0,0-20.1,20.074,18.744,18.744,0,0,1-.185-11.247c-.146-.04-1.563,3.42-2.43,8.265a46.479,46.479,0,0,0-.723,8.056c-18.9,32.879,9.291,28.955,8.337,60.712l13.516.339C261.176,250.28,244.622,243.886,240.679,234.161Z" transform="translate(-212.259 -182.119)" fill="#64cf00"/>
            <path id="Trazado_222604" data-name="Trazado 222604" d="M258.817,262.248a180.43,180.43,0,0,1-14.267-15.781c-3.061-3.4-5.44-7.48-5.781-12.241-1.271-17.78,19.779-39.642,34.392-49.83a93.032,93.032,0,0,0-30.127,26.553,18.6,18.6,0,0,1-.6-2.111,12.72,12.72,0,0,0-2.737,7.145,72.592,72.592,0,0,0-4.482,9.654c-.15-.27-1.816,4.849-1.909,5.144.045.182.089.361.131.535-2.973,18.319,15.376,19.463,14.6,45.42l13.518.339A44.218,44.218,0,0,0,258.817,262.248Z" transform="translate(-212.27 -184.396)" fill="#00ab00"/>
            <g id="Grupo_175212" data-name="Grupo 175212" transform="translate(0 11.364)">
              <path id="Trazado_222605" data-name="Trazado 222605" d="M240.526,194.3c-.147-.04-1.563,3.421-2.43,8.265a46.389,46.389,0,0,0-.722,7.953,58.839,58.839,0,0,1,2.871-6.521A19.516,19.516,0,0,1,240.526,194.3Z" transform="translate(-209.961 -190.396)" fill="#006d00"/>
              <path id="Trazado_222606" data-name="Trazado 222606" d="M246.9,212.176a61.907,61.907,0,0,0-4.376,9.424,42.689,42.689,0,0,0-6.763-15.969A43.2,43.2,0,0,0,219.6,191.766s11.371,5.509,17.544,20.051c4.7,11.06,3.176,17.556,3.371,20.453.967,14.457,15.542,16.868,14.835,40.43q1.191.095,2.381.193c2.146-10.041.416-16.526-1.545-20.581-4.536-9.381-13.55-10.522-11.776-29.413A40.926,40.926,0,0,1,246.9,212.176Z" transform="translate(-219.595 -191.766)" fill="#006d00"/>
            </g>
          </g>
        </g>
        <g id="Grupo_175215" data-name="Grupo 175215" transform="translate(43.767 15.438)">
          <path id="Trazado_222607" data-name="Trazado 222607" d="M245,187.654c-1.676-1.008-7.619,3.236-8.012,8.026a41.312,41.312,0,0,0,.763,5.188c.577,3.36.9,5.865,4.425,1.069,2.728-3.713,3.037-7.751,3.206-10.377C245.53,189.2,245.605,188.019,245,187.654Z" transform="translate(-236.98 -187.504)" fill="#006d00"/>
          <path id="Trazado_222608" data-name="Trazado 222608" d="M243.4,187.534a18.831,18.831,0,0,0-3.532,15.619c3.116-3.574,3.893-7.218,4.176-11.611C244.145,189.921,244.5,187.821,243.4,187.534Z" transform="translate(-235.644 -187.488)" fill="#00ab00"/>
        </g>
        <g id="Grupo_175216" data-name="Grupo 175216" transform="translate(12.028 78.351)">
          <path id="Trazado_222609" data-name="Trazado 222609" d="M223.947,250c1.659-1.272.715-2.9,2.452-5.446.125-.185,2.536-3.633,5.583-3.506,2.106.088,2.8,1.812,3.827,1.372,1.537-.658.065-4.558,2.58-8.15a5.7,5.7,0,0,1,5.83-2.538c1.01-2.971,4.277-4.01,6.027-3.107,1.258.652.919,1.739,2.179,2.959,2.092,2.026,6.151-.065,7.134,6.724a14.256,14.256,0,0,1,7.583-4.888c6.576-1.232,7.6,2.543,13.993,7.986,3.863-5.02,10.906-4.06,13.832,1.332a9.4,9.4,0,0,1,7.515,9.535c6.094-1.093,9.985,6.154,5.824,10.8l-88.268.546c-5.227-3.719-4.146-10.329-1.022-12.343C220.948,250.03,222.317,251.245,223.947,250Z" transform="translate(-216.395 -228.306)" fill="#070a0b"/>
          <path id="Trazado_222610" data-name="Trazado 222610" d="M249.949,239.8c-.012.951-.811,1.038-1.136,2.307-.52,2.023,1.192,3.024.554,3.983-.825,1.238-3.847-.225-6.661,1.408-1.371.8-1.03,1.334-2.839,2.478-1.218.771-2.991,1.892-4.755,1.4a3.664,3.664,0,0,1-2.566-2.99c-.219-2.112,2.214-2.817,1.969-4.6-.287-2.072-3.724-2.247-3.949-4.135-.224-1.87,2.843-4.3,5.367-4.132,2.077.14,2.35,1.947,4.623,2.135,2.3.19,2.953-1.587,5.233-1.377C247.926,236.468,249.969,238.267,249.949,239.8Z" transform="translate(-208.723 -224.407)" fill="#745f69"/>
          <path id="Trazado_222611" data-name="Trazado 222611" d="M240.73,232.408c2.745-.1,5.047,2.3,2.862,5.279a4.047,4.047,0,0,1-3.354,1.627c-1.283-.15-1.1-1.284-2.822-2.052-1.591-.709-2.469-.062-3.348-.783-1.107-.91-1.008-3.01-.029-3.562.828-.467,1.951.361,2.538-.131.612-.512-.4-1.593.247-2.415C238.07,228.786,241.646,230.079,240.73,232.408Z" transform="translate(-207.25 -227.567)" fill="#4d3640"/>
          <path id="Trazado_222612" data-name="Trazado 222612" d="M239.388,232.55c1.826-.066,3.355,1.528,1.9,3.509a2.693,2.693,0,0,1-2.228,1.081c-.854-.1-.734-.853-1.876-1.363-1.058-.472-1.641-.042-2.225-.521a1.606,1.606,0,0,1-.02-2.368c.55-.31,1.3.241,1.687-.086.407-.341-.265-1.059.165-1.605C237.675,230.074,239.981,231.044,239.388,232.55Z" transform="translate(-206.622 -227.005)" fill="#745f69"/>
          <path id="Trazado_222613" data-name="Trazado 222613" d="M252.153,242.4c.473,1.473-1.138,2.5-.469,3.434.432.6,1.209.313,2,1.132a2.152,2.152,0,0,1-.634,3.577c-.978.443-1.533-.157-2.688.254-.984.35-.833.874-1.789,1.2a4.409,4.409,0,0,1-2.993-.267c-.819-.372-.708-.646-1.883-1.382s-1.4-.544-1.96-1.025c-1-.865-1.431-2.507-.694-3.426.683-.853,4.04-1.324,4.724-2.021.618-.631.176-1.058.728-1.872a3.554,3.554,0,0,1,3.312-1.451A2.97,2.97,0,0,1,252.153,242.4Z" transform="translate(-203.237 -221.687)" fill="#4d3640"/>
          <path id="Trazado_222614" data-name="Trazado 222614" d="M269.482,251.2c-1.03-.333-.8-1.986-1.708-2.169-.655-.133-.99.691-2.1,1.1a5.037,5.037,0,0,1-5.077-1.24c-1.016-1.147-1.42-3.165-.245-3.994a3.315,3.315,0,0,1,3.38.16c1.193.813.867,2.145,1.708,2.351.873.211,1.406-1.172,2.735-1.289,1.86-.163,4.444,2.228,3.832,3.79A2.4,2.4,0,0,1,269.482,251.2Z" transform="translate(-192.965 -219.53)" fill="#745f69"/>
          <path id="Trazado_222615" data-name="Trazado 222615" d="M232.039,246.311c.967.533,1.069,2.529.031,3.744-2.247,2.632-8.983.4-8.718-1.283.106-.674,1.378-.683,1.687-1.6.3-.9-.749-1.419-.475-2.156.43-1.147,3.651-1.65,4.347-.828.518.611-.592,1.687-.06,2.176C229.447,246.912,231.049,245.765,232.039,246.311Z" transform="translate(-212.63 -219.919)" fill="#745f69"/>
          <path id="Trazado_222616" data-name="Trazado 222616" d="M229.81,239c.845.645.219,1.42,1.1,2.478,1.139,1.368,2.837.86,3.58,2.034a2.482,2.482,0,0,1-1.072,3.367c-.782.3-1.673-.086-2.917-.618-1.749-.748-1.753-1.274-2.97-1.616-1.815-.51-2.791.4-3.59-.159-1.121-.782-.831-3.707,1.224-5.093C226.535,238.475,228.752,238.2,229.81,239Z" transform="translate(-212.655 -222.767)" fill="#4d3640"/>
          <path id="Trazado_222617" data-name="Trazado 222617" d="M260.193,235.557c.789,1.551-.809,7.071.16,8.776,1.09,1.921,3.3,1.525,4.365,3.483,2.136,3.93-3.213,6.329-6.194,4.505-1.039-.637-.719-1.38-1.781-1.914-2.125-1.065-5.4,2.231-5.8-3.616-.094-1.4.367-1.528.082-2.2-.669-1.584-3.32-1.073-4.7-2.774-1.109-1.368-.956-3.623.193-4.379,1.2-.789,2.98.393,3.878-.4s-.555-2.248.308-3.414C252.079,231.772,258.6,232.418,260.193,235.557Z" transform="translate(-200.585 -225.983)" fill="#745f69"/>
          <path id="Trazado_222618" data-name="Trazado 222618" d="M258.3,236.389c.609,1.2-.66,5.394.123,6.774.843,1.482,2.549,1.176,3.369,2.686,1.648,3.034-2.479,4.886-4.78,3.479-.8-.492-.554-1.065-1.374-1.477-1.641-.822-4.168,1.722-4.475-2.791-.074-1.078.282-1.178.063-1.7-.517-1.224-2.563-.83-3.627-2.142-.856-1.055-.739-2.8.148-3.38.927-.609,2.3.3,2.993-.308s-.429-1.735.237-2.634C252.1,233.39,257.112,234.047,258.3,236.389Z" transform="translate(-199.799 -225.173)" fill="#4d3640"/>
          <path id="Trazado_222619" data-name="Trazado 222619" d="M267.429,238.684c1.335,1.3.988,2.563,2.265,3.014,1.232.435,1.967-.592,3.838-.3,6.026.939,2.342,7.941-2.166,8.82-1.59.31-3.963.165-5.128-1.069-.947-1-.276-1.853-1.3-2.745-.978-.85-1.961-.4-3.847-1.078-.526-.188-2.94-1.056-3.543-2.729C256.224,238.934,262.911,234.279,267.429,238.684Z" transform="translate(-194.189 -223.654)" fill="#4d3640"/>
        </g>
      </g>
    </g>
    <g id="Grupo_175227" data-name="Grupo 175227" transform="translate(728.041 12252.058)">
      <g id="Grupo_175226" data-name="Grupo 175226">
        <g id="Grupo_175223" data-name="Grupo 175223" transform="translate(0 9.952)">
          <g id="Grupo_175219" data-name="Grupo 175219" transform="translate(0 12.913)">
            <path id="Trazado_222620" data-name="Trazado 222620" d="M334.011,188.446c-12.309-3.73-24.747,1.28-28.533,14.061l.258-.062c6.419-17.578,29.276-18.586,34.022,10.113.083-.254.205-.415.395-.453.826-.162,1.3,2.342,3.051,2.735,1.826.41,4.043-1.7,5.105-3.472C351.653,205.8,348.267,192.765,334.011,188.446Z" transform="translate(-305.478 -187.243)" fill="#64cf00"/>
            <path id="Trazado_222621" data-name="Trazado 222621" d="M305.645,201.489c7.839-1.895,11.336-.5,13.063,1.237,3.144,3.158.577,7.56,4.6,13.2,5.366,7.531,11.865,6.009,14.295,3.267,2.211-2.495,1.634-6.288,2.068-7.592C334.913,182.857,312.064,183.91,305.645,201.489Z" transform="translate(-305.388 -186.287)" fill="#64cf00"/>
            <path id="Trazado_222622" data-name="Trazado 222622" d="M325.639,200.779c-2.1-7.361-11.846-8.975-18.145-2.68,5.87-.945,8.71.308,10.212,1.816,3.144,3.158.577,7.56,4.6,13.2.714,1,3.961,5.56,8.781,5.514a9.223,9.223,0,0,0,2.5-.39C328.729,214.62,326.842,207.276,325.639,200.779Z" transform="translate(-304.386 -183.476)" fill="#006d00"/>
            <path id="Trazado_222623" data-name="Trazado 222623" d="M305.645,201.273c1.022-.247,1.971-.438,2.851-.58,6.2-6.192,16-4.826,18.145,2.68,1.2,6.5,3.09,13.842,7.945,17.462,5.682-1.736,4.513-7.742,5.081-9.449,4.846,1.719,9.062-1.158,8.664-8.212-.2-3.553-2.188-6.134-2.452-6.035s1.206,2.849-.006,5.283c-.458.922-1.392,1.977-1.975,1.79-1.028-.33.385-4.1-1.414-8.2-.984-2.24-2.57-3.768-2.923-3.583-.368.194.847,2.117.472,4.809-.211,1.52-.958,3.492-1.742,3.492-1.127,0-.76-4.075-3.633-7.452a11.922,11.922,0,0,0-7.073-3.867c-.014.032,2.754.731,3.4,2.735a2.192,2.192,0,0,1-.318,2.188c-.968.8-2.971-.737-5.275-1.577C319.476,190.594,310.126,192.917,305.645,201.273Z" transform="translate(-305.388 -186.071)" fill="#00ab00"/>
          </g>
          <g id="Grupo_175220" data-name="Grupo 175220" transform="translate(65.786)">
            <path id="Trazado_222624" data-name="Trazado 222624" d="M356.708,203.887c-10.772-3.266-9.574-14.736-6.135-19.73,4.911-7.134,20.931-7.3,39.339,1.032.2,4.828-.142,14.89-6.8,23.742-2.754,3.664-7.79,10.365-14.559,9.663C362.714,217.988,356.492,211.735,356.708,203.887Z" transform="translate(-348.144 -178.868)" fill="#dada2d"/>
            <path id="Trazado_222625" data-name="Trazado 222625" d="M389.946,184.121c-1.237,4.828-2.8,9.537-6.124,13.26-3.886,4.28-10.161,8.308-16.1,6.811-3.71-.584-4.277-5.286-2.126-8.251-5.875.439-13.564-1.3-17.45-6.148.019,5.6,3.153,9.609,8.554,11.247-.213,7.746,5.916,14.091,11.848,14.707,6.769.7,11.8-6,14.559-9.663C389.033,198.206,389.957,189.373,389.946,184.121Z" transform="translate(-348.14 -176.021)" fill="#006d00"/>
            <path id="Trazado_222626" data-name="Trazado 222626" d="M388.69,184.469c-2.391,4.01-6.468,6.649-11.338,6.245a9.106,9.106,0,0,1,6.388-4.664c-.034-.16-2.877-.37-5.859,1.109-3.158,1.567-3.153,3.383-6.208,4.7-2.132.917-5.06,1.291-5.643.293-.609-1.042,1.3-3.548,3.367-4.931a13.16,13.16,0,0,1,4.009-1.6c-.1-.492-6.852.543-11.071,3.884-2.338,1.853-3.1,3.56-3.537,3.355-.5-.233-.31-2.8,1.1-4.822,2.179-3.121,6.137-3.329,6.038-3.756s-4.22-.78-7.261,1.679a8.887,8.887,0,0,0-2.72,3.933,7.939,7.939,0,0,1,2.988-10.684c-6.812,1.366-10.823,5.469-10.8,13.251A11.243,11.243,0,0,0,365.6,198.6c-9.777,5.158-2.424,14.306,4.542,15.237,8.636,1.153,20.558-13.637,19.766-28.837Z" transform="translate(-348.14 -178.685)" fill="#64cf00"/>
          </g>
          <g id="Grupo_175222" data-name="Grupo 175222" transform="translate(16.961 9.387)">
            <path id="Trazado_222627" data-name="Trazado 222627" d="M337.562,235.509c-2.412-20.321,4.845-30.181,36.144-39.614-7.5,5.438-22.2-.726-33.814,14.125-2.054-5.833,2.641-23.909,2.641-23.909-.148-.04-4.9,13.979-5.256,20.927-.174,3.381-.719,6.14-.723,8.056-18.9,32.879,9.292,28.955,8.337,60.712l13.516.339C358.059,251.628,338.8,245.929,337.562,235.509Z" transform="translate(-309.142 -184.33)" fill="#64cf00"/>
            <path id="Trazado_222628" data-name="Trazado 222628" d="M356.234,260.771a180.417,180.417,0,0,1-14.266-15.781A20.3,20.3,0,0,1,337.1,232.5c-1.893-27.107,12.093-27.734,36.327-37.151-12.209,4.394-24.791,2.888-32.975,14.125-.237-.675,2.08-21.617,1.918-22.35-1.577,1.991-5.087,24.689-5.256,27.384a72.792,72.792,0,0,0-4.482,9.654c-.148-.27-1.816,4.849-1.909,5.144.045.182.089.361.131.535-2.971,18.319,15.377,19.463,14.6,45.42l13.516.339A44.143,44.143,0,0,0,356.234,260.771Z" transform="translate(-308.864 -183.782)" fill="#00ab00"/>
            <g id="Grupo_175221" data-name="Grupo 175221">
              <path id="Trazado_222629" data-name="Trazado 222629" d="M340.923,184.956c-.663.563-5.077,17.821-5.944,22.664a46.383,46.383,0,0,0-.722,7.953,58.575,58.575,0,0,1,2.873-6.521C337.913,202.307,340.923,184.956,340.923,184.956Z" transform="translate(-306.844 -184.956)" fill="#006d00"/>
              <path id="Trazado_222630" data-name="Trazado 222630" d="M343.784,212.176a61.911,61.911,0,0,0-4.376,9.424,42.688,42.688,0,0,0-6.763-15.969,43.192,43.192,0,0,0-16.167-13.865s11.372,5.509,17.544,20.051c4.7,11.06,3.176,17.556,3.371,20.453.967,14.457,15.542,16.868,14.835,40.43l2.382.193c2.145-10.041.415-16.526-1.547-20.581-4.536-9.381-13.549-10.522-11.775-29.413A40.924,40.924,0,0,1,343.784,212.176Z" transform="translate(-316.478 -181.266)" fill="#006d00"/>
            </g>
          </g>
        </g>
        <g id="Grupo_175224" data-name="Grupo 175224" transform="translate(12.028 86.181)">
          <path id="Trazado_222631" data-name="Trazado 222631" d="M320.83,250c1.659-1.272.715-2.9,2.452-5.446.125-.185,2.536-3.633,5.583-3.506,2.106.088,2.8,1.812,3.827,1.372,1.537-.658.065-4.558,2.58-8.15a5.7,5.7,0,0,1,5.83-2.538c1.01-2.971,4.277-4.01,6.027-3.107,1.258.652.919,1.739,2.179,2.959,2.092,2.026,6.151-.065,7.134,6.724a14.254,14.254,0,0,1,7.585-4.888c6.575-1.232,7.6,2.543,13.991,7.986,3.862-5.02,10.906-4.06,13.832,1.332a9.4,9.4,0,0,1,7.515,9.535c6.1-1.093,9.985,6.154,5.824,10.8l-88.266.546c-5.229-3.719-4.148-10.329-1.024-12.343C317.832,250.03,319.2,251.245,320.83,250Z" transform="translate(-313.279 -228.306)" fill="#070a0b"/>
          <path id="Trazado_222632" data-name="Trazado 222632" d="M346.832,239.8c-.012.951-.811,1.038-1.136,2.307-.52,2.023,1.192,3.024.554,3.983-.825,1.238-3.847-.225-6.661,1.408-1.371.8-1.03,1.334-2.839,2.478-1.218.771-2.991,1.892-4.755,1.4a3.663,3.663,0,0,1-2.566-2.99c-.219-2.112,2.216-2.817,1.969-4.6-.287-2.072-3.724-2.247-3.949-4.135-.224-1.87,2.843-4.3,5.367-4.132,2.077.14,2.35,1.947,4.623,2.135,2.3.19,2.953-1.587,5.233-1.377C344.809,236.468,346.852,238.267,346.832,239.8Z" transform="translate(-305.606 -224.407)" fill="#745f69"/>
          <path id="Trazado_222633" data-name="Trazado 222633" d="M337.613,232.408c2.745-.1,5.047,2.3,2.862,5.279a4.047,4.047,0,0,1-3.354,1.627c-1.283-.15-1.1-1.284-2.822-2.052-1.591-.709-2.469-.062-3.348-.783-1.107-.91-1.008-3.01-.029-3.562.828-.467,1.95.361,2.538-.131.612-.512-.4-1.593.247-2.415C334.953,228.786,338.529,230.079,337.613,232.408Z" transform="translate(-304.133 -227.567)" fill="#4d3640"/>
          <path id="Trazado_222634" data-name="Trazado 222634" d="M336.271,232.55c1.826-.066,3.355,1.528,1.9,3.509a2.693,2.693,0,0,1-2.228,1.081c-.854-.1-.732-.853-1.876-1.363-1.058-.472-1.641-.042-2.225-.521a1.6,1.6,0,0,1-.018-2.368c.549-.31,1.3.241,1.685-.086.407-.341-.265-1.059.165-1.605C334.558,230.074,336.864,231.044,336.271,232.55Z" transform="translate(-303.505 -227.005)" fill="#745f69"/>
          <path id="Trazado_222635" data-name="Trazado 222635" d="M349.038,242.4c.472,1.473-1.138,2.5-.47,3.434.432.6,1.209.313,2,1.132a2.152,2.152,0,0,1-.634,3.577c-.978.443-1.533-.157-2.688.254-.984.35-.833.874-1.789,1.2a4.409,4.409,0,0,1-2.993-.267c-.819-.372-.708-.646-1.883-1.382s-1.4-.544-1.96-1.025c-1-.865-1.431-2.507-.694-3.426.683-.853,4.04-1.324,4.724-2.021.62-.631.176-1.058.728-1.872a3.553,3.553,0,0,1,3.312-1.451A2.975,2.975,0,0,1,349.038,242.4Z" transform="translate(-300.12 -221.687)" fill="#4d3640"/>
          <path id="Trazado_222636" data-name="Trazado 222636" d="M366.365,251.2c-1.03-.333-.8-1.986-1.707-2.169-.657-.133-.99.691-2.1,1.1a5.037,5.037,0,0,1-5.077-1.24c-1.016-1.147-1.42-3.165-.244-3.994a3.312,3.312,0,0,1,3.378.16c1.193.813.868,2.145,1.71,2.351.871.211,1.4-1.172,2.734-1.289,1.859-.163,4.444,2.228,3.832,3.79A2.4,2.4,0,0,1,366.365,251.2Z" transform="translate(-289.848 -219.53)" fill="#745f69"/>
          <path id="Trazado_222637" data-name="Trazado 222637" d="M328.922,246.311c.967.533,1.068,2.529.031,3.744-2.245,2.632-8.983.4-8.718-1.283.106-.674,1.378-.683,1.687-1.6.3-.9-.749-1.419-.473-2.156.429-1.147,3.65-1.65,4.345-.828.518.611-.592,1.687-.06,2.176C326.33,246.912,327.932,245.765,328.922,246.311Z" transform="translate(-309.513 -219.919)" fill="#745f69"/>
          <path id="Trazado_222638" data-name="Trazado 222638" d="M326.693,239c.845.645.219,1.42,1.1,2.478,1.139,1.368,2.837.86,3.58,2.034a2.481,2.481,0,0,1-1.072,3.367c-.782.3-1.673-.086-2.917-.618-1.749-.748-1.753-1.274-2.968-1.616-1.816-.51-2.792.4-3.591-.159-1.121-.782-.831-3.707,1.224-5.093C323.418,238.475,325.635,238.2,326.693,239Z" transform="translate(-309.539 -222.767)" fill="#4d3640"/>
          <path id="Trazado_222639" data-name="Trazado 222639" d="M357.076,235.557c.789,1.551-.81,7.071.16,8.776,1.092,1.921,3.3,1.525,4.365,3.483,2.136,3.93-3.213,6.329-6.194,4.505-1.039-.637-.719-1.38-1.781-1.914-2.125-1.065-5.4,2.231-5.8-3.616-.1-1.4.365-1.528.08-2.2-.669-1.584-3.32-1.073-4.7-2.774-1.11-1.368-.958-3.623.191-4.379,1.2-.789,2.981.393,3.878-.4s-.555-2.248.308-3.414C348.962,231.772,355.478,232.418,357.076,235.557Z" transform="translate(-297.468 -225.983)" fill="#745f69"/>
          <path id="Trazado_222640" data-name="Trazado 222640" d="M355.187,236.389c.611,1.2-.66,5.394.125,6.774.842,1.482,2.549,1.176,3.369,2.686,1.647,3.034-2.479,4.886-4.781,3.479-.8-.492-.554-1.065-1.374-1.477-1.641-.822-4.168,1.722-4.475-2.791-.072-1.078.282-1.178.063-1.7-.517-1.224-2.563-.83-3.627-2.142-.856-1.055-.739-2.8.148-3.38.927-.609,2.3.3,2.993-.308s-.429-1.735.237-2.634C348.984,233.39,354,234.047,355.187,236.389Z" transform="translate(-296.682 -225.173)" fill="#4d3640"/>
          <path id="Trazado_222641" data-name="Trazado 222641" d="M364.313,238.684c1.334,1.3.987,2.563,2.265,3.014,1.232.435,1.966-.592,3.836-.3,6.026.939,2.344,7.941-2.166,8.82-1.59.31-3.961.165-5.127-1.069-.947-1-.278-1.853-1.3-2.745-.979-.85-1.961-.4-3.849-1.078-.526-.188-2.941-1.056-3.542-2.729C353.106,238.934,359.793,234.279,364.313,238.684Z" transform="translate(-291.072 -223.654)" fill="#4d3640"/>
        </g>
        <g id="Grupo_175225" data-name="Grupo 175225" transform="translate(38.78)">
          <path id="Trazado_222642" data-name="Trazado 222642" d="M352.967,173.117c-3.064,9.8,2.885,11.287,3.651,14.278,1.488,5.811-6.2,12.277-11.057,9.614a6.286,6.286,0,0,1-2.9-4.4c-4.074,6.074-10.349,3.512-11.831-2.953C329.026,181.8,339.754,169.314,352.967,173.117Z" transform="translate(-330.629 -172.413)" fill="#64cf00"/>
          <path id="Trazado_222643" data-name="Trazado 222643" d="M330.969,190.5a7.838,7.838,0,0,0,2.2,2.649c.224.17,1.539,1.149,1.9.833.285-.247-.367-.994-.461-2.37a4.664,4.664,0,0,1,.544-2.817c.122.022-.612,1.895.256,3.573,1.217,2.353,3.576,1.907,4.1.894.572-1.1-1.3-2.267-1.82-4.465-.837-3.511,2.4-6.94,2.428-6.925s-2.553,2.943-1.864,6.154c.512,2.379,3.438,6.052,4.314,1.687,2.313,4.7,7.076,3.605,7.753-1.423.635-4.7-4.106-7.2,2.45-15.419-3.064,9.8,2.885,11.287,3.651,14.278,1.488,5.811-6.2,12.277-11.057,9.614a6.286,6.286,0,0,1-2.9-4.4C338.819,197.812,333.183,196.567,330.969,190.5Z" transform="translate(-330.444 -172.166)" fill="#00ab00"/>
        </g>
      </g>
    </g>
    <g id="Grupo_175256" data-name="Grupo 175256" transform="translate(864.121 12134.897)">
      <g id="Grupo_175254" data-name="Grupo 175254" transform="translate(0)">
        <g id="Grupo_175237" data-name="Grupo 175237" transform="translate(0 41.691)">
          <g id="Grupo_175228" data-name="Grupo 175228" transform="translate(24.113 30.92)">
            <path id="Trazado_222644" data-name="Trazado 222644" d="M409.371,159.814c13.647,4.677,10.388,12.656,13.14,16.011,5.346,6.519,19.069,3.182,20.088-4.532.495-3.748-2.166-6.538-2.569-6.946,10.271.435,12.588-8.8,6.495-15.86C439.116,139.91,416.05,141.683,409.371,159.814Z" transform="translate(-409.371 -143.521)" fill="#64cf00"/>
            <path id="Trazado_222645" data-name="Trazado 222645" d="M447.488,147.569a11.083,11.083,0,0,1,1.166,4.7c.006.4.022,2.7-.641,2.851-.515.117-.819-1.243-2.3-2.493a6.5,6.5,0,0,0-3.643-1.725c-.076.154,2.657.882,3.836,3.26,1.653,3.335-.814,5.637-2.4,5.392-1.722-.265-1.491-3.354-3.546-5.776-3.281-3.866-9.859-3.05-9.867-3.007s5.46-.446,8.524,3.007c2.271,2.56,4,8.928-1.676,6.291,3.406,6.531-1.8,11.014-8.063,7.6-5.852-3.19-4.743-10.644-19.505-10.049,13.647,4.677,10.388,12.656,13.14,16.011,5.346,6.519,19.069,3.182,20.088-4.532.495-3.748-2.165-6.538-2.569-6.946C449.241,162.544,452.519,155.124,447.488,147.569Z" transform="translate(-409.371 -141.328)" fill="#00ab00"/>
          </g>
          <g id="Grupo_175236" data-name="Grupo 175236">
            <path id="Trazado_222646" data-name="Trazado 222646" d="M453.49,153.849a34.757,34.757,0,0,1-4.732,1.05A9.239,9.239,0,0,0,453.49,153.849Z" transform="translate(-363.914 -107.004)" fill="#64cf00"/>
            <g id="Grupo_175229" data-name="Grupo 175229" transform="translate(79.41 8.878)">
              <path id="Trazado_222647" data-name="Trazado 222647" d="M470,129.226c-2.5,10.519-7.5,16.364-11.558,19.747-5.922,4.931-12.745,7.043-13.179,12.36-.58,7.125,7.062,9.17,12.586,4.182-3.461,10.536,11.035,10.735,15.784,8.2C484.008,168.187,473.744,139.1,470,129.226Z" transform="translate(-445.234 -129.226)" fill="#64cf00"/>
              <path id="Trazado_222648" data-name="Trazado 222648" d="M465.1,156.548c3.232-3.509,7.831-4.814,7.669-5.147-.145-.3-3.61,1.186-4.482.325-.913-.9,1.907-3.475,3.059-6.445,1.044-2.694,1.112-6.729-2.877-12.742a33.4,33.4,0,0,1-10.033,14.639c-5.922,4.931-12.745,7.043-13.179,12.36-.171,2.115.629,5.216,3.35,6.42,1.585.7,2.911.6,6.784-.561a11.206,11.206,0,0,0,2.452-1.678c-.092.281-.183.594-.264.928a15.525,15.525,0,0,0,3.978-.194c5.307-.962,12.742-7.208,12.3-7.614a23.476,23.476,0,0,1-4.883,2.8C463.43,161.787,460.966,161.043,465.1,156.548Z" transform="translate(-445.231 -127.431)" fill="#dada2d"/>
            </g>
            <g id="Grupo_175235" data-name="Grupo 175235">
              <g id="Grupo_175234" data-name="Grupo 175234">
                <g id="Grupo_175230" data-name="Grupo 175230" transform="translate(72.564 69.974)">
                  <path id="Trazado_222649" data-name="Trazado 222649" d="M456.717,174.564c15.959-8.8,36.352-7.967,47.392,6.242-.136.006-.267.014-.4.022a28.808,28.808,0,0,0-21.619-9.922c-19.382.068-25.924,18.581-24.038,31.842.23,4.154.506,2.356-.487,2.445-1.274.113-.927,3.289-3.315,4.41-2.49,1.17-6.593-.533-8.875-2.262C438.177,201.892,437.76,185.023,456.717,174.564Z" transform="translate(-440.794 -168.85)" fill="#64cf00"/>
                  <path id="Trazado_222650" data-name="Trazado 222650" d="M497.72,180.118c-12.207.643-16.722,3.616-18.521,6.337-3.273,4.951,2.288,9.27-1.232,17.524-4.974,11.658-15.425,11.29-19.476,9.227-4.254-2.168-4.983-6.926-6.152-8.328C447.368,168.691,481.083,161.432,497.72,180.118Z" transform="translate(-434.806 -168.14)" fill="#64cf00"/>
                  <path id="Trazado_222651" data-name="Trazado 222651" d="M463.851,187.5c.018-9.864,13.831-15.029,25.324-9.953-8.942,1.048-12.56,3.6-14.125,5.972-3.273,4.951,2.288,9.27-1.232,17.524-.626,1.465-3.471,8.135-10.513,9.868a16.666,16.666,0,0,1-3.805.463C465.076,205.236,464.787,195.736,463.851,187.5Z" transform="translate(-430.657 -165.208)" fill="#006d00"/>
                  <path id="Trazado_222652" data-name="Trazado 222652" d="M503.314,178.865q-2.387.127-4.4.365c-11.54-5.1-25.306.117-25.324,9.953.936,8.232,1.224,17.732-4.351,23.873-9,.032-9.777-7.6-11.31-9.432-6.633,4.032-13.772,1.653-16.022-6.618-1.178-4.333.648-8.161,1.073-8.143s-.578,3.862,2.194,6.326c1.05.934,2.848,1.852,3.619,1.412,1.363-.779-2.257-4.774-1.335-10.355.506-3.05,2.185-5.471,2.777-5.38.617.1-.356,2.851,1.3,5.938.937,1.741,2.84,3.827,3.983,3.536,1.642-.419-.577-5.164,2.21-10.278,2.752-5.051,8.664-7.3,8.7-7.261s-3.711,1.9-3.815,4.538a2.532,2.532,0,0,0,1.366,2.5c1.744.6,4.026-1.986,7.034-3.85C478.838,171.151,493.406,170.586,503.314,178.865Z" transform="translate(-440.4 -166.887)" fill="#00ab00"/>
                </g>
                <g id="Grupo_175231" data-name="Grupo 175231" transform="translate(0 67.55)">
                  <path id="Trazado_222653" data-name="Trazado 222653" d="M444.278,198.913c23.324-2.573,14.6-41.554-17.437-29.236-5.1,1.96-12.789,10.984-33.1,8.84.129,4.925.919,18.677,11.358,29.282,4.333,4.4,12.26,12.457,22.475,11.122C437,217.691,446.822,208.032,444.278,198.913Z" transform="translate(-393.729 -167.277)" fill="#dada2d"/>
                  <path id="Trazado_222654" data-name="Trazado 222654" d="M393.753,176.014c2.091,5.964,4.661,11.757,9.868,16.2,6.075,5.1,15.757,9.722,24.673,7.447,5.591-.982,6.239-6.911,2.849-10.479,8.914.156,20.475-2.538,26.14-8.875.244,7.625-5.1,12.476-12.445,14.664.683,9.879-8.525,18.076-17.275,19.218-10.215,1.335-18.142-6.718-22.475-11.122A39.856,39.856,0,0,1,393.753,176.014Z" transform="translate(-393.722 -162.543)" fill="#006d00"/>
                  <path id="Trazado_222655" data-name="Trazado 222655" d="M413.008,184.157c-3.2-4.917-9.882-5.412-9.882-5.412.045-.2,4.34-.657,8.918.994,4.852,1.749,4.928,4.024,9.611,5.466,3.27,1.007,7.719,1.277,8.558-.014.874-1.345-2.129-4.354-5.321-5.95a22.617,22.617,0,0,0-6.141-1.736c.137-.624,10.4.219,16.935,4.12,3.624,2.165,4.854,4.249,5.508,3.964.742-.324.344-3.523-1.886-5.964-3.438-3.764-9.441-3.758-9.312-4.3s6.354-1.261,11.068,1.614a11.169,11.169,0,0,1,4.3,4.743c3.184-5.23.409-10.621-5.007-13.18,5.822.7,10.294,2.518,12.9,5.407,12.454,13.817-7.911,27.033-22.1,19.338,15.038,5.8,4.308,17.757-6.192,19.391-13.738,2.14-31.711-16.611-31.22-34.788A26.039,26.039,0,0,0,413.008,184.157Z" transform="translate(-393.733 -166.613)" fill="#64cf00"/>
                </g>
                <g id="Grupo_175233" data-name="Grupo 175233" transform="translate(14.319)">
                  <path id="Trazado_222656" data-name="Trazado 222656" d="M465.783,228.962c1.331-10.155-6.909-25.275-51.541-46.249a144.023,144.023,0,0,1,37.6,16.577c.58-7.751-4.385-13.541-4.385-13.541.2-.1,3.7,3.516,6.962,9a51.27,51.27,0,0,1,4.387,9.384,82.543,82.543,0,0,1,10.51,9.851c3.163,3.5,5.842,6.2,7.353,12.035,2.032,7.848-4.8,20.976-6.986,29.615-1.377,5.438-2.045,13.573,2.1,24.336L452.231,285.4C442.539,255.723,464.039,242.266,465.783,228.962Z" transform="translate(-396.937 -91.363)" fill="#64cf00"/>
                  <path id="Trazado_222657" data-name="Trazado 222657" d="M456.139,268.039a219.152,219.152,0,0,0,14.255-24.208c3.051-5.212,4.829-10.984,3.355-16.814-5.719-22.606-47.278-40.691-70.73-46.918A152.076,152.076,0,0,1,457.9,200.713a19.293,19.293,0,0,0,0-2.752,16.182,16.182,0,0,1,6.943,7.543c.379.333.746.629,1.115.927a85.708,85.708,0,0,1,9.412,8.974c.106-.379,4.663,5.148,4.909,5.454.011.234.02.466.031.691,11.91,20.837-14.346,29.037-2.469,59.841l-19.553,5.427A46,46,0,0,1,456.139,268.039Z" transform="translate(-403.019 -92.78)" fill="#00ab00"/>
                  <g id="Grupo_175232" data-name="Grupo 175232" transform="translate(22.169)">
                    <path id="Trazado_222658" data-name="Trazado 222658" d="M435.771,184.649c.2-.1,3.694,3.517,6.96,9a51.185,51.185,0,0,1,4.344,9.259,76.6,76.6,0,0,0-6.883-6.744A21.281,21.281,0,0,0,435.771,184.649Z" transform="translate(-407.44 -90.315)" fill="#006d00"/>
                    <path id="Trazado_222659" data-name="Trazado 222659" d="M473.369,123.468A177.206,177.206,0,0,0,454.122,180.1c24.45-11.037,30.152-32.216,30.152-32.216.157.057-3.779,16.295-20.188,29.288a67.338,67.338,0,0,1-9.947,6.513c-3.041,22.27.045,43.939,13.447,62.35a45.312,45.312,0,0,1,3.243-21.647,57.264,57.264,0,0,1,17.817-22.617s-24.527,19.115-16.119,50.408c11.908,20.837-14.346,29.037-2.469,59.841l-3.391,1.116c-7.282-11.233-7.443-19.645-6.265-25.232,2.176-10.318,9.709-14.4,8.9-25.9a36.775,36.775,0,0,0-9.056-21.144c-6.749-7.6-13.7-26.67-11.731-49.185a53.227,53.227,0,0,0-31.123-25.6c.079-.193,10.607,2.59,21.735,10.32a74.451,74.451,0,0,1,10.008,8.339,125.721,125.721,0,0,1,3.543-17.3C459.613,142.642,473.277,123.416,473.369,123.468Z" transform="translate(-417.397 -123.468)" fill="#006d00"/>
                  </g>
                </g>
              </g>
            </g>
          </g>
        </g>
        <g id="Grupo_175253" data-name="Grupo 175253" transform="translate(44.341)">
          <g id="Grupo_175248" data-name="Grupo 175248">
            <g id="Grupo_175242" data-name="Grupo 175242">
              <g id="Grupo_175238" data-name="Grupo 175238" transform="translate(28.346)">
                <path id="Trazado_222660" data-name="Trazado 222660" d="M454.733,96.448c13.583-.857,27.5,28.291,1.132,42.362C431.01,124.7,442.182,97.24,454.733,96.448Z" transform="translate(-440.79 -96.429)" fill="#bf325d"/>
                <path id="Trazado_222661" data-name="Trazado 222661" d="M454.58,167.363c13.581.857,27.5-28.291,1.13-42.361C430.855,139.112,442.027,166.572,454.58,167.363Z" transform="translate(-440.874 -80.945)" fill="#bf325d"/>
              </g>
              <g id="Grupo_175239" data-name="Grupo 175239" transform="translate(12.463 12.073)">
                <path id="Trazado_222662" data-name="Trazado 222662" d="M482.271,106.308c-6.262-7.478-33.842,6.229-30.523,29.384C474.246,138.232,488.029,113.187,482.271,106.308Z" transform="translate(-419.247 -104.259)" fill="#f93770"/>
                <path id="Trazado_222663" data-name="Trazado 222663" d="M432.622,156.112c-7.478-6.262,6.229-33.842,29.385-30.523C464.547,148.087,439.5,161.87,432.622,156.112Z" transform="translate(-430.573 -92.85)" fill="#f93770"/>
              </g>
              <g id="Grupo_175240" data-name="Grupo 175240" transform="translate(11.907 11.872)">
                <path id="Trazado_222664" data-name="Trazado 222664" d="M431.522,106.178c6.26-7.478,33.84,6.229,30.523,29.384C439.546,138.1,425.763,113.057,431.522,106.178Z" transform="translate(-430.213 -104.129)" fill="#f93770"/>
                <path id="Trazado_222665" data-name="Trazado 222665" d="M481,155.982c7.478-6.262-6.229-33.84-29.384-30.523C449.073,147.957,474.118,161.741,481,155.982Z" transform="translate(-418.714 -92.719)" fill="#f93770"/>
              </g>
              <g id="Grupo_175241" data-name="Grupo 175241" transform="translate(0 29.057)">
                <path id="Trazado_222666" data-name="Trazado 222666" d="M422.509,131.321c-.857-13.581,28.291-27.5,42.36-1.132C450.759,155.044,423.3,143.872,422.509,131.321Z" transform="translate(-422.49 -115.274)" fill="#bf325d"/>
                <path id="Trazado_222667" data-name="Trazado 222667" d="M493.424,131.474c.857-13.581-28.291-27.5-42.361-1.13C465.173,155.2,492.631,144.027,493.424,131.474Z" transform="translate(-407.006 -115.19)" fill="#bf325d"/>
              </g>
            </g>
            <g id="Grupo_175247" data-name="Grupo 175247" transform="translate(6.884 7.604)" opacity="0.61">
              <g id="Grupo_175243" data-name="Grupo 175243" transform="translate(16.858)">
                <path id="Trazado_222668" data-name="Trazado 222668" d="M466.379,101.625c9.222,3.021,8.289,30.964-13.9,35.365C440.995,118.455,457.888,98.845,466.379,101.625Z" transform="translate(-432.081 -101.36)" fill="#ff8fb6"/>
                <path id="Trazado_222669" data-name="Trazado 222669" d="M442.156,160.07c8.628,4.438,27.854-15.861,15.39-34.744C436.291,130.183,434.211,155.984,442.156,160.07Z" transform="translate(-437.888 -88.373)" fill="#ff8fb6"/>
              </g>
              <g id="Grupo_175244" data-name="Grupo 175244" transform="translate(3.006 19.99)">
                <path id="Trazado_222670" data-name="Trazado 222670" d="M485.538,117.608c-1.934-6.646-27.777-3.68-33.88,13.291C467.671,137.966,487.325,123.749,485.538,117.608Z" transform="translate(-416.574 -114.325)" fill="#ff6390"/>
                <path id="Trazado_222671" data-name="Trazado 222671" d="M429.257,140.589c-3.3-6.087,17.175-22.14,33.445-14.354C456.276,142.516,432.3,146.213,429.257,140.589Z" transform="translate(-428.904 -109.002)" fill="#ff6390"/>
              </g>
              <g id="Grupo_175245" data-name="Grupo 175245" transform="translate(19.645 0.157)">
                <path id="Trazado_222672" data-name="Trazado 222672" d="M442.1,101.809c6.08-3.314,22.4,17.812,14.745,34.4C440.47,129.475,436.466,104.882,442.1,101.809Z" transform="translate(-439.696 -101.462)" fill="#ff6390"/>
                <path id="Trazado_222673" data-name="Trazado 222673" d="M465.44,159.749c6.653-1.915,3.42-28.414-13.683-34.835C444.836,141.213,459.269,161.525,465.44,159.749Z" transform="translate(-434.154 -88.754)" fill="#ff6390"/>
              </g>
              <g id="Grupo_175246" data-name="Grupo 175246" transform="translate(0 16.519)">
                <path id="Trazado_222674" data-name="Trazado 222674" d="M427.22,117.585c3.03-9.247,30.938-8.266,35.316,13.883C444.026,142.951,424.436,126.085,427.22,117.585Z" transform="translate(-426.955 -112.074)" fill="#ff8fb6"/>
                <path id="Trazado_222675" data-name="Trazado 222675" d="M485.583,141.935c4.45-8.653-15.86-27.819-34.7-15.37C455.727,147.8,481.492,149.889,485.583,141.935Z" transform="translate(-413.986 -106.435)" fill="#ff8fb6"/>
              </g>
            </g>
          </g>
          <g id="Grupo_175252" data-name="Grupo 175252" transform="translate(25.242 15.132)">
            <g id="Grupo_175251" data-name="Grupo 175251">
              <g id="Grupo_175249" data-name="Grupo 175249">
                <path id="Trazado_222676" data-name="Trazado 222676" d="M451.745,133.818c-1.585-.239-1.833-12.969,5.327-19.479,5.32-4.838,13.1-4.334,13.156-4.061a18.176,18.176,0,0,0-6.379,2.015c-.307.174-7.239,4.262-8.756,11.486a35.285,35.285,0,0,1-1.824,7.151C452.584,132.688,452.123,133.875,451.745,133.818Z" transform="translate(-432.374 -104.144)" fill="#ebff5d"/>
                <path id="Trazado_222677" data-name="Trazado 222677" d="M458.308,133.354c-.743,1.587-13.015-2.072-17.151-10.661-3.119-6.481-.415-13.8-.139-13.768a18.149,18.149,0,0,0,.111,6.687c.08.345,2.021,8.155,8.511,11.669a35.361,35.361,0,0,1,6.333,3.788C457.465,132.229,458.472,133.009,458.308,133.354Z" transform="translate(-438.423 -104.789)" fill="#ebff5d"/>
                <path id="Trazado_222678" data-name="Trazado 222678" d="M454.711,136.167c-1.587.842-9.159-9.527-7.324-18.82,1.392-7.056,7.945-11.285,8.149-11.1a18.15,18.15,0,0,0-3.924,5.418c-.142.322-3.277,7.736-.193,14.44a35.237,35.237,0,0,1,2.794,6.832C454.711,134.759,455.047,135.988,454.711,136.167Z" transform="translate(-434.395 -106.243)" fill="#ebff5d"/>
                <path id="Trazado_222679" data-name="Trazado 222679" d="M460,124.923c-.484-1.587-13.126.134-18.486,8.129-4,5.973-2.362,13.6-2.085,13.609a18.173,18.173,0,0,1,1.056-6.605c.128-.328,3.153-7.787,10.075-10.346a35.363,35.363,0,0,0,6.806-2.857C459,125.918,460.112,125.287,460,124.923Z" transform="translate(-438.861 -96.411)" fill="#ebff5d"/>
                <path id="Trazado_222680" data-name="Trazado 222680" d="M451.589,124.837c-.675.6,2.5,7.205,8.729,10.887a17.363,17.363,0,0,0,6.405,2.486c7.1,1.13,13.336-3.56,13.23-3.816a18.155,18.155,0,0,1-6.441,1.812c-.352.022-8.391.4-13.618-4.806a35.371,35.371,0,0,0-5.447-4.98C452.911,125.322,451.875,124.582,451.589,124.837Z" transform="translate(-432.012 -96.195)" fill="#ebff5d"/>
                <path id="Trazado_222681" data-name="Trazado 222681" d="M453.875,124.812c-1.585-.737-8.648,9.944-6.3,19.186,1.768,6.971,8.54,10.843,8.733,10.644a18.133,18.133,0,0,1-4.209-5.2c-.159-.315-3.687-7.549-.967-14.409a35.255,35.255,0,0,0,2.422-6.972C453.952,126.216,454.222,124.972,453.875,124.812Z" transform="translate(-434.396 -96.2)" fill="#ebff5d"/>
                <path id="Trazado_222682" data-name="Trazado 222682" d="M451.5,131.26c.231,1.585,12.958,1.9,19.505-5.233,4.863-5.3,4.394-13.085,4.122-13.137a18.117,18.117,0,0,1-2.045,6.37c-.176.305-4.3,7.219-11.527,8.7a35.257,35.257,0,0,0-7.159,1.792C452.636,130.426,451.447,130.882,451.5,131.26Z" transform="translate(-432.011 -102.641)" fill="#ebff5d"/>
              </g>
              <g id="Grupo_175250" data-name="Grupo 175250" transform="translate(7.165 17.455)">
                <circle id="Elipse_7714" data-name="Elipse 7714" cx="10.844" cy="10.844" r="10.844" fill="#fff100"/>
                <path id="Trazado_222683" data-name="Trazado 222683" d="M454.091,131.641c-7.552,0-7.56-11.43,0-11.43S461.651,131.641,454.091,131.641Z" transform="translate(-440.844 -116.129)" fill="#ffeea7"/>
              </g>
            </g>
          </g>
        </g>
      </g>
      <g id="Grupo_175255" data-name="Grupo 175255" transform="translate(30.729 203.342)">
        <path id="Trazado_222684" data-name="Trazado 222684" d="M421.213,250c1.659-1.272.715-2.9,2.452-5.446.125-.185,2.536-3.633,5.583-3.506,2.106.088,2.8,1.812,3.827,1.372,1.537-.658.065-4.558,2.579-8.15a5.7,5.7,0,0,1,5.83-2.538c1.01-2.971,4.277-4.01,6.027-3.107,1.258.652.919,1.739,2.179,2.959,2.092,2.026,6.151-.065,7.134,6.724a14.254,14.254,0,0,1,7.585-4.888c6.575-1.232,7.6,2.543,13.991,7.986,3.862-5.02,10.906-4.06,13.832,1.332a9.4,9.4,0,0,1,7.515,9.535c6.1-1.093,9.985,6.154,5.824,10.8l-88.266.546c-5.229-3.719-4.146-10.329-1.024-12.343C418.215,250.03,419.583,251.245,421.213,250Z" transform="translate(-413.662 -228.306)" fill="#070a0b"/>
        <path id="Trazado_222685" data-name="Trazado 222685" d="M447.215,239.8c-.012.951-.811,1.038-1.136,2.307-.519,2.023,1.193,3.024.554,3.983-.825,1.238-3.847-.225-6.661,1.408-1.369.8-1.03,1.334-2.839,2.478-1.218.771-2.991,1.892-4.755,1.4a3.666,3.666,0,0,1-2.566-2.99c-.219-2.112,2.216-2.817,1.969-4.6-.287-2.072-3.724-2.247-3.949-4.135-.224-1.87,2.843-4.3,5.367-4.132,2.077.14,2.35,1.947,4.623,2.135,2.3.19,2.953-1.587,5.233-1.377C445.192,236.468,447.235,238.267,447.215,239.8Z" transform="translate(-405.989 -224.407)" fill="#745f69"/>
        <path id="Trazado_222686" data-name="Trazado 222686" d="M438,232.408c2.745-.1,5.047,2.3,2.862,5.279a4.047,4.047,0,0,1-3.354,1.627c-1.283-.15-1.1-1.284-2.822-2.052-1.591-.709-2.469-.062-3.346-.783-1.109-.91-1.01-3.01-.031-3.562.828-.467,1.95.361,2.538-.131.612-.512-.4-1.593.247-2.415C435.336,228.786,438.912,230.079,438,232.408Z" transform="translate(-404.517 -227.567)" fill="#4d3640"/>
        <path id="Trazado_222687" data-name="Trazado 222687" d="M436.654,232.55c1.826-.066,3.355,1.528,1.9,3.509a2.693,2.693,0,0,1-2.228,1.081c-.854-.1-.732-.853-1.876-1.363-1.056-.472-1.641-.042-2.223-.521a1.6,1.6,0,0,1-.02-2.368c.549-.31,1.3.241,1.685-.086.407-.341-.265-1.059.165-1.605C434.941,230.074,437.247,231.044,436.654,232.55Z" transform="translate(-403.888 -227.005)" fill="#745f69"/>
        <path id="Trazado_222688" data-name="Trazado 222688" d="M449.421,242.4c.473,1.473-1.138,2.5-.47,3.434.432.6,1.209.313,2,1.132a2.152,2.152,0,0,1-.634,3.577c-.978.443-1.533-.157-2.688.254-.982.35-.833.874-1.787,1.2a4.413,4.413,0,0,1-2.994-.267c-.819-.372-.708-.646-1.883-1.382s-1.4-.544-1.96-1.025c-1-.865-1.431-2.507-.694-3.426.683-.853,4.04-1.324,4.726-2.021.618-.631.174-1.058.726-1.872a3.554,3.554,0,0,1,3.312-1.451A2.975,2.975,0,0,1,449.421,242.4Z" transform="translate(-400.504 -221.687)" fill="#4d3640"/>
        <path id="Trazado_222689" data-name="Trazado 222689" d="M466.748,251.2c-1.03-.333-.8-1.986-1.707-2.169-.657-.133-.99.691-2.1,1.1a5.037,5.037,0,0,1-5.077-1.24c-1.016-1.147-1.42-3.165-.244-3.994a3.312,3.312,0,0,1,3.378.16c1.193.813.868,2.145,1.71,2.351.871.211,1.4-1.172,2.734-1.289,1.86-.163,4.444,2.228,3.832,3.79A2.4,2.4,0,0,1,466.748,251.2Z" transform="translate(-390.232 -219.53)" fill="#745f69"/>
        <path id="Trazado_222690" data-name="Trazado 222690" d="M429.3,246.311c.967.533,1.069,2.529.031,3.744-2.245,2.632-8.983.4-8.718-1.283.106-.674,1.378-.683,1.687-1.6.3-.9-.749-1.419-.473-2.156.429-1.147,3.65-1.65,4.347-.828.517.611-.594,1.687-.06,2.176C426.713,246.912,428.315,245.765,429.3,246.311Z" transform="translate(-409.897 -219.919)" fill="#745f69"/>
        <path id="Trazado_222691" data-name="Trazado 222691" d="M427.076,239c.845.645.219,1.42,1.1,2.478,1.139,1.368,2.837.86,3.58,2.034a2.481,2.481,0,0,1-1.072,3.367c-.782.3-1.673-.086-2.917-.618-1.749-.748-1.753-1.274-2.968-1.616-1.816-.51-2.792.4-3.591-.159-1.121-.782-.831-3.707,1.224-5.093C423.8,238.475,426.018,238.2,427.076,239Z" transform="translate(-409.922 -222.767)" fill="#4d3640"/>
        <path id="Trazado_222692" data-name="Trazado 222692" d="M457.459,235.557c.789,1.551-.81,7.071.16,8.776,1.092,1.921,3.3,1.525,4.367,3.483,2.134,3.93-3.213,6.329-6.2,4.505-1.039-.637-.719-1.38-1.781-1.914-2.125-1.065-5.4,2.231-5.8-3.616-.1-1.4.366-1.528.08-2.2-.669-1.584-3.32-1.073-4.7-2.774-1.11-1.368-.957-3.623.191-4.379,1.2-.789,2.98.393,3.878-.4s-.555-2.248.308-3.414C449.345,231.772,455.861,232.418,457.459,235.557Z" transform="translate(-397.852 -225.983)" fill="#745f69"/>
        <path id="Trazado_222693" data-name="Trazado 222693" d="M455.57,236.389c.611,1.2-.66,5.394.125,6.774.842,1.482,2.549,1.176,3.369,2.686,1.647,3.034-2.479,4.886-4.78,3.479-.8-.492-.555-1.065-1.375-1.477-1.639-.822-4.168,1.722-4.475-2.791-.072-1.078.282-1.178.063-1.7-.517-1.224-2.563-.83-3.627-2.142-.856-1.055-.739-2.8.148-3.38.927-.609,2.3.3,2.993-.308s-.429-1.735.237-2.634C449.367,233.39,454.38,234.047,455.57,236.389Z" transform="translate(-397.066 -225.173)" fill="#4d3640"/>
        <path id="Trazado_222694" data-name="Trazado 222694" d="M464.7,238.684c1.334,1.3.987,2.563,2.265,3.014,1.232.435,1.966-.592,3.836-.3,6.026.939,2.344,7.941-2.166,8.82-1.588.31-3.961.165-5.127-1.069-.947-1-.277-1.853-1.3-2.745-.979-.85-1.961-.4-3.849-1.078-.526-.188-2.94-1.056-3.542-2.729C453.489,238.934,460.176,234.279,464.7,238.684Z" transform="translate(-391.456 -223.654)" fill="#4d3640"/>
      </g>
    </g>
    <g id="Grupo_175266" data-name="Grupo 175266" transform="translate(285 12277.345)">
      <g id="Grupo_175258" data-name="Grupo 175258" transform="translate(0 73.059)">
        <g id="Grupo_175257" data-name="Grupo 175257">
          <path id="Trazado_222695" data-name="Trazado 222695" d="M123.689,259.343l-103.184-.628c-6.24-8.528,1.241-14.773,6.775-11.789a8.689,8.689,0,0,1,8.248-2.9c3.87-1.839,7.47,2.006,5.418,5.312,1.451-3.334,6.866-3.28,8.073.174,4.7,3.09,7.565.654,10.218,5.045,12.842-1.147,5.293-8.135,15.289-9.387a5.8,5.8,0,0,1,9.1-.139c-.137-2.111,1.069-4.075,4.168-5.037,4.925-1.53,6.268,1.1,7.976,1.084.772-.009.9-.3,2.354-.879,2.6-1.032,3.469-.6,4.33-1.5.774-.8.316-1.406,1.17-2a3.407,3.407,0,0,1,2.914-.31c1.049.387.995,1.113,2.183,2.231,1.315,1.237,1.975.911,2.936,1.809,2.046,1.915.893,5.121,1.691,5.253.521.086.743-1.314,2.21-1.8a4.394,4.394,0,0,1,3.347.467c.808.464.853.88,1.75,1.8C123.226,248.786,126.324,247.279,123.689,259.343Z" transform="translate(-18.143 -236.196)" fill="#070a0b"/>
          <path id="Trazado_222696" data-name="Trazado 222696" d="M70.611,243.854c.009.614.532.669.746,1.488.339,1.3-.783,1.949-.364,2.566.541.8,2.523-.145,4.368.908.9.512.675.859,1.861,1.6.8.5,1.961,1.22,3.118.9a2.376,2.376,0,0,0,1.684-1.927c.143-1.361-1.452-1.815-1.291-2.965.187-1.335,2.441-1.448,2.589-2.664s-1.864-2.772-3.52-2.663c-1.361.091-1.54,1.255-3.031,1.375-1.51.123-1.937-1.022-3.431-.887C71.937,241.708,70.6,242.869,70.611,243.854Z" transform="translate(10.289 -233.545)" fill="#745f69"/>
          <path id="Trazado_222697" data-name="Trazado 222697" d="M19.8,246.271c.008.614.532.669.745,1.488.341,1.3-.782,1.947-.362,2.566.541.8,2.523-.145,4.368.907.9.513.675.86,1.861,1.6.8.5,1.961,1.22,3.118.9a2.377,2.377,0,0,0,1.684-1.926c.142-1.363-1.454-1.816-1.292-2.965.188-1.335,2.442-1.448,2.59-2.664s-1.866-2.774-3.52-2.663c-1.363.089-1.542,1.255-3.031,1.375-1.51.122-1.937-1.022-3.432-.887C21.128,244.124,19.79,245.284,19.8,246.271Z" transform="translate(-17.244 -232.236)" fill="#4d3640"/>
          <path id="Trazado_222698" data-name="Trazado 222698" d="M74.766,239.1c-1.8-.065-3.31,1.483-1.876,3.4a2.672,2.672,0,0,0,2.2,1.048c.842-.1.723-.828,1.85-1.323,1.042-.456,1.619-.04,2.194-.5a1.536,1.536,0,0,0,.02-2.3c-.543-.3-1.28.233-1.664-.085-.4-.33.262-1.025-.162-1.556C76.453,236.7,74.182,237.642,74.766,239.1Z" transform="translate(11.215 -235.59)" fill="#4d3640"/>
          <path id="Trazado_222699" data-name="Trazado 222699" d="M30.823,246.325c-1.8-.065-3.31,1.482-1.878,3.4a2.668,2.668,0,0,0,2.2,1.048c.842-.1.722-.826,1.85-1.321,1.042-.458,1.619-.04,2.194-.506a1.536,1.536,0,0,0,.02-2.294c-.543-.3-1.28.231-1.664-.085-.4-.33.261-1.027-.162-1.556C32.51,243.919,30.239,244.868,30.823,246.325Z" transform="translate(-12.598 -231.675)" fill="#4d3640"/>
          <path id="Trazado_222700" data-name="Trazado 222700" d="M67.856,245.534c-.311.948.746,1.613.307,2.213-.284.389-.793.2-1.314.729a1.376,1.376,0,0,0,.416,2.305c.641.285,1-.1,1.762.165.644.225.546.563,1.172.774a2.927,2.927,0,0,0,1.964-.173c.537-.239.464-.415,1.234-.89s.921-.35,1.286-.66a1.716,1.716,0,0,0,.455-2.21c-.449-.549-2.651-.854-3.1-1.3-.406-.407-.114-.681-.476-1.207a2.348,2.348,0,0,0-2.171-.934A1.94,1.94,0,0,0,67.856,245.534Z" transform="translate(8.003 -231.793)" fill="#4d3640"/>
          <path id="Trazado_222701" data-name="Trazado 222701" d="M34.927,245.681c-.31.95.746,1.613.308,2.214-.284.389-.793.2-1.314.728a1.377,1.377,0,0,0,.416,2.307c.641.285,1-.1,1.762.163.645.227.546.563,1.172.776a2.932,2.932,0,0,0,1.963-.173c.537-.239.464-.415,1.235-.89s.921-.352,1.284-.661a1.711,1.711,0,0,0,.455-2.208c-.447-.549-2.651-.854-3.1-1.3-.406-.406-.116-.682-.476-1.206A2.137,2.137,0,0,0,34.927,245.681Z" transform="translate(-9.84 -231.708)" fill="#745f69"/>
          <path id="Trazado_222702" data-name="Trazado 222702" d="M57.063,247.928c-1.22-.106-2.914,1.436-2.513,2.442a1.577,1.577,0,0,0,1.654.83c.675-.214.526-1.28,1.119-1.4.43-.086.649.444,1.378.709,2.752,1,5.076-2.276,3.491-3.372a2.2,2.2,0,0,0-2.216.1c-.783.523-.569,1.382-1.121,1.514C58.285,248.895,57.935,248,57.063,247.928Z" transform="translate(1.553 -230.402)" fill="#745f69"/>
          <path id="Trazado_222703" data-name="Trazado 222703" d="M29.7,242.095c-.785-.288-2.3.433-2.28,1.173a.969.969,0,0,0,.89.847c.5-.022.671-.756,1.095-.728.307.02.319.412.737.719a2.4,2.4,0,0,0,2.412.066c1.624-.962.769-2.493-.746-2.009-.651.207-.723.816-1.124.8S30.263,242.3,29.7,242.095Z" transform="translate(-13.114 -233.034)" fill="#745f69"/>
          <path id="Trazado_222704" data-name="Trazado 222704" d="M80.067,248.052c-.634.344-.7,1.63-.02,2.413,1.42,1.634,5.907.355,5.717-.826-.071-.435-.9-.441-1.106-1.03s.49-.914.31-1.389c-.282-.739-2.395-1.064-2.851-.533-.339.393.39,1.087.04,1.4C81.768,248.439,80.716,247.7,80.067,248.052Z" transform="translate(15.141 -230.653)" fill="#745f69"/>
          <path id="Trazado_222705" data-name="Trazado 222705" d="M82,243.344c-.555.415-.143.914-.723,1.6-.746.882-1.861.555-2.348,1.311a1.587,1.587,0,0,0,.7,2.171c.513.19,1.1-.056,1.913-.4,1.146-.481,1.15-.82,1.947-1.041,1.19-.33,1.83.256,2.354-.1.734-.5.544-2.388-.8-3.281A3.034,3.034,0,0,0,82,243.344Z" transform="translate(14.69 -232.489)" fill="#4d3640"/>
          <path id="Trazado_222706" data-name="Trazado 222706" d="M44.546,247.954c-.7.036-.49.53-1.317.729-1.067.256-2.026-.422-2.791-.139a.966.966,0,0,0-.15,1.7c.982.78,3.244.452,4.313.689,1.286.287,1.684.934,2.331.922.91-.017,1.449-1.315.481-2.461A4.321,4.321,0,0,0,44.546,247.954Z" transform="translate(-6.378 -229.825)" fill="#4d3640"/>
          <path id="Trazado_222707" data-name="Trazado 222707" d="M63.95,241.126c-.52,1,.561,4.5-.1,5.656-.715,1.238-2.166.984-2.863,2.245-1.4,2.538,2.112,4.075,4.061,2.9.682-.41.472-.89,1.169-1.233,1.585-.782,3.536,1.526,3.8-2.33.062-.9-.241-.984-.054-1.417.439-1.022,2.177-.692,3.082-1.789a2.048,2.048,0,0,0-.126-2.822c-.786-.509-1.955.253-2.543-.258s.364-1.449-.2-2.2C69.221,238.619,64.962,239.173,63.95,241.126Z" transform="translate(4.897 -234.565)" fill="#745f69"/>
          <path id="Trazado_222708" data-name="Trazado 222708" d="M56.821,244.485c-.808.281-1.289-.381-2.516-.193-5.716.876,1.448,8.467,4.785,4.994.62-.644.18-1.193.854-1.769.641-.547,1.286-.256,2.523-.694,5.913-2.089-.446-7.841-4.16-4.282C57.432,243.381,57.658,244.194,56.821,244.485Z" transform="translate(0.292 -233.372)" fill="#4d3640"/>
        </g>
      </g>
      <g id="Grupo_175265" data-name="Grupo 175265" transform="translate(29.769)">
        <g id="Grupo_175259" data-name="Grupo 175259" transform="translate(9.545 58.006)">
          <path id="Trazado_222709" data-name="Trazado 222709" d="M44.651,238.955c2.006,1.853,6.419.188,8.829-1.679,7.137-5.532,1.493-10.94-2.41-10.841C46.007,226.561,41.584,236.122,44.651,238.955Z" transform="translate(-43.64 -226.433)" fill="#ff2724"/>
          <path id="Trazado_222710" data-name="Trazado 222710" d="M50.839,226.726c-4.4.221-8.217,8.829-6.522,10.283,2.268,1.946,11.407-5.935,9.526-9.12C53.113,226.655,51.037,226.717,50.839,226.726Z" transform="translate(-43.497 -226.276)" fill="#ff8063"/>
          <path id="Trazado_222711" data-name="Trazado 222711" d="M45.286,231.373a1.36,1.36,0,0,0,.5,1.274c1.235.634,5.38-4.069,4.994-4.6C50.3,227.392,45.458,229.081,45.286,231.373Z" transform="translate(-42.751 -225.636)" fill="#ffeea7"/>
          <path id="Trazado_222712" data-name="Trazado 222712" d="M44.793,238.24c.117.493,2.762.62,5.074-.19,3.54-1.24,6.817-4.859,6.234-7.757-.217-1.087-1.005-2.2-1.6-2.136-.691.079-.486,1.678-1.523,3.57-1.22,2.22-3.437,3.539-6.012,5.07C45.514,237.662,44.724,237.958,44.793,238.24Z" transform="translate(-43.018 -225.5)" fill="#d12424"/>
          <path id="Trazado_222713" data-name="Trazado 222713" d="M44.867,233.072c.282.072,1.261-1.022,1.217-1.369-.094-.725-1.139-1-1.494.162C44.438,232.361,44.586,233,44.867,233.072Z" transform="translate(-43.159 -223.917)" fill="#ffeea7"/>
        </g>
        <g id="Grupo_175260" data-name="Grupo 175260" transform="translate(31.067 44.532)">
          <path id="Trazado_222714" data-name="Trazado 222714" d="M74.21,232.553c2.152-2.743-.419-8.183-3.041-11.055-7.77-8.51-14.065-.776-13.541,4.177C58.312,232.1,70.923,236.744,74.21,232.553Z" transform="translate(-57.598 -217.695)" fill="#ff2724"/>
          <path id="Trazado_222715" data-name="Trazado 222715" d="M58.011,224.45c.732,5.569,12.07,9.543,13.746,7.238,2.24-3.084-8.718-13.9-12.577-11.177C57.687,221.564,57.977,224.2,58.011,224.45Z" transform="translate(-57.399 -216.404)" fill="#ff8063"/>
          <path id="Trazado_222716" data-name="Trazado 222716" d="M64.41,228.875a1.738,1.738,0,0,0,1.568-.763c.677-1.63-5.727-6.422-6.363-5.879C58.832,222.9,61.476,228.889,64.41,228.875Z" transform="translate(-56.581 -215.258)" fill="#ffeea7"/>
          <path id="Trazado_222717" data-name="Trazado 222717" d="M73.362,231.515c.614-.2.506-3.577-.762-6.434-1.94-4.376-6.878-8.171-10.5-7.133-1.36.39-2.7,1.5-2.552,2.254.17.868,2.183.446,4.7,1.571,2.95,1.323,4.852,4.006,7.065,7.125C72.553,230.658,73.011,231.631,73.362,231.515Z" transform="translate(-56.55 -217.651)" fill="#d12424"/>
          <path id="Trazado_222718" data-name="Trazado 222718" d="M66.461,227.477c.063-.367-1.429-1.5-1.864-1.408-.913.2-1.152,1.553.359,1.883C65.6,228.093,66.4,227.842,66.461,227.477Z" transform="translate(-54.201 -213.159)" fill="#ffeea7"/>
        </g>
        <g id="Grupo_175261" data-name="Grupo 175261" transform="translate(13.478 9.182)">
          <path id="Trazado_222719" data-name="Trazado 222719" d="M48.356,195.044c-2.459,1.192-2.519,5.909-1.661,8.832,2.546,8.665,9.64,5.383,10.974,1.715C59.4,200.831,52.112,193.223,48.356,195.044Z" transform="translate(-46.189 -194.768)" fill="#ff2724"/>
          <path id="Trazado_222720" data-name="Trazado 222720" d="M56.214,205.118c1.4-4.174-5.221-10.872-7.193-9.825-2.64,1.4,1.36,12.787,5.014,12.2C55.449,207.263,56.149,205.31,56.214,205.118Z" transform="translate(-45.12 -194.543)" fill="#ff8063"/>
          <path id="Trazado_222721" data-name="Trazado 222721" d="M51.891,197.539a1.366,1.366,0,0,0-1.368,0c-1.039.919,1.826,6.494,2.461,6.33C53.766,203.665,53.961,198.536,51.891,197.539Z" transform="translate(-43.965 -193.368)" fill="#ffeea7"/>
          <path id="Trazado_222722" data-name="Trazado 222722" d="M47.873,195.357c-.5-.069-1.585,2.345-1.676,4.792-.137,3.75,2.035,8.121,4.946,8.638,1.093.193,2.418-.133,2.573-.711.179-.671-1.386-1.064-2.768-2.721-1.622-1.946-2.04-4.49-2.526-7.447C48.149,196.238,48.162,195.4,47.873,195.357Z" transform="translate(-46.191 -194.449)" fill="#d12424"/>
          <path id="Trazado_222723" data-name="Trazado 222723" d="M49.473,196.211c-.17.236.492,1.548.83,1.633.711.176,1.345-.7.395-1.451C50.291,196.072,49.642,195.975,49.473,196.211Z" transform="translate(-44.428 -194.057)" fill="#ffeea7"/>
        </g>
        <g id="Grupo_175262" data-name="Grupo 175262" transform="translate(25.953)">
          <path id="Trazado_222724" data-name="Trazado 222724" d="M62.786,189c-2.33-.948-5.592,1.915-7.063,4.3-4.36,7.079,2.256,9.91,5.586,8.562C65.631,200.118,66.346,190.447,62.786,189Z" transform="translate(-54.282 -188.813)" fill="#ff2724"/>
          <path id="Trazado_222725" data-name="Trazado 222725" d="M60.09,200.889c3.718-1.614,4.222-10.269,2.29-10.974-2.584-.942-7.908,8.807-5.255,10.944C58.152,201.686,59.92,200.962,60.09,200.889Z" transform="translate(-53.132 -188.251)" fill="#ff8063"/>
          <path id="Trazado_222726" data-name="Trazado 222726" d="M61.682,193.375c-.117-.4-.436-.891-.84-.937-1.269-.145-3.318,5.249-2.814,5.583C58.646,198.431,62.275,195.408,61.682,193.375Z" transform="translate(-52.294 -186.851)" fill="#ffeea7"/>
          <path id="Trazado_222727" data-name="Trazado 222727" d="M62.032,189.008c-.262-.387-2.581.359-4.311,1.806-2.651,2.216-4.3,6.394-2.862,8.7.541.867,1.58,1.573,2.071,1.323.569-.291-.125-1.6.157-3.569.332-2.308,1.815-4.162,3.539-6.317C61.6,189.738,62.182,189.228,62.032,189.008Z" transform="translate(-54.258 -188.763)" fill="#d12424"/>
          <path id="Trazado_222728" data-name="Trazado 222728" d="M60.336,190.961c-.267.029-.756,1.291-.6,1.574.316.594,1.3.489,1.234-.623C60.936,191.436,60.6,190.932,60.336,190.961Z" transform="translate(-51.344 -187.65)" fill="#ffeea7"/>
        </g>
        <g id="Grupo_175263" data-name="Grupo 175263" transform="translate(0 36.627)">
          <path id="Trazado_222729" data-name="Trazado 222729" d="M47.876,226.481c2.331-1.425,1.934-6.124.8-8.952-3.377-8.377-10.118-4.421-11.089-.64C36.325,221.793,44.315,228.658,47.876,226.481Z" transform="translate(-37.45 -212.568)" fill="#ff2724"/>
          <path id="Trazado_222730" data-name="Trazado 222730" d="M37.833,216.428c-.988,4.291,6.251,10.315,8.113,9.08,2.49-1.651-2.6-12.593-6.175-11.652C38.385,214.22,37.878,216.234,37.833,216.428Z" transform="translate(-37.292 -211.901)" fill="#ff8063"/>
          <path id="Trazado_222731" data-name="Trazado 222731" d="M40.979,221.617a1.363,1.363,0,0,0,1.361-.13c.945-1.015-2.447-6.285-3.064-6.061C38.519,215.7,38.822,220.826,40.979,221.617Z" transform="translate(-36.663 -211.023)" fill="#ffeea7"/>
          <path id="Trazado_222732" data-name="Trazado 222732" d="M46.964,225.743c.507.02,1.351-2.49,1.2-4.934-.227-3.745-2.814-7.885-5.762-8.115-1.106-.086-2.393.365-2.49.956-.114.685,1.482.925,3.018,2.439,1.8,1.779,2.467,4.271,3.238,7.168C46.6,224.892,46.674,225.731,46.964,225.743Z" transform="translate(-36.117 -212.506)" fill="#d12424"/>
          <path id="Trazado_222733" data-name="Trazado 222733" d="M42.867,221.105c.145-.253-.64-1.493-.985-1.543-.723-.108-1.271.823-.251,1.48C42.066,221.323,42.721,221.357,42.867,221.105Z" transform="translate(-35.488 -208.782)" fill="#ffeea7"/>
        </g>
        <g id="Grupo_175264" data-name="Grupo 175264" transform="translate(17.688 27.252)">
          <path id="Trazado_222734" data-name="Trazado 222734" d="M64.022,212.106c.025-2.732-4.174-4.882-7.176-5.411-8.894-1.571-9.1,6.245-6.411,9.068C53.93,219.429,63.984,216.282,64.022,212.106Z" transform="translate(-48.921 -206.487)" fill="#ff2724"/>
          <path id="Trazado_222735" data-name="Trazado 222735" d="M50.591,214.132c3.119,3.108,12.061.154,12-2.078-.082-2.987-12.059-4.462-13.154-.927C49.009,212.495,50.449,213.99,50.591,214.132Z" transform="translate(-48.686 -205.092)" fill="#ff8063"/>
          <path id="Trazado_222736" data-name="Trazado 222736" d="M56.956,213.158a1.358,1.358,0,0,0,.609-1.223c-.361-1.34-6.627-1.25-6.763-.609C50.635,212.116,55.142,214.571,56.956,213.158Z" transform="translate(-47.905 -204.11)" fill="#ffeea7"/>
          <path id="Trazado_222737" data-name="Trazado 222737" d="M63.48,211.393c.285-.418-1.4-2.462-3.549-3.631-3.3-1.789-8.18-1.785-9.936.594-.658.893-.956,2.225-.506,2.621.52.458,1.568-.768,3.667-1.271,2.464-.589,4.929.168,7.794,1.047C62.567,211.248,63.316,211.633,63.48,211.393Z" transform="translate(-48.731 -206.488)" fill="#d12424"/>
          <path id="Trazado_222738" data-name="Trazado 222738" d="M57.5,211.33c-.137-.258-1.605-.248-1.832.018-.473.557.028,1.513,1.124,1C57.261,212.124,57.636,211.586,57.5,211.33Z" transform="translate(-45.362 -203.965)" fill="#ffeea7"/>
        </g>
      </g>
    </g>
  </g>
</svg>
