<svg xmlns="http://www.w3.org/2000/svg" width="618.109" height="420.336" viewBox="0 0 618.109 420.336">
  <g id="Grupo_953512" data-name="Grupo 953512" transform="translate(9033 7541.163)">
    <rect id="Rectángulo_341473" data-name="Rectángulo 341473" width="134.436" height="72" rx="36" transform="translate(-8791 -7541.163)" fill="#0b481e"/>
    <path id="Trazado_693204" data-name="Trazado 693204" d="M-24.087-5.029h-1.855V0H-29.37V-14.219h5.6A6.246,6.246,0,0,1-19.819-13.1a3.8,3.8,0,0,1,1.426,3.17,4.616,4.616,0,0,1-.6,2.458,4.263,4.263,0,0,1-1.88,1.58l2.969,5.741V0h-3.672Zm-1.855-2.637h2.168A1.946,1.946,0,0,0-22.3-8.18a1.987,1.987,0,0,0,.493-1.434,2.01,2.01,0,0,0-.5-1.444,1.928,1.928,0,0,0-1.465-.524h-2.168ZM-10.522,0a3.716,3.716,0,0,1-.312-.947A3.06,3.06,0,0,1-13.374.2a3.749,3.749,0,0,1-2.539-.9,2.875,2.875,0,0,1-1.045-2.271,2.955,2.955,0,0,1,1.27-2.6A6.468,6.468,0,0,1-12-6.455h1.016v-.559q0-1.462-1.26-1.462a1.03,1.03,0,0,0-1.172,1.158H-16.7a2.95,2.95,0,0,1,1.3-2.487,5.479,5.479,0,0,1,3.325-.956,4.8,4.8,0,0,1,3.193.986,3.429,3.429,0,0,1,1.2,2.705v4.678A4.79,4.79,0,0,0-7.231-.166V0Zm-2.061-2.148a1.836,1.836,0,0,0,1.021-.264,1.653,1.653,0,0,0,.581-.6V-4.7h-.957q-1.719,0-1.719,1.543a.942.942,0,0,0,.3.728A1.1,1.1,0,0,0-12.583-2.148ZM-2.271,0H-5.581V-10.566h3.311ZM-3.5-14.8H-.024l-2.715,3.066-2.686,0ZM4.312-2.344A1.464,1.464,0,0,0,5.386-2.72a1.379,1.379,0,0,0,.371-1.05H8.843A3.653,3.653,0,0,1,7.6-.918,4.631,4.631,0,0,1,4.39.2,4.689,4.689,0,0,1,.757-1.25a5.7,5.7,0,0,1-1.328-4v-.137A6.436,6.436,0,0,1,.02-8.218a4.3,4.3,0,0,1,1.7-1.885,5.081,5.081,0,0,1,2.637-.659A4.573,4.573,0,0,1,7.632-9.619a4.053,4.053,0,0,1,1.211,3.1H5.757a1.807,1.807,0,0,0-.4-1.26,1.382,1.382,0,0,0-1.074-.439Q3-8.223,2.788-6.592A11.508,11.508,0,0,0,2.72-5.166,4.52,4.52,0,0,0,3.1-2.959,1.319,1.319,0,0,0,4.312-2.344ZM15.347.2a5.432,5.432,0,0,1-3.936-1.45,5.008,5.008,0,0,1-1.5-3.774V-5.3a6.489,6.489,0,0,1,.6-2.861,4.395,4.395,0,0,1,1.753-1.919A5.292,5.292,0,0,1,15-10.762,4.574,4.574,0,0,1,18.511-9.38,5.43,5.43,0,0,1,19.8-5.527v1.279H13.257a2.372,2.372,0,0,0,.771,1.4,2.3,2.3,0,0,0,1.543.508,2.958,2.958,0,0,0,2.441-1.094l1.5,1.777A4.2,4.2,0,0,1,17.773-.308,5.891,5.891,0,0,1,15.347.2Zm-.371-8.418q-1.445,0-1.719,1.914h3.32v-.254a1.63,1.63,0,0,0-.4-1.226A1.593,1.593,0,0,0,14.976-8.223Zm11.68,5.254a.76.76,0,0,0-.439-.674,6.685,6.685,0,0,0-1.67-.527,7.615,7.615,0,0,1-2.031-.718,3.4,3.4,0,0,1-1.221-1.079,2.577,2.577,0,0,1-.42-1.455,2.92,2.92,0,0,1,1.2-2.4,4.948,4.948,0,0,1,3.145-.942,5.482,5.482,0,0,1,3.359.947,2.962,2.962,0,0,1,1.27,2.49h-3.3q0-1.27-1.338-1.27a1.326,1.326,0,0,0-.869.288.892.892,0,0,0-.352.718.819.819,0,0,0,.43.713,4.06,4.06,0,0,0,1.372.449,11.857,11.857,0,0,1,1.655.42,3.007,3.007,0,0,1,2.383,2.939A2.767,2.767,0,0,1,28.545-.713,5.631,5.631,0,0,1,25.22.2,5.747,5.747,0,0,1,22.8-.293a4.05,4.05,0,0,1-1.66-1.328,3.007,3.007,0,0,1-.6-1.768h3.076a1.272,1.272,0,0,0,.488,1.069,2.009,2.009,0,0,0,1.2.337,1.58,1.58,0,0,0,1.011-.273A.875.875,0,0,0,26.655-2.969Z" transform="translate(-8724 -7498.163)" fill="#fff"/>
    <g id="Grupo_169683" data-name="Grupo 169683" transform="translate(-9523.615 -8236.663)">
      <line id="Línea_154" data-name="Línea 154" y2="25.667" transform="translate(799.833 767.5)" fill="none" stroke="#0b481e" stroke-width="3"/>
    </g>
    <g id="Grupo_169684" data-name="Grupo 169684" transform="translate(-9302.417 -8210.995)">
      <line id="Línea_154-2" data-name="Línea 154" y2="25.667" transform="translate(799.833 767.5)" fill="none" stroke="#0b481e" stroke-width="3"/>
    </g>
    <g id="Grupo_169686" data-name="Grupo 169686" transform="translate(-9638.833 -8210.995)">
      <line id="Línea_154-3" data-name="Línea 154" y2="25.667" transform="translate(799.833 767.5)" fill="none" stroke="#0b481e" stroke-width="3"/>
    </g>
    <g id="Grupo_169687" data-name="Grupo 169687" transform="translate(-9778.833 -8210.995)">
      <line id="Línea_154-4" data-name="Línea 154" y2="25.667" transform="translate(799.833 767.5)" fill="none" stroke="#0b481e" stroke-width="3"/>
    </g>
    <g id="Grupo_169688" data-name="Grupo 169688" transform="translate(-7735.084 -8243.328) rotate(90)">
      <line id="Línea_154-5" data-name="Línea 154" y2="476.945" transform="translate(799.833 767.5)" fill="none" stroke="#0b481e" stroke-width="3"/>
    </g>
    <g id="Grupo_169685" data-name="Grupo 169685" transform="translate(-9482 -8210.995)">
      <line id="Línea_154-6" data-name="Línea 154" y2="25.667" transform="translate(799.833 767.5)" fill="none" stroke="#0b481e" stroke-width="3"/>
    </g>
    <g id="Grupo_953482" data-name="Grupo 953482" transform="translate(424.109)">
      <g id="Grupo_169701" data-name="Grupo 169701" transform="translate(-9726.417 -8112.174)">
        <line id="Línea_154-7" data-name="Línea 154" y2="204.027" transform="translate(799.833 767.5)" fill="none" stroke="#f2aa8c" stroke-width="3"/>
      </g>
      <g id="Grupo_953479" data-name="Grupo 953479" transform="translate(-9905.168 -8139.021)">
        <line id="Línea_154-8" data-name="Línea 154" y2="204.027" transform="translate(799.833 767.5)" fill="none" stroke="#f2aa8c" stroke-width="3"/>
      </g>
      <g id="Grupo_953480" data-name="Grupo 953480" transform="translate(-10062.833 -8139.021)">
        <line id="Línea_154-9" data-name="Línea 154" y2="161.027" transform="translate(799.833 767.5)" fill="none" stroke="#f2aa8c" stroke-width="3"/>
      </g>
      <g id="Grupo_953481" data-name="Grupo 953481" transform="translate(-10202.833 -8139.021)">
        <line id="Línea_154-10" data-name="Línea 154" y2="161.027" transform="translate(799.833 767.5)" fill="none" stroke="#f2aa8c" stroke-width="3"/>
      </g>
      <rect id="Rectángulo_341474" data-name="Rectángulo 341474" width="175" height="77" rx="36" transform="translate(-9014 -7417.828)" fill="#ffa686"/>
      <rect id="Rectángulo_341475" data-name="Rectángulo 341475" width="152.564" height="50" rx="25" transform="translate(-9182.117 -7417.828)" fill="#ffa686"/>
      <rect id="Rectángulo_341476" data-name="Rectángulo 341476" width="141" height="50" rx="25" transform="translate(-9334 -7417.828)" fill="#ffa686"/>
      <rect id="Rectángulo_341477" data-name="Rectángulo 341477" width="107.219" height="50" rx="25" transform="translate(-9457.109 -7417.828)" fill="#ffa686"/>
      <rect id="Rectángulo_341478" data-name="Rectángulo 341478" width="107.219" height="50" rx="25" transform="translate(-9457.109 -7322.161)" fill="#01f6ff"/>
      <rect id="Rectángulo_341481" data-name="Rectángulo 341481" width="141" height="50" rx="25" transform="translate(-9334 -7322.161)" fill="#01f6ff"/>
      <rect id="Rectángulo_341483" data-name="Rectángulo 341483" width="152.564" height="50" rx="25" transform="translate(-9182.117 -7322.161)" fill="#01f6ff"/>
      <rect id="Rectángulo_341487" data-name="Rectángulo 341487" width="175" height="50" rx="25" transform="translate(-9014 -7322.161)" fill="#01f6ff"/>
      <rect id="Rectángulo_341479" data-name="Rectángulo 341479" width="107.219" height="50" rx="25" transform="translate(-9457.109 -7246.494)" fill="#01f6ff"/>
      <rect id="Rectángulo_341480" data-name="Rectángulo 341480" width="141" height="50" rx="25" transform="translate(-9334 -7246.494)" fill="#01f6ff"/>
      <rect id="Rectángulo_341482" data-name="Rectángulo 341482" width="152.564" height="50" rx="25" transform="translate(-9182.117 -7246.494)" fill="#01f6ff"/>
      <rect id="Rectángulo_341486" data-name="Rectángulo 341486" width="175" height="50" rx="25" transform="translate(-9014 -7246.494)" fill="#01f6ff"/>
      <rect id="Rectángulo_341484" data-name="Rectángulo 341484" width="152.564" height="50" rx="25" transform="translate(-9182.117 -7170.827)" fill="#01f6ff"/>
      <rect id="Rectángulo_341485" data-name="Rectángulo 341485" width="175" height="50" rx="25" transform="translate(-9014 -7170.827)" fill="#01f6ff"/>
      <path id="Trazado_693193" data-name="Trazado 693193" d="M-41.422-2.109h4.773V0h-7.516V-11.375h2.742Zm10.734,1.2A2.714,2.714,0,0,1-32.945.156a2.662,2.662,0,0,1-2.105-.809,3.4,3.4,0,0,1-.715-2.324V-8.453h2.633v5.492a.946.946,0,0,0,1.055,1.086,1.376,1.376,0,0,0,1.289-.648v-5.93h2.648V0h-2.469Zm3.68-3.375a5.708,5.708,0,0,1,.422-2.266,3.4,3.4,0,0,1,1.211-1.52,3.192,3.192,0,0,1,1.836-.535,2.538,2.538,0,0,1,2.063.891l.094-.734h2.391V-.32a3.564,3.564,0,0,1-.52,1.941,3.334,3.334,0,0,1-1.5,1.266,5.528,5.528,0,0,1-2.281.441,4.769,4.769,0,0,1-1.8-.352,3.251,3.251,0,0,1-1.332-.914l1.1-1.547a2.414,2.414,0,0,0,1.938.867,1.568,1.568,0,0,0,1.75-1.8V-.68a2.472,2.472,0,0,1-1.914.836,3.055,3.055,0,0,1-2.5-1.184A4.9,4.9,0,0,1-27.008-4.2Zm2.641.164a3.007,3.007,0,0,0,.391,1.645,1.232,1.232,0,0,0,1.094.605,1.4,1.4,0,0,0,1.242-.57V-6a1.363,1.363,0,0,0-1.227-.578,1.241,1.241,0,0,0-1.1.629A3.429,3.429,0,0,0-24.367-4.125ZM-12.734,0a2.973,2.973,0,0,1-.25-.758,2.448,2.448,0,0,1-2.031.914,3,3,0,0,1-2.031-.723,2.3,2.3,0,0,1-.836-1.816,2.364,2.364,0,0,1,1.016-2.078,5.174,5.174,0,0,1,2.953-.7h.813v-.448q0-1.17-1.008-1.17a.824.824,0,0,0-.937.926H-17.68a2.36,2.36,0,0,1,1.043-1.99,4.383,4.383,0,0,1,2.66-.765,3.843,3.843,0,0,1,2.555.789,2.743,2.743,0,0,1,.961,2.164v3.742A3.832,3.832,0,0,0-10.1-.133V0Zm-1.648-1.719a1.469,1.469,0,0,0,.816-.211,1.322,1.322,0,0,0,.465-.477V-3.758h-.766q-1.375,0-1.375,1.234A.754.754,0,0,0-15-1.941.876.876,0,0,0-14.383-1.719ZM-3.891-6.07l-.867-.062a1.558,1.558,0,0,0-1.594.781V0H-8.984V-8.453h2.469l.086,1.086A2.039,2.039,0,0,1-4.578-8.609a2.567,2.567,0,0,1,.734.094Zm4.6,1.781a5.164,5.164,0,0,1,.867-3.164A2.854,2.854,0,0,1,4-8.609a2.428,2.428,0,0,1,1.906.891V-12H8.547V0H6.18L6.047-.906A2.493,2.493,0,0,1,3.984.156,2.849,2.849,0,0,1,1.594-1,5.327,5.327,0,0,1,.711-4.289Zm2.633.164q0,2.25,1.313,2.25a1.3,1.3,0,0,0,1.25-.734V-5.828a1.261,1.261,0,0,0-1.234-.75q-1.219,0-1.32,1.969ZM9.711-4.3A4.989,4.989,0,0,1,10.2-6.559a3.52,3.52,0,0,1,1.414-1.52,4.259,4.259,0,0,1,2.164-.531,3.887,3.887,0,0,1,2.992,1.176,4.512,4.512,0,0,1,1.094,3.2v.094A4.378,4.378,0,0,1,16.77-1,3.9,3.9,0,0,1,13.8.156,3.942,3.942,0,0,1,10.9-.926a4.232,4.232,0,0,1-1.18-2.934Zm2.633.164a3.145,3.145,0,0,0,.367,1.719,1.223,1.223,0,0,0,1.086.547q1.406,0,1.438-2.164V-4.3q0-2.273-1.453-2.273-1.32,0-1.43,1.961Zm9.1-4.312.086.992a2.867,2.867,0,0,1,2.414-1.148,2.412,2.412,0,0,1,1.973.789,3.757,3.757,0,0,1,.676,2.375V0H23.953V-5.336a1.426,1.426,0,0,0-.258-.941,1.193,1.193,0,0,0-.937-.3,1.256,1.256,0,0,0-1.148.609V0H18.977V-8.453Zm6.273,4.164a5.164,5.164,0,0,1,.867-3.164,2.854,2.854,0,0,1,2.422-1.156,2.428,2.428,0,0,1,1.906.891V-12h2.641V0H33.188l-.133-.906A2.493,2.493,0,0,1,30.992.156,2.849,2.849,0,0,1,28.6-1,5.327,5.327,0,0,1,27.719-4.289Zm2.633.164q0,2.25,1.313,2.25a1.3,1.3,0,0,0,1.25-.734V-5.828a1.261,1.261,0,0,0-1.234-.75q-1.219,0-1.32,1.969ZM41.141.156A4.345,4.345,0,0,1,37.992-1a4.006,4.006,0,0,1-1.2-3.02v-.219a5.191,5.191,0,0,1,.48-2.289,3.516,3.516,0,0,1,1.4-1.535,4.233,4.233,0,0,1,2.188-.543A3.659,3.659,0,0,1,43.672-7.5,4.344,4.344,0,0,1,44.7-4.422V-3.4H39.469a1.9,1.9,0,0,0,.617,1.117,1.836,1.836,0,0,0,1.234.406,2.366,2.366,0,0,0,1.953-.875l1.2,1.422A3.363,3.363,0,0,1,43.082-.246,4.713,4.713,0,0,1,41.141.156Zm-.3-6.734q-1.156,0-1.375,1.531h2.656v-.2a1.3,1.3,0,0,0-.32-.98A1.275,1.275,0,0,0,40.844-6.578Zm-86.895,28.2a.608.608,0,0,0-.352-.539,5.348,5.348,0,0,0-1.336-.422,6.092,6.092,0,0,1-1.625-.574,2.722,2.722,0,0,1-.977-.863,2.061,2.061,0,0,1-.336-1.164,2.336,2.336,0,0,1,.961-1.918,3.958,3.958,0,0,1,2.516-.754,4.386,4.386,0,0,1,2.688.758A2.37,2.37,0,0,1-43.5,18.141h-2.641q0-1.016-1.07-1.016a1.061,1.061,0,0,0-.7.23.714.714,0,0,0-.281.574.655.655,0,0,0,.344.57,3.248,3.248,0,0,0,1.1.359,9.485,9.485,0,0,1,1.324.336,2.406,2.406,0,0,1,1.906,2.352,2.214,2.214,0,0,1-1.027,1.883,4.505,4.505,0,0,1-2.66.727,4.6,4.6,0,0,1-1.937-.391A3.24,3.24,0,0,1-50.465,22.7a2.406,2.406,0,0,1-.477-1.414h2.461a1.017,1.017,0,0,0,.391.855,1.607,1.607,0,0,0,.961.27,1.264,1.264,0,0,0,.809-.219A.7.7,0,0,0-46.051,21.625Zm7.859,2.531A4.345,4.345,0,0,1-41.34,23a4.006,4.006,0,0,1-1.2-3.02v-.219a5.191,5.191,0,0,1,.48-2.289,3.516,3.516,0,0,1,1.4-1.535,4.233,4.233,0,0,1,2.188-.543A3.659,3.659,0,0,1-35.66,16.5a4.344,4.344,0,0,1,1.031,3.082V20.6h-5.234a1.9,1.9,0,0,0,.617,1.117,1.836,1.836,0,0,0,1.234.406,2.366,2.366,0,0,0,1.953-.875l1.2,1.422a3.363,3.363,0,0,1-1.395,1.082A4.713,4.713,0,0,1-38.191,24.156Zm-.3-6.734q-1.156,0-1.375,1.531h2.656v-.2a1.3,1.3,0,0,0-.32-.98A1.275,1.275,0,0,0-38.488,17.422Zm8.57,2.289a5.164,5.164,0,0,1,.867-3.164,2.854,2.854,0,0,1,2.422-1.156,2.428,2.428,0,0,1,1.906.891V12h2.641V24h-2.367l-.133-.906a2.493,2.493,0,0,1-2.062,1.063A2.849,2.849,0,0,1-29.035,23,5.327,5.327,0,0,1-29.918,19.711Zm2.633.164q0,2.25,1.313,2.25a1.3,1.3,0,0,0,1.25-.734V18.172a1.261,1.261,0,0,0-1.234-.75q-1.219,0-1.32,1.969ZM-16.5,24.156A4.345,4.345,0,0,1-19.645,23a4.006,4.006,0,0,1-1.2-3.02v-.219a5.191,5.191,0,0,1,.48-2.289,3.516,3.516,0,0,1,1.4-1.535,4.233,4.233,0,0,1,2.188-.543A3.659,3.659,0,0,1-13.965,16.5a4.344,4.344,0,0,1,1.031,3.082V20.6h-5.234a1.9,1.9,0,0,0,.617,1.117,1.836,1.836,0,0,0,1.234.406,2.366,2.366,0,0,0,1.953-.875l1.2,1.422a3.363,3.363,0,0,1-1.395,1.082A4.713,4.713,0,0,1-16.5,24.156Zm-.3-6.734q-1.156,0-1.375,1.531h2.656v-.2a1.3,1.3,0,0,0-.32-.98A1.275,1.275,0,0,0-16.793,17.422Zm9.344,4.2a.608.608,0,0,0-.352-.539,5.348,5.348,0,0,0-1.336-.422,6.092,6.092,0,0,1-1.625-.574,2.722,2.722,0,0,1-.977-.863,2.061,2.061,0,0,1-.336-1.164,2.336,2.336,0,0,1,.961-1.918A3.958,3.958,0,0,1-8.6,15.391a4.386,4.386,0,0,1,2.688.758,2.37,2.37,0,0,1,1.016,1.992H-7.535q0-1.016-1.07-1.016a1.061,1.061,0,0,0-.7.23.714.714,0,0,0-.281.574.655.655,0,0,0,.344.57,3.248,3.248,0,0,0,1.1.359,9.485,9.485,0,0,1,1.324.336A2.406,2.406,0,0,1-4.91,21.547,2.214,2.214,0,0,1-5.937,23.43a4.505,4.505,0,0,1-2.66.727,4.6,4.6,0,0,1-1.937-.391A3.24,3.24,0,0,1-11.863,22.7a2.406,2.406,0,0,1-.477-1.414h2.461a1.017,1.017,0,0,0,.391.855,1.607,1.607,0,0,0,.961.27,1.264,1.264,0,0,0,.809-.219A.7.7,0,0,0-7.449,21.625ZM1.082,24a2.973,2.973,0,0,1-.25-.758,2.448,2.448,0,0,1-2.031.914,3,3,0,0,1-2.031-.723,2.3,2.3,0,0,1-.836-1.816,2.364,2.364,0,0,1,1.016-2.078,5.174,5.174,0,0,1,2.953-.7H.715v-.448q0-1.17-1.008-1.17a.824.824,0,0,0-.937.926H-3.863a2.36,2.36,0,0,1,1.043-1.99,4.383,4.383,0,0,1,2.66-.765,3.843,3.843,0,0,1,2.555.789,2.743,2.743,0,0,1,.961,2.164v3.742a3.832,3.832,0,0,0,.359,1.781V24ZM-.566,22.281A1.469,1.469,0,0,0,.25,22.07a1.322,1.322,0,0,0,.465-.477V20.242H-.051q-1.375,0-1.375,1.234a.754.754,0,0,0,.242.582A.876.876,0,0,0-.566,22.281ZM9.926,17.93l-.867-.062a1.558,1.558,0,0,0-1.594.781V24H4.832V15.547H7.3l.086,1.086a2.039,2.039,0,0,1,1.852-1.242,2.567,2.567,0,0,1,.734.094Zm6.063,0-.867-.062a1.558,1.558,0,0,0-1.594.781V24H10.895V15.547h2.469l.086,1.086A2.039,2.039,0,0,1,15.3,15.391a2.567,2.567,0,0,1,.734.094Zm.336,1.766a4.989,4.989,0,0,1,.492-2.254,3.52,3.52,0,0,1,1.414-1.52,4.259,4.259,0,0,1,2.164-.531,3.887,3.887,0,0,1,2.992,1.176,4.512,4.512,0,0,1,1.094,3.2v.094A4.378,4.378,0,0,1,23.383,23a3.9,3.9,0,0,1-2.973,1.16,3.942,3.942,0,0,1-2.9-1.082,4.232,4.232,0,0,1-1.18-2.934Zm2.633.164a3.145,3.145,0,0,0,.367,1.719,1.223,1.223,0,0,0,1.086.547q1.406,0,1.438-2.164V19.7q0-2.273-1.453-2.273-1.32,0-1.43,1.961ZM28.418,24H25.777V12h2.641Zm4.4,0H30.176V12h2.641ZM39.2,24a2.973,2.973,0,0,1-.25-.758,2.448,2.448,0,0,1-2.031.914,3,3,0,0,1-2.031-.723,2.3,2.3,0,0,1-.836-1.816,2.364,2.364,0,0,1,1.016-2.078,5.174,5.174,0,0,1,2.953-.7h.813v-.448q0-1.17-1.008-1.17a.824.824,0,0,0-.937.926H34.254a2.36,2.36,0,0,1,1.043-1.99,4.383,4.383,0,0,1,2.66-.765,3.843,3.843,0,0,1,2.555.789,2.743,2.743,0,0,1,.961,2.164v3.742a3.832,3.832,0,0,0,.359,1.781V24Zm-1.648-1.719a1.469,1.469,0,0,0,.816-.211,1.322,1.322,0,0,0,.465-.477V20.242h-.766q-1.375,0-1.375,1.234a.754.754,0,0,0,.242.582A.876.876,0,0,0,37.551,22.281Zm7.8-6.734.086.992a2.867,2.867,0,0,1,2.414-1.148,2.412,2.412,0,0,1,1.973.789,3.757,3.757,0,0,1,.676,2.375V24H47.855V18.664a1.426,1.426,0,0,0-.258-.941,1.193,1.193,0,0,0-.937-.3,1.256,1.256,0,0,0-1.148.609V24H42.879V15.547Z" transform="translate(-8926 -7385.828)" fill="#12263f"/>
      <path id="Trazado_693192" data-name="Trazado 693192" d="M-36.8-3.852a4.154,4.154,0,0,1-.641,2.1,3.866,3.866,0,0,1-1.645,1.41,5.6,5.6,0,0,1-2.418.5A4.467,4.467,0,0,1-45.035-1.3,6.032,6.032,0,0,1-46.324-5.43v-.562a6.885,6.885,0,0,1,.582-2.926,4.41,4.41,0,0,1,1.676-1.937,4.676,4.676,0,0,1,2.531-.684,4.9,4.9,0,0,1,3.328,1.09,4.306,4.306,0,0,1,1.43,3h-2.734a2.037,2.037,0,0,0-.523-1.492,2.153,2.153,0,0,0-1.5-.453,1.638,1.638,0,0,0-1.5.766,4.921,4.921,0,0,0-.5,2.445v.8a5.445,5.445,0,0,0,.457,2.6,1.672,1.672,0,0,0,1.574.781,2.106,2.106,0,0,0,1.445-.445,1.89,1.89,0,0,0,.531-1.414Zm.844-.453a4.989,4.989,0,0,1,.492-2.254,3.52,3.52,0,0,1,1.414-1.52,4.259,4.259,0,0,1,2.164-.531,3.887,3.887,0,0,1,2.992,1.176,4.512,4.512,0,0,1,1.094,3.2v.094A4.378,4.378,0,0,1-28.9-1,3.9,3.9,0,0,1-31.871.156a3.942,3.942,0,0,1-2.9-1.082,4.232,4.232,0,0,1-1.18-2.934Zm2.633.164a3.145,3.145,0,0,0,.367,1.719,1.223,1.223,0,0,0,1.086.547q1.406,0,1.438-2.164V-4.3q0-2.273-1.453-2.273-1.32,0-1.43,1.961Zm9.1-4.312.086.992a2.867,2.867,0,0,1,2.414-1.148,2.412,2.412,0,0,1,1.973.789,3.757,3.757,0,0,1,.676,2.375V0h-2.641V-5.336a1.426,1.426,0,0,0-.258-.941,1.193,1.193,0,0,0-.937-.3,1.256,1.256,0,0,0-1.148.609V0h-2.633V-8.453Zm11.031,6.078a.608.608,0,0,0-.352-.539,5.348,5.348,0,0,0-1.336-.422A6.092,6.092,0,0,1-16.5-3.91a2.722,2.722,0,0,1-.977-.863,2.061,2.061,0,0,1-.336-1.164,2.336,2.336,0,0,1,.961-1.918,3.958,3.958,0,0,1,2.516-.754,4.386,4.386,0,0,1,2.688.758,2.37,2.37,0,0,1,1.016,1.992h-2.641q0-1.016-1.07-1.016a1.061,1.061,0,0,0-.7.23.714.714,0,0,0-.281.574.655.655,0,0,0,.344.57,3.248,3.248,0,0,0,1.1.359,9.485,9.485,0,0,1,1.324.336,2.406,2.406,0,0,1,1.906,2.352A2.214,2.214,0,0,1-11.68-.57a4.505,4.505,0,0,1-2.66.727,4.6,4.6,0,0,1-1.937-.391A3.24,3.24,0,0,1-17.605-1.3a2.406,2.406,0,0,1-.477-1.414h2.461a1.017,1.017,0,0,0,.391.855,1.607,1.607,0,0,0,.961.27,1.264,1.264,0,0,0,.809-.219A.7.7,0,0,0-13.191-2.375ZM-6.645,0H-9.285V-8.453h2.641Zm-2.8-10.633a1.175,1.175,0,0,1,.406-.922,1.533,1.533,0,0,1,1.055-.359,1.533,1.533,0,0,1,1.055.359,1.175,1.175,0,0,1,.406.922,1.175,1.175,0,0,1-.406.922,1.533,1.533,0,0,1-1.055.359,1.533,1.533,0,0,1-1.055-.359A1.175,1.175,0,0,1-9.441-10.633ZM-.6-2.375a.608.608,0,0,0-.352-.539,5.348,5.348,0,0,0-1.336-.422A6.092,6.092,0,0,1-3.91-3.91a2.722,2.722,0,0,1-.977-.863,2.061,2.061,0,0,1-.336-1.164,2.336,2.336,0,0,1,.961-1.918,3.958,3.958,0,0,1,2.516-.754,4.386,4.386,0,0,1,2.688.758A2.37,2.37,0,0,1,1.957-5.859H-.684q0-1.016-1.07-1.016a1.061,1.061,0,0,0-.7.23.714.714,0,0,0-.281.574.655.655,0,0,0,.344.57,3.248,3.248,0,0,0,1.1.359A9.485,9.485,0,0,1,.035-4.8,2.406,2.406,0,0,1,1.941-2.453,2.214,2.214,0,0,1,.914-.57a4.505,4.505,0,0,1-2.66.727A4.6,4.6,0,0,1-3.684-.234,3.24,3.24,0,0,1-5.012-1.3a2.406,2.406,0,0,1-.477-1.414h2.461a1.017,1.017,0,0,0,.391.855,1.607,1.607,0,0,0,.961.27A1.264,1.264,0,0,0-.867-1.8.7.7,0,0,0-.6-2.375Zm6.836-8.18v2.1H7.629v1.828H6.238v3.867a.987.987,0,0,0,.172.664.922.922,0,0,0,.68.188,3.862,3.862,0,0,0,.656-.047V-.07A4.859,4.859,0,0,1,6.262.156,2.758,2.758,0,0,1,4.254-.484,2.626,2.626,0,0,1,3.605-2.43v-4.2H2.527V-8.453H3.605v-2.1ZM12.754.156A4.345,4.345,0,0,1,9.605-1a4.006,4.006,0,0,1-1.2-3.02v-.219a5.191,5.191,0,0,1,.48-2.289,3.516,3.516,0,0,1,1.4-1.535,4.233,4.233,0,0,1,2.188-.543A3.659,3.659,0,0,1,15.285-7.5a4.344,4.344,0,0,1,1.031,3.082V-3.4H11.082A1.9,1.9,0,0,0,11.7-2.281a1.836,1.836,0,0,0,1.234.406,2.366,2.366,0,0,0,1.953-.875l1.2,1.422A3.363,3.363,0,0,1,14.7-.246,4.713,4.713,0,0,1,12.754.156Zm-.3-6.734q-1.156,0-1.375,1.531h2.656v-.2a1.3,1.3,0,0,0-.32-.98A1.275,1.275,0,0,0,12.457-6.578Zm7.336-1.875.086.992a2.867,2.867,0,0,1,2.414-1.148,2.412,2.412,0,0,1,1.973.789,3.757,3.757,0,0,1,.676,2.375V0H22.3V-5.336a1.426,1.426,0,0,0-.258-.941,1.193,1.193,0,0,0-.937-.3,1.256,1.256,0,0,0-1.148.609V0H17.324V-8.453Zm10.18,6.578a1.171,1.171,0,0,0,.859-.3,1.1,1.1,0,0,0,.3-.84H33.6a2.922,2.922,0,0,1-1,2.281,3.705,3.705,0,0,1-2.566.891A3.751,3.751,0,0,1,27.129-1a4.556,4.556,0,0,1-1.062-3.2v-.109a5.149,5.149,0,0,1,.473-2.262A3.441,3.441,0,0,1,27.9-8.082a4.065,4.065,0,0,1,2.109-.527,3.658,3.658,0,0,1,2.617.914A3.242,3.242,0,0,1,33.6-5.219H31.129a1.445,1.445,0,0,0-.32-1.008,1.106,1.106,0,0,0-.859-.352q-1.023,0-1.2,1.3A9.206,9.206,0,0,0,28.7-4.133,3.616,3.616,0,0,0,29-2.367,1.055,1.055,0,0,0,29.973-1.875ZM37.488,0H34.848V-8.453h2.641Zm-2.8-10.633a1.175,1.175,0,0,1,.406-.922,1.533,1.533,0,0,1,1.055-.359,1.533,1.533,0,0,1,1.055.359,1.175,1.175,0,0,1,.406.922,1.175,1.175,0,0,1-.406.922,1.533,1.533,0,0,1-1.055.359A1.533,1.533,0,0,1,35.1-9.711,1.175,1.175,0,0,1,34.691-10.633ZM43.871,0a2.973,2.973,0,0,1-.25-.758A2.448,2.448,0,0,1,41.59.156a3,3,0,0,1-2.031-.723,2.3,2.3,0,0,1-.836-1.816,2.364,2.364,0,0,1,1.016-2.078,5.174,5.174,0,0,1,2.953-.7H43.5v-.448q0-1.17-1.008-1.17a.824.824,0,0,0-.937.926H38.926a2.36,2.36,0,0,1,1.043-1.99,4.383,4.383,0,0,1,2.66-.765,3.843,3.843,0,0,1,2.555.789,2.743,2.743,0,0,1,.961,2.164v3.742A3.832,3.832,0,0,0,46.5-.133V0ZM42.223-1.719a1.469,1.469,0,0,0,.816-.211,1.322,1.322,0,0,0,.465-.477V-3.758h-.766q-1.375,0-1.375,1.234a.754.754,0,0,0,.242.582A.876.876,0,0,0,42.223-1.719Z" transform="translate(-9105.335 -7385.828)" fill="#12263f"/>
      <path id="Trazado_693191" data-name="Trazado 693191" d="M-40.855-3.859V0H-43.6V-11.375h4.539a5.287,5.287,0,0,1,2.309.48A3.621,3.621,0,0,1-35.2-9.527a3.734,3.734,0,0,1,.551,2.012,3.291,3.291,0,0,1-1.191,2.66,4.943,4.943,0,0,1-3.27,1Zm0-2.117h1.8a1.7,1.7,0,0,0,1.215-.4A1.48,1.48,0,0,0-37.426-7.5a1.83,1.83,0,0,0-.43-1.273,1.522,1.522,0,0,0-1.172-.484h-1.828Zm12.664-.094-.867-.062a1.558,1.558,0,0,0-1.594.781V0h-2.633V-8.453h2.469l.086,1.086a2.039,2.039,0,0,1,1.852-1.242,2.567,2.567,0,0,1,.734.094Zm.336,1.766a4.989,4.989,0,0,1,.492-2.254,3.52,3.52,0,0,1,1.414-1.52,4.259,4.259,0,0,1,2.164-.531,3.887,3.887,0,0,1,2.992,1.176,4.512,4.512,0,0,1,1.094,3.2v.094A4.378,4.378,0,0,1-20.8-1,3.9,3.9,0,0,1-23.77.156a3.942,3.942,0,0,1-2.9-1.082,4.232,4.232,0,0,1-1.18-2.934Zm2.633.164a3.145,3.145,0,0,0,.367,1.719,1.223,1.223,0,0,0,1.086.547q1.406,0,1.438-2.164V-4.3q0-2.273-1.453-2.273-1.32,0-1.43,1.961ZM-17.957,0V-6.625h-1.227V-8.453h1.227v-.672a2.921,2.921,0,0,1,.852-2.242,3.364,3.364,0,0,1,2.391-.8A5.235,5.235,0,0,1-13.48-12l.008,1.938a2.4,2.4,0,0,0-.648-.07q-1.2,0-1.2,1.031v.648h1.648v1.828h-1.648V0Zm10.25-.914A2.714,2.714,0,0,1-9.965.156,2.662,2.662,0,0,1-12.07-.652a3.4,3.4,0,0,1-.715-2.324V-8.453h2.633v5.492A.946.946,0,0,0-9.1-1.875a1.376,1.376,0,0,0,1.289-.648v-5.93H-5.16V0H-7.629ZM-1.3-8.453l.086.992A2.867,2.867,0,0,1,1.2-8.609a2.412,2.412,0,0,1,1.973.789,3.757,3.757,0,0,1,.676,2.375V0H1.207V-5.336a1.426,1.426,0,0,0-.258-.941,1.193,1.193,0,0,0-.937-.3,1.256,1.256,0,0,0-1.148.609V0H-3.77V-8.453ZM4.973-4.289A5.164,5.164,0,0,1,5.84-7.453,2.854,2.854,0,0,1,8.262-8.609a2.428,2.428,0,0,1,1.906.891V-12h2.641V0H10.441l-.133-.906A2.493,2.493,0,0,1,8.246.156,2.849,2.849,0,0,1,5.855-1,5.327,5.327,0,0,1,4.973-4.289Zm2.633.164q0,2.25,1.313,2.25a1.3,1.3,0,0,0,1.25-.734V-5.828a1.261,1.261,0,0,0-1.234-.75q-1.219,0-1.32,1.969ZM17.082,0H14.441V-8.453h2.641Zm-2.8-10.633a1.175,1.175,0,0,1,.406-.922,1.533,1.533,0,0,1,1.055-.359,1.533,1.533,0,0,1,1.055.359,1.175,1.175,0,0,1,.406.922,1.175,1.175,0,0,1-.406.922,1.533,1.533,0,0,1-1.055.359,1.533,1.533,0,0,1-1.055-.359A1.175,1.175,0,0,1,14.285-10.633Zm4.086,6.344a5.164,5.164,0,0,1,.867-3.164A2.854,2.854,0,0,1,21.66-8.609a2.428,2.428,0,0,1,1.906.891V-12h2.641V0H23.84l-.133-.906A2.493,2.493,0,0,1,21.645.156,2.849,2.849,0,0,1,19.254-1,5.327,5.327,0,0,1,18.371-4.289ZM21-4.125q0,2.25,1.313,2.25a1.3,1.3,0,0,0,1.25-.734V-5.828a1.261,1.261,0,0,0-1.234-.75q-1.219,0-1.32,1.969ZM32.465,0a2.973,2.973,0,0,1-.25-.758,2.448,2.448,0,0,1-2.031.914,3,3,0,0,1-2.031-.723,2.3,2.3,0,0,1-.836-1.816,2.364,2.364,0,0,1,1.016-2.078,5.174,5.174,0,0,1,2.953-.7H32.1v-.448q0-1.17-1.008-1.17a.824.824,0,0,0-.937.926H27.52a2.36,2.36,0,0,1,1.043-1.99,4.383,4.383,0,0,1,2.66-.765,3.843,3.843,0,0,1,2.555.789,2.743,2.743,0,0,1,.961,2.164v3.742A3.832,3.832,0,0,0,35.1-.133V0ZM30.816-1.719a1.469,1.469,0,0,0,.816-.211,1.322,1.322,0,0,0,.465-.477V-3.758h-.766q-1.375,0-1.375,1.234a.754.754,0,0,0,.242.582A.876.876,0,0,0,30.816-1.719Zm5.047-2.57a5.164,5.164,0,0,1,.867-3.164,2.854,2.854,0,0,1,2.422-1.156,2.428,2.428,0,0,1,1.906.891V-12H43.7V0H41.332L41.2-.906A2.493,2.493,0,0,1,39.137.156,2.849,2.849,0,0,1,36.746-1,5.327,5.327,0,0,1,35.863-4.289Zm2.633.164q0,2.25,1.313,2.25a1.3,1.3,0,0,0,1.25-.734V-5.828a1.261,1.261,0,0,0-1.234-.75q-1.219,0-1.32,1.969Z" transform="translate(-9263 -7385.828)" fill="#12263f"/>
      <path id="Trazado_693190" data-name="Trazado 693190" d="M-13.73-5.453a6.708,6.708,0,0,1-.617,2.945A4.561,4.561,0,0,1-16.1-.535a4.884,4.884,0,0,1-2.59.691A4.953,4.953,0,0,1-21.27-.512a4.554,4.554,0,0,1-1.754-1.91,6.515,6.515,0,0,1-.66-2.852v-.641a6.737,6.737,0,0,1,.613-2.949,4.55,4.55,0,0,1,1.758-1.973,4.918,4.918,0,0,1,2.605-.7,4.87,4.87,0,0,1,2.578.688,4.632,4.632,0,0,1,1.762,1.957,6.544,6.544,0,0,1,.637,2.91ZM-16.52-5.93A4.783,4.783,0,0,0-17.086-8.5a1.817,1.817,0,0,0-1.621-.879q-2.062,0-2.18,3.094l-.008.836a4.92,4.92,0,0,0,.555,2.57,1.814,1.814,0,0,0,1.648.9,1.792,1.792,0,0,0,1.6-.883,4.785,4.785,0,0,0,.57-2.539Zm9.2-.141-.867-.062a1.558,1.558,0,0,0-1.594.781V0h-2.633V-8.453h2.469l.086,1.086A2.039,2.039,0,0,1-8.012-8.609a2.567,2.567,0,0,1,.734.094ZM-3.6,0H-6.238V-8.453H-3.6Zm-2.8-10.633a1.175,1.175,0,0,1,.406-.922,1.533,1.533,0,0,1,1.055-.359,1.533,1.533,0,0,1,1.055.359,1.175,1.175,0,0,1,.406.922,1.175,1.175,0,0,1-.406.922,1.533,1.533,0,0,1-1.055.359,1.533,1.533,0,0,1-1.055-.359A1.175,1.175,0,0,1-6.395-10.633Zm4.109,6.344a5.708,5.708,0,0,1,.422-2.266A3.4,3.4,0,0,1-.652-8.074a3.192,3.192,0,0,1,1.836-.535,2.538,2.538,0,0,1,2.063.891l.094-.734H5.73V-.32a3.564,3.564,0,0,1-.52,1.941,3.334,3.334,0,0,1-1.5,1.266,5.528,5.528,0,0,1-2.281.441,4.769,4.769,0,0,1-1.8-.352,3.251,3.251,0,0,1-1.332-.914L-.605.516a2.414,2.414,0,0,0,1.938.867,1.568,1.568,0,0,0,1.75-1.8V-.68A2.472,2.472,0,0,1,1.168.156a3.055,3.055,0,0,1-2.5-1.184A4.9,4.9,0,0,1-2.285-4.2Zm2.641.164A3.007,3.007,0,0,0,.746-2.48a1.232,1.232,0,0,0,1.094.605,1.4,1.4,0,0,0,1.242-.57V-6a1.363,1.363,0,0,0-1.227-.578,1.241,1.241,0,0,0-1.1.629A3.429,3.429,0,0,0,.355-4.125ZM11.316.156A4.345,4.345,0,0,1,8.168-1a4.006,4.006,0,0,1-1.2-3.02v-.219a5.191,5.191,0,0,1,.48-2.289,3.516,3.516,0,0,1,1.4-1.535,4.233,4.233,0,0,1,2.188-.543A3.659,3.659,0,0,1,13.848-7.5a4.344,4.344,0,0,1,1.031,3.082V-3.4H9.645a1.9,1.9,0,0,0,.617,1.117,1.836,1.836,0,0,0,1.234.406,2.366,2.366,0,0,0,1.953-.875l1.2,1.422A3.363,3.363,0,0,1,13.258-.246,4.713,4.713,0,0,1,11.316.156Zm-.3-6.734q-1.156,0-1.375,1.531H12.3v-.2a1.3,1.3,0,0,0-.32-.98A1.275,1.275,0,0,0,11.02-6.578Zm7.336-1.875.086.992a2.867,2.867,0,0,1,2.414-1.148,2.412,2.412,0,0,1,1.973.789A3.757,3.757,0,0,1,23.5-5.445V0H20.863V-5.336a1.426,1.426,0,0,0-.258-.941,1.193,1.193,0,0,0-.937-.3,1.256,1.256,0,0,0-1.148.609V0H15.887V-8.453Z" transform="translate(-9403 -7385.828)" fill="#12263f"/>
      <path id="Trazado_693197" data-name="Trazado 693197" d="M-24.57,0H-27.3l-4.031-7.078V0H-34.07V-11.375h2.742L-27.3-4.3v-7.078h2.734Zm1.281-4.3A4.989,4.989,0,0,1-22.8-6.559a3.52,3.52,0,0,1,1.414-1.52,4.259,4.259,0,0,1,2.164-.531,3.887,3.887,0,0,1,2.992,1.176,4.512,4.512,0,0,1,1.094,3.2v.094A4.378,4.378,0,0,1-16.23-1,3.9,3.9,0,0,1-19.2.156,3.942,3.942,0,0,1-22.1-.926a4.232,4.232,0,0,1-1.18-2.934Zm2.633.164a3.145,3.145,0,0,0,.367,1.719,1.223,1.223,0,0,0,1.086.547q1.406,0,1.438-2.164V-4.3q0-2.273-1.453-2.273-1.32,0-1.43,1.961Zm11.8-1.93-.867-.062a1.558,1.558,0,0,0-1.594.781V0h-2.633V-8.453h2.469l.086,1.086A2.039,2.039,0,0,1-9.547-8.609a2.567,2.567,0,0,1,.734.094Zm3.438-2.383.086.992A2.906,2.906,0,0,1-2.922-8.609,2.14,2.14,0,0,1-.758-7.336,2.813,2.813,0,0,1,1.727-8.609q2.57,0,2.641,3.109V0H1.727V-5.336a1.611,1.611,0,0,0-.219-.945.931.931,0,0,0-.8-.3,1.247,1.247,0,0,0-1.164.7l.008.109V0H-3.086V-5.32A1.694,1.694,0,0,0-3.3-6.281a.929.929,0,0,0-.8-.3,1.263,1.263,0,0,0-1.156.7V0H-7.891V-8.453ZM10.633,0a2.973,2.973,0,0,1-.25-.758A2.448,2.448,0,0,1,8.352.156,3,3,0,0,1,6.32-.566a2.3,2.3,0,0,1-.836-1.816A2.364,2.364,0,0,1,6.5-4.461a5.174,5.174,0,0,1,2.953-.7h.813v-.448q0-1.17-1.008-1.17a.824.824,0,0,0-.937.926H5.688A2.36,2.36,0,0,1,6.73-7.845a4.383,4.383,0,0,1,2.66-.765,3.843,3.843,0,0,1,2.555.789,2.743,2.743,0,0,1,.961,2.164v3.742a3.832,3.832,0,0,0,.359,1.781V0ZM8.984-1.719A1.469,1.469,0,0,0,9.8-1.93a1.322,1.322,0,0,0,.465-.477V-3.758H9.5q-1.375,0-1.375,1.234a.754.754,0,0,0,.242.582A.876.876,0,0,0,8.984-1.719ZM17.141,0H14.5V-12h2.641Zm5.711.156A4.345,4.345,0,0,1,19.7-1a4.006,4.006,0,0,1-1.2-3.02v-.219a5.191,5.191,0,0,1,.48-2.289,3.516,3.516,0,0,1,1.4-1.535,4.233,4.233,0,0,1,2.188-.543A3.659,3.659,0,0,1,25.383-7.5a4.344,4.344,0,0,1,1.031,3.082V-3.4H21.18A1.9,1.9,0,0,0,21.8-2.281a1.836,1.836,0,0,0,1.234.406,2.366,2.366,0,0,0,1.953-.875l1.2,1.422A3.363,3.363,0,0,1,24.793-.246,4.713,4.713,0,0,1,22.852.156Zm-.3-6.734q-1.156,0-1.375,1.531h2.656v-.2a1.3,1.3,0,0,0-.32-.98A1.275,1.275,0,0,0,22.555-6.578Zm9.344,4.2a.608.608,0,0,0-.352-.539,5.348,5.348,0,0,0-1.336-.422,6.092,6.092,0,0,1-1.625-.574,2.722,2.722,0,0,1-.977-.863,2.061,2.061,0,0,1-.336-1.164,2.336,2.336,0,0,1,.961-1.918,3.958,3.958,0,0,1,2.516-.754,4.386,4.386,0,0,1,2.688.758,2.37,2.37,0,0,1,1.016,1.992H31.813q0-1.016-1.07-1.016a1.061,1.061,0,0,0-.7.23.714.714,0,0,0-.281.574.655.655,0,0,0,.344.57,3.248,3.248,0,0,0,1.1.359,9.485,9.485,0,0,1,1.324.336,2.406,2.406,0,0,1,1.906,2.352A2.214,2.214,0,0,1,33.41-.57a4.505,4.505,0,0,1-2.66.727,4.6,4.6,0,0,1-1.937-.391A3.24,3.24,0,0,1,27.484-1.3a2.406,2.406,0,0,1-.477-1.414h2.461a1.017,1.017,0,0,0,.391.855,1.607,1.607,0,0,0,.961.27,1.264,1.264,0,0,0,.809-.219A.7.7,0,0,0,31.9-2.375Z" transform="translate(-9403.529 -7290.161)" fill="#12263f"/>
      <path id="Trazado_693196" data-name="Trazado 693196" d="M-35.074-3.859V0h-2.742V-11.375h4.539a5.287,5.287,0,0,1,2.309.48,3.621,3.621,0,0,1,1.555,1.367,3.734,3.734,0,0,1,.551,2.012,3.291,3.291,0,0,1-1.191,2.66,4.943,4.943,0,0,1-3.27,1Zm0-2.117h1.8a1.7,1.7,0,0,0,1.215-.4A1.48,1.48,0,0,0-31.645-7.5a1.83,1.83,0,0,0-.43-1.273,1.522,1.522,0,0,0-1.172-.484h-1.828ZM-24.746,0h-2.641V-8.453h2.641Zm-2.8-10.633a1.175,1.175,0,0,1,.406-.922,1.533,1.533,0,0,1,1.055-.359,1.533,1.533,0,0,1,1.055.359,1.175,1.175,0,0,1,.406.922,1.175,1.175,0,0,1-.406.922,1.533,1.533,0,0,1-1.055.359,1.533,1.533,0,0,1-1.055-.359A1.175,1.175,0,0,1-27.543-10.633Zm7.789,7.5,1.336-5.32h2.773L-18.4,0H-21.09l-2.758-8.453h2.781ZM-15.309-4.3a4.989,4.989,0,0,1,.492-2.254A3.52,3.52,0,0,1-13.4-8.078a4.259,4.259,0,0,1,2.164-.531A3.887,3.887,0,0,1-8.246-7.434a4.512,4.512,0,0,1,1.094,3.2v.094A4.378,4.378,0,0,1-8.25-1,3.9,3.9,0,0,1-11.223.156a3.942,3.942,0,0,1-2.9-1.082A4.232,4.232,0,0,1-15.3-3.859Zm2.633.164a3.145,3.145,0,0,0,.367,1.719,1.223,1.223,0,0,0,1.086.547q1.406,0,1.438-2.164V-4.3q0-2.273-1.453-2.273-1.32,0-1.43,1.961Zm9.75-6.414v2.1h1.391v1.828H-2.926v3.867a.987.987,0,0,0,.172.664.922.922,0,0,0,.68.188,3.862,3.862,0,0,0,.656-.047V-.07A4.859,4.859,0,0,1-2.9.156,2.758,2.758,0,0,1-4.91-.484,2.626,2.626,0,0,1-5.559-2.43v-4.2H-6.637V-8.453h1.078v-2.1ZM4.262,0a2.973,2.973,0,0,1-.25-.758A2.448,2.448,0,0,1,1.98.156,3,3,0,0,1-.051-.566,2.3,2.3,0,0,1-.887-2.383,2.364,2.364,0,0,1,.129-4.461a5.174,5.174,0,0,1,2.953-.7h.813v-.448q0-1.17-1.008-1.17a.824.824,0,0,0-.937.926H-.684A2.36,2.36,0,0,1,.359-7.845a4.383,4.383,0,0,1,2.66-.765,3.843,3.843,0,0,1,2.555.789,2.743,2.743,0,0,1,.961,2.164v3.742A3.832,3.832,0,0,0,6.895-.133V0ZM2.613-1.719A1.469,1.469,0,0,0,3.43-1.93a1.322,1.322,0,0,0,.465-.477V-3.758H3.129q-1.375,0-1.375,1.234A.754.754,0,0,0,2-1.941.876.876,0,0,0,2.613-1.719Zm7.8-6.734.086.992A2.867,2.867,0,0,1,12.91-8.609a2.412,2.412,0,0,1,1.973.789,3.757,3.757,0,0,1,.676,2.375V0H12.918V-5.336a1.426,1.426,0,0,0-.258-.941,1.193,1.193,0,0,0-.937-.3,1.256,1.256,0,0,0-1.148.609V0H7.941V-8.453Zm9.672-2.1v2.1h1.391v1.828H20.082v3.867a.987.987,0,0,0,.172.664.922.922,0,0,0,.68.188,3.862,3.862,0,0,0,.656-.047V-.07a4.859,4.859,0,0,1-1.484.227A2.758,2.758,0,0,1,18.1-.484a2.626,2.626,0,0,1-.648-1.945v-4.2H16.371V-8.453h1.078v-2.1ZM26.6.156A4.345,4.345,0,0,1,23.449-1a4.006,4.006,0,0,1-1.2-3.02v-.219a5.191,5.191,0,0,1,.48-2.289,3.516,3.516,0,0,1,1.4-1.535,4.233,4.233,0,0,1,2.188-.543A3.659,3.659,0,0,1,29.129-7.5,4.344,4.344,0,0,1,30.16-4.422V-3.4H24.926a1.9,1.9,0,0,0,.617,1.117,1.836,1.836,0,0,0,1.234.406A2.366,2.366,0,0,0,28.73-2.75l1.2,1.422A3.363,3.363,0,0,1,28.539-.246,4.713,4.713,0,0,1,26.6.156Zm-.3-6.734q-1.156,0-1.375,1.531h2.656v-.2a1.3,1.3,0,0,0-.32-.98A1.275,1.275,0,0,0,26.3-6.578Zm9.344,4.2a.608.608,0,0,0-.352-.539,5.348,5.348,0,0,0-1.336-.422,6.092,6.092,0,0,1-1.625-.574,2.722,2.722,0,0,1-.977-.863,2.061,2.061,0,0,1-.336-1.164,2.336,2.336,0,0,1,.961-1.918A3.958,3.958,0,0,1,34.5-8.609a4.386,4.386,0,0,1,2.688.758A2.37,2.37,0,0,1,38.2-5.859H35.559q0-1.016-1.07-1.016a1.061,1.061,0,0,0-.7.23.714.714,0,0,0-.281.574.655.655,0,0,0,.344.57,3.248,3.248,0,0,0,1.1.359,9.485,9.485,0,0,1,1.324.336,2.406,2.406,0,0,1,1.906,2.352A2.214,2.214,0,0,1,37.156-.57,4.505,4.505,0,0,1,34.5.156a4.6,4.6,0,0,1-1.937-.391A3.24,3.24,0,0,1,31.23-1.3a2.406,2.406,0,0,1-.477-1.414h2.461a1.017,1.017,0,0,0,.391.855,1.607,1.607,0,0,0,.961.27,1.264,1.264,0,0,0,.809-.219A.7.7,0,0,0,35.645-2.375Z" transform="translate(-9263.552 -7290.161)" fill="#12263f"/>
      <path id="Trazado_693195" data-name="Trazado 693195" d="M-26.535-2.109h4.773V0h-7.516V-11.375h2.742Zm9.9,2.266A4.345,4.345,0,0,1-19.785-1a4.006,4.006,0,0,1-1.2-3.02v-.219a5.191,5.191,0,0,1,.48-2.289,3.516,3.516,0,0,1,1.4-1.535,4.233,4.233,0,0,1,2.188-.543A3.659,3.659,0,0,1-14.105-7.5a4.344,4.344,0,0,1,1.031,3.082V-3.4h-5.234a1.9,1.9,0,0,0,.617,1.117,1.836,1.836,0,0,0,1.234.406A2.366,2.366,0,0,0-14.5-2.75l1.2,1.422A3.363,3.363,0,0,1-14.7-.246,4.713,4.713,0,0,1-16.637.156Zm-.3-6.734q-1.156,0-1.375,1.531h2.656v-.2a1.3,1.3,0,0,0-.32-.98A1.275,1.275,0,0,0-16.934-6.578ZM-9.6-8.453l.086.992A2.867,2.867,0,0,1-7.1-8.609a2.412,2.412,0,0,1,1.973.789,3.757,3.757,0,0,1,.676,2.375V0H-7.09V-5.336a1.426,1.426,0,0,0-.258-.941,1.193,1.193,0,0,0-.937-.3,1.256,1.256,0,0,0-1.148.609V0h-2.633V-8.453Zm4.367-3.484a2.278,2.278,0,0,1-.52,1.512A1.612,1.612,0,0,1-7.035-9.8a2.535,2.535,0,0,1-1.148-.328,2.4,2.4,0,0,0-1.023-.328.587.587,0,0,0-.426.172.714.714,0,0,0-.176.531l-1.461-.078a2.29,2.29,0,0,1,.52-1.5,1.593,1.593,0,0,1,1.277-.633,2.637,2.637,0,0,1,1.023.289,6.285,6.285,0,0,0,.8.328,1.547,1.547,0,0,0,.355.04.6.6,0,0,0,.43-.174.717.717,0,0,0,.18-.537ZM-3.324-4.3a4.989,4.989,0,0,1,.492-2.254,3.52,3.52,0,0,1,1.414-1.52A4.259,4.259,0,0,1,.746-8.609,3.887,3.887,0,0,1,3.738-7.434a4.512,4.512,0,0,1,1.094,3.2v.094A4.378,4.378,0,0,1,3.734-1,3.9,3.9,0,0,1,.762.156a3.942,3.942,0,0,1-2.9-1.082,4.232,4.232,0,0,1-1.18-2.934Zm2.633.164A3.145,3.145,0,0,0-.324-2.422a1.223,1.223,0,0,0,1.086.547q1.406,0,1.438-2.164V-4.3Q2.2-6.578.746-6.578q-1.32,0-1.43,1.961ZM10.418-2.375a.608.608,0,0,0-.352-.539A5.348,5.348,0,0,0,8.73-3.336,6.092,6.092,0,0,1,7.105-3.91a2.722,2.722,0,0,1-.977-.863,2.061,2.061,0,0,1-.336-1.164,2.336,2.336,0,0,1,.961-1.918A3.958,3.958,0,0,1,9.27-8.609a4.386,4.386,0,0,1,2.688.758,2.37,2.37,0,0,1,1.016,1.992H10.332q0-1.016-1.07-1.016a1.061,1.061,0,0,0-.7.23.714.714,0,0,0-.281.574.655.655,0,0,0,.344.57,3.248,3.248,0,0,0,1.1.359,9.485,9.485,0,0,1,1.324.336,2.406,2.406,0,0,1,1.906,2.352A2.214,2.214,0,0,1,11.93-.57,4.505,4.505,0,0,1,9.27.156,4.6,4.6,0,0,1,7.332-.234,3.24,3.24,0,0,1,6-1.3a2.406,2.406,0,0,1-.477-1.414H7.988a1.017,1.017,0,0,0,.391.855,1.607,1.607,0,0,0,.961.27,1.264,1.264,0,0,0,.809-.219A.7.7,0,0,0,10.418-2.375ZM18.949,0a2.973,2.973,0,0,1-.25-.758,2.448,2.448,0,0,1-2.031.914,3,3,0,0,1-2.031-.723A2.3,2.3,0,0,1,13.8-2.383a2.364,2.364,0,0,1,1.016-2.078,5.174,5.174,0,0,1,2.953-.7h.813v-.448q0-1.17-1.008-1.17a.824.824,0,0,0-.937.926H14a2.36,2.36,0,0,1,1.043-1.99,4.383,4.383,0,0,1,2.66-.765,3.843,3.843,0,0,1,2.555.789,2.743,2.743,0,0,1,.961,2.164v3.742a3.832,3.832,0,0,0,.359,1.781V0ZM17.3-1.719a1.469,1.469,0,0,0,.816-.211,1.322,1.322,0,0,0,.465-.477V-3.758h-.766q-1.375,0-1.375,1.234a.754.754,0,0,0,.242.582A.876.876,0,0,0,17.3-1.719Zm9.8-.656a.608.608,0,0,0-.352-.539,5.348,5.348,0,0,0-1.336-.422,6.092,6.092,0,0,1-1.625-.574,2.722,2.722,0,0,1-.977-.863,2.061,2.061,0,0,1-.336-1.164,2.336,2.336,0,0,1,.961-1.918,3.958,3.958,0,0,1,2.516-.754,4.386,4.386,0,0,1,2.688.758A2.37,2.37,0,0,1,29.66-5.859H27.02q0-1.016-1.07-1.016a1.061,1.061,0,0,0-.7.23.714.714,0,0,0-.281.574.655.655,0,0,0,.344.57,3.248,3.248,0,0,0,1.1.359,9.486,9.486,0,0,1,1.324.336,2.406,2.406,0,0,1,1.906,2.352A2.214,2.214,0,0,1,28.617-.57a4.505,4.505,0,0,1-2.66.727A4.6,4.6,0,0,1,24.02-.234,3.24,3.24,0,0,1,22.691-1.3a2.406,2.406,0,0,1-.477-1.414h2.461a1.017,1.017,0,0,0,.391.855,1.607,1.607,0,0,0,.961.27,1.264,1.264,0,0,0,.809-.219A.7.7,0,0,0,27.105-2.375Z" transform="translate(-9105.901 -7290.161)" fill="#12263f"/>
      <path id="Trazado_693194" data-name="Trazado 693194" d="M-23.75,0h-2.727V-4.75h-4.039V0h-2.742V-11.375h2.742v4.516h4.039v-4.516h2.727Zm4.391,0H-22V-8.453h2.641Zm-2.8-10.633a1.175,1.175,0,0,1,.406-.922,1.533,1.533,0,0,1,1.055-.359,1.533,1.533,0,0,1,1.055.359,1.175,1.175,0,0,1,.406.922,1.175,1.175,0,0,1-.406.922,1.533,1.533,0,0,1-1.055.359,1.533,1.533,0,0,1-1.055-.359A1.175,1.175,0,0,1-22.156-10.633ZM-9.891-4.164a5.1,5.1,0,0,1-.887,3.145A2.843,2.843,0,0,1-13.172.156,2.437,2.437,0,0,1-15.086-.7V3.25h-2.633v-11.7h2.461l.078.781a2.437,2.437,0,0,1,1.992-.937,2.866,2.866,0,0,1,2.43,1.152,5.16,5.16,0,0,1,.867,3.168Zm-2.633-.164q0-2.25-1.312-2.25a1.239,1.239,0,0,0-1.25.672v3.328a1.279,1.279,0,0,0,1.266.7q1.258,0,1.3-2.172Zm3.461.023A4.989,4.989,0,0,1-8.57-6.559a3.52,3.52,0,0,1,1.414-1.52,4.259,4.259,0,0,1,2.164-.531A3.887,3.887,0,0,1-2-7.434a4.512,4.512,0,0,1,1.094,3.2v.094A4.378,4.378,0,0,1-2-1,3.9,3.9,0,0,1-4.977.156a3.942,3.942,0,0,1-2.9-1.082,4.232,4.232,0,0,1-1.18-2.934Zm2.633.164a3.145,3.145,0,0,0,.367,1.719,1.223,1.223,0,0,0,1.086.547q1.406,0,1.438-2.164V-4.3q0-2.273-1.453-2.273-1.32,0-1.43,1.961Zm6.375-.148A5.708,5.708,0,0,1,.367-6.555a3.4,3.4,0,0,1,1.211-1.52,3.192,3.192,0,0,1,1.836-.535,2.538,2.538,0,0,1,2.063.891l.094-.734H7.961V-.32a3.564,3.564,0,0,1-.52,1.941,3.334,3.334,0,0,1-1.5,1.266,5.528,5.528,0,0,1-2.281.441,4.769,4.769,0,0,1-1.8-.352A3.251,3.251,0,0,1,.523,2.063L1.625.516a2.414,2.414,0,0,0,1.938.867,1.568,1.568,0,0,0,1.75-1.8V-.68A2.472,2.472,0,0,1,3.4.156,3.055,3.055,0,0,1,.9-1.027,4.9,4.9,0,0,1-.055-4.2Zm2.641.164A3.007,3.007,0,0,0,2.977-2.48a1.232,1.232,0,0,0,1.094.605,1.4,1.4,0,0,0,1.242-.57V-6a1.363,1.363,0,0,0-1.227-.578,1.241,1.241,0,0,0-1.1.629A3.429,3.429,0,0,0,2.586-4.125ZM13.547.156A4.345,4.345,0,0,1,10.4-1a4.006,4.006,0,0,1-1.2-3.02v-.219a5.191,5.191,0,0,1,.48-2.289,3.516,3.516,0,0,1,1.4-1.535,4.233,4.233,0,0,1,2.188-.543A3.659,3.659,0,0,1,16.078-7.5a4.344,4.344,0,0,1,1.031,3.082V-3.4H11.875a1.9,1.9,0,0,0,.617,1.117,1.836,1.836,0,0,0,1.234.406A2.366,2.366,0,0,0,15.68-2.75l1.2,1.422A3.363,3.363,0,0,1,15.488-.246,4.713,4.713,0,0,1,13.547.156Zm-.3-6.734q-1.156,0-1.375,1.531h2.656v-.2a1.3,1.3,0,0,0-.32-.98A1.275,1.275,0,0,0,13.25-6.578ZM22.93,0a2.973,2.973,0,0,1-.25-.758,2.448,2.448,0,0,1-2.031.914,3,3,0,0,1-2.031-.723,2.3,2.3,0,0,1-.836-1.816A2.364,2.364,0,0,1,18.8-4.461a5.174,5.174,0,0,1,2.953-.7h.813v-.448q0-1.17-1.008-1.17a.824.824,0,0,0-.937.926H17.984a2.36,2.36,0,0,1,1.043-1.99,4.383,4.383,0,0,1,2.66-.765,3.843,3.843,0,0,1,2.555.789A2.743,2.743,0,0,1,25.2-5.656v3.742a3.832,3.832,0,0,0,.359,1.781V0ZM21.281-1.719A1.469,1.469,0,0,0,22.1-1.93a1.322,1.322,0,0,0,.465-.477V-3.758H21.8q-1.375,0-1.375,1.234a.754.754,0,0,0,.242.582A.876.876,0,0,0,21.281-1.719Zm9.8-.656a.608.608,0,0,0-.352-.539A5.348,5.348,0,0,0,29.4-3.336a6.092,6.092,0,0,1-1.625-.574,2.722,2.722,0,0,1-.977-.863,2.061,2.061,0,0,1-.336-1.164,2.336,2.336,0,0,1,.961-1.918,3.958,3.958,0,0,1,2.516-.754,4.386,4.386,0,0,1,2.688.758,2.37,2.37,0,0,1,1.016,1.992H31q0-1.016-1.07-1.016a1.061,1.061,0,0,0-.7.23.714.714,0,0,0-.281.574.655.655,0,0,0,.344.57,3.248,3.248,0,0,0,1.1.359,9.486,9.486,0,0,1,1.324.336,2.406,2.406,0,0,1,1.906,2.352A2.214,2.214,0,0,1,32.6-.57a4.505,4.505,0,0,1-2.66.727A4.6,4.6,0,0,1,28-.234,3.24,3.24,0,0,1,26.672-1.3,2.406,2.406,0,0,1,26.2-2.711h2.461a1.017,1.017,0,0,0,.391.855,1.607,1.607,0,0,0,.961.27,1.264,1.264,0,0,0,.809-.219A.7.7,0,0,0,31.086-2.375Z" transform="translate(-8926.583 -7290.161)" fill="#12263f"/>
      <path id="Trazado_693198" data-name="Trazado 693198" d="M-35.273-2.125h-3.758L-39.687,0h-2.93l4.172-11.375h2.578L-31.664,0h-2.945Zm-3.1-2.117h2.445l-1.227-3.945Zm7.086-.047a5.164,5.164,0,0,1,.867-3.164A2.854,2.854,0,0,1-28-8.609a2.428,2.428,0,0,1,1.906.891V-12h2.641V0H-25.82l-.133-.906A2.493,2.493,0,0,1-28.016.156,2.849,2.849,0,0,1-30.406-1,5.327,5.327,0,0,1-31.289-4.289Zm2.633.164q0,2.25,1.313,2.25a1.3,1.3,0,0,0,1.25-.734V-5.828a1.261,1.261,0,0,0-1.234-.75q-1.219,0-1.32,1.969Zm10.07.992,1.336-5.32h2.773L-17.234,0h-2.687L-22.68-8.453H-19.9ZM-9.6.156A4.345,4.345,0,0,1-12.75-1a4.006,4.006,0,0,1-1.2-3.02v-.219a5.191,5.191,0,0,1,.48-2.289,3.516,3.516,0,0,1,1.4-1.535,4.233,4.233,0,0,1,2.188-.543A3.659,3.659,0,0,1-7.07-7.5,4.344,4.344,0,0,1-6.039-4.422V-3.4h-5.234a1.9,1.9,0,0,0,.617,1.117,1.836,1.836,0,0,0,1.234.406A2.366,2.366,0,0,0-7.469-2.75l1.2,1.422A3.363,3.363,0,0,1-7.66-.246,4.713,4.713,0,0,1-9.6.156Zm-.3-6.734q-1.156,0-1.375,1.531h2.656v-.2a1.3,1.3,0,0,0-.32-.98A1.275,1.275,0,0,0-9.9-6.578Zm7.336-1.875.086.992A2.867,2.867,0,0,1-.062-8.609,2.412,2.412,0,0,1,1.91-7.82a3.757,3.757,0,0,1,.676,2.375V0H-.055V-5.336a1.426,1.426,0,0,0-.258-.941,1.193,1.193,0,0,0-.937-.3A1.256,1.256,0,0,0-2.4-5.969V0H-5.031V-8.453Zm9.672-2.1v2.1H8.5v1.828H7.109v3.867a.987.987,0,0,0,.172.664.922.922,0,0,0,.68.188,3.862,3.862,0,0,0,.656-.047V-.07A4.859,4.859,0,0,1,7.133.156,2.758,2.758,0,0,1,5.125-.484,2.626,2.626,0,0,1,4.477-2.43v-4.2H3.4V-8.453H4.477v-2.1ZM12.313,0H9.672V-8.453h2.641Zm-2.8-10.633a1.175,1.175,0,0,1,.406-.922,1.533,1.533,0,0,1,1.055-.359,1.533,1.533,0,0,1,1.055.359,1.175,1.175,0,0,1,.406.922,1.175,1.175,0,0,1-.406.922,1.533,1.533,0,0,1-1.055.359,1.533,1.533,0,0,1-1.055-.359A1.175,1.175,0,0,1,9.516-10.633Zm7.992,8.758a1.171,1.171,0,0,0,.859-.3,1.1,1.1,0,0,0,.3-.84h2.469a2.922,2.922,0,0,1-1,2.281A3.705,3.705,0,0,1,17.57.156,3.751,3.751,0,0,1,14.664-1,4.556,4.556,0,0,1,13.6-4.2v-.109a5.149,5.149,0,0,1,.473-2.262,3.441,3.441,0,0,1,1.363-1.508,4.065,4.065,0,0,1,2.109-.527,3.658,3.658,0,0,1,2.617.914,3.242,3.242,0,0,1,.969,2.477H18.664a1.445,1.445,0,0,0-.32-1.008,1.106,1.106,0,0,0-.859-.352q-1.023,0-1.2,1.3a9.206,9.206,0,0,0-.055,1.141,3.616,3.616,0,0,0,.3,1.766A1.055,1.055,0,0,0,17.508-1.875ZM25.023,0H22.383V-8.453h2.641Zm-2.8-10.633a1.175,1.175,0,0,1,.406-.922,1.533,1.533,0,0,1,1.055-.359,1.533,1.533,0,0,1,1.055.359,1.175,1.175,0,0,1,.406.922,1.175,1.175,0,0,1-.406.922,1.533,1.533,0,0,1-1.055.359,1.533,1.533,0,0,1-1.055-.359A1.175,1.175,0,0,1,22.227-10.633ZM31.406,0a2.973,2.973,0,0,1-.25-.758,2.448,2.448,0,0,1-2.031.914,3,3,0,0,1-2.031-.723,2.3,2.3,0,0,1-.836-1.816,2.364,2.364,0,0,1,1.016-2.078,5.174,5.174,0,0,1,2.953-.7h.813v-.448q0-1.17-1.008-1.17a.824.824,0,0,0-.937.926H26.461A2.36,2.36,0,0,1,27.5-7.845a4.383,4.383,0,0,1,2.66-.765,3.843,3.843,0,0,1,2.555.789,2.743,2.743,0,0,1,.961,2.164v3.742a3.832,3.832,0,0,0,.359,1.781V0ZM29.758-1.719a1.469,1.469,0,0,0,.816-.211,1.322,1.322,0,0,0,.465-.477V-3.758h-.766q-1.375,0-1.375,1.234a.754.754,0,0,0,.242.582A.876.876,0,0,0,29.758-1.719Zm9.8-.656a.608.608,0,0,0-.352-.539,5.348,5.348,0,0,0-1.336-.422A6.092,6.092,0,0,1,36.25-3.91a2.722,2.722,0,0,1-.977-.863,2.061,2.061,0,0,1-.336-1.164A2.336,2.336,0,0,1,35.9-7.855a3.958,3.958,0,0,1,2.516-.754,4.386,4.386,0,0,1,2.688.758,2.37,2.37,0,0,1,1.016,1.992H39.477q0-1.016-1.07-1.016a1.061,1.061,0,0,0-.7.23.714.714,0,0,0-.281.574.655.655,0,0,0,.344.57,3.248,3.248,0,0,0,1.1.359A9.485,9.485,0,0,1,40.2-4.8,2.406,2.406,0,0,1,42.1-2.453,2.214,2.214,0,0,1,41.074-.57a4.505,4.505,0,0,1-2.66.727,4.6,4.6,0,0,1-1.937-.391A3.24,3.24,0,0,1,35.148-1.3a2.406,2.406,0,0,1-.477-1.414h2.461a1.017,1.017,0,0,0,.391.855,1.607,1.607,0,0,0,.961.27,1.264,1.264,0,0,0,.809-.219A.7.7,0,0,0,39.563-2.375Z" transform="translate(-9403.519 -7214.494)" fill="#12263f"/>
      <path id="Trazado_693199" data-name="Trazado 693199" d="M-41.023-3.023a1.127,1.127,0,0,0-.426-.937,5.292,5.292,0,0,0-1.5-.7,14.353,14.353,0,0,1-1.75-.7,3.314,3.314,0,0,1-2.211-2.984A2.676,2.676,0,0,1-46.355-10,3.562,3.562,0,0,1-44.8-11.129a6.065,6.065,0,0,1,2.266-.4,5.305,5.305,0,0,1,2.2.438A3.482,3.482,0,0,1-38.82-9.848,3.254,3.254,0,0,1-38.281-8h-2.734a1.375,1.375,0,0,0-.426-1.078,1.66,1.66,0,0,0-1.152-.383,1.872,1.872,0,0,0-1.16.324,1,1,0,0,0-.426.824,1,1,0,0,0,.469.793,5.911,5.911,0,0,0,1.648.734,10.1,10.1,0,0,1,1.938.816,3.256,3.256,0,0,1,1.844,2.93A2.778,2.778,0,0,1-39.406-.7a5,5,0,0,1-3.086.852A6.122,6.122,0,0,1-45-.34,3.775,3.775,0,0,1-46.684-1.7a3.542,3.542,0,0,1-.566-1.988h2.75a1.744,1.744,0,0,0,.473,1.348,2.234,2.234,0,0,0,1.535.434A1.765,1.765,0,0,0-41.418-2.2.967.967,0,0,0-41.023-3.023Zm9.063,2.109A2.714,2.714,0,0,1-34.219.156a2.662,2.662,0,0,1-2.105-.809,3.4,3.4,0,0,1-.715-2.324V-8.453h2.633v5.492a.946.946,0,0,0,1.055,1.086,1.376,1.376,0,0,0,1.289-.648v-5.93h2.648V0h-2.469Zm11.836-3.25a5.1,5.1,0,0,1-.887,3.145A2.843,2.843,0,0,1-23.406.156,2.437,2.437,0,0,1-25.32-.7V3.25h-2.633v-11.7h2.461l.078.781a2.437,2.437,0,0,1,1.992-.937,2.866,2.866,0,0,1,2.43,1.152,5.16,5.16,0,0,1,.867,3.168Zm-2.633-.164q0-2.25-1.312-2.25a1.239,1.239,0,0,0-1.25.672v3.328a1.279,1.279,0,0,0,1.266.7q1.258,0,1.3-2.172ZM-14.875.156A4.345,4.345,0,0,1-18.023-1a4.006,4.006,0,0,1-1.2-3.02v-.219a5.191,5.191,0,0,1,.48-2.289,3.516,3.516,0,0,1,1.4-1.535,4.233,4.233,0,0,1,2.188-.543A3.659,3.659,0,0,1-12.344-7.5a4.344,4.344,0,0,1,1.031,3.082V-3.4h-5.234a1.9,1.9,0,0,0,.617,1.117,1.836,1.836,0,0,0,1.234.406,2.366,2.366,0,0,0,1.953-.875l1.2,1.422A3.363,3.363,0,0,1-12.934-.246,4.713,4.713,0,0,1-14.875.156Zm-.3-6.734q-1.156,0-1.375,1.531h2.656v-.2a1.3,1.3,0,0,0-.32-.98A1.275,1.275,0,0,0-15.172-6.578Zm10.031.508-.867-.062A1.558,1.558,0,0,0-7.6-5.352V0h-2.633V-8.453h2.469l.086,1.086A2.039,2.039,0,0,1-5.828-8.609a2.567,2.567,0,0,1,.734.094ZM-3.578,0V-6.625H-4.8V-8.453h1.227v-.281A3.228,3.228,0,0,1-2.469-11.32a4.433,4.433,0,0,1,2.883-.844,10.23,10.23,0,0,1,2.75.453L2.8-9.633,2.367-9.75a6.962,6.962,0,0,0-1.8-.227Q-.938-9.977-.937-8.6v.148H.719v1.828H-.937V0ZM4.375,0H1.727V-8.453H4.375Zm5.18-1.875a1.171,1.171,0,0,0,.859-.3,1.1,1.1,0,0,0,.3-.84H13.18a2.922,2.922,0,0,1-1,2.281A3.705,3.705,0,0,1,9.617.156,3.751,3.751,0,0,1,6.711-1,4.556,4.556,0,0,1,5.648-4.2v-.109a5.149,5.149,0,0,1,.473-2.262A3.441,3.441,0,0,1,7.484-8.082a4.065,4.065,0,0,1,2.109-.527,3.658,3.658,0,0,1,2.617.914,3.242,3.242,0,0,1,.969,2.477H10.711a1.445,1.445,0,0,0-.32-1.008,1.106,1.106,0,0,0-.859-.352q-1.023,0-1.2,1.3a9.206,9.206,0,0,0-.055,1.141,3.616,3.616,0,0,0,.3,1.766A1.055,1.055,0,0,0,9.555-1.875ZM17.07,0H14.43V-8.453H17.07Zm-2.8-10.633a1.175,1.175,0,0,1,.406-.922,1.533,1.533,0,0,1,1.055-.359,1.533,1.533,0,0,1,1.055.359,1.175,1.175,0,0,1,.406.922,1.175,1.175,0,0,1-.406.922,1.533,1.533,0,0,1-1.055.359,1.533,1.533,0,0,1-1.055-.359A1.175,1.175,0,0,1,14.273-10.633ZM23.453,0a2.973,2.973,0,0,1-.25-.758,2.448,2.448,0,0,1-2.031.914,3,3,0,0,1-2.031-.723A2.3,2.3,0,0,1,18.3-2.383,2.364,2.364,0,0,1,19.32-4.461a5.174,5.174,0,0,1,2.953-.7h.813v-.448q0-1.17-1.008-1.17a.824.824,0,0,0-.937.926H18.508a2.36,2.36,0,0,1,1.043-1.99,4.383,4.383,0,0,1,2.66-.765,3.843,3.843,0,0,1,2.555.789,2.743,2.743,0,0,1,.961,2.164v3.742a3.832,3.832,0,0,0,.359,1.781V0ZM21.8-1.719a1.469,1.469,0,0,0,.816-.211,1.322,1.322,0,0,0,.465-.477V-3.758H22.32q-1.375,0-1.375,1.234a.754.754,0,0,0,.242.582A.876.876,0,0,0,21.8-1.719ZM29.961,0H27.32V-12h2.641Zm5.711.156A4.345,4.345,0,0,1,32.523-1a4.006,4.006,0,0,1-1.2-3.02v-.219a5.191,5.191,0,0,1,.48-2.289,3.516,3.516,0,0,1,1.4-1.535,4.233,4.233,0,0,1,2.188-.543A3.659,3.659,0,0,1,38.2-7.5a4.344,4.344,0,0,1,1.031,3.082V-3.4H34a1.9,1.9,0,0,0,.617,1.117,1.836,1.836,0,0,0,1.234.406A2.366,2.366,0,0,0,37.8-2.75l1.2,1.422A3.363,3.363,0,0,1,37.613-.246,4.713,4.713,0,0,1,35.672.156Zm-.3-6.734q-1.156,0-1.375,1.531h2.656v-.2a1.3,1.3,0,0,0-.32-.98A1.275,1.275,0,0,0,35.375-6.578Zm9.344,4.2a.608.608,0,0,0-.352-.539,5.348,5.348,0,0,0-1.336-.422,6.092,6.092,0,0,1-1.625-.574,2.722,2.722,0,0,1-.977-.863,2.061,2.061,0,0,1-.336-1.164,2.336,2.336,0,0,1,.961-1.918,3.958,3.958,0,0,1,2.516-.754,4.386,4.386,0,0,1,2.688.758,2.37,2.37,0,0,1,1.016,1.992H44.633q0-1.016-1.07-1.016a1.061,1.061,0,0,0-.7.23.714.714,0,0,0-.281.574.655.655,0,0,0,.344.57,3.248,3.248,0,0,0,1.1.359,9.485,9.485,0,0,1,1.324.336,2.406,2.406,0,0,1,1.906,2.352A2.214,2.214,0,0,1,46.23-.57a4.505,4.505,0,0,1-2.66.727,4.6,4.6,0,0,1-1.937-.391A3.24,3.24,0,0,1,40.3-1.3a2.406,2.406,0,0,1-.477-1.414h2.461a1.017,1.017,0,0,0,.391.855,1.607,1.607,0,0,0,.961.27,1.264,1.264,0,0,0,.809-.219A.7.7,0,0,0,44.719-2.375Z" transform="translate(-9263.543 -7214.494)" fill="#12263f"/>
      <path id="Trazado_693200" data-name="Trazado 693200" d="M-23.91-3.852a4.154,4.154,0,0,1-.641,2.1A3.866,3.866,0,0,1-26.2-.344a5.6,5.6,0,0,1-2.418.5A4.467,4.467,0,0,1-32.145-1.3,6.032,6.032,0,0,1-33.434-5.43v-.562a6.885,6.885,0,0,1,.582-2.926,4.41,4.41,0,0,1,1.676-1.937,4.676,4.676,0,0,1,2.531-.684,4.9,4.9,0,0,1,3.328,1.09,4.306,4.306,0,0,1,1.43,3h-2.734a2.037,2.037,0,0,0-.523-1.492,2.153,2.153,0,0,0-1.5-.453,1.638,1.638,0,0,0-1.5.766,4.921,4.921,0,0,0-.5,2.445v.8a5.445,5.445,0,0,0,.457,2.6,1.672,1.672,0,0,0,1.574.781,2.106,2.106,0,0,0,1.445-.445,1.89,1.89,0,0,0,.531-1.414ZM-17.973,0a2.973,2.973,0,0,1-.25-.758,2.448,2.448,0,0,1-2.031.914,3,3,0,0,1-2.031-.723,2.3,2.3,0,0,1-.836-1.816,2.364,2.364,0,0,1,1.016-2.078,5.174,5.174,0,0,1,2.953-.7h.813v-.448q0-1.17-1.008-1.17a.824.824,0,0,0-.937.926h-2.633a2.36,2.36,0,0,1,1.043-1.99,4.383,4.383,0,0,1,2.66-.765,3.843,3.843,0,0,1,2.555.789A2.743,2.743,0,0,1-15.7-5.656v3.742A3.832,3.832,0,0,0-15.34-.133V0Zm-1.648-1.719A1.469,1.469,0,0,0-18.8-1.93a1.322,1.322,0,0,0,.465-.477V-3.758h-.766q-1.375,0-1.375,1.234a.754.754,0,0,0,.242.582A.876.876,0,0,0-19.621-1.719ZM-9.129-6.07-10-6.133a1.558,1.558,0,0,0-1.594.781V0h-2.633V-8.453h2.469l.086,1.086A2.039,2.039,0,0,1-9.816-8.609a2.567,2.567,0,0,1,.734.094Zm3.367-2.383.086.992A2.867,2.867,0,0,1-3.262-8.609a2.412,2.412,0,0,1,1.973.789A3.757,3.757,0,0,1-.613-5.445V0H-3.254V-5.336a1.426,1.426,0,0,0-.258-.941,1.193,1.193,0,0,0-.937-.3A1.256,1.256,0,0,0-5.6-5.969V0H-8.23V-8.453ZM.512-4.3A4.989,4.989,0,0,1,1-6.559a3.52,3.52,0,0,1,1.414-1.52,4.259,4.259,0,0,1,2.164-.531A3.887,3.887,0,0,1,7.574-7.434a4.512,4.512,0,0,1,1.094,3.2v.094A4.378,4.378,0,0,1,7.57-1,3.9,3.9,0,0,1,4.6.156,3.942,3.942,0,0,1,1.7-.926,4.232,4.232,0,0,1,.52-3.859Zm2.633.164a3.145,3.145,0,0,0,.367,1.719A1.223,1.223,0,0,0,4.6-1.875Q6-1.875,6.035-4.039V-4.3q0-2.273-1.453-2.273-1.32,0-1.43,1.961ZM14.254-2.375a.608.608,0,0,0-.352-.539,5.348,5.348,0,0,0-1.336-.422,6.092,6.092,0,0,1-1.625-.574,2.722,2.722,0,0,1-.977-.863,2.061,2.061,0,0,1-.336-1.164,2.336,2.336,0,0,1,.961-1.918,3.958,3.958,0,0,1,2.516-.754,4.386,4.386,0,0,1,2.688.758,2.37,2.37,0,0,1,1.016,1.992H14.168q0-1.016-1.07-1.016a1.061,1.061,0,0,0-.7.23.714.714,0,0,0-.281.574.655.655,0,0,0,.344.57,3.248,3.248,0,0,0,1.1.359,9.485,9.485,0,0,1,1.324.336,2.406,2.406,0,0,1,1.906,2.352A2.214,2.214,0,0,1,15.766-.57a4.505,4.505,0,0,1-2.66.727,4.6,4.6,0,0,1-1.937-.391A3.24,3.24,0,0,1,9.84-1.3a2.406,2.406,0,0,1-.477-1.414h2.461a1.017,1.017,0,0,0,.391.855,1.607,1.607,0,0,0,.961.27,1.264,1.264,0,0,0,.809-.219A.7.7,0,0,0,14.254-2.375ZM22.785,0a2.973,2.973,0,0,1-.25-.758A2.448,2.448,0,0,1,20.5.156a3,3,0,0,1-2.031-.723,2.3,2.3,0,0,1-.836-1.816,2.364,2.364,0,0,1,1.016-2.078,5.174,5.174,0,0,1,2.953-.7h.813v-.448q0-1.17-1.008-1.17a.824.824,0,0,0-.937.926H17.84a2.36,2.36,0,0,1,1.043-1.99,4.383,4.383,0,0,1,2.66-.765A3.843,3.843,0,0,1,24.1-7.82a2.743,2.743,0,0,1,.961,2.164v3.742a3.832,3.832,0,0,0,.359,1.781V0ZM21.137-1.719a1.469,1.469,0,0,0,.816-.211,1.322,1.322,0,0,0,.465-.477V-3.758h-.766q-1.375,0-1.375,1.234a.754.754,0,0,0,.242.582A.876.876,0,0,0,21.137-1.719Zm9.8-.656a.608.608,0,0,0-.352-.539,5.348,5.348,0,0,0-1.336-.422,6.092,6.092,0,0,1-1.625-.574,2.722,2.722,0,0,1-.977-.863,2.061,2.061,0,0,1-.336-1.164,2.336,2.336,0,0,1,.961-1.918,3.958,3.958,0,0,1,2.516-.754,4.386,4.386,0,0,1,2.688.758A2.37,2.37,0,0,1,33.5-5.859H30.855q0-1.016-1.07-1.016a1.061,1.061,0,0,0-.7.23.714.714,0,0,0-.281.574.655.655,0,0,0,.344.57,3.248,3.248,0,0,0,1.1.359,9.486,9.486,0,0,1,1.324.336A2.406,2.406,0,0,1,33.48-2.453,2.214,2.214,0,0,1,32.453-.57a4.505,4.505,0,0,1-2.66.727,4.6,4.6,0,0,1-1.937-.391A3.24,3.24,0,0,1,26.527-1.3a2.406,2.406,0,0,1-.477-1.414h2.461a1.017,1.017,0,0,0,.391.855,1.607,1.607,0,0,0,.961.27,1.264,1.264,0,0,0,.809-.219A.7.7,0,0,0,30.941-2.375Z" transform="translate(-9105.899 -7214.494)" fill="#12263f"/>
      <path id="Trazado_693201" data-name="Trazado 693201" d="M-28.488-2.125h-3.758L-32.9,0h-2.93l4.172-11.375h2.578L-24.879,0h-2.945Zm-3.1-2.117h2.445l-1.227-3.945ZM-20.6-1.875a1.171,1.171,0,0,0,.859-.3,1.1,1.1,0,0,0,.3-.84h2.469a2.922,2.922,0,0,1-1,2.281,3.705,3.705,0,0,1-2.566.891A3.751,3.751,0,0,1-23.441-1,4.556,4.556,0,0,1-24.5-4.2v-.109a5.149,5.149,0,0,1,.473-2.262,3.441,3.441,0,0,1,1.363-1.508,4.065,4.065,0,0,1,2.109-.527,3.658,3.658,0,0,1,2.617.914,3.242,3.242,0,0,1,.969,2.477h-2.469a1.445,1.445,0,0,0-.32-1.008,1.106,1.106,0,0,0-.859-.352q-1.023,0-1.2,1.3a9.206,9.206,0,0,0-.055,1.141,3.616,3.616,0,0,0,.3,1.766A1.055,1.055,0,0,0-20.6-1.875Zm9.773.961A2.714,2.714,0,0,1-13.082.156a2.662,2.662,0,0,1-2.105-.809A3.4,3.4,0,0,1-15.9-2.977V-8.453h2.633v5.492a.946.946,0,0,0,1.055,1.086,1.376,1.376,0,0,0,1.289-.648v-5.93h2.648V0h-2.469ZM-2.074,0a2.973,2.973,0,0,1-.25-.758A2.448,2.448,0,0,1-4.355.156,3,3,0,0,1-6.387-.566a2.3,2.3,0,0,1-.836-1.816A2.364,2.364,0,0,1-6.207-4.461a5.174,5.174,0,0,1,2.953-.7h.813v-.448q0-1.17-1.008-1.17a.824.824,0,0,0-.937.926H-7.02a2.36,2.36,0,0,1,1.043-1.99,4.383,4.383,0,0,1,2.66-.765A3.843,3.843,0,0,1-.762-7.82,2.743,2.743,0,0,1,.2-5.656v3.742A3.832,3.832,0,0,0,.559-.133V0ZM-3.723-1.719a1.469,1.469,0,0,0,.816-.211,1.322,1.322,0,0,0,.465-.477V-3.758h-.766q-1.375,0-1.375,1.234a.754.754,0,0,0,.242.582A.876.876,0,0,0-3.723-1.719ZM-3.066-12H-.285L-2.457-9.547l-2.148,0Zm7.789,1.445v2.1H6.113v1.828H4.723v3.867a.987.987,0,0,0,.172.664.922.922,0,0,0,.68.188,3.862,3.862,0,0,0,.656-.047V-.07A4.859,4.859,0,0,1,4.746.156,2.758,2.758,0,0,1,2.738-.484,2.626,2.626,0,0,1,2.09-2.43v-4.2H1.012V-8.453H2.09v-2.1ZM9.926,0H7.285V-8.453H9.926Zm-2.8-10.633a1.175,1.175,0,0,1,.406-.922,1.533,1.533,0,0,1,1.055-.359,1.533,1.533,0,0,1,1.055.359,1.175,1.175,0,0,1,.406.922,1.175,1.175,0,0,1-.406.922,1.533,1.533,0,0,1-1.055.359,1.533,1.533,0,0,1-1.055-.359A1.175,1.175,0,0,1,7.129-10.633Zm7.992,8.758a1.171,1.171,0,0,0,.859-.3,1.1,1.1,0,0,0,.3-.84h2.469a2.922,2.922,0,0,1-1,2.281,3.705,3.705,0,0,1-2.566.891A3.751,3.751,0,0,1,12.277-1a4.556,4.556,0,0,1-1.062-3.2v-.109a5.149,5.149,0,0,1,.473-2.262,3.441,3.441,0,0,1,1.363-1.508,4.065,4.065,0,0,1,2.109-.527,3.658,3.658,0,0,1,2.617.914,3.242,3.242,0,0,1,.969,2.477H16.277a1.445,1.445,0,0,0-.32-1.008,1.106,1.106,0,0,0-.859-.352q-1.023,0-1.2,1.3a9.206,9.206,0,0,0-.055,1.141,3.616,3.616,0,0,0,.3,1.766A1.055,1.055,0,0,0,15.121-1.875ZM24.621,0a2.973,2.973,0,0,1-.25-.758A2.448,2.448,0,0,1,22.34.156a3,3,0,0,1-2.031-.723,2.3,2.3,0,0,1-.836-1.816,2.364,2.364,0,0,1,1.016-2.078,5.174,5.174,0,0,1,2.953-.7h.813v-.448q0-1.17-1.008-1.17a.824.824,0,0,0-.937.926H19.676a2.36,2.36,0,0,1,1.043-1.99,4.383,4.383,0,0,1,2.66-.765,3.843,3.843,0,0,1,2.555.789,2.743,2.743,0,0,1,.961,2.164v3.742a3.832,3.832,0,0,0,.359,1.781V0ZM22.973-1.719a1.469,1.469,0,0,0,.816-.211,1.322,1.322,0,0,0,.465-.477V-3.758h-.766q-1.375,0-1.375,1.234a.754.754,0,0,0,.242.582A.876.876,0,0,0,22.973-1.719Zm9.8-.656a.608.608,0,0,0-.352-.539,5.348,5.348,0,0,0-1.336-.422,6.092,6.092,0,0,1-1.625-.574,2.722,2.722,0,0,1-.977-.863,2.061,2.061,0,0,1-.336-1.164,2.336,2.336,0,0,1,.961-1.918,3.958,3.958,0,0,1,2.516-.754,4.386,4.386,0,0,1,2.688.758,2.37,2.37,0,0,1,1.016,1.992H32.691q0-1.016-1.07-1.016a1.061,1.061,0,0,0-.7.23.714.714,0,0,0-.281.574.655.655,0,0,0,.344.57,3.248,3.248,0,0,0,1.1.359A9.485,9.485,0,0,1,33.41-4.8a2.406,2.406,0,0,1,1.906,2.352A2.214,2.214,0,0,1,34.289-.57a4.505,4.505,0,0,1-2.66.727,4.6,4.6,0,0,1-1.937-.391A3.24,3.24,0,0,1,28.363-1.3a2.406,2.406,0,0,1-.477-1.414h2.461a1.017,1.017,0,0,0,.391.855,1.607,1.607,0,0,0,.961.27,1.264,1.264,0,0,0,.809-.219A.7.7,0,0,0,32.777-2.375Z" transform="translate(-8926.581 -7214.494)" fill="#12263f"/>
      <path id="Trazado_693202" data-name="Trazado 693202" d="M-22.879-4.531H-27.3V0h-2.742V-11.375h7.609v2.117H-27.3v2.617h4.422ZM-18.637,0h-2.641V-8.453h2.641Zm-2.8-10.633a1.175,1.175,0,0,1,.406-.922,1.533,1.533,0,0,1,1.055-.359,1.533,1.533,0,0,1,1.055.359,1.175,1.175,0,0,1,.406.922,1.175,1.175,0,0,1-.406.922,1.533,1.533,0,0,1-1.055.359,1.533,1.533,0,0,1-1.055-.359A1.175,1.175,0,0,1-21.434-10.633ZM-9.168-4.156a5.152,5.152,0,0,1-.859,3.2A2.878,2.878,0,0,1-12.449.156,2.5,2.5,0,0,1-14.527-.867L-14.637,0H-17V-12h2.633v4.227a2.41,2.41,0,0,1,1.9-.836,2.879,2.879,0,0,1,2.438,1.133,5.179,5.179,0,0,1,.859,3.188Zm-2.641-.168a3.437,3.437,0,0,0-.324-1.735,1.093,1.093,0,0,0-1-.519,1.261,1.261,0,0,0-1.234.679v3.354a1.268,1.268,0,0,0,1.25.671,1.118,1.118,0,0,0,1.18-.9A6.5,6.5,0,0,0-11.809-4.324ZM-2.895-6.07l-.867-.062a1.558,1.558,0,0,0-1.594.781V0H-7.988V-8.453H-5.52l.086,1.086A2.039,2.039,0,0,1-3.582-8.609a2.567,2.567,0,0,1,.734.094ZM-2.559-4.3a4.989,4.989,0,0,1,.492-2.254A3.52,3.52,0,0,1-.652-8.078a4.259,4.259,0,0,1,2.164-.531A3.887,3.887,0,0,1,4.5-7.434,4.512,4.512,0,0,1,5.6-4.234v.094A4.378,4.378,0,0,1,4.5-1,3.9,3.9,0,0,1,1.527.156a3.942,3.942,0,0,1-2.9-1.082,4.232,4.232,0,0,1-1.18-2.934Zm2.633.164A3.145,3.145,0,0,0,.441-2.422a1.223,1.223,0,0,0,1.086.547q1.406,0,1.438-2.164V-4.3q0-2.273-1.453-2.273-1.32,0-1.43,1.961ZM11.184-2.375a.608.608,0,0,0-.352-.539A5.348,5.348,0,0,0,9.5-3.336,6.092,6.092,0,0,1,7.871-3.91a2.722,2.722,0,0,1-.977-.863,2.061,2.061,0,0,1-.336-1.164A2.336,2.336,0,0,1,7.52-7.855a3.958,3.958,0,0,1,2.516-.754,4.386,4.386,0,0,1,2.688.758,2.37,2.37,0,0,1,1.016,1.992H11.1q0-1.016-1.07-1.016a1.061,1.061,0,0,0-.7.23.714.714,0,0,0-.281.574.655.655,0,0,0,.344.57,3.248,3.248,0,0,0,1.1.359,9.485,9.485,0,0,1,1.324.336,2.406,2.406,0,0,1,1.906,2.352A2.214,2.214,0,0,1,12.7-.57a4.505,4.505,0,0,1-2.66.727A4.6,4.6,0,0,1,8.1-.234,3.24,3.24,0,0,1,6.77-1.3a2.406,2.406,0,0,1-.477-1.414H8.754a1.017,1.017,0,0,0,.391.855,1.607,1.607,0,0,0,.961.27,1.264,1.264,0,0,0,.809-.219A.7.7,0,0,0,11.184-2.375ZM19.715,0a2.973,2.973,0,0,1-.25-.758,2.448,2.448,0,0,1-2.031.914A3,3,0,0,1,15.4-.566a2.3,2.3,0,0,1-.836-1.816,2.364,2.364,0,0,1,1.016-2.078,5.174,5.174,0,0,1,2.953-.7h.813v-.448q0-1.17-1.008-1.17a.824.824,0,0,0-.937.926H14.77a2.36,2.36,0,0,1,1.043-1.99,4.383,4.383,0,0,1,2.66-.765,3.843,3.843,0,0,1,2.555.789,2.743,2.743,0,0,1,.961,2.164v3.742a3.832,3.832,0,0,0,.359,1.781V0ZM18.066-1.719a1.469,1.469,0,0,0,.816-.211,1.322,1.322,0,0,0,.465-.477V-3.758h-.766q-1.375,0-1.375,1.234a.754.754,0,0,0,.242.582A.876.876,0,0,0,18.066-1.719Zm9.8-.656a.608.608,0,0,0-.352-.539,5.348,5.348,0,0,0-1.336-.422,6.092,6.092,0,0,1-1.625-.574,2.722,2.722,0,0,1-.977-.863,2.061,2.061,0,0,1-.336-1.164,2.336,2.336,0,0,1,.961-1.918,3.958,3.958,0,0,1,2.516-.754,4.386,4.386,0,0,1,2.688.758,2.37,2.37,0,0,1,1.016,1.992H27.785q0-1.016-1.07-1.016a1.061,1.061,0,0,0-.7.23.714.714,0,0,0-.281.574.655.655,0,0,0,.344.57,3.248,3.248,0,0,0,1.1.359A9.486,9.486,0,0,1,28.5-4.8,2.406,2.406,0,0,1,30.41-2.453,2.214,2.214,0,0,1,29.383-.57a4.505,4.505,0,0,1-2.66.727,4.6,4.6,0,0,1-1.937-.391A3.24,3.24,0,0,1,23.457-1.3a2.406,2.406,0,0,1-.477-1.414h2.461a1.017,1.017,0,0,0,.391.855,1.607,1.607,0,0,0,.961.27A1.264,1.264,0,0,0,27.6-1.8.7.7,0,0,0,27.871-2.375Z" transform="translate(-9105.9 -7138.827)" fill="#12263f"/>
      <path id="Trazado_693203" data-name="Trazado 693203" d="M-18.215-2.125h-3.758L-22.629,0h-2.93l4.172-11.375h2.578L-14.605,0h-2.945Zm-3.1-2.117h2.445L-20.1-8.187ZM-9.809.156A4.345,4.345,0,0,1-12.957-1a4.006,4.006,0,0,1-1.2-3.02v-.219a5.191,5.191,0,0,1,.48-2.289,3.516,3.516,0,0,1,1.4-1.535,4.233,4.233,0,0,1,2.188-.543A3.659,3.659,0,0,1-7.277-7.5,4.344,4.344,0,0,1-6.246-4.422V-3.4H-11.48a1.9,1.9,0,0,0,.617,1.117,1.836,1.836,0,0,0,1.234.406A2.366,2.366,0,0,0-7.676-2.75l1.2,1.422A3.363,3.363,0,0,1-7.867-.246,4.713,4.713,0,0,1-9.809.156Zm-.3-6.734q-1.156,0-1.375,1.531h2.656v-.2a1.3,1.3,0,0,0-.32-.98A1.275,1.275,0,0,0-10.105-6.578Zm-.031-5.43h2.781L-9.527-9.555l-2.148,0ZM-.074-6.07l-.867-.062a1.558,1.558,0,0,0-1.594.781V0H-5.168V-8.453H-2.7l.086,1.086A2.039,2.039,0,0,1-.762-8.609a2.567,2.567,0,0,1,.734.094ZM4.965.156A4.345,4.345,0,0,1,1.816-1a4.006,4.006,0,0,1-1.2-3.02v-.219a5.191,5.191,0,0,1,.48-2.289A3.516,3.516,0,0,1,2.5-8.066a4.233,4.233,0,0,1,2.188-.543A3.659,3.659,0,0,1,7.5-7.5,4.344,4.344,0,0,1,8.527-4.422V-3.4H3.293A1.9,1.9,0,0,0,3.91-2.281a1.836,1.836,0,0,0,1.234.406A2.366,2.366,0,0,0,7.1-2.75L8.3-1.328A3.363,3.363,0,0,1,6.906-.246,4.713,4.713,0,0,1,4.965.156Zm-.3-6.734q-1.156,0-1.375,1.531H5.949v-.2a1.3,1.3,0,0,0-.32-.98A1.275,1.275,0,0,0,4.668-6.578ZM14.348,0a2.973,2.973,0,0,1-.25-.758,2.448,2.448,0,0,1-2.031.914,3,3,0,0,1-2.031-.723A2.3,2.3,0,0,1,9.2-2.383a2.364,2.364,0,0,1,1.016-2.078,5.174,5.174,0,0,1,2.953-.7h.813v-.448q0-1.17-1.008-1.17a.824.824,0,0,0-.937.926H9.4a2.36,2.36,0,0,1,1.043-1.99,4.383,4.383,0,0,1,2.66-.765,3.843,3.843,0,0,1,2.555.789,2.743,2.743,0,0,1,.961,2.164v3.742A3.832,3.832,0,0,0,16.98-.133V0ZM12.7-1.719a1.469,1.469,0,0,0,.816-.211,1.322,1.322,0,0,0,.465-.477V-3.758h-.766q-1.375,0-1.375,1.234a.754.754,0,0,0,.242.582A.876.876,0,0,0,12.7-1.719Zm9.8-.656a.608.608,0,0,0-.352-.539,5.348,5.348,0,0,0-1.336-.422,6.092,6.092,0,0,1-1.625-.574,2.722,2.722,0,0,1-.977-.863,2.061,2.061,0,0,1-.336-1.164,2.336,2.336,0,0,1,.961-1.918,3.958,3.958,0,0,1,2.516-.754,4.386,4.386,0,0,1,2.688.758,2.37,2.37,0,0,1,1.016,1.992H22.418q0-1.016-1.07-1.016a1.061,1.061,0,0,0-.7.23.714.714,0,0,0-.281.574.655.655,0,0,0,.344.57,3.248,3.248,0,0,0,1.1.359,9.486,9.486,0,0,1,1.324.336,2.406,2.406,0,0,1,1.906,2.352A2.214,2.214,0,0,1,24.016-.57a4.505,4.505,0,0,1-2.66.727,4.6,4.6,0,0,1-1.937-.391A3.24,3.24,0,0,1,18.09-1.3a2.406,2.406,0,0,1-.477-1.414h2.461a1.017,1.017,0,0,0,.391.855,1.607,1.607,0,0,0,.961.27,1.264,1.264,0,0,0,.809-.219A.7.7,0,0,0,22.5-2.375Z" transform="translate(-8926.584 -7138.827)" fill="#12263f"/>
    </g>
  </g>
</svg>
