<svg xmlns="http://www.w3.org/2000/svg" xmlns:xlink="http://www.w3.org/1999/xlink" width="332.511" height="385.23" viewBox="0 0 332.511 385.23">
  <defs>
    <linearGradient id="linear-gradient" x1="0.504" y1="0.221" x2="0.466" y2="0.739" gradientUnits="objectBoundingBox">
      <stop offset="0" stop-color="#74b33c"/>
      <stop offset="1" stop-color="#549e2a"/>
    </linearGradient>
  </defs>
  <g id="Grupo_953508" data-name="Grupo 953508" transform="translate(6748 10869.11)">
    <rect id="Rect치ngulo_34790" data-name="Rect치ngulo 34790" width="331.858" height="385.231" rx="20" transform="translate(-6748 -10869.11)" fill="#ffe9e1"/>
    <path id="Rect치ngulo_34791" data-name="Rect치ngulo 34791" d="M0,0H331.858a0,0,0,0,1,0,0V28.989a20,20,0,0,1-20,20H20a20,20,0,0,1-20-20V0A0,0,0,0,1,0,0Z" transform="translate(-6747.347 -10534.216)" fill="#adce32"/>
    <path id="Trazado_693143" data-name="Trazado 693143" d="M-37.167-4.814h-4.7V0h-2.914V-12.086h8.085v2.25h-5.171v2.781h4.7ZM-30.833,0A3.159,3.159,0,0,1-31.1-.805a2.6,2.6,0,0,1-2.158.971A3.187,3.187,0,0,1-35.415-.6a2.444,2.444,0,0,1-.888-1.93A2.512,2.512,0,0,1-35.224-4.74a5.5,5.5,0,0,1,3.138-.747h.863v-.475q0-1.243-1.071-1.243a.875.875,0,0,0-1,.984h-2.8a2.508,2.508,0,0,1,1.108-2.114,4.657,4.657,0,0,1,2.826-.813,4.083,4.083,0,0,1,2.714.838,2.915,2.915,0,0,1,1.021,2.3v3.976a4.072,4.072,0,0,0,.382,1.893V0Zm-1.751-1.826a1.56,1.56,0,0,0,.867-.224,1.4,1.4,0,0,0,.494-.506V-3.993h-.813q-1.461,0-1.461,1.312a.8.8,0,0,0,.257.618A.931.931,0,0,0-32.585-1.826Zm10.417-.7a.646.646,0,0,0-.374-.573,5.682,5.682,0,0,0-1.419-.448,6.473,6.473,0,0,1-1.727-.61,2.892,2.892,0,0,1-1.038-.917,2.19,2.19,0,0,1-.357-1.237A2.482,2.482,0,0,1-26.06-8.346a4.206,4.206,0,0,1,2.673-.8,4.66,4.66,0,0,1,2.855.805,2.518,2.518,0,0,1,1.079,2.117h-2.806q0-1.079-1.137-1.079a1.127,1.127,0,0,0-.739.245.758.758,0,0,0-.3.61.7.7,0,0,0,.365.606,3.451,3.451,0,0,0,1.166.382,10.078,10.078,0,0,1,1.407.357,2.556,2.556,0,0,1,2.025,2.5,2.352,2.352,0,0,1-1.092,2,4.787,4.787,0,0,1-2.826.772,4.885,4.885,0,0,1-2.059-.415,3.442,3.442,0,0,1-1.411-1.129,2.556,2.556,0,0,1-.506-1.5h2.615a1.081,1.081,0,0,0,.415.909,1.707,1.707,0,0,0,1.021.286,1.343,1.343,0,0,0,.859-.232A.743.743,0,0,0-22.167-2.523ZM-13.817.166a4.617,4.617,0,0,1-3.345-1.233A4.257,4.257,0,0,1-18.44-4.275v-.232a5.516,5.516,0,0,1,.51-2.432,3.735,3.735,0,0,1,1.49-1.631,4.5,4.5,0,0,1,2.324-.577,3.888,3.888,0,0,1,2.988,1.175,4.616,4.616,0,0,1,1.1,3.275v1.087h-5.562a2.016,2.016,0,0,0,.656,1.187,1.951,1.951,0,0,0,1.312.432,2.514,2.514,0,0,0,2.075-.93l1.278,1.511a3.573,3.573,0,0,1-1.482,1.15A5.007,5.007,0,0,1-13.817.166Zm-.315-7.155q-1.229,0-1.461,1.627h2.822v-.216a1.386,1.386,0,0,0-.34-1.042A1.354,1.354,0,0,0-14.132-6.989ZM-1.664-8.981V.307a3.26,3.26,0,0,1-.913,2.457A3.508,3.508,0,0,1-5.1,3.627a5.958,5.958,0,0,1-1.32-.141V1.37a5.352,5.352,0,0,0,.789.075A1.024,1.024,0,0,0-4.47.291V-8.981ZM-4.677-11.3a1.249,1.249,0,0,1,.432-.979,1.629,1.629,0,0,1,1.121-.382A1.629,1.629,0,0,1-2-12.277a1.249,1.249,0,0,1,.432.979A1.249,1.249,0,0,1-2-10.318a1.629,1.629,0,0,1-1.121.382,1.629,1.629,0,0,1-1.121-.382A1.249,1.249,0,0,1-4.677-11.3ZM5.267-.971A2.884,2.884,0,0,1,2.868.166,2.829,2.829,0,0,1,.631-.693a3.613,3.613,0,0,1-.76-2.469V-8.981h2.8v5.835A1,1,0,0,0,3.789-1.992a1.462,1.462,0,0,0,1.37-.689v-6.3H7.973V0H5.35Zm7.819-2.357,1.419-5.653h2.947L14.522,0H11.667L8.737-8.981h2.955ZM22.632.166a4.617,4.617,0,0,1-3.345-1.233,4.257,4.257,0,0,1-1.278-3.208v-.232a5.516,5.516,0,0,1,.51-2.432,3.735,3.735,0,0,1,1.49-1.631,4.5,4.5,0,0,1,2.324-.577,3.888,3.888,0,0,1,2.988,1.175,4.616,4.616,0,0,1,1.1,3.275v1.087H20.856a2.016,2.016,0,0,0,.656,1.187,1.951,1.951,0,0,0,1.312.432,2.514,2.514,0,0,0,2.075-.93l1.278,1.511a3.573,3.573,0,0,1-1.482,1.15A5.007,5.007,0,0,1,22.632.166Zm-.315-7.155q-1.229,0-1.461,1.627h2.822v-.216a1.386,1.386,0,0,0-.34-1.042A1.354,1.354,0,0,0,22.317-6.989Zm7.794-1.992L30.2-7.927a3.046,3.046,0,0,1,2.565-1.22,2.562,2.562,0,0,1,2.1.838,3.991,3.991,0,0,1,.718,2.523V0H32.776V-5.669a1.516,1.516,0,0,0-.274-1,1.267,1.267,0,0,0-1-.32,1.334,1.334,0,0,0-1.22.647V0h-2.8V-8.981ZM40.08,0H37.275V-8.981H40.08ZM37.109-11.3a1.249,1.249,0,0,1,.432-.979,1.629,1.629,0,0,1,1.121-.382,1.629,1.629,0,0,1,1.121.382,1.249,1.249,0,0,1,.432.979,1.249,1.249,0,0,1-.432.979,1.629,1.629,0,0,1-1.121.382,1.629,1.629,0,0,1-1.121-.382A1.249,1.249,0,0,1,37.109-11.3ZM44.754,0H41.948V-12.75h2.806Z" transform="translate(-6581.823 -10503.969)" fill="#12263f"/>
    <g id="Grupo_953436" data-name="Grupo 953436">
      <g id="Grupo_91811" data-name="Grupo 91811" transform="translate(-7744.255 -11700)">
        <g id="Grupo_85796" data-name="Grupo 85796" transform="translate(1179.903 972.619)">
          <g id="Grupo_85795" data-name="Grupo 85795">
            <path id="Trazado_122015" data-name="Trazado 122015" d="M296.292,280.961a16.945,16.945,0,0,1,8.5,2.291,27.276,27.276,0,0,1,46.688-1.637,21.2,21.2,0,0,1,41.563,3.767,16.942,16.942,0,0,1,2.694-.237A17.3,17.3,0,0,1,411.1,294.67H279.412A17.445,17.445,0,0,1,296.292,280.961Z" transform="translate(-279.412 -266.047)" fill="#fff"/>
          </g>
        </g>
        <g id="Grupo_85833" data-name="Grupo 85833" transform="translate(1013.255 934.823)">
          <path id="Trazado_122047" data-name="Trazado 122047" d="M129.062,237.363H55.385s5.4-22.128,24.453-22.128a27.877,27.877,0,0,1,24.3,13.556c5.569-2.178,17.558-4.822,24.926,8.572" transform="translate(-55.385 -215.235)" fill="#fff"/>
        </g>
        <g id="Grupo_85835" data-name="Grupo 85835" transform="translate(1229.652 855.479)">
          <g id="Grupo_85834" data-name="Grupo 85834" transform="translate(7.766 21.584)">
            <path id="Trazado_122048" data-name="Trazado 122048" d="M416.94,155.67H356.73s4.411-18.083,19.983-18.083a22.78,22.78,0,0,1,19.856,11.078c4.551-1.78,14.349-3.94,20.37,7.005" transform="translate(-356.73 -137.587)" fill="#fff"/>
          </g>
        </g>
        <g id="Grupo_85836" data-name="Grupo 85836" transform="translate(1131.967 1106.518)">
          <path id="Trazado_122049" data-name="Trazado 122049" d="M262.016,460.176H214.972s3.447-14.128,15.614-14.128A17.8,17.8,0,0,1,246.1,454.7c3.555-1.391,11.211-3.079,15.915,5.473" transform="translate(-214.972 -446.048)" fill="#fff"/>
        </g>
      </g>
      <g id="Grupo_86305" data-name="Grupo 86305" transform="translate(-6946.148 -10965.6)">
        <g id="Grupo_86284" data-name="Grupo 86284">
          <path id="Trazado_122710" data-name="Trazado 122710" d="M403.148,296.942a3.716,3.716,0,0,1,.145,4.225,11.663,11.663,0,0,1-1.709-1.273,18.335,18.335,0,0,0-1.952-1.235c-.375-.221-1.44-.539-1.584-.931a8.766,8.766,0,0,1,2.262-1.157A6.318,6.318,0,0,1,403.148,296.942Z" fill="#326900"/>
          <path id="Trazado_122711" data-name="Trazado 122711" d="M386.832,298.309c.737-2.048,3.319-5.058,5.644-5.267,1.55-.14,3.021,1.046,4.559,1.192,2.363.225,5.743.842,6.558,3.522a15.846,15.846,0,0,0-5.235.945,13.917,13.917,0,0,1-5.956.7C391.895,299.323,386.92,298.064,386.832,298.309Z" fill="#5ba233"/>
          <path id="Trazado_122712" data-name="Trazado 122712" d="M397.035,294.234a4.914,4.914,0,0,1-1.119-.259c-.206.027-.411.056-.616.09a17.682,17.682,0,0,0-8.3,3.825c-.064.143-.121.283-.17.419.088-.245,5.063,1.014,5.57,1.09a13.933,13.933,0,0,0,5.956-.7,15.846,15.846,0,0,1,5.235-.945C402.778,295.076,399.4,294.459,397.035,294.234Z" fill="#549e2a" opacity="0.39" style="mix-blend-mode: multiply;isolation: isolate"/>
          <path id="Trazado_122713" data-name="Trazado 122713" d="M396.945,294.717a8.655,8.655,0,0,0-5.226.36,17.855,17.855,0,0,0-2.56,1.284c-.523.319-1.9.961-2.157,1.529-.064.143-.121.283-.17.419.088-.245,5.063,1.014,5.57,1.09a8.8,8.8,0,0,0,2.856,0,21.327,21.327,0,0,1,2.251-.575c-.82.049-6.4-.059-6.264-1.385.093-.912,5.651-.742,6.43-.885a6.3,6.3,0,0,1-2.374-.077c-.424-.08-2.138-.3-2.385-.724-.468-.811,3.613-1.029,4.147-1.013Z" fill="#549e2a" opacity="0.39" style="mix-blend-mode: multiply;isolation: isolate"/>
          <path id="Trazado_122714" data-name="Trazado 122714" d="M392.829,294.92a.034.034,0,0,0,.045.026,7.926,7.926,0,0,1,3.326-.167,18.953,18.953,0,0,0,3.7.435c.017,0,.017-.03,0-.03a12.474,12.474,0,0,1-1.915-.245c-.624-.125-1.239-.286-1.867-.386a8.358,8.358,0,0,0-1.579-.114,9.7,9.7,0,0,1,1.75-.2c.339-.006.851.08,1.069.053a3.733,3.733,0,0,0-.64-.2,8.3,8.3,0,0,0-4.563.8,19.8,19.8,0,0,0-1.869.849c.223-.244.45-.486.673-.73.475-.519.958-1.019,1.47-1.5.023-.023-.007-.062-.031-.04-.517.46-1.033.925-1.533,1.4-.234.224-.458.455-.68.69-.138.146-.279.3-.41.454-.483.265-.957.55-1.426.842.028-.052.055-.105.084-.156.117-.21.243-.416.375-.616.248-.378.521-.735.8-1.09.008-.011-.006-.025-.016-.017a7.651,7.651,0,0,0-.861,1.048c-.13.189-.254.381-.371.578-.075.125-.155.254-.22.388-1.023.647-2.018,1.342-3,2.047a8.175,8.175,0,0,0-1.91,1.548,1.053,1.053,0,0,0,1.106-.015,10.068,10.068,0,0,0,1.528-1.3,32.333,32.333,0,0,1,3.092-2.421c.245-.061.5-.1.744-.149.32-.058.641-.11.965-.14a13.726,13.726,0,0,1,2.018-.01c1.335.074,2.667.23,4.007.177a8.216,8.216,0,0,0,2.2-.352c.023-.007.012-.048-.013-.042-2.676.644-5.386-.277-8.087-.075a6.305,6.305,0,0,0-1.111.163c-.032.007-.063.018-.1.028.315-.19.637-.376.976-.549A18.874,18.874,0,0,1,392.829,294.92Z" fill="#74b33c"/>
        </g>
        <g id="Grupo_86285" data-name="Grupo 86285">
          <path id="Trazado_122715" data-name="Trazado 122715" d="M380.145,335.711c-1.04-2.438-.842-6,1.289-7.734,2.551-2.076,7.088-1.713,10.175-1.971,1.133-.1,2.148-.338,3.275-.512a8.3,8.3,0,0,1,.01,2.137,18.315,18.315,0,0,1-.267,2.114,13.175,13.175,0,0,1-4.939,7.606c-2.924,2.406-7.362,2.549-9.322-1.175Q380.247,335.951,380.145,335.711Z" fill="#5ba233"/>
          <path id="Trazado_122716" data-name="Trazado 122716" d="M380.88,336.76a4.481,4.481,0,0,1-.463-.882c-.064-.165-.141-.332-.217-.484.445-.454.988-.793,1.448-1.228.4-.379.739-.809,1.164-1.173a13.3,13.3,0,0,1,3.02-1.9c1.494-.7,3.139-.985,4.616-1.71a10.325,10.325,0,0,0,2.862-2.039,16.865,16.865,0,0,1,1.376-1.365c.16.242-.016.926.011,1.257a10.758,10.758,0,0,1-.175,2.552,9.546,9.546,0,0,1-1.961,4.161c-1.609,2.1-3.823,4.471-6.581,4.811a7.2,7.2,0,0,1-2.229-.145A4.409,4.409,0,0,1,380.88,336.76Z" fill="#549e2a" opacity="0.39" style="mix-blend-mode: multiply;isolation: isolate"/>
          <path id="Trazado_122717" data-name="Trazado 122717" d="M387,327.2a1.067,1.067,0,0,1,.867.027c.419.171.493.5.973.343a6.357,6.357,0,0,0,1.8-1.133c-.44-.263-1.307-.034-1.812-.04a17.934,17.934,0,0,0-2.4.071,8.856,8.856,0,0,0-4.731,1.8,5.41,5.41,0,0,0-1.576,2.218c-.18.484-.342,1,.322.746a6.49,6.49,0,0,0,2.073-1.777c.416-.46,1.019-1.353,1.647-1.533.46-.132.505.182.858.337.636.275,1.24-.523,1.676-.874A1.267,1.267,0,0,1,387,327.2Z" fill="#bfe15f" opacity="0.22" style="mix-blend-mode: screen;isolation: isolate"/>
          <path id="Trazado_122718" data-name="Trazado 122718" d="M381.068,336.5a1.973,1.973,0,0,1-.545-.508c-.655-.907.908-1.716,1.437-2.177a16.35,16.35,0,0,1,3.872-2.724c1.494-.7,3.139-.985,4.616-1.71a10.905,10.905,0,0,0,1.65-.992,16.637,16.637,0,0,1,1.47-1.188c-.389.64-1.364,1.037-1.644,1.731-.217.535.408.431.8.488-1.01.565-2.187.879-3.194,1.517-.3.191-.955.583-.922,1.027.017.216.2.307.325.448-.7-.063-4.24,1.245-2.921,2.067a3.673,3.673,0,0,0-2.1.664c-.654.429-.59.622-.306,1.215-.07-.146-1.058.372-1.216.407A1.779,1.779,0,0,1,381.068,336.5Z" fill="#549e2a" opacity="0.39" style="mix-blend-mode: multiply;isolation: isolate"/>
          <path id="Trazado_122719" data-name="Trazado 122719" d="M377.292,337.266c.215-.17.446-.324.562-.423,1.252-1.079,2.761-2.18,3.413-3.742a10.18,10.18,0,0,1,.742-1.4,9.579,9.579,0,0,1,2.047-2.431.02.02,0,0,1,.027.029,12.818,12.818,0,0,0-1.869,2.479,11.693,11.693,0,0,0-.636,1.413c-.092.233-.178.467-.254.7l0,.012c1.112-.9,2.611-1.608,3.319-2.861a8.118,8.118,0,0,1,.74-1.061c.519-.65,1.085-1.257,1.665-1.851.017-.019.051.009.035.029-.5.628-1.013,1.252-1.461,1.919-.216.321-.413.652-.6.99-.1.177-.186.367-.28.552.1-.2.89-.429,1.1-.526.371-.168.746-.329,1.121-.489a3.52,3.52,0,0,0,1.747-1.207,9.371,9.371,0,0,1,.569-.844,9.892,9.892,0,0,1,1.3-1.5c.018-.015.048.008.033.028-.393.522-.8,1.03-1.144,1.586-.167.266-.319.545-.476.817-.062.108-.12.219-.179.328.516-.225,1.028-.457,1.529-.713a14.49,14.49,0,0,0,3.318-2.265c.033-.03.076.018.046.051a14.777,14.777,0,0,1-4.338,2.942c.306-.041.613-.075.921-.1a8.741,8.741,0,0,0,2.774-.484c.046-.019.081.048.035.068a8.548,8.548,0,0,1-2.612.588,14.828,14.828,0,0,0-5.295,1.989,8.866,8.866,0,0,1,2.555.148c.6.1,1.2.207,1.813.243a7.127,7.127,0,0,0,1.86-.146c.025-.005.042.034.016.043a7.673,7.673,0,0,1-3.494.131c-.6-.063-1.207-.137-1.814-.157a5.231,5.231,0,0,0-3.132,1.155c.049.008.1.013.147.022a10.038,10.038,0,0,1,1,.232c.65.184,1.281.419,1.92.639a10.018,10.018,0,0,0,1.861.495,5.808,5.808,0,0,0,.941.056c.338-.009.665-.076,1-.109.016,0,.028.022.011.029a3.82,3.82,0,0,1-1.761.181,11.308,11.308,0,0,1-1.866-.313c-.662-.166-1.311-.373-1.966-.558a2.775,2.775,0,0,0-2.934.618l-.421.342a4.723,4.723,0,0,1,.851.234c.523.181,1.022.416,1.528.639a5.561,5.561,0,0,0,3.108.64.026.026,0,0,1,.011.051,5.421,5.421,0,0,1-3.025-.324c-.529-.183-1.048-.395-1.577-.58-.41-.143-.843-.227-1.252-.372-.046-.016-1.417,1.419-1.6,1.548a7.737,7.737,0,0,1-2.157,1.108C376.792,337.706,377.03,337.473,377.292,337.266Z" fill="#74b33c"/>
        </g>
        <g id="Grupo_86286" data-name="Grupo 86286">
          <path id="Trazado_122720" data-name="Trazado 122720" d="M342.859,345.682c-1.3-2.309-4.249-4.322-6.92-3.686-3.2.761-5.675,4.581-7.758,6.873-.765.841-1.576,1.5-2.4,2.286a8.231,8.231,0,0,0,1.688,1.309,18.275,18.275,0,0,0,1.839,1.075,13.169,13.169,0,0,0,9.042.712c3.689-.855,6.5-4.288,4.743-8.111C343.023,345.986,342.944,345.834,342.859,345.682Z" fill="#5ba233"/>
          <path id="Trazado_122721" data-name="Trazado 122721" d="M343.244,346.9a4.433,4.433,0,0,0-.418-.9c-.092-.152-.178-.314-.252-.468-.631.077-1.23.3-1.855.4-.546.089-1.092.092-1.639.209a13.271,13.271,0,0,0-3.348,1.237c-1.464.76-2.692,1.892-4.167,2.622a10.376,10.376,0,0,1-3.36,1.029,17.1,17.1,0,0,0-1.921.26c.1.274.746.552.991.774a10.784,10.784,0,0,0,2.131,1.415,9.535,9.535,0,0,0,4.495.977c2.644,0,5.875-.31,7.824-2.291a7.267,7.267,0,0,0,1.242-1.858A4.416,4.416,0,0,0,343.244,346.9Z" fill="#549e2a" opacity="0.39" style="mix-blend-mode: multiply;isolation: isolate"/>
          <path id="Trazado_122722" data-name="Trazado 122722" d="M331.938,345.939a1.063,1.063,0,0,0-.508.7c-.119.437.1.7-.319.981a6.343,6.343,0,0,1-2,.74c.059-.507.769-1.056,1.07-1.461a18.173,18.173,0,0,1,1.517-1.859,8.871,8.871,0,0,1,4.308-2.658,5.428,5.428,0,0,1,2.72.1c.493.152,1,.336.395.709a6.49,6.49,0,0,1-2.671.564,4.892,4.892,0,0,0-2.22.372c-.385.285-.162.512-.255.887-.168.671-1.169.666-1.713.8A1.294,1.294,0,0,0,331.938,345.939Z" fill="#bfe15f" opacity="0.22" style="mix-blend-mode: screen;isolation: isolate"/>
          <path id="Trazado_122723" data-name="Trazado 122723" d="M342.924,346.895a1.993,1.993,0,0,0-.073-.742c-.32-1.071-1.913-.324-2.6-.185a16.345,16.345,0,0,0-4.518,1.413c-1.464.76-2.692,1.892-4.167,2.622a11.077,11.077,0,0,1-1.792.705,16.662,16.662,0,0,0-1.837.442c.745.081,1.654-.45,2.374-.25.556.154.094.586-.1.933,1.064-.457,2.029-1.2,3.148-1.611.336-.123,1.044-.4,1.376-.1.161.145.125.342.158.531.376-.594,3.569-2.607,3.418-1.06a3.687,3.687,0,0,1,1.8-1.26c.739-.257.853-.089,1.151.5-.074-.144.938-.613,1.062-.717A1.781,1.781,0,0,0,342.924,346.895Z" fill="#549e2a" opacity="0.39" style="mix-blend-mode: multiply;isolation: isolate"/>
          <path id="Trazado_122724" data-name="Trazado 122724" d="M345.83,344.365c-.267.067-.529.158-.678.189-1.618.336-3.41.864-5.047.428a10.12,10.12,0,0,0-1.557-.259,9.623,9.623,0,0,0-3.176.143.02.02,0,0,0,.007.04,12.79,12.79,0,0,1,3.1.027,11.807,11.807,0,0,1,1.509.355c.24.068.479.144.714.228l.012,0c-1.389.336-2.866,1.092-4.291.89a8.085,8.085,0,0,0-1.292-.057,24.867,24.867,0,0,0-2.483.193c-.025,0-.024.046,0,.046.8-.015,1.61-.042,2.412.009.387.024.77.069,1.153.125.2.028.4.076.607.114-.223-.042-.881.444-1.088.555-.36.193-.716.392-1.071.592a3.527,3.527,0,0,1-2.021.652,9.569,9.569,0,0,0-1.016-.064,9.909,9.909,0,0,0-1.977.119c-.023,0-.023.042,0,.042.654.007,1.3,0,1.954.059.313.029.627.078.938.12.124.017.247.037.37.058-.493.271-.989.537-1.5.778a14.5,14.5,0,0,1-3.816,1.254.033.033,0,0,0,.011.066,14.756,14.756,0,0,0,4.976-1.65c-.219.218-.433.441-.637.673A8.757,8.757,0,0,1,329.881,352c-.043.025-.012.093.033.069a8.552,8.552,0,0,0,2.056-1.714,14.829,14.829,0,0,1,4.8-2.99,8.88,8.88,0,0,0-1.439,2.116c-.291.536-.568,1.082-.91,1.587a7.1,7.1,0,0,1-1.249,1.387c-.018.017,0,.053.025.039a7.659,7.659,0,0,0,2.231-2.692c.317-.517.626-1.042.98-1.534a5.232,5.232,0,0,1,2.822-1.783c-.023.044-.049.086-.072.13a10.1,10.1,0,0,0-.425.936c-.25.629-.448,1.271-.662,1.912a9.962,9.962,0,0,1-.741,1.778,5.886,5.886,0,0,1-.528.782c-.213.262-.465.481-.695.726-.011.012,0,.035.017.026a3.812,3.812,0,0,0,1.215-1.287,11.286,11.286,0,0,0,.888-1.672c.27-.625.5-1.265.754-1.9a2.774,2.774,0,0,1,2.276-1.951l.528-.126a4.645,4.645,0,0,0-.332.818c-.175.526-.293,1.064-.424,1.6a5.562,5.562,0,0,1-1.384,2.855.026.026,0,0,0,.034.04,5.428,5.428,0,0,0,1.584-2.6c.177-.533.324-1.074.5-1.6.135-.413.333-.808.467-1.22.015-.046,1.988-.26,2.2-.324a7.749,7.749,0,0,0,2.193-1.035C346.483,344.237,346.153,344.283,345.83,344.365Z" fill="#74b33c"/>
        </g>
        <g id="Grupo_86287" data-name="Grupo 86287">
          <path id="Trazado_122725" data-name="Trazado 122725" d="M348.623,339.528a2.745,2.745,0,0,0-.22-2.768c-3.255-5.729-10.846-4.6-15.922-2.608.2-.08,2.977,3.89,3.318,4.284,2.135,2.469,5.54,6.224,9.18,5.555,2.166-.4,1.956-2.012,3-3.423A6.186,6.186,0,0,0,348.623,339.528Z" fill="#549e2a"/>
          <path id="Trazado_122726" data-name="Trazado 122726" d="M342.1,335.491a15.422,15.422,0,0,0-6.768-1.559c-.726-.012-2.137-.2-2.776.231.153-.1,2.9,3.878,3.243,4.273,2.01,2.325,5.7,6.275,9.126,5.478a3.047,3.047,0,0,0,2.054-1.655C348.264,339.421,344.144,336.551,342.1,335.491Z" fill="#549e2a" opacity="0.39" style="mix-blend-mode: multiply;isolation: isolate"/>
          <path id="Trazado_122727" data-name="Trazado 122727" d="M345.526,336.829a31.4,31.4,0,0,0,3.183,4.983,1.547,1.547,0,0,1-.086,1.832c-.2-.145-.266-.667-.365-.913-.2-.492-.407-.972-.607-1.461-.12-.293-.275-.846-.645-.915-.335-.063-.865.458-1.151.594a7.958,7.958,0,0,1-3.191.919,7.409,7.409,0,0,0,2.715-1.036c.636-.319,1.776-.83.809-1.525-.948-.683-2.125-.33-3.166-.148a13.082,13.082,0,0,1-3.349.308,3.987,3.987,0,0,1,1.04-.125,10.629,10.629,0,0,0,4.358-1.1,2.955,2.955,0,0,0-1.018-1.013,2.718,2.718,0,0,0-1.449-.5,11.014,11.014,0,0,0-2.463.32,12.255,12.255,0,0,1-2.732.208,13.789,13.789,0,0,0,2.338-.407,7.013,7.013,0,0,0,2.49-.764,6.823,6.823,0,0,0-1.7-.925,6.233,6.233,0,0,0-2.08-.009,13.184,13.184,0,0,1-2.607.283c.534-.056,1.055-.247,1.581-.317a13.3,13.3,0,0,1,1.573-.424c-.775-.026-1.435-.462-2.207-.555-.977-.118-1.955-.248-2.94-.283a17.316,17.316,0,0,1,5.252.462c.038.008.075.021.113.03-.021-.021-.041-.043-.063-.064-.145-.141-.295-.278-.447-.413-.3-.266-.617-.516-.934-.763-.029-.024,0-.081.034-.061a4.843,4.843,0,0,1,.514.307c.169.119.334.242.494.371s.307.258.454.4a4.416,4.416,0,0,1,.336.335,12.491,12.491,0,0,1,2.241.9c.354.183.707.376,1.055.58-.189-.32-.382-.636-.578-.951-.4-.632-.833-1.244-1.224-1.88-.026-.041.026-.087.059-.049a18.637,18.637,0,0,1,1.357,1.819,7.806,7.806,0,0,0,1.815,1.995c.344.25,1.3.8,1.43,1.212-.01-.029-.018-.059-.028-.088-.13-.374-.271-.746-.417-1.114a19.439,19.439,0,0,0-.99-2.113c-.029-.053.054-.087.083-.037A20.089,20.089,0,0,1,345.526,336.829Z" fill="#74b33c"/>
          <path id="Trazado_122728" data-name="Trazado 122728" d="M338.389,332.768a7.6,7.6,0,0,1,4.222.3,8.859,8.859,0,0,1,4.216,2.206c.69.677,1.9,2.2,1.9,3.25,0,1.565-1.5.708-1.993-.116s-.809-1.746-1.328-2.555a4.691,4.691,0,0,0-.8-.922c-.12-.113-1.045-.7-1.056-.76.046.261.769,1.181.6,1.418-.315.444-1.03-.453-1.261-.717-.783-.895-1.279-1.768-2.538-1.866.318.024,1.125,1.531.137,1.5-.373-.013-.641-.48-.9-.694a7.739,7.739,0,0,0-1.526-.9A1.88,1.88,0,0,1,338.389,332.768Z" fill="#bfe15f" opacity="0.22" style="mix-blend-mode: screen;isolation: isolate"/>
        </g>
        <path id="Trazado_122729" data-name="Trazado 122729" d="M370.079,371.178a3.562,3.562,0,0,0-3.145.522c-.754.45-1.579.931-1.609,1.915-.117,3.765-.007,7.568,0,11.346.01,6.1.373,12.306.7,18.386a59.123,59.123,0,0,0,.234,6.611c.042.245-3.337.665-3.6.7-.3-6.957-.256-14.062-.019-21.011.136-4.008-.239-7.991-.284-11.992-.025-2.245.331-4.747-1.459-6.441a5.211,5.211,0,0,0-1.446-1.125c-1.028-.358-2.363.309-3.3.655a41.591,41.591,0,0,0-5.228,2.492,12.18,12.18,0,0,1-4.8,1.532c-1.622.127-3.664.094-5.039-.91-.78-.57-1.295-1.446-2.084-2.013a18.333,18.333,0,0,0-2.2-1.045,4.675,4.675,0,0,1,1.011-1.066,19.958,19.958,0,0,1,4.086-2.995,18.782,18.782,0,0,1,12.146-2.633,6.66,6.66,0,0,1,2.667.91,5.724,5.724,0,0,1,1.757,2.432,4.3,4.3,0,0,0,1.308,1.209,12.4,12.4,0,0,1,2.662,2.264,14.137,14.137,0,0,0,.119-1.974,23.278,23.278,0,0,0-.019-2.377c-.042-1.543-.124-3.087-.133-4.632a70.52,70.52,0,0,0-.355-9.9c-.358-2.425-1.052-3.375-3.114-4.706a20.194,20.194,0,0,0-4.96-2.27c-.745-.233-1.491-.477-2.248-.667a8.959,8.959,0,0,0-5.133.416c-.434.173-.935.623-1.4.605-.446-.016-.9-.134-1.363-.131a13,13,0,0,0,2.37-.975A5.173,5.173,0,0,0,348.379,343a3.912,3.912,0,0,1-.417-1.425c-.136-.553-.384-1.105-.486-1.658a11.305,11.305,0,0,0,1.892,2.459c.285.255.468.625.857.747.291.092.671.089.98.163,1.263.306,2.556.517,3.808.866,1.209.336,2.42.711,3.614,1.085,1.157.363,2.337.609,3.461,1.085a4.062,4.062,0,0,0,.141-1.683c-.012-.685.047-1.369.039-2.055q-.035-2.783-.069-5.567-.076-6.111-.156-12.22c-.021-1.607-.038-3.215-.069-4.823-.2-10.153-21.673-11.78-31.717-6.343,12.444-8.828,29.694-2.269,31.341-.08.406-2.7,1.19-23.294.487-27.516-.615-3.7-2.423-6.844-3.779-10.3a29.48,29.48,0,0,1-1.792-7.805c.318.142.4.5.532.879.529,1.475.652,3.088,1.2,4.548.881,2.335,2.348,4.3,3.4,6.546.608,1.3.941,3.123,1.856,4.234a4.819,4.819,0,0,1,.071-2.825c.358-1.24,1.188-1.744,1.735-2.819a12.017,12.017,0,0,1,.01,4.783,5.474,5.474,0,0,0,.61-3c1.3,2.065.331,3.759-.57,5.808.824-1.238,2.343-1.73,3.519-2.575a33.344,33.344,0,0,1,4.257-2.629c3.674-1.883,8.442-3.259,12.153-.707-6.238-2.552-11.992,1.388-16.561,5.545-.163.148-.337.3-.52.454a10.83,10.83,0,0,0-3.825,8.03l-.356,16.988c2.776-3.2,10.288-11.182,21.329-11.675a32.372,32.372,0,0,1,4.5-.037,5.988,5.988,0,0,1,2.087.4c.334.166.8.962,1.142.992-.764-.066-1.533-.309-2.313-.37a29.025,29.025,0,0,0-3.74-.044,29.4,29.4,0,0,0-6.238,1.057,28.073,28.073,0,0,0-13.548,8.46c-1.75,1.962-2.356,4.506-2.7,7.03a17.675,17.675,0,0,1,2.365.688,13.86,13.86,0,0,1,4.721,2.811,12.239,12.239,0,0,1,3.385,5.309c-1.052-2.708-3.415-4.307-5.731-5.87a10.876,10.876,0,0,0-4.907-1.729c-.192,1.932-.047,3.988-.055,5.94-.025,5.347.142,10.7.292,16.045.035,1.233.1,2.464.143,3.7.022.578.055,1.161.084,1.733a3.8,3.8,0,0,0,.084,1.435c.971-.5,1.841-1.385,2.782-1.974,1.1-.688,2.215-1.358,3.375-1.948,1.034-.526,2.042-1.085,3.114-1.536,1.2-.506,1.575-1.786,2.317-2.749.1-.124.272-.446.465-.694.136-.175.279-.312.406-.319.352-.02-.266,1.029-.32,1.139a21.207,21.207,0,0,0-1,2.2c-.009.028,1.012.18,1.1.2a15.561,15.561,0,0,1,2.4.608c.522.189,1.356.435,1.271,1.149-.5.144-1.041-.2-1.532-.274-.472-.067-.935-.179-1.408-.243a7.2,7.2,0,0,0-2.742.059,26.07,26.07,0,0,0-7.618,4.12c-1.978,1.444-2.8,3.942-3.086,6.267a39.481,39.481,0,0,0,.013,6.936c.1,1.814.11,3.632.158,5.447.023.9.056,1.789.114,2.681.03.444.062.89.109,1.333a5.882,5.882,0,0,0,.1,1.241c.637-.524,1.38-.975,1.97-1.553.869-.852,1.356-2.132,2.228-3.036,3.66-3.8,9.794-3.579,14.393-1.771.495.194.908.5,1.415.693.646.244,1.289.495,1.943.717a15.3,15.3,0,0,0,1.892.532c.206.043,1.9.39,1.981.205a6.386,6.386,0,0,1-1.167,2.267,10.815,10.815,0,0,1-2.959,1.968,26.124,26.124,0,0,1-4.181,1.762,32.651,32.651,0,0,1-4.514.876,9.641,9.641,0,0,1-6.117-1.271A10.034,10.034,0,0,0,370.079,371.178Z" fill="url(#linear-gradient)"/>
        <path id="Trazado_122730" data-name="Trazado 122730" d="M369.064,368.578c3.209-1.7,6.371-1.773,9.9-1.672,1.8.052,3.676.081,5.458.255,1.461.144,4.31.951,5.577-.165a6.392,6.392,0,0,1-2.972,3.316c-3.357,2.1-8.1,3.517-12.076,2.606-1.959-.448-3.572-1.9-5.576-2.156a4.921,4.921,0,0,0-4.384,2.171c-.2-.5.294-1.255.554-1.693C366.351,369.886,367.735,369.279,369.064,368.578Z" fill="#549e2a" opacity="0.39" style="mix-blend-mode: multiply;isolation: isolate"/>
        <path id="Trazado_122731" data-name="Trazado 122731" d="M358.512,368.755a18.692,18.692,0,0,0-2.192-.748c-.772-.177-1.542-.411-2.311-.611a16.465,16.465,0,0,0-6.487-.327,24.418,24.418,0,0,0-6.233,1.737c-1.106.465-2.229.932-3.31,1.453a1.447,1.447,0,0,1-.848.27,26.377,26.377,0,0,1,9.841-5.675c3.162-.943,7.387-1.566,9.945.863a5.771,5.771,0,0,1,1.182,1.361A10.043,10.043,0,0,1,358.512,368.755Z" fill="#bfe15f" opacity="0.11" style="mix-blend-mode: screen;isolation: isolate"/>
        <path id="Trazado_122732" data-name="Trazado 122732" d="M377.928,342.5a3.5,3.5,0,0,0-2.787-.431,19.041,19.041,0,0,0-5.539,2.342,26.747,26.747,0,0,0-2.768,1.964,11,11,0,0,1-1.612,1.3c-.518.268-.4.305-.56-.2a17.929,17.929,0,0,1-.328-5.009c-.053-4.048.141-8.051-.03-12.1-.176-4.159-.417-8.324-.189-12.486a12.771,12.771,0,0,1,2.373-7.258A24.37,24.37,0,0,1,374.1,303.9a16.077,16.077,0,0,1-2.7,1.7,30.815,30.815,0,0,0-3.578,2.6c-1.463,1.311-2.544,2.893-3.939,4.228-.182-3.89.152-7.85.153-11.755,0-4.913-.4-10.353,3.193-14.242,1.638-1.772,3.988-4.071,6.351-4.711-1.173.88-2.764,1.438-4.024,2.228-1.633,1.025-2.945,2.6-4.479,3.76.113-1.82,1.437-3.935.993-5.671a5.727,5.727,0,0,1-1.12,2.243c-.185-1.383.175-2.879.075-4.3a5.214,5.214,0,0,0-1.37,4.117c.05,2-.374,3.971-.174,5.955a34.308,34.308,0,0,1,.044,5.851c-.188,2.723.1,5.474,0,8.2-.09,2.465-.113,4.93-.163,7.4-.012.589-.787,5.035-.6,5.231-.882-.949-1.624-2.079-2.991-2.449,3.949,1.069,3.175,11.275,3.339,14.131.209,3.675.213,7.358.171,11.038-.021,1.922-.108,3.85-.088,5.771a14.146,14.146,0,0,1-.146,1.616c-.132,1.245-.047,1.665-1.288.891a13.612,13.612,0,0,0-3.3-1.774c-.639-.186-1.341-.373-1.934-.555.971.772,2.212,1.134,3.177,1.959a6.978,6.978,0,0,1,2.591,4.466,7.056,7.056,0,0,0,.3,2.331A3.215,3.215,0,0,1,363.31,352c.534.353.549,1.355.578,1.931.068,1.367.059,2.784.005,4.151a37.035,37.035,0,0,0,0,3.814c.04.63.024,1.254.04,1.883.032,1.18.021,2.36.038,3.541.02,1.31.03,2.621.017,3.928a6.019,6.019,0,0,1-.391,2.937c-.388-.127-.58-.648-.781-.972a16.258,16.258,0,0,0-1.164-1.664,5.973,5.973,0,0,0-2.226-1.838,7.354,7.354,0,0,1,3.105,4.229,11.858,11.858,0,0,1,.09,2.46c-.011.965.088,1.93.087,2.9,0,.942-.27,2.324.128,3.2.082-.3.235-1.571.666-1.621.522-.059.5,1.256.538,1.552a29.251,29.251,0,0,1,.192,3.732c0,3.267-.063,6.523-.089,9.8-.02,2.338-.026,4.676.057,7.013.045,1.265-.306,2.837.166,4.025.415-.067.889-.112,1.357-.144.063,0-.134-6.68-.142-7.078-.1-4.613-.19-9.226-.319-13.838-.071-2.476-.159-4.925-.179-7.391-.011-1.439.141-2.893.082-4.327a3.482,3.482,0,0,1-.035-.916,2.16,2.16,0,0,1,.55-.849c.691-.746,2.222-1.874,3.32-1.648a2.619,2.619,0,0,0-1.88.3c-.661.281-1.408.955-2.121,1.012a24.6,24.6,0,0,1-.349-4.1c-.094-1.227-.152-2.448-.226-3.676a22.028,22.028,0,0,1-.006-2.838,29.946,29.946,0,0,0-.1-3.2c-.042-1.124.023-2.259.023-3.384a11.153,11.153,0,0,1,1.428-6.272,9.762,9.762,0,0,1,3.093-2.856C371.367,344.146,374.727,341.525,377.928,342.5Z" fill="#378a1a" opacity="0.2" style="mix-blend-mode: multiply;isolation: isolate"/>
        <g id="Grupo_86288" data-name="Grupo 86288">
          <path id="Trazado_122733" data-name="Trazado 122733" d="M375.713,405.918c2.429,1.108,4.767,2.108,6.679,4.113a13.725,13.725,0,0,0,2.792,2.109,5.891,5.891,0,0,1,1.717,1.63c2.34,2.641,5.309,5.207,5.1,9.051-4.592.323-9.316.116-13.932.116H349.686c-5.334,0-10.506-.081-15.8-.081-.412-2.38,2.447-6.835,3.8-8.566,1.328-1.694,1.689-1.769,3.815-2.863,1.364-.7,2.436-2.268,3.68-2.909,2.267-1.17,5.645-1.4,7.435-3.359.71-.774.613-2.15,1.337-2.777.97-.839,2.267.11,3.333-.384,1.467-.68,1.1-1.49,3.051-.483,1.677.865,1.3.863,2.789.385a8.99,8.99,0,0,1,3.616-.551,7.3,7.3,0,0,0,1.458.175c.924-.059,1.349-.9,2.349-.3,1.37.824-.05,1.512.112,2.3.285,1.386,1.89.867,3.258,1.551C374.522,405.37,375.121,405.648,375.713,405.918Z" fill="#70451d"/>
          <path id="Trazado_122734" data-name="Trazado 122734" d="M355.08,416.77a2.435,2.435,0,0,1-.2.443c-1.23,2.187-4.63,2.1-6.71,2.067a20.337,20.337,0,0,0-8.657,1.422c-1.759.837-2.716,1.15-4.5-.091,1.082-2.494,1.787-5.72,4.531-6.975,1.024-.468,1.632-.35,2.546-1.115,1.373-1.148,2.209-2.3,3.865-3.171,1.1-.575,2.159-1.175,3.385-.71.68.256.752.742,1.218,1.018.842.5,2.36.777,2.837,1.731.721,1.441-.936,2.449.586,3.817C354.686,415.838,355.328,416,355.08,416.77Z" fill="#70451d" opacity="0.25" style="mix-blend-mode: screen;isolation: isolate"/>
          <path id="Trazado_122735" data-name="Trazado 122735" d="M363.7,412.967c2.664,1.909,6.341,2.692,8.962.943,1.393-.93,4.086-3.211,2.8-5.105a6.056,6.056,0,0,0-1.7-1.144c-1.769-.9-4.023-1.2-4.4-3.436-.139-.837.5-1.165-.245-1.693-.672-.475-3.1.067-3.827.338-1.49.555-2.056,1.318-3.716.947-1.017-.227-1.918-.806-3-.946.74.4.835,1.408.953,2.154,1.161-1.386,4.941-.875,2.728,1.148-1.309,1.2-2.376,1.118-1.588,3.121A8.577,8.577,0,0,0,363.7,412.967Z" fill="#70451d" opacity="0.25" style="mix-blend-mode: screen;isolation: isolate"/>
          <path id="Trazado_122736" data-name="Trazado 122736" d="M373.2,421.188a1.662,1.662,0,0,1-.23-.868c-.027-1.785,2.69-3.01,3.66-4.219,1.509-1.88,4.652-4.987,7.119-2.87.788.676,1.11,1.655,2.118,2.266.719.437,1.348.69,2.016,1.184.73.542,2.442,2.389,2.6,3.3.506,2.823-9.956,1.878-11.379,1.833C377.716,421.766,374.142,422.7,373.2,421.188Z" fill="#70451d" opacity="0.25" style="mix-blend-mode: screen;isolation: isolate"/>
          <path id="Trazado_122737" data-name="Trazado 122737" d="M359.46,416.928a4.244,4.244,0,0,1,1.886.271c1.435.516,5.133,2.256,3.531,4.213-1.164,1.422-3.822.806-5.389.664-1.656-.15-5.858-.99-3.307-3.308A5.947,5.947,0,0,1,359.46,416.928Z" fill="#70451d" opacity="0.25" style="mix-blend-mode: screen;isolation: isolate"/>
          <path id="Trazado_122738" data-name="Trazado 122738" d="M357.451,416.551c1.256-1.425,4.514-.986,5.343-2.622.582-1.154-1.862-2.32-2.412-3.17a2.947,2.947,0,0,1,.251-3.877c.409-.474,2.635-1.553,1.113-2.158-1-.4-1.658.718-2.593.587-1.214-.172-1-.955-2.4-.843-1.084.086-2.14.252-2.766-.9-.349,1.485-2.882,5.387-4.719,3.726.8,1.329,2.545,1.385,3.536,2.472,1.23,1.347.362,2.787,1.009,4.327.4.954,1.645,1.134,1.91,2.248.234.985-1.543,2.114-2.359,2.732C355.064,418.976,356.357,417.792,357.451,416.551Z" fill="#70451d" opacity="0.25" style="mix-blend-mode: multiply;isolation: isolate"/>
          <path id="Trazado_122739" data-name="Trazado 122739" d="M343.8,422.3h-1.937a2.023,2.023,0,0,1-.373-.027,7.257,7.257,0,0,1,4.986-2.4c1.129.008,1.852.678,2.861,1.029,1.877.653,4.393-.57,5.881,1.228-1.552.552-3.741.174-5.39.174Z" fill="#70451d" opacity="0.25" style="mix-blend-mode: multiply;isolation: isolate"/>
          <path id="Trazado_122740" data-name="Trazado 122740" d="M366.083,420.189c.456-2.138-3.02-1.725-4.661-3.558-.365-.408,3.845-1.327,4.215-1.312,1.742.077,3.8.845,5.488.144,1.957-.813,4.331-2.33,5.317-4.279,1.721-3.4-1.708-3.053-3.3-5.059a.227.227,0,0,1,.1-.127c.857-.534,4.336,1.375,5.086,1.864a19.888,19.888,0,0,1,4.513,4.045c-.3-.37-2.581-.027-3.043.157-1.137.456-1.986,1.7-3.008,2.371-2.826,1.859-6.574,3.525-5.354,7.546-1.437.975-5.467-1.087-6.4.2A5.694,5.694,0,0,0,366.083,420.189Z" fill="#70451d" opacity="0.25" style="mix-blend-mode: multiply;isolation: isolate"/>
          <path id="Trazado_122741" data-name="Trazado 122741" d="M350.623,413.56c-.993.907-2.99,1.024-4.151,1.083a10.432,10.432,0,0,0-5.359,1.437c-.807.529-2.085,2.452-3.185,1.7-1.894-1.288,2.071-3.408,2.986-3.723,1.129-.389,1.567-1.406,2.467-2.074.737-.548,1.663-.894,2.45-1.415,1.736-1.148,6.666-.882,5.24,2.373A1.794,1.794,0,0,1,350.623,413.56Z" fill="#70451d" opacity="0.25" style="mix-blend-mode: screen;isolation: isolate"/>
          <path id="Trazado_122742" data-name="Trazado 122742" d="M365.784,410.39a16.345,16.345,0,0,0,2.78,1.554c1.821.87,7.4,1.467,7.3-2.005-.071-2.252-4.005-3.26-5.663-3.824-2.514-.854-.478-1.616-1.336-2.9-.658-.985-4.425-.4-5.084.52,1.808,1,1.528.8.925,2.265A3.288,3.288,0,0,0,365.784,410.39Z" fill="#70451d" opacity="0.25" style="mix-blend-mode: screen;isolation: isolate"/>
          <path id="Trazado_122743" data-name="Trazado 122743" d="M374.535,418.974c.54-1.657,1.75-2.538,3-3.682,1.343-1.227,2.261-2.835,4.335-2.771,1.835.057,2.692,1.551,3.985,2.631.846.706,4.369,2.937,4.141,4.065-.186.922-6.445.454-7.712.1s-1.681-1.121-3.1-.875c-1.669.289-3.007,1.149-4.755.89C374.464,419.206,374.5,419.088,374.535,418.974Z" fill="#70451d" opacity="0.25" style="mix-blend-mode: screen;isolation: isolate"/>
          <path id="Trazado_122744" data-name="Trazado 122744" d="M368.559,418.635a3.879,3.879,0,0,1-.7-1.511c2.6-.136,4.446-.318,6.449-2.222a10.756,10.756,0,0,0,2.341-3.054c.392-.834-.038-1.522,1-2.045,1.028.871,2.6,1.071,3.537,1.846-1.925.047-3.019,1.881-4.395,2.787-2.685,1.764-4.325,3.7-6.594,5.825A5.365,5.365,0,0,1,368.559,418.635Z" fill="#70451d" opacity="0.25" style="mix-blend-mode: multiply;isolation: isolate"/>
          <path id="Trazado_122745" data-name="Trazado 122745" d="M357.87,415.893c1.35-.259,5.038-1.032,3.325-3.073-.959-1.142-2.291-.9-2.5-2.671-.281-2.347.8-1.178-1.771-1.695-1.517-.305-2.047-1.777-2.662-3.022.022.045-2.4,1.726-2.492,2.369.939.38,2.213.648,2.872,1.538.808,1.092.065,2.543.925,3.542C356.778,414.292,359.144,413.375,357.87,415.893Z" fill="#70451d" opacity="0.25" style="mix-blend-mode: multiply;isolation: isolate"/>
        </g>
        <g id="Grupo_86289" data-name="Grupo 86289">
          <path id="Trazado_122746" data-name="Trazado 122746" d="M395.685,301.275c2.906-1.93,7.563-2.532,10.317-.191,3.3,2.8,3.922,8.761,5,12.693.4,1.443.953,2.7,1.449,4.115a10.925,10.925,0,0,1-2.763.526,23.8,23.8,0,0,1-2.8.163,29.547,29.547,0,0,1-5.082-.8c-2.434-.512-4.106-2.212-5.949-3.759-3.816-3.2-5.068-8.912-.72-12.345Q395.4,301.466,395.685,301.275Z" fill="#5ba233"/>
          <path id="Trazado_122747" data-name="Trazado 122747" d="M394.531,302.425c.96-.817,1.994-.437,3.32.26a15.49,15.49,0,0,1,5.215,4.8c1.265,1.765,2.029,3.826,3.323,5.563a13.632,13.632,0,0,0,3.327,3.213,15.385,15.385,0,0,1,2.591,1.58c-.071.473-2.221.543-2.622.582a23.8,23.8,0,0,1-2.8.163,29.547,29.547,0,0,1-5.082-.8,10.089,10.089,0,0,1-5.123-2.969c-.983-1.13-2.081-1.847-2.832-3.245a8.828,8.828,0,0,1-1.2-4.515,8.112,8.112,0,0,1,1.227-3.857A3.59,3.59,0,0,1,394.531,302.425Z" fill="#549e2a" opacity="0.39" style="mix-blend-mode: multiply;isolation: isolate"/>
          <path id="Trazado_122748" data-name="Trazado 122748" d="M399.8,301.527a11.687,11.687,0,0,0-1.948-.185,3.281,3.281,0,0,1-1.3-.08c-1.133-.4-2.239-.85-3.392-1.2a17.737,17.737,0,0,0-3.245-.584,4.992,4.992,0,0,0-1.8.155c.038-.01.514.421.6.469a2.932,2.932,0,0,0,.783.3c.562.132,1.141.078,1.705.177,1.093.194,2.116.585,3.182.877a1.849,1.849,0,0,1,1.334,1.915c.014,1.256-.107,2.545-.1,3.813a12.7,12.7,0,0,0,.751,4.658,10.061,10.061,0,0,1-.287-2.789,18.991,18.991,0,0,1-.054-3.347c.066-.771-.2-2.07.311-2.724.607-.779,1.712,0,2.3.39a2.733,2.733,0,0,1,1.437,2.276c.353,2.491.2,4.993.641,7.479a31.47,31.47,0,0,1-.047-3.878,18.458,18.458,0,0,1,.009-3.731,6.92,6.92,0,0,1,2.854,4.519,17.777,17.777,0,0,1,.04,3.172c-.024.971.155,1.924.227,2.894a32.911,32.911,0,0,1,.4-5.5c.448.014.685.8.907,1.166.38.624.86,1.175,1.256,1.787.837,1.3.412,2.983,1.15,4.374-.27-1.048-.129-2.209-.333-3.238a.142.142,0,0,1,.069-.052s1.474,1.145,1.653,1.269a7.717,7.717,0,0,0,2.5,1.2,19.157,19.157,0,0,1-3.1-2.178,8.069,8.069,0,0,1-1.28-1.383c-.224-.324-.475-1.188-.808-1.363.231.121.464.234.7.341.59.263,1.2.492,1.811.7.051.018.088-.055.035-.079-.581-.264-1.145-.558-1.7-.875a4.99,4.99,0,0,1-1.3-.793,6.5,6.5,0,0,1-.663-1.342c-.362-.686-.722-1.375-1.115-2.045a16.472,16.472,0,0,0-1.365-1.972l.32.065q.672.135,1.333.313c.9.244,1.752.622,2.633.921a.036.036,0,0,0,.03-.066,13.655,13.655,0,0,0-2.591-1.09,8.921,8.921,0,0,1-2.066-.855,20.132,20.132,0,0,1-1.84-1.512,14.558,14.558,0,0,0-2.527-1.7c-.28-.149-.567-.284-.858-.411.337.011.681-.02,1.01-.021.575,0,1.15.008,1.724.054a16.9,16.9,0,0,1,3.235.622c.054.015.083-.077.029-.1A17.884,17.884,0,0,0,399.8,301.527Z" fill="#74b33c"/>
          <path id="Trazado_122749" data-name="Trazado 122749" d="M408.287,308.125a26.923,26.923,0,0,1,1.577,3.481c-.516-1.387-.5-3.15-.968-4.61a12.612,12.612,0,0,0-2.52-4.716c-.582-.641-3.192-3.092-4.112-1.845-.582.789,1.868,2.358,2.329,2.793A19.492,19.492,0,0,1,408.287,308.125Z" fill="#bfe15f" opacity="0.22" style="mix-blend-mode: screen;isolation: isolate"/>
        </g>
        <g id="Grupo_86290" data-name="Grupo 86290">
          <path id="Trazado_122750" data-name="Trazado 122750" d="M388.433,301.821a3.392,3.392,0,0,1,3.044,1.578c4.959,6.446.041,14.543-4.657,19.365.187-.193-3-5.25-3.285-5.827-1.788-3.613-4.43-9.285-1.925-13.106,1.491-2.273,3.226-1.262,5.33-1.772A7.774,7.774,0,0,1,388.433,301.821Z" fill="#549e2a"/>
          <path id="Trazado_122751" data-name="Trazado 122751" d="M389.9,311.178a19.015,19.015,0,0,1-1.467,8.446c-.334.833-.8,2.526-1.592,3.049.19-.126-3.023-5.159-3.308-5.736-1.683-3.4-4.413-9.486-1.863-13.007a3.757,3.757,0,0,1,2.866-1.545C388.383,302.282,389.676,308.344,389.9,311.178Z" fill="#549e2a" opacity="0.39" style="mix-blend-mode: multiply;isolation: isolate"/>
          <path id="Trazado_122752" data-name="Trazado 122752" d="M392.229,313.41a23.285,23.285,0,0,0-1.421-2.415,9.575,9.575,0,0,1-1.4-3.02c-.121-.511-.287-1.857-.695-2.206.028.024.059.048.087.073.363.328.719.666,1.068,1.008a24.29,24.29,0,0,1,1.93,2.139c.046.058.124-.02.083-.078a24.864,24.864,0,0,0-1.861-2.272,47.6,47.6,0,0,1-3.382-4.435c-.451-.621-1.068-1.824-1.742-2.207-.543-.308-1.222-.057-.683.567.4.468,1.11.842,1.565,1.325.3.318,1.04.914.94,1.378-.089.41-.935.764-1.227,1.025a9.839,9.839,0,0,0-2.574,3.189,9.166,9.166,0,0,1,2.479-2.592c.667-.57,1.8-1.623,2.123-.19.322,1.407-.642,2.576-1.349,3.673a16.213,16.213,0,0,0-1.954,3.663,4.849,4.849,0,0,0,.641-1.124,13.127,13.127,0,0,1,3.342-4.43,3.666,3.666,0,0,1,.667,1.644,3.372,3.372,0,0,1-.124,1.89,13.631,13.631,0,0,1-1.543,2.649,14.972,14.972,0,0,0-1.545,3.008,16.97,16.97,0,0,1,1.582-2.465,8.621,8.621,0,0,1,2.063-2.468,8.459,8.459,0,0,1,.237,2.378,7.69,7.69,0,0,1-.986,2.371,16.282,16.282,0,0,0-1.57,2.83c.319-.581.787-1.082,1.118-1.646.3-.5,1.043-1.08,1.236-1.586-.342.894-.161,1.853-.425,2.776-.334,1.168-.654,2.343-1.086,3.481a21.432,21.432,0,0,0,1.99-6.2c.008-.047.011-.1.019-.142q.021.05.042.1.137.35.256.707c.159.468.292.949.422,1.427.012.045.09.041.085-.009a6.411,6.411,0,0,0-.1-.732c-.054-.249-.116-.495-.185-.74s-.146-.473-.233-.7a5.316,5.316,0,0,0-.221-.543,15.406,15.406,0,0,0,.046-2.983c-.039-.49-.089-.984-.154-1.477q.408.551.8,1.112c.531.755,1.017,1.543,1.554,2.294A.048.048,0,0,0,392.229,313.41Z" fill="#74b33c"/>
          <path id="Trazado_122753" data-name="Trazado 122753" d="M391.225,316.7c1.225-1.426,1.387-3.2,1.677-4.948a10.928,10.928,0,0,0-.492-5.854c-.439-1.11-1.586-3.215-2.788-3.717-1.782-.746-1.525,1.37-.822,2.323s1.6,1.757,2.271,2.735a5.817,5.817,0,0,1,.669,1.347c.07.19.291,1.522.358,1.565-.274-.176-.975-1.439-1.326-1.361-.657.147.021,1.391.211,1.779.645,1.32,1.4,2.3.909,3.782.124-.374-1.2-2.013-1.639-.873-.164.43.24.959.357,1.361a9.553,9.553,0,0,1,.3,2.17A2.338,2.338,0,0,0,391.225,316.7Z" fill="#bfe15f" opacity="0.22" style="mix-blend-mode: screen;isolation: isolate"/>
        </g>
        <g id="Grupo_86291" data-name="Grupo 86291">
          <path id="Trazado_122754" data-name="Trazado 122754" d="M350.055,306.153a1.817,1.817,0,0,0,1.343-1.594,5.51,5.51,0,0,0-.682-3.428c-1.718-2.868-6.538-3.63-9.6-3.477a42.282,42.282,0,0,0-6.506,1.1c-2.807.6-6.884,2.889-7.66,5.92a10.5,10.5,0,0,0,2.173-.4,15.154,15.154,0,0,1,3.3-.014,11.331,11.331,0,0,1,5.415,2.118,12.686,12.686,0,0,0,5.305,1.885c1.717.178,3.576-.775,5.076-1.505A16,16,0,0,1,350.055,306.153Z" fill="#549e2a"/>
          <path id="Trazado_122755" data-name="Trazado 122755" d="M346.7,307.3a10.279,10.279,0,0,1-1.469.558,7.506,7.506,0,0,1-3.185.126,13.387,13.387,0,0,1-4.3-1.9,15.944,15.944,0,0,0-4-1.725,9.825,9.825,0,0,0-1.777-.2,3.358,3.358,0,0,0-1.49.019c1.42-1.4,3.448-1.03,5.235-1.421,1.006-.221,1.962-.538,2.951-.825a7.711,7.711,0,0,1,4.78.374,17.036,17.036,0,0,1,3.106,1.583,4.24,4.24,0,0,1,1.286,1.251c.225.377.546,1.17.193,1.532a3.4,3.4,0,0,1-1.246.593C346.753,307.278,346.726,307.29,346.7,307.3Z" fill="#549e2a" opacity="0.39" style="mix-blend-mode: multiply;isolation: isolate"/>
          <path id="Trazado_122756" data-name="Trazado 122756" d="M344.172,298.051a11.261,11.261,0,0,1,4.562,1.358,3.581,3.581,0,0,1,1.722,3.3c-.185,1.3-2.061.3-2.713-.138-1.887-1.255-3.929-3.655-6.357-3.691.515,1.308-1.367.708-1.9.367-.358-.226-.719-.742-1.224-.6-.522.144-.229.641-.621.907-.221.149-.592.056-.828.029a10.863,10.863,0,0,0-2.332-.35c-.924.078-.446.247-.968.637-.373.281-1.325.21-1.761.257a9.094,9.094,0,0,1,3.614-1.407,26.079,26.079,0,0,1,4.484-.74A22.267,22.267,0,0,1,344.172,298.051Z" fill="#bfe15f" opacity="0.22" style="mix-blend-mode: screen;isolation: isolate"/>
          <path id="Trazado_122757" data-name="Trazado 122757" d="M349.2,307.328c.189.7.262,1.464.39,2.181.071.4.2.653-.232.8-.321.107-.516.068-.634-.054-.218-.225-.176-.732-.2-1.125a8.232,8.232,0,0,0-.508-3.046,5.134,5.134,0,0,0-5.032-2.476c-1.078.146-2.055.644-3.076.86,1.031-.85,2.573-1.042,3.792-1.527a4.632,4.632,0,0,0-1.479-.709,7.551,7.551,0,0,0-5.4.456c-.484.192-.98.529-1.453.678a6.826,6.826,0,0,1,1.792-1.155c.565-.267,1.609-.4,2.013-.827a8.519,8.519,0,0,0-7.785,1,9.554,9.554,0,0,1,1.743-1.051c.436-.216,1.014-.712,1.546-.6a6.926,6.926,0,0,0-2.889.166,6.622,6.622,0,0,0-2.87.995,8,8,0,0,1,3.067-1.436,6.445,6.445,0,0,1,1.639-.241c.491.007,1.162.256,1.61-.025-.282-.491-1.662-.594-2.12-.59.83-.009,2.35-.217,2.892.625a16.4,16.4,0,0,1,2.194.01c.477.016,1.026.345,1.474.245.068-.622-.9-1.569-1.375-1.891,1.937,1.172,3.516,2.91,5.822,3.373-.225-.427-.423-.894-.671-1.317a10.322,10.322,0,0,0-1.175-1.3,6.434,6.434,0,0,1,2.275,2.334,5.215,5.215,0,0,0,1.979,1.733A6.413,6.413,0,0,1,349.2,307.328Z" fill="#74b33c"/>
        </g>
        <g id="Grupo_86292" data-name="Grupo 86292">
          <path id="Trazado_122758" data-name="Trazado 122758" d="M333.519,311.7a11.247,11.247,0,0,0-5.148-1.979c-4.321-.534-7.3,1.88-9.367,5.442a17.366,17.366,0,0,0-1.806,5.046c-.487,2.151-.937,4.274-1.341,6.431a7.232,7.232,0,0,1-.707,2.071,27.721,27.721,0,0,0,4.551,1.263,16.909,16.909,0,0,0,5.187-.575,30.021,30.021,0,0,0,6.992-2.586c3.975-1.979,6.182-8.222,4.19-12.194a7.962,7.962,0,0,0-1.98-2.472C333.909,311.989,333.718,311.841,333.519,311.7Z" fill="#5ba233"/>
          <path id="Trazado_122759" data-name="Trazado 122759" d="M335.379,313.816a3.877,3.877,0,0,0-.671-.845c-.995-.91-2.114-.545-3.56.149a16.59,16.59,0,0,0-5.763,4.923c-1.42,1.839-2.318,4.013-3.769,5.819a14.586,14.586,0,0,1-3.683,3.306c-.587.363-1.563.629-1.9,1.29a5.429,5.429,0,0,0,4.312-1.682c1.13-1.074.831-.344.76.592-.116,1.543,1.77,1.775,2.611.52,1.069-1.594.364-4.988,2.364-6.017.615,1.059.11,2.444.036,3.582-.052.8,0,2.364,1,1.332,1.154-1.182,1.209-3.476,1.625-4.945.329-1.163,1.23-2.252,1.8-.61.286.821.2,3.251,1.307,3.443,1.529.265,1.731-2.724,1.865-3.565.215-1.358.423-3.352,1.42-4.406.324-.344.962-.894,1.292-.193A24.762,24.762,0,0,0,335.379,313.816Z" fill="#549e2a" opacity="0.39" style="mix-blend-mode: multiply;isolation: isolate"/>
          <path id="Trazado_122760" data-name="Trazado 122760" d="M318.806,326.819a7.856,7.856,0,0,1-2.72,1.186,20.51,20.51,0,0,0,3.4-2.209,8.664,8.664,0,0,0,1.424-1.428c.251-.339.554-1.253.917-1.426-1.37.654-3.146.8-4.284,1.855,1.38-1.267,3.475-1.55,4.783-2.8a13.4,13.4,0,0,0,1.658-2.775,25.923,25.923,0,0,0,1.534-2.229c-1.828.371-4.286.632-5.825,1.8a15.794,15.794,0,0,1,3.681-2.178c.861-.3,1.786-.384,2.639-.708a9.126,9.126,0,0,0,2.311-1.606,15.685,15.685,0,0,1,2.767-1.716c.305-.147.618-.28.933-.4-.359,0-.726-.049-1.078-.062-.615-.022-1.23-.037-1.846-.01a18.088,18.088,0,0,0-3.482.539c-.059.014-.087-.085-.028-.1a18.977,18.977,0,0,1,3.522-.735,14.8,14.8,0,0,1,1.759-.125,11.667,11.667,0,0,0,3.816-.354A34.5,34.5,0,0,1,338.62,310a6.8,6.8,0,0,1,2.626.172c-.131.337-.689.341-1.048.433-1.649.428-3.4.466-5.011,1.016-.946.322-2.72.763-3,1.9a10.987,10.987,0,0,0,.081,2.124c0,2.235.547,5.466-.488,7.474a18.26,18.26,0,0,0,.21-5.206,11.573,11.573,0,0,0-.78-4.382c-1.844.956-3.343,1.7-3.435,3.839-.114,2.688.226,5.661-.918,8.187.1-1.57.26-3.137.263-4.71,0-1.435-.363-2.936-.019-4.351-.677.918-1.5,1.667-2.109,2.627-.427.67-.822,1.36-1.217,2.05a4.362,4.362,0,0,0-.884,2.336,6.1,6.1,0,0,1-.946,3.912,8.266,8.266,0,0,0,.3-4.249A11.245,11.245,0,0,1,318.806,326.819Z" fill="#74b33c"/>
          <path id="Trazado_122761" data-name="Trazado 122761" d="M320.5,318.56c1.217-.537,2.759-1.006,3.556-.654-.368-.163-1.762,3.045-1.95,3.278-1.3,1.619-3.6,1.959-4.569,3.954a7.2,7.2,0,0,1,1.845-.736c-1.127,1.277-2.015,2.524-3.6,3.273.535-1.951.946-3.879,1.478-5.837a42.951,42.951,0,0,1,1.814-5.6,12.441,12.441,0,0,1,2.248-3.658,7.8,7.8,0,0,1,1.47-1.479,7.567,7.567,0,0,1,4.375-1.029,14.645,14.645,0,0,1,2.275.292,10.3,10.3,0,0,1,1.725.728c-.806.44-2.33.258-3.284.548a14.017,14.017,0,0,0-2.752,1.074,3,3,0,0,1-1.128.518c.962-.221,3.9-1.131,4.565-.17a17.363,17.363,0,0,1-5.312,3.349c-1.518.539-3.776,1.02-4.17,2.887A10.549,10.549,0,0,1,320.5,318.56Z" fill="#bfe15f" opacity="0.22" style="mix-blend-mode: screen;isolation: isolate"/>
        </g>
        <g id="Grupo_86293" data-name="Grupo 86293">
          <path id="Trazado_122762" data-name="Trazado 122762" d="M344.394,311.473a8.592,8.592,0,0,0-5.868,2.082,7.682,7.682,0,0,0-2.546,4.79,27.98,27.98,0,0,0-.056,4.659,7.277,7.277,0,0,1-3.1,5.832c.071-.048,1.574.8,1.769.879a11.567,11.567,0,0,0,2.134.615,12.222,12.222,0,0,0,4.835.234,17.054,17.054,0,0,0,4.173-1.941c3.827-2.157,6.988-5.365,6.975-10.011,0-1.352.166-2.289-.49-3.544a5.218,5.218,0,0,0-2.627-2.47c-1.161-.444-2.463-.3-3.639-.72A7.308,7.308,0,0,0,344.394,311.473Z" fill="#5ba233"/>
          <path id="Trazado_122763" data-name="Trazado 122763" d="M341.474,321.012c-.079.153-.159.3-.242.453-1.477,2.653-2.57,5.273-5.381,6.72a18.58,18.58,0,0,1-2.215.883c4.441,1.6,9.184,1.374,13.076-1.443,1.7-1.234,3.491-2.545,4.445-4.482a13.082,13.082,0,0,0,.933-2.373c.915-3.5.27-7.46-3.793-8.286a3.24,3.24,0,0,0-3.286,1.384C343.367,315.93,342.676,318.666,341.474,321.012Z" fill="#549e2a" opacity="0.39" style="mix-blend-mode: multiply;isolation: isolate"/>
          <path id="Trazado_122764" data-name="Trazado 122764" d="M343.027,325.985a7.828,7.828,0,0,0-1.218-4.323,8.854,8.854,0,0,0-1.907,3.68c-.287,1.124-.07,2.325-.864,3.3a7.419,7.419,0,0,0,.3-3.216c-.343.389-.525.883-.873,1.267a6.2,6.2,0,0,1-1.4,1.036,5.807,5.807,0,0,1-3.029.788,5.955,5.955,0,0,0,4.311-2.322,3.775,3.775,0,0,0-1.957.36c1.022-.692,2.29-.947,3-2.009a23.492,23.492,0,0,0,1.734-3.128,14.98,14.98,0,0,0-3.1,1.3c1.039-1.1,2.587-1.632,3.4-2.992.368-.614.583-1.3.912-1.922a6.316,6.316,0,0,0,.752-1.592c-.643.069-1.3.8-1.867,1.108a5.869,5.869,0,0,1-1.787.647,13.364,13.364,0,0,0,5.372-4.421,6.7,6.7,0,0,0-3.211.742,9.469,9.469,0,0,1,2.012-.973,5.4,5.4,0,0,0,2.657-1.243c.548-.612,1.335-1.825,2.093-2.159.612-.269,1.306.074.665.678-.482.454-1.272.775-1.809,1.238-.663.572-1.343,1.041-.929,2.024a13.811,13.811,0,0,0,.714,1.332A10.426,10.426,0,0,1,348.382,319c-.329-1.341-1.189-3.593-2.433-4.381-.728-.462-1.422.3-1.658.94a4.215,4.215,0,0,0,.351,2.471,19.58,19.58,0,0,1,.677,4.573,23,23,0,0,0-.5-2.282,6.911,6.911,0,0,0-.794-2.164c-.719-.914-.969.458-1.2,1.162a5.117,5.117,0,0,0-.129,3.334A6.55,6.55,0,0,1,343.027,325.985Z" fill="#74b33c"/>
          <path id="Trazado_122765" data-name="Trazado 122765" d="M337.614,322.231a.569.569,0,0,0-.027.679c.368.419,1.525-.27,1.948-.29-.412,1.53-2.469,3-3.976,3.358.745-.723.83-2.471.832-3.433,0-1.669-.385-3.571.107-5.2a8.223,8.223,0,0,1,2.6-3.662c1.312-1.122,3.926-1.956,5.569-1.237-.881.254-1.741.648-2.587.979a6.711,6.711,0,0,0-1.265.689c-.226.153-.714.769-.938.817.484-.1,2.326-.611,2.7-.282.612.534-1.345,1.628-1.649,1.818-.991.616-2.243,1.212-2.473,2.5a31.221,31.221,0,0,1,2.909-1.243,4.731,4.731,0,0,1-1.192,2.335c-.654.638-1.536,1.028-2.17,1.675A2.549,2.549,0,0,0,337.614,322.231Z" fill="#bfe15f" opacity="0.22" style="mix-blend-mode: screen;isolation: isolate"/>
        </g>
        <g id="Grupo_86294" data-name="Grupo 86294">
          <path id="Trazado_122766" data-name="Trazado 122766" d="M363.152,276.633a1.548,1.548,0,0,0,1.07.3,5.088,5.088,0,0,0,2.705-.635c4.54-2.87,3.845-9.735,2.855-14.141-.208-.925-.433-2.236-1.314-2.752a26.672,26.672,0,0,1-3.486,2.737c-2.845,2.148-6.146,6.541-4.991,10.348a5.839,5.839,0,0,0,2.146,3.017C362.661,275.95,362.832,276.366,363.152,276.633Z" fill="#549e2a"/>
          <path id="Trazado_122767" data-name="Trazado 122767" d="M367.816,268.377c-.842,2.217-2.646,5.5-4.842,6.675-1.528.813-2.642-1.7-2.785-2.921-.429-3.649,1.678-6.427,4.233-8.776.852-.785,1.8-1.446,2.671-2.2.487-.421.891-1.067,1.457-1.329.964.909.458,2.768.341,3.891A18.445,18.445,0,0,1,367.816,268.377Z" fill="#549e2a" opacity="0.39" style="mix-blend-mode: multiply;isolation: isolate"/>
          <path id="Trazado_122768" data-name="Trazado 122768" d="M367.855,266.531a5.691,5.691,0,0,0-.144-.833q-.123-.506-.243-1.01a13.309,13.309,0,0,1-.425-1.994.018.018,0,0,1,.034-.008,13.256,13.256,0,0,1,.6,1.943c.091.321.183.642.273.964.037.132.075.264.11.4a.083.083,0,0,1,.03.037.824.824,0,0,1,.023.2,2.15,2.15,0,0,1,.032.265l.007.021c0,.01,0,.021.006.031-.065-.267.188-.84.23-1.125a24.243,24.243,0,0,0,.672-4.384,22.887,22.887,0,0,1-.566,5.422c.077-.07.156-.138.226-.211.142-.148.273-.307.4-.469a10.837,10.837,0,0,0,.662-1.028c.015-.024.061-.006.053.022a3.644,3.644,0,0,1-.57,1.119,4.7,4.7,0,0,1-.4.488,1.89,1.89,0,0,1-.432.386,16.3,16.3,0,0,1-1.6,4.332c.108-.062.217-.122.319-.187.238-.148.469-.307.693-.475a12.2,12.2,0,0,0,1.248-1.078c.022-.021.056.015.037.038a8.567,8.567,0,0,1-1.2,1.159c-.218.173-.444.339-.677.494a3.945,3.945,0,0,1-.6.351,12.847,12.847,0,0,1-2.225,2.851,6.043,6.043,0,0,0,1.013-.263,6.893,6.893,0,0,0,.822-.371c.275-.144.526-.323.8-.476.021-.012.046.021.029.039a4.507,4.507,0,0,1-1.616.959,5.826,5.826,0,0,1-1.281.339c-.287.038-.675.445-.91.61-.413.289-.827.579-1.251.852-.307.2-2.35,1.827-2.457.956,1.305-.664,2.768-1.179,3.622-2.452.714-1.064.261-2.563.247-3.742a25.094,25.094,0,0,1,.2-3.952.041.041,0,0,1,.081.011,36.995,36.995,0,0,0-.03,4.186c.043.642.131,1.278.182,1.917a5.679,5.679,0,0,1,0,.913,1.893,1.893,0,0,1-.074.393,12.414,12.414,0,0,0,1.781-1.947,3.362,3.362,0,0,0,.548-1.026,2.876,2.876,0,0,0-.18-1.527,20.857,20.857,0,0,1-.512-5.4.032.032,0,0,1,.063,0,28.6,28.6,0,0,0,.4,3.658c.111.586.258,1.168.407,1.746.087.336.2.672.252,1.01-.032-.2.426-.823.518-1.023q.258-.559.47-1.137A4.348,4.348,0,0,0,367.855,266.531Z" fill="#74b33c"/>
          <path id="Trazado_122769" data-name="Trazado 122769" d="M367.894,273.449c.151-.226.292-.463.432-.708a18.359,18.359,0,0,0,1.824-6.647c-.02.146.274.823.306,1.079a7.725,7.725,0,0,1,.005,1.558,13,13,0,0,1-.562,2.841,7.923,7.923,0,0,1-2.515,4.117,3.936,3.936,0,0,1-1.966.9c-.7.059-1.356-.123-.6-.8.574-.51,1.493-.68,2.105-1.218A5.626,5.626,0,0,0,367.894,273.449Z" fill="#bfe15f" opacity="0.22" style="mix-blend-mode: screen;isolation: isolate"/>
        </g>
        <g id="Grupo_86295" data-name="Grupo 86295">
          <path id="Trazado_122770" data-name="Trazado 122770" d="M355.411,265.528c1.382-2.761,1.407-6.918-.947-9.084-2.819-2.594-8.12-2.5-11.692-3.017-1.309-.191-2.473-.546-3.77-.827a9.626,9.626,0,0,0-.164,2.482,21.352,21.352,0,0,0,.159,2.477,26.2,26.2,0,0,0,1.256,4.378c.713,2.082,2.387,3.367,3.946,4.818,3.227,3.007,8.377,3.489,10.922-.7C355.224,265.885,355.32,265.71,355.411,265.528Z" fill="#5ba233"/>
          <path id="Trazado_122771" data-name="Trazado 122771" d="M354.526,266.666c.614-.932.169-1.8-.587-2.888a13.725,13.725,0,0,0-4.776-4.063c-1.687-.92-3.581-1.369-5.246-2.317a12.08,12.08,0,0,1-3.183-2.576,13.577,13.577,0,0,0-1.668-2.105c-.408.113-.237,2.01-.228,2.365a21.352,21.352,0,0,0,.159,2.477,26.2,26.2,0,0,0,1.256,4.378,8.937,8.937,0,0,0,3.163,4.178,15.621,15.621,0,0,0,3.156,2.138,7.815,7.815,0,0,0,4.1.566,7.167,7.167,0,0,0,3.255-1.494A3.163,3.163,0,0,0,354.526,266.666Z" fill="#549e2a" opacity="0.39" style="mix-blend-mode: multiply;isolation: isolate"/>
          <path id="Trazado_122772" data-name="Trazado 122772" d="M341.131,255.486a6.822,6.822,0,0,1-1.322-2.063,16.96,16.96,0,0,0,2.249,2.487,7.212,7.212,0,0,0,1.353.976c.309.16,1.1.288,1.284.561-.131-.189-.255-.382-.375-.58-.3-.488-.561-1-.807-1.514a.039.039,0,0,1,.066-.04c.294.482.613.946.953,1.4a4.37,4.37,0,0,0,.836,1.056,5.777,5.777,0,0,0,1.251.437c.642.243,1.286.485,1.917.758a14.415,14.415,0,0,1,1.879.986c-.03-.092-.061-.182-.091-.274q-.191-.576-.419-1.138c-.312-.765-.736-1.472-1.094-2.213a.032.032,0,0,1,.055-.033,12.076,12.076,0,0,1,1.238,2.158,7.845,7.845,0,0,0,.975,1.722,17.76,17.76,0,0,0,1.526,1.454,12.956,12.956,0,0,1,1.765,2.035c.16.231.309.469.452.71-.045-.295-.055-.6-.09-.888-.062-.506-.131-1.01-.233-1.51a14.967,14.967,0,0,0-.9-2.774c-.019-.047.059-.082.082-.037a15.859,15.859,0,0,1,1.062,2.781,12.6,12.6,0,0,1,.332,1.42,12.682,12.682,0,0,0,.356,1.966c.369,1.122,1.158,2.062,1.509,3.212a21.6,21.6,0,0,1,.639,3.774c-.51-1.19-.834-2.331-1.232-3.534a8.018,8.018,0,0,0-.985-2.338,1.9,1.9,0,0,0-1.8-.72c-1.1.123-2.224.369-3.339.5a11.238,11.238,0,0,1-4.173-.156,8.929,8.929,0,0,0,2.481-.049,16.794,16.794,0,0,0,2.946-.316c.67-.14,1.84-.047,2.36-.567.617-.617-.183-1.5-.592-1.977a2.418,2.418,0,0,0-2.155-1.016c-2.226-.042-4.408.364-6.64.245a27.622,27.622,0,0,0,3.412-.378,16.281,16.281,0,0,0,3.277-.411,6.122,6.122,0,0,0-4.279-2.019,15.783,15.783,0,0,0-2.79.308c-.85.126-1.707.072-2.567.113a29.191,29.191,0,0,0,4.792-.95c-.062-.393-.779-.516-1.123-.671-.589-.266-1.125-.629-1.706-.91-1.23-.6-2.664-.04-3.966-.538.949.124,1.954-.125,2.881-.058a.129.129,0,0,0,.037-.065S341.259,255.631,341.131,255.486Z" fill="#74b33c"/>
          <path id="Trazado_122773" data-name="Trazado 122773" d="M348.032,255.2a23.893,23.893,0,0,0-3.229-1.009c1.275.3,2.822.1,4.155.352a11.147,11.147,0,0,1,4.414,1.7c.627.442,3.062,2.47,2.066,3.413-.629.6-2.274-1.385-2.7-1.745A17.329,17.329,0,0,0,348.032,255.2Z" fill="#bfe15f" opacity="0.22" style="mix-blend-mode: screen;isolation: isolate"/>
        </g>
        <g id="Grupo_86296" data-name="Grupo 86296">
          <path id="Trazado_122774" data-name="Trazado 122774" d="M356.474,274.487a3.2,3.2,0,0,0-2.41-2.16c-7.347-2.22-12.847,4.829-15.53,10.587.107-.229,5.636.891,6.24.95,3.785.369,9.674.8,12.207-2.684,1.508-2.076.036-3.269-.218-5.3A7.328,7.328,0,0,0,356.474,274.487Z" fill="#549e2a"/>
          <path id="Trazado_122775" data-name="Trazado 122775" d="M347.726,276.32a17.917,17.917,0,0,0-6.962,4.119c-.623.573-1.961,1.551-2.158,2.424.047-.21,5.563.942,6.168,1,3.563.348,9.845.721,12.1-2.707a3.543,3.543,0,0,0,.4-3.045C356.084,274.685,350.3,275.571,347.726,276.32Z" fill="#549e2a" opacity="0.39" style="mix-blend-mode: multiply;isolation: isolate"/>
          <path id="Trazado_122776" data-name="Trazado 122776" d="M344.979,275.014a21.94,21.94,0,0,1,2.605.445,9.057,9.057,0,0,0,3.134.226c.491-.064,1.734-.368,2.179-.125-.031-.017-.063-.036-.094-.052q-.617-.316-1.246-.606a22.576,22.576,0,0,0-2.533-.987c-.067-.021-.025-.117.04-.1a23.978,23.978,0,0,1,2.628.882,44.808,44.808,0,0,0,5.044,1.5,7.755,7.755,0,0,1,2.53.8c.454.376.459,1.059-.272.792-.549-.2-1.115-.7-1.692-.937-.381-.16-1.154-.614-1.53-.37-.333.216-.362,1.081-.494,1.426a9.283,9.283,0,0,1-1.954,3.337,8.647,8.647,0,0,0,1.459-3.054c.279-.779.831-2.126-.543-1.936-1.348.185-2.057,1.428-2.79,2.418a15.229,15.229,0,0,1-2.579,2.949,4.64,4.64,0,0,1,.777-.941,12.369,12.369,0,0,0,2.792-4.43,3.453,3.453,0,0,0-1.673-.039,3.166,3.166,0,0,0-1.626.741,12.841,12.841,0,0,0-1.822,2.248,14.215,14.215,0,0,1-2.138,2.369,15.928,15.928,0,0,0,1.646-2.22,8.134,8.134,0,0,0,1.488-2.646,7.966,7.966,0,0,0-2.177.586,7.245,7.245,0,0,0-1.764,1.663,15.192,15.192,0,0,1-1.972,2.331c.406-.475.692-1.055,1.079-1.536.347-.43.605-1.281.987-1.622-.674.6-1.582.763-2.307,1.3-.92.685-1.85,1.36-2.709,2.122a20.215,20.215,0,0,1,4.8-3.829c.039-.023.08-.041.12-.064l-.1,0c-.236,0-.473,0-.71.011-.467.016-.935.06-1.4.106-.044,0-.067-.066-.02-.079a5.822,5.822,0,0,1,.68-.154q.355-.052.714-.084c.234-.019.467-.029.7-.03a5.094,5.094,0,0,1,.552.012A14.638,14.638,0,0,1,347.4,276.4c.446-.129.9-.251,1.356-.358-.416-.116-.832-.23-1.251-.337-.844-.216-1.7-.381-2.544-.6A.045.045,0,0,1,344.979,275.014Z" fill="#74b33c"/>
          <path id="Trazado_122777" data-name="Trazado 122777" d="M342.407,277c.849-1.559,2.36-2.3,3.806-3.136a10.321,10.321,0,0,1,5.33-1.523c1.126.016,3.368.325,4.212,1.217,1.255,1.323-.7,1.8-1.775,1.5s-2.085-.824-3.173-1.09a5.529,5.529,0,0,0-1.412-.14c-.191,0-1.44.253-1.5.208.248.183,1.6.379,1.644.715.091.628-1.233.446-1.64.408-1.379-.128-2.5-.465-3.64.463.288-.234,2.178.389,1.318,1.154-.325.288-.928.11-1.321.14a9.065,9.065,0,0,0-2.014.462A2.171,2.171,0,0,1,342.407,277Z" fill="#bfe15f" opacity="0.22" style="mix-blend-mode: screen;isolation: isolate"/>
        </g>
        <g id="Grupo_86297" data-name="Grupo 86297">
          <path id="Trazado_122778" data-name="Trazado 122778" d="M377.972,277.27a1.161,1.161,0,0,1-.534-.642,3.82,3.82,0,0,1-.388-2.051c.587-3.989,5.509-5.6,8.834-6.267.7-.139,1.667-.384,2.289.063a20.144,20.144,0,0,0-.816,3.227c-.607,2.606-2.616,6.21-5.581,6.578a4.383,4.383,0,0,1-2.724-.554C378.59,277.4,378.253,277.408,377.972,277.27Z" fill="#549e2a"/>
          <path id="Trazado_122779" data-name="Trazado 122779" d="M382.216,271.553c-1.264,1.254-2.971,3.493-3.105,5.357-.093,1.3,1.975,1.294,2.853,1.022,2.635-.819,3.9-3.11,4.734-5.579.278-.824.444-1.674.7-2.505a5.731,5.731,0,0,0,.468-1.4c-.917-.384-2.038.529-2.774.952A13.886,13.886,0,0,0,382.216,271.553Z" fill="#549e2a" opacity="0.39" style="mix-blend-mode: multiply;isolation: isolate"/>
          <path id="Trazado_122780" data-name="Trazado 122780" d="M383.472,270.964a4.318,4.318,0,0,1,.615-.154l.768-.142a10.107,10.107,0,0,0,1.5-.315.013.013,0,0,0,0-.026,9.974,9.974,0,0,0-1.518.177l-.745.106-.307.046a.055.055,0,0,0-.035-.008.557.557,0,0,0-.147.046,1.561,1.561,0,0,0-.191.058l-.016,0a.167.167,0,0,0-.024.006c.2-.037.519-.386.7-.5a18.105,18.105,0,0,1,2.8-1.8,17.145,17.145,0,0,0-3.549,2.04c.025-.074.048-.149.076-.219.059-.143.127-.281.2-.418a8.246,8.246,0,0,1,.5-.767c.013-.018-.014-.043-.032-.03a2.773,2.773,0,0,0-.594.733,3.713,3.713,0,0,0-.211.424,1.419,1.419,0,0,0-.134.415,12.226,12.226,0,0,0-2.485,2.418c.01-.093.018-.187.031-.277q.045-.312.114-.62a9.348,9.348,0,0,1,.36-1.184c.008-.022-.027-.035-.037-.015a6.478,6.478,0,0,0-.431,1.174q-.08.3-.132.615a2.876,2.876,0,0,0-.06.518,9.6,9.6,0,0,0-1.278,2.395,4.414,4.414,0,0,1-.129-.775,5.291,5.291,0,0,1,0-.678c.015-.232.061-.459.084-.691,0-.018-.029-.025-.035-.007a3.354,3.354,0,0,0-.165,1.4,4.369,4.369,0,0,0,.156.982,2.225,2.225,0,0,1-.141.81c-.072.372-.145.744-.2,1.119-.043.271-.538,2.169.091,1.978a6.439,6.439,0,0,1,.58-3.234c.513-.814,1.68-.96,2.493-1.309a18.875,18.875,0,0,0,2.652-1.338.03.03,0,0,0-.031-.052,27.676,27.676,0,0,1-2.864,1.3c-.454.165-.917.3-1.372.459a4.211,4.211,0,0,0-.627.275,1.339,1.339,0,0,0-.247.17,9.266,9.266,0,0,1,.793-1.815,2.547,2.547,0,0,1,.537-.69,2.164,2.164,0,0,1,1.1-.34c.455-.082.9-.2,1.343-.325a13.606,13.606,0,0,0,2.517-.969c.024-.012.006-.053-.019-.043a21.135,21.135,0,0,1-2.633.837c-.437.1-.88.179-1.322.253-.257.042-.521.069-.771.134.145-.038.435-.543.545-.667.2-.231.416-.454.636-.669A3.283,3.283,0,0,1,383.472,270.964Z" fill="#74b33c"/>
          <path id="Trazado_122781" data-name="Trazado 122781" d="M378.712,273.045c.109-.173.229-.342.355-.512a13.769,13.769,0,0,1,4.005-3.277c-.094.058-.648.062-.833.119a5.769,5.769,0,0,0-1.071.471,9.779,9.779,0,0,0-1.779,1.251,5.955,5.955,0,0,0-2.059,2.98,2.96,2.96,0,0,0-.02,1.624c.172.5.5.894.729.167.175-.55.011-1.231.194-1.816A4.222,4.222,0,0,1,378.712,273.045Z" fill="#bfe15f" opacity="0.22" style="mix-blend-mode: screen;isolation: isolate"/>
        </g>
        <g id="Grupo_86298" data-name="Grupo 86298">
          <path id="Trazado_122782" data-name="Trazado 122782" d="M385.791,280.146c1.825-1.429,4.88-2.068,6.826-.659,2.33,1.687,3.05,5.6,3.965,8.153.336.935.771,1.739,1.172,2.651a7.227,7.227,0,0,1-1.8.492,15.926,15.926,0,0,1-1.846.252,19.676,19.676,0,0,1-3.409-.27c-1.638-.214-2.834-1.254-4.135-2.185-2.693-1.926-3.817-5.643-1.114-8.141C385.556,280.338,385.67,280.24,385.791,280.146Z" fill="#5ba233"/>
          <path id="Trazado_122783" data-name="Trazado 122783" d="M385.085,280.968c.594-.591,1.3-.393,2.213,0a10.286,10.286,0,0,1,3.7,2.907c.929,1.1,1.542,2.431,2.489,3.515a9.058,9.058,0,0,0,2.37,1.958,10.211,10.211,0,0,1,1.8.913c-.022.316-1.444.474-1.707.521a15.926,15.926,0,0,1-1.846.252,19.676,19.676,0,0,1-3.409-.27,6.711,6.711,0,0,1-3.547-1.7,11.8,11.8,0,0,1-2.044-2,5.88,5.88,0,0,1-1.028-2.93,5.379,5.379,0,0,1,.613-2.618A2.406,2.406,0,0,1,385.085,280.968Z" fill="#549e2a" opacity="0.39" style="mix-blend-mode: multiply;isolation: isolate"/>
          <path id="Trazado_122784" data-name="Trazado 122784" d="M395.311,289.156a5.123,5.123,0,0,0,1.716.664,12.787,12.787,0,0,1-2.165-1.283,5.376,5.376,0,0,1-.92-.85c-.165-.2-.376-.763-.606-.862.16.069.32.131.483.19.4.144.82.263,1.236.368a.029.029,0,0,0,.019-.055c-.4-.144-.788-.309-1.171-.492a3.316,3.316,0,0,1-.9-.458,4.356,4.356,0,0,1-.508-.854c-.275-.437-.549-.874-.844-1.3a10.707,10.707,0,0,0-1.007-1.236l.216.026c.3.036.6.083.9.138.61.116,1.193.323,1.793.475a.024.024,0,0,0,.016-.045,9.02,9.02,0,0,0-1.773-.589,5.891,5.891,0,0,1-1.413-.461,13.281,13.281,0,0,1-1.3-.906,9.658,9.658,0,0,0-1.761-.994c-.193-.084-.39-.158-.59-.228.224-.01.45-.049.668-.066.382-.029.763-.054,1.145-.054a11.3,11.3,0,0,1,2.176.246c.037.007.051-.055.014-.065a11.832,11.832,0,0,0-2.205-.366,9.292,9.292,0,0,0-1.094-.033,9.636,9.636,0,0,1-1.5.032c-1.207-.143-2.215-.894-3.474-.889a27.842,27.842,0,0,1,2.665,1.105,1.425,1.425,0,0,1,.8,1.215c.074.832.061,1.693.134,2.532a8.422,8.422,0,0,0,.737,3.047,6.67,6.67,0,0,1-.334-1.833,12.527,12.527,0,0,1-.208-2.214c0-.515-.239-1.362.065-1.822.362-.547,1.135-.091,1.543.14a1.817,1.817,0,0,1,1.07,1.434c.363,1.632.39,3.3.811,4.923a20.975,20.975,0,0,1-.232-2.567,12.266,12.266,0,0,1-.186-2.473,4.6,4.6,0,0,1,2.124,2.847,11.809,11.809,0,0,1,.19,2.1c.034.644.2,1.266.3,1.906a21.913,21.913,0,0,1-.016-3.668c.3-.014.495.5.661.725.284.394.631.735.925,1.12.622.816.427,1.955.988,2.838-.233-.679-.2-1.457-.388-2.128a.1.1,0,0,1,.043-.038S395.186,289.083,395.311,289.156Z" fill="#74b33c"/>
          <path id="Trazado_122785" data-name="Trazado 122785" d="M394.494,284.034a18,18,0,0,1,1.224,2.226c-.413-.893-.5-2.062-.879-3.005a8.351,8.351,0,0,0-1.913-2.994c-.418-.4-2.274-1.885-2.82-1.011-.345.553,1.359,1.467,1.688,1.731A12.967,12.967,0,0,1,394.494,284.034Z" fill="#bfe15f" opacity="0.22" style="mix-blend-mode: screen;isolation: isolate"/>
        </g>
        <g id="Grupo_86299" data-name="Grupo 86299">
          <path id="Trazado_122786" data-name="Trazado 122786" d="M381.219,280.252a2.407,2.407,0,0,1,2.26.892c3.96,4.186,1.078,10.249-1.886,13.986a47.057,47.057,0,0,0-2.736-3.87c-1.52-2.417-3.792-6.225-2.3-9.1.887-1.71,2.183-1.122,3.629-1.634A5.551,5.551,0,0,1,381.219,280.252Z" fill="#549e2a"/>
          <path id="Trazado_122787" data-name="Trazado 122787" d="M382.93,286.741a13.5,13.5,0,0,1-.424,6.06c-.176.611-.383,1.838-.9,2.263.125-.1-2.5-3.419-2.746-3.8-1.431-2.276-3.794-6.367-2.251-9.033a2.659,2.659,0,0,1,1.909-1.3C381.217,280.58,382.566,284.761,382.93,286.741Z" fill="#549e2a" opacity="0.39" style="mix-blend-mode: multiply;isolation: isolate"/>
          <path id="Trazado_122788" data-name="Trazado 122788" d="M384.73,288.148a16.241,16.241,0,0,0-1.175-1.6,6.8,6.8,0,0,1-1.2-2.027c-.122-.352-.336-1.289-.649-1.5.022.014.046.029.067.045.28.205.555.417.826.633a17.061,17.061,0,0,1,1.514,1.369c.037.038.086-.023.053-.061a17.773,17.773,0,0,0-1.475-1.468,33.661,33.661,0,0,1-2.705-2.882c-.362-.4-.884-1.209-1.386-1.429-.406-.179-.866.048-.441.449.32.3.843.514,1.2.82.236.2.8.57.763.9-.033.3-.6.606-.792.811a6.963,6.963,0,0,0-1.583,2.434,6.486,6.486,0,0,1,1.56-2.007c.429-.449,1.148-1.273,1.483-.286.328.967-.267,1.861-.686,2.686a11.388,11.388,0,0,0-1.113,2.723,3.475,3.475,0,0,0,.371-.839,9.285,9.285,0,0,1,2.036-3.363,2.6,2.6,0,0,1,.588,1.11,2.383,2.383,0,0,1,.049,1.341,9.627,9.627,0,0,1-.9,1.978,10.633,10.633,0,0,0-.871,2.233,11.971,11.971,0,0,1,.937-1.853,6.119,6.119,0,0,1,1.276-1.887,5.988,5.988,0,0,1,.338,1.659,5.425,5.425,0,0,1-.523,1.742,11.475,11.475,0,0,0-.9,2.108c.182-.432.476-.819.669-1.241.171-.377.656-.837.756-1.207-.177.654.021,1.318-.1,1.988-.152.847-.292,1.7-.514,2.531a15.178,15.178,0,0,0,.955-4.512c0-.034,0-.067,0-.1l.037.069q.121.237.232.479c.146.32.274.649.4.977.012.03.067.022.059-.013a4.448,4.448,0,0,0-.125-.509c-.056-.17-.117-.34-.184-.507s-.137-.324-.215-.481a3.871,3.871,0,0,0-.194-.366,10.946,10.946,0,0,0-.184-2.107q-.093-.513-.215-1.03.327.36.646.727c.429.494.829,1.014,1.262,1.5A.033.033,0,0,0,384.73,288.148Z" fill="#74b33c"/>
          <path id="Trazado_122789" data-name="Trazado 122789" d="M384.261,290.541a6.655,6.655,0,0,0,.825-3.609,7.735,7.735,0,0,0-.769-4.09c-.39-.751-1.35-2.153-2.233-2.42-1.31-.4-.977,1.076-.413,1.7s1.254,1.123,1.8,1.765a4.1,4.1,0,0,1,.568.9c.064.13.315,1.053.366,1.078-.206-.1-.791-.944-1.033-.864-.452.152.115.979.277,1.239.55.883,1.152,1.522.913,2.6.061-.273-.993-1.332-1.217-.5-.085.315.238.659.349.934a6.758,6.758,0,0,1,.368,1.507A1.641,1.641,0,0,0,384.261,290.541Z" fill="#bfe15f" opacity="0.22" style="mix-blend-mode: screen;isolation: isolate"/>
        </g>
        <g id="Grupo_86300" data-name="Grupo 86300">
          <path id="Trazado_122790" data-name="Trazado 122790" d="M394.13,342.193a3.031,3.031,0,0,1,1.1.247c-.571.264-.868,1.119-1.184,1.647-1.855,3.1-3.957,5-7.7,5.338-2.525.228-4.838-.391-6.149-2.695a2.218,2.218,0,0,1-.335-1.921c.323-.78,1.558-1.26,2.16-1.85,2.808-2.756,6.053.041,9.437-.455A13.92,13.92,0,0,1,394.13,342.193Z" fill="#549e2a"/>
          <path id="Trazado_122791" data-name="Trazado 122791" d="M388.107,348.923a12.316,12.316,0,0,1-1.7.3,11.8,11.8,0,0,1-2.873-.172,4.407,4.407,0,0,1-3.443-2.916,1.66,1.66,0,0,1,.47-1.91,2.262,2.262,0,0,1,1.128-.729c.529-.088.824.324,1.3.471a20.718,20.718,0,0,0,2.173.722,10.848,10.848,0,0,0,5.107-.39,8.743,8.743,0,0,0,2.349-.975,3.362,3.362,0,0,1,2.172-.8,15.191,15.191,0,0,1-3.634,5A8.007,8.007,0,0,1,388.107,348.923Z" fill="#549e2a" opacity="0.39" style="mix-blend-mode: multiply;isolation: isolate"/>
          <path id="Trazado_122792" data-name="Trazado 122792" d="M389.509,343.66c.472.073.949-.451,1.394-.588a2.644,2.644,0,0,1,1.047-.161c-.011.048.01.188-.005.23.062-.166.615-.277.764-.323a7.345,7.345,0,0,0,1.066-.415,16.124,16.124,0,0,1-5.275.09c-1.38-.194-2.94-.981-4.309-.5-.387.136-1.327.433-1.494.867-.2.527,1.092.854,1.446.829.512-.038,1.009-.41,1.542-.491.385-.059,1.167-.217,1.489.036-.536.25-1.236.946-.182.775.922-.151,1.693-.788,2.665-.769A.5.5,0,0,0,389.509,343.66Z" fill="#bfe15f" opacity="0.15" style="mix-blend-mode: screen;isolation: isolate"/>
          <path id="Trazado_122793" data-name="Trazado 122793" d="M386.069,344.806a3.49,3.49,0,0,1,1.4.455,4.017,4.017,0,0,1,1.094.926c.242.283.816.9.847,1.285a3.566,3.566,0,0,0-.605-1.293,6.419,6.419,0,0,0-.78-1.235c.14.154,1.271-.12,1.467-.179.537-.164.9.053,1.454.137.513.079,1.147-.05,1.634.077-.555-.145-1.114-.237-1.672-.432,0,0,0-.105,0-.112.659-.079,1.123-.824,1.664-1.138a4.347,4.347,0,0,1,1.793-.647,5.2,5.2,0,0,0-2.868.91,2.444,2.444,0,0,1-.928.479,3.851,3.851,0,0,1,1.266-1.161,8.221,8.221,0,0,0-1.745,1.043c-.42.241-1.391.724-1.914.549-.425-.143-.093-.357.232-.6a6.745,6.745,0,0,1,1.552-.929c-.982.264-1.739.849-2.685,1.189a5.038,5.038,0,0,1-2.5.16c.118-.31.921-.611,1.238-.765.423-.205.865-.319,1.285-.5-1.174.179-2.208.968-3.431.823a9.739,9.739,0,0,1-3.179-1.443,2.515,2.515,0,0,0-2.189.2,7.082,7.082,0,0,0,1.149.253c.5.125.951.382,1.458.493a2.9,2.9,0,0,1,1.13.427,6.18,6.18,0,0,1,1.7,1.284c.639.907.6,2.167.92,3.2a5.393,5.393,0,0,1-.124-1.468c-.017-.174-.367-1.883-.339-1.9a3.786,3.786,0,0,1,1.639-.1Z" fill="#74b33c"/>
        </g>
        <g id="Grupo_86301" data-name="Grupo 86301">
          <path id="Trazado_122794" data-name="Trazado 122794" d="M369.383,315.822a1.463,1.463,0,0,1-.242-1.028,4.826,4.826,0,0,1,.714-2.544c2.915-4.194,9.407-3.25,13.553-2.127.87.235,2.107.5,2.56,1.361a25.5,25.5,0,0,0-2.744,3.2c-2.159,2.614-6.469,5.568-10.038,4.313a5.541,5.541,0,0,1-2.777-2.164C370.012,316.318,369.624,316.138,369.383,315.822Z" fill="#549e2a"/>
          <path id="Trazado_122795" data-name="Trazado 122795" d="M377.42,311.732c-2.14.709-5.339,2.287-6.542,4.326-.836,1.418,1.511,2.58,2.66,2.766,3.449.558,6.176-1.328,8.514-3.658.78-.777,1.447-1.648,2.2-2.447.421-.444,1.051-.8,1.323-1.329-.823-.952-2.61-.549-3.683-.486A17.656,17.656,0,0,0,377.42,311.732Z" fill="#549e2a" opacity="0.39" style="mix-blend-mode: multiply;isolation: isolate"/>
          <path id="Trazado_122796" data-name="Trazado 122796" d="M379.176,311.773a5.46,5.46,0,0,1,.784.17c.317.093.634.183.951.274a12.8,12.8,0,0,0,1.876.486.017.017,0,0,0,.01-.032,12.627,12.627,0,0,0-1.822-.654c-.3-.1-.6-.2-.9-.3-.124-.041-.249-.083-.375-.121a.068.068,0,0,0-.034-.031.826.826,0,0,0-.193-.03,2.327,2.327,0,0,0-.25-.042l-.019-.007-.03-.006c.251.073.806-.145,1.079-.172a22.841,22.841,0,0,1,4.192-.457,21.747,21.747,0,0,0-5.174.312c.07-.069.137-.143.209-.2.148-.129.3-.247.462-.361a10.293,10.293,0,0,1,1.005-.586c.024-.014.008-.058-.019-.052a3.455,3.455,0,0,0-1.087.5,4.549,4.549,0,0,0-.479.361,1.835,1.835,0,0,0-.386.4,15.479,15.479,0,0,0-4.181,1.341c.063-.1.125-.2.19-.3q.227-.33.48-.639a11.712,11.712,0,0,1,1.076-1.14c.022-.02-.011-.055-.034-.038a8.166,8.166,0,0,0-1.15,1.088q-.262.3-.5.623a3.72,3.72,0,0,0-.358.554,12.223,12.223,0,0,0-2.8,1.995,5.624,5.624,0,0,1,.292-.951,6.786,6.786,0,0,1,.386-.767c.148-.254.329-.486.485-.735.013-.019-.018-.044-.035-.029a4.283,4.283,0,0,0-.977,1.5,5.444,5.444,0,0,0-.376,1.2c-.048.271-.451.623-.617.839-.293.381-.585.762-.862,1.153-.2.283-1.833,2.157-1.01,2.295.684-1.212,1.235-2.58,2.479-3.34,1.041-.634,2.447-.141,3.566-.079a23.746,23.746,0,0,0,3.762-.022.038.038,0,0,0-.006-.076,35.454,35.454,0,0,1-3.979-.146c-.607-.067-1.208-.177-1.814-.252a5.456,5.456,0,0,0-.867-.043,1.66,1.66,0,0,0-.376.055,11.815,11.815,0,0,1,1.923-1.613,3.232,3.232,0,0,1,1-.478,2.743,2.743,0,0,1,1.443.235c.561.163,1.132.282,1.707.389a17.329,17.329,0,0,0,3.4.32c.033,0,.036-.056,0-.059a27.226,27.226,0,0,1-3.458-.535c-.553-.13-1.1-.293-1.642-.459-.315-.1-.63-.215-.951-.282.186.038.8-.37.994-.45q.543-.221,1.1-.4A4.144,4.144,0,0,1,379.176,311.773Z" fill="#74b33c"/>
          <path id="Trazado_122797" data-name="Trazado 122797" d="M372.6,311.449c.222-.135.453-.259.691-.381a17.524,17.524,0,0,1,6.39-1.459c-.139.015-.77-.294-1.012-.334a7.391,7.391,0,0,0-1.479-.07,12.475,12.475,0,0,0-2.723.416,7.547,7.547,0,0,0-4.016,2.22,3.746,3.746,0,0,0-.938,1.83c-.084.659.061,1.294.733.6.508-.524.707-1.39,1.244-1.95A5.378,5.378,0,0,1,372.6,311.449Z" fill="#bfe15f" opacity="0.22" style="mix-blend-mode: screen;isolation: isolate"/>
        </g>
        <g id="Grupo_86302" data-name="Grupo 86302">
          <path id="Trazado_122798" data-name="Trazado 122798" d="M373.623,322.467c2.878-.589,6.7.414,8.11,3.11,1.687,3.229.29,8.074-.113,11.482-.148,1.25-.109,2.406-.17,3.667a9.166,9.166,0,0,1-2.321-.462,20.045,20.045,0,0,1-2.235-.757,25.026,25.026,0,0,1-3.711-2.232c-1.737-1.169-2.5-3.024-3.453-4.813-1.964-3.706-1.137-8.556,3.34-9.858C373.249,322.551,373.434,322.505,373.623,322.467Z" fill="#5ba233"/>
          <path id="Trazado_122799" data-name="Trazado 122799" d="M372.36,323c1.007-.333,1.693.289,2.508,1.252a13.039,13.039,0,0,1,2.553,5.389c.429,1.776.374,3.626.834,5.389a11.5,11.5,0,0,0,1.58,3.559,12.846,12.846,0,0,1,1.522,2.051c-.2.346-1.9-.278-2.228-.374a20.045,20.045,0,0,1-2.235-.757,25.026,25.026,0,0,1-3.711-2.232,8.509,8.509,0,0,1-3.058-3.937,14.859,14.859,0,0,1-1.184-3.426,7.432,7.432,0,0,1,.49-3.9,6.827,6.827,0,0,1,2.175-2.621A3.04,3.04,0,0,1,372.36,323Z" fill="#549e2a" opacity="0.39" style="mix-blend-mode: multiply;isolation: isolate"/>
          <path id="Trazado_122800" data-name="Trazado 122800" d="M379.323,338.059a6.525,6.525,0,0,0,1.569,1.722,16.13,16.13,0,0,1-1.729-2.678,6.8,6.8,0,0,1-.562-1.483c-.072-.324,0-1.078-.2-1.319.142.167.289.329.441.488.376.392.78.762,1.192,1.115.035.03.086-.015.053-.05-.371-.39-.718-.8-1.049-1.22a4.17,4.17,0,0,1-.763-1.029,5.479,5.479,0,0,1-.094-1.256c-.065-.651-.128-1.3-.223-1.949a13.8,13.8,0,0,0-.442-1.968l.23.151q.48.316.94.665c.626.475,1.17,1.039,1.763,1.551a.031.031,0,0,0,.045-.042,11.61,11.61,0,0,0-1.677-1.67,7.446,7.446,0,0,1-1.341-1.319,16.837,16.837,0,0,1-.959-1.762,12.273,12.273,0,0,0-1.434-2.122c-.172-.2-.354-.4-.54-.591.259.114.538.2.794.3.449.181.895.369,1.329.586a14.3,14.3,0,0,1,2.326,1.507c.038.03.09-.033.053-.066a14.966,14.966,0,0,0-2.292-1.66,11.56,11.56,0,0,0-1.222-.655,12.245,12.245,0,0,1-1.717-.812c-1.288-.845-2.006-2.265-3.435-2.971a34.948,34.948,0,0,1,2.394,2.759,1.8,1.8,0,0,1,.219,1.827c-.386.985-.888,1.953-1.279,2.946a10.664,10.664,0,0,0-.886,3.871,8.443,8.443,0,0,1,.657-2.267,15.845,15.845,0,0,1,1.016-2.628c.3-.581.5-1.678,1.1-2.027.719-.416,1.337.538,1.67,1.03a2.305,2.305,0,0,1,.4,2.231c-.511,2.054-1.422,3.958-1.864,6.037a26.725,26.725,0,0,1,1.189-3.04,15.63,15.63,0,0,1,1.186-2.908,5.816,5.816,0,0,1,.8,4.427,14.988,14.988,0,0,1-.97,2.487,24.348,24.348,0,0,0-.738,2.33,27.73,27.73,0,0,1,2.056-4.166c.345.152.281.841.338,1.2.1.606.3,1.188.416,1.791.243,1.276-.621,2.457-.485,3.775.121-.9.6-1.763.764-2.632a.142.142,0,0,1,.069-.018S379.222,337.9,379.323,338.059Z" fill="#74b33c"/>
          <path id="Trazado_122801" data-name="Trazado 122801" d="M381.29,331.792a22.554,22.554,0,0,1,.13,3.214c.036-1.245.6-2.616.7-3.9a10.6,10.6,0,0,0-.476-4.475c-.251-.685-1.513-3.421-2.625-2.739-.7.431.712,2.429.935,2.915A16.389,16.389,0,0,1,381.29,331.792Z" fill="#bfe15f" opacity="0.22" style="mix-blend-mode: screen;isolation: isolate"/>
        </g>
        <g id="Grupo_86303" data-name="Grupo 86303">
          <path id="Trazado_122802" data-name="Trazado 122802" d="M369.495,323.111a3.046,3.046,0,0,1,.872,2.952c-1.091,7.215-9.39,9.064-15.431,9.018.241,0,1.535-5.2,1.731-5.747,1.227-3.4,3.257-8.637,7.287-9.391,2.4-.447,2.822,1.3,4.459,2.349A6.945,6.945,0,0,1,369.495,323.111Z" fill="#549e2a"/>
          <path id="Trazado_122803" data-name="Trazado 122803" d="M364.351,329.877a17.051,17.051,0,0,1-6.378,4.3c-.747.3-2.134,1.051-2.963.863.2.045,1.461-5.163,1.657-5.706,1.155-3.2,3.4-8.751,7.262-9.289a3.375,3.375,0,0,1,2.781.895C369.166,323.365,366.045,327.97,364.351,329.877Z" fill="#549e2a" opacity="0.39" style="mix-blend-mode: multiply;isolation: isolate"/>
          <path id="Trazado_122804" data-name="Trazado 122804" d="M364.352,332.77a20.882,20.882,0,0,0,.681-2.42,8.606,8.606,0,0,1,1.085-2.784c.255-.4,1.024-1.339,1-1.82,0,.033.006.068.007.1.014.438.016.879.011,1.317a21.8,21.8,0,0,1-.185,2.579c-.009.066.09.069.1.005a22.53,22.53,0,0,0,.316-2.616,8.974,8.974,0,0,1,.5-3.345,3.43,3.43,0,0,1,.655,1.8,10.109,10.109,0,0,1,.084,1.986,4.567,4.567,0,0,0,0-2.875,5.755,5.755,0,0,1-.5-2.378c.09-.548.282-1.07.34-1.638.078-.757.187-2.432-1.022-2.242a5.6,5.6,0,0,1,.568,2.2,3.952,3.952,0,0,1-.421,1.94c-.406.62-.884.2-1.5.151a8.826,8.826,0,0,0-3.664.317,8.2,8.2,0,0,1,3.218-.007c.784.078,2.166.153,1.442,1.257-.71,1.082-2.066,1.184-3.215,1.408a14.484,14.484,0,0,0-3.586,1.012,4.342,4.342,0,0,0,1.126-.284,11.781,11.781,0,0,1,4.944-.589,3.277,3.277,0,0,1-.649,1.453,3.02,3.02,0,0,1-1.3,1.094,12.258,12.258,0,0,1-2.675.647,13.563,13.563,0,0,0-2.907.87,15.215,15.215,0,0,1,2.58-.508,7.75,7.75,0,0,1,2.878-.2,7.554,7.554,0,0,1-1.391,1.631,6.929,6.929,0,0,1-2.148.836,14.612,14.612,0,0,0-2.808.742c.575-.154,1.189-.163,1.761-.3a14.664,14.664,0,0,0,1.795-.185c-.791.333-1.3,1.047-2.061,1.45-.964.51-1.924,1.033-2.928,1.46a19.215,19.215,0,0,0,5.248-2.564c.036-.023.068-.052.1-.076-.013.03-.026.061-.04.091-.094.2-.194.406-.3.6-.2.4-.434.78-.662,1.16-.022.036.029.085.059.049a5.723,5.723,0,0,0,.41-.521q.191-.285.363-.58c.112-.192.215-.388.312-.589a4.588,4.588,0,0,0,.214-.48,13.809,13.809,0,0,0,1.959-1.824q.441-.495.861-1.018-.1.606-.221,1.212c-.159.812-.367,1.617-.519,2.431A.043.043,0,0,0,364.352,332.77Z" fill="#74b33c"/>
          <path id="Trazado_122805" data-name="Trazado 122805" d="M361.6,334.168c1.685-.094,2.934-1.092,4.246-1.99a9.817,9.817,0,0,0,3.484-3.956c.445-.974,1.1-3.025.673-4.116-.624-1.616-1.834-.135-2.015.912s-.143,2.127-.359,3.171a5.21,5.21,0,0,1-.456,1.269c-.079.164-.8,1.135-.791,1.2-.056-.287.327-1.525.057-1.7-.5-.334-.887.878-1.02,1.242-.453,1.238-.621,2.336-1.883,2.938.319-.152.555-2.03-.453-1.6-.381.161-.473.752-.66,1.077a8.541,8.541,0,0,1-1.218,1.542A2.033,2.033,0,0,0,361.6,334.168Z" fill="#bfe15f" opacity="0.22" style="mix-blend-mode: screen;isolation: isolate"/>
        </g>
        <path id="Trazado_122806" data-name="Trazado 122806" d="M388.881,366.653a15.073,15.073,0,0,1-2.784-.743c-1.245-.447-2.4-1.112-3.666-1.505a17.067,17.067,0,0,0-4.893-.967,15.95,15.95,0,0,0-2.051-.01,11.287,11.287,0,0,0-3.648,1.159,9.265,9.265,0,0,0-4.37,4.727c1.4-1.315,4-1.926,5.822-2.265a37.035,37.035,0,0,1,8.215-.221c1.763.077,3.509.213,5.259.355a5.551,5.551,0,0,0,3.05-.436A8.827,8.827,0,0,1,388.881,366.653Z" fill="#bfe15f" opacity="0.11" style="mix-blend-mode: screen;isolation: isolate"/>
        <g id="Grupo_86304" data-name="Grupo 86304">
          <path id="Trazado_122807" data-name="Trazado 122807" d="M375.536,340.525c1.945,2.123-.366,5.584-2.084,6.964-2.689,2.161-6.3,3.044-8.17,6.134a8.686,8.686,0,0,0-1.3,4.389c-.63-2.066.286-4.028.111-6.069a5.2,5.2,0,0,0-1.742-3.7c-1.223-1.024-2.65-2.09-3.273-3.616-.8-1.968,1.452-3.492,2.761-4.49.806-.613,1.788-1.6,2.856-1.72,2.3-.27,3.06,2.891,5.572,2.643,1.384-.137,3.6-1.478,4.91-.8A1.3,1.3,0,0,1,375.536,340.525Z" fill="#70b22a"/>
          <path id="Trazado_122808" data-name="Trazado 122808" d="M364.543,355.79a21.586,21.586,0,0,0-.386,2.917.523.523,0,0,1-.376.064,26.644,26.644,0,0,1,.573-5.334,8.92,8.92,0,0,0-.239-4.887c-.423-.915-1.639-1.94-1.59-2.987a4.835,4.835,0,0,0,1.563,1.864c.848.545.95.1,1.452-.722.444-.725,1.03-1.64.876-2.361-.177-.827-.983-1.608-1.242-2.444.533.563,1.144,2.358,2.181,2.021,1.161-.377.38-2.571.142-3.278.762.546.981,1.363,2,1.288,1.154-.085,2.375-.574,3.541-.714-1.673.3-4.121,1.331-4.668,3.149a7.086,7.086,0,0,0,4.357-.852c-1.07.825-2.681.861-3.864,1.582a5.488,5.488,0,0,0-2.233,3.386,8.847,8.847,0,0,0,4.21-1.041c-1.428.88-3.2,1.522-4.156,2.93A15.125,15.125,0,0,0,364.543,355.79Z" fill="#549e2a"/>
          <path id="Trazado_122809" data-name="Trazado 122809" d="M363.881,340.863c-.192-.681-.28-1.2-.119-1.2-1.318-.013-4.169,2.142-4.435,3.495-.368,1.873,1.226,3.137,2.408,4.191a6.8,6.8,0,0,1,2.409,3.581,29.114,29.114,0,0,1,.091,5.429,8.648,8.648,0,0,1,.881-2.869c1.509-2.7,5.25-4.248,7.755-5.83a4.644,4.644,0,0,0,1.972-1.856c-.149.389-2.075,1.129-2.492,1.353a12.462,12.462,0,0,1-2.6,1.015c-.819.233-2.779,1.463-3.476.515-.589-.8.512-2.336.9-3.005a35.628,35.628,0,0,1,1.755-3.12,8.458,8.458,0,0,0,.543-.8,4.709,4.709,0,0,1-2.522-1.74,11.741,11.741,0,0,1,.636,3.218c-.117,1.2-1.207,2.018-2.254,1.124C364.482,343.631,364.168,341.89,363.881,340.863Z" fill="#378a1a" opacity="0.26" style="mix-blend-mode: multiply;isolation: isolate"/>
        </g>
        <path id="Trazado_122810" data-name="Trazado 122810" d="M359.018,368.8c-.649-.306-1.336-.537-2.053-.815a17.491,17.491,0,0,0-6.439-1.063,21.018,21.018,0,0,0-8.2,1.588c-1.816.775-3.63,1.538-5.436,2.328a15.171,15.171,0,0,1,2.119,1c.789.567,1.3,1.443,2.084,2.013,1.375,1,3.417,1.037,5.039.91a12.18,12.18,0,0,0,4.8-1.532,41.643,41.643,0,0,1,5.227-2.492c1.265-.468,2.473-1.1,3.767-.41a4.884,4.884,0,0,1,2.467,2.857c.169-1.224-.894-2.514-1.719-3.289A6.241,6.241,0,0,0,359.018,368.8Z" fill="#549e2a" opacity="0.39" style="mix-blend-mode: multiply;isolation: isolate"/>
        <path id="Trazado_122811" data-name="Trazado 122811" d="M362.395,373.189c.169-1.224-.894-2.514-1.719-3.289a6.241,6.241,0,0,0-1.658-1.1c-.649-.306-1.336-.537-2.053-.815a17.491,17.491,0,0,0-6.439-1.063,21.018,21.018,0,0,0-8.2,1.588c-1.12.478-3.057.884-3.867,1.828.931.119,2.419-1.012,3.164-.624a3.255,3.255,0,0,1-.606.644c1.258-.735,3.638-2.164,5.127-1.663a2.828,2.828,0,0,1-.566.725c-.026.02-.026.019,0,0a10.288,10.288,0,0,1,3.994-1.087c.766-.062,2.16.194.97.822.557-.422,3.541-1.047,3.869-.134.316.877-1.73,1.665-2.225,1.975a13.91,13.91,0,0,1,2.237-.854,13.407,13.407,0,0,1,2.4-.747,3.77,3.77,0,0,1,2.115.066C359.909,369.868,362.563,371.978,362.395,373.189Z" fill="#549e2a" opacity="0.39" style="mix-blend-mode: multiply;isolation: isolate"/>
        <path id="Trazado_122812" data-name="Trazado 122812" d="M361.72,370.809a2.893,2.893,0,0,1,.737,1.936c.161-2.309-2.132-3.613-3.9-4.4-.419-.186-.847-.346-1.28-.5l-.021-.018c-.186-.167-.368-.338-.549-.509-.341-.323-.677-.654-1.036-.958a4.282,4.282,0,0,0-2.24-1.129c-.022,0-.032.034-.009.04a4.669,4.669,0,0,1,2.219,1.331c.318.319.615.657.921.986.009.01.018.017.026.026l-.112-.038a25.242,25.242,0,0,0-2.585-.621,7.138,7.138,0,0,1-1.755-.722,12.524,12.524,0,0,0-1.4-.564,6.89,6.89,0,0,0-2.773-.429c-.036,0-.034.064,0,.065a7.463,7.463,0,0,1,2.735.587c.425.177.835.385,1.247.589.182.091.362.186.543.281-.129-.015-.258-.035-.387-.046a20.163,20.163,0,0,0-3.726.01,4.536,4.536,0,0,0-.723-.214,7.727,7.727,0,0,0-1.268-.167,16.261,16.261,0,0,0-2.61.1c-.019,0-.018.033,0,.033.835,0,1.673-.027,2.505.053a8.2,8.2,0,0,1,1.234.207c.064.016.126.037.189.056a21.847,21.847,0,0,0-4.094.918,2.941,2.941,0,0,0-.5-.046,6.667,6.667,0,0,0-.748.017,7.52,7.52,0,0,0-1.56.293c-.023.006-.018.041.006.036a8.892,8.892,0,0,1,1.561-.149c.247,0,.493,0,.739.021a18.008,18.008,0,0,0-4.235,2.14c-.019.013,0,.045.021.034a22.528,22.528,0,0,1,4.208-1.889,7.785,7.785,0,0,0-.712.635c-.376.374-.714.785-1.091,1.158a9.472,9.472,0,0,1-1.278,1.053c-.016.011,0,.038.018.028a11.917,11.917,0,0,0,2.386-1.858,7.741,7.741,0,0,1,1.15-.965,5.11,5.11,0,0,1,1.054-.494,21.463,21.463,0,0,1,2.5-.479c.247-.031.5-.053.746-.075a7.489,7.489,0,0,0-1.618,1.3c-.487.5-.931,1.033-1.415,1.533a9.035,9.035,0,0,1-.759.7c-.3.243-.626.442-.919.688-.012.009,0,.029.015.022a12.36,12.36,0,0,0,3.117-2.5,11.64,11.64,0,0,1,1.47-1.21,6.385,6.385,0,0,1,1.224-.61,22.584,22.584,0,0,1,3.621.14c-.1.038-.2.074-.3.119a5.637,5.637,0,0,0-1.475,1.056c-.46.434-.88.907-1.349,1.332a12,12,0,0,1-1.616,1.228c-.042.027-.011.1.035.072a16.71,16.71,0,0,0,2.887-2.141,7.677,7.677,0,0,1,1.456-1.08,4.068,4.068,0,0,1,1.446-.426,21.652,21.652,0,0,1,2.125.471c.222.062.44.137.659.207-.016.005-.032.008-.048.014a5.294,5.294,0,0,0-.75.326,9.444,9.444,0,0,0-1.325.873,9.141,9.141,0,0,1-2.95,1.845.014.014,0,1,0,0,.027,6.368,6.368,0,0,0,2.865-1.472,15.349,15.349,0,0,1,1.374-.884,8.8,8.8,0,0,1,1.333-.57c.376.131.748.274,1.116.425A9.486,9.486,0,0,1,361.72,370.809Z" fill="#74b33c"/>
        <path id="Trazado_122813" data-name="Trazado 122813" d="M369.064,368.578c3.209-1.7,6.371-1.773,9.9-1.672,1.8.052,3.676.081,5.458.255,1.684.165,3.778.906,5.388.213-.606,1-2.8.791-3.8.781-1.444-.013-4.214-1.107-5.33.236a8.668,8.668,0,0,0-2.429-.675,4.576,4.576,0,0,0-2.076.285c-.2.1-.421.339-.611.386-.9.22-1.912-.137-2.911.265s-1.162.751-.872,1.612a5.1,5.1,0,0,0-5.582.52C366.555,369.45,368.017,369.131,369.064,368.578Z" fill="#549e2a" opacity="0.39" style="mix-blend-mode: multiply;isolation: isolate"/>
        <path id="Trazado_122814" data-name="Trazado 122814" d="M388.992,367a7.135,7.135,0,0,1-2.5.091c-.754-.074-1.506-.164-2.258-.258l.013,0a7.356,7.356,0,0,0,1.512-.489c.023-.01.007-.04-.016-.033a8.233,8.233,0,0,1-1.529.337c-.243.03-.486.05-.731.066-.052,0-.105.007-.158.009-1.393-.174-2.784-.34-4.187-.4.271-.1.542-.189.812-.285.779-.274,1.585-.472,2.385-.672.071-.017.054-.127-.019-.113-.807.15-1.6.355-2.4.544-.4.1-.79.209-1.182.325-.173.051-.362.1-.543.171a24.146,24.146,0,0,0-4.582.355c.149-.107.3-.214.45-.316.471-.313.959-.609,1.454-.884a15.375,15.375,0,0,1,1.492-.718c.519-.219,1.067-.375,1.577-.615.021-.009.01-.04-.012-.038a7.268,7.268,0,0,0-1.61.459c-.546.2-1.079.432-1.6.683a13.582,13.582,0,0,0-1.482.826q-.358.23-.7.482a2.649,2.649,0,0,0-.334.279,16.006,16.006,0,0,0-3.425,1.182,5.265,5.265,0,0,1,.283-.458,5.766,5.766,0,0,1,.844-.949c.7-.634,1.536-1.092,2.24-1.718.018-.016,0-.052-.025-.038a22.457,22.457,0,0,0-2.382,1.7,6.434,6.434,0,0,0-.888.9,2.626,2.626,0,0,0-.472.773,11.783,11.783,0,0,0-3.381,2.688c-.038.045.035.112.077.07a12.12,12.12,0,0,1,3.5-2.415,4.361,4.361,0,0,0,.773.573c.3.194.6.388.9.58a11.2,11.2,0,0,0,1.862,1.023,10.485,10.485,0,0,0,3.922.488c.041,0,.049-.062.006-.064a10.189,10.189,0,0,1-3.841-.659,13.768,13.768,0,0,1-1.769-1.13q-.445-.3-.893-.592a5.812,5.812,0,0,0-.608-.371,17.369,17.369,0,0,1,3.151-1.014,5.023,5.023,0,0,0,1.171.714c.423.217.844.437,1.272.642a11.147,11.147,0,0,0,2.663.95,16.484,16.484,0,0,0,2.918.233,20.218,20.218,0,0,0,2.992-.161c.03,0,.021-.048-.008-.045a29.262,29.262,0,0,1-3.02.074,13.2,13.2,0,0,1-2.87-.361,11.205,11.205,0,0,1-2.549-1.129c-.407-.224-.82-.436-1.232-.651a8.554,8.554,0,0,0-.782-.384l.078-.017a25.514,25.514,0,0,1,4.616-.381c.076.047.156.088.234.13a6.807,6.807,0,0,1,.6.365,12.3,12.3,0,0,0,1.1.721,4.706,4.706,0,0,0,2.494.6c.025,0,.022-.041,0-.043a4.919,4.919,0,0,1-2.558-.925c-.332-.249-.657-.507-1-.736l-.172-.113c1.572.025,3.147.133,4.709.242a3.6,3.6,0,0,0,.837.463c.334.161.653.352.987.513a4.471,4.471,0,0,0,1.982.7.037.037,0,0,0,.007-.074,5.173,5.173,0,0,1-1.964-.916,9.47,9.47,0,0,0-.891-.576l-.07-.037c.736.06,1.471.125,2.207.19a4.854,4.854,0,0,0,2.564-.237C389.09,367.09,389.06,366.984,388.992,367Z" fill="#74b33c"/>
      </g>
    </g>
  </g>
</svg>
