<?xml version="1.0" encoding="utf-8"?>
<!-- Generator: Adobe Illustrator 28.3.0, SVG Export Plug-In . SVG Version: 6.00 Build 0)  -->
<svg version="1.1" id="Capa_1" xmlns="http://www.w3.org/2000/svg" xmlns:xlink="http://www.w3.org/1999/xlink" x="0px" y="0px"
	 viewBox="0 0 332.5 385.2" style="enable-background:new 0 0 332.5 385.2;" xml:space="preserve">
<style type="text/css">
	.st0{fill:#FFE9E1;}
	.st1{fill:#ADCE32;}
	.st2{enable-background:new    ;}
	.st3{fill:#12263F;}
	.st4{fill:#FFFFFF;}
	.st5{fill:#326900;}
	.st6{fill:#5BA233;}
	.st7{opacity:0.39;fill:#549E2A;enable-background:new    ;}
	.st8{fill:#74B33C;}
	.st9{opacity:0.22;fill:#BFE15F;enable-background:new    ;}
	.st10{fill:#549E2A;}
	.st11{fill:url(#Trazado_122729_00000112613960223728589850000010063717399885148080_);}
	.st12{opacity:0.11;fill:#BFE15F;enable-background:new    ;}
	.st13{opacity:0.2;fill:#378A1A;enable-background:new    ;}
	.st14{fill:#70451D;}
	.st15{opacity:0.25;fill:#70451D;enable-background:new    ;}
	.st16{opacity:0.15;fill:#BFE15F;enable-background:new    ;}
	.st17{fill:#70B22A;}
	.st18{opacity:0.26;fill:#378A1A;enable-background:new    ;}
</style>
<g id="img1" transform="translate(6748 10869.11)">
	<path id="Rectángulo_34790" class="st0" d="M-6728-10869.1h291.9c11,0,20,9,20,20v345.2c0,11-9,20-20,20H-6728c-11,0-20-9-20-20
		v-345.2C-6748-10860.2-6739-10869.1-6728-10869.1z"/>
	<path id="Rectángulo_34791" class="st1" d="M-6747.3-10534.2h331.9l0,0v29c0,11-9,20-20,20h-291.9c-11,0-20-9-20-20V-10534.2
		L-6747.3-10534.2z"/>
	<g class="st2">
		<path class="st3" d="M-6610.3-10507.7h-3.7v3.8h-1.9v-9.2h6v1.5h-4.1v2.4h3.7V-10507.7z"/>
		<path class="st3" d="M-6605.1-10504c-0.1-0.2-0.1-0.4-0.2-0.6c-0.4,0.5-1,0.7-1.7,0.7c-0.7,0-1.2-0.2-1.7-0.6
			c-0.4-0.4-0.7-0.9-0.7-1.5c0-0.7,0.3-1.3,0.8-1.7c0.5-0.4,1.3-0.6,2.3-0.6h0.8v-0.4c0-0.3-0.1-0.6-0.2-0.8
			c-0.2-0.2-0.4-0.3-0.8-0.3c-0.3,0-0.6,0.1-0.7,0.2c-0.2,0.1-0.3,0.4-0.3,0.6h-1.8c0-0.4,0.1-0.8,0.4-1.1c0.2-0.3,0.6-0.6,1-0.8
			s1-0.3,1.5-0.3c0.8,0,1.5,0.2,2,0.6c0.5,0.4,0.7,1,0.7,1.8v3c0,0.7,0.1,1.1,0.3,1.5v0.1H-6605.1z M-6606.6-10505.2
			c0.3,0,0.5-0.1,0.7-0.2c0.2-0.1,0.4-0.3,0.5-0.5v-1.2h-0.7c-0.9,0-1.4,0.3-1.5,1l0,0.1c0,0.2,0.1,0.4,0.2,0.6
			S-6606.9-10505.2-6606.6-10505.2z"/>
		<path class="st3" d="M-6598.4-10505.9c0-0.2-0.1-0.4-0.3-0.5c-0.2-0.1-0.6-0.2-1.1-0.3c-1.6-0.3-2.5-1-2.5-2.1
			c0-0.6,0.3-1.1,0.8-1.5c0.5-0.4,1.2-0.6,2-0.6c0.9,0,1.6,0.2,2.1,0.6c0.5,0.4,0.8,0.9,0.8,1.6h-1.8c0-0.3-0.1-0.5-0.3-0.7
			c-0.2-0.2-0.4-0.3-0.8-0.3c-0.3,0-0.5,0.1-0.7,0.2c-0.2,0.1-0.3,0.3-0.3,0.5c0,0.2,0.1,0.4,0.3,0.5c0.2,0.1,0.5,0.2,1,0.3
			s0.8,0.2,1.2,0.3c1,0.4,1.5,1,1.5,1.8c0,0.6-0.3,1.1-0.8,1.5c-0.5,0.4-1.2,0.6-2.1,0.6c-0.6,0-1.1-0.1-1.5-0.3
			c-0.4-0.2-0.8-0.5-1.1-0.8s-0.4-0.7-0.4-1.2h1.7c0,0.3,0.1,0.6,0.4,0.7s0.5,0.3,0.9,0.3c0.4,0,0.6-0.1,0.8-0.2
			C-6598.5-10505.5-6598.4-10505.7-6598.4-10505.9z"/>
		<path class="st3" d="M-6592.3-10503.8c-1,0-1.8-0.3-2.5-0.9c-0.6-0.6-0.9-1.4-0.9-2.5v-0.2c0-0.7,0.1-1.3,0.4-1.8s0.6-1,1.1-1.3
			c0.5-0.3,1-0.4,1.7-0.4c0.9,0,1.7,0.3,2.2,0.9c0.5,0.6,0.8,1.4,0.8,2.5v0.7h-4.4c0.1,0.4,0.2,0.8,0.5,1.1c0.3,0.3,0.7,0.4,1.1,0.4
			c0.7,0,1.3-0.3,1.7-0.8l0.9,1c-0.3,0.4-0.6,0.7-1.1,0.9S-6591.7-10503.8-6592.3-10503.8z M-6592.5-10509.5c-0.4,0-0.7,0.1-0.9,0.4
			c-0.2,0.2-0.4,0.6-0.4,1.1h2.6v-0.1c0-0.4-0.1-0.7-0.3-0.9C-6591.8-10509.4-6592.1-10509.5-6592.5-10509.5z"/>
		<path class="st3" d="M-6583.3-10510.8v7.2c0,0.8-0.2,1.3-0.6,1.8s-1,0.6-1.7,0.6c-0.3,0-0.6,0-0.9-0.1v-1.5c0.2,0,0.4,0.1,0.6,0.1
			c0.6,0,0.8-0.3,0.8-0.9v-7.3H-6583.3z M-6585.2-10512.6c0-0.3,0.1-0.5,0.3-0.7c0.2-0.2,0.4-0.3,0.8-0.3s0.6,0.1,0.8,0.3
			c0.2,0.2,0.3,0.4,0.3,0.7c0,0.3-0.1,0.5-0.3,0.7c-0.2,0.2-0.4,0.3-0.7,0.3s-0.6-0.1-0.7-0.3
			C-6585.1-10512.1-6585.2-10512.3-6585.2-10512.6z"/>
		<path class="st3" d="M-6577.7-10504.7c-0.5,0.5-1.1,0.8-1.9,0.8c-0.7,0-1.3-0.2-1.7-0.6c-0.4-0.4-0.6-1-0.6-1.9v-4.5h1.8v4.4
			c0,0.7,0.3,1.1,1,1.1c0.6,0,1-0.2,1.3-0.6v-4.9h1.8v6.9h-1.7L-6577.7-10504.7z"/>
		<path class="st3" d="M-6572-10506.2l1.3-4.6h1.9l-2.3,6.9h-1.8l-2.3-6.9h1.9L-6572-10506.2z"/>
		<path class="st3" d="M-6564.9-10503.8c-1,0-1.8-0.3-2.5-0.9s-0.9-1.4-0.9-2.5v-0.2c0-0.7,0.1-1.3,0.4-1.8s0.6-1,1.1-1.3
			c0.5-0.3,1-0.4,1.7-0.4c0.9,0,1.7,0.3,2.2,0.9c0.5,0.6,0.8,1.4,0.8,2.5v0.7h-4.4c0.1,0.4,0.2,0.8,0.5,1.1c0.3,0.3,0.7,0.4,1.1,0.4
			c0.7,0,1.3-0.3,1.7-0.8l0.9,1c-0.3,0.4-0.6,0.7-1.1,0.9S-6564.3-10503.8-6564.9-10503.8z M-6565.1-10509.5c-0.4,0-0.7,0.1-0.9,0.4
			c-0.2,0.2-0.4,0.6-0.4,1.1h2.6v-0.1c0-0.4-0.1-0.7-0.3-0.9C-6564.4-10509.4-6564.7-10509.5-6565.1-10509.5z"/>
		<path class="st3" d="M-6559.3-10510.8l0.1,0.8c0.5-0.6,1.1-0.9,2-0.9c0.7,0,1.3,0.2,1.6,0.6c0.4,0.4,0.5,1.1,0.5,1.9v4.4h-1.8
			v-4.4c0-0.4-0.1-0.7-0.3-0.8c-0.2-0.2-0.5-0.3-0.8-0.3c-0.5,0-0.9,0.2-1.2,0.7v4.8h-1.8v-6.9H-6559.3z"/>
		<path class="st3" d="M-6553.8-10512.6c0-0.3,0.1-0.5,0.3-0.7c0.2-0.2,0.4-0.3,0.8-0.3c0.3,0,0.6,0.1,0.7,0.3
			c0.2,0.2,0.3,0.4,0.3,0.7c0,0.3-0.1,0.5-0.3,0.7c-0.2,0.2-0.4,0.3-0.7,0.3c-0.3,0-0.6-0.1-0.7-0.3S-6553.8-10512.3-6553.8-10512.6
			z M-6551.8-10504h-1.8v-6.9h1.8V-10504z"/>
		<path class="st3" d="M-6548.4-10504h-1.8v-9.8h1.8V-10504z"/>
	</g>
	<g id="Grupo_953436">
		<g id="Grupo_91811" transform="translate(-7744.255 -11700)">
			<g id="Grupo_85796" transform="translate(1179.903 972.619)">
				<g id="Grupo_85795">
					<path id="Trazado_122015" class="st4" d="M16.9,14.9c3,0,5.9,0.8,8.5,2.3C32.7,4,49.3-0.7,62.5,6.6c3.9,2.2,7.2,5.2,9.6,8.9
						C75.2,4.3,86.8-2.4,98.1,0.7c8.5,2.3,14.7,9.8,15.5,18.6c0.9-0.2,1.8-0.2,2.7-0.2c6.5,0,12.4,3.7,15.4,9.5H0
						C1.7,20.7,8.7,15,16.9,14.9z"/>
				</g>
			</g>
			<g id="Grupo_85833" transform="translate(1013.255 934.823)">
				<path id="Trazado_122047" class="st4" d="M73.7,22.1H0C0,22.1,5.4,0,24.5,0c9.9-0.1,19.2,5,24.3,13.6
					C54.3,11.4,66.3,8.7,73.7,22.1"/>
			</g>
			<g id="Grupo_85835" transform="translate(1229.652 855.479)">
				<g id="Grupo_85834" transform="translate(7.766 21.584)">
					<path id="Trazado_122048" class="st4" d="M60.2,18.1H0C0,18.1,4.4,0,20,0c8.1-0.1,15.7,4.1,19.9,11.1
						C44.4,9.3,54.2,7.1,60.2,18.1"/>
				</g>
			</g>
			<g id="Grupo_85836" transform="translate(1131.967 1106.518)">
				<path id="Trazado_122049" class="st4" d="M47,14.1H0C0,14.1,3.4,0,15.6,0C22-0.1,27.9,3.2,31.1,8.7C34.7,7.3,42.3,5.6,47,14.1"
					/>
			</g>
		</g>
		<g id="Grupo_86305" transform="translate(-6946.148 -10965.6)">
			<g id="Grupo_86284">
				<path id="Trazado_122710" class="st5" d="M403.1,296.9c0.9,1.2,1,2.9,0.1,4.2c-0.6-0.4-1.2-0.8-1.7-1.3c-0.6-0.5-1.3-0.9-2-1.2
					c-0.4-0.2-1.4-0.5-1.6-0.9c0.7-0.5,1.5-0.9,2.3-1.2C401.3,296.5,402.2,296.6,403.1,296.9z"/>
				<path id="Trazado_122711" class="st6" d="M386.8,298.3c0.7-2,3.3-5.1,5.6-5.3c1.5-0.1,3,1,4.6,1.2c2.4,0.2,5.7,0.8,6.6,3.5
					c-1.8,0-3.6,0.3-5.2,0.9c-1.9,0.7-3.9,0.9-6,0.7C391.9,299.3,386.9,298.1,386.8,298.3z"/>
				<path id="Trazado_122712" class="st7" d="M397,294.2c-0.4,0-0.8-0.1-1.1-0.3c-0.2,0-0.4,0.1-0.6,0.1c-3.1,0.5-5.9,1.8-8.3,3.8
					c-0.1,0.1-0.1,0.3-0.2,0.4c0.1-0.2,5.1,1,5.6,1.1c2,0.2,4,0,6-0.7c1.7-0.6,3.4-0.9,5.2-0.9C402.8,295.1,399.4,294.5,397,294.2z"
					/>
				<path id="Trazado_122713" class="st7" d="M396.9,294.7c-1.7-0.4-3.6-0.3-5.2,0.4c-0.9,0.4-1.7,0.8-2.6,1.3
					c-0.5,0.3-1.9,1-2.2,1.5c-0.1,0.1-0.1,0.3-0.2,0.4c0.1-0.2,5.1,1,5.6,1.1c0.9,0.2,1.9,0.2,2.9,0c0.7-0.2,1.5-0.4,2.3-0.6
					c-0.8,0-6.4-0.1-6.3-1.4c0.1-0.9,5.7-0.7,6.4-0.9c-0.8,0.1-1.6,0.1-2.4-0.1c-0.4-0.1-2.1-0.3-2.4-0.7c-0.5-0.8,3.6-1,4.1-1
					L396.9,294.7z"/>
				<path id="Trazado_122714" class="st8" d="M392.8,294.9C392.8,294.9,392.8,295,392.8,294.9C392.9,294.9,392.9,294.9,392.8,294.9
					c1.1-0.3,2.3-0.3,3.4-0.1c1.2,0.3,2.5,0.4,3.7,0.4c0,0,0,0,0,0c-0.6,0-1.3-0.1-1.9-0.2c-0.6-0.1-1.2-0.3-1.9-0.4
					c-0.5-0.1-1.1-0.1-1.6-0.1c0.6-0.1,1.2-0.2,1.8-0.2c0.3,0,0.9,0.1,1.1,0.1c-0.2-0.1-0.4-0.2-0.6-0.2c-1.6-0.2-3.1,0.1-4.6,0.8
					c-0.6,0.3-1.3,0.5-1.9,0.8c0.2-0.2,0.5-0.5,0.7-0.7c0.5-0.5,1-1,1.5-1.5c0,0,0-0.1,0,0c-0.5,0.5-1,0.9-1.5,1.4
					c-0.2,0.2-0.5,0.5-0.7,0.7c-0.1,0.1-0.3,0.3-0.4,0.5c-0.5,0.3-1,0.5-1.4,0.8c0-0.1,0.1-0.1,0.1-0.2c0.1-0.2,0.2-0.4,0.4-0.6
					c0.2-0.4,0.5-0.7,0.8-1.1c0,0,0,0,0,0c-0.3,0.3-0.6,0.7-0.9,1c-0.1,0.2-0.3,0.4-0.4,0.6c-0.1,0.1-0.2,0.3-0.2,0.4
					c-1,0.6-2,1.3-3,2c-0.7,0.4-1.4,0.9-1.9,1.5c0.3,0.2,0.8,0.2,1.1,0c0.6-0.4,1.1-0.8,1.5-1.3c1-0.9,2-1.7,3.1-2.4
					c0.2-0.1,0.5-0.1,0.7-0.1c0.3-0.1,0.6-0.1,1-0.1c0.7-0.1,1.3-0.1,2,0c1.3,0.1,2.7,0.2,4,0.2c0.7,0,1.5-0.1,2.2-0.4c0,0,0,0,0,0
					c-2.7,0.6-5.4-0.3-8.1-0.1c-0.4,0-0.7,0.1-1.1,0.2c0,0-0.1,0-0.1,0c0.3-0.2,0.6-0.4,1-0.5C391.3,295.5,392.1,295.2,392.8,294.9z
					"/>
			</g>
			<g id="Grupo_86285">
				<path id="Trazado_122715" class="st6" d="M380.1,335.7c-1-2.4-0.8-6,1.3-7.7c2.6-2.1,7.1-1.7,10.2-2c1.1-0.1,2.1-0.3,3.3-0.5
					c0.1,0.7,0.1,1.4,0,2.1c0,0.7-0.1,1.4-0.3,2.1c-0.7,3-2.4,5.7-4.9,7.6c-2.9,2.4-7.4,2.5-9.3-1.2
					C380.3,336,380.2,335.9,380.1,335.7z"/>
				<path id="Trazado_122716" class="st7" d="M380.9,336.8c-0.2-0.3-0.3-0.6-0.5-0.9c-0.1-0.2-0.1-0.3-0.2-0.5
					c0.4-0.5,1-0.8,1.4-1.2c0.4-0.4,0.7-0.8,1.2-1.2c0.9-0.8,1.9-1.4,3-1.9c1.5-0.7,3.1-1,4.6-1.7c1.1-0.5,2-1.2,2.9-2
					c0.4-0.5,0.9-0.9,1.4-1.4c0.2,0.2,0,0.9,0,1.3c0,0.9,0,1.7-0.2,2.6c-0.3,1.5-1,3-2,4.2c-1.6,2.1-3.8,4.5-6.6,4.8
					c-0.7,0.1-1.5,0-2.2-0.1C382.6,338.4,381.5,337.7,380.9,336.8z"/>
				<path id="Trazado_122717" class="st9" d="M387,327.2c0.3-0.1,0.6-0.1,0.9,0c0.4,0.2,0.5,0.5,1,0.3c0.7-0.3,1.3-0.7,1.8-1.1
					c-0.4-0.3-1.3,0-1.8,0c-0.8,0-1.6,0-2.4,0.1c-1.7,0.1-3.4,0.8-4.7,1.8c-0.7,0.6-1.2,1.4-1.6,2.2c-0.2,0.5-0.3,1,0.3,0.7
					c0.8-0.4,1.5-1,2.1-1.8c0.4-0.5,1-1.4,1.6-1.5c0.5-0.1,0.5,0.2,0.9,0.3c0.6,0.3,1.2-0.5,1.7-0.9
					C386.8,327.3,386.9,327.2,387,327.2z"/>
				<path id="Trazado_122718" class="st7" d="M381.1,336.5c-0.2-0.1-0.4-0.3-0.5-0.5c-0.7-0.9,0.9-1.7,1.4-2.2
					c1.2-1.1,2.5-2,3.9-2.7c1.5-0.7,3.1-1,4.6-1.7c0.6-0.3,1.1-0.6,1.6-1c0.5-0.4,1-0.8,1.5-1.2c-0.4,0.6-1.4,1-1.6,1.7
					c-0.2,0.5,0.4,0.4,0.8,0.5c-1,0.6-2.2,0.9-3.2,1.5c-0.3,0.2-1,0.6-0.9,1c0,0.2,0.2,0.3,0.3,0.4c-0.7-0.1-4.2,1.2-2.9,2.1
					c-0.8,0-1.5,0.2-2.1,0.7c-0.7,0.4-0.6,0.6-0.3,1.2c-0.1-0.1-1.1,0.4-1.2,0.4C381.9,336.9,381.5,336.8,381.1,336.5z"/>
				<path id="Trazado_122719" class="st8" d="M377.3,337.3c0.2-0.2,0.4-0.3,0.6-0.4c1.3-1.1,2.8-2.2,3.4-3.7c0.2-0.5,0.5-1,0.7-1.4
					c0.5-0.9,1.2-1.7,2-2.4c0,0,0,0,0,0c0,0,0,0,0,0c-0.7,0.7-1.3,1.6-1.9,2.5c-0.2,0.5-0.5,0.9-0.6,1.4c-0.1,0.2-0.2,0.5-0.3,0.7v0
					c1.1-0.9,2.6-1.6,3.3-2.9c0.2-0.4,0.5-0.7,0.7-1.1c0.5-0.6,1.1-1.3,1.7-1.9c0,0,0.1,0,0,0c-0.5,0.6-1,1.3-1.5,1.9
					c-0.2,0.3-0.4,0.7-0.6,1c-0.1,0.2-0.2,0.4-0.3,0.6c0.1-0.2,0.9-0.4,1.1-0.5c0.4-0.2,0.7-0.3,1.1-0.5c0.7-0.2,1.3-0.6,1.7-1.2
					c0.2-0.3,0.4-0.6,0.6-0.8c0.4-0.5,0.8-1,1.3-1.5c0,0,0,0,0,0c-0.4,0.5-0.8,1-1.1,1.6c-0.2,0.3-0.3,0.5-0.5,0.8
					c-0.1,0.1-0.1,0.2-0.2,0.3c0.5-0.2,1-0.5,1.5-0.7c1.2-0.6,2.3-1.4,3.3-2.3c0,0,0.1,0,0,0.1c-1.3,1.2-2.7,2.2-4.3,2.9
					c0.3,0,0.6-0.1,0.9-0.1c0.9,0,1.9-0.2,2.8-0.5c0,0,0.1,0,0,0.1c-0.8,0.3-1.7,0.5-2.6,0.6c-1.9,0.3-3.7,1-5.3,2
					c0.9-0.1,1.7,0,2.6,0.1c0.6,0.1,1.2,0.2,1.8,0.2c0.6,0,1.2,0,1.9-0.1c0,0,0,0,0,0c-1.1,0.3-2.3,0.4-3.5,0.1
					c-0.6-0.1-1.2-0.1-1.8-0.2c-1.1,0-2.2,0.4-3.1,1.2c0,0,0.1,0,0.1,0c0.3,0.1,0.7,0.1,1,0.2c0.6,0.2,1.3,0.4,1.9,0.6
					c0.6,0.2,1.2,0.4,1.9,0.5c0.3,0,0.6,0.1,0.9,0.1c0.3,0,0.7-0.1,1-0.1c0,0,0,0,0,0c-0.6,0.2-1.2,0.3-1.8,0.2
					c-0.6-0.1-1.3-0.2-1.9-0.3c-0.7-0.2-1.3-0.4-2-0.6c-1-0.4-2.2-0.1-2.9,0.6l-0.4,0.3c0.3,0.1,0.6,0.1,0.9,0.2
					c0.5,0.2,1,0.4,1.5,0.6c1,0.5,2,0.7,3.1,0.6c0,0,0,0,0,0c0,0,0,0,0,0c-1,0.2-2.1,0.1-3-0.3c-0.5-0.2-1-0.4-1.6-0.6
					c-0.4-0.1-0.8-0.2-1.3-0.4c0,0-1.4,1.4-1.6,1.5c-0.7,0.5-1.4,0.9-2.2,1.1C376.8,337.7,377,337.5,377.3,337.3z"/>
			</g>
			<g id="Grupo_86286">
				<path id="Trazado_122720" class="st6" d="M342.9,345.7c-1.3-2.3-4.2-4.3-6.9-3.7c-3.2,0.8-5.7,4.6-7.8,6.9
					c-0.8,0.8-1.6,1.5-2.4,2.3c0.5,0.5,1.1,0.9,1.7,1.3c0.6,0.4,1.2,0.8,1.8,1.1c2.8,1.3,6,1.6,9,0.7c3.7-0.9,6.5-4.3,4.7-8.1
					C343,346,342.9,345.8,342.9,345.7z"/>
				<path id="Trazado_122721" class="st7" d="M343.2,346.9c-0.1-0.3-0.2-0.6-0.4-0.9c-0.1-0.2-0.2-0.3-0.3-0.5
					c-0.6,0.1-1.2,0.3-1.9,0.4c-0.5,0.1-1.1,0.1-1.6,0.2c-1.2,0.3-2.3,0.7-3.3,1.2c-1.5,0.8-2.7,1.9-4.2,2.6c-1.1,0.5-2.2,0.9-3.4,1
					c-0.6,0.1-1.3,0.1-1.9,0.3c0.1,0.3,0.7,0.6,1,0.8c0.7,0.6,1.4,1,2.1,1.4c1.4,0.7,2.9,1,4.5,1c2.6,0,5.9-0.3,7.8-2.3
					c0.5-0.6,0.9-1.2,1.2-1.9C343.5,349.3,343.6,348,343.2,346.9z"/>
				<path id="Trazado_122722" class="st9" d="M331.9,345.9c-0.3,0.2-0.4,0.4-0.5,0.7c-0.1,0.4,0.1,0.7-0.3,1c-0.6,0.4-1.3,0.6-2,0.7
					c0.1-0.5,0.8-1.1,1.1-1.5c0.5-0.7,1-1.3,1.5-1.9c1.1-1.3,2.6-2.2,4.3-2.7c0.9-0.2,1.8-0.2,2.7,0.1c0.5,0.2,1,0.3,0.4,0.7
					c-0.8,0.4-1.8,0.6-2.7,0.6c-0.8-0.1-1.5,0.1-2.2,0.4c-0.4,0.3-0.2,0.5-0.3,0.9c-0.2,0.7-1.2,0.7-1.7,0.8
					C332.1,345.8,332,345.9,331.9,345.9z"/>
				<path id="Trazado_122723" class="st7" d="M342.9,346.9c0-0.2,0-0.5-0.1-0.7c-0.3-1.1-1.9-0.3-2.6-0.2c-1.6,0.2-3.1,0.7-4.5,1.4
					c-1.5,0.8-2.7,1.9-4.2,2.6c-0.6,0.3-1.2,0.5-1.8,0.7c-0.6,0.1-1.2,0.3-1.8,0.4c0.7,0.1,1.7-0.5,2.4-0.2c0.6,0.2,0.1,0.6-0.1,0.9
					c1.1-0.5,2-1.2,3.1-1.6c0.3-0.1,1-0.4,1.4-0.1c0.2,0.1,0.1,0.3,0.2,0.5c0.4-0.6,3.6-2.6,3.4-1.1c0.5-0.6,1.1-1,1.8-1.3
					c0.7-0.3,0.9-0.1,1.2,0.5c-0.1-0.1,0.9-0.6,1.1-0.7C342.7,347.8,342.9,347.4,342.9,346.9z"/>
				<path id="Trazado_122724" class="st8" d="M345.8,344.4c-0.3,0.1-0.5,0.2-0.7,0.2c-1.6,0.3-3.4,0.9-5,0.4c-0.5-0.1-1-0.2-1.6-0.3
					c-1.1-0.1-2.1-0.1-3.2,0.1c0,0,0,0,0,0s0,0,0,0c1-0.1,2.1-0.1,3.1,0c0.5,0.1,1,0.2,1.5,0.4c0.2,0.1,0.5,0.1,0.7,0.2h0
					c-1.4,0.3-2.9,1.1-4.3,0.9c-0.4-0.1-0.9-0.1-1.3-0.1c-0.8,0-1.7,0.1-2.5,0.2c0,0,0,0,0,0c0.8,0,1.6,0,2.4,0
					c0.4,0,0.8,0.1,1.2,0.1c0.2,0,0.4,0.1,0.6,0.1c-0.2,0-0.9,0.4-1.1,0.6c-0.4,0.2-0.7,0.4-1.1,0.6c-0.6,0.4-1.3,0.6-2,0.7
					c-0.3,0-0.7-0.1-1-0.1c-0.7,0-1.3,0-2,0.1c0,0,0,0,0,0c0.7,0,1.3,0,2,0.1c0.3,0,0.6,0.1,0.9,0.1c0.1,0,0.2,0,0.4,0.1
					c-0.5,0.3-1,0.5-1.5,0.8c-1.2,0.6-2.5,1-3.8,1.3c0,0,0,0,0,0c0,0,0,0,0,0l0,0c1.7-0.2,3.4-0.8,5-1.6c-0.2,0.2-0.4,0.4-0.6,0.7
					c-0.6,0.7-1.3,1.4-2.1,1.9c0,0,0,0.1,0,0.1c0.8-0.5,1.5-1,2.1-1.7c1.4-1.3,3-2.3,4.8-3c-0.6,0.6-1.1,1.3-1.4,2.1
					c-0.3,0.5-0.6,1.1-0.9,1.6c-0.4,0.5-0.8,1-1.2,1.4c0,0,0,0.1,0,0c0.9-0.7,1.7-1.6,2.2-2.7c0.3-0.5,0.6-1,1-1.5
					c0.7-0.9,1.7-1.5,2.8-1.8c0,0,0,0.1-0.1,0.1c-0.2,0.3-0.3,0.6-0.4,0.9c-0.2,0.6-0.4,1.3-0.7,1.9c-0.2,0.6-0.4,1.2-0.7,1.8
					c-0.2,0.3-0.3,0.5-0.5,0.8c-0.2,0.3-0.5,0.5-0.7,0.7c0,0,0,0,0,0c0.5-0.3,0.9-0.8,1.2-1.3c0.3-0.5,0.6-1.1,0.9-1.7
					c0.3-0.6,0.5-1.3,0.8-1.9c0.3-1,1.2-1.8,2.3-2l0.5-0.1c-0.1,0.3-0.2,0.5-0.3,0.8c-0.2,0.5-0.3,1.1-0.4,1.6
					c-0.2,1.1-0.7,2.1-1.4,2.9c0,0,0,0,0,0c0,0,0,0,0,0l0,0c0.8-0.7,1.3-1.6,1.6-2.6c0.2-0.5,0.3-1.1,0.5-1.6
					c0.1-0.4,0.3-0.8,0.5-1.2c0,0,2-0.3,2.2-0.3c0.8-0.2,1.5-0.6,2.2-1C346.5,344.2,346.2,344.3,345.8,344.4z"/>
			</g>
			<g id="Grupo_86287">
				<path id="Trazado_122725" class="st10" d="M348.6,339.5c0.4-0.9,0.3-2-0.2-2.8c-3.3-5.7-10.8-4.6-15.9-2.6
					c0.2-0.1,3,3.9,3.3,4.3c2.1,2.5,5.5,6.2,9.2,5.6c2.2-0.4,2-2,3-3.4C348.2,340.2,348.4,339.9,348.6,339.5z"/>
				<path id="Trazado_122726" class="st7" d="M342.1,335.5c-2.1-1-4.4-1.6-6.8-1.6c-0.7,0-2.1-0.2-2.8,0.2c0.2-0.1,2.9,3.9,3.2,4.3
					c2,2.3,5.7,6.3,9.1,5.5c0.9-0.2,1.7-0.8,2.1-1.7C348.3,339.4,344.1,336.6,342.1,335.5z"/>
				<path id="Trazado_122727" class="st8" d="M345.5,336.8c0.9,1.8,2,3.4,3.2,5c0.4,0.6,0.3,1.3-0.1,1.8c-0.2-0.1-0.3-0.7-0.4-0.9
					c-0.2-0.5-0.4-1-0.6-1.5c-0.1-0.3-0.3-0.8-0.6-0.9c-0.3-0.1-0.9,0.5-1.2,0.6c-1,0.5-2.1,0.8-3.2,0.9c1-0.2,1.9-0.5,2.7-1
					c0.6-0.3,1.8-0.8,0.8-1.5c-0.9-0.7-2.1-0.3-3.2-0.1c-1.1,0.2-2.2,0.3-3.3,0.3c0.3-0.1,0.7-0.1,1-0.1c1.5-0.1,3-0.4,4.4-1.1
					c-0.3-0.4-0.6-0.8-1-1c-0.4-0.3-0.9-0.5-1.4-0.5c-0.8,0-1.7,0.1-2.5,0.3c-0.9,0.2-1.8,0.2-2.7,0.2c0.8-0.1,1.6-0.2,2.3-0.4
					c0.9-0.1,1.7-0.4,2.5-0.8c-0.5-0.4-1.1-0.7-1.7-0.9c-0.7-0.1-1.4-0.1-2.1,0c-0.9,0.2-1.7,0.3-2.6,0.3c0.5-0.1,1.1-0.2,1.6-0.3
					c0.5-0.2,1-0.3,1.6-0.4c-0.8,0-1.4-0.5-2.2-0.6c-1-0.1-2-0.2-2.9-0.3c1.8-0.1,3.5,0,5.3,0.5c0,0,0.1,0,0.1,0c0,0,0,0-0.1-0.1
					c-0.1-0.1-0.3-0.3-0.4-0.4c-0.3-0.3-0.6-0.5-0.9-0.8c0,0,0-0.1,0-0.1c0.2,0.1,0.3,0.2,0.5,0.3c0.2,0.1,0.3,0.2,0.5,0.4
					s0.3,0.3,0.5,0.4c0.1,0.1,0.2,0.2,0.3,0.3c0.8,0.2,1.5,0.5,2.2,0.9c0.4,0.2,0.7,0.4,1.1,0.6c-0.2-0.3-0.4-0.6-0.6-1
					c-0.4-0.6-0.8-1.2-1.2-1.9c0,0,0-0.1,0.1,0c0.5,0.6,0.9,1.2,1.4,1.8c0.5,0.8,1.1,1.4,1.8,2c0.3,0.2,1.3,0.8,1.4,1.2
					c0,0,0-0.1,0-0.1c-0.1-0.4-0.3-0.7-0.4-1.1c-0.3-0.7-0.6-1.4-1-2.1c0-0.1,0.1-0.1,0.1,0C344.8,335.4,345.2,336.1,345.5,336.8z"
					/>
				<path id="Trazado_122728" class="st9" d="M338.4,332.8c1.4-0.3,2.9-0.2,4.2,0.3c1.6,0.3,3,1.1,4.2,2.2c0.7,0.7,1.9,2.2,1.9,3.2
					c0,1.6-1.5,0.7-2-0.1s-0.8-1.7-1.3-2.6c-0.2-0.3-0.5-0.7-0.8-0.9c-0.1-0.1-1-0.7-1.1-0.8c0,0.3,0.8,1.2,0.6,1.4
					c-0.3,0.4-1-0.5-1.3-0.7c-0.8-0.9-1.3-1.8-2.5-1.9c0.3,0,1.1,1.5,0.1,1.5c-0.4,0-0.6-0.5-0.9-0.7c-0.5-0.4-1-0.7-1.5-0.9
					C338.2,332.9,338.3,332.8,338.4,332.8z"/>
			</g>
			
				<linearGradient id="Trazado_122729_00000090296080528836927890000002564183868680174503_" gradientUnits="userSpaceOnUse" x1="-129.0477" y1="539.8759" x2="-129.0857" y2="539.3579" gradientTransform="matrix(62.826 0 0 -142.7279 8469.4785 77354.8438)">
				<stop  offset="0" style="stop-color:#74B33C"/>
				<stop  offset="1" style="stop-color:#549E2A"/>
			</linearGradient>
			<path id="Trazado_122729" style="fill:url(#Trazado_122729_00000090296080528836927890000002564183868680174503_);" d="
				M370.1,371.2c-1.1-0.3-2.2-0.1-3.1,0.5c-0.8,0.5-1.6,0.9-1.6,1.9c-0.1,3.8,0,7.6,0,11.3c0,6.1,0.4,12.3,0.7,18.4
				c0,2.2,0,4.4,0.2,6.6c0,0.2-3.3,0.7-3.6,0.7c-0.3-7-0.3-14.1,0-21c0.1-4-0.2-8-0.3-12c0-2.2,0.3-4.7-1.5-6.4
				c-0.4-0.5-0.9-0.8-1.4-1.1c-1-0.4-2.4,0.3-3.3,0.7c-1.8,0.7-3.5,1.5-5.2,2.5c-1.5,0.8-3.1,1.4-4.8,1.5c-1.6,0.1-3.7,0.1-5-0.9
				c-0.8-0.6-1.3-1.4-2.1-2c-0.7-0.4-1.4-0.7-2.2-1c0.3-0.4,0.6-0.8,1-1.1c1.2-1.2,2.6-2.2,4.1-3c3.6-2.2,7.9-3.2,12.1-2.6
				c0.9,0.1,1.9,0.4,2.7,0.9c0.8,0.6,1.4,1.5,1.8,2.4c0.3,0.5,0.8,0.9,1.3,1.2c1,0.6,1.9,1.4,2.7,2.3c0.1-0.7,0.1-1.3,0.1-2
				c0-0.8,0-1.6,0-2.4c0-1.5-0.1-3.1-0.1-4.6c0.1-3.3,0-6.6-0.4-9.9c-0.4-2.4-1.1-3.4-3.1-4.7c-1.5-1-3.2-1.7-5-2.3
				c-0.7-0.2-1.5-0.5-2.2-0.7c-1.7-0.4-3.5-0.2-5.1,0.4c-0.4,0.2-0.9,0.6-1.4,0.6c-0.4,0-0.9-0.1-1.4-0.1c0.8-0.2,1.6-0.6,2.4-1
				c0.8-0.2,1.6-0.7,2.2-1.3c-0.2-0.4-0.4-0.9-0.4-1.4c-0.1-0.6-0.4-1.1-0.5-1.7c0.5,0.9,1.2,1.7,1.9,2.5c0.3,0.3,0.5,0.6,0.9,0.7
				c0.3,0.1,0.7,0.1,1,0.2c1.3,0.3,2.6,0.5,3.8,0.9c1.2,0.3,2.4,0.7,3.6,1.1c1.2,0.4,2.3,0.6,3.5,1.1c0.2-0.5,0.2-1.1,0.1-1.7
				c0-0.7,0-1.4,0-2.1c0-1.9,0-3.7-0.1-5.6c-0.1-4.1-0.1-8.1-0.2-12.2c0-1.6,0-3.2-0.1-4.8c-0.2-10.2-21.7-11.8-31.7-6.3
				c12.4-8.8,29.7-2.3,31.3-0.1c0.4-2.7,1.2-23.3,0.5-27.5c-0.6-3.7-2.4-6.8-3.8-10.3c-0.9-2.5-1.6-5.1-1.8-7.8
				c0.3,0.1,0.4,0.5,0.5,0.9c0.5,1.5,0.7,3.1,1.2,4.5c0.9,2.3,2.3,4.3,3.4,6.5c0.6,1.3,0.9,3.1,1.9,4.2c-0.3-0.9-0.2-1.9,0.1-2.8
				c0.4-1.2,1.2-1.7,1.7-2.8c0.3,1.6,0.3,3.2,0,4.8c0.5-0.9,0.7-2,0.6-3c1.3,2.1,0.3,3.8-0.6,5.8c0.8-1.2,2.3-1.7,3.5-2.6
				c1.4-1,2.8-1.9,4.3-2.6c3.7-1.9,8.4-3.3,12.2-0.7c-6.2-2.6-12,1.4-16.6,5.5c-0.2,0.1-0.3,0.3-0.5,0.5c-2.4,2-3.8,4.9-3.8,8
				l-0.4,17c2.8-3.2,10.3-11.2,21.3-11.7c1.5-0.1,3-0.1,4.5,0c0.7,0,1.4,0.1,2.1,0.4c0.3,0.2,0.8,1,1.1,1c-0.8-0.1-1.5-0.3-2.3-0.4
				c-1.2-0.1-2.5-0.1-3.7,0c-2.1,0.1-4.2,0.5-6.2,1.1c-5.2,1.4-9.9,4.4-13.5,8.5c-1.8,2-2.4,4.5-2.7,7c0.8,0.2,1.6,0.4,2.4,0.7
				c1.7,0.6,3.4,1.6,4.7,2.8c1.6,1.4,2.7,3.3,3.4,5.3c-1.1-2.7-3.4-4.3-5.7-5.9c-1.5-1-3.2-1.6-4.9-1.7c-0.2,1.9,0,4-0.1,5.9
				c0,5.3,0.1,10.7,0.3,16c0,1.2,0.1,2.5,0.1,3.7c0,0.6,0.1,1.2,0.1,1.7c-0.1,0.5,0,1,0.1,1.4c1-0.5,1.8-1.4,2.8-2
				c1.1-0.7,2.2-1.4,3.4-1.9c1-0.5,2-1.1,3.1-1.5c1.2-0.5,1.6-1.8,2.3-2.7c0.1-0.1,0.3-0.4,0.5-0.7c0.1-0.2,0.3-0.3,0.4-0.3
				c0.4,0-0.3,1-0.3,1.1c-0.4,0.7-0.7,1.4-1,2.2c0,0,1,0.2,1.1,0.2c0.8,0.1,1.6,0.3,2.4,0.6c0.5,0.2,1.4,0.4,1.3,1.1
				c-0.5,0.1-1-0.2-1.5-0.3c-0.5-0.1-0.9-0.2-1.4-0.2c-0.9-0.2-1.8-0.1-2.7,0.1c-2.8,0.9-5.3,2.3-7.6,4.1c-2,1.4-2.8,3.9-3.1,6.3
				c-0.2,2.3-0.2,4.6,0,6.9c0.1,1.8,0.1,3.6,0.2,5.4c0,0.9,0.1,1.8,0.1,2.7c0,0.4,0.1,0.9,0.1,1.3c0,0.4,0,0.8,0.1,1.2
				c0.6-0.5,1.4-1,2-1.6c0.9-0.9,1.4-2.1,2.2-3c3.7-3.8,9.8-3.6,14.4-1.8c0.5,0.2,0.9,0.5,1.4,0.7c0.6,0.2,1.3,0.5,1.9,0.7
				c0.6,0.2,1.3,0.4,1.9,0.5c0.2,0,1.9,0.4,2,0.2c-0.2,0.8-0.6,1.6-1.2,2.3c-0.9,0.8-1.9,1.5-3,2c-1.3,0.7-2.7,1.3-4.2,1.8
				c-1.5,0.4-3,0.7-4.5,0.9c-2.1,0.3-4.3-0.2-6.1-1.3C371.3,371.7,370.7,371.4,370.1,371.2z"/>
			<path id="Trazado_122730" class="st7" d="M369.1,368.6c3.2-1.7,6.4-1.8,9.9-1.7c1.8,0.1,3.7,0.1,5.5,0.3c1.5,0.1,4.3,1,5.6-0.2
				c-0.6,1.4-1.6,2.6-3,3.3c-3.4,2.1-8.1,3.5-12.1,2.6c-2-0.4-3.6-1.9-5.6-2.2c-1.7-0.1-3.4,0.7-4.4,2.2c-0.2-0.5,0.3-1.3,0.6-1.7
				C366.4,369.9,367.7,369.3,369.1,368.6z"/>
			<path id="Trazado_122731" class="st12" d="M358.5,368.8c-0.7-0.3-1.4-0.5-2.2-0.7c-0.8-0.2-1.5-0.4-2.3-0.6
				c-2.1-0.5-4.3-0.6-6.5-0.3c-2.1,0.3-4.2,0.9-6.2,1.7c-1.1,0.5-2.2,0.9-3.3,1.5c-0.2,0.2-0.5,0.3-0.8,0.3c2.8-2.6,6.2-4.5,9.8-5.7
				c3.2-0.9,7.4-1.6,9.9,0.9c0.5,0.4,0.9,0.8,1.2,1.4C358.3,367.6,358.4,368.2,358.5,368.8z"/>
			<path id="Trazado_122732" class="st13" d="M377.9,342.5c-0.8-0.5-1.8-0.7-2.8-0.4c-2,0.5-3.8,1.3-5.5,2.3c-1,0.6-1.9,1.3-2.8,2
				c-0.5,0.5-1,0.9-1.6,1.3c-0.5,0.3-0.4,0.3-0.6-0.2c-0.3-1.6-0.5-3.3-0.3-5c-0.1-4,0.1-8.1,0-12.1c-0.2-4.2-0.4-8.3-0.2-12.5
				c0-2.6,0.9-5.1,2.4-7.3c2-2.8,4.6-5,7.6-6.7c-0.8,0.7-1.7,1.2-2.7,1.7c-1.3,0.8-2.4,1.6-3.6,2.6c-1.5,1.3-2.5,2.9-3.9,4.2
				c-0.2-3.9,0.2-7.9,0.2-11.8c0-4.9-0.4-10.4,3.2-14.2c1.6-1.8,4-4.1,6.4-4.7c-1.2,0.9-2.8,1.4-4,2.2c-1.6,1-2.9,2.6-4.5,3.8
				c0.1-1.8,1.4-3.9,1-5.7c-0.2,0.8-0.6,1.6-1.1,2.2c-0.2-1.4,0.2-2.9,0.1-4.3c-1,1.1-1.5,2.6-1.4,4.1c0,2-0.4,4-0.2,6
				c0.2,1.9,0.2,3.9,0,5.9c-0.2,2.7,0.1,5.5,0,8.2c-0.1,2.5-0.1,4.9-0.2,7.4c0,0.6-0.8,5-0.6,5.2c-0.9-0.9-1.6-2.1-3-2.4
				c3.9,1.1,3.2,11.3,3.3,14.1c0.2,3.7,0.2,7.4,0.2,11c0,1.9-0.1,3.9-0.1,5.8c0,0.5-0.1,1.1-0.1,1.6c-0.1,1.2,0,1.7-1.3,0.9
				c-1-0.7-2.1-1.3-3.3-1.8c-0.6-0.2-1.3-0.4-1.9-0.6c1,0.8,2.2,1.1,3.2,2c1.4,1.1,2.3,2.7,2.6,4.5c0,0.8,0.1,1.6,0.3,2.3
				c0-0.8,0.2-1.6,0.7-2.2c0.5,0.4,0.5,1.4,0.6,1.9c0.1,1.4,0.1,2.8,0,4.2c-0.1,1.3-0.1,2.5,0,3.8c0,0.6,0,1.3,0,1.9
				c0,1.2,0,2.4,0,3.5c0,1.3,0,2.6,0,3.9c0.1,1,0,2-0.4,2.9c-0.4-0.1-0.6-0.6-0.8-1c-0.4-0.6-0.7-1.1-1.2-1.7
				c-0.6-0.8-1.3-1.4-2.2-1.8c1.5,1,2.6,2.5,3.1,4.2c0.1,0.8,0.1,1.6,0.1,2.5c0,1,0.1,1.9,0.1,2.9c0,0.9-0.3,2.3,0.1,3.2
				c0.1-0.3,0.2-1.6,0.7-1.6c0.5-0.1,0.5,1.3,0.5,1.6c0.1,1.2,0.2,2.5,0.2,3.7c0,3.3-0.1,6.5-0.1,9.8c0,2.3,0,4.7,0.1,7
				c0,1.3-0.3,2.8,0.2,4c0.4-0.1,0.9-0.1,1.4-0.1c0.1,0-0.1-6.7-0.1-7.1c-0.1-4.6-0.2-9.2-0.3-13.8c-0.1-2.5-0.2-4.9-0.2-7.4
				c0-1.4,0.1-2.9,0.1-4.3c-0.1-0.3-0.1-0.6,0-0.9c0.1-0.3,0.3-0.6,0.5-0.8c0.7-0.7,2.2-1.9,3.3-1.6c-0.6-0.1-1.3,0-1.9,0.3
				c-0.7,0.3-1.4,1-2.1,1c-0.2-1.4-0.3-2.7-0.3-4.1c-0.1-1.2-0.2-2.4-0.2-3.7c-0.1-0.9-0.1-1.9,0-2.8c0-1.1,0-2.1-0.1-3.2
				c0-1.1,0-2.3,0-3.4c-0.2-2.2,0.3-4.4,1.4-6.3c0.8-1.2,1.9-2.1,3.1-2.9C371.4,344.1,374.7,341.5,377.9,342.5z"/>
			<g id="Grupo_86288">
				<path id="Trazado_122733" class="st14" d="M375.7,405.9c2.4,1.1,4.8,2.1,6.7,4.1c0.8,0.8,1.8,1.5,2.8,2.1c0.7,0.4,1.3,1,1.7,1.6
					c2.3,2.6,5.3,5.2,5.1,9.1c-4.6,0.3-9.3,0.1-13.9,0.1h-28.4c-5.3,0-10.5-0.1-15.8-0.1c-0.4-2.4,2.4-6.8,3.8-8.6
					c1.3-1.7,1.7-1.8,3.8-2.9c1.4-0.7,2.4-2.3,3.7-2.9c2.3-1.2,5.6-1.4,7.4-3.4c0.7-0.8,0.6-2.1,1.3-2.8c1-0.8,2.3,0.1,3.3-0.4
					c1.5-0.7,1.1-1.5,3.1-0.5c1.7,0.9,1.3,0.9,2.8,0.4c1.2-0.4,2.4-0.6,3.6-0.6c0.5,0.1,1,0.2,1.5,0.2c0.9-0.1,1.3-0.9,2.3-0.3
					c1.4,0.8,0,1.5,0.1,2.3c0.3,1.4,1.9,0.9,3.3,1.6C374.5,405.4,375.1,405.6,375.7,405.9z"/>
				<path id="Trazado_122734" class="st15" d="M355.1,416.8c-0.1,0.2-0.1,0.3-0.2,0.4c-1.2,2.2-4.6,2.1-6.7,2.1
					c-3-0.2-5.9,0.3-8.7,1.4c-1.8,0.8-2.7,1.1-4.5-0.1c1.1-2.5,1.8-5.7,4.5-7c1-0.5,1.6-0.4,2.5-1.1c1.4-1.1,2.2-2.3,3.9-3.2
					c1.1-0.6,2.2-1.2,3.4-0.7c0.7,0.3,0.8,0.7,1.2,1c0.8,0.5,2.4,0.8,2.8,1.7c0.7,1.4-0.9,2.4,0.6,3.8
					C354.7,415.8,355.3,416,355.1,416.8z"/>
				<path id="Trazado_122735" class="st15" d="M363.7,413c2.7,1.9,6.3,2.7,9,0.9c1.4-0.9,4.1-3.2,2.8-5.1c-0.5-0.5-1.1-0.9-1.7-1.1
					c-1.8-0.9-4-1.2-4.4-3.4c-0.1-0.8,0.5-1.2-0.2-1.7c-0.7-0.5-3.1,0.1-3.8,0.3c-1.5,0.6-2.1,1.3-3.7,0.9c-1-0.2-1.9-0.8-3-0.9
					c0.7,0.4,0.8,1.4,1,2.2c1.2-1.4,4.9-0.9,2.7,1.1c-1.3,1.2-2.4,1.1-1.6,3.1C361.3,410.8,362.4,412.1,363.7,413z"/>
				<path id="Trazado_122736" class="st15" d="M373.2,421.2c-0.2-0.3-0.2-0.6-0.2-0.9c0-1.8,2.7-3,3.7-4.2c1.5-1.9,4.7-5,7.1-2.9
					c0.8,0.7,1.1,1.7,2.1,2.3c0.7,0.4,1.3,0.7,2,1.2c0.7,0.5,2.4,2.4,2.6,3.3c0.5,2.8-10,1.9-11.4,1.8
					C377.7,421.8,374.1,422.7,373.2,421.2z"/>
				<path id="Trazado_122737" class="st15" d="M359.5,416.9c0.6-0.1,1.3,0,1.9,0.3c1.4,0.5,5.1,2.3,3.5,4.2
					c-1.2,1.4-3.8,0.8-5.4,0.7c-1.7-0.1-5.9-1-3.3-3.3C357,417.8,358.2,417.2,359.5,416.9z"/>
				<path id="Trazado_122738" class="st15" d="M357.5,416.6c1.3-1.4,4.5-1,5.3-2.6c0.6-1.2-1.9-2.3-2.4-3.2
					c-0.9-1.2-0.8-2.8,0.3-3.9c0.4-0.5,2.6-1.6,1.1-2.2c-1-0.4-1.7,0.7-2.6,0.6c-1.2-0.2-1-1-2.4-0.8c-1.1,0.1-2.1,0.3-2.8-0.9
					c-0.3,1.5-2.9,5.4-4.7,3.7c0.8,1.3,2.5,1.4,3.5,2.5c1.2,1.3,0.4,2.8,1,4.3c0.4,1,1.6,1.1,1.9,2.2c0.2,1-1.5,2.1-2.4,2.7
					C355.1,419,356.4,417.8,357.5,416.6z"/>
				<path id="Trazado_122739" class="st15" d="M343.8,422.3h-1.9c-0.1,0-0.2,0-0.4,0c1.3-1.4,3.1-2.3,5-2.4c1.1,0,1.9,0.7,2.9,1
					c1.9,0.7,4.4-0.6,5.9,1.2c-1.6,0.6-3.7,0.2-5.4,0.2L343.8,422.3z"/>
				<path id="Trazado_122740" class="st15" d="M366.1,420.2c0.5-2.1-3-1.7-4.7-3.6c-0.4-0.4,3.8-1.3,4.2-1.3
					c1.7,0.1,3.8,0.8,5.5,0.1c2-0.8,4.3-2.3,5.3-4.3c1.7-3.4-1.7-3.1-3.3-5.1c0-0.1,0.1-0.1,0.1-0.1c0.9-0.5,4.3,1.4,5.1,1.9
					c1.7,1.1,3.2,2.5,4.5,4c-0.3-0.4-2.6,0-3,0.2c-1.1,0.5-2,1.7-3,2.4c-2.8,1.9-6.6,3.5-5.4,7.5c-1.4,1-5.5-1.1-6.4,0.2
					C365.5,421.6,365.9,420.9,366.1,420.2z"/>
				<path id="Trazado_122741" class="st15" d="M350.6,413.6c-1,0.9-3,1-4.2,1.1c-1.9,0-3.7,0.5-5.4,1.4c-0.8,0.5-2.1,2.5-3.2,1.7
					c-1.9-1.3,2.1-3.4,3-3.7c1.1-0.4,1.6-1.4,2.5-2.1c0.7-0.5,1.7-0.9,2.5-1.4c1.7-1.1,6.7-0.9,5.2,2.4
					C351,413.2,350.8,413.4,350.6,413.6z"/>
				<path id="Trazado_122742" class="st15" d="M365.8,410.4c0.9,0.6,1.8,1.1,2.8,1.6c1.8,0.9,7.4,1.5,7.3-2c-0.1-2.3-4-3.3-5.7-3.8
					c-2.5-0.9-0.5-1.6-1.3-2.9c-0.7-1-4.4-0.4-5.1,0.5c1.8,1,1.5,0.8,0.9,2.3C363.8,407.5,364.3,409.4,365.8,410.4z"/>
				<path id="Trazado_122743" class="st15" d="M374.5,419c0.5-1.7,1.8-2.5,3-3.7c1.3-1.2,2.3-2.8,4.3-2.8c1.8,0.1,2.7,1.6,4,2.6
					c0.8,0.7,4.4,2.9,4.1,4.1c-0.2,0.9-6.4,0.5-7.7,0.1s-1.7-1.1-3.1-0.9c-1.7,0.3-3,1.1-4.8,0.9C374.5,419.2,374.5,419.1,374.5,419
					z"/>
				<path id="Trazado_122744" class="st15" d="M368.6,418.6c-0.3-0.4-0.6-1-0.7-1.5c2.6-0.1,4.4-0.3,6.4-2.2c1-0.9,1.8-1.9,2.3-3.1
					c0.4-0.8,0-1.5,1-2c1,0.9,2.6,1.1,3.5,1.8c-1.9,0-3,1.9-4.4,2.8c-2.7,1.8-4.3,3.7-6.6,5.8C369.5,419.8,369,419.3,368.6,418.6z"
					/>
				<path id="Trazado_122745" class="st15" d="M357.9,415.9c1.4-0.3,5-1,3.3-3.1c-1-1.1-2.3-0.9-2.5-2.7c-0.3-2.3,0.8-1.2-1.8-1.7
					c-1.5-0.3-2-1.8-2.7-3c0,0-2.4,1.7-2.5,2.4c0.9,0.4,2.2,0.6,2.9,1.5c0.8,1.1,0.1,2.5,0.9,3.5
					C356.8,414.3,359.1,413.4,357.9,415.9z"/>
			</g>
			<g id="Grupo_86289">
				<path id="Trazado_122746" class="st6" d="M395.7,301.3c2.9-1.9,7.6-2.5,10.3-0.2c3.3,2.8,3.9,8.8,5,12.7c0.4,1.4,1,2.7,1.4,4.1
					c-0.9,0.3-1.8,0.5-2.8,0.5c-0.9,0.1-1.9,0.2-2.8,0.2c-1.7-0.1-3.4-0.4-5.1-0.8c-2.4-0.5-4.1-2.2-5.9-3.8
					c-3.8-3.2-5.1-8.9-0.7-12.3C395.3,301.5,395.5,301.4,395.7,301.3z"/>
				<path id="Trazado_122747" class="st7" d="M394.5,302.4c1-0.8,2-0.4,3.3,0.3c2.1,1.2,3.9,2.8,5.2,4.8c1.3,1.8,2,3.8,3.3,5.6
					c0.9,1.3,2,2.3,3.3,3.2c0.9,0.4,1.8,1,2.6,1.6c-0.1,0.5-2.2,0.5-2.6,0.6c-0.9,0.1-1.9,0.2-2.8,0.2c-1.7-0.1-3.4-0.4-5.1-0.8
					c-2-0.5-3.8-1.5-5.1-3c-1-1.1-2.1-1.8-2.8-3.2c-0.8-1.4-1.2-2.9-1.2-4.5c0.1-1.4,0.5-2.7,1.2-3.9
					C394.1,302.9,394.3,302.7,394.5,302.4z"/>
				<path id="Trazado_122748" class="st8" d="M399.8,301.5c-0.6-0.1-1.3-0.2-1.9-0.2c-0.4,0.1-0.9,0-1.3-0.1
					c-1.1-0.4-2.2-0.9-3.4-1.2c-1.1-0.3-2.1-0.5-3.2-0.6c-0.6-0.1-1.2,0-1.8,0.2c0,0,0.5,0.4,0.6,0.5c0.2,0.1,0.5,0.2,0.8,0.3
					c0.6,0.1,1.1,0.1,1.7,0.2c1.1,0.2,2.1,0.6,3.2,0.9c0.8,0.2,1.4,1,1.3,1.9c0,1.3-0.1,2.5-0.1,3.8c0,1.6,0.2,3.2,0.8,4.7
					c-0.2-0.9-0.3-1.9-0.3-2.8c-0.1-1.1-0.1-2.2-0.1-3.3c0.1-0.8-0.2-2.1,0.3-2.7c0.6-0.8,1.7,0,2.3,0.4c0.8,0.5,1.4,1.3,1.4,2.3
					c0.4,2.5,0.2,5,0.6,7.5c-0.1-1.3-0.1-2.6,0-3.9c-0.1-1.2-0.1-2.5,0-3.7c1.5,1.1,2.5,2.7,2.9,4.5c0.1,1.1,0.1,2.1,0,3.2
					c0,1,0.2,1.9,0.2,2.9c0-1.8,0.1-3.7,0.4-5.5c0.4,0,0.7,0.8,0.9,1.2c0.4,0.6,0.9,1.2,1.3,1.8c0.8,1.3,0.4,3,1.1,4.4
					c-0.3-1-0.1-2.2-0.3-3.2c0,0,0,0,0.1-0.1c0,0,1.5,1.1,1.7,1.3c0.8,0.5,1.6,1,2.5,1.2c-1.1-0.6-2.1-1.4-3.1-2.2
					c-0.5-0.4-0.9-0.9-1.3-1.4c-0.2-0.3-0.5-1.2-0.8-1.4c0.2,0.1,0.5,0.2,0.7,0.3c0.6,0.3,1.2,0.5,1.8,0.7c0.1,0,0.1-0.1,0-0.1
					c-0.6-0.3-1.1-0.6-1.7-0.9c-0.5-0.2-0.9-0.5-1.3-0.8c-0.3-0.4-0.5-0.9-0.7-1.3c-0.4-0.7-0.7-1.4-1.1-2c-0.4-0.7-0.9-1.3-1.4-2
					l0.3,0.1c0.4,0.1,0.9,0.2,1.3,0.3c0.9,0.2,1.8,0.6,2.6,0.9c0,0,0,0,0,0s0,0,0,0c-0.8-0.5-1.7-0.8-2.6-1.1
					c-0.7-0.2-1.4-0.5-2.1-0.9c-0.6-0.5-1.3-1-1.8-1.5c-0.8-0.7-1.6-1.2-2.5-1.7c-0.3-0.1-0.6-0.3-0.9-0.4c0.3,0,0.7,0,1,0
					c0.6,0,1.1,0,1.7,0.1c1.1,0.1,2.2,0.3,3.2,0.6c0.1,0,0.1-0.1,0-0.1C402,302,400.9,301.7,399.8,301.5z"/>
				<path id="Trazado_122749" class="st9" d="M408.3,308.1c0.6,1.1,1.1,2.3,1.6,3.5c-0.5-1.4-0.5-3.1-1-4.6
					c-0.5-1.7-1.4-3.3-2.5-4.7c-0.6-0.6-3.2-3.1-4.1-1.8c-0.6,0.8,1.9,2.4,2.3,2.8C406.1,304.7,407.3,306.3,408.3,308.1z"/>
			</g>
			<g id="Grupo_86290">
				<path id="Trazado_122750" class="st10" d="M388.4,301.8c1.2-0.1,2.4,0.5,3,1.6c5,6.4,0,14.5-4.7,19.4c0.2-0.2-3-5.2-3.3-5.8
					c-1.8-3.6-4.4-9.3-1.9-13.1c1.5-2.3,3.2-1.3,5.3-1.8C387.4,301.9,387.9,301.9,388.4,301.8z"/>
				<path id="Trazado_122751" class="st7" d="M389.9,311.2c0.2,2.9-0.3,5.8-1.5,8.4c-0.3,0.8-0.8,2.5-1.6,3c0.2-0.1-3-5.2-3.3-5.7
					c-1.7-3.4-4.4-9.5-1.9-13c0.7-0.9,1.7-1.5,2.9-1.5C388.4,302.3,389.7,308.3,389.9,311.2z"/>
				<path id="Trazado_122752" class="st8" d="M392.2,313.4c-0.4-0.8-0.9-1.6-1.4-2.4c-0.6-0.9-1.1-1.9-1.4-3
					c-0.1-0.5-0.3-1.9-0.7-2.2c0,0,0.1,0,0.1,0.1c0.4,0.3,0.7,0.7,1.1,1c0.7,0.7,1.3,1.4,1.9,2.1c0,0.1,0.1,0,0.1-0.1
					c-0.6-0.8-1.2-1.6-1.9-2.3c-1.2-1.4-2.3-2.9-3.4-4.4c-0.5-0.6-1.1-1.8-1.7-2.2c-0.5-0.3-1.2-0.1-0.7,0.6
					c0.4,0.5,1.1,0.8,1.6,1.3c0.3,0.3,1,0.9,0.9,1.4c-0.1,0.4-0.9,0.8-1.2,1c-1.1,0.9-1.9,2-2.6,3.2c0.6-1,1.5-1.9,2.5-2.6
					c0.7-0.6,1.8-1.6,2.1-0.2c0.3,1.4-0.6,2.6-1.3,3.7c-0.8,1.1-1.5,2.4-2,3.7c0.3-0.3,0.5-0.7,0.6-1.1c0.8-1.7,1.9-3.2,3.3-4.4
					c0.4,0.5,0.6,1,0.7,1.6c0.1,0.6,0.1,1.3-0.1,1.9c-0.4,0.9-0.9,1.8-1.5,2.6c-0.6,0.9-1.1,2-1.5,3c0.5-0.9,1-1.7,1.6-2.5
					c0.5-0.9,1.2-1.8,2.1-2.5c0.2,0.8,0.3,1.6,0.2,2.4c-0.2,0.8-0.5,1.6-1,2.4c-0.6,0.9-1.1,1.8-1.6,2.8c0.3-0.6,0.8-1.1,1.1-1.6
					c0.3-0.5,1-1.1,1.2-1.6c-0.3,0.9-0.2,1.9-0.4,2.8c-0.3,1.2-0.7,2.3-1.1,3.5c1-2,1.6-4,2-6.2c0,0,0-0.1,0-0.1c0,0,0,0.1,0,0.1
					c0.1,0.2,0.2,0.5,0.3,0.7c0.2,0.5,0.3,0.9,0.4,1.4c0,0,0.1,0,0.1,0c0-0.2-0.1-0.5-0.1-0.7c-0.1-0.2-0.1-0.5-0.2-0.7
					s-0.1-0.5-0.2-0.7c-0.1-0.2-0.1-0.4-0.2-0.5c0.1-1,0.1-2,0-3c0-0.5-0.1-1-0.2-1.5c0.3,0.4,0.5,0.7,0.8,1.1
					C391.1,311.9,391.6,312.7,392.2,313.4C392.2,313.5,392.2,313.5,392.2,313.4C392.2,313.5,392.2,313.4,392.2,313.4z"/>
				<path id="Trazado_122753" class="st9" d="M391.2,316.7c1.2-1.4,1.4-3.2,1.7-4.9c0.4-2,0.2-4-0.5-5.9c-0.4-1.1-1.6-3.2-2.8-3.7
					c-1.8-0.7-1.5,1.4-0.8,2.3s1.6,1.8,2.3,2.7c0.3,0.4,0.5,0.9,0.7,1.3c0.1,0.2,0.3,1.5,0.4,1.6c-0.3-0.2-1-1.4-1.3-1.4
					c-0.7,0.1,0,1.4,0.2,1.8c0.6,1.3,1.4,2.3,0.9,3.8c0.1-0.4-1.2-2-1.6-0.9c-0.2,0.4,0.2,1,0.4,1.4c0.2,0.7,0.3,1.4,0.3,2.2
					C391,316.9,391.1,316.8,391.2,316.7z"/>
			</g>
			<g id="Grupo_86291">
				<path id="Trazado_122754" class="st10" d="M350.1,306.2c0.7-0.2,1.3-0.8,1.3-1.6c0.2-1.2-0.1-2.4-0.7-3.4
					c-1.7-2.9-6.5-3.6-9.6-3.5c-2.2,0.2-4.4,0.6-6.5,1.1c-2.8,0.6-6.9,2.9-7.7,5.9c0.7-0.1,1.5-0.2,2.2-0.4c1.1-0.1,2.2-0.1,3.3,0
					c2,0.2,3.8,1,5.4,2.1c1.6,1,3.4,1.7,5.3,1.9c1.7,0.2,3.6-0.8,5.1-1.5C348.8,306.5,349.4,306.3,350.1,306.2z"/>
				<path id="Trazado_122755" class="st7" d="M346.7,307.3c-0.5,0.2-1,0.4-1.5,0.6c-1,0.3-2.1,0.3-3.2,0.1c-1.5-0.4-3-1-4.3-1.9
					c-1.2-0.8-2.6-1.3-4-1.7c-0.6-0.1-1.2-0.2-1.8-0.2c-0.5-0.1-1-0.1-1.5,0c1.4-1.4,3.4-1,5.2-1.4c1-0.2,2-0.5,3-0.8
					c1.6-0.4,3.3-0.3,4.8,0.4c1.1,0.4,2.1,1,3.1,1.6c0.5,0.3,1,0.7,1.3,1.3c0.2,0.4,0.5,1.2,0.2,1.5
					C347.7,307,347.2,307.2,346.7,307.3C346.8,307.3,346.7,307.3,346.7,307.3z"/>
				<path id="Trazado_122756" class="st9" d="M344.2,298.1c1.6,0.1,3.2,0.6,4.6,1.4c1.1,0.7,1.8,2,1.7,3.3c-0.2,1.3-2.1,0.3-2.7-0.1
					c-1.9-1.3-3.9-3.7-6.4-3.7c0.5,1.3-1.4,0.7-1.9,0.4c-0.4-0.2-0.7-0.7-1.2-0.6c-0.5,0.1-0.2,0.6-0.6,0.9c-0.2,0.1-0.6,0.1-0.8,0
					c-0.8-0.2-1.5-0.3-2.3-0.4c-0.9,0.1-0.4,0.2-1,0.6c-0.4,0.3-1.3,0.2-1.8,0.3c1.1-0.7,2.3-1.2,3.6-1.4c1.5-0.4,3-0.6,4.5-0.7
					C341.3,297.9,342.7,297.9,344.2,298.1z"/>
				<path id="Trazado_122757" class="st8" d="M349.2,307.3c0.2,0.7,0.3,1.5,0.4,2.2c0.1,0.4,0.2,0.7-0.2,0.8
					c-0.3,0.1-0.5,0.1-0.6-0.1c-0.2-0.2-0.2-0.7-0.2-1.1c0-1-0.1-2.1-0.5-3c-1-1.7-3-2.7-5-2.5c-1.1,0.1-2.1,0.6-3.1,0.9
					c1-0.9,2.6-1,3.8-1.5c-0.4-0.3-0.9-0.6-1.5-0.7c-1.8-0.5-3.7-0.4-5.4,0.5c-0.5,0.2-1,0.5-1.5,0.7c0.5-0.5,1.1-0.9,1.8-1.2
					c0.6-0.3,1.6-0.4,2-0.8c-2.6-1-5.5-0.6-7.8,1c0.5-0.4,1.1-0.8,1.7-1.1c0.4-0.2,1-0.7,1.5-0.6c-1-0.1-1.9-0.1-2.9,0.2
					c-1,0.1-2,0.4-2.9,1c0.9-0.7,2-1.2,3.1-1.4c0.5-0.2,1.1-0.2,1.6-0.2c0.5,0,1.2,0.3,1.6,0c-0.3-0.5-1.7-0.6-2.1-0.6
					c0.8,0,2.4-0.2,2.9,0.6c0.7,0,1.5,0,2.2,0c0.5,0,1,0.3,1.5,0.2c0.1-0.6-0.9-1.6-1.4-1.9c1.9,1.2,3.5,2.9,5.8,3.4
					c-0.2-0.4-0.4-0.9-0.7-1.3c-0.4-0.5-0.7-0.9-1.2-1.3c0.9,0.6,1.7,1.4,2.3,2.3c0.5,0.7,1.2,1.3,2,1.7
					C347.9,304.3,348.8,305.7,349.2,307.3z"/>
			</g>
			<g id="Grupo_86292">
				<path id="Trazado_122758" class="st6" d="M333.5,311.7c-1.5-1.1-3.3-1.8-5.1-2c-4.3-0.5-7.3,1.9-9.4,5.4c-0.9,1.6-1.5,3.3-1.8,5
					c-0.5,2.2-0.9,4.3-1.3,6.4c-0.1,0.7-0.4,1.4-0.7,2.1c1.5,0.5,3,1,4.6,1.3c1.7,0.1,3.5-0.1,5.2-0.6c2.4-0.6,4.8-1.4,7-2.6
					c4-2,6.2-8.2,4.2-12.2c-0.5-0.9-1.2-1.8-2-2.5C333.9,312,333.7,311.8,333.5,311.7z"/>
				<path id="Trazado_122759" class="st7" d="M335.4,313.8c-0.2-0.3-0.4-0.6-0.7-0.8c-1-0.9-2.1-0.5-3.6,0.1
					c-2.3,1.2-4.2,2.9-5.8,4.9c-1.4,1.8-2.3,4-3.8,5.8c-1,1.3-2.3,2.4-3.7,3.3c-0.6,0.4-1.6,0.6-1.9,1.3c1.6,0.1,3.2-0.5,4.3-1.7
					c1.1-1.1,0.8-0.3,0.8,0.6c-0.1,1.5,1.8,1.8,2.6,0.5c1.1-1.6,0.4-5,2.4-6c0.6,1.1,0.1,2.4,0,3.6c-0.1,0.8,0,2.4,1,1.3
					c1.2-1.2,1.2-3.5,1.6-4.9c0.3-1.2,1.2-2.3,1.8-0.6c0.3,0.8,0.2,3.3,1.3,3.4c1.5,0.3,1.7-2.7,1.9-3.6c0.2-1.4,0.4-3.4,1.4-4.4
					c0.3-0.3,1-0.9,1.3-0.2C336.1,315.6,335.8,314.7,335.4,313.8z"/>
				<path id="Trazado_122760" class="st8" d="M318.8,326.8c-0.8,0.6-1.7,1-2.7,1.2c1.2-0.6,2.3-1.4,3.4-2.2c0.5-0.4,1-0.9,1.4-1.4
					c0.3-0.3,0.6-1.3,0.9-1.4c-1.4,0.7-3.1,0.8-4.3,1.9c1.4-1.3,3.5-1.5,4.8-2.8c0.7-0.9,1.2-1.8,1.7-2.8c0.5-0.7,1.1-1.5,1.5-2.2
					c-1.8,0.4-4.3,0.6-5.8,1.8c1.1-0.9,2.4-1.6,3.7-2.2c0.9-0.3,1.8-0.4,2.6-0.7c0.8-0.4,1.6-1,2.3-1.6c0.9-0.7,1.8-1.2,2.8-1.7
					c0.3-0.1,0.6-0.3,0.9-0.4c-0.4,0-0.7,0-1.1-0.1c-0.6,0-1.2,0-1.8,0c-1.2,0.1-2.3,0.2-3.5,0.5c-0.1,0-0.1-0.1,0-0.1
					c1.1-0.4,2.3-0.6,3.5-0.7c0.6-0.1,1.2-0.1,1.8-0.1c1.3,0.1,2.6,0,3.8-0.4c1.3-0.5,2.6-1,3.9-1.3c0.9-0.1,1.8-0.1,2.6,0.2
					c-0.1,0.3-0.7,0.3-1,0.4c-1.6,0.4-3.4,0.5-5,1c-0.9,0.3-2.7,0.8-3,1.9c0,0.7,0,1.4,0.1,2.1c0,2.2,0.5,5.5-0.5,7.5
					c0.3-1.7,0.4-3.5,0.2-5.2c0-1.5-0.2-3-0.8-4.4c-1.8,1-3.3,1.7-3.4,3.8c-0.1,2.7,0.2,5.7-0.9,8.2c0.1-1.6,0.3-3.1,0.3-4.7
					c0-1.4-0.4-2.9,0-4.4c-0.7,0.9-1.5,1.7-2.1,2.6c-0.4,0.7-0.8,1.4-1.2,2c-0.5,0.7-0.8,1.5-0.9,2.3c0.1,1.4-0.2,2.8-0.9,3.9
					c0.5-1.4,0.6-2.8,0.3-4.2C321.4,324.6,320.2,325.9,318.8,326.8z"/>
				<path id="Trazado_122761" class="st9" d="M320.5,318.6c1.2-0.5,2.8-1,3.6-0.7c-0.4-0.2-1.8,3-2,3.3c-1.3,1.6-3.6,2-4.6,4
					c0.6-0.3,1.2-0.6,1.8-0.7c-1.1,1.3-2,2.5-3.6,3.3c0.5-2,0.9-3.9,1.5-5.8c0.5-1.9,1.1-3.8,1.8-5.6c0.5-1.3,1.3-2.6,2.2-3.7
					c0.4-0.6,0.9-1.1,1.5-1.5c1.3-0.8,2.8-1.1,4.4-1c0.8,0,1.5,0.1,2.3,0.3c0.6,0.2,1.2,0.4,1.7,0.7c-0.8,0.4-2.3,0.3-3.3,0.5
					c-1,0.3-1.9,0.6-2.8,1.1c-0.3,0.2-0.7,0.4-1.1,0.5c1-0.2,3.9-1.1,4.6-0.2c-1.6,1.4-3.4,2.6-5.3,3.3c-1.5,0.5-3.8,1-4.2,2.9
					C319.5,319,320,318.8,320.5,318.6z"/>
			</g>
			<g id="Grupo_86293">
				<path id="Trazado_122762" class="st6" d="M344.4,311.5c-2.1-0.1-4.2,0.7-5.9,2.1c-1.4,1.2-2.3,2.9-2.5,4.8
					c-0.1,1.5-0.2,3.1-0.1,4.7c0,2.3-1.2,4.5-3.1,5.8c0.1,0,1.6,0.8,1.8,0.9c0.7,0.3,1.4,0.5,2.1,0.6c1.6,0.4,3.2,0.5,4.8,0.2
					c1.5-0.5,2.9-1.1,4.2-1.9c3.8-2.2,7-5.4,7-10c0-1.4,0.2-2.3-0.5-3.5c-0.6-1.1-1.5-2-2.6-2.5c-1.2-0.4-2.5-0.3-3.6-0.7
					C345.5,311.7,344.9,311.6,344.4,311.5z"/>
				<path id="Trazado_122763" class="st7" d="M341.5,321c-0.1,0.2-0.2,0.3-0.2,0.5c-1.5,2.7-2.6,5.3-5.4,6.7
					c-0.7,0.3-1.5,0.6-2.2,0.9c4.4,1.6,9.2,1.4,13.1-1.4c1.7-1.2,3.5-2.5,4.4-4.5c0.4-0.8,0.7-1.6,0.9-2.4c0.9-3.5,0.3-7.5-3.8-8.3
					c-1.3-0.2-2.6,0.3-3.3,1.4C343.4,315.9,342.7,318.7,341.5,321z"/>
				<path id="Trazado_122764" class="st8" d="M343,326c0-1.5-0.4-3-1.2-4.3c-0.9,1.1-1.6,2.3-1.9,3.7c-0.3,1.1-0.1,2.3-0.9,3.3
					c0.3-1,0.4-2.1,0.3-3.2c-0.3,0.4-0.5,0.9-0.9,1.3c-0.4,0.4-0.9,0.8-1.4,1c-0.9,0.5-2,0.8-3,0.8c1.7-0.1,3.3-1,4.3-2.3
					c-0.7-0.1-1.3,0.1-2,0.4c1-0.7,2.3-0.9,3-2c0.7-1,1.2-2,1.7-3.1c-1.1,0.3-2.1,0.8-3.1,1.3c1-1.1,2.6-1.6,3.4-3
					c0.4-0.6,0.6-1.3,0.9-1.9c0.3-0.5,0.6-1,0.8-1.6c-0.6,0.1-1.3,0.8-1.9,1.1c-0.6,0.3-1.2,0.5-1.8,0.6c2.1-1,4-2.5,5.4-4.4
					c-1.1,0-2.2,0.2-3.2,0.7c0.6-0.4,1.3-0.7,2-1c1-0.2,1.9-0.6,2.7-1.2c0.5-0.6,1.3-1.8,2.1-2.2c0.6-0.3,1.3,0.1,0.7,0.7
					c-0.5,0.5-1.3,0.8-1.8,1.2c-0.7,0.6-1.3,1-0.9,2c0.2,0.5,0.5,0.9,0.7,1.3c0.7,1.2,1.2,2.5,1.4,3.8c-0.3-1.3-1.2-3.6-2.4-4.4
					c-0.7-0.5-1.4,0.3-1.7,0.9c-0.1,0.8,0,1.7,0.4,2.5c0.4,1.5,0.6,3,0.7,4.6c-0.1-0.8-0.3-1.5-0.5-2.3c-0.1-0.8-0.4-1.5-0.8-2.2
					c-0.7-0.9-1,0.5-1.2,1.2c-0.4,1.1-0.5,2.2-0.1,3.3C343.1,323.7,343.2,324.9,343,326z"/>
				<path id="Trazado_122765" class="st9" d="M337.6,322.2c-0.2,0.2-0.2,0.5,0,0.7c0.4,0.4,1.5-0.3,1.9-0.3c-0.4,1.5-2.5,3-4,3.4
					c0.7-0.7,0.8-2.5,0.8-3.4c0-1.7-0.4-3.6,0.1-5.2c0.5-1.4,1.4-2.7,2.6-3.7c1.3-1.1,3.9-2,5.6-1.2c-0.9,0.3-1.7,0.6-2.6,1
					c-0.4,0.2-0.9,0.4-1.3,0.7c-0.2,0.2-0.7,0.8-0.9,0.8c0.5-0.1,2.3-0.6,2.7-0.3c0.6,0.5-1.3,1.6-1.6,1.8c-1,0.6-2.2,1.2-2.5,2.5
					c0.9-0.5,1.9-0.9,2.9-1.2c-0.2,0.9-0.6,1.7-1.2,2.3c-0.7,0.6-1.5,1-2.2,1.7C337.9,321.9,337.7,322,337.6,322.2z"/>
			</g>
			<g id="Grupo_86294">
				<path id="Trazado_122766" class="st10" d="M363.2,276.6c0.3,0.2,0.7,0.3,1.1,0.3c0.9,0,1.9-0.2,2.7-0.6
					c4.5-2.9,3.8-9.7,2.9-14.1c-0.2-0.9-0.4-2.2-1.3-2.8c-1.1,1-2.3,1.9-3.5,2.7c-2.8,2.1-6.1,6.5-5,10.3c0.4,1.2,1.1,2.3,2.1,3
					C362.7,276,362.8,276.4,363.2,276.6z"/>
				<path id="Trazado_122767" class="st7" d="M367.8,268.4c-0.8,2.2-2.6,5.5-4.8,6.7c-1.5,0.8-2.6-1.7-2.8-2.9
					c-0.4-3.6,1.7-6.4,4.2-8.8c0.9-0.8,1.8-1.4,2.7-2.2c0.5-0.4,0.9-1.1,1.5-1.3c1,0.9,0.5,2.8,0.3,3.9
					C368.7,265.3,368.4,266.9,367.8,268.4z"/>
				<path id="Trazado_122768" class="st8" d="M367.9,266.5c0-0.3-0.1-0.6-0.1-0.8c-0.1-0.3-0.2-0.7-0.2-1c-0.2-0.7-0.3-1.3-0.4-2
					c0,0,0,0,0,0c0,0,0,0,0,0c0.2,0.6,0.5,1.3,0.6,1.9c0.1,0.3,0.2,0.6,0.3,1c0,0.1,0.1,0.3,0.1,0.4c0,0,0,0,0,0c0,0.1,0,0.1,0,0.2
					c0,0.1,0,0.2,0,0.3l0,0c0,0,0,0,0,0c-0.1-0.3,0.2-0.8,0.2-1.1c0.4-1.4,0.6-2.9,0.7-4.4c0,1.8-0.2,3.6-0.6,5.4
					c0.1-0.1,0.2-0.1,0.2-0.2c0.1-0.1,0.3-0.3,0.4-0.5c0.2-0.3,0.5-0.7,0.7-1c0,0,0.1,0,0.1,0c-0.1,0.4-0.3,0.8-0.6,1.1
					c-0.1,0.2-0.3,0.3-0.4,0.5c-0.1,0.2-0.3,0.3-0.4,0.4c-0.3,1.5-0.9,3-1.6,4.3c0.1-0.1,0.2-0.1,0.3-0.2c0.2-0.1,0.5-0.3,0.7-0.5
					c0.4-0.3,0.9-0.7,1.2-1.1c0,0,0.1,0,0,0c-0.4,0.4-0.8,0.8-1.2,1.2c-0.2,0.2-0.4,0.3-0.7,0.5c-0.2,0.1-0.4,0.3-0.6,0.4
					c-0.6,1.1-1.4,2-2.2,2.9c0.3-0.1,0.7-0.1,1-0.3c0.3-0.1,0.6-0.2,0.8-0.4c0.3-0.1,0.5-0.3,0.8-0.5c0,0,0,0,0,0
					c-0.5,0.4-1,0.8-1.6,1c-0.4,0.2-0.8,0.3-1.3,0.3c-0.3,0-0.7,0.4-0.9,0.6c-0.4,0.3-0.8,0.6-1.3,0.9c-0.3,0.2-2.4,1.8-2.5,1
					c1.3-0.7,2.8-1.2,3.6-2.5c0.7-1.1,0.3-2.6,0.2-3.7c0-1.3,0-2.6,0.2-4c0,0,0,0,0,0c0,0,0,0,0,0c-0.1,1.4-0.1,2.8,0,4.2
					c0,0.6,0.1,1.3,0.2,1.9c0,0.3,0,0.6,0,0.9c0,0.1,0,0.3-0.1,0.4c0.7-0.6,1.3-1.2,1.8-1.9c0.2-0.3,0.4-0.7,0.5-1
					c0.1-0.5,0-1-0.2-1.5c-0.4-1.8-0.6-3.6-0.5-5.4c0,0,0,0,0,0c0,0,0,0,0,0c0.1,1.2,0.2,2.4,0.4,3.7c0.1,0.6,0.3,1.2,0.4,1.7
					c0.1,0.3,0.2,0.7,0.3,1c0-0.2,0.4-0.8,0.5-1c0.2-0.4,0.3-0.8,0.5-1.1C367.8,267.9,367.9,267.2,367.9,266.5z"/>
				<path id="Trazado_122769" class="st9" d="M367.9,273.4c0.2-0.2,0.3-0.5,0.4-0.7c1-2.1,1.6-4.3,1.8-6.6c0,0.1,0.3,0.8,0.3,1.1
					c0.1,0.5,0.1,1,0,1.6c-0.1,1-0.3,1.9-0.6,2.8c-0.4,1.6-1.3,3-2.5,4.1c-0.6,0.5-1.2,0.8-2,0.9c-0.7,0.1-1.4-0.1-0.6-0.8
					c0.6-0.5,1.5-0.7,2.1-1.2C367.3,274.2,367.6,273.9,367.9,273.4z"/>
			</g>
			<g id="Grupo_86295">
				<path id="Trazado_122770" class="st6" d="M355.4,265.5c1.4-2.8,1.4-6.9-0.9-9.1c-2.8-2.6-8.1-2.5-11.7-3
					c-1.3-0.2-2.5-0.5-3.8-0.8c-0.2,0.8-0.2,1.7-0.2,2.5c0,0.8,0.1,1.7,0.2,2.5c0.3,1.5,0.7,3,1.3,4.4c0.7,2.1,2.4,3.4,3.9,4.8
					c3.2,3,8.4,3.5,10.9-0.7C355.2,265.9,355.3,265.7,355.4,265.5z"/>
				<path id="Trazado_122771" class="st7" d="M354.5,266.7c0.6-0.9,0.2-1.8-0.6-2.9c-1.3-1.7-2.9-3.1-4.8-4.1
					c-1.7-0.9-3.6-1.4-5.2-2.3c-1.2-0.7-2.3-1.5-3.2-2.6c-0.5-0.8-1-1.5-1.7-2.1c-0.4,0.1-0.2,2-0.2,2.4c0,0.8,0.1,1.7,0.2,2.5
					c0.3,1.5,0.7,3,1.3,4.4c0.6,1.7,1.7,3.1,3.2,4.2c1,0.8,2,1.6,3.2,2.1c1.3,0.6,2.7,0.7,4.1,0.6c1.2-0.2,2.3-0.7,3.3-1.5
					C354.2,267.1,354.4,266.9,354.5,266.7z"/>
				<path id="Trazado_122772" class="st8" d="M341.1,255.5c-0.6-0.6-1-1.3-1.3-2.1c0.7,0.9,1.4,1.7,2.2,2.5c0.4,0.4,0.9,0.7,1.4,1
					c0.3,0.2,1.1,0.3,1.3,0.6c-0.1-0.2-0.3-0.4-0.4-0.6c-0.3-0.5-0.6-1-0.8-1.5c0,0,0,0,0-0.1c0,0,0,0,0,0c0.3,0.5,0.6,0.9,1,1.4
					c0.2,0.4,0.5,0.7,0.8,1.1c0.4,0.2,0.8,0.3,1.3,0.4c0.6,0.2,1.3,0.5,1.9,0.8c0.6,0.3,1.3,0.6,1.9,1c0-0.1-0.1-0.2-0.1-0.3
					c-0.1-0.4-0.3-0.8-0.4-1.1c-0.3-0.8-0.7-1.5-1.1-2.2c0,0,0,0,0,0c0,0,0,0,0,0l0,0c0.5,0.7,0.9,1.4,1.2,2.2
					c0.3,0.6,0.6,1.2,1,1.7c0.5,0.5,1,1,1.5,1.5c0.7,0.6,1.2,1.3,1.8,2c0.2,0.2,0.3,0.5,0.5,0.7c0-0.3-0.1-0.6-0.1-0.9
					c-0.1-0.5-0.1-1-0.2-1.5c-0.2-1-0.5-1.9-0.9-2.8c0,0,0.1-0.1,0.1,0c0.4,0.9,0.8,1.8,1.1,2.8c0.1,0.5,0.2,0.9,0.3,1.4
					c0.1,0.7,0.2,1.3,0.4,2c0.4,1.1,1.2,2.1,1.5,3.2c0.3,1.2,0.5,2.5,0.6,3.8c-0.5-1.2-0.8-2.3-1.2-3.5c-0.2-0.8-0.5-1.6-1-2.3
					c-0.4-0.6-1.1-0.8-1.8-0.7c-1.1,0.1-2.2,0.4-3.3,0.5c-1.4,0.2-2.8,0.2-4.2-0.2c0.8,0.1,1.7,0.1,2.5,0c1,0,2-0.1,2.9-0.3
					c0.7-0.1,1.8,0,2.4-0.6c0.6-0.6-0.2-1.5-0.6-2c-0.5-0.7-1.3-1.1-2.2-1c-2.2,0-4.4,0.4-6.6,0.2c1.1-0.1,2.3-0.2,3.4-0.4
					c1.1,0,2.2-0.2,3.3-0.4c-1.1-1.2-2.6-1.9-4.3-2c-0.9,0-1.9,0.1-2.8,0.3c-0.9,0.1-1.7,0.1-2.6,0.1c1.6-0.2,3.2-0.5,4.8-1
					c-0.1-0.4-0.8-0.5-1.1-0.7c-0.6-0.3-1.1-0.6-1.7-0.9c-1.2-0.6-2.7,0-4-0.5c0.9,0.1,2-0.1,2.9-0.1c0,0,0,0,0-0.1
					C342.4,256.8,341.3,255.6,341.1,255.5z"/>
				<path id="Trazado_122773" class="st9" d="M348,255.2c-1.1-0.4-2.1-0.7-3.2-1c1.3,0.3,2.8,0.1,4.2,0.4c1.6,0.2,3.1,0.8,4.4,1.7
					c0.6,0.4,3.1,2.5,2.1,3.4c-0.6,0.6-2.3-1.4-2.7-1.7C351.3,256.8,349.7,255.9,348,255.2z"/>
			</g>
			<g id="Grupo_86296">
				<path id="Trazado_122774" class="st10" d="M356.5,274.5c-0.4-1.1-1.3-1.9-2.4-2.2c-7.3-2.2-12.8,4.8-15.5,10.6
					c0.1-0.2,5.6,0.9,6.2,1c3.8,0.4,9.7,0.8,12.2-2.7c1.5-2.1,0-3.3-0.2-5.3C356.7,275.4,356.6,274.9,356.5,274.5z"/>
				<path id="Trazado_122775" class="st7" d="M347.7,276.3c-2.6,0.8-5,2.2-7,4.1c-0.6,0.6-2,1.6-2.2,2.4c0-0.2,5.6,0.9,6.2,1
					c3.6,0.3,9.8,0.7,12.1-2.7c0.6-0.9,0.7-2,0.4-3C356.1,274.7,350.3,275.6,347.7,276.3z"/>
				<path id="Trazado_122776" class="st8" d="M345,275c0.9,0.1,1.7,0.2,2.6,0.4c1,0.3,2.1,0.3,3.1,0.2c0.5-0.1,1.7-0.4,2.2-0.1
					c0,0-0.1,0-0.1-0.1c-0.4-0.2-0.8-0.4-1.2-0.6c-0.8-0.4-1.7-0.7-2.5-1c-0.1,0,0-0.1,0-0.1c0.9,0.2,1.8,0.5,2.6,0.9
					c1.7,0.6,3.3,1.1,5,1.5c0.9,0.1,1.7,0.4,2.5,0.8c0.5,0.4,0.5,1.1-0.3,0.8c-0.5-0.2-1.1-0.7-1.7-0.9c-0.4-0.2-1.2-0.6-1.5-0.4
					c-0.3,0.2-0.4,1.1-0.5,1.4c-0.4,1.2-1.1,2.4-2,3.3c0.7-0.9,1.2-1.9,1.5-3.1c0.3-0.8,0.8-2.1-0.5-1.9c-1.3,0.2-2.1,1.4-2.8,2.4
					c-0.7,1.1-1.6,2.1-2.6,2.9c0.2-0.3,0.5-0.7,0.8-0.9c1.2-1.3,2.2-2.8,2.8-4.4c-0.5-0.1-1.1-0.2-1.7,0c-0.6,0.1-1.2,0.3-1.6,0.7
					c-0.7,0.7-1.3,1.4-1.8,2.2c-0.6,0.9-1.3,1.7-2.1,2.4c0.6-0.7,1.2-1.4,1.6-2.2c0.7-0.8,1.2-1.7,1.5-2.6c-0.7,0.1-1.5,0.3-2.2,0.6
					c-0.7,0.5-1.3,1-1.8,1.7c-0.6,0.8-1.2,1.6-2,2.3c0.4-0.5,0.7-1.1,1.1-1.5c0.3-0.4,0.6-1.3,1-1.6c-0.7,0.6-1.6,0.8-2.3,1.3
					c-0.9,0.7-1.9,1.4-2.7,2.1c1.4-1.5,3-2.8,4.8-3.8c0,0,0.1,0,0.1-0.1h-0.1c-0.2,0-0.5,0-0.7,0c-0.5,0-0.9,0.1-1.4,0.1
					c0,0-0.1-0.1,0-0.1c0.2-0.1,0.5-0.1,0.7-0.2c0.2,0,0.5-0.1,0.7-0.1c0.2,0,0.5,0,0.7,0c0.2,0,0.4,0,0.6,0c0.8-0.4,1.7-0.8,2.6-1
					c0.4-0.1,0.9-0.3,1.4-0.4c-0.4-0.1-0.8-0.2-1.3-0.3C346.7,275.5,345.8,275.3,345,275C344.9,275.1,344.9,275.1,345,275
					C344.9,275,345,275,345,275z"/>
				<path id="Trazado_122777" class="st9" d="M342.4,277c0.8-1.6,2.4-2.3,3.8-3.1c1.6-1,3.4-1.5,5.3-1.5c1.1,0,3.4,0.3,4.2,1.2
					c1.3,1.3-0.7,1.8-1.8,1.5s-2.1-0.8-3.2-1.1c-0.5-0.1-0.9-0.2-1.4-0.1c-0.2,0-1.4,0.3-1.5,0.2c0.2,0.2,1.6,0.4,1.6,0.7
					c0.1,0.6-1.2,0.4-1.6,0.4c-1.4-0.1-2.5-0.5-3.6,0.5c0.3-0.2,2.2,0.4,1.3,1.2c-0.3,0.3-0.9,0.1-1.3,0.1c-0.7,0.1-1.4,0.2-2,0.5
					C342.3,277.2,342.3,277.1,342.4,277z"/>
			</g>
			<g id="Grupo_86297">
				<path id="Trazado_122778" class="st10" d="M378,277.3c-0.3-0.1-0.4-0.4-0.5-0.6c-0.3-0.6-0.5-1.3-0.4-2.1c0.6-4,5.5-5.6,8.8-6.3
					c0.7-0.1,1.7-0.4,2.3,0.1c-0.4,1.1-0.6,2.1-0.8,3.2c-0.6,2.6-2.6,6.2-5.6,6.6c-0.9,0.1-1.9-0.1-2.7-0.6
					C378.6,277.4,378.3,277.4,378,277.3z"/>
				<path id="Trazado_122779" class="st7" d="M382.2,271.6c-1.3,1.3-3,3.5-3.1,5.4c-0.1,1.3,2,1.3,2.9,1c2.6-0.8,3.9-3.1,4.7-5.6
					c0.3-0.8,0.4-1.7,0.7-2.5c0.2-0.4,0.4-0.9,0.5-1.4c-0.9-0.4-2,0.5-2.8,1C384,270,383.1,270.7,382.2,271.6z"/>
				<path id="Trazado_122780" class="st8" d="M383.5,271c0.2-0.1,0.4-0.1,0.6-0.2l0.8-0.1c0.5-0.1,1-0.2,1.5-0.3c0,0,0,0,0,0
					s0,0,0,0c-0.5,0-1,0.1-1.5,0.2l-0.7,0.1l-0.3,0c0,0,0,0,0,0c-0.1,0-0.1,0-0.1,0c-0.1,0-0.1,0-0.2,0.1h0c0,0,0,0,0,0
					c0.2,0,0.5-0.4,0.7-0.5c0.9-0.7,1.8-1.3,2.8-1.8c-1.3,0.5-2.5,1.2-3.5,2c0-0.1,0-0.1,0.1-0.2c0.1-0.1,0.1-0.3,0.2-0.4
					c0.2-0.3,0.3-0.5,0.5-0.8c0,0,0,0,0,0c-0.2,0.2-0.4,0.5-0.6,0.7c-0.1,0.1-0.1,0.3-0.2,0.4c-0.1,0.1-0.1,0.3-0.1,0.4
					c-0.9,0.7-1.8,1.5-2.5,2.4c0-0.1,0-0.2,0-0.3c0-0.2,0.1-0.4,0.1-0.6c0.1-0.4,0.2-0.8,0.4-1.2c0,0,0,0,0,0
					c-0.2,0.4-0.3,0.8-0.4,1.2c-0.1,0.2-0.1,0.4-0.1,0.6c0,0.2-0.1,0.3-0.1,0.5c-0.5,0.7-1,1.5-1.3,2.4c-0.1-0.3-0.1-0.5-0.1-0.8
					c0-0.2,0-0.5,0-0.7c0-0.2,0.1-0.5,0.1-0.7c0,0,0,0,0,0c-0.2,0.4-0.2,0.9-0.2,1.4c0,0.3,0.1,0.7,0.2,1c0,0.3,0,0.6-0.1,0.8
					c-0.1,0.4-0.1,0.7-0.2,1.1c0,0.3-0.5,2.2,0.1,2c-0.1-1.1,0.1-2.2,0.6-3.2c0.5-0.8,1.7-1,2.5-1.3c0.9-0.4,1.8-0.8,2.7-1.3
					c0,0,0,0,0,0s0,0,0,0c-0.9,0.5-1.9,0.9-2.9,1.3c-0.5,0.2-0.9,0.3-1.4,0.5c-0.2,0.1-0.4,0.2-0.6,0.3c-0.1,0-0.2,0.1-0.2,0.2
					c0.2-0.6,0.5-1.2,0.8-1.8c0.1-0.3,0.3-0.5,0.5-0.7c0.3-0.2,0.7-0.3,1.1-0.3c0.5-0.1,0.9-0.2,1.3-0.3c0.9-0.2,1.7-0.6,2.5-1
					c0,0,0-0.1,0,0c-0.9,0.3-1.7,0.6-2.6,0.8c-0.4,0.1-0.9,0.2-1.3,0.3c-0.3,0-0.5,0.1-0.8,0.1c0.1,0,0.4-0.5,0.5-0.7
					c0.2-0.2,0.4-0.5,0.6-0.7C382.5,271.4,383,271.1,383.5,271z"/>
				<path id="Trazado_122781" class="st9" d="M378.7,273c0.1-0.2,0.2-0.3,0.4-0.5c1.1-1.3,2.5-2.4,4-3.3c-0.1,0.1-0.6,0.1-0.8,0.1
					c-0.4,0.1-0.7,0.3-1.1,0.5c-0.6,0.3-1.2,0.8-1.8,1.3c-1,0.8-1.7,1.8-2.1,3c-0.2,0.5-0.2,1.1,0,1.6c0.2,0.5,0.5,0.9,0.7,0.2
					c0.2-0.5,0-1.2,0.2-1.8C378.3,273.7,378.5,273.4,378.7,273z"/>
			</g>
			<g id="Grupo_86298">
				<path id="Trazado_122782" class="st6" d="M385.8,280.1c1.8-1.4,4.9-2.1,6.8-0.7c2.3,1.7,3,5.6,4,8.2c0.3,0.9,0.8,1.7,1.2,2.7
					c-0.6,0.2-1.2,0.4-1.8,0.5c-0.6,0.1-1.2,0.2-1.8,0.3c-1.1,0-2.3-0.1-3.4-0.3c-1.6-0.2-2.8-1.3-4.1-2.2c-2.7-1.9-3.8-5.6-1.1-8.1
					C385.6,280.3,385.7,280.2,385.8,280.1z"/>
				<path id="Trazado_122783" class="st7" d="M385.1,281c0.6-0.6,1.3-0.4,2.2,0c1.4,0.7,2.7,1.7,3.7,2.9c0.9,1.1,1.5,2.4,2.5,3.5
					c0.7,0.8,1.5,1.4,2.4,2c0.6,0.2,1.2,0.5,1.8,0.9c0,0.3-1.4,0.5-1.7,0.5c-0.6,0.1-1.2,0.2-1.8,0.3c-1.1,0-2.3-0.1-3.4-0.3
					c-1.3-0.2-2.6-0.8-3.5-1.7c-0.8-0.6-1.4-1.3-2-2c-0.6-0.9-1-1.9-1-2.9c0-0.9,0.2-1.8,0.6-2.6C384.8,281.3,384.9,281.1,385.1,281
					z"/>
				<path id="Trazado_122784" class="st8" d="M395.3,289.2c0.5,0.3,1.1,0.5,1.7,0.7c-0.8-0.4-1.5-0.8-2.2-1.3
					c-0.3-0.2-0.6-0.5-0.9-0.9c-0.2-0.2-0.4-0.8-0.6-0.9c0.2,0.1,0.3,0.1,0.5,0.2c0.4,0.1,0.8,0.3,1.2,0.4c0,0,0,0,0,0c0,0,0,0,0,0
					c-0.4-0.1-0.8-0.3-1.2-0.5c-0.3-0.1-0.6-0.3-0.9-0.5c-0.2-0.3-0.4-0.6-0.5-0.9c-0.3-0.4-0.5-0.9-0.8-1.3c-0.3-0.4-0.6-0.8-1-1.2
					l0.2,0c0.3,0,0.6,0.1,0.9,0.1c0.6,0.1,1.2,0.3,1.8,0.5c0,0,0,0,0,0c0,0,0,0,0,0c-0.6-0.3-1.2-0.5-1.8-0.6
					c-0.5-0.1-1-0.2-1.4-0.5c-0.5-0.3-0.9-0.6-1.3-0.9c-0.6-0.4-1.1-0.7-1.8-1c-0.2-0.1-0.4-0.2-0.6-0.2c0.2,0,0.5,0,0.7-0.1
					c0.4,0,0.8-0.1,1.1-0.1c0.7,0,1.5,0.1,2.2,0.2c0,0,0.1-0.1,0-0.1c-0.7-0.2-1.5-0.3-2.2-0.4c-0.4,0-0.7,0-1.1,0
					c-0.5,0-1,0.1-1.5,0c-1.2-0.1-2.2-0.9-3.5-0.9c0.9,0.3,1.8,0.7,2.7,1.1c0.5,0.2,0.8,0.7,0.8,1.2c0.1,0.8,0.1,1.7,0.1,2.5
					c0.1,1.1,0.3,2.1,0.7,3c-0.2-0.6-0.3-1.2-0.3-1.8c-0.1-0.7-0.2-1.5-0.2-2.2c0-0.5-0.2-1.4,0.1-1.8c0.4-0.5,1.1-0.1,1.5,0.1
					c0.6,0.3,1,0.8,1.1,1.4c0.4,1.6,0.4,3.3,0.8,4.9c-0.1-0.9-0.2-1.7-0.2-2.6c-0.1-0.8-0.2-1.6-0.2-2.5c1.1,0.6,1.8,1.7,2.1,2.8
					c0.1,0.7,0.2,1.4,0.2,2.1c0,0.6,0.2,1.3,0.3,1.9c-0.1-1.2-0.1-2.4,0-3.7c0.3,0,0.5,0.5,0.7,0.7c0.3,0.4,0.6,0.7,0.9,1.1
					c0.6,0.8,0.4,2,1,2.8c-0.2-0.7-0.2-1.5-0.4-2.1c0,0,0,0,0,0C394.2,288.4,395.2,289.1,395.3,289.2z"/>
				<path id="Trazado_122785" class="st9" d="M394.5,284c0.5,0.7,0.9,1.5,1.2,2.2c-0.4-0.9-0.5-2.1-0.9-3c-0.4-1.1-1.1-2.1-1.9-3
					c-0.4-0.4-2.3-1.9-2.8-1c-0.3,0.6,1.4,1.5,1.7,1.7C392.8,281.9,393.8,282.9,394.5,284z"/>
			</g>
			<g id="Grupo_86299">
				<path id="Trazado_122786" class="st10" d="M381.2,280.3c0.9-0.1,1.7,0.2,2.3,0.9c4,4.2,1.1,10.2-1.9,14
					c-0.8-1.3-1.8-2.6-2.7-3.9c-1.5-2.4-3.8-6.2-2.3-9.1c0.9-1.7,2.2-1.1,3.6-1.6C380.5,280.4,380.9,280.3,381.2,280.3z"/>
				<path id="Trazado_122787" class="st7" d="M382.9,286.7c0.3,2,0.2,4.1-0.4,6.1c-0.2,0.6-0.4,1.8-0.9,2.3c0.1-0.1-2.5-3.4-2.7-3.8
					c-1.4-2.3-3.8-6.4-2.3-9c0.4-0.7,1.1-1.2,1.9-1.3C381.2,280.6,382.6,284.8,382.9,286.7z"/>
				<path id="Trazado_122788" class="st8" d="M384.7,288.1c-0.4-0.6-0.8-1.1-1.2-1.6c-0.5-0.6-0.9-1.3-1.2-2
					c-0.1-0.4-0.3-1.3-0.6-1.5c0,0,0,0,0.1,0c0.3,0.2,0.6,0.4,0.8,0.6c0.5,0.4,1,0.9,1.5,1.4c0,0,0.1,0,0.1-0.1
					c-0.5-0.5-1-1-1.5-1.5c-1-0.9-1.9-1.9-2.7-2.9c-0.4-0.4-0.9-1.2-1.4-1.4c-0.4-0.2-0.9,0-0.4,0.4c0.3,0.3,0.8,0.5,1.2,0.8
					c0.2,0.2,0.8,0.6,0.8,0.9c0,0.3-0.6,0.6-0.8,0.8c-0.7,0.7-1.2,1.5-1.6,2.4c0.4-0.8,0.9-1.4,1.6-2c0.4-0.4,1.1-1.3,1.5-0.3
					c0.3,1-0.3,1.9-0.7,2.7c-0.5,0.9-0.9,1.8-1.1,2.7c0.2-0.3,0.3-0.5,0.4-0.8c0.4-1.3,1.1-2.4,2-3.4c0.3,0.3,0.5,0.7,0.6,1.1
					c0.1,0.4,0.2,0.9,0,1.3c-0.2,0.7-0.5,1.4-0.9,2c-0.4,0.7-0.7,1.5-0.9,2.2c0.3-0.6,0.6-1.3,0.9-1.9c0.3-0.7,0.7-1.3,1.3-1.9
					c0.2,0.5,0.3,1.1,0.3,1.7c-0.1,0.6-0.3,1.2-0.5,1.7c-0.4,0.7-0.7,1.4-0.9,2.1c0.2-0.4,0.5-0.8,0.7-1.2c0.2-0.4,0.7-0.8,0.8-1.2
					c-0.2,0.7,0,1.3-0.1,2c-0.2,0.8-0.3,1.7-0.5,2.5c0.5-1.4,0.9-3,1-4.5c0,0,0-0.1,0-0.1l0,0.1c0.1,0.2,0.2,0.3,0.2,0.5
					c0.1,0.3,0.3,0.6,0.4,1c0,0,0.1,0,0.1,0c0-0.2-0.1-0.3-0.1-0.5c-0.1-0.2-0.1-0.3-0.2-0.5s-0.1-0.3-0.2-0.5
					c-0.1-0.1-0.1-0.2-0.2-0.4c0-0.7-0.1-1.4-0.2-2.1c-0.1-0.3-0.1-0.7-0.2-1c0.2,0.2,0.4,0.5,0.6,0.7
					C383.8,287.2,384.2,287.7,384.7,288.1C384.7,288.2,384.7,288.2,384.7,288.1C384.7,288.2,384.7,288.2,384.7,288.1z"/>
				<path id="Trazado_122789" class="st9" d="M384.3,290.5c0.6-1.1,0.9-2.4,0.8-3.6c0.1-1.4-0.1-2.8-0.8-4.1
					c-0.4-0.8-1.4-2.2-2.2-2.4c-1.3-0.4-1,1.1-0.4,1.7s1.3,1.1,1.8,1.8c0.2,0.3,0.4,0.6,0.6,0.9c0.1,0.1,0.3,1.1,0.4,1.1
					c-0.2-0.1-0.8-0.9-1-0.9c-0.5,0.2,0.1,1,0.3,1.2c0.5,0.9,1.2,1.5,0.9,2.6c0.1-0.3-1-1.3-1.2-0.5c-0.1,0.3,0.2,0.7,0.3,0.9
					c0.2,0.5,0.3,1,0.4,1.5C384.1,290.7,384.2,290.6,384.3,290.5z"/>
			</g>
			<g id="Grupo_86300">
				<path id="Trazado_122790" class="st10" d="M394.1,342.2c0.4,0,0.8,0.1,1.1,0.2c-0.6,0.3-0.9,1.1-1.2,1.6c-1.9,3.1-4,5-7.7,5.3
					c-2.5,0.2-4.8-0.4-6.1-2.7c-0.4-0.6-0.5-1.3-0.3-1.9c0.3-0.8,1.6-1.3,2.2-1.9c2.8-2.8,6.1,0,9.4-0.5
					C392.3,342.3,393.2,342.2,394.1,342.2z"/>
				<path id="Trazado_122791" class="st7" d="M388.1,348.9c-0.6,0.1-1.1,0.2-1.7,0.3c-1,0.1-1.9,0-2.9-0.2c-1.6-0.3-2.9-1.4-3.4-2.9
					c-0.3-0.7-0.1-1.4,0.5-1.9c0.3-0.4,0.7-0.6,1.1-0.7c0.5-0.1,0.8,0.3,1.3,0.5c0.7,0.3,1.4,0.5,2.2,0.7c1.7,0.3,3.5,0.1,5.1-0.4
					c0.8-0.2,1.6-0.5,2.3-1c0.6-0.5,1.4-0.8,2.2-0.8c-0.9,1.9-2.1,3.6-3.6,5C390.2,348.2,389.2,348.7,388.1,348.9z"/>
				<path id="Trazado_122792" class="st16" d="M389.5,343.7c0.5,0.1,0.9-0.5,1.4-0.6c0.3-0.1,0.7-0.2,1-0.2c0,0,0,0.2,0,0.2
					c0.1-0.2,0.6-0.3,0.8-0.3c0.4-0.1,0.7-0.2,1.1-0.4c-1.7,0.3-3.5,0.3-5.3,0.1c-1.4-0.2-2.9-1-4.3-0.5c-0.4,0.1-1.3,0.4-1.5,0.9
					c-0.2,0.5,1.1,0.9,1.4,0.8c0.5,0,1-0.4,1.5-0.5c0.4-0.1,1.2-0.2,1.5,0c-0.5,0.2-1.2,0.9-0.2,0.8c0.9-0.2,1.7-0.8,2.7-0.8
					C389.5,343.3,389.5,343.5,389.5,343.7z"/>
				<path id="Trazado_122793" class="st8" d="M386.1,344.8c0.5,0.1,1,0.2,1.4,0.5c0.4,0.2,0.8,0.6,1.1,0.9c0.2,0.3,0.8,0.9,0.8,1.3
					c-0.1-0.5-0.3-0.9-0.6-1.3c-0.2-0.4-0.5-0.9-0.8-1.2c0.1,0.2,1.3-0.1,1.5-0.2c0.5-0.2,0.9,0.1,1.5,0.1c0.5,0.1,1.1,0,1.6,0.1
					c-0.6-0.1-1.1-0.2-1.7-0.4c0,0,0-0.1,0-0.1c0.7-0.1,1.1-0.8,1.7-1.1c0.5-0.3,1.2-0.6,1.8-0.6c-1,0-2,0.3-2.9,0.9
					c-0.3,0.2-0.6,0.4-0.9,0.5c0.3-0.5,0.8-0.9,1.3-1.2c-0.6,0.3-1.2,0.6-1.7,1c-0.4,0.2-1.4,0.7-1.9,0.5c-0.4-0.1-0.1-0.4,0.2-0.6
					c0.5-0.4,1-0.7,1.6-0.9c-1,0.3-1.7,0.8-2.7,1.2c-0.8,0.3-1.7,0.3-2.5,0.2c0.1-0.3,0.9-0.6,1.2-0.8c0.4-0.2,0.9-0.3,1.3-0.5
					c-1.2,0.2-2.2,1-3.4,0.8c-1.1-0.3-2.2-0.8-3.2-1.4c-0.7-0.3-1.5-0.2-2.2,0.2c0.4,0.1,0.8,0.2,1.1,0.3c0.5,0.1,1,0.4,1.5,0.5
					c0.4,0.1,0.8,0.2,1.1,0.4c0.6,0.3,1.2,0.8,1.7,1.3c0.6,0.9,0.6,2.2,0.9,3.2c-0.1-0.5-0.1-1-0.1-1.5c0-0.2-0.4-1.9-0.3-1.9
					C384.9,344.7,385.5,344.7,386.1,344.8L386.1,344.8z"/>
			</g>
			<g id="Grupo_86301">
				<path id="Trazado_122794" class="st10" d="M369.4,315.8c-0.2-0.3-0.3-0.7-0.2-1c0-0.9,0.2-1.8,0.7-2.5c2.9-4.2,9.4-3.2,13.6-2.1
					c0.9,0.2,2.1,0.5,2.6,1.4c-1,1-1.9,2.1-2.7,3.2c-2.2,2.6-6.5,5.6-10,4.3c-1.1-0.4-2.1-1.2-2.8-2.2
					C370,316.3,369.6,316.1,369.4,315.8z"/>
				<path id="Trazado_122795" class="st7" d="M377.4,311.7c-2.1,0.7-5.3,2.3-6.5,4.3c-0.8,1.4,1.5,2.6,2.7,2.8
					c3.4,0.6,6.2-1.3,8.5-3.7c0.8-0.8,1.4-1.6,2.2-2.4c0.4-0.4,1.1-0.8,1.3-1.3c-0.8-1-2.6-0.5-3.7-0.5
					C380.4,311,378.9,311.3,377.4,311.7z"/>
				<path id="Trazado_122796" class="st8" d="M379.2,311.8c0.3,0,0.5,0.1,0.8,0.2c0.3,0.1,0.6,0.2,1,0.3c0.6,0.2,1.2,0.4,1.9,0.5
					c0,0,0,0,0,0c0,0,0,0,0,0c-0.6-0.3-1.2-0.5-1.8-0.7c-0.3-0.1-0.6-0.2-0.9-0.3c-0.1,0-0.2-0.1-0.4-0.1c0,0,0,0,0,0
					c-0.1,0-0.1,0-0.2,0c-0.1,0-0.2,0-0.2,0l0,0l0,0c0.3,0.1,0.8-0.1,1.1-0.2c1.4-0.3,2.8-0.4,4.2-0.5c-1.7-0.1-3.5,0-5.2,0.3
					c0.1-0.1,0.1-0.1,0.2-0.2c0.1-0.1,0.3-0.2,0.5-0.4c0.3-0.2,0.7-0.4,1-0.6c0,0,0-0.1,0-0.1c-0.4,0.1-0.8,0.3-1.1,0.5
					c-0.2,0.1-0.3,0.2-0.5,0.4c-0.1,0.1-0.3,0.2-0.4,0.4c-1.5,0.2-2.9,0.7-4.2,1.3c0.1-0.1,0.1-0.2,0.2-0.3c0.2-0.2,0.3-0.4,0.5-0.6
					c0.3-0.4,0.7-0.8,1.1-1.1c0,0,0-0.1,0,0c-0.4,0.3-0.8,0.7-1.1,1.1c-0.2,0.2-0.3,0.4-0.5,0.6c-0.1,0.2-0.3,0.4-0.4,0.6
					c-1,0.5-2,1.2-2.8,2c0.1-0.3,0.2-0.6,0.3-1c0.1-0.3,0.2-0.5,0.4-0.8c0.1-0.3,0.3-0.5,0.5-0.7c0,0,0,0,0,0
					c-0.4,0.4-0.8,0.9-1,1.5c-0.2,0.4-0.3,0.8-0.4,1.2c0,0.3-0.5,0.6-0.6,0.8c-0.3,0.4-0.6,0.8-0.9,1.2c-0.2,0.3-1.8,2.2-1,2.3
					c0.7-1.2,1.2-2.6,2.5-3.3c1-0.6,2.4-0.1,3.6-0.1c1.3,0.1,2.5,0.1,3.8,0c0,0,0,0,0,0c0,0,0,0,0,0l0,0c-1.3,0-2.7,0-4-0.1
					c-0.6-0.1-1.2-0.2-1.8-0.3c-0.3,0-0.6-0.1-0.9,0c-0.1,0-0.3,0-0.4,0.1c0.6-0.6,1.2-1.1,1.9-1.6c0.3-0.2,0.6-0.4,1-0.5
					c0.5-0.1,1,0,1.4,0.2c0.6,0.2,1.1,0.3,1.7,0.4c1.1,0.2,2.3,0.3,3.4,0.3c0,0,0-0.1,0-0.1c-1.2-0.1-2.3-0.3-3.5-0.5
					c-0.6-0.1-1.1-0.3-1.6-0.5c-0.3-0.1-0.6-0.2-1-0.3c0.2,0,0.8-0.4,1-0.5c0.4-0.1,0.7-0.3,1.1-0.4
					C377.9,311.8,378.5,311.7,379.2,311.8z"/>
				<path id="Trazado_122797" class="st9" d="M372.6,311.4c0.2-0.1,0.5-0.3,0.7-0.4c2-0.9,4.2-1.4,6.4-1.5c-0.1,0-0.8-0.3-1-0.3
					c-0.5-0.1-1-0.1-1.5-0.1c-0.9,0-1.8,0.2-2.7,0.4c-1.5,0.3-2.9,1.1-4,2.2c-0.5,0.5-0.8,1.1-0.9,1.8c-0.1,0.7,0.1,1.3,0.7,0.6
					c0.5-0.5,0.7-1.4,1.2-2C371.8,312,372.2,311.7,372.6,311.4z"/>
			</g>
			<g id="Grupo_86302">
				<path id="Trazado_122798" class="st6" d="M373.6,322.5c2.9-0.6,6.7,0.4,8.1,3.1c1.7,3.2,0.3,8.1-0.1,11.5
					c-0.1,1.2-0.1,2.4-0.2,3.7c-0.8-0.1-1.6-0.2-2.3-0.5c-0.8-0.2-1.5-0.5-2.2-0.8c-1.3-0.6-2.5-1.4-3.7-2.2c-1.7-1.2-2.5-3-3.5-4.8
					c-2-3.7-1.1-8.6,3.3-9.9C373.2,322.6,373.4,322.5,373.6,322.5z"/>
				<path id="Trazado_122799" class="st7" d="M372.4,323c1-0.3,1.7,0.3,2.5,1.3c1.3,1.6,2.1,3.4,2.6,5.4c0.4,1.8,0.4,3.6,0.8,5.4
					c0.3,1.3,0.9,2.5,1.6,3.6c0.6,0.6,1.1,1.3,1.5,2.1c-0.2,0.3-1.9-0.3-2.2-0.4c-0.8-0.2-1.5-0.5-2.2-0.8c-1.3-0.6-2.5-1.4-3.7-2.2
					c-1.4-1-2.5-2.3-3.1-3.9c-0.5-1.1-0.9-2.2-1.2-3.4c-0.2-1.3,0-2.7,0.5-3.9c0.5-1,1.2-1.9,2.2-2.6
					C371.8,323.2,372.1,323.1,372.4,323z"/>
				<path id="Trazado_122800" class="st8" d="M379.3,338.1c0.4,0.7,0.9,1.2,1.6,1.7c-0.7-0.8-1.2-1.7-1.7-2.7
					c-0.2-0.5-0.4-1-0.6-1.5c-0.1-0.3,0-1.1-0.2-1.3c0.1,0.2,0.3,0.3,0.4,0.5c0.4,0.4,0.8,0.8,1.2,1.1c0,0,0.1,0,0.1,0
					c-0.4-0.4-0.7-0.8-1-1.2c-0.3-0.3-0.6-0.6-0.8-1c-0.1-0.4-0.1-0.8-0.1-1.3c-0.1-0.7-0.1-1.3-0.2-1.9c-0.1-0.7-0.2-1.3-0.4-2
					l0.2,0.2c0.3,0.2,0.6,0.4,0.9,0.7c0.6,0.5,1.2,1,1.8,1.6c0,0,0,0,0,0c0,0,0,0,0,0c-0.5-0.6-1.1-1.2-1.7-1.7
					c-0.5-0.4-1-0.8-1.3-1.3c-0.4-0.6-0.7-1.2-1-1.8c-0.4-0.8-0.9-1.5-1.4-2.1c-0.2-0.2-0.4-0.4-0.5-0.6c0.3,0.1,0.5,0.2,0.8,0.3
					c0.4,0.2,0.9,0.4,1.3,0.6c0.8,0.4,1.6,0.9,2.3,1.5c0,0,0.1,0,0.1-0.1c-0.7-0.6-1.5-1.2-2.3-1.7c-0.4-0.2-0.8-0.5-1.2-0.7
					c-0.6-0.2-1.2-0.5-1.7-0.8c-1.3-0.8-2-2.3-3.4-3c0.8,0.9,1.6,1.8,2.4,2.8c0.4,0.5,0.5,1.2,0.2,1.8c-0.4,1-0.9,2-1.3,2.9
					c-0.5,1.2-0.8,2.5-0.9,3.9c0.1-0.8,0.3-1.5,0.7-2.3c0.3-0.9,0.6-1.8,1-2.6c0.3-0.6,0.5-1.7,1.1-2c0.7-0.4,1.3,0.5,1.7,1
					c0.5,0.6,0.7,1.5,0.4,2.2c-0.5,2.1-1.4,4-1.9,6c0.3-1,0.7-2.1,1.2-3c0.3-1,0.7-2,1.2-2.9c0.8,1.3,1.1,2.9,0.8,4.4
					c-0.2,0.9-0.6,1.7-1,2.5c-0.3,0.8-0.5,1.5-0.7,2.3c0.6-1.4,1.3-2.8,2.1-4.2c0.3,0.2,0.3,0.8,0.3,1.2c0.1,0.6,0.3,1.2,0.4,1.8
					c0.2,1.3-0.6,2.5-0.5,3.8c0.1-0.9,0.6-1.8,0.8-2.6c0,0,0,0,0.1,0C378.4,336.5,379.2,337.9,379.3,338.1z"/>
				<path id="Trazado_122801" class="st9" d="M381.3,331.8c0.1,1.1,0.2,2.1,0.1,3.2c0-1.2,0.6-2.6,0.7-3.9c0.2-1.5,0-3-0.5-4.5
					c-0.3-0.7-1.5-3.4-2.6-2.7c-0.7,0.4,0.7,2.4,0.9,2.9C380.7,328.4,381.1,330.1,381.3,331.8z"/>
			</g>
			<g id="Grupo_86303">
				<path id="Trazado_122802" class="st10" d="M369.5,323.1c0.8,0.8,1.1,1.9,0.9,3c-1.1,7.2-9.4,9.1-15.4,9c0.2,0,1.5-5.2,1.7-5.7
					c1.2-3.4,3.3-8.6,7.3-9.4c2.4-0.4,2.8,1.3,4.5,2.3C368.8,322.5,369.2,322.8,369.5,323.1z"/>
				<path id="Trazado_122803" class="st7" d="M364.4,329.9c-1.8,1.9-4,3.4-6.4,4.3c-0.7,0.3-2.1,1.1-3,0.9c0.2,0,1.5-5.2,1.7-5.7
					c1.2-3.2,3.4-8.8,7.3-9.3c1-0.1,2,0.2,2.8,0.9C369.2,323.4,366,328,364.4,329.9z"/>
				<path id="Trazado_122804" class="st8" d="M364.4,332.8c0.3-0.8,0.5-1.6,0.7-2.4c0.2-1,0.6-1.9,1.1-2.8c0.3-0.4,1-1.3,1-1.8
					c0,0,0,0.1,0,0.1c0,0.4,0,0.9,0,1.3c0,0.9-0.1,1.7-0.2,2.6c0,0.1,0.1,0.1,0.1,0c0.2-0.9,0.3-1.7,0.3-2.6c0-1.1,0.1-2.3,0.5-3.3
					c0.4,0.5,0.6,1.1,0.7,1.8c0.1,0.7,0.1,1.3,0.1,2c0.3-0.9,0.3-1.9,0-2.9c-0.3-0.7-0.5-1.6-0.5-2.4c0.1-0.5,0.3-1.1,0.3-1.6
					c0.1-0.8,0.2-2.4-1-2.2c0.3,0.7,0.5,1.4,0.6,2.2c0,0.7-0.1,1.3-0.4,1.9c-0.4,0.6-0.9,0.2-1.5,0.2c-1.2-0.2-2.5,0-3.7,0.3
					c1.1-0.2,2.2-0.2,3.2,0c0.8,0.1,2.2,0.2,1.4,1.3c-0.7,1.1-2.1,1.2-3.2,1.4c-1.2,0.2-2.4,0.5-3.6,1c0.4,0,0.8-0.1,1.1-0.3
					c1.6-0.5,3.3-0.7,4.9-0.6c-0.1,0.5-0.3,1-0.6,1.5c-0.3,0.5-0.8,0.9-1.3,1.1c-0.9,0.3-1.8,0.5-2.7,0.6c-1,0.2-2,0.5-2.9,0.9
					c0.8-0.2,1.7-0.4,2.6-0.5c0.9-0.2,1.9-0.3,2.9-0.2c-0.4,0.6-0.9,1.2-1.4,1.6c-0.7,0.4-1.4,0.7-2.1,0.8c-1,0.2-1.9,0.4-2.8,0.7
					c0.6-0.2,1.2-0.2,1.8-0.3c0.6,0,1.2-0.1,1.8-0.2c-0.8,0.3-1.3,1-2.1,1.5c-1,0.5-1.9,1-2.9,1.5c1.9-0.6,3.6-1.4,5.2-2.6
					c0,0,0.1-0.1,0.1-0.1c0,0,0,0.1,0,0.1c-0.1,0.2-0.2,0.4-0.3,0.6c-0.2,0.4-0.4,0.8-0.7,1.2c0,0,0,0.1,0.1,0
					c0.1-0.2,0.3-0.3,0.4-0.5c0.1-0.2,0.2-0.4,0.4-0.6c0.1-0.2,0.2-0.4,0.3-0.6c0.1-0.2,0.2-0.3,0.2-0.5c0.7-0.5,1.4-1.2,2-1.8
					c0.3-0.3,0.6-0.7,0.9-1c-0.1,0.4-0.1,0.8-0.2,1.2C364.6,331.1,364.4,331.9,364.4,332.8C364.3,332.7,364.3,332.8,364.4,332.8
					C364.3,332.8,364.3,332.8,364.4,332.8z"/>
				<path id="Trazado_122805" class="st9" d="M361.6,334.2c1.7-0.1,2.9-1.1,4.2-2c1.5-1,2.7-2.3,3.5-4c0.4-1,1.1-3,0.7-4.1
					c-0.6-1.6-1.8-0.1-2,0.9s-0.1,2.1-0.4,3.2c-0.1,0.4-0.2,0.9-0.5,1.3c-0.1,0.2-0.8,1.1-0.8,1.2c-0.1-0.3,0.3-1.5,0.1-1.7
					c-0.5-0.3-0.9,0.9-1,1.2c-0.5,1.2-0.6,2.3-1.9,2.9c0.3-0.2,0.6-2-0.5-1.6c-0.4,0.2-0.5,0.8-0.7,1.1c-0.3,0.6-0.8,1.1-1.2,1.5
					C361.3,334.2,361.5,334.2,361.6,334.2z"/>
			</g>
			<path id="Trazado_122806" class="st12" d="M388.9,366.7c-0.9-0.2-1.9-0.4-2.8-0.7c-1.2-0.4-2.4-1.1-3.7-1.5
				c-1.6-0.6-3.2-0.9-4.9-1c-0.7,0-1.4-0.1-2.1,0c-1.3,0.2-2.5,0.6-3.6,1.2c-2,1-3.5,2.7-4.4,4.7c1.4-1.3,4-1.9,5.8-2.3
				c2.7-0.4,5.5-0.5,8.2-0.2c1.8,0.1,3.5,0.2,5.3,0.4c1,0.1,2.1,0,3-0.4C389.5,366.7,389.2,366.7,388.9,366.7z"/>
			<g id="Grupo_86304">
				<path id="Trazado_122807" class="st17" d="M375.5,340.5c1.9,2.1-0.4,5.6-2.1,7c-2.7,2.2-6.3,3-8.2,6.1c-0.8,1.3-1.3,2.8-1.3,4.4
					c-0.6-2.1,0.3-4,0.1-6.1c-0.1-1.4-0.7-2.8-1.7-3.7c-1.2-1-2.6-2.1-3.3-3.6c-0.8-2,1.5-3.5,2.8-4.5c0.8-0.6,1.8-1.6,2.9-1.7
					c2.3-0.3,3.1,2.9,5.6,2.6c1.4-0.1,3.6-1.5,4.9-0.8C375.3,340.3,375.4,340.4,375.5,340.5z"/>
				<path id="Trazado_122808" class="st10" d="M364.5,355.8c-0.2,1-0.3,1.9-0.4,2.9c-0.1,0.1-0.2,0.1-0.4,0.1c0-1.8,0.2-3.6,0.6-5.3
					c0.4-1.6,0.3-3.3-0.2-4.9c-0.4-0.9-1.6-1.9-1.6-3c0.4,0.7,0.9,1.4,1.6,1.9c0.8,0.5,1,0.1,1.5-0.7c0.4-0.7,1-1.6,0.9-2.4
					c-0.2-0.8-1-1.6-1.2-2.4c0.5,0.6,1.1,2.4,2.2,2c1.2-0.4,0.4-2.6,0.1-3.3c0.8,0.5,1,1.4,2,1.3c1.2-0.1,2.4-0.6,3.5-0.7
					c-1.7,0.3-4.1,1.3-4.7,3.1c1.5,0.2,3-0.1,4.4-0.9c-1.1,0.8-2.7,0.9-3.9,1.6c-1.1,0.8-1.9,2-2.2,3.4c1.5,0,2.9-0.4,4.2-1
					c-1.4,0.9-3.2,1.5-4.2,2.9C365.6,352,364.9,353.9,364.5,355.8z"/>
				<path id="Trazado_122809" class="st18" d="M363.9,340.9c-0.2-0.7-0.3-1.2-0.1-1.2c-1.3,0-4.2,2.1-4.4,3.5
					c-0.4,1.9,1.2,3.1,2.4,4.2c1.2,0.9,2,2.2,2.4,3.6c0.2,1.8,0.2,3.6,0.1,5.4c0.1-1,0.4-2,0.9-2.9c1.5-2.7,5.2-4.2,7.8-5.8
					c0.8-0.4,1.5-1.1,2-1.9c-0.1,0.4-2.1,1.1-2.5,1.4c-0.8,0.4-1.7,0.8-2.6,1c-0.8,0.2-2.8,1.5-3.5,0.5c-0.6-0.8,0.5-2.3,0.9-3
					c0.5-1.1,1.1-2.1,1.8-3.1c0.2-0.3,0.4-0.5,0.5-0.8c-1-0.3-1.9-0.9-2.5-1.7c0.4,1,0.6,2.1,0.6,3.2c-0.1,1.2-1.2,2-2.3,1.1
					C364.5,343.6,364.2,341.9,363.9,340.9z"/>
			</g>
			<path id="Trazado_122810" class="st7" d="M359,368.8c-0.6-0.3-1.3-0.5-2.1-0.8c-2.1-0.8-4.2-1.1-6.4-1.1c-2.8,0-5.6,0.5-8.2,1.6
				c-1.8,0.8-3.6,1.5-5.4,2.3c0.7,0.3,1.4,0.6,2.1,1c0.8,0.6,1.3,1.4,2.1,2c1.4,1,3.4,1,5,0.9c1.7-0.2,3.3-0.7,4.8-1.5
				c1.7-1,3.4-1.8,5.2-2.5c1.3-0.5,2.5-1.1,3.8-0.4c1.2,0.6,2.1,1.6,2.5,2.9c0.2-1.2-0.9-2.5-1.7-3.3
				C360.2,369.4,359.6,369.1,359,368.8z"/>
			<path id="Trazado_122811" class="st7" d="M362.4,373.2c0.2-1.2-0.9-2.5-1.7-3.3c-0.5-0.5-1.1-0.8-1.7-1.1
				c-0.6-0.3-1.3-0.5-2.1-0.8c-2.1-0.8-4.2-1.1-6.4-1.1c-2.8,0-5.6,0.5-8.2,1.6c-1.1,0.5-3.1,0.9-3.9,1.8c0.9,0.1,2.4-1,3.2-0.6
				c-0.2,0.2-0.4,0.5-0.6,0.6c1.3-0.7,3.6-2.2,5.1-1.7c-0.1,0.3-0.3,0.5-0.6,0.7c0,0,0,0,0,0c1.2-0.6,2.6-1,4-1.1
				c0.8-0.1,2.2,0.2,1,0.8c0.6-0.4,3.5-1,3.9-0.1c0.3,0.9-1.7,1.7-2.2,2c0.7-0.3,1.5-0.6,2.2-0.9c0.8-0.3,1.6-0.6,2.4-0.7
				c0.7-0.2,1.4-0.2,2.1,0.1C359.9,369.9,362.6,372,362.4,373.2z"/>
			<path id="Trazado_122812" class="st8" d="M361.7,370.8c0.5,0.5,0.7,1.2,0.7,1.9c0.2-2.3-2.1-3.6-3.9-4.4
				c-0.4-0.2-0.8-0.3-1.3-0.5l0,0c-0.2-0.2-0.4-0.3-0.5-0.5c-0.3-0.3-0.7-0.7-1-1c-0.6-0.6-1.4-1-2.2-1.1c0,0,0,0,0,0
				c0.9,0.2,1.6,0.7,2.2,1.3c0.3,0.3,0.6,0.7,0.9,1c0,0,0,0,0,0l-0.1,0c-0.9-0.3-1.7-0.5-2.6-0.6c-0.6-0.2-1.2-0.4-1.8-0.7
				c-0.5-0.2-0.9-0.4-1.4-0.6c-0.9-0.3-1.8-0.5-2.8-0.4c0,0,0,0.1,0,0.1c0.9,0,1.9,0.2,2.7,0.6c0.4,0.2,0.8,0.4,1.2,0.6
				c0.2,0.1,0.4,0.2,0.5,0.3c-0.1,0-0.3,0-0.4,0c-1.2-0.1-2.5-0.1-3.7,0c-0.2-0.1-0.5-0.2-0.7-0.2c-0.4-0.1-0.8-0.1-1.3-0.2
				c-0.9,0-1.7,0-2.6,0.1c0,0,0,0,0,0c0.8,0,1.7,0,2.5,0.1c0.4,0,0.8,0.1,1.2,0.2c0.1,0,0.1,0,0.2,0.1c-1.4,0.2-2.8,0.5-4.1,0.9
				c-0.2,0-0.3,0-0.5,0c-0.2,0-0.5,0-0.7,0c-0.5,0-1.1,0.1-1.6,0.3c0,0,0,0,0,0c0.5-0.1,1-0.1,1.6-0.1c0.2,0,0.5,0,0.7,0
				c-1.5,0.5-2.9,1.2-4.2,2.1c0,0,0,0,0,0c1.3-0.8,2.7-1.4,4.2-1.9c-0.3,0.2-0.5,0.4-0.7,0.6c-0.4,0.4-0.7,0.8-1.1,1.2
				c-0.4,0.4-0.8,0.7-1.3,1.1c0,0,0,0,0,0c0.9-0.5,1.7-1.1,2.4-1.9c0.4-0.4,0.7-0.7,1.1-1c0.3-0.2,0.7-0.4,1.1-0.5
				c0.8-0.2,1.7-0.4,2.5-0.5c0.2,0,0.5-0.1,0.7-0.1c-0.6,0.4-1.1,0.8-1.6,1.3c-0.5,0.5-0.9,1-1.4,1.5c-0.2,0.2-0.5,0.5-0.8,0.7
				c-0.3,0.2-0.6,0.4-0.9,0.7c0,0,0,0,0,0c1.2-0.7,2.2-1.5,3.1-2.5c0.5-0.4,0.9-0.8,1.5-1.2c0.4-0.2,0.8-0.5,1.2-0.6
				c1.2-0.1,2.4,0,3.6,0.1c-0.1,0-0.2,0.1-0.3,0.1c-0.5,0.3-1,0.6-1.5,1.1c-0.5,0.4-0.9,0.9-1.3,1.3c-0.5,0.5-1,0.9-1.6,1.2
				c0,0,0,0.1,0,0.1c1-0.6,2-1.3,2.9-2.1c0.4-0.4,0.9-0.8,1.5-1.1c0.5-0.2,0.9-0.4,1.4-0.4c0.7,0.1,1.4,0.3,2.1,0.5
				c0.2,0.1,0.4,0.1,0.7,0.2c0,0,0,0,0,0c-0.3,0.1-0.5,0.2-0.8,0.3c-0.5,0.3-0.9,0.5-1.3,0.9c-0.9,0.8-1.9,1.4-3,1.8c0,0,0,0,0,0
				c0,0,0,0,0,0c0,0,0,0,0,0c1.1-0.2,2.1-0.7,2.9-1.5c0.4-0.3,0.9-0.6,1.4-0.9c0.4-0.2,0.9-0.4,1.3-0.6c0.4,0.1,0.7,0.3,1.1,0.4
				C359.4,369.1,360.7,369.8,361.7,370.8z"/>
			<path id="Trazado_122813" class="st7" d="M369.1,368.6c3.2-1.7,6.4-1.8,9.9-1.7c1.8,0.1,3.7,0.1,5.5,0.3c1.7,0.2,3.8,0.9,5.4,0.2
				c-0.6,1-2.8,0.8-3.8,0.8c-1.4,0-4.2-1.1-5.3,0.2c-0.8-0.3-1.6-0.6-2.4-0.7c-0.7-0.1-1.4,0-2.1,0.3c-0.2,0.1-0.4,0.3-0.6,0.4
				c-0.9,0.2-1.9-0.1-2.9,0.3s-1.2,0.8-0.9,1.6c-1.8-1-4-0.8-5.6,0.5C366.6,369.5,368,369.1,369.1,368.6z"/>
			<path id="Trazado_122814" class="st8" d="M389,367c-0.8,0.2-1.7,0.2-2.5,0.1c-0.8-0.1-1.5-0.2-2.3-0.3h0c0.5-0.1,1-0.3,1.5-0.5
				c0,0,0,0,0,0c-0.5,0.2-1,0.3-1.5,0.3c-0.2,0-0.5,0-0.7,0.1c-0.1,0-0.1,0-0.2,0c-1.4-0.2-2.8-0.3-4.2-0.4c0.3-0.1,0.5-0.2,0.8-0.3
				c0.8-0.3,1.6-0.5,2.4-0.7c0.1,0,0.1-0.1,0-0.1c-0.8,0.1-1.6,0.4-2.4,0.5c-0.4,0.1-0.8,0.2-1.2,0.3c-0.2,0.1-0.4,0.1-0.5,0.2
				c-1.5,0-3.1,0.1-4.6,0.4c0.1-0.1,0.3-0.2,0.5-0.3c0.5-0.3,1-0.6,1.5-0.9c0.5-0.3,1-0.5,1.5-0.7c0.5-0.2,1.1-0.4,1.6-0.6
				c0,0,0,0,0,0c-0.6,0.1-1.1,0.2-1.6,0.5c-0.5,0.2-1.1,0.4-1.6,0.7c-0.5,0.2-1,0.5-1.5,0.8c-0.2,0.2-0.5,0.3-0.7,0.5
				c-0.1,0.1-0.2,0.2-0.3,0.3c-1.2,0.3-2.3,0.7-3.4,1.2c0.1-0.2,0.2-0.3,0.3-0.5c0.2-0.3,0.5-0.7,0.8-0.9c0.7-0.6,1.5-1.1,2.2-1.7
				c0,0,0-0.1,0,0c-0.8,0.5-1.6,1.1-2.4,1.7c-0.3,0.3-0.6,0.6-0.9,0.9c-0.2,0.2-0.4,0.5-0.5,0.8c-1.3,0.7-2.4,1.6-3.4,2.7
				c0,0,0,0.1,0.1,0.1c1-1,2.2-1.8,3.5-2.4c0.2,0.2,0.5,0.4,0.8,0.6c0.3,0.2,0.6,0.4,0.9,0.6c0.6,0.4,1.2,0.7,1.9,1
				c1.3,0.4,2.6,0.6,3.9,0.5c0,0,0-0.1,0-0.1c-1.3,0-2.6-0.2-3.8-0.7c-0.6-0.3-1.2-0.7-1.8-1.1c-0.3-0.2-0.6-0.4-0.9-0.6
				c-0.2-0.1-0.4-0.3-0.6-0.4c1-0.4,2.1-0.8,3.2-1c0.4,0.3,0.7,0.5,1.2,0.7c0.4,0.2,0.8,0.4,1.3,0.6c0.8,0.4,1.7,0.7,2.7,1
				c1,0.2,1.9,0.2,2.9,0.2c1,0,2,0,3-0.2c0,0,0,0,0,0c-1,0.1-2,0.1-3,0.1c-1,0-1.9-0.1-2.9-0.4c-0.9-0.3-1.7-0.6-2.5-1.1
				c-0.4-0.2-0.8-0.4-1.2-0.7c-0.3-0.1-0.5-0.3-0.8-0.4l0.1,0c1.5-0.3,3.1-0.4,4.6-0.4c0.1,0,0.2,0.1,0.2,0.1
				c0.2,0.1,0.4,0.2,0.6,0.4c0.4,0.3,0.7,0.5,1.1,0.7c0.8,0.4,1.6,0.6,2.5,0.6c0,0,0,0,0,0c-0.9-0.1-1.8-0.4-2.6-0.9
				c-0.3-0.2-0.7-0.5-1-0.7l-0.2-0.1c1.6,0,3.1,0.1,4.7,0.2c0.3,0.2,0.5,0.3,0.8,0.5c0.3,0.2,0.7,0.4,1,0.5c0.6,0.4,1.3,0.6,2,0.7
				c0,0,0,0,0,0s0,0,0,0l0,0c-0.7-0.2-1.4-0.5-2-0.9c-0.3-0.2-0.6-0.4-0.9-0.6l-0.1,0c0.7,0.1,1.5,0.1,2.2,0.2
				c0.9,0.2,1.7,0.1,2.6-0.2C389.1,367.1,389.1,367,389,367z"/>
		</g>
	</g>
</g>
</svg>
