<svg xmlns="http://www.w3.org/2000/svg" xmlns:xlink="http://www.w3.org/1999/xlink" width="189.517" height="256.047" viewBox="0 0 189.517 256.047">
  <defs>
    <clipPath id="clip-path">
      <path id="Trazado_224385" data-name="Trazado 224385" d="M98.467,165.622c2.632,1.647,6.157.636,9.07,1.709,2.446.9,4.163,3.154,6.519,4.267,1.567.74,3.349.944,4.9,1.72,2.861,1.434,4.462,4.592,5.173,7.711s.724,6.366,1.424,9.487c.585,2.6,1.638,5.091,2.151,7.711,1.422,7.272-1.408,15.069.966,22.089a11.306,11.306,0,0,1-7.755-.454c-.918-.4-2.068-.9-2.824-.246a2.356,2.356,0,0,0-.608,1.189,65.88,65.88,0,0,0-2.4,14.427c-.159,2.952-.423,6.463-2.989,7.932a7.815,7.815,0,0,1-3.741.757c-3.36.078-6.729-.141-10.079.126-5.466.434-10.762,2.148-16.22,2.681a37.931,37.931,0,0,1-14.537-1.416c-1.97-9.048,4.975-18.02,3.95-27.223l-11.769.371a4.092,4.092,0,0,1-1.7-.187c-2-.83-1.463-3.778-2.208-5.812a5.918,5.918,0,0,1-.606-1.846c-.022-1.231,1.2-2.1,1.653-3.241.712-1.8-.581-3.785-.4-5.708.194-2.044,2.012-3.664,2.187-5.71a10.463,10.463,0,0,0-.419-2.915c-1.343-6.653,2.662-13.18,7.131-18.288a25.169,25.169,0,0,1,5.718-5.152c2.871-1.74,6.224-2.455,9.411-3.514s8.432-2.727,10.245-5.553Z" transform="translate(-55.18 -160.533)" fill="none"/>
    </clipPath>
    <clipPath id="clip-path-2">
      <path id="Trazado_224416" data-name="Trazado 224416" d="M72.465,354.44c.514,5.377-.515,12.92,0,18.3.033.345,20.254,2.5,28.917,0-6.271-2.814-11.168-10.265-12.325-18.752Z" transform="translate(-72.316 -353.984)" fill="#f59f18"/>
    </clipPath>
    <clipPath id="clip-path-3">
      <path id="Trazado_224424" data-name="Trazado 224424" d="M106.8,353.324c.514,5.376-.514,12.919,0,18.295.033.346,20.254,2.5,28.917,0-6.271-2.814-11.168-10.265-12.325-18.752Z" transform="translate(-106.655 -352.867)" fill="#f59f18"/>
    </clipPath>
  </defs>
  <g id="Grupo_176390" data-name="Grupo 176390" transform="translate(-48.639 -125.855)">
    <path id="Trazado_224363" data-name="Trazado 224363" d="M155.454,305.571a348.172,348.172,0,0,1,18.335,64.713,4.1,4.1,0,0,0,3.378,0c-5.214-22.223-10.463-45.175-8.913-67.949-.624.014-3.155-.472-3.779-.457.322,7.3,2.534,20.571,1.955,27.854-2.759-7.32-5.542-20.248-7.465-27.831Z" transform="translate(3.733 6.152)" fill="#b97216"/>
    <path id="Trazado_224364" data-name="Trazado 224364" d="M185.143,370.416a149.272,149.272,0,0,0,4.475-65.582,5.2,5.2,0,0,1,.046-2.741,1.752,1.752,0,0,1,2.21-1.1,229.532,229.532,0,0,1,2.659,34.205,122.607,122.607,0,0,0,6.65-36.88l2.077-.226c1.974,24.531-11.359,48.021-15.233,72.324-.81.051-1.629.725-1.993,0Z" transform="translate(4.771 6.02)" fill="#b97216"/>
    <path id="Trazado_224365" data-name="Trazado 224365" d="M166.973,331.628a40.355,40.355,0,0,0,5.284-14.544l1.295.848a64.426,64.426,0,0,1-4.387,16.381,2.5,2.5,0,0,1-.734-2.078Z" transform="translate(4.136 6.684)" fill="#b97216"/>
    <path id="Trazado_224366" data-name="Trazado 224366" d="M190.354,347.992a152,152,0,0,1-10.661-40.66c-.159-1.35.2-3.272,1.557-3.191,1.32,9.377,6.872,34.468,10.628,39.38Z" transform="translate(4.579 6.231)" fill="#b97216"/>
    <path id="Trazado_224367" data-name="Trazado 224367" d="M172.383,241.966a12.919,12.919,0,0,1,11.761-13.208,10.332,10.332,0,0,1,6.123,1.518c2.929,1.895,4.474,5.423,4.809,8.9s-.375,6.952-1.082,10.368a12.609,12.609,0,0,1,15.4,19.871c4.549-.791,8.884,3.641,8.982,8.258s-3.157,8.816-7.221,11.008-8.815,2.7-13.432,2.8a85.9,85.9,0,0,1-21.324-2.234c-2.526-.592-5.3-1.507-6.506-3.806a9.65,9.65,0,0,1-.693-4.761q.441-18.03.881-36.059Z" transform="translate(4.213 3.596)" fill="#8e8b5e"/>
    <path id="Trazado_224368" data-name="Trazado 224368" d="M98.467,165.622c2.632,1.647,6.157.636,9.07,1.709,2.446.9,4.163,3.154,6.519,4.267,1.567.74,3.349.944,4.9,1.72,2.861,1.434,4.462,4.592,5.173,7.711s.724,6.366,1.424,9.487c.585,2.6,1.638,5.091,2.151,7.711,1.422,7.272-1.408,15.069.966,22.089a11.306,11.306,0,0,1-7.755-.454c-.918-.4-2.068-.9-2.824-.246a2.356,2.356,0,0,0-.608,1.189,65.88,65.88,0,0,0-2.4,14.427c-.159,2.952-.423,6.463-2.989,7.932a7.815,7.815,0,0,1-3.741.757c-3.36.078-6.729-.141-10.079.126-5.466.434-10.762,2.148-16.22,2.681a37.931,37.931,0,0,1-14.537-1.416c-1.97-9.048,4.975-18.02,3.95-27.223l-11.769.371a4.092,4.092,0,0,1-1.7-.187c-2-.83-1.463-3.778-2.208-5.812a5.918,5.918,0,0,1-.606-1.846c-.022-1.231,1.2-2.1,1.653-3.241.712-1.8-.581-3.785-.4-5.708.194-2.044,2.012-3.664,2.187-5.71a10.463,10.463,0,0,0-.419-2.915c-1.343-6.653,2.662-13.18,7.131-18.288a25.169,25.169,0,0,1,5.718-5.152c2.871-1.74,6.224-2.455,9.411-3.514s8.432-2.727,10.245-5.553Z" transform="translate(0.229 1.212)" fill="#33637a"/>
    <path id="Trazado_224369" data-name="Trazado 224369" d="M90.084,143.756a2.594,2.594,0,0,0-2.015,2.37A5.229,5.229,0,0,0,89,149.289a2.964,2.964,0,0,1,.717,2.173c-.329,1.235-2.113,1.316-2.963,2.271a1.964,1.964,0,0,0,.922,3.045,1.255,1.255,0,0,1,.768-1.564,2.735,2.735,0,0,1,1.9.1,11.061,11.061,0,0,0,1.845.614,3.152,3.152,0,0,0,2.447-.655,8.612,8.612,0,0,0,1.734-2.5,3.479,3.479,0,0,1,2.269-1.895Z" transform="translate(1.318 0.626)"/>
    <path id="Trazado_224370" data-name="Trazado 224370" d="M73.47,343.418,75.544,362.4a38.917,38.917,0,0,1,12.176-.907,122.4,122.4,0,0,1-.815-20.364l-13.076.409Z" transform="translate(0.868 7.524)" fill="#fed5b7"/>
    <path id="Trazado_224371" data-name="Trazado 224371" d="M108.1,344.75l2.074,18.982a38.955,38.955,0,0,1,12.177-.907,122.276,122.276,0,0,1-.815-20.364l-13.077.41Z" transform="translate(2.078 7.571)" fill="#fed5b7"/>
    <g id="Grupo_176290" data-name="Grupo 176290" transform="translate(55.408 161.745)" opacity="0.28">
      <g id="Grupo_176289" data-name="Grupo 176289" clip-path="url(#clip-path)">
        <g id="Grupo_176276" data-name="Grupo 176276" transform="translate(22.169 -6.664)">
          <path id="Trazado_224372" data-name="Trazado 224372" d="M76.721,154.816c3.614,3.727,7.327,7.362,11.234,10.782A111.158,111.158,0,0,0,100.2,175a76.589,76.589,0,0,0,13.744,7.22,61.385,61.385,0,0,0,15.029,3.9,48.815,48.815,0,0,0,15.423-.466q.936-.185,1.862-.409c.527-.127.3-.941-.224-.812a47.059,47.059,0,0,1-15.227,1.041,59.085,59.085,0,0,1-14.958-3.427,73.063,73.063,0,0,1-13.729-6.815,104.6,104.6,0,0,1-12.312-9.142c-3.886-3.32-7.578-6.861-11.16-10.5q-.668-.68-1.331-1.363c-.378-.39-.974.206-.6.6Z" transform="translate(-76.6 -154.094)" fill="#fff"/>
        </g>
        <g id="Grupo_176277" data-name="Grupo 176277" transform="translate(18.358 1.215)">
          <path id="Trazado_224373" data-name="Trazado 224373" d="M73.027,162.44c3.218,3.692,6.571,7.267,10.116,10.646A111.794,111.794,0,0,0,94.3,182.464a84.017,84.017,0,0,0,12.62,7.677,70.342,70.342,0,0,0,13.971,5.131,58.3,58.3,0,0,0,14.7,1.756q.938-.012,1.874-.057c.54-.026.543-.868,0-.842a56.334,56.334,0,0,1-14.644-1.273,67.875,67.875,0,0,1-14-4.741,81.935,81.935,0,0,1-12.651-7.344,106.427,106.427,0,0,1-11.219-9.145c-3.559-3.3-6.926-6.813-10.149-10.446q-.591-.664-1.176-1.337c-.357-.409-.951.188-.6.6Z" transform="translate(-72.918 -161.707)" fill="#fff"/>
        </g>
        <g id="Grupo_176278" data-name="Grupo 176278" transform="translate(5.31 14.633)">
          <path id="Trazado_224374" data-name="Trazado 224374" d="M60.382,175.289a81.286,81.286,0,0,0,10.864,12.984,94.389,94.389,0,0,0,13.16,10.609,114.834,114.834,0,0,0,14.844,8.394,142.058,142.058,0,0,0,16,6.4,169.192,169.192,0,0,0,16.652,4.6q1.029.23,2.061.448c.529.112.756-.7.225-.812-5.573-1.179-11.094-2.609-16.523-4.331a143.858,143.858,0,0,1-16.063-6.131,117.962,117.962,0,0,1-14.922-8.077,95.494,95.494,0,0,1-13.288-10.221A81.2,81.2,0,0,1,62.3,176.594q-.609-.857-1.193-1.73c-.3-.448-1.031-.027-.728.425Z" transform="translate(-60.31 -174.672)" fill="#fff"/>
        </g>
        <g id="Grupo_176279" data-name="Grupo 176279" transform="translate(-2.279 30.28)">
          <path id="Trazado_224375" data-name="Trazado 224375" d="M53.105,190.507A121.725,121.725,0,0,0,65.4,200.955a123.743,123.743,0,0,0,13.567,8.755,125.764,125.764,0,0,0,14.578,6.926,124.172,124.172,0,0,0,15.3,4.982,121.974,121.974,0,0,0,15.867,2.947q.989.116,1.979.216c.538.055.535-.789,0-.842a120.372,120.372,0,0,1-15.808-2.685,124.244,124.244,0,0,1-43.4-19.818,120.326,120.326,0,0,1-12.342-10.148q-.725-.683-1.439-1.375c-.389-.379-.985.216-.6.6Z" transform="translate(-52.978 -189.791)" fill="#fff"/>
        </g>
        <g id="Grupo_176280" data-name="Grupo 176280" transform="translate(-1.133 49.01)">
          <path id="Trazado_224376" data-name="Trazado 224376" d="M54.207,208.609A141.058,141.058,0,0,0,65.748,219.2,108.37,108.37,0,0,0,78.5,228.205a86.2,86.2,0,0,0,14.274,6.906,73.653,73.653,0,0,0,15.783,3.976,62.193,62.193,0,0,0,16.206.111q.989-.127,1.974-.286c.533-.086.307-.9-.225-.812a60.646,60.646,0,0,1-16.024.377,71.542,71.542,0,0,1-15.712-3.543,83.128,83.128,0,0,1-14.35-6.575,104.093,104.093,0,0,1-12.765-8.7,135.671,135.671,0,0,1-11.492-10.272q-.686-.681-1.362-1.372c-.38-.388-.976.208-.6.6Z" transform="translate(-54.085 -207.888)" fill="#fff"/>
        </g>
        <g id="Grupo_176281" data-name="Grupo 176281" transform="translate(5.093 65.37)">
          <path id="Trazado_224377" data-name="Trazado 224377" d="M60.2,224.438a46.42,46.42,0,0,0,16.38,12.943,70.232,70.232,0,0,0,22.316,6.246,125.9,125.9,0,0,0,13.779.861.421.421,0,0,0,0-.842,101.623,101.623,0,0,1-24.206-2.815,56.365,56.365,0,0,1-19.331-8.913,42.336,42.336,0,0,1-8.342-8.076c-.332-.427-.925.173-.6.6Z" transform="translate(-60.101 -223.695)" fill="#fff"/>
        </g>
        <g id="Grupo_176282" data-name="Grupo 176282" transform="translate(-16.133 -1.713)">
          <path id="Trazado_224378" data-name="Trazado 224378" d="M97.256,159.092a100.855,100.855,0,0,1-8.684,14.157c-3.269,4.512-6.828,8.807-10.494,13-3.79,4.334-7.692,8.57-11.569,12.826l-12.6,13.832q-6.323,6.942-12.647,13.884l-1.557,1.71c-.364.4.23,1,.6.6L53,215.162l12.646-13.885c3.944-4.329,7.914-8.638,11.794-13.025,3.685-4.167,7.277-8.422,10.611-12.877a106.372,106.372,0,0,0,9-14.032q.478-.907.936-1.826c.24-.484-.486-.912-.728-.425Z" transform="translate(-39.592 -158.878)" fill="#fff"/>
        </g>
        <g id="Grupo_176283" data-name="Grupo 176283" transform="translate(-8.826 0.923)">
          <path id="Trazado_224379" data-name="Trazado 224379" d="M100.075,161.645q-3.411,7.877-7.583,15.393t-9.053,14.576q-4.879,7.068-10.43,13.637T61.309,217.8q-6.151,5.986-12.87,11.349-.817.65-1.64,1.292c-.427.332.173.925.6.6q6.795-5.291,13.047-11.234t11.881-12.46q5.61-6.491,10.58-13.5,4.982-7.026,9.263-14.513t7.8-15.35q.425-.953.84-1.912c.213-.493-.513-.922-.728-.425Z" transform="translate(-46.652 -161.425)" fill="#fff"/>
        </g>
        <g id="Grupo_176284" data-name="Grupo 176284" transform="translate(-10.166 3.719)">
          <path id="Trazado_224380" data-name="Trazado 224380" d="M116.405,164.339a186.676,186.676,0,0,1-11,18.585c-4.029,6.011-8.372,11.808-12.936,17.422s-9.343,11.045-14.261,16.347c-4.955,5.341-10.051,10.55-15.219,15.686-5.146,5.115-10.365,10.157-15.594,15.187l-1.915,1.841c-.392.377.2.972.6.6,5.264-5.06,10.523-10.124,15.719-15.254,5.166-5.1,10.27-10.273,15.242-15.567,4.987-5.31,9.843-10.747,14.487-16.362,4.582-5.538,8.96-11.249,13.04-17.167A190.7,190.7,0,0,0,115.9,167.116q.624-1.171,1.23-2.351c.248-.481-.479-.909-.727-.425Z" transform="translate(-45.357 -164.127)" fill="#fff"/>
        </g>
        <g id="Grupo_176285" data-name="Grupo 176285" transform="translate(12.378 15.18)">
          <path id="Trazado_224381" data-name="Trazado 224381" d="M126.061,175.479a162.128,162.128,0,0,1-8.7,17.61c-3.233,5.682-6.772,11.187-10.526,16.536-3.782,5.388-7.781,10.619-11.922,15.734s-8.442,10.144-12.8,15.094-8.791,9.828-13.233,14.7l-1.625,1.781c-.365.4.229,1,.6.6,4.474-4.9,8.944-9.807,13.348-14.772s8.726-9.969,12.923-15.093c4.174-5.094,8.218-10.3,12.054-15.653s7.463-10.86,10.79-16.545a166.071,166.071,0,0,0,8.977-17.579q.473-1.09.931-2.186c.209-.5-.606-.717-.812-.224Z" transform="translate(-67.139 -175.201)" fill="#fff"/>
        </g>
        <g id="Grupo_176286" data-name="Grupo 176286" transform="translate(31.061 25.926)">
          <path id="Trazado_224382" data-name="Trazado 224382" d="M126.626,185.8c-2.238,4.273-4.478,8.546-6.776,12.787s-4.659,8.467-7.126,12.622c-2.446,4.121-5,8.181-7.708,12.136s-5.57,7.8-8.633,11.486a121.237,121.237,0,0,1-9.743,10.449q-.654.619-1.316,1.23c-.4.367.2.963.6.6a118.586,118.586,0,0,0,9.944-10.353c3.116-3.652,6.034-7.473,8.788-11.4s5.359-7.991,7.842-12.109c2.5-4.154,4.893-8.377,7.219-12.634,2.314-4.236,4.564-8.506,6.8-12.782l.837-1.6c.251-.48-.476-.907-.728-.425Z" transform="translate(-85.192 -185.584)" fill="#fff"/>
        </g>
        <g id="Grupo_176287" data-name="Grupo 176287" transform="translate(31.844 43.539)">
          <path id="Trazado_224383" data-name="Trazado 224383" d="M133.327,202.8q-3.862,5.94-8.028,11.671t-8.639,11.248q-4.48,5.527-9.245,10.814-4.743,5.261-9.753,10.273t-10.275,9.75q-.65.584-1.3,1.164c-.406.361.192.956.6.6q5.317-4.727,10.383-9.728t9.858-10.258q4.8-5.257,9.31-10.759t8.727-11.215q4.221-5.727,8.14-11.669.481-.73.957-1.462c.3-.455-.433-.879-.728-.425Z" transform="translate(-85.948 -202.601)" fill="#fff"/>
        </g>
        <g id="Grupo_176288" data-name="Grupo 176288" transform="translate(-10.683 0.624)">
          <path id="Trazado_224384" data-name="Trazado 224384" d="M85.726,161.282q-7.186,9.152-14.988,17.8T54.562,195.8q-4.7,4.535-9.569,8.884c-.4.362.193.956.6.6q8.678-7.753,16.81-16.086t15.664-17.2q4.227-4.976,8.26-10.112c.331-.422-.261-1.023-.6-.6Z" transform="translate(-44.858 -161.136)" fill="#fff"/>
        </g>
      </g>
    </g>
    <path id="Trazado_224386" data-name="Trazado 224386" d="M124.524,327.335a2.211,2.211,0,0,0,.477-.512,4.421,4.421,0,0,0,.546-1.781q.283-1.8.564-3.608a7.962,7.962,0,0,0,0-3.663c-.4-1.254-1.418-2.263-1.706-3.549-.406-1.808.721-3.659.5-5.5-.245-2.009-.876-8.979-2-10.667-1.544-15.912-4.217-26.336-5.762-42.248-.747-7.7-1.5-15.428-.981-23.14l-47.747,6.159a150.083,150.083,0,0,0-5.533,39.908c.053,3.8.277,7.587.5,11.377.455,7.672-1.186,6.2-.864,12.278-1.461,1.9-.735,12.138.189,14.255.415.951,1.231,1.694,1.583,2.669,1.077,2.984-2.612,6.05-1.775,9.11.471,1.723,2.223,2.765,3.171,4.266.269,4.987.568,10.333.929,16.432.037.626,18.25,2.474,25.08-.293a61.17,61.17,0,0,1-.212-8.9c.042-1.693.091-3.31.145-4.864a3.409,3.409,0,0,0,1.621-3.453,8.749,8.749,0,0,0-1.382-2.436q.082-1.759.172-3.43c.169-.235.345-.467.5-.7a6.329,6.329,0,0,0,.5-5.965c-.154-.348.6-9.715.4-10.038.551-8.655.207-7.736.5-19.488,2.212,6.422,2.891,8.473,3.834,15.155.027.191-.894,2.987-.867,3.178-.659.748-.3,3.731-.445,4.729-.384,2.665,1.812,5.17,1.535,7.848-.147,1.414-.979,2.807-.592,4.174a2.981,2.981,0,0,0,2.44,2c.919,7.67,1.771,14.42,3.279,21.551.127.6,25.492.291,25.386-.23C126.858,339.83,125.673,334.7,124.524,327.335Z" transform="translate(0.456 3.733)" fill="#6da8c6"/>
    <g id="Grupo_176291" data-name="Grupo 176291" transform="translate(113.707 206.454)">
      <path id="Trazado_224387" data-name="Trazado 224387" d="M111.69,204.54a10.811,10.811,0,0,0,5.065,1.68,46.444,46.444,0,0,0,6.193.442.421.421,0,0,0,0-.842,45,45,0,0,1-5.97-.412,10.345,10.345,0,0,1-4.863-1.595c-.436-.323-.857.408-.425.728Z" transform="translate(-111.509 -203.732)"/>
    </g>
    <g id="Grupo_176292" data-name="Grupo 176292" transform="translate(90.607 167.049)">
      <path id="Trazado_224388" data-name="Trazado 224388" d="M89.844,166.39a11.834,11.834,0,0,0,6.086,3.426,21.258,21.258,0,0,0,3.534.549,7.332,7.332,0,0,0,3.972-.636,14.344,14.344,0,0,0,3.316-2.585l-.7-.186a15.623,15.623,0,0,1-1.565,13.154,14.73,14.73,0,0,1-2.109,2.677,10.406,10.406,0,0,1-1.289,1.145c-.143.1-.227.167-.381.066a2.252,2.252,0,0,1-.34-.354l-.856-.91L93.1,175.912a15.778,15.778,0,0,1-1.539-1.766A5.491,5.491,0,0,1,90.7,172c-.327-1.719-.454-3.492-.665-5.228-.064-.531-.908-.537-.842,0,.2,1.672.367,3.355.622,5.021a7.087,7.087,0,0,0,.62,2.116,7.9,7.9,0,0,0,1.245,1.717c2.233,2.477,4.569,4.868,6.852,7.3l.856.91a8.182,8.182,0,0,0,.8.826c.644.511,1.244.078,1.773-.361a15.162,15.162,0,0,0,2.514-2.681,16.615,16.615,0,0,0,2.914-6.71,15.908,15.908,0,0,0-.532-8.178.427.427,0,0,0-.7-.186,15.5,15.5,0,0,1-2.7,2.21,6.076,6.076,0,0,1-3.586.792,16.675,16.675,0,0,1-6.483-1.536,9.641,9.641,0,0,1-2.944-2.218c-.361-.406-.955.191-.6.6Z" transform="translate(-89.19 -165.658)"/>
    </g>
    <path id="Trazado_224389" data-name="Trazado 224389" d="M81.545,166.011a58.029,58.029,0,0,1,5.47,19.627c.04.431.126.937.515,1.124a1.257,1.257,0,0,0,.586.078l2.529-.068c-.586-7.574-3.231-14.816-5.852-21.946Z" transform="translate(1.15 1.362)" fill="#c2b38c"/>
    <path id="Trazado_224390" data-name="Trazado 224390" d="M110.508,172a94.052,94.052,0,0,1-.369,16.195l1.911.258a.929.929,0,0,0,.545-.036,1.04,1.04,0,0,0,.419-.714,45.225,45.225,0,0,0,1.369-14.287,1.273,1.273,0,0,0-.166-.66,1.165,1.165,0,0,0-.538-.362l-2.48-1.051a.688.688,0,0,0-.454-.08c-.15.046-.262.254-.164.383Z" transform="translate(2.149 1.587)" fill="#c2b38c"/>
    <path id="Trazado_224391" data-name="Trazado 224391" d="M86.891,185.16l26.233,1.965a3.277,3.277,0,0,1,1.578.392,3.178,3.178,0,0,1,.985,1.314,53.074,53.074,0,0,1,4.05,35.742c-.83,3.447-2.013,6.831-2.366,10.359-.421,4.206.354,8.429,1.056,12.6,2.233,13.285,3.739,26.681,5.243,40.068a4.909,4.909,0,0,1-.16,2.528,4.492,4.492,0,0,1-1.158,1.43c-6.386,5.845-15.234,8.408-23.884,8.756s-17.239-1.327-25.735-2.992c-2.788-8.74-5.03-17.731-5.436-26.9-.846-19.107,6.3-37.818,6.139-56.944a5.862,5.862,0,0,1,.357-2.6,6.5,6.5,0,0,1,2.077-2.105l.11-.085a27.668,27.668,0,0,0,10.608-19.686Z" transform="translate(0.65 2.073)" fill="#c2b38c"/>
    <path id="Trazado_224392" data-name="Trazado 224392" d="M74.226,230.431a2.582,2.582,0,0,1-1.849,1.193,17.757,17.757,0,0,1-5.294.546l-.307,1.348a.476.476,0,0,0,.018.371.471.471,0,0,0,.34.153,43.523,43.523,0,0,0,5.465.466.638.638,0,0,0,.4-.081.648.648,0,0,0,.187-.495q.124-1.573.247-3.145Z" transform="translate(0.633 3.655)" fill="#c2b38c"/>
    <path id="Trazado_224393" data-name="Trazado 224393" d="M67.061,233c-3.468,3.348-8.7,4.936-11.026,9.16-.688,1.252-.942,3.07.214,3.91a2.4,2.4,0,0,0,2.407.078,6.4,6.4,0,0,0,1.915-1.625,44.567,44.567,0,0,0,7.3-11.271,60.306,60.306,0,0,1-4.594,6.061c-1.289,1.494-2.8,3.009-4.746,3.323a.818.818,0,0,1-.8-.184.832.832,0,0,1,.007-.793c1.686-4.329,7.784-5.316,10.013-9.393-5.814,1.007-12.251-.432-17.355,2.529a3.9,3.9,0,0,0-1.491,1.333,1.721,1.721,0,0,0,.041,1.9,2.23,2.23,0,0,0,1.3.664c2.268.49,4.609-.148,6.84-.781,3.738-1.061,7.64-2.214,10.43-4.917-2.643.588-5.122,1.743-7.7,2.567a13.622,13.622,0,0,1-7.983.534c1.676-1.983,4.438-2.658,7.028-2.821s5.237.065,7.748-.6Z" transform="translate(0 3.719)" fill="#c2b38c"/>
    <g id="Grupo_176293" data-name="Grupo 176293" transform="translate(70.457 174.654)">
      <path id="Trazado_224394" data-name="Trazado 224394" d="M69.832,173.737c3.1,3.459,6.6,7.449,6.706,12.352.11,4.854-2.944,9.193-2.7,14.068.076,1.5.668,2.962.574,4.469a9.231,9.231,0,0,1-1.653,4.035.422.422,0,0,0,.729.425,12.058,12.058,0,0,0,1.641-3.562,10.51,10.51,0,0,0-.31-4.163,15.848,15.848,0,0,1,.914-7.349,29.05,29.05,0,0,0,1.639-7.233,13.341,13.341,0,0,0-1.846-6.964,38.059,38.059,0,0,0-5.1-6.674c-.362-.4-.956.193-.6.6Z" transform="translate(-69.72 -173.006)" fill="#173b49"/>
    </g>
    <g id="Grupo_176294" data-name="Grupo 176294" transform="translate(71.505 169.819)">
      <path id="Trazado_224395" data-name="Trazado 224395" d="M71.341,173.633a27.784,27.784,0,0,1,9.495-4.471.422.422,0,0,0-.224-.812,28.391,28.391,0,0,0-9.7,4.556c-.434.316-.013,1.047.425.728Z" transform="translate(-70.733 -168.335)" fill="#173b49"/>
    </g>
    <g id="Grupo_176295" data-name="Grupo 176295" transform="translate(60.44 196.857)">
      <path id="Trazado_224396" data-name="Trazado 224396" d="M60.561,195.7a9.89,9.89,0,0,1,7.682.891.422.422,0,0,0,.425-.728,10.751,10.751,0,0,0-8.331-.976.422.422,0,0,0,.224.812Z" transform="translate(-60.041 -194.46)" fill="#173b49"/>
    </g>
    <g id="Grupo_176296" data-name="Grupo 176296" transform="translate(61.858 198.801)">
      <path id="Trazado_224397" data-name="Trazado 224397" d="M61.819,197.18a19.4,19.4,0,0,1,6.224,1.064c.513.177.735-.636.224-.812a20.108,20.108,0,0,0-6.448-1.094.421.421,0,0,0,0,.842Z" transform="translate(-61.412 -196.338)" fill="#173b49"/>
    </g>
    <g id="Grupo_176297" data-name="Grupo 176297" transform="translate(60.201 205.035)">
      <path id="Trazado_224398" data-name="Trazado 224398" d="M60.436,204.787a10.925,10.925,0,0,1,6.13-1.573c.542.024.541-.819,0-.842a11.733,11.733,0,0,0-6.555,1.688c-.463.282-.039,1.01.425.728Z" transform="translate(-59.811 -202.361)" fill="#173b49"/>
    </g>
    <g id="Grupo_176298" data-name="Grupo 176298" transform="translate(61.14 208.532)">
      <path id="Trazado_224399" data-name="Trazado 224399" d="M61.357,207.979a13.3,13.3,0,0,1,5.412-1.4c.54-.022.543-.864,0-.842a14.288,14.288,0,0,0-5.836,1.511c-.485.243-.059.971.424.728Z" transform="translate(-60.718 -205.74)" fill="#173b49"/>
    </g>
    <path id="Trazado_224400" data-name="Trazado 224400" d="M177.317,308.972a42.972,42.972,0,0,0,35.607-7.367,14.457,14.457,0,0,1,4.208-2.595,37.8,37.8,0,0,1,4.058-.633c4.621-.906,8.056-6.037,6.83-10.583s-7.136-7.226-11.227-4.892c3.194-1.693,6.484-3.465,8.725-6.3s3.155-7.053,1.183-10.084a9.952,9.952,0,0,0-3.827-3.195,20.8,20.8,0,0,0-19.276.128c4.059-3.943,7.34-9.151,7.308-14.81s-4.343-11.473-10-11.657a14.441,14.441,0,0,0-7.315,2.2,36.256,36.256,0,0,0-14.72,15.373,17.355,17.355,0,0,0-24.986-22.757,17.692,17.692,0,0,0-6.1,20.642c-2.063-2.046-4.21-4.148-6.927-5.175s-6.179-.682-7.989,1.59a8.542,8.542,0,0,0-1.532,4.282,23.673,23.673,0,0,0,6.988,19.839c-3.9-2.056-9.087,1.445-9.648,5.817s2.492,8.6,6.394,10.652c-3.391,1.268-3.365,6.635-.605,8.978s6.814,2.314,10.361,1.592c-3.4-.569-4.978,4.887-2.641,7.425s6.214,2.716,9.663,2.715h16.4Z" transform="translate(2.795 3.6)" fill="#c1bf8e"/>
    <path id="Trazado_224401" data-name="Trazado 224401" d="M174.458,311.811a31.283,31.283,0,0,1-10.582-3.419,59.268,59.268,0,0,1-18.31-15.338c-2.355-2.979-4.483-6.355-4.833-10.135s1.576-8,5.18-9.19c2.771-.918,5.843.1,8.3,1.679s4.52,3.7,6.94,5.332a31.445,31.445,0,0,1-6.5-18.657c-.048-3.726,1.033-8.076,4.468-9.52a7.384,7.384,0,0,1,7.024,1.207,18.479,18.479,0,0,1,4.677,5.736,80.513,80.513,0,0,1,8.163,19.09,24.528,24.528,0,0,1,4.435-10.9c2.412-3.309,7-6.121,10.4-3.842,2.537,1.7,2.874,5.292,2.491,8.321a30.234,30.234,0,0,1-5.433,13.8c2.465-2.229,5.1-4.46,8.3-5.359s7.121-.085,8.883,2.733c1.748,2.8.849,6.518-.776,9.39a21.626,21.626,0,0,1-8.065,8.092,5.631,5.631,0,0,1,8.087,7.681,10.24,10.24,0,0,1-4.864,3.2c-4.783,1.846-11.046,1.4-16.467,1.356a41.113,41.113,0,0,1-5.229-.387Z" transform="translate(3.217 4.413)" fill="#e0dcb1"/>
    <path id="Trazado_224402" data-name="Trazado 224402" d="M112.717,211.116a4.462,4.462,0,0,1-2.282,2.861,13.6,13.6,0,0,0-3.088,2.149,8.979,8.979,0,0,0-1.708,4.351q-1.771,8.871-3.544,17.74c-.286,1.43-.551,3.007.172,4.274a3.134,3.134,0,0,0,2.291,1.488,3.292,3.292,0,0,1,2.156,1.213,3.022,3.022,0,0,0,1.936,1.1,5.149,5.149,0,0,0,2.277-.287,3.364,3.364,0,0,1,2.785.313,4.641,4.641,0,0,0,3.8.783c.635-.208,1.189-.627,1.833-.8a7.726,7.726,0,0,0,1.256-.3c.931-.429,1.2-1.605,1.346-2.62.982-6.638,2.225-10.925,3.207-17.562.342-2.31.336-7.291-1.177-9.069-.571-.672-1.344-1.144-1.936-1.8a4.583,4.583,0,0,1-1.169-3.032Z" transform="translate(1.858 2.98)" fill="#f59f18"/>
    <g id="Grupo_176299" data-name="Grupo 176299" transform="translate(106.235 201.372)">
      <path id="Trazado_224403" data-name="Trazado 224403" d="M132.306,208.824a1.57,1.57,0,0,0-1.917.116c-.8-.221-3.739-.907-4.626-1.318a1.72,1.72,0,0,1-.66-.442,2.96,2.96,0,0,1-.351-1.073,3.565,3.565,0,0,0-2.56-2.071,6.006,6.006,0,0,0-1.561-4.239,4.614,4.614,0,0,0-4.912-.5,9.546,9.546,0,0,0-3.617,3.244,11.053,11.053,0,0,1-1.513.555,5.821,5.821,0,0,1-3.532-.782l3.029.672-3.021-.991c-.8-.264-1.8-.488-2.406.1a1.56,1.56,0,0,0-.131,1.844,3.827,3.827,0,0,0,1.472,1.3,15.725,15.725,0,0,0,4.467,1.767q-.088,1.908-.176,3.816a1.46,1.46,0,0,0,.1.771,1.392,1.392,0,0,0,.551.485,15.058,15.058,0,0,0,10.605,1.773.924.924,0,0,0,.5-.218.959.959,0,0,0,.2-.467l.689-3.091,4.457.564a21.508,21.508,0,0,0,2.587.47,1.366,1.366,0,0,0,1.569,1.173,1.725,1.725,0,0,0,.761-.491A2.1,2.1,0,0,0,132.306,208.824Zm-16.7-6.347c-.316-.056-.635-.108-.957-.146a3.946,3.946,0,0,1,1.763-1.982,3.256,3.256,0,0,1,3.807.567,4.75,4.75,0,0,1,1.014,2.839Q118.455,202.983,115.609,202.476Z" transform="translate(-104.29 -198.822)" fill="#e2d5b7"/>
    </g>
    <path id="Trazado_224404" data-name="Trazado 224404" d="M86.184,206.85c-3.97.966-8.015,1.937-12.076,1.607-1.4-.114-2.784-.381-4.184-.358-3.592.059-6.885,2-10,3.883-1.065.644-2.237,1.438-2.476,2.709a4.808,4.808,0,0,0,.172,1.943q.6,2.641,1.206,5.282a8.349,8.349,0,0,0,.914,2.616,2.554,2.554,0,0,0,2.2,1.323,5.673,5.673,0,0,0,1.46-.461,14.04,14.04,0,0,1,4.04-.462c7.6-.413,14.159-5.525,21.371-8.088a.648.648,0,0,0,.387-.258.719.719,0,0,0,.019-.474q-.84-4.441-1.679-8.882Z" transform="translate(0.306 2.831)" fill="#fed5b7"/>
    <path id="Trazado_224405" data-name="Trazado 224405" d="M88.8,204.852c2.032-.47,3.161.564,5.192.093,2.425-.561,5-1.206,6.7-3.024a12.475,12.475,0,0,1,1.713-1.826,6.3,6.3,0,0,1,2.733-.869c1.223-.189,2.6-.343,3.582.415.724.56,1.1,1.542,1.944,1.909.691.3,1.8.384,1.747,1.136-.031.431-.494.681-.907.806a6.258,6.258,0,0,1-5.273-.821,1.747,1.747,0,0,0,.351,1.97,5.123,5.123,0,0,0,1.8,1.122l2.408,1.065a3.151,3.151,0,0,1,1.585,1.154c.327.581.1,1.5-.558,1.607a2.339,2.339,0,0,1,.2,4.128,1.971,1.971,0,0,1-1.062,2.412,1.688,1.688,0,0,0-.771.409c-.2.262-.145.631-.2.957a1.83,1.83,0,0,1-1.423,1.34,5.377,5.377,0,0,1-2.056-.034,21.987,21.987,0,0,1-7.73-2.122c-.856-.483-1.932,1.2-2.915,1.156-1.475-.06-2.751,1.2-4.228,1.183a8.819,8.819,0,0,1-1.571-.285,5.885,5.885,0,0,0-4.061.681c-1.471-1.71-.951-6.541-1.217-8.78a11.908,11.908,0,0,0-1.348-4.253L86.044,206Z" transform="translate(1.216 2.559)" fill="#6da8c6"/>
    <path id="Trazado_224406" data-name="Trazado 224406" d="M103.887,168.128c.207,3.274,1.083,5.949-.038,9.033-.837,2.3-2.4,4.433-2.4,6.881l4.908-6.909a1.374,1.374,0,0,1,.417-.435c.521-.292,1.148.169,1.745.157a1.664,1.664,0,0,0,1.362-1.1c.246-.564.317-1.19.523-1.772a.652.652,0,0,1,.268-.386c.309-.165.645.178.791.5a3.819,3.819,0,0,1,.071,2.989,4.572,4.572,0,0,0,.344-5.489c-.791-1.142-2.073-1.855-2.938-2.941-1.249-1.57-1.717-3.968-3.593-4.68Z" transform="translate(1.846 1.332)" fill="#33637a"/>
    <path id="Trazado_224407" data-name="Trazado 224407" d="M121.648,140.64c-2.425,6.232-5.428,23.446-7.143,24.249-1.777.832-6.605-.7-8.381-1.532l-2.346,8.444a1.761,1.761,0,0,1-.327.726,1.6,1.6,0,0,1-.663.39c-2.584.944-4.15.688-6.614-.536a24.566,24.566,0,0,1-6.442-5.1c1.946-5.264,4.134-14.417,4.134-14.417a3.459,3.459,0,0,1-3.991-3,6.1,6.1,0,0,1,1.363-4.415,3.114,3.114,0,0,1,1.478-1.079c.6-.171,2.46-.024,2.83.473q1.66-4.886,3.709-9.628Z" transform="translate(1.436 0.327)" fill="#fed5b7"/>
    <path id="Trazado_224408" data-name="Trazado 224408" d="M92.061,159.668c-1.156,4.333,1.669,11.1,2.657,13.6a10.129,10.129,0,0,0,.987,2.157,12.686,12.686,0,0,0,2.885,2.412,10.031,10.031,0,0,1,3.81,8,8.1,8.1,0,0,0-4.144-5.562,13.288,13.288,0,0,1-3.357-1.823c-1.039-1.012-1.367-2.521-1.816-3.9a2.633,2.633,0,0,0-1.049-1.593,2.12,2.12,0,0,0-1.521-.1c-2.175.54-3.948,2.808-6.148,2.379a54.833,54.833,0,0,0,1.9-7.944,24.729,24.729,0,0,1,1.2-5.432,8.4,8.4,0,0,1,.779-1.478c1.094-1.641,2.525-2.8,4.39-2.162Z" transform="translate(1.249 1.125)" fill="#33637a"/>
    <g id="Grupo_176306" data-name="Grupo 176306" transform="translate(73.144 361.957)">
      <path id="Trazado_224409" data-name="Trazado 224409" d="M72.465,354.44c.514,5.377-.515,12.92,0,18.3.033.345,20.254,2.5,28.917,0-6.271-2.814-11.168-10.265-12.325-18.752Z" transform="translate(-72.316 -353.984)" fill="#f59f18"/>
      <g id="Grupo_176305" data-name="Grupo 176305" clip-path="url(#clip-path-2)">
        <g id="Grupo_176300" data-name="Grupo 176300" transform="translate(-1.623 16.406)">
          <path id="Trazado_224410" data-name="Trazado 224410" d="M71.153,370.679c8.325.52,16.609,2.129,24.975,1.745a43.86,43.86,0,0,0,6.9-.847c.53-.111.305-.923-.225-.812-8.13,1.688-16.467.562-24.624-.3-2.339-.248-4.682-.478-7.03-.624-.541-.034-.539.808,0,.842Z" transform="translate(-70.747 -369.836)" fill="#fff"/>
        </g>
        <g id="Grupo_176301" data-name="Grupo 176301" transform="translate(19.763 14.645)">
          <path id="Trazado_224411" data-name="Trazado 224411" d="M97.535,368.146c-2.315.522-5.048,1.266-6.075,3.67a.435.435,0,0,0,.151.576.423.423,0,0,0,.575-.151c.941-2.2,3.46-2.807,5.573-3.283.529-.119.3-.931-.225-.812Z" transform="translate(-91.411 -368.134)" fill="#fff"/>
        </g>
        <g id="Grupo_176302" data-name="Grupo 176302" transform="translate(-1.752 11.419)">
          <path id="Trazado_224412" data-name="Trazado 224412" d="M71.027,365.863a8.051,8.051,0,0,1,6.516,4.878c.2.5,1.016.279.812-.224a8.932,8.932,0,0,0-7.328-5.5c-.539-.054-.535.789,0,.842Z" transform="translate(-70.624 -365.018)" fill="#fff"/>
        </g>
        <g id="Grupo_176303" data-name="Grupo 176303" transform="translate(15.999 9.675)">
          <path id="Trazado_224413" data-name="Trazado 224413" d="M92.795,363.4a15.9,15.9,0,0,0-4.953,4.961c-.29.461.44.884.728.425a14.934,14.934,0,0,1,4.651-4.658c.457-.289.035-1.018-.425-.728Z" transform="translate(-87.774 -363.332)" fill="#fff"/>
        </g>
        <g id="Grupo_176304" data-name="Grupo 176304" transform="translate(13.688 8.635)">
          <path id="Trazado_224414" data-name="Trazado 224414" d="M92.081,362.351a11.591,11.591,0,0,0-6.482,5.334c-.265.474.463.9.728.425a10.712,10.712,0,0,1,5.979-4.947c.513-.169.293-.982-.225-.812Z" transform="translate(-85.542 -362.328)" fill="#fff"/>
        </g>
        <path id="Trazado_224415" data-name="Trazado 224415" d="M75.987,359.511a2.48,2.48,0,0,0,1.521,3.013,2.424,2.424,0,0,0,2.967-1.571,2.37,2.37,0,0,0-1.731-2.855,2.318,2.318,0,0,0-2.66,1.988Z" transform="translate(-72.192 -353.842)" fill="#fff"/>
      </g>
    </g>
    <g id="Grupo_176313" data-name="Grupo 176313" transform="translate(108.682 360.801)">
      <path id="Trazado_224417" data-name="Trazado 224417" d="M106.8,353.324c.514,5.376-.514,12.919,0,18.295.033.346,20.254,2.5,28.917,0-6.271-2.814-11.168-10.265-12.325-18.752Z" transform="translate(-106.655 -352.867)" fill="#f59f18"/>
      <g id="Grupo_176312" data-name="Grupo 176312" clip-path="url(#clip-path-3)">
        <g id="Grupo_176307" data-name="Grupo 176307" transform="translate(-1.624 16.406)">
          <path id="Trazado_224418" data-name="Trazado 224418" d="M105.491,369.562c8.325.52,16.609,2.129,24.976,1.745a43.866,43.866,0,0,0,6.9-.847c.531-.111.306-.922-.225-.812-8.13,1.689-16.467.562-24.624-.3-2.339-.248-4.681-.478-7.03-.624-.541-.034-.539.809,0,.842Z" transform="translate(-105.085 -368.719)" fill="#fff"/>
        </g>
        <g id="Grupo_176308" data-name="Grupo 176308" transform="translate(19.762 14.645)">
          <path id="Trazado_224419" data-name="Trazado 224419" d="M131.873,367.029c-2.315.522-5.048,1.266-6.075,3.671a.436.436,0,0,0,.151.576.424.424,0,0,0,.576-.151c.941-2.2,3.459-2.808,5.572-3.283.529-.12.3-.932-.225-.813Z" transform="translate(-125.749 -367.018)" fill="#fff"/>
        </g>
        <g id="Grupo_176309" data-name="Grupo 176309" transform="translate(-1.752 11.42)">
          <path id="Trazado_224420" data-name="Trazado 224420" d="M105.365,364.746a8.047,8.047,0,0,1,6.516,4.878c.2.5,1.016.279.812-.225a8.931,8.931,0,0,0-7.328-5.5c-.539-.055-.535.789,0,.842Z" transform="translate(-104.962 -363.901)" fill="#fff"/>
        </g>
        <g id="Grupo_176310" data-name="Grupo 176310" transform="translate(15.999 9.675)">
          <path id="Trazado_224421" data-name="Trazado 224421" d="M127.133,362.282a15.906,15.906,0,0,0-4.953,4.962c-.289.46.44.883.729.425a14.935,14.935,0,0,1,4.65-4.659c.457-.289.035-1.018-.425-.728Z" transform="translate(-122.113 -362.215)" fill="#fff"/>
        </g>
        <g id="Grupo_176311" data-name="Grupo 176311" transform="translate(13.688 8.635)">
          <path id="Trazado_224422" data-name="Trazado 224422" d="M126.42,361.234a11.59,11.59,0,0,0-6.483,5.334c-.264.474.463.9.728.425a10.715,10.715,0,0,1,5.979-4.947c.513-.168.294-.982-.224-.812Z" transform="translate(-119.88 -361.211)" fill="#fff"/>
        </g>
        <path id="Trazado_224423" data-name="Trazado 224423" d="M110.326,358.394a2.479,2.479,0,0,0,1.52,3.013,2.423,2.423,0,0,0,2.967-1.571,2.37,2.37,0,0,0-1.731-2.855,2.319,2.319,0,0,0-2.659,1.988Z" transform="translate(-106.53 -352.725)" fill="#fff"/>
      </g>
    </g>
    <g id="Grupo_176314" data-name="Grupo 176314" transform="translate(64.642 323.383)">
      <path id="Trazado_224425" data-name="Trazado 224425" d="M64.509,317.554h7.746a.421.421,0,0,0,0-.842H64.509a.421.421,0,0,0,0,.842Z" transform="translate(-64.102 -316.712)" fill="#173b49"/>
    </g>
    <g id="Grupo_176315" data-name="Grupo 176315" transform="translate(66.164 324.519)">
      <path id="Trazado_224426" data-name="Trazado 224426" d="M65.881,318.642a11.075,11.075,0,0,0,4.992.625.433.433,0,0,0,.421-.421.424.424,0,0,0-.421-.421,10.5,10.5,0,0,1-4.767-.6.421.421,0,0,0-.225.812Z" transform="translate(-65.572 -317.81)" fill="#173b49"/>
    </g>
    <g id="Grupo_176316" data-name="Grupo 176316" transform="translate(99.81 320.251)">
      <path id="Trazado_224427" data-name="Trazado 224427" d="M98.5,314.942l4.43-.412a.433.433,0,0,0,.421-.421.424.424,0,0,0-.421-.421l-4.43.412a.432.432,0,0,0-.421.421.424.424,0,0,0,.421.421Z" transform="translate(-98.082 -313.687)" fill="#173b49"/>
    </g>
    <g id="Grupo_176317" data-name="Grupo 176317" transform="translate(100.91 323.029)">
      <path id="Trazado_224428" data-name="Trazado 224428" d="M99.452,317.191a12.8,12.8,0,0,0,3.444.136.434.434,0,0,0,.421-.421.424.424,0,0,0-.421-.421,12.033,12.033,0,0,1-3.221-.106.433.433,0,0,0-.517.295.423.423,0,0,0,.294.517Z" transform="translate(-99.145 -316.37)" fill="#173b49"/>
    </g>
    <g id="Grupo_176318" data-name="Grupo 176318" transform="translate(117.078 332.308)">
      <path id="Trazado_224429" data-name="Trazado 224429" d="M121.609,325.338a14.141,14.141,0,0,0-6.63,1.539c-.483.245-.058.973.425.728a13.24,13.24,0,0,1,6.2-1.424.421.421,0,0,0,0-.842Z" transform="translate(-114.766 -325.336)" fill="#173b49"/>
    </g>
    <g id="Grupo_176319" data-name="Grupo 176319" transform="translate(119.492 334.473)">
      <path id="Trazado_224430" data-name="Trazado 224430" d="M119.484,327.549a4.547,4.547,0,0,1-.455.471c-.04.036-.083.071-.124.107l-.07.057c-.03.025-.033.026,0,0-.093.069-.186.137-.284.2a4.547,4.547,0,0,1-.573.316l-.066.03c-.046.022.057-.023-.017.007-.051.021-.1.04-.153.059-.109.039-.218.075-.329.107a.421.421,0,1,0,.225.812,5.016,5.016,0,0,0,2.445-1.569.422.422,0,0,0-.6-.6Z" transform="translate(-117.099 -327.428)" fill="#173b49"/>
    </g>
    <g id="Grupo_176320" data-name="Grupo 176320" transform="translate(102.933 344.203)">
      <path id="Trazado_224431" data-name="Trazado 224431" d="M101.506,337.758l9.04.263c2.937.085,5.888.256,8.826.181a24.89,24.89,0,0,0,4.826-.549c.529-.119.305-.931-.225-.812a34.4,34.4,0,0,1-8.565.478l-8.9-.259-5.007-.145c-.542-.017-.542.826,0,.842Z" transform="translate(-101.099 -336.83)" fill="#173b49"/>
    </g>
    <g id="Grupo_176321" data-name="Grupo 176321" transform="translate(67.321 345.337)">
      <path id="Trazado_224432" data-name="Trazado 224432" d="M67.093,338.771q8.742.916,17.532,1.244,2.51.093,5.022.138a.421.421,0,0,0,0-.842q-8.79-.158-17.554-.906-2.5-.214-5-.476c-.539-.057-.535.787,0,.842Z" transform="translate(-66.69 -337.925)" fill="#173b49"/>
    </g>
    <g id="Grupo_176322" data-name="Grupo 176322" transform="translate(85.871 332.071)">
      <path id="Trazado_224433" data-name="Trazado 224433" d="M90.337,326.219a7.646,7.646,0,0,0-5.42-.975c-.532.1-.306.914.224.812a6.765,6.765,0,0,1,4.772.889c.463.285.887-.444.424-.727Z" transform="translate(-84.614 -325.107)" fill="#173b49"/>
    </g>
    <g id="Grupo_176323" data-name="Grupo 176323" transform="translate(86.1 333.956)">
      <path id="Trazado_224434" data-name="Trazado 224434" d="M89.551,326.952a20.753,20.753,0,0,1-4.3.956.434.434,0,0,0-.421.421.425.425,0,0,0,.421.422,21.863,21.863,0,0,0,4.52-.987c.511-.171.292-.985-.225-.812Z" transform="translate(-84.835 -326.928)" fill="#173b49"/>
    </g>
    <g id="Grupo_176324" data-name="Grupo 176324" transform="translate(73.036 326.064)">
      <path id="Trazado_224435" data-name="Trazado 224435" d="M72.736,324.484q7.4-1.866,14.63-4.344c.51-.175.291-.988-.225-.812q-7.22,2.475-14.63,4.344a.422.422,0,0,0,.225.812Z" transform="translate(-72.212 -319.303)" fill="#173b49"/>
    </g>
    <g id="Grupo_176325" data-name="Grupo 176325" transform="translate(73.26 307.687)">
      <path id="Trazado_224436" data-name="Trazado 224436" d="M73.071,306.317l8.4-4c.49-.233.062-.959-.425-.728l-8.4,4c-.49.233-.062.959.425.728Z" transform="translate(-72.429 -301.546)" fill="#173b49"/>
    </g>
    <g id="Grupo_176326" data-name="Grupo 176326" transform="translate(77.025 308.871)">
      <path id="Trazado_224437" data-name="Trazado 224437" d="M76.708,307.167l7.774-3.7c.49-.234.062-.96-.425-.728l-7.774,3.7c-.489.233-.062.959.425.728Z" transform="translate(-76.066 -302.69)" fill="#173b49"/>
    </g>
    <g id="Grupo_176327" data-name="Grupo 176327" transform="translate(108.378 305.568)">
      <path id="Trazado_224438" data-name="Trazado 224438" d="M107.1,305.138l6.309-4.946c.426-.334-.174-.927-.6-.6l-6.309,4.946c-.426.334.174.927.6.6Z" transform="translate(-106.361 -299.499)" fill="#173b49"/>
    </g>
    <g id="Grupo_176328" data-name="Grupo 176328" transform="translate(113.343 307.222)">
      <path id="Trazado_224439" data-name="Trazado 224439" d="M111.777,304.783l4.419-2.889c.451-.295.03-1.026-.425-.728l-4.419,2.889c-.451.3-.03,1.026.425.728Z" transform="translate(-111.158 -301.097)" fill="#173b49"/>
    </g>
    <g id="Grupo_176329" data-name="Grupo 176329" transform="translate(88.796 188.716)">
      <path id="Trazado_224440" data-name="Trazado 224440" d="M87.61,187.734a1.551,1.551,0,0,0,.6,2,2,2,0,0,0,2.053.043,1.753,1.753,0,0,0,.833-1.824,1.575,1.575,0,0,0-1.324-1.343A1.617,1.617,0,0,0,88,187.71a.421.421,0,0,0,.812.224c.008-.028.018-.056.026-.084.029-.093-.046.077,0-.006.01-.017.051-.119.075-.123-.02.025-.007.01.006,0a.68.68,0,0,1,.06-.062c.013-.013.028-.026.042-.038.035-.03.029-.026-.018.011l.048-.034c.045-.03.092-.054.14-.08.031-.018.062-.055-.007,0a.294.294,0,0,1,.083-.03,1.46,1.46,0,0,1,.143-.038c.077-.012.068-.012.005,0,.018-.014.094-.007.117-.008a.526.526,0,0,1,.147.006l-.054-.007.057.01a.782.782,0,0,1,.085.021l.056.018c.094.027-.079-.045.007,0a1.78,1.78,0,0,1,.154.092c-.087-.059-.006,0,.01.013s.045.042.065.065.077.1.012.008c.012.018.025.033.036.051a1.632,1.632,0,0,1,.09.16c.034.067,0,0-.005-.016.013.039.028.078.039.118s.022.113.038.168-.006-.1,0,0c0,.032.005.063.005.094,0,.053,0,.1,0,.156,0,.106.021-.091,0,.012-.009.04-.017.082-.028.122a1.528,1.528,0,0,1-.049.147c.039-.1,0-.006-.01.012s-.03.055-.047.082-.023.034-.034.052c-.055.086.061-.06-.013.016-.048.048-.092.094-.142.139-.079.071.071-.041-.02.013-.028.018-.055.036-.083.053-.048.028-.1.052-.146.076.1-.046,0,0-.022.005s-.063.021-.1.03a1.586,1.586,0,0,1-.195.04c.112-.017-.072,0-.1,0-.061,0-.121,0-.182-.008-.112-.007.088.02-.021,0l-.065-.013a2.1,2.1,0,0,1-.221-.068c.082.028.028.012.008,0-.038-.021-.079-.039-.117-.062s-.056-.037-.085-.056c.079.053,0,0-.021-.02s-.05-.047-.073-.071-.106-.127-.046-.046a1.423,1.423,0,0,1-.109-.173c-.008-.017-.053-.119-.014-.023-.014-.036-.027-.072-.038-.111s-.012-.054-.02-.08c-.008-.048-.008-.043,0,.016,0-.022,0-.043,0-.065s0-.054,0-.081c0-.107-.021.047,0-.03.009-.031.018-.063.026-.093s.016-.04,0,.01c.01-.02.021-.039.032-.059a.425.425,0,0,0-.151-.575.429.429,0,0,0-.576.15Z" transform="translate(-87.44 -186.594)" fill="#87795b"/>
    </g>
    <g id="Grupo_176330" data-name="Grupo 176330" transform="translate(112.044 190.225)">
      <path id="Trazado_224441" data-name="Trazado 224441" d="M109.963,189.139a1.666,1.666,0,0,0,.73,1.809,1.468,1.468,0,0,0,1.825-.134,1.755,1.755,0,0,0,.508-1.652,1.483,1.483,0,0,0-1.34-1.1,1.634,1.634,0,0,0-1.634.858.431.431,0,0,0,.151.576.426.426,0,0,0,.576-.151.993.993,0,0,1,.072-.135c.009-.014.058-.08.013-.024s.014-.016.027-.029c.034-.036.073-.067.11-.1s-.041.031-.039.03c.051-.034.073-.05.1-.063s.048-.027.071-.039.091-.041.025-.013.01,0,.026-.009.052-.018.079-.025a1.5,1.5,0,0,1,.15-.034c.038-.007-.063,0-.019,0s.063-.005.1-.006a1.3,1.3,0,0,1,.142,0c.018,0,.1.011.026,0s.026.005.048.01a1.236,1.236,0,0,1,.135.037c.017.005.093.036.026.008s.026.014.043.023c.041.023.078.051.117.075s-.039-.032-.039-.031a1.206,1.206,0,0,1,.094.088c.012.012.062.076.022.021s.007.011.016.025a.819.819,0,0,1,.043.071c.008.017.047.1.019.034s0,.009.008.026.017.052.023.079.01.046.016.068c.016.066-.007-.1,0-.008a1.52,1.52,0,0,1,0,.153c0,.024,0,.048,0,.071,0,.068.019-.1,0-.006a1.521,1.521,0,0,1-.035.151q-.009.034-.022.068c-.006.018-.04.106-.013.039s-.01.019-.019.036L112.1,190c-.012.02-.025.04-.038.06-.022.035-.086.091,0,.011-.033.032-.06.072-.093.106-.017.018-.034.033-.052.049-.062.059.054-.032-.005.007a1.2,1.2,0,0,1-.119.075.447.447,0,0,0-.063.031c.006,0,.1-.036.035-.016a1.715,1.715,0,0,0-.187.049s.087-.005.043-.007a.468.468,0,0,0-.054,0c-.032,0-.063,0-.094,0-.079,0,.081.018.005,0-.026-.006-.053-.01-.079-.018s-.06-.018-.09-.027.049.028-.011,0a1.763,1.763,0,0,1-.177-.1c-.033-.023.038.036-.012-.008l-.072-.063c-.026-.026-.052-.052-.076-.079-.071-.08-.019-.01-.013-.01-.026,0-.091-.138-.1-.16l-.049-.1s.029.082.017.038c-.005-.018-.012-.034-.019-.051s-.019-.06-.026-.091a.416.416,0,0,0-.022-.1s.006.088.008.045c0-.017,0-.035,0-.053s0-.063,0-.094a.375.375,0,0,0,.005-.054c.008.012-.019.094,0,.032.009-.036.017-.071.027-.107a.425.425,0,0,0-.294-.518.43.43,0,0,0-.519.295Z" transform="translate(-109.903 -188.051)" fill="#87795b"/>
    </g>
    <g id="Grupo_176331" data-name="Grupo 176331" transform="translate(91.855 194.053)">
      <path id="Trazado_224442" data-name="Trazado 224442" d="M90.8,192.594q8.76.782,17.55,1.176,2.51.112,5.023.193l-.421-.421-.671,7.337c-.05.539.794.536.842,0l.671-7.337a.426.426,0,0,0-.421-.421q-8.791-.283-17.563-.952-2.506-.193-5.009-.416c-.539-.048-.536.795,0,.842Z" transform="translate(-90.395 -191.75)" fill="#87795b"/>
    </g>
    <g id="Grupo_176332" data-name="Grupo 176332" transform="translate(91.31 196.586)">
      <path id="Trazado_224443" data-name="Trazado 224443" d="M90.106,194.6l-.237,8.637a.422.422,0,0,0,.843,0l.236-8.637a.421.421,0,0,0-.842,0Z" transform="translate(-89.869 -194.197)" fill="#87795b"/>
    </g>
    <g id="Grupo_176333" data-name="Grupo 176333" transform="translate(94.96 198.198)">
      <path id="Trazado_224444" data-name="Trazado 224444" d="M93.8,196.6l15.716.3a.421.421,0,0,0,0-.842l-15.716-.3a.421.421,0,0,0,0,.842Z" transform="translate(-93.396 -195.755)" fill="#87795b"/>
    </g>
    <g id="Grupo_176334" data-name="Grupo 176334" transform="translate(72.163 237.881)">
      <path id="Trazado_224445" data-name="Trazado 224445" d="M81.012,234.291q-3.928,5.936-7.545,12.072-1.032,1.751-2.04,3.52a.422.422,0,0,0,.728.425q3.526-6.186,7.365-12.183,1.1-1.712,2.22-3.409c.3-.453-.428-.876-.728-.424Z" transform="translate(-71.369 -234.097)" fill="#87795b"/>
    </g>
    <g id="Grupo_176335" data-name="Grupo 176335" transform="translate(75.208 291.858)">
      <path id="Trazado_224446" data-name="Trazado 224446" d="M74.594,289.348A54.231,54.231,0,0,0,92.2,292.983,55.719,55.719,0,0,0,110,290.79a53.614,53.614,0,0,0,9.416-3.76c.482-.248.056-.975-.425-.728a53.517,53.517,0,0,1-16.877,5.335,54.735,54.735,0,0,1-17.709-.365,52.99,52.99,0,0,1-9.587-2.737c-.506-.2-.724.617-.225.812Z" transform="translate(-74.311 -286.252)" fill="#87795b"/>
    </g>
    <g id="Grupo_176336" data-name="Grupo 176336" transform="translate(105.303 275.367)">
      <path id="Trazado_224447" data-name="Trazado 224447" d="M109.012,270.51l-5.551,8.4c-.3.453.43.876.728.425l5.551-8.4c.3-.453-.43-.876-.728-.424Z" transform="translate(-103.389 -270.317)" fill="#87795b"/>
    </g>
    <g id="Grupo_176337" data-name="Grupo 176337" transform="translate(106.733 280.2)">
      <path id="Trazado_224448" data-name="Trazado 224448" d="M109.146,275.195,104.828,283c-.263.475.465.9.728.425l4.318-7.806c.263-.475-.465-.9-.728-.425Z" transform="translate(-104.772 -274.987)" fill="#87795b"/>
    </g>
    <g id="Grupo_176338" data-name="Grupo 176338" transform="translate(113.572 206.272)">
      <path id="Trazado_224449" data-name="Trazado 224449" d="M111.511,204.267a13.664,13.664,0,0,0,11.878,3.273c.531-.11.306-.922-.225-.812a12.772,12.772,0,0,1-11.057-3.056c-.4-.365-1,.229-.6.6Z" transform="translate(-111.379 -203.556)" fill="#87795b"/>
    </g>
    <g id="Grupo_176339" data-name="Grupo 176339" transform="translate(132.55 211.855)">
      <path id="Trazado_224450" data-name="Trazado 224450" d="M130.534,209.072a3.106,3.106,0,0,0-.777,2.613.423.423,0,0,0,.518.294.434.434,0,0,0,.294-.519c-.007-.049,0-.026,0,.009l-.007-.068c0-.046-.007-.092-.009-.138a2.737,2.737,0,0,1,0-.276c0-.046.008-.091.013-.137-.009.092.005-.027.011-.059a2.731,2.731,0,0,1,.069-.286q.02-.065.043-.13c.008-.022.016-.043.025-.065s.032-.077.011-.029l.013-.029.03-.062c.021-.041.042-.082.065-.122a2.758,2.758,0,0,1,.148-.233c.005-.007.05-.066.019-.026s.016-.019.021-.025c.033-.04.067-.079.1-.117a.421.421,0,0,0-.6-.6Z" transform="translate(-129.716 -208.951)" fill="#87795b"/>
    </g>
    <g id="Grupo_176340" data-name="Grupo 176340" transform="translate(115.531 214.099)">
      <path id="Trazado_224451" data-name="Trazado 224451" d="M113.559,211.96a11.424,11.424,0,0,0,7.524.1c.511-.172.292-.985-.225-.812a10.66,10.66,0,0,1-7.076-.1c-.51-.186-.73.628-.224.813Z" transform="translate(-113.272 -211.119)" fill="#87795b"/>
    </g>
    <g id="Grupo_176341" data-name="Grupo 176341" transform="translate(86.285 209.66)">
      <path id="Trazado_224452" data-name="Trazado 224452" d="M85.041,207.341a24.371,24.371,0,0,1,1.35,10.5c-.05.54.793.537.842,0a24.971,24.971,0,0,0-1.38-10.729c-.183-.506-1-.288-.812.225Z" transform="translate(-85.014 -206.83)" fill="#173b49"/>
    </g>
    <g id="Grupo_176342" data-name="Grupo 176342" transform="translate(88.916 213.422)">
      <path id="Trazado_224453" data-name="Trazado 224453" d="M87.606,211.1q.03.071.009.022l.033.082c.017.041.032.083.048.124.036.1.07.195.1.293q.087.275.149.556.031.141.056.283c.009.051.018.1.025.153.023.142-.008-.08.009.063q.036.309.045.618a.421.421,0,1,0,.842,0,7.01,7.01,0,0,0-.59-2.618.423.423,0,0,0-.576-.151.433.433,0,0,0-.151.576Z" transform="translate(-87.556 -210.465)" fill="#173b49"/>
    </g>
    <g id="Grupo_176343" data-name="Grupo 176343" transform="translate(98.267 215.178)">
      <path id="Trazado_224454" data-name="Trazado 224454" d="M96.591,212.568v3.1a.421.421,0,0,0,.842,0v-3.1a.421.421,0,0,0-.842,0Z" transform="translate(-96.591 -212.161)" fill="#173b49"/>
    </g>
    <g id="Grupo_176344" data-name="Grupo 176344" transform="translate(99.675 215.817)">
      <path id="Trazado_224455" data-name="Trazado 224455" d="M97.954,213.2q.158,1.225.315,2.451a.433.433,0,0,0,.421.421c.2-.009.451-.187.421-.421L98.8,213.2a.431.431,0,0,0-.421-.421c-.2.008-.451.186-.421.421Z" transform="translate(-97.952 -212.779)" fill="#173b49"/>
    </g>
    <g id="Grupo_176345" data-name="Grupo 176345" transform="translate(108.87 211.438)">
      <path id="Trazado_224456" data-name="Trazado 224456" d="M107.048,209.326a6.016,6.016,0,0,0,4.068.524.421.421,0,0,0-.225-.812,5.092,5.092,0,0,1-3.418-.439c-.481-.248-.908.479-.425.728Z" transform="translate(-106.836 -208.548)" fill="#173b49"/>
    </g>
    <g id="Grupo_176346" data-name="Grupo 176346" transform="translate(109.775 214.941)">
      <path id="Trazado_224457" data-name="Trazado 224457" d="M108.131,212.777l3.11.337a.424.424,0,0,0,.421-.421.431.431,0,0,0-.421-.421l-3.11-.337a.424.424,0,0,0-.421.421.431.431,0,0,0,.421.421Z" transform="translate(-107.71 -211.932)" fill="#173b49"/>
    </g>
    <g id="Grupo_176347" data-name="Grupo 176347" transform="translate(108.652 217.803)">
      <path id="Trazado_224458" data-name="Trazado 224458" d="M106.932,215.8a2.656,2.656,0,0,0,2.548-.316.432.432,0,0,0,.151-.576.425.425,0,0,0-.576-.151,2.157,2.157,0,0,1-.23.152c-.039.023-.08.044-.121.064l-.062.03c-.041.019-.029.01.005,0-.087.031-.173.062-.262.086-.045.011-.089.022-.135.031l-.067.012c-.083.016.045,0-.008,0-.092.008-.183.016-.275.016-.046,0-.092,0-.138-.005l-.068-.005c-.01,0-.086-.01-.03,0s-.02,0-.029-.005l-.068-.012c-.045-.009-.089-.021-.134-.032a2.19,2.19,0,0,1-.276-.1.423.423,0,0,0-.519.294.436.436,0,0,0,.294.519Z" transform="translate(-106.626 -214.698)" fill="#173b49"/>
    </g>
    <g id="Grupo_176348" data-name="Grupo 176348" transform="translate(106.79 210.475)">
      <path id="Trazado_224459" data-name="Trazado 224459" d="M106.463,208.14a11.1,11.1,0,0,1-1.563,9.18c-.308.447.421.869.728.425a11.929,11.929,0,0,0,1.648-9.83.422.422,0,0,0-.812.225Z" transform="translate(-104.826 -207.618)" fill="#173b49"/>
    </g>
    <g id="Grupo_176349" data-name="Grupo 176349" transform="translate(91.595 163.11)">
      <path id="Trazado_224460" data-name="Trazado 224460" d="M90.147,162.273A24.18,24.18,0,0,0,95.306,174.4c.9,1.12,1.936,2.106,2.892,3.175a6.988,6.988,0,0,1,2.07,3.976c.041.537.885.541.843,0-.219-2.874-2.589-4.776-4.382-6.773a23.414,23.414,0,0,1-5.74-12.506.436.436,0,0,0-.421-.421.423.423,0,0,0-.421.421Z" transform="translate(-90.145 -161.852)" fill="#173b49"/>
    </g>
    <g id="Grupo_176350" data-name="Grupo 176350" transform="translate(88.967 175.07)">
      <path id="Trazado_224461" data-name="Trazado 224461" d="M88.13,174.332c2.437-.565,4.345,1.608,5.748,3.255,1.439,1.69,3.125,3.49,5.5,3.576.542.02.542-.824,0-.842-2.434-.088-4.006-2.315-5.46-3.975-1.5-1.712-3.578-3.39-6.012-2.825-.528.123-.3.936.224.812Z" transform="translate(-87.605 -173.408)" fill="#173b49"/>
    </g>
    <g id="Grupo_176351" data-name="Grupo 176351" transform="translate(102.496 170.345)">
      <path id="Trazado_224462" data-name="Trazado 224462" d="M101.384,179.871a10.179,10.179,0,0,0,1.928-4.9c.4-1.888,1.056-3.709,1.442-5.6.109-.529-.7-.756-.812-.224-.368,1.8-.983,3.545-1.385,5.341-.372,1.657-.6,3.467-1.769,4.788-.358.4.235,1,.6.6Z" transform="translate(-100.677 -168.843)" fill="#173b49"/>
    </g>
    <g id="Grupo_176352" data-name="Grupo 176352" transform="translate(103.355 174.427)">
      <path id="Trazado_224463" data-name="Trazado 224463" d="M102.127,181.316a29.1,29.1,0,0,1,2.951-1.411,6.61,6.61,0,0,0,2.348-2.012c1.164-1.545,2.047-3.788,4.124-4.282.527-.125.3-.938-.225-.812-2.123.505-3.164,2.554-4.3,4.207a6.213,6.213,0,0,1-2.326,2.144,31.569,31.569,0,0,0-3,1.438c-.452.295-.031,1.025.425.728Z" transform="translate(-101.508 -172.786)" fill="#173b49"/>
    </g>
    <g id="Grupo_176353" data-name="Grupo 176353" transform="translate(117.292 187.942)">
      <path id="Trazado_224464" data-name="Trazado 224464" d="M115.692,187.884a5.467,5.467,0,0,1,2.7-1.218.424.424,0,0,0,.294-.519.432.432,0,0,0-.519-.294,6.279,6.279,0,0,0-3.07,1.434.424.424,0,0,0,0,.6.431.431,0,0,0,.6,0Z" transform="translate(-114.974 -185.846)" fill="#173b49"/>
    </g>
    <g id="Grupo_176354" data-name="Grupo 176354" transform="translate(117.961 190.163)">
      <path id="Trazado_224465" data-name="Trazado 224465" d="M116.041,189.468a9.727,9.727,0,0,0,2.555-.642.432.432,0,0,0,.294-.517.426.426,0,0,0-.519-.295,9.463,9.463,0,0,1-1.178.392q-.295.076-.6.132c-.1.02-.208.037-.312.054-.126.02-.119.018-.246.033a.431.431,0,0,0-.421.421c.009.206.186.448.421.421Z" transform="translate(-115.62 -187.991)" fill="#173b49"/>
    </g>
    <g id="Grupo_176355" data-name="Grupo 176355" transform="translate(87.425 172.676)">
      <path id="Trazado_224466" data-name="Trazado 224466" d="M86.647,172.07a9.18,9.18,0,0,1,4.35.288c.519.162.741-.651.225-.812a10.1,10.1,0,0,0-4.8-.288.426.426,0,0,0-.295.519.431.431,0,0,0,.519.294Z" transform="translate(-86.115 -171.095)" fill="#173b49"/>
    </g>
    <g id="Grupo_176356" data-name="Grupo 176356" transform="translate(107.93 170.331)">
      <path id="Trazado_224467" data-name="Trazado 224467" d="M107.842,168.95,106.048,171a.422.422,0,1,0,.6.6l1.794-2.045a.422.422,0,0,0-.6-.6Z" transform="translate(-105.928 -168.829)" fill="#173b49"/>
    </g>
    <g id="Grupo_176357" data-name="Grupo 176357" transform="translate(109.388 171.358)">
      <path id="Trazado_224468" data-name="Trazado 224468" d="M108.143,170.127c-.043.152-.092.3-.147.45-.029.079-.06.157-.091.236s.032-.072-.007.016c-.017.038-.033.077-.051.115a6.794,6.794,0,0,1-.453.831.424.424,0,0,0,.151.576.43.43,0,0,0,.576-.151,7.091,7.091,0,0,0,.834-1.849.421.421,0,0,0-.812-.224Z" transform="translate(-107.336 -169.821)" fill="#173b49"/>
    </g>
    <g id="Grupo_176358" data-name="Grupo 176358" transform="translate(111.226 147.855)">
      <path id="Trazado_224469" data-name="Trazado 224469" d="M110.858,147.634a19.538,19.538,0,0,1,.386,8.68l.519-.295c-.335-.115-.674-.221-1.008-.342a3.264,3.264,0,0,1-.914-.4c-.4-.367-1,.227-.6.6a3.34,3.34,0,0,0,1.123.562c.387.144.781.267,1.172.4a.422.422,0,0,0,.517-.294,20.51,20.51,0,0,0-.386-9.127.422.422,0,0,0-.812.224Z" transform="translate(-109.112 -147.112)" fill="#8e674d"/>
    </g>
    <path id="Trazado_224470" data-name="Trazado 224470" d="M105.89,162.5l-9.483-2.747,8.668,5.2Z" transform="translate(1.67 1.185)" fill="#8e674d" opacity="0.49"/>
    <g id="Grupo_176359" data-name="Grupo 176359" transform="translate(93.779 146.549)">
      <path id="Trazado_224471" data-name="Trazado 224471" d="M92.377,146.565a5.693,5.693,0,0,1,2,3.507.425.425,0,0,0,.519.294.431.431,0,0,0,.295-.517,6.4,6.4,0,0,0-2.217-3.88.433.433,0,0,0-.6,0,.425.425,0,0,0,0,.6Z" transform="translate(-92.255 -145.85)" fill="#8e674d"/>
    </g>
    <g id="Grupo_176360" data-name="Grupo 176360" transform="translate(93.913 148.457)">
      <path id="Trazado_224472" data-name="Trazado 224472" d="M92.918,148.687a2.252,2.252,0,0,1,.538-.146l-.112.016a2.277,2.277,0,0,1,.6,0l-.112-.014a.525.525,0,0,0,.367-.036.434.434,0,0,0,.194-.253.426.426,0,0,0-.042-.324.406.406,0,0,0-.251-.194,2.649,2.649,0,0,0-.712-.026,2.7,2.7,0,0,0-.692.166.465.465,0,0,0-.253.195.432.432,0,0,0-.042.324.423.423,0,0,0,.194.251.409.409,0,0,0,.325.043Z" transform="translate(-92.384 -147.694)" fill="#8e674d"/>
    </g>
    <g id="Grupo_176361" data-name="Grupo 176361" transform="translate(107.93 155.848)">
      <path id="Trazado_224473" data-name="Trazado 224473" d="M105.949,155.371a3.941,3.941,0,0,0,2.948,2.492.432.432,0,0,0,.519-.295.425.425,0,0,0-.295-.517,3.587,3.587,0,0,1-.414-.1c-.073-.023-.147-.049-.219-.077-.009,0-.1-.042-.057-.022s-.048-.022-.056-.026a3.527,3.527,0,0,1-.375-.2c-.066-.041-.13-.084-.194-.129l-.051-.036c.032.024-.053-.042-.063-.052a3.451,3.451,0,0,1-.312-.291q-.075-.078-.143-.158l-.073-.09c.037.047,0,0-.016-.023a3.339,3.339,0,0,1-.229-.359c-.034-.062-.066-.126-.1-.19,0-.005-.054-.12-.02-.04-.016-.036-.029-.072-.042-.109a.431.431,0,0,0-.519-.294.425.425,0,0,0-.294.517Z" transform="translate(-105.927 -154.835)" fill="#8e674d"/>
    </g>
    <path id="Trazado_224474" data-name="Trazado 224474" d="M105.919,149.342c-.262.825-.961,1.339-1.563,1.148a1.406,1.406,0,0,1-.614-1.839c.262-.825.961-1.338,1.562-1.148A1.406,1.406,0,0,1,105.919,149.342Z" transform="translate(1.922 0.755)"/>
    <path id="Trazado_224475" data-name="Trazado 224475" d="M115.92,152.117c-.262.825-.961,1.339-1.563,1.148a1.406,1.406,0,0,1-.615-1.839c.262-.825.961-1.338,1.563-1.148A1.406,1.406,0,0,1,115.92,152.117Z" transform="translate(2.272 0.852)"/>
    <path id="Trazado_224476" data-name="Trazado 224476" d="M95.673,145.19a1.86,1.86,0,0,1,.7,3.327c1.415-.565,3.039-1.386,3.241-2.9.243-1.816-1.795-3.341-1.589-5.161a2.983,2.983,0,0,1,1.729-2.2,8.817,8.817,0,0,1,2.819-.691,3.245,3.245,0,0,1,1-.026,4.578,4.578,0,0,1,1.688,1,5.581,5.581,0,0,0,3.921.982c1.477-.191,3.038-.964,4.367-.294,1.427.717,1.692,2.658,2.8,3.8a3.34,3.34,0,0,0,3.9.576,5.914,5.914,0,0,1,1.854-1,5.526,5.526,0,0,1,2.013.425c2.488.6,4.986-2.033,4.678-4.572s-2.841-4.443-5.4-4.541c-1.261-.048-2.616.244-3.722-.362a6.487,6.487,0,0,1-2.077-2.627c-1.46-2.436-4.124-4.412-6.946-4.084-1.715.2-3.32,1.216-5.04,1.062a12.061,12.061,0,0,1-3.553-1.357,7.21,7.21,0,0,0-5.271-.35,4.576,4.576,0,0,0-3.08,4.046,5.132,5.132,0,0,1-.135,2.383c-.476.909-1.67,1.088-2.57,1.583a3.616,3.616,0,0,0-1.833,2.915c-.068,1.241.511,2.515.135,3.7-.169.531-.516.988-.706,1.512a2.826,2.826,0,0,0,2.127,3.591,4.018,4.018,0,0,1,4.619-.834Z" transform="translate(1.392 0)"/>
    <path id="Trazado_224477" data-name="Trazado 224477" d="M109.056,143.286a2.017,2.017,0,0,1-.62,1.6,1.994,1.994,0,0,1-1.026.246l-4.511.254a.228.228,0,0,1-.2-.055.214.214,0,0,1,.011-.209,2.862,2.862,0,0,1,1.625-1.308,9.542,9.542,0,0,1,4.487-.671Z" transform="translate(1.889 0.603)"/>
    <path id="Trazado_224478" data-name="Trazado 224478" d="M113.769,144.5a2.015,2.015,0,0,0-.172,1.7,1.988,1.988,0,0,0,.8.685l3.907,2.269a.224.224,0,0,0,.2.041c.065-.032.082-.118.085-.191a2.868,2.868,0,0,0-.856-1.9,9.565,9.565,0,0,0-3.7-2.63Z" transform="translate(2.266 0.651)"/>
    <g id="Grupo_176362" data-name="Grupo 176362" transform="translate(112.076 220.362)">
      <path id="Trazado_224479" data-name="Trazado 224479" d="M110.121,217.974a13.711,13.711,0,0,0,13.406,1.18c.492-.227.064-.952-.425-.728a12.866,12.866,0,0,1-12.556-1.18c-.444-.312-.866.418-.424.728Z" transform="translate(-109.934 -217.171)" fill="#ad680c"/>
    </g>
    <g id="Grupo_176363" data-name="Grupo 176363" transform="translate(104.683 243.954)">
      <path id="Trazado_224480" data-name="Trazado 224480" d="M103.429,240.921a1.863,1.863,0,0,1,1.881.422c.545.408.967.961,1.478,1.409a3.478,3.478,0,0,0,1.771.9,5.244,5.244,0,0,0,1.9-.136c1.152-.249,2.477-.761,3.512.069a17.737,17.737,0,0,0,1.392,1.224,2.061,2.061,0,0,0,1.625.276,5.372,5.372,0,0,0,1.61-.859,2.058,2.058,0,0,1,1.532-.527c.528.125.752-.687.225-.812-1.2-.286-2.083.638-3.052,1.166a1.385,1.385,0,0,1-1.438.076,12.973,12.973,0,0,1-1.371-1.2c-1.13-.9-2.457-.65-3.758-.341a5.973,5.973,0,0,1-1.919.252,2.889,2.889,0,0,1-1.7-.936,8.877,8.877,0,0,0-1.791-1.557,2.428,2.428,0,0,0-2.314-.153c-.484.244-.058.972.425.728Z" transform="translate(-102.79 -239.966)" fill="#ad680c"/>
    </g>
    <g id="Grupo_176364" data-name="Grupo 176364" transform="translate(122.098 228.01)">
      <path id="Trazado_224481" data-name="Trazado 224481" d="M121.946,224.864l-2.319,12.151c-.1.53.711.758.812.225l2.319-12.151c.1-.53-.711-.758-.812-.225Z" transform="translate(-119.618 -224.56)" fill="#ad680c"/>
    </g>
    <g id="Grupo_176365" data-name="Grupo 176365" transform="translate(121.044 243.908)">
      <path id="Trazado_224482" data-name="Trazado 224482" d="M119.157,240.045l-.435.45a.434.434,0,0,0,0,.6.426.426,0,0,0,.3.123l.112-.014a.435.435,0,0,0,.186-.109l.435-.45a.332.332,0,0,0,.087-.136.383.383,0,0,0,0-.325.332.332,0,0,0-.087-.136.426.426,0,0,0-.3-.123l-.112.014a.429.429,0,0,0-.186.109Z" transform="translate(-118.599 -239.922)" fill="#ad680c"/>
    </g>
    <g id="Grupo_176366" data-name="Grupo 176366" transform="translate(136.142 216.475)">
      <path id="Trazado_224483" data-name="Trazado 224483" d="M133.239,214.051a33.6,33.6,0,0,1,2.918,7.906c.123.528.936.3.812-.225a34.5,34.5,0,0,0-3-8.107c-.25-.481-.978-.056-.728.425Z" transform="translate(-133.187 -213.415)" fill="#6da8c6"/>
    </g>
    <g id="Grupo_176367" data-name="Grupo 176367" transform="translate(137.656 212.955)">
      <path id="Trazado_224484" data-name="Trazado 224484" d="M134.866,210.786a11.945,11.945,0,0,0,9.617.276c.495-.2.278-1.02-.224-.812a11.138,11.138,0,0,1-8.968-.191c-.487-.231-.916.495-.425.728Z" transform="translate(-134.649 -210.014)" fill="#6da8c6"/>
    </g>
    <g id="Grupo_176368" data-name="Grupo 176368" transform="translate(140.972 216.282)">
      <path id="Trazado_224485" data-name="Trazado 224485" d="M138.163,214.061a11.254,11.254,0,0,0,5.538.614.424.424,0,0,0,.294-.519.433.433,0,0,0-.519-.294,10.393,10.393,0,0,1-5.089-.614.423.423,0,0,0-.519.294.431.431,0,0,0,.294.519Z" transform="translate(-137.854 -213.228)" fill="#6da8c6"/>
    </g>
    <g id="Grupo_176369" data-name="Grupo 176369" transform="translate(142.325 220.693)">
      <path id="Trazado_224486" data-name="Trazado 224486" d="M139.214,218.121a14.291,14.291,0,0,1,1.28,3.887.424.424,0,0,0,.518.294.429.429,0,0,0,.294-.517,15.087,15.087,0,0,0-1.365-4.089.421.421,0,1,0-.728.425Z" transform="translate(-139.161 -217.49)" fill="#6da8c6"/>
    </g>
    <g id="Grupo_176370" data-name="Grupo 176370" transform="translate(147.398 221.575)">
      <path id="Trazado_224487" data-name="Trazado 224487" d="M144.484,219.188l3.321.426a.423.423,0,0,0,.421-.421.432.432,0,0,0-.421-.421l-3.321-.426a.423.423,0,0,0-.421.421.431.431,0,0,0,.421.421Z" transform="translate(-144.063 -218.343)" fill="#6da8c6"/>
    </g>
    <g id="Grupo_176371" data-name="Grupo 176371" transform="translate(142.326 206.057)">
      <path id="Trazado_224488" data-name="Trazado 224488" d="M139.69,207.6a11.75,11.75,0,0,0,6.342-3.526c.368-.4-.226-.994-.6-.6a10.994,10.994,0,0,1-5.971,3.309c-.532.1-.306.915.224.812Z" transform="translate(-139.163 -203.349)" fill="#6da8c6"/>
    </g>
    <g id="Grupo_176372" data-name="Grupo 176372" transform="translate(132.4 219.143)">
      <path id="Trazado_224489" data-name="Trazado 224489" d="M129.585,216.517a17.775,17.775,0,0,1,.166,7.976c-.111.529.7.756.812.225a18.752,18.752,0,0,0-.166-8.424.422.422,0,0,0-.812.224Z" transform="translate(-129.571 -215.993)" fill="#6da8c6"/>
    </g>
    <g id="Grupo_176373" data-name="Grupo 176373" transform="translate(164.812 271.414)">
      <path id="Trazado_224490" data-name="Trazado 224490" d="M174.834,288.43a20.249,20.249,0,0,1-9.9-5.067,11.418,11.418,0,0,1-2.827-4.509,6.492,6.492,0,0,1,.2-4.936,3.355,3.355,0,0,1,1.764-1.622,4.986,4.986,0,0,1,3.223.084,12.532,12.532,0,0,1,5.033,3.344c.723.735,1.4,1.518,2.046,2.318A10.4,10.4,0,0,1,176,280.334c.2.467.532,1.45-.072,1.771-.892.475-1.887-.985-2.325-1.572-2.3-3.088-3.523-7.784-.72-10.973a6.26,6.26,0,0,1,4.484-2.239,5.758,5.758,0,0,1,4.691,2.876,12.226,12.226,0,0,1,2.011,6.231,12.589,12.589,0,0,1-.04,1.7,3.966,3.966,0,0,1-.313,1.435c-.123.244-.383.688-.72.561-.379-.142-.594-.824-.733-1.163a8.5,8.5,0,0,1-.225-5.844,6.888,6.888,0,0,1,3.653-4.093,6.5,6.5,0,0,1,5.24-.181,6.771,6.771,0,0,1,3.454,3.706,9.328,9.328,0,0,1,.487,5.384,15.384,15.384,0,0,1-2.72,5.825,29.2,29.2,0,0,1-2.012,2.475c-.361.4.233,1,.6.6,3.037-3.384,5.8-7.689,5.033-12.441a8.712,8.712,0,0,0-2.729-5.186,6.888,6.888,0,0,0-5.651-1.564,7.8,7.8,0,0,0-5.117,3.156,8.8,8.8,0,0,0-1.375,6.366,7.8,7.8,0,0,0,1.109,3.162,1.328,1.328,0,0,0,1.224.663,1.564,1.564,0,0,0,1.095-.79,6.219,6.219,0,0,0,.6-3.34,13.371,13.371,0,0,0-.564-3.7,10.347,10.347,0,0,0-3.906-5.76,5.826,5.826,0,0,0-5.7-.281,7.6,7.6,0,0,0-3.9,4.286,9.482,9.482,0,0,0,.388,6.664,13.43,13.43,0,0,0,1.744,3.036c.64.837,1.53,2.022,2.72,1.933a1.555,1.555,0,0,0,1.4-1.791,4.8,4.8,0,0,0-1.115-2.518,29.312,29.312,0,0,0-4.7-5.078c-1.758-1.394-4.089-2.649-6.408-2.386a4.5,4.5,0,0,0-3.855,3.861,8.89,8.89,0,0,0,1.024,5.745c1.945,3.74,5.766,6.149,9.633,7.53a26.061,26.061,0,0,0,2.935.852c.529.121.753-.691.225-.812Z" transform="translate(-160.888 -266.499)" fill="#8e8b5e"/>
    </g>
    <g id="Grupo_176374" data-name="Grupo 176374" transform="translate(145.541 285.229)">
      <path id="Trazado_224491" data-name="Trazado 224491" d="M146.152,279.925a8.223,8.223,0,0,0-3.668,5.554,4.714,4.714,0,0,0,2.794,4.776,3.475,3.475,0,0,0,3.066-.064c.4-.214.17-.746-.212-.786a5.645,5.645,0,0,0-5.835,4.99A5.435,5.435,0,0,0,150.712,299c.434-.316.013-1.047-.425-.728a4.765,4.765,0,0,1-5.866-.515,3.88,3.88,0,0,1-1.31-2.853,4.745,4.745,0,0,1,1.362-3.209,4.441,4.441,0,0,1,3.66-1.449c-.071-.262-.142-.524-.213-.784-1.445.769-3.158-.156-3.991-1.4a4.55,4.55,0,0,1,.319-5.006,8.948,8.948,0,0,1,2.331-2.4c.437-.314.017-1.045-.425-.728Z" transform="translate(-142.269 -279.846)" fill="#8e8b5e"/>
    </g>
    <path id="Trazado_224492" data-name="Trazado 224492" d="M175.52,226.192c-2.575-4.293-1.613-10.391,1.778-14.073a9.566,9.566,0,0,1,2.223,7.6,8.869,8.869,0,0,1-4,6.474Z" transform="translate(4.383 3.015)" fill="#8e8b5e"/>
    <path id="Trazado_224493" data-name="Trazado 224493" d="M170.825,224.354a14.424,14.424,0,0,1-7.277-14.131,12.09,12.09,0,0,1,7.321,14.084Z" transform="translate(4.013 2.949)" fill="#8e8b5e"/>
    <path id="Trazado_224494" data-name="Trazado 224494" d="M213.014,304.943c4.932-.864,10.278,2.221,12.5,6.708a9.558,9.558,0,0,1-7.89-.65,8.871,8.871,0,0,1-4.609-6.058Z" transform="translate(5.745 6.254)" fill="#8e8b5e"/>
    <path id="Trazado_224495" data-name="Trazado 224495" d="M216.488,301.141a14.423,14.423,0,0,1,15.8-1.723,12.092,12.092,0,0,1-15.774,1.782Z" transform="translate(5.866 6.01)" fill="#8e8b5e"/>
    <path id="Trazado_224496" data-name="Trazado 224496" d="M192.357,258.445a5.94,5.94,0,0,1-2.8-5.785c.07-.512.307-1.109.818-1.19a1.277,1.277,0,0,1,.937.367,8.594,8.594,0,0,1,3.157,5.513,6.641,6.641,0,0,1,1.668-5.077c.789-.866,2.339-1.441,3.015-.483a1.963,1.963,0,0,1,.281,1.1A6.444,6.444,0,0,1,197,258.031c1.4-1.223,3.669-.778,5.121.383.886.708,1.606,2.008.942,2.927a1.955,1.955,0,0,1-1.159.688c-1.477.353-2.992-.278-4.38-.9.906,2.153,1.794,4.7.616,6.712a1.06,1.06,0,0,1-.525.51,1.1,1.1,0,0,1-.856-.174,5.059,5.059,0,0,1-2.471-5.105,8.69,8.69,0,0,1-1.806,4.269c-.407.511-1,1.016-1.634.871a1.328,1.328,0,0,1-.914-1.217,3.9,3.9,0,0,1,.312-1.586q.66-1.9,1.319-3.8a3.413,3.413,0,0,1-5.193.086,2.28,2.28,0,0,1-.466-2.086,2.6,2.6,0,0,1,1.684-1.452,5.164,5.164,0,0,1,4.188.371Z" transform="translate(4.794 4.384)" fill="#fff"/>
    <path id="Trazado_224497" data-name="Trazado 224497" d="M151.01,263.151a7.843,7.843,0,0,1-3.7-7.639c.093-.677.406-1.464,1.079-1.571a1.686,1.686,0,0,1,1.237.484,11.351,11.351,0,0,1,4.168,7.28A8.768,8.768,0,0,1,156,255c1.041-1.145,3.087-1.9,3.979-.639a2.6,2.6,0,0,1,.373,1.457,8.511,8.511,0,0,1-3.21,6.784c1.849-1.616,4.844-1.028,6.762.506,1.168.935,2.12,2.651,1.243,3.863a2.587,2.587,0,0,1-1.53.911c-1.952.465-3.951-.369-5.784-1.185,1.2,2.841,2.369,6.2.813,8.861a1.4,1.4,0,0,1-.693.674,1.453,1.453,0,0,1-1.13-.23,6.683,6.683,0,0,1-3.263-6.742,11.46,11.46,0,0,1-2.385,5.637c-.536.674-1.316,1.342-2.157,1.151a1.755,1.755,0,0,1-1.207-1.607,5.142,5.142,0,0,1,.412-2.094q.869-2.506,1.74-5.011a4.506,4.506,0,0,1-6.857.114,3.01,3.01,0,0,1-.615-2.755,3.431,3.431,0,0,1,2.224-1.918,6.823,6.823,0,0,1,5.529.49Z" transform="translate(3.276 4.469)" fill="#fff"/>
    <path id="Trazado_224498" data-name="Trazado 224498" d="M187.3,292.649a8.37,8.37,0,0,1-3.7-8.015c.093-.709.406-1.536,1.079-1.648a1.642,1.642,0,0,1,1.237.508,12.049,12.049,0,0,1,4.168,7.637,9.487,9.487,0,0,1,2.2-7.032c1.041-1.2,3.088-2,3.98-.671a2.837,2.837,0,0,1,.372,1.529,9.1,9.1,0,0,1-3.209,7.117c1.849-1.7,4.844-1.078,6.761.531,1.169.98,2.12,2.78,1.243,4.053a2.562,2.562,0,0,1-1.53.954c-1.951.489-3.951-.387-5.783-1.243,1.2,2.981,2.368,6.5.812,9.3a1.428,1.428,0,0,1-.692.706,1.393,1.393,0,0,1-1.13-.24,7.124,7.124,0,0,1-3.263-7.073,12.357,12.357,0,0,1-2.385,5.915c-.536.707-1.317,1.408-2.157,1.207a1.831,1.831,0,0,1-1.208-1.686,5.622,5.622,0,0,1,.412-2.2q.871-2.628,1.741-5.258a4.373,4.373,0,0,1-6.858.12,3.276,3.276,0,0,1-.614-2.891A3.483,3.483,0,0,1,181,292.258a6.537,6.537,0,0,1,5.529.513Z" transform="translate(4.544 5.483)" fill="#fff"/>
    <path id="Trazado_224499" data-name="Trazado 224499" d="M159.688,297.018a5.841,5.841,0,0,1-2.756-5.688c.069-.5.3-1.091.8-1.169a1.251,1.251,0,0,1,.92.36,8.451,8.451,0,0,1,3.1,5.42,6.528,6.528,0,0,1,1.64-4.992c.775-.852,2.3-1.417,2.964-.475a1.933,1.933,0,0,1,.276,1.085,6.334,6.334,0,0,1-2.39,5.052c1.376-1.2,3.606-.765,5.034.377.87.7,1.579,1.974.926,2.877a1.929,1.929,0,0,1-1.139.677,6.939,6.939,0,0,1-4.306-.882c.89,2.115,1.764,4.617.605,6.6a1.04,1.04,0,0,1-.516.5,1.083,1.083,0,0,1-.841-.171,4.975,4.975,0,0,1-2.429-5.021,8.549,8.549,0,0,1-1.776,4.2c-.4.5-.98,1-1.605.857a1.306,1.306,0,0,1-.9-1.2,3.835,3.835,0,0,1,.306-1.559l1.3-3.732a3.357,3.357,0,0,1-5.106.086,2.243,2.243,0,0,1-.457-2.051A2.553,2.553,0,0,1,155,296.741a5.079,5.079,0,0,1,4.117.365Z" transform="translate(3.656 5.737)" fill="#fff"/>
    <g id="Grupo_176375" data-name="Grupo 176375" transform="translate(209.55 272.356)">
      <path id="Trazado_224500" data-name="Trazado 224500" d="M204.81,270.164a5.592,5.592,0,0,1,6.809-1.306,6.8,6.8,0,0,1,3.25,6.956,9,9,0,0,1-4.976,6.472,6.119,6.119,0,0,1-.93.413c-.382.119-.6.01-.7-.368a2.32,2.32,0,0,1,.438-1.8,3.271,3.271,0,0,1,3.458-1.384A3.642,3.642,0,0,1,214.8,282.4a4.068,4.068,0,0,1-2.366,3.772l.576.575c.481-.891,1.666-.94,2.559-.855a3.281,3.281,0,0,1,2.7,1.332c.553,1.063-.241,2.249-.954,3.009a7.541,7.541,0,0,1-3.082,2.1c-1.041.317-2.517.077-2.9-1.1-.168-.512-.982-.293-.812.225a2.94,2.94,0,0,0,3.051,1.857,7.047,7.047,0,0,0,4.062-2.2c.984-.948,1.958-2.338,1.578-3.778a3.465,3.465,0,0,0-3.046-2.205c-1.349-.223-3.139-.175-3.878,1.194a.425.425,0,0,0,.576.576,4.943,4.943,0,0,0,2.768-3.941,4.459,4.459,0,0,0-2.045-4.082,3.993,3.993,0,0,0-4.477.07c-1.148.8-2.32,2.625-1.491,4.03.533.9,1.5.6,2.276.24a10.928,10.928,0,0,0,2.141-1.3,9.9,9.9,0,0,0,3.059-3.869,8.045,8.045,0,0,0-1.708-8.965c-2.524-2.319-6.975-2.29-9.174.486-.333.421.259,1.022.6.6Z" transform="translate(-204.116 -267.409)" fill="#8e8b5e"/>
    </g>
    <g id="Grupo_176376" data-name="Grupo 176376" transform="translate(224.487 269.291)">
      <path id="Trazado_224501" data-name="Trazado 224501" d="M218.97,265.292a2.794,2.794,0,0,1,.9,5.29c-.482.248-.057.976.425.728a3.633,3.633,0,0,0-1.323-6.86.424.424,0,0,0-.421.421.432.432,0,0,0,.421.421Z" transform="translate(-218.549 -264.447)" fill="#8e8b5e"/>
    </g>
    <g id="Grupo_176377" data-name="Grupo 176377" transform="translate(157.797 240.905)">
      <path id="Trazado_224502" data-name="Trazado 224502" d="M154.953,245.794c.028-2.987,1.113-6.417,4.154-7.577a4.449,4.449,0,0,1,4.056.3,9.216,9.216,0,0,1,2.876,3.723,11.317,11.317,0,0,1,1.277,4.862c.014,1.333-.226,3.391-1.567,4.089-1.394.726-2.749-.837-3.152-2.027a5.94,5.94,0,0,1,.164-3.917,6.693,6.693,0,0,1,2.479-3.181,6.507,6.507,0,0,1,3.984-1.058,7.236,7.236,0,0,1,6.436,4.74,8.239,8.239,0,0,1,.354,4.328,4.757,4.757,0,0,1-.739,2.036c-.545.672-1.164-.094-1.4-.629a6.607,6.607,0,0,1-.21-4.1,6.931,6.931,0,0,1,10.159-4.49c2.522,1.374,4.182,4.725,2.245,7.268a3.489,3.489,0,0,1-1.544,1.164l.533.406c-.279-3.662.535-7.971,3.965-9.971a6.065,6.065,0,0,1,4.839-.684,4.262,4.262,0,0,1,2.789,3.026,3.781,3.781,0,0,1-1.145,4.089c-.435.316-.015,1.046.425.728,2.755-2,2-6.57-.779-8.187a6.318,6.318,0,0,0-5.464-.226,8.186,8.186,0,0,0-4.3,4.041,13.854,13.854,0,0,0-1.169,7.184.426.426,0,0,0,.533.407,4.714,4.714,0,0,0,2.927-3.57,5.769,5.769,0,0,0-1.363-4.708,7.826,7.826,0,0,0-13.658,6.1,5.451,5.451,0,0,0,.688,2.312,1.635,1.635,0,0,0,1.961.856c.78-.324,1.1-1.261,1.321-2.007a8.981,8.981,0,0,0-.976-7.284,7.942,7.942,0,0,0-3.75-3.082,7.523,7.523,0,0,0-8.8,2.2c-1.883,2.431-2.492,6.706.345,8.722a2.639,2.639,0,0,0,2.258.443,3.022,3.022,0,0,0,1.76-1.6,8.43,8.43,0,0,0,.474-5.416,14.335,14.335,0,0,0-2.313-5.225,5.951,5.951,0,0,0-4.166-2.83,6.155,6.155,0,0,0-4.512,1.494,8.2,8.2,0,0,0-2.543,4.544,13.141,13.141,0,0,0-.291,2.706.421.421,0,0,0,.842,0Z" transform="translate(-154.111 -237.02)" fill="#8e8b5e"/>
    </g>
    <g id="Grupo_176378" data-name="Grupo 176378" transform="translate(176.772 260.355)">
      <path id="Trazado_224503" data-name="Trazado 224503" d="M173.338,261.3c-.279-1.142.519-2.22,1.162-3.085.526-.7,1.292-1.707,2.3-1.547a1.976,1.976,0,0,1,1.472,1.947,4.107,4.107,0,0,1-1.413,2.785l.7.41a4.851,4.851,0,0,1,1.235-2.423,2.211,2.211,0,0,1,2.185-.549c1.8.632.715,3.045-.029,4.064-.321.439.41.86.728.425a5.354,5.354,0,0,0,1.118-2.894,2.394,2.394,0,0,0-1.5-2.376,3.01,3.01,0,0,0-2.886.554,5.414,5.414,0,0,0-1.659,2.974.425.425,0,0,0,.7.41c1.4-1.4,2.409-3.682.866-5.379a2.294,2.294,0,0,0-2.5-.662,5.24,5.24,0,0,0-2.189,2.032,4.364,4.364,0,0,0-1.1,3.539c.128.527.941.3.812-.225Z" transform="translate(-172.444 -255.813)" fill="#8e8b5e"/>
    </g>
    <g id="Grupo_176379" data-name="Grupo 176379" transform="translate(176.598 306.693)">
      <path id="Trazado_224504" data-name="Trazado 224504" d="M172.873,300.763a3.469,3.469,0,0,0,.585,4.531,2.764,2.764,0,0,0,2.635.613,1.674,1.674,0,0,0,1-2.368.426.426,0,0,0-.661-.085,2.038,2.038,0,0,0-.549,2.134,2.08,2.08,0,0,0,1.6,1.315c1.789.342,3.061-1.025,4.058-2.3.329-.423-.263-1.024-.6-.6-.72.925-1.6,2.106-2.9,2.113a1.455,1.455,0,0,1-1.28-.6,1.185,1.185,0,0,1,.253-1.47l-.661-.085c.42.721-.476,1.236-1.088,1.217a2.115,2.115,0,0,1-1.568-.835,2.613,2.613,0,0,1-.113-3.158c.329-.431-.4-.851-.728-.425Z" transform="translate(-172.277 -300.586)" fill="#8e8b5e"/>
    </g>
    <g id="Grupo_176380" data-name="Grupo 176380" transform="translate(135.556 256.683)">
      <path id="Trazado_224505" data-name="Trazado 224505" d="M140.8,254.729a2.722,2.722,0,0,0-2.267-2.391,3.8,3.8,0,0,0-3.572,1.319,9.552,9.552,0,0,0-2.112,4.061,5.084,5.084,0,0,0,.606,4.4,3.72,3.72,0,0,0,3.073,1.4,2.283,2.283,0,0,0,2.248-2.26,1.323,1.323,0,0,0-1.263-1.271,2.664,2.664,0,0,0-1.848.948,8.985,8.985,0,0,0-2.379,3.981,5.477,5.477,0,0,0,.764,4.631,4.405,4.405,0,0,0,3.847,1.963c.536-.044.541-.888,0-.842-2.261.19-3.972-2.023-3.978-4.138a6.467,6.467,0,0,1,1.112-3.47,9.321,9.321,0,0,1,1.191-1.489c.316-.322.945-.939,1.452-.7.412.195.275.8.088,1.1a1.565,1.565,0,0,1-1.029.672,2.783,2.783,0,0,1-2.4-.8,3.741,3.741,0,0,1-.8-3.306,9.32,9.32,0,0,1,1.406-3.484,3.709,3.709,0,0,1,2.876-1.953c.939.007,2.075.589,2.14,1.631.034.538.877.542.842,0Z" transform="translate(-132.62 -252.265)" fill="#8e8b5e"/>
    </g>
    <g id="Grupo_176381" data-name="Grupo 176381" transform="translate(138.765 283.317)">
      <path id="Trazado_224506" data-name="Trazado 224506" d="M137.763,278.06a4.042,4.042,0,0,0,1.784,7.555c.54.039.538-.8,0-.842a3.2,3.2,0,0,1-1.36-5.985.421.421,0,0,0-.424-.728Z" transform="translate(-135.721 -277.999)" fill="#8e8b5e"/>
    </g>
    <g id="Grupo_176382" data-name="Grupo 176382" transform="translate(155.733 267.244)">
      <path id="Trazado_224507" data-name="Trazado 224507" d="M152.24,263.189l2.951,2.951a.422.422,0,0,0,.6-.6l-2.952-2.951a.421.421,0,0,0-.6.6Z" transform="translate(-152.116 -262.469)" fill="#8e8b5e"/>
    </g>
    <g id="Grupo_176383" data-name="Grupo 176383" transform="translate(155.121 266.918)">
      <path id="Trazado_224508" data-name="Trazado 224508" d="M153.6,262.354l-2.014,3.278c-.284.463.444.887.729.425l2.013-3.278c.286-.464-.443-.887-.728-.425Z" transform="translate(-151.525 -262.154)" fill="#8e8b5e"/>
    </g>
    <g id="Grupo_176384" data-name="Grupo 176384" transform="translate(197.689 261.58)">
      <path id="Trazado_224509" data-name="Trazado 224509" d="M192.784,257.71l3.483,3.308c.393.374.989-.221.6-.6l-3.483-3.307c-.392-.374-.989.221-.6.6Z" transform="translate(-192.655 -256.996)" fill="#8e8b5e"/>
    </g>
    <g id="Grupo_176385" data-name="Grupo 176385" transform="translate(197.409 262.214)">
      <path id="Trazado_224510" data-name="Trazado 224510" d="M195.372,257.73l-2.866,3.031a.421.421,0,0,0,.6.6l2.866-3.03a.421.421,0,0,0-.6-.6Z" transform="translate(-192.385 -257.609)" fill="#8e8b5e"/>
    </g>
    <g id="Grupo_176386" data-name="Grupo 176386" transform="translate(192.942 298.482)">
      <path id="Trazado_224511" data-name="Trazado 224511" d="M188.269,293.444a13.613,13.613,0,0,1,3.136,2.628.422.422,0,0,0,.6-.6,14.393,14.393,0,0,0-3.307-2.759.422.422,0,0,0-.425.728Z" transform="translate(-188.069 -292.652)" fill="#8e8b5e"/>
    </g>
    <g id="Grupo_176387" data-name="Grupo 176387" transform="translate(193.467 297.347)">
      <path id="Trazado_224512" data-name="Trazado 224512" d="M190.706,291.865a19.014,19.014,0,0,1-2.07,3.706.425.425,0,0,0,.151.576.429.429,0,0,0,.576-.151,19.933,19.933,0,0,0,2.155-3.907.424.424,0,0,0-.294-.518.431.431,0,0,0-.518.294Z" transform="translate(-188.576 -291.555)" fill="#8e8b5e"/>
    </g>
    <g id="Grupo_176388" data-name="Grupo 176388" transform="translate(163.461 302.853)">
      <path id="Trazado_224513" data-name="Trazado 224513" d="M159.79,297.656l3.493,1.86a.421.421,0,0,0,.425-.728l-3.494-1.86a.421.421,0,0,0-.424.728Z" transform="translate(-159.584 -296.876)" fill="#8e8b5e"/>
    </g>
    <g id="Grupo_176389" data-name="Grupo 176389" transform="translate(164.037 301.479)">
      <path id="Trazado_224514" data-name="Trazado 224514" d="M161.925,295.751a24.818,24.818,0,0,0-1.765,3.661.424.424,0,0,0,.294.517.431.431,0,0,0,.519-.294,23.439,23.439,0,0,1,1.68-3.459.422.422,0,0,0-.728-.425Z" transform="translate(-160.14 -295.548)" fill="#8e8b5e"/>
    </g>
  </g>
</svg>
