<svg xmlns="http://www.w3.org/2000/svg" width="70" height="73.387" viewBox="0 0 70 73.387">
  <g id="clima" transform="translate(-0.298)">
    <g id="Grupo_176766" data-name="Grupo 176766" transform="translate(0.298 3.435)">
      <ellipse id="Elipse_7755" data-name="Elipse 7755" cx="35" cy="34.976" rx="35" ry="34.976" transform="translate(0 0)" fill="#0182fc"/>
    </g>
    <g id="Grupo_176784" data-name="Grupo 176784" transform="translate(4.68 0)">
      <g id="Grupo_176770" data-name="Grupo 176770" transform="translate(1.17)">
        <g id="Grupo_176767" data-name="Grupo 176767">
          <path id="Trazado_224996" data-name="Trazado 224996" d="M55.366,21.8,54.1,25a.439.439,0,0,0,.436.6l.094-.006a5.933,5.933,0,0,1,3.069-.851H59.38a.146.146,0,0,0,.145-.166,6.419,6.419,0,0,1-.062-.879,6.329,6.329,0,0,1,10.557-4.71.146.146,0,0,0,.1.037.142.142,0,0,0,.029,0,.146.146,0,0,0,.1-.081,9.56,9.56,0,0,1,10.909-5.264l-.266-.168a3.192,3.192,0,0,1-1.258-3.871l1.266-3.2a.439.439,0,0,0-.436-.6l-3.431.218a3.192,3.192,0,0,1-3.3-2.395L72.889.328A.439.439,0,0,0,72.184.1L69.538,2.293a3.192,3.192,0,0,1-4.074,0L62.817.1a.439.439,0,0,0-.705.229l-.851,3.33a3.192,3.192,0,0,1-3.3,2.395l-3.431-.218a.439.439,0,0,0-.436.6l1.266,3.2A3.192,3.192,0,0,1,54.108,13.5l-2.9,1.842a.439.439,0,0,0,0,.741l2.9,1.842A3.192,3.192,0,0,1,55.366,21.8Z" transform="translate(-51.001 0.002)" fill="#fef48b"/>
          <path id="Trazado_224997" data-name="Trazado 224997" d="M104.229,51.231a6.318,6.318,0,0,1,4.227,1.62.146.146,0,0,0,.1.037.142.142,0,0,0,.029,0,.146.146,0,0,0,.1-.081,9.616,9.616,0,0,1,6.93-5.368,9.915,9.915,0,1,0-17.45,8.3A6.341,6.341,0,0,1,104.229,51.231Z" transform="translate(-89.438 -33.866)" fill="#fee903"/>
          <path id="Trazado_224998" data-name="Trazado 224998" d="M116.183,63.184a6.318,6.318,0,0,1,4.227,1.62.146.146,0,0,0,.1.037.142.142,0,0,0,.029,0,.146.146,0,0,0,.1-.081,9.6,9.6,0,0,1,4.965-4.775,7.869,7.869,0,1,0-14.426,5.662,6.321,6.321,0,0,1,5-2.459Z" transform="translate(-101.391 -45.819)" fill="#fea613"/>
          <path id="Trazado_224999" data-name="Trazado 224999" d="M115.53,63.218a7.871,7.871,0,0,1,5.024-9.086,7.869,7.869,0,0,0-9.374,11.512,6.327,6.327,0,0,1,4.35-2.426Z" transform="translate(-101.392 -45.82)" fill="#fe9901"/>
        </g>
        <g id="Grupo_176769" data-name="Grupo 176769" transform="translate(0.58 12.213)">
          <path id="Trazado_225000" data-name="Trazado 225000" d="M149.637,255.371H140a.407.407,0,0,1-.355-.606l2.214-3.957h-7.8l-5.317,9.5a.407.407,0,0,0,.355.606h8.079a.407.407,0,0,1,.355.606l-8.057,14.4a.407.407,0,0,0,.647.483l19.805-20.339a.407.407,0,0,0-.291-.691Z" transform="translate(-117.91 -227.389)" fill="#fee903"/>
          <g id="Grupo_176768" data-name="Grupo 176768" transform="translate(10.782 23.419)">
            <path id="Trazado_225001" data-name="Trazado 225001" d="M144.21,320.522a.407.407,0,0,0-.355-.606h-2.421a.407.407,0,0,1,.355.606l-8.057,14.4a.407.407,0,0,0,.647.483l3.537-3.632Z" transform="translate(-132.947 -309.809)" fill="#f4d902"/>
            <path id="Trazado_225002" data-name="Trazado 225002" d="M131.165,260.309l5.317-9.5h-2.421l-5.317,9.5a.407.407,0,0,0,.355.606h2.421A.407.407,0,0,1,131.165,260.309Z" transform="translate(-128.692 -250.808)" fill="#f4d902"/>
          </g>
          <path id="Trazado_225003" data-name="Trazado 225003" d="M91.943,99.137a9.713,9.713,0,0,0-18.438-2.849,6.473,6.473,0,0,0-10.737,5.718H61.085a6.116,6.116,0,0,0,0,12.232H91.943Z" transform="translate(-54.969 -90.674)" fill="#fff"/>
          <path id="Trazado_225004" data-name="Trazado 225004" d="M82.312,90.674a9.713,9.713,0,0,0-8.807,5.615,6.473,6.473,0,0,0-10.737,5.718H61.085a6.11,6.11,0,0,0-3.507,11.118,6.115,6.115,0,0,1,5.993-7.336h1.2a.436.436,0,0,0,.438-.462q-.015-.217-.015-.437a6.475,6.475,0,0,1,10.393-5.156.438.438,0,0,0,.65-.147A9.71,9.71,0,0,1,91.453,97.1,9.718,9.718,0,0,0,82.312,90.674Z" transform="translate(-54.969 -90.674)" fill="#f2fbff"/>
        </g>
      </g>
      <g id="Grupo_176783" data-name="Grupo 176783" transform="translate(31.21 7.751)">
        <g id="Grupo_176776" data-name="Grupo 176776">
          <g id="Grupo_176771" data-name="Grupo 176771" transform="translate(0 0)">
            <path id="Trazado_225005" data-name="Trazado 225005" d="M281.157,89.988a1.422,1.422,0,0,1-.694-1.221V58.329a5.425,5.425,0,0,0-10.849,0V88.767a1.431,1.431,0,0,1-.7,1.226,11.532,11.532,0,0,0-5.665,9.946,11.795,11.795,0,0,0,23.584-.05A11.534,11.534,0,0,0,281.157,89.988Z" transform="translate(-263.247 -53)" fill="#fff"/>
          </g>
          <path id="Trazado_225006" data-name="Trazado 225006" d="M332.866,77.19a1.889,1.889,0,0,0-1.887,1.887v23.372h3.773V79.077A1.889,1.889,0,0,0,332.866,77.19Z" transform="translate(-321.073 -73.652)" fill="#c8effe"/>
          <g id="Grupo_176772" data-name="Grupo 176772" transform="translate(3.538 25.861)">
            <path id="Trazado_225007" data-name="Trazado 225007" d="M293.805,238.886v10.9a8.254,8.254,0,1,0,3.773,0v-10.9a1.887,1.887,0,1,0-3.773,0Z" transform="translate(-287.437 -236.999)" fill="#8ebac5"/>
          </g>
          <g id="Grupo_176773" data-name="Grupo 176773">
            <path id="Trazado_225008" data-name="Trazado 225008" d="M265.68,101.079a11.529,11.529,0,0,1,5.665-9.944,1.431,1.431,0,0,0,.7-1.226V59.477a5.377,5.377,0,0,1,5.424-5.328,5.551,5.551,0,0,1,1.059.1A5.461,5.461,0,0,0,275.04,53a5.377,5.377,0,0,0-5.424,5.328V88.76a1.431,1.431,0,0,1-.7,1.226,11.53,11.53,0,0,0-5.665,9.944,11.66,11.66,0,0,0,7.963,10.9A11.572,11.572,0,0,1,265.68,101.079Z" transform="translate(-263.247 -53)" fill="#f2fbff"/>
          </g>
          <g id="Grupo_176774" data-name="Grupo 176774" transform="translate(8.019 42.908)">
            <ellipse id="Elipse_7756" data-name="Elipse 7756" cx="3.773" cy="3.773" rx="3.773" ry="3.773" fill="#fe646f"/>
          </g>
          <g id="Grupo_176775" data-name="Grupo 176775" transform="translate(8.019 42.908)">
            <path id="Trazado_225009" data-name="Trazado 225009" d="M320.535,357.338a3.779,3.779,0,0,1,2.545-3.567,3.773,3.773,0,1,0,0,7.134A3.779,3.779,0,0,1,320.535,357.338Z" transform="translate(-318.078 -353.564)" fill="#fd4755"/>
          </g>
        </g>
        <g id="Grupo_176782" data-name="Grupo 176782" transform="translate(15.083 11.37)">
          <g id="Grupo_176777" data-name="Grupo 176777" transform="translate(0 20.182)">
            <path id="Trazado_225010" data-name="Trazado 225010" d="M368.513,271h-1.037a1.1,1.1,0,1,0,0,2.194h1.037Z" transform="translate(-366.379 -271)" fill="#c8effe"/>
          </g>
          <g id="Grupo_176778" data-name="Grupo 176778" transform="translate(0 15.137)">
            <path id="Trazado_225011" data-name="Trazado 225011" d="M366.38,237.6a1.1,1.1,0,0,0,1.1,1.1h1.037V236.5h-1.037A1.1,1.1,0,0,0,366.38,237.6Z" transform="translate(-366.38 -236.5)" fill="#c8effe"/>
          </g>
          <g id="Grupo_176779" data-name="Grupo 176779" transform="translate(0)">
            <path id="Trazado_225012" data-name="Trazado 225012" d="M366.38,134.1a1.1,1.1,0,0,0,1.1,1.1h1.037V133h-1.037A1.1,1.1,0,0,0,366.38,134.1Z" transform="translate(-366.38 -133)" fill="#c8effe"/>
          </g>
          <g id="Grupo_176780" data-name="Grupo 176780" transform="translate(0 10.091)">
            <path id="Trazado_225013" data-name="Trazado 225013" d="M366.38,203.1a1.1,1.1,0,0,0,1.1,1.1h1.037V202h-1.037A1.1,1.1,0,0,0,366.38,203.1Z" transform="translate(-366.38 -202)" fill="#c8effe"/>
          </g>
          <g id="Grupo_176781" data-name="Grupo 176781" transform="translate(0 5.046)">
            <path id="Trazado_225014" data-name="Trazado 225014" d="M366.38,168.6a1.1,1.1,0,0,0,1.1,1.1h1.037V167.5h-1.037A1.1,1.1,0,0,0,366.38,168.6Z" transform="translate(-366.38 -167.5)" fill="#c8effe"/>
          </g>
        </g>
      </g>
      <path id="Trazado_225015" data-name="Trazado 225015" d="M408.8,250.13l-1.809-1.044,1.809-1.044a1.1,1.1,0,1,0-1.1-1.9l-1.809,1.044V245.1a1.1,1.1,0,0,0-2.194,0v2.088l-1.808-1.044a1.1,1.1,0,1,0-1.1,1.9l1.809,1.044L400.8,250.13a1.1,1.1,0,1,0,1.1,1.9l1.809-1.044v2.088a1.1,1.1,0,1,0,2.194,0v-2.088l1.809,1.044a1.1,1.1,0,1,0,1.1-1.9Z" transform="translate(-349.002 -208.959)" fill="#01c0fa"/>
      <path id="Trazado_225016" data-name="Trazado 225016" d="M197.8,403.592l-1.809-1.044L197.8,401.5a1.1,1.1,0,0,0-1.1-1.9l-1.809,1.044v-2.089a1.1,1.1,0,0,0-2.194,0v2.088l-1.808-1.044a1.1,1.1,0,0,0-1.1,1.9l1.809,1.044-1.809,1.044a1.1,1.1,0,1,0,1.1,1.9l1.808-1.044v2.088a1.1,1.1,0,1,0,2.194,0v-2.088l1.809,1.044a1.1,1.1,0,0,0,1.1-1.9Z" transform="translate(-168.269 -340.383)" fill="#c8effe"/>
      <path id="Trazado_225017" data-name="Trazado 225017" d="M51.554,277.592l-1.809-1.044,1.809-1.044a1.1,1.1,0,0,0-1.1-1.9l-1.809,1.044v-2.089a1.1,1.1,0,0,0-2.194,0v2.088L44.646,273.6a1.1,1.1,0,1,0-1.1,1.9l1.809,1.044-1.809,1.044a1.1,1.1,0,1,0,1.1,1.9l1.808-1.044v2.088a1.1,1.1,0,1,0,2.194,0v-2.088l1.809,1.044a1.1,1.1,0,0,0,1.1-1.9Z" transform="translate(-43.001 -232.477)" fill="#01c0fa"/>
    </g>
  </g>
</svg>
