<svg xmlns="http://www.w3.org/2000/svg" width="190" height="134" viewBox="0 0 190 134">
  <g id="Grupo_175201" data-name="Grupo 175201" transform="translate(-180 -5013)">
    <rect id="Rectángulo_33791" data-name="Rectángulo 33791" width="190" height="134" transform="translate(180 5013)" fill="#fff"/>
    <g id="evolucion" transform="translate(214.001 5018.997)">
      <g id="Grupo_175204" data-name="Grupo 175204" transform="translate(10.486 10.489)">
        <g id="Grupo_175202" data-name="Grupo 175202" transform="translate(10.816 9.634)">
          <path id="Trazado_222570" data-name="Trazado 222570" d="M72.9,429.182c1.27,1.623,1.589,4.335,1.789,5.654-1.76-.48-4.045-.916-5.465-2.3a7.461,7.461,0,0,1-1.856-3.439l-.437-1.782C69.7,426.889,70.958,426.7,72.9,429.182Z" transform="translate(-66.93 -349.393)" fill="#c6ea94" fill-rule="evenodd"/>
          <path id="Trazado_222571" data-name="Trazado 222571" d="M363.145,90.43c2.7-4.035,6.049-8.936,6.424-13.9.4-5.305-2.463-11.331-6.425-15.171-3.961,3.841-6.725,10.058-6.424,15.171S360.623,86.452,363.145,90.43Z" transform="translate(-295.158 -61.36)" fill="#c6ea94" fill-rule="evenodd"/>
          <path id="Trazado_222572" data-name="Trazado 222572" d="M301.315,202.3c1.118-3.257,3.188-10,7.167-13.531s10.507-4.9,15.963-4.079c-.656,5.478-3.928,11.443-8.179,14.3s-10.258,2.9-14.95,3.308c-1.118-3.257-3.188-10-7.167-13.531s-10.507-4.9-15.963-4.079c.656,5.478,3.928,11.443,8.179,14.3S296.623,201.9,301.315,202.3Z" transform="translate(-233.32 -158.316)" fill="#afe269" fill-rule="evenodd"/>
          <path id="Trazado_222573" data-name="Trazado 222573" d="M301.315,294.127c1.118-3.257,3.188-10,7.167-13.531s10.507-4.9,15.963-4.079c-.656,5.478-3.928,11.443-8.179,14.3s-10.258,2.9-14.95,3.308c-1.118-3.257-3.188-10-7.167-13.531s-10.507-4.9-15.963-4.079c.656,5.478,3.928,11.443,8.179,14.3S296.623,293.724,301.315,294.127Z" transform="translate(-233.32 -230.64)" fill="#9acd68" fill-rule="evenodd"/>
          <path id="Trazado_222574" data-name="Trazado 222574" d="M190.553,324.507c1.931-2.883,4.338-6.422,4.605-9.964.287-3.8-1.766-8.122-4.606-10.876-2.84,2.753-4.821,7.21-4.605,10.876S188.746,321.656,190.553,324.507Z" transform="translate(-160.658 -252.208)" fill="#c6ea94" fill-rule="evenodd"/>
          <path id="Trazado_222575" data-name="Trazado 222575" d="M146.229,404.706c.8-2.334,2.286-7.167,5.137-9.7s7.532-3.515,11.443-2.924c-.47,3.927-2.816,8.2-5.863,10.253s-7.354,2.082-10.717,2.371c-.8-2.334-2.286-7.167-5.138-9.7s-7.532-3.515-11.443-2.924c.47,3.927,2.816,8.2,5.863,10.253S142.865,404.417,146.229,404.706Z" transform="translate(-116.328 -321.714)" fill="#afe269" fill-rule="evenodd"/>
        </g>
        <g id="Grupo_175203" data-name="Grupo 175203" transform="translate(0 0)">
          <path id="Trazado_222576" data-name="Trazado 222576" d="M43.874,18.487a5.9,5.9,0,0,0,6.8,6.8,5.9,5.9,0,0,0,2.49,9.291,5.9,5.9,0,0,0-2.49,9.291,5.9,5.9,0,0,0-6.8,6.8,5.9,5.9,0,0,0-9.291,2.49,5.9,5.9,0,0,0-9.291-2.49,5.9,5.9,0,0,0-6.8-6.8A5.9,5.9,0,0,0,16,34.581a5.9,5.9,0,0,0,2.49-9.291,5.9,5.9,0,0,0,6.8-6.8A5.9,5.9,0,0,0,34.583,16a5.9,5.9,0,0,0,9.291,2.489Z" transform="translate(-16 -15.998)" fill="#fdcd56" fill-rule="evenodd"/>
          <circle id="Elipse_7713" data-name="Elipse 7713" cx="9.477" cy="9.477" r="9.477" transform="translate(5.178 18.583) rotate(-45)" fill="#f5b945"/>
        </g>
      </g>
      <path id="Trazado_222577" data-name="Trazado 222577" d="M26.1,101.882a7.1,7.1,0,0,1,1.1,2.691,6.405,6.405,0,0,1-2.564-1.319,6.244,6.244,0,0,1-1.561-3.211A5.914,5.914,0,0,1,26.1,101.882Zm21.973-19.51A13.61,13.61,0,0,1,51.2,73.781a12.8,12.8,0,0,1,3.116,8.565c-.186,2.459-1.632,5.061-3.11,7.361C49.73,87.416,48.223,84.881,48.075,82.372Zm-6.76,17.138a13.616,13.616,0,0,1-4.94-7.695,12.8,12.8,0,0,1,8.7,2.71c1.871,1.661,3.151,4.649,3.98,6.933C46.336,101.25,43.405,100.917,41.315,99.511Zm16.012-4.985A12.624,12.624,0,0,1,65.476,91.8c.185,0,.369,0,.554.011a13.621,13.621,0,0,1-4.94,7.695c-2.09,1.406-5.022,1.739-7.743,1.949C54.176,99.175,55.456,96.187,57.327,94.526ZM84.348,35.205c-.244-4.15,1.75-9.271,4.943-12.927,3.3,3.734,5.253,8.754,4.939,12.9-.291,3.844-2.664,7.856-4.925,11.3C87.057,43.031,84.579,39.143,84.348,35.205ZM75.176,79.067c-3.45-2.32-6.317-7.008-7.292-11.764,4.969-.365,10.147,1.124,13.259,3.886C84.1,73.813,86,78.641,87.16,81.956c-4.111-.3-8.71-.687-11.985-2.888Zm0-19.5c-3.45-2.321-6.317-7.009-7.292-11.766,4.969-.363,10.147,1.123,13.259,3.886C84.1,54.313,86,59.138,87.16,62.453c-4.11-.3-8.71-.684-11.985-2.886Zm22.274-7.88c2.8-2.486,7.278-3.939,11.769-3.939.5,0,.994.017,1.49.053-.975,4.757-3.842,9.445-7.292,11.766-3.275,2.2-7.874,2.584-11.985,2.886C92.59,59.138,94.5,54.313,97.45,51.687Zm0,19.5c2.8-2.488,7.278-3.941,11.769-3.941.5,0,.994.017,1.49.055-.975,4.756-3.842,9.445-7.292,11.764-3.275,2.2-7.874,2.584-11.985,2.888C92.59,78.641,94.5,73.813,97.45,71.19Zm14.976,39.753H90.775V84.984c.192-.013.382-.028.577-.043,4.554-.334,9.715-.71,13.725-3.407,4.474-3.007,8.1-9.323,8.826-15.359a1.486,1.486,0,0,0-1.254-1.646c-6.222-.943-13.123.84-17.172,4.436a21.1,21.1,0,0,0-4.7,6.67V65.484c.192-.015.382-.029.577-.042,4.554-.334,9.715-.711,13.724-3.407,4.474-3.01,8.1-9.325,8.826-15.359a1.488,1.488,0,0,0-1.254-1.648c-6.222-.941-13.123.842-17.172,4.438a21.108,21.108,0,0,0-4.7,6.669V49.643c2.7-4.033,6.028-9.041,6.42-14.237.408-5.4-2.354-11.97-6.873-16.351a1.487,1.487,0,0,0-2.069,0C83.89,23.285,81.063,30,81.38,35.382c.284,4.823,3.11,9.158,5.6,12.982.281.432.553.849.818,1.264V56.1a21.045,21.045,0,0,0-4.685-6.637c-4.049-3.6-10.949-5.379-17.172-4.438a1.487,1.487,0,0,0-1.253,1.648c.723,6.034,4.351,12.349,8.825,15.359,4.009,2.7,9.171,3.073,13.724,3.407l.562.04V75.6a21.039,21.039,0,0,0-4.685-6.638c-4.049-3.6-10.949-5.379-17.172-4.436a1.485,1.485,0,0,0-1.253,1.646c.723,6.036,4.351,12.352,8.825,15.359,4.009,2.7,9.171,3.073,13.725,3.407l.561.043v25.958H52.683V104.49h.022c3.153-.231,7.077-.519,10.044-2.514,3.3-2.22,5.979-6.87,6.51-11.31a1.487,1.487,0,0,0-1.254-1.646c-4.65-.7-9.616.585-12.652,3.282a13.631,13.631,0,0,0-2.67,3.394V92.874c1.949-2.916,4.315-6.514,4.6-10.305.306-4.05-1.678-8.781-5.054-12.054a1.487,1.487,0,0,0-2.069,0c-3.21,3.111-5.288,8.06-5.055,12.031.21,3.568,2.358,6.864,4.084,9.513.177.271.349.537.519.8v2.821A13.663,13.663,0,0,0,47.052,92.3c-3.037-2.7-8-3.984-12.652-3.282a1.487,1.487,0,0,0-1.254,1.646c.531,4.439,3.208,9.09,6.51,11.31,2.967,2,6.891,2.283,10.043,2.514h.011v6.452H18.175c-.1-.607-.238-1.259-.392-1.962-.828-3.78-1.255-6.8,1.325-8.467a5.114,5.114,0,0,1,.954-.487,9.365,9.365,0,0,0,2.5,5.358c1.513,1.474,3.668,2.033,5.4,2.482.245.062.484.125.713.187a1.46,1.46,0,0,0,.391.053,1.486,1.486,0,0,0,1.47-1.71l-.043-.293c-.232-1.584-.621-4.235-2.045-6.055a9.4,9.4,0,0,0-6.923-3.234A7.366,7.366,0,0,0,15,100.7c-1.454,2.839-.684,6.359-.125,8.913.1.462.2.909.278,1.325H10.486a1.487,1.487,0,1,0,0,2.973h101.94a1.487,1.487,0,0,0,0-2.973ZM29.069,21.08a7.991,7.991,0,1,1-7.99,7.992A8,8,0,0,1,29.069,21.08Zm0,18.954A10.964,10.964,0,1,1,40.033,29.072,10.976,10.976,0,0,1,29.069,40.034ZM15.547,25.449a7.364,7.364,0,0,0-.107-4.243A7.453,7.453,0,0,0,21.2,15.448a7.456,7.456,0,0,0,7.869-2.111,7.489,7.489,0,0,0,7.862,2.1,7.455,7.455,0,0,0,5.759,5.764A7.453,7.453,0,0,0,44.8,29.074,7.5,7.5,0,0,0,42.7,36.936,7.453,7.453,0,0,0,36.935,42.7a7.444,7.444,0,0,0-7.869,2.111,7.363,7.363,0,0,0-3.62-2.215,7.6,7.6,0,0,0-1.959-.259A7.2,7.2,0,0,0,21.2,42.7a7.454,7.454,0,0,0-5.759-5.764,7.455,7.455,0,0,0-2.111-7.869,7.358,7.358,0,0,0,2.214-3.618ZM9.966,30.463a1.486,1.486,0,0,1,0-2.784,4.44,4.44,0,0,0,1.863-6.953,1.487,1.487,0,0,1,1.393-2.412,4.419,4.419,0,0,0,5.089-5.089,1.487,1.487,0,0,1,2.412-1.393,4.421,4.421,0,0,0,6.952-1.863,1.487,1.487,0,0,1,2.786,0,4.437,4.437,0,0,0,6.952,1.863,1.487,1.487,0,0,1,2.412,1.393,4.419,4.419,0,0,0,5.09,5.089,1.487,1.487,0,0,1,1.393,2.412,4.422,4.422,0,0,0,1.863,6.953,1.486,1.486,0,0,1,0,2.784,4.44,4.44,0,0,0-1.863,6.953,1.486,1.486,0,0,1-1.393,2.413,4.421,4.421,0,0,0-5.09,5.089,1.487,1.487,0,0,1-2.412,1.393,4.422,4.422,0,0,0-6.952,1.863,1.486,1.486,0,0,1-2.786,0,4.44,4.44,0,0,0-6.953-1.863,1.487,1.487,0,0,1-2.412-1.393,4.42,4.42,0,0,0-5.089-5.089,1.486,1.486,0,0,1-1.393-2.413,4.422,4.422,0,0,0-1.863-6.953Z" transform="translate(0 0)" fill-rule="evenodd"/>
    </g>
  </g>
</svg>
