<svg xmlns="http://www.w3.org/2000/svg" width="70" height="70" viewBox="0 0 70 70">
  <g id="reducir" transform="translate(-41)">
    <g id="Grupo_176790" data-name="Grupo 176790" transform="translate(41)">
      <path id="Trazado_225054" data-name="Trazado 225054" d="M76,70A35,35,0,0,1,51.251,10.251a35,35,0,0,1,49.5,49.5A34.771,34.771,0,0,1,76,70Z" transform="translate(-41 0)" fill="#fff36c"/>
      <path id="Trazado_225055" data-name="Trazado 225055" d="M280.813,10.251A34.906,34.906,0,0,0,256,0V70a34.981,34.981,0,0,0,24.813-59.749Z" transform="translate(-221.09)" fill="#ffd422"/>
      <ellipse id="Elipse_7758" data-name="Elipse 7758" cx="25.102" cy="25.102" rx="25.102" ry="25.102" transform="translate(10.077 9.937)" fill="#ffd422"/>
      <path id="Trazado_225056" data-name="Trazado 225056" d="M256,60v50.415A25.208,25.208,0,1,0,256,60Z" transform="translate(-221.09 -50.207)" fill="#ff9f22"/>
      <path id="Trazado_225057" data-name="Trazado 225057" d="M216.875,127.174c-.378-.134-.763-.273-1.149-.416v-6.9a3,3,0,0,1,1.123.649,2.04,2.04,0,0,0,3.066-2.692,7.239,7.239,0,0,0-4.189-2.146V114.54a2.04,2.04,0,0,0-4.08,0v1.351q-.214.056-.433.121a7.011,7.011,0,0,0-4.807,5.5,6.221,6.221,0,0,0,2.054,6.128,15.483,15.483,0,0,0,3.186,1.859v8.963a6.426,6.426,0,0,1-2.882-1.212,2.04,2.04,0,1,0-2.234,3.415,10.1,10.1,0,0,0,5.116,1.9v1.356a2.04,2.04,0,0,0,4.08,0v-1.547a8.127,8.127,0,0,0,3.592-1.926,8.52,8.52,0,0,0,2.624-4.839,7.367,7.367,0,0,0-5.067-8.432Zm-5.229-2.285a7.776,7.776,0,0,1-.668-.463,2.23,2.23,0,0,1-.562-2.162,3.157,3.157,0,0,1,1.23-1.983Zm6.273,10.041a4.388,4.388,0,0,1-2.192,3.1V131.1A3.309,3.309,0,0,1,217.918,134.93Z" transform="translate(-178.831 -94.229)" fill="#fff36c"/>
      <path id="Trazado_225058" data-name="Trazado 225058" d="M259.044,127.212c-.378-.134-.763-.273-1.149-.416v-6.9a3,3,0,0,1,1.123.649,2.04,2.04,0,0,0,3.066-2.692A7.239,7.239,0,0,0,257.9,115.7v-1.125a2.039,2.039,0,0,0-1.9-2.033v33.444a2.039,2.039,0,0,0,1.9-2.033v-1.547a8.127,8.127,0,0,0,3.592-1.926,8.52,8.52,0,0,0,2.624-4.839A7.367,7.367,0,0,0,259.044,127.212Zm1.043,7.756a4.388,4.388,0,0,1-2.192,3.1v-6.931A3.309,3.309,0,0,1,260.087,134.967Z" transform="translate(-221.012 -94.267)" fill="#ffd422"/>
    </g>
  </g>
</svg>
