<svg xmlns="http://www.w3.org/2000/svg" xmlns:xlink="http://www.w3.org/1999/xlink" width="1328" height="65.873" viewBox="0 0 1328 65.873">
  <defs>
    <linearGradient id="linear-gradient" x1="0.421" y1="0.326" x2="0.422" y2="1.278" gradientUnits="objectBoundingBox">
      <stop offset="0.098" stop-color="#c1d837"/>
      <stop offset="0.258" stop-color="#b9d538"/>
      <stop offset="0.498" stop-color="#a4ce3b"/>
      <stop offset="0.736" stop-color="#8ac640"/>
      <stop offset="0.796" stop-color="#83c240"/>
      <stop offset="0.882" stop-color="#70b742"/>
      <stop offset="0.983" stop-color="#51a745"/>
      <stop offset="0.999" stop-color="#4ca446"/>
    </linearGradient>
    <linearGradient id="linear-gradient-2" x1="-10.278" y1="2.946" x2="-10.112" y2="27.939" gradientUnits="objectBoundingBox">
      <stop offset="0.336" stop-color="#8ac640"/>
      <stop offset="0.487" stop-color="#83c240"/>
      <stop offset="0.704" stop-color="#70b742"/>
      <stop offset="0.959" stop-color="#51a745"/>
      <stop offset="0.999" stop-color="#4ca446"/>
    </linearGradient>
    <linearGradient id="linear-gradient-3" x1="0.421" y1="0.295" x2="0.422" y2="1.248" xlink:href="#linear-gradient"/>
    <linearGradient id="linear-gradient-4" x1="-10.082" y1="2.074" x2="-9.917" y2="27.067" xlink:href="#linear-gradient-2"/>
    <linearGradient id="linear-gradient-5" x1="0.421" y1="0.265" x2="0.422" y2="1.217" xlink:href="#linear-gradient"/>
    <linearGradient id="linear-gradient-6" x1="-10.111" y1="1.276" x2="-9.946" y2="26.267" xlink:href="#linear-gradient-2"/>
  </defs>
  <g id="Grupo_175279" data-name="Grupo 175279" transform="translate(438.67 -155.088)">
    <g id="Grupo_175274" data-name="Grupo 175274" transform="translate(-438.67 155.935)">
      <path id="Trazado_222750" data-name="Trazado 222750" d="M20.266,172.72c-4.369,8.389-7.145,27.962-7.145,27.962C12.142,173.292-2.5,168.641-2.5,168.641c-1.74,33.166-15.788,37.176-15.788,37.176-5.422-21.362,9.29-42.448,9.29-42.448-32.564,8.25-40.281,47.306-40.281,47.306-9.689-20.926.115-37.8.115-37.8-13.327,11.392-16.8,23.357-17.547,30.644-1.616-29.5-19.858-38.091-19.858-38.091,5.835,32.66-5.571,44.968-5.571,44.968-6.962-22.874.142-37.132.142-37.132-24.467,15.448-32.691,36.9-32.691,36.9a109.538,109.538,0,0,1,9.93-47.489c-27.667,6.966-39.72,39.514-39.72,39.514-.994-30.668-16.244-40.57-16.244-40.57,8.513,26.772-.613,41.739-.613,41.739,2.809-15.63-7.469-26.1-7.469-26.1-1.169,17.532-24.517,28.442-24.517,28.442a32.635,32.635,0,0,1,4.416-22.415c-30.385,4.674-35.889,26.173-35.889,26.173-2.627-22.187,9.334-35.823,9.334-35.823-30.4,10.932-32.641,35.686-32.641,35.686-3.183-26.153-23.224-35.388-23.224-35.388,7.526,18.291-.116,35.2-.116,35.2a62.647,62.647,0,0,1-3.192-15.677c-8.7,5.155-11.967,11.62-11.967,11.62,2.727-9.052,5.469-13.615,5.469-13.615-21.715,5.683-25.569,17.443-25.569,17.443.613-20.859,16.909-26.312,16.909-26.312-24.949-.481-33.7,18.357-33.7,18.357,1.716-22.826,8.256-37.105,8.256-37.105-32.583,10.221-35.9,36.946-35.9,36.946-8.611-18.954-7.964-45.039-7.964-45.039-8.214,14.3-7.759,42.953-7.759,42.953-8.039-35.894-36.278-24.982-36.278-24.982,19.51,4.01,26.249,21.979,26.249,21.979-27.574-29.039-51.787-6.487-51.787-6.487,33.518-4.858,41.1,31.562,41.1,31.562l435.032-.389C20.7,201.347,20.266,172.72,20.266,172.72Z" transform="translate(438.67 -155.758)" fill="url(#linear-gradient)"/>
      <g id="Grupo_175273" data-name="Grupo 175273" transform="translate(0 13.341)" opacity="0.52">
        <path id="Trazado_222751" data-name="Trazado 222751" d="M-190.464,168.769a19.5,19.5,0,0,1,3.474-2.453A12.536,12.536,0,0,0-190.464,168.769Z" transform="translate(504.084 -166.316)" fill="url(#linear-gradient-2)"/>
        <path id="Trazado_222752" data-name="Trazado 222752" d="M18.325,187.625c-3.878,19.16,4.75,27.413,4.75,27.413-13.1-.575-11.6-11.781-11.6-11.781-4.633,12.95-22.553,10.268-22.553,10.268C4.957,204.838.712,182.306.712,182.306c-3.654,33.166-33.187,32.363-33.187,32.363-4.791-27.113,9.051-41.371,9.051-41.371-15.788,13.293-17.72,40.661-17.72,40.661l-6.524-.045c-16.8-7.976-11.041-28.742-11.041-28.742-7.65,18.862-.1,29.337-.1,29.337-8.943-2.7-7.9-14.279-7.9-14.279-.944,17.421-11.9,15.631-11.9,15.631a49.053,49.053,0,0,0,.646-31.811c3.177,31.376-12.574,31.743-12.574,31.743l-17.886-.138a40.859,40.859,0,0,1,3.067-28.857,46.671,46.671,0,0,0-16.371,28.789l-12.732-.068c-6.771-3.371-4.052-19.048-4.052-19.048,3.73-16.937,9.647-24.752,13.459-28.214-11.181,9.052-16.775,26.816-22.676,36.879-7.651,12.926-25.512,9.786-25.512,9.786,21.45-17.534,8.255-44.487,8.255-44.487,9.084,47.627-31.306,44.28-31.306,44.28,12.739-4.285,15.807-22.117,15.807-22.117-8.5,23.148-42.679,21.935-42.679,21.935-2.651-17.419,10.1-24.547,10.1-24.547-15.467,6.715-15.516,24.523-15.516,24.523l-5.419-.023c-20.624.665-10.494-25.328-10.494-25.328C-254.2,203.645-250,215.336-250,215.336l-21.435-.139c7.1-10.864.083-23.218.083-23.218-.083,22.256-17.987,22.117-17.987,22.117-3.49-7.379.066-16.112.066-16.112-4.856,5.431-7.584,16.067-7.584,16.067-5.055-1.056-1.807-8.093-1.807-8.093-5.255,8.6-16.485,11.438-7.924-1.3,8.6-12.676,6.74-9.238-2.014.251-8.793,9.488-10.211,8.984-7.071-1.376h0a11.776,11.776,0,0,0-1.027,2.087c.565-18.658,13.594-24.937,16.386-26.083-5.627.641-13.823,6.99-17.388,18.7-4.451,14.669-9.656,15.634-9.656,15.634-1.567-17.9,9.672-26.566,9.672-26.566-14.249,10.041-16.767,23.563-16.767,23.563.032-14.118,8.122-22.255,8.188-22.323a32.879,32.879,0,0,0-7.228,9.12c.149-1.626.282-3.161.447-4.719l-2.6,7.149c-3.316,12.423-19.975,13.571-19.975,13.571.9-28.833,20.065-44.376,20.065-44.376-22.434,15.015-26.986,44.305-26.986,44.305-8.928-8.846-9.25-32.774-9.25-32.774-3.672,10.841-.091,30.3-.091,30.3-8.463-27.918-21.475-33.4-21.475-33.4,12.979,14.257,12.533,29.889,12.533,29.889-23.906-34.357-57.848-21.684-57.848-21.684,33.518-4.858,41.1,31.562,41.1,31.562L37.465,217.1C14.97,214.991,18.325,187.625,18.325,187.625Z" transform="translate(438.67 -165.804)" fill="#177139"/>
      </g>
    </g>
    <g id="Grupo_175276" data-name="Grupo 175276" transform="translate(-9.533 155.433)">
      <path id="Trazado_222753" data-name="Trazado 222753" d="M359.885,172.276c-4.385,8.48-7.145,28.007-7.145,28.007-.986-27.366-15.615-32.018-15.615-32.018-1.731,33.187-15.773,37.176-15.773,37.176-5.428-21.386,9.31-42.426,9.31-42.426-32.576,8.205-40.3,47.308-40.3,47.308-9.7-20.95.117-37.841.117-37.841-13.37,11.367-16.817,23.376-17.572,30.666-1.607-29.5-19.859-38.071-19.859-38.071,5.893,32.639-5.561,44.947-5.561,44.947-6.963-22.853.107-37.153.107-37.153-24.442,15.47-32.634,36.946-32.634,36.946a109.164,109.164,0,0,1,9.9-47.512c-27.684,6.966-39.7,39.467-39.7,39.467-.994-30.644-16.239-40.523-16.239-40.523,8.472,26.772-.6,41.716-.6,41.716,2.77-15.61-7.509-26.153-7.509-26.153-1.12,17.6-24.494,28.581-24.494,28.581a32.907,32.907,0,0,1,4.4-22.484c-30.385,4.675-35.88,26.173-35.88,26.173-2.645-22.209,9.348-35.8,9.348-35.8C83.8,184.17,81.524,208.948,81.524,208.948c-3.174-26.153-23.24-35.412-23.24-35.412,7.583,18.314-.1,35.249-.1,35.249A62.962,62.962,0,0,1,55,193.131c-8.7,5.135-11.986,11.622-11.986,11.622,2.755-9.147,5.48-13.615,5.48-13.615-21.7,5.661-25.538,17.419-25.538,17.419.6-20.881,16.875-26.291,16.875-26.291C14.9,181.786,6.182,200.58,6.182,200.58c1.674-22.8,8.238-37.06,8.238-37.06-32.6,10.177-35.947,36.9-35.947,36.9-8.588-18.953-7.965-45.059-7.965-45.059-8.181,14.3-7.733,42.973-7.733,42.973-8.031-35.87-36.254-25.006-36.254-25.006,19.5,4.036,26.241,22.027,26.241,22.027-27.568-29.039-51.8-6.555-51.8-6.555,33.536-4.861,41.121,31.56,41.121,31.56l435.021-.345C360.358,200.946,359.885,172.276,359.885,172.276Z" transform="translate(99.041 -155.361)" fill="url(#linear-gradient-3)"/>
      <g id="Grupo_175275" data-name="Grupo 175275" transform="translate(0 13.338)" opacity="0.52">
        <path id="Trazado_222754" data-name="Trazado 222754" d="M149.12,168.392a27.377,27.377,0,0,1,3.539-2.475A13.347,13.347,0,0,0,149.12,168.392Z" transform="translate(164.443 -165.917)" fill="url(#linear-gradient-4)"/>
        <path id="Trazado_222755" data-name="Trazado 222755" d="M357.955,187.268c-3.9,19.138,4.8,27.366,4.8,27.366C349.6,214.06,351.1,202.807,351.1,202.807c-4.666,13.04-22.538,10.289-22.538,10.289,16.039-8.686,11.754-31.17,11.754-31.17-3.623,33.166-33.171,32.319-33.171,32.319-4.808-27.023,9.085-41.327,9.085-41.327-15.773,13.294-17.772,40.662-17.772,40.662l-6.514-.071c-16.794-8-11.007-28.742-11.007-28.742-7.685,18.888-.109,29.314-.109,29.314-8.967-2.656-7.924-14.231-7.924-14.231-.96,17.419-11.861,15.63-11.861,15.63a49.2,49.2,0,0,0,.622-31.79c3.19,31.332-12.59,31.7-12.59,31.7l-17.9-.092a40.962,40.962,0,0,1,3.077-28.856,46.787,46.787,0,0,0-16.371,28.765l-12.74-.115c-6.754-3.323-4.036-19-4.036-19,3.738-16.935,9.674-24.774,13.411-28.214-11.1,9.032-16.736,26.818-22.612,36.855-7.657,12.951-25.544,9.856-25.544,9.856,21.475-17.6,8.3-44.532,8.3-44.532,9.051,47.628-31.354,44.281-31.354,44.281,12.781-4.242,15.831-22.118,15.831-22.118-8.5,23.172-42.67,21.935-42.67,21.935C113.816,196.8,126.6,189.605,126.6,189.605c-15.5,6.761-15.557,24.523-15.557,24.523l-5.4-.047c-20.621.711-10.5-25.3-10.5-25.3-9.715,14.509-5.514,26.2-5.514,26.2l-21.426-.16c7.08-10.887.067-23.218.067-23.218C68.2,213.831,50.3,213.692,50.3,213.692c-3.515-7.335.067-16.135.067-16.135-4.866,5.5-7.584,16.114-7.584,16.114-5.1-1.032-1.817-8.092-1.817-8.092-5.261,8.573-16.5,11.415-7.924-1.261s6.747-9.235-2.031.207c-8.8,9.465-10.2,8.984-7.052-1.4h0a9.6,9.6,0,0,0-1,2.133c.532-18.659,13.56-24.96,16.345-26.1-5.6.617-13.774,6.989-17.389,18.747-4.459,14.622-9.672,15.563-9.672,15.563-1.543-17.856,9.705-26.542,9.705-26.542-14.257,10.038-16.8,23.561-16.8,23.561.075-14.118,8.139-22.255,8.188-22.278a31.43,31.43,0,0,0-7.152,9.075c.091-1.626.224-3.161.4-4.7l-2.6,7.152c-3.307,12.446-20.008,13.546-20.008,13.546.929-28.835,20.108-44.352,20.108-44.352-22.437,15.013-27.02,44.305-27.02,44.305-8.894-8.846-9.218-32.821-9.218-32.821-3.681,10.841-.142,30.3-.142,30.3-8.413-27.918-21.434-33.4-21.434-33.4,12.98,14.258,12.515,29.911,12.515,29.911C-65.091,172.849-99.041,185.5-99.041,185.5c33.536-4.861,41.121,31.56,41.121,31.56l435.021-.345C354.589,214.587,357.955,187.268,357.955,187.268Z" transform="translate(99.041 -165.401)" fill="#177139"/>
      </g>
    </g>
    <g id="Grupo_175278" data-name="Grupo 175278" transform="translate(413.214 155.088)">
      <path id="Trazado_222756" data-name="Trazado 222756" d="M694.464,172c-4.417,8.481-7.186,27.986-7.186,27.986-.978-27.366-15.6-32.021-15.6-32.021-1.765,33.19-15.788,37.156-15.788,37.156-5.446-21.363,9.282-42.448,9.282-42.448-32.548,8.274-40.307,47.35-40.307,47.35-9.664-20.97.149-37.77.149-37.77-13.327,11.321-16.791,23.331-17.562,30.618-1.6-29.519-19.852-38.068-19.852-38.068,5.868,32.591-5.561,44.922-5.561,44.922-6.987-22.894.115-37.174.115-37.174-24.433,15.492-32.665,36.97-32.665,36.97a109.526,109.526,0,0,1,9.914-47.56C531.7,169,519.678,201.5,519.678,201.5c-1-30.692-16.221-40.523-16.221-40.523,8.5,26.77-.605,41.692-.605,41.692,2.752-15.586-7.494-26.085-7.494-26.085-1.135,17.534-24.5,28.49-24.5,28.49a32.837,32.837,0,0,1,4.4-22.485c-30.4,4.722-35.882,26.2-35.882,26.2-2.636-22.163,9.341-35.8,9.341-35.8-30.419,10.887-32.658,35.641-32.658,35.641-3.166-26.1-23.206-35.343-23.206-35.343,7.55,18.29-.134,35.181-.134,35.181a61.927,61.927,0,0,1-3.183-15.654c-8.711,5.158-11.976,11.642-11.976,11.642,2.743-9.1,5.486-13.612,5.486-13.612-21.739,5.638-25.569,17.372-25.569,17.372.629-20.857,16.916-26.288,16.916-26.288-24.958-.481-33.718,18.358-33.718,18.358,1.707-22.782,8.271-37.062,8.271-37.062C316.377,173.4,313.02,200.1,313.02,200.1c-8.578-18.954-7.982-45.015-7.982-45.015-8.164,14.255-7.749,42.952-7.749,42.952-7.989-35.892-36.237-24.983-36.237-24.983,19.519,4.035,26.241,22.026,26.241,22.026-27.593-29.063-51.763-6.578-51.763-6.578,33.545-4.836,41.112,31.582,41.112,31.582l435-.342C694.9,200.652,694.464,172,694.464,172Z" transform="translate(-235.53 -155.088)" fill="url(#linear-gradient-5)"/>
      <g id="Grupo_175277" data-name="Grupo 175277" transform="translate(0 13.341)" opacity="0.52">
        <path id="Trazado_222757" data-name="Trazado 222757" d="M483.678,168.119a30.01,30.01,0,0,1,3.53-2.473A12.857,12.857,0,0,0,483.678,168.119Z" transform="translate(-170.131 -165.646)" fill="url(#linear-gradient-6)"/>
        <path id="Trazado_222758" data-name="Trazado 222758" d="M692.468,186.971c-3.846,19.231,4.808,27.368,4.808,27.368-13.147-.575-11.613-11.805-11.613-11.805-4.675,13.018-22.561,10.292-22.561,10.292,16.028-8.71,11.76-31.17,11.76-31.17-3.647,33.166-33.229,32.339-33.229,32.339-4.741-27.068,9.118-41.347,9.118-41.347-15.74,13.247-17.736,40.66-17.736,40.66l-6.5-.045c-16.834-8-11.041-28.743-11.041-28.743-7.651,18.842-.1,29.293-.1,29.293-8.951-2.66-7.922-14.235-7.922-14.235-.972,17.421-11.919,15.634-11.919,15.634a49,49,0,0,0,.686-31.814c3.168,31.309-12.605,31.743-12.605,31.743l-17.888-.159a41.02,41.02,0,0,1,3.077-28.833,46.394,46.394,0,0,0-16.354,28.786l-12.748-.112c-6.754-3.37-4.028-19-4.028-19,3.706-16.939,9.657-24.8,13.4-28.216-11.1,9.008-16.728,26.749-22.619,36.858-7.643,12.949-25.529,9.832-25.529,9.832,21.458-17.556,8.28-44.511,8.28-44.511,9.082,47.628-31.323,44.305-31.323,44.305,12.755-4.31,15.8-22.164,15.8-22.164-8.478,23.172-42.67,22-42.67,22-2.66-17.443,10.121-24.639,10.121-24.639-15.449,6.807-15.509,24.548-15.509,24.548l-5.437-.024c-20.63.687-10.525-25.349-10.525-25.349-9.7,14.554-5.5,26.2-5.5,26.2l-21.434-.16c7.135-10.84.075-23.171.075-23.171-.075,22.233-17.987,22.094-17.987,22.094-3.482-7.311.057-16.136.057-16.136-4.807,5.477-7.567,16.111-7.567,16.111-5.063-1.054-1.806-8.089-1.806-8.089-5.239,8.547-16.5,11.39-7.906-1.285,8.578-12.7,6.763-9.214-2.015.23-8.778,9.489-10.218,8.985-7.07-1.4h0a10.7,10.7,0,0,0-1.027,2.063c.564-18.612,13.608-24.913,16.36-26.061-5.628.666-13.766,6.992-17.338,18.75-4.484,14.646-9.7,15.561-9.7,15.561-1.558-17.83,9.722-26.517,9.722-26.517-14.273,9.992-16.818,23.563-16.818,23.563.058-14.12,8.122-22.257,8.223-22.348a31.8,31.8,0,0,0-7.253,9.123c.14-1.606.273-3.185.447-4.7l-2.619,7.128c-3.257,12.47-19.95,13.592-19.95,13.592.888-28.833,20.042-44.373,20.042-44.373-22.429,14.991-26.972,44.305-26.972,44.305-8.936-8.869-9.258-32.843-9.258-32.843-3.654,10.884-.1,30.344-.1,30.344C293.807,182.525,280.828,177,280.828,177c12.945,14.3,12.49,29.957,12.49,29.957-23.847-34.425-57.788-21.751-57.788-21.751,33.545-4.836,41.112,31.582,41.112,31.582l435-.342C689.144,214.292,692.468,186.971,692.468,186.971Z" transform="translate(-235.53 -165.13)" fill="#177139"/>
      </g>
    </g>
  </g>
</svg>
