<svg id="flor" xmlns="http://www.w3.org/2000/svg" width="161" height="161" viewBox="0 0 161 161">
  <path id="Trazado_693121" data-name="Trazado 693121" d="M161,80.5q0,3.055-.227,6.052a80.4,80.4,0,0,1-73.731,74.185Q83.8,161,80.5,161t-6.545-.263a80.754,80.754,0,0,1-9.7-1.379h0a80.044,80.044,0,0,1-28.274-11.786,80.9,80.9,0,0,1-20.451-19.54A80.037,80.037,0,0,1,.227,86.55C.076,84.555,0,82.534,0,80.5a80.5,80.5,0,1,1,161,0Zm0,0" transform="translate(0)" fill="#5b9da5"/>
  <path id="Trazado_693122" data-name="Trazado 693122" d="M161.269,269.622a80.036,80.036,0,0,1-15.3,41.48,12.6,12.6,0,0,1-3.141-7.66q-.02-.354-.02-.712v-1.3h-6.854a7.732,7.732,0,0,1-5.294-2.089,7.726,7.726,0,0,1-5.293,2.089h-6.854v1.3c0,.24-.006.477-.02.712a12.693,12.693,0,0,1-9.765,11.638v21.643a13.954,13.954,0,0,1,16.931-11.231,14,14,0,0,1,.263,4.879,79.988,79.988,0,0,1-28.507,12.019,13.951,13.951,0,0,1-11.053-16.9,13.951,13.951,0,0,1,16.563,9.647v-20.06a12.694,12.694,0,0,1-9.768-11.638c-.014-.236-.02-.473-.02-.712v-1.3H86.286A7.729,7.729,0,0,1,81,299.342a7.731,7.731,0,0,1-5.293,2.089H68.849v1.3c0,.24-.007.477-.02.712a12.693,12.693,0,0,1-9.765,11.638v21.643A13.948,13.948,0,0,1,76,325.493a13.962,13.962,0,0,1-11.248,16.935h0a80.044,80.044,0,0,1-28.274-11.786,14.053,14.053,0,0,1,.224-5.149,13.961,13.961,0,0,1,16.567,9.647v-20.06a12.7,12.7,0,0,1-9.769-11.638c-.012-.236-.02-.473-.02-.712v-1.3H36.618a7.731,7.731,0,0,1-5.293-2.089,7.724,7.724,0,0,1-5.293,2.089H19.178v1.3c0,.24-.007.477-.02.712a12.6,12.6,0,0,1-3.138,7.66A80.037,80.037,0,0,1,.723,269.62a7.749,7.749,0,0,1,13.52,5.177v1.542l1.613-1.61a7.752,7.752,0,0,1,10.965,0,7.546,7.546,0,0,1,1.2,1.544s0,0,0,0a7.754,7.754,0,0,1-1.2,9.414l-.257.255a7.728,7.728,0,0,1,4.761,2.073,7.728,7.728,0,0,1,4.761-2.073l-.257-.255A7.753,7.753,0,0,1,46.8,274.729l1.61,1.607V274.8a7.753,7.753,0,1,1,15.505,0v1.542l1.613-1.61a7.747,7.747,0,0,1,10.962,0,7.652,7.652,0,0,1,1.2,1.544s0,0,0,0a7.763,7.763,0,0,1-1.2,9.414l-.257.255A7.735,7.735,0,0,1,81,288.019a7.709,7.709,0,0,1,4.757-2.073l-.253-.255a7.752,7.752,0,1,1,10.965-10.962l1.609,1.607V274.8a7.753,7.753,0,1,1,15.505,0v1.542l1.614-1.61a7.75,7.75,0,0,1,10.964,0,7.639,7.639,0,0,1,1.2,1.544s0,0,0,0a7.763,7.763,0,0,1-1.2,9.414l-.257.255a7.722,7.722,0,0,1,4.761,2.073,7.728,7.728,0,0,1,4.761-2.073l-.255-.255a7.753,7.753,0,1,1,10.968-10.962l1.609,1.607V274.8a7.751,7.751,0,0,1,13.235-5.483C161.078,269.412,161.178,269.518,161.269,269.622Zm0,0" transform="translate(-0.495 -183.07)" fill="#3d8d93"/>
  <path id="Trazado_693123" data-name="Trazado 693123" d="M248.274,325.77v58.3q-3.239.262-6.542.263t-6.545-.263v-58.3Zm0,0" transform="translate(-161.232 -223.33)" fill="#77d98f"/>
  <path id="Trazado_693124" data-name="Trazado 693124" d="M241.732,325.77V384.33q-3.307,0-6.545-.263v-58.3Zm0,0" transform="translate(-161.232 -223.33)" fill="#35cc6d"/>
  <path id="Trazado_693125" data-name="Trazado 693125" d="M235.353,46.8v57.447A34.974,34.974,0,0,1,200.387,69.27V46.8a17.483,17.483,0,1,1,34.966,0Zm0,0" transform="translate(-137.374 -20.092)" fill="#f24c6c"/>
  <path id="Trazado_693126" data-name="Trazado 693126" d="M260.629,48.946v55.475a35.01,35.01,0,0,1-23.372-33V48.946a17.489,17.489,0,0,1,11.69-16.5,17.483,17.483,0,0,1,11.681,16.5Zm0,0" transform="translate(-162.651 -22.243)" fill="#fc7a8f"/>
  <path id="Trazado_693127" data-name="Trazado 693127" d="M149.909,113.868a34.957,34.957,0,0,1-10.237,24.73L99.048,97.973a17.483,17.483,0,0,1,24.729-24.721l15.895,15.893A34.845,34.845,0,0,1,149.909,113.868Zm0,0" transform="translate(-64.393 -46.709)" fill="#f24c6c"/>
  <path id="Trazado_693128" data-name="Trazado 693128" d="M164.95,113.867a34.877,34.877,0,0,1-4.323,16.852L120.99,91.072a17.48,17.48,0,0,1-2.957-20.78,17.489,17.489,0,0,1,20.786,2.957l15.9,15.895A34.848,34.848,0,0,1,164.95,113.867Zm0,0" transform="translate(-79.435 -46.707)" fill="#fc7a8f"/>
  <path id="Trazado_693129" data-name="Trazado 693129" d="M296.018,85.608A17.431,17.431,0,0,1,290.9,97.969l-39.836,39.843-.781.781a34.984,34.984,0,0,1,0-49.453l15.895-15.893A17.493,17.493,0,0,1,293.6,76.73c.007,0,.007,0,.007.007A17.476,17.476,0,0,1,296.018,85.608Zm0,0" transform="translate(-164.563 -46.704)" fill="#f24c6c"/>
  <path id="Trazado_693130" data-name="Trazado 693130" d="M309.483,99.089a17.431,17.431,0,0,1-5.118,12.361l-39.836,39.843a34.978,34.978,0,0,1,5.4-42.487l15.895-15.895a17.485,17.485,0,0,1,21.239-2.7c.007,0,.007,0,.007.007A17.476,17.476,0,0,1,309.483,99.089Zm0,0" transform="translate(-178.028 -60.186)" fill="#fc7a8f"/>
  <path id="Trazado_693131" data-name="Trazado 693131" d="M238.2,147.143c0-6.538-6.747-11.839-15.072-11.839s-15.07,5.3-15.07,11.839,6.747,11.839,15.07,11.839S238.2,153.682,238.2,147.143Zm0,0" transform="translate(-142.636 -92.758)" fill="#fccb2b"/>
  <path id="Trazado_693132" data-name="Trazado 693132" d="M222.223,272.434v4.023c0,.54-.015,1.074-.044,1.607a28.611,28.611,0,0,1-57.131,0c-.029-.533-.044-1.066-.044-1.607v-4.023Zm0,0" transform="translate(-113.118 -186.766)" fill="#77d98f"/>
  <path id="Trazado_693133" data-name="Trazado 693133" d="M179.159,272.434H165v4.023c0,.485.014.963.038,1.441a.232.232,0,0,0,0,.029c0,.045,0,.091,0,.136h0a28.6,28.6,0,0,0,28.194,26.993,9.161,9.161,0,0,1-5.727-2.656c-9.361-8.635-2.946-24.337,9.79-24.337h24.87c.029-.533.044-1.066.044-1.607v-4.023Zm0,0" transform="translate(-113.115 -186.766)" fill="#35cc6d"/>
  <path id="Trazado_693134" data-name="Trazado 693134" d="M135.188,199.688H77.741a17.483,17.483,0,0,1,0-34.966h22.481a34.777,34.777,0,0,1,22.5,8.207c.766.65,1.511,1.329,2.218,2.037A34.827,34.827,0,0,1,135.188,199.688Zm0,0" transform="translate(-41.312 -112.925)" fill="#f24c6c"/>
  <path id="Trazado_693135" data-name="Trazado 693135" d="M288.37,182.2a17.486,17.486,0,0,1-17.487,17.487H213.437a35.016,35.016,0,0,1,19.486-31.359l.007-.007a34.8,34.8,0,0,1,15.472-3.6h22.48A17.487,17.487,0,0,1,288.37,182.2Zm0,0" transform="translate(-146.321 -112.925)" fill="#fc7a8f"/>
  <path id="Trazado_693136" data-name="Trazado 693136" d="M279.36,356.04a31.447,31.447,0,0,0-8.391,29.416,31.469,31.469,0,0,0,37.807-37.807A31.446,31.446,0,0,0,279.36,356.04Zm0,0" transform="translate(-185.198 -237.766)" fill="#77d98f"/>
  <path id="Trazado_693137" data-name="Trazado 693137" d="M144.025,356.04a31.45,31.45,0,0,1,8.391,29.416,31.469,31.469,0,0,1-37.807-37.807A31.447,31.447,0,0,1,144.025,356.04Zm0,0" transform="translate(-78.006 -237.766)" fill="#35cc6d"/>
</svg>
