<svg xmlns="http://www.w3.org/2000/svg" width="221.246" height="223.108" viewBox="0 0 221.246 223.108">
  <g id="Lawn_mowing_service" data-name="Lawn mowing service" transform="translate(-342.635 -335)">
    <circle id="Elipse_7715" data-name="Elipse 7715" cx="110.623" cy="110.623" r="110.623" transform="translate(342.635 335)" fill="#f2e6dc"/>
    <path id="Trazado_223193" data-name="Trazado 223193" d="M814.568,1940.65a32.475,32.475,0,0,1-2.6-11.761,31.076,31.076,0,0,1,6.142-19.34,26.377,26.377,0,0,0-3.309,10.469,29.081,29.081,0,0,0,2.513,14.765,12.563,12.563,0,0,1,.865-12.417,10.447,10.447,0,0,1,8.367-4.192,12.4,12.4,0,0,0-6.469,7.145c-1.689,5-.11,11.083,4.022,15.354Z" transform="translate(-412.101 -1382.585)" fill="#9e9569"/>
    <path id="Trazado_223194" data-name="Trazado 223194" d="M1432.833,2074.686h-3.312a13.683,13.683,0,0,0,1.214,5.1,29.679,29.679,0,0,1-1.78-5.1h-3.532a32.585,32.585,0,0,0,2.568,10.969l9.528.023A16.377,16.377,0,0,1,1432.833,2074.686Z" transform="translate(-950.779 -1527.589)" fill="#9e9569"/>
    <g id="Grupo_175508" data-name="Grupo 175508" transform="translate(449.637 365.859)">
      <path id="Trazado_223195" data-name="Trazado 223195" d="M1312.059,613.489a14.514,14.514,0,0,0-22.112-18.61,17.894,17.894,0,0,0-30.47,4.12c-.19-.007-.381-.015-.573-.015a14.519,14.519,0,0,0-13.569,9.356,20.08,20.08,0,1,0-6.957,39.438,20.075,20.075,0,0,0,32.93,8.725,14.515,14.515,0,0,0,28.735-2.448,21.363,21.363,0,1,0,12.016-40.567Zm-43.594,10.93c-.011.189-.024.378-.031.568-.121-.078-.24-.157-.363-.233C1268.205,624.645,1268.336,624.532,1268.466,624.419Z" transform="translate(-1220.298 -588.119)" fill="#d3bba3"/>
      <path id="Trazado_223196" data-name="Trazado 223196" d="M1438.935,887.179a.123.123,0,0,1-.048-.01l-37.864-16.153a.122.122,0,0,1,.1-.224l37.864,16.153a.122.122,0,0,1-.048.234Z" transform="translate(-1378.924 -836.321)" fill="#e6d0be"/>
      <path id="Trazado_223197" data-name="Trazado 223197" d="M1712.3,958.421a.122.122,0,0,1-.122-.122V858.082a.122.122,0,1,1,.244,0V958.3A.122.122,0,0,1,1712.3,958.421Z" transform="translate(-1652.214 -825.062)" fill="#e6d0be"/>
      <path id="Trazado_223198" data-name="Trazado 223198" d="M1713.343,884.4a.122.122,0,0,1-.039-.238l32.885-11a.122.122,0,1,1,.078.231l-32.885,11A.123.123,0,0,1,1713.343,884.4Z" transform="translate(-1653.125 -838.406)" fill="#e6d0be"/>
      <path id="Trazado_223199" data-name="Trazado 223199" d="M1481.6,848.866a.122.122,0,0,1-.066-.225l12.158-7.758a.122.122,0,1,1,.131.206l-12.158,7.758A.122.122,0,0,1,1481.6,848.866Z" transform="translate(-1449.638 -810.051)" fill="#e6d0be"/>
      <path id="Trazado_223200" data-name="Trazado 223200" d="M1484.451,975.439a.122.122,0,0,1-.046-.235l17.369-7.063a.122.122,0,1,1,.092.226L1484.5,975.43A.123.123,0,0,1,1484.451,975.439Z" transform="translate(-1452.139 -921.802)" fill="#e6d0be"/>
      <circle id="Elipse_7716" data-name="Elipse 7716" cx="5.037" cy="5.037" r="5.037" transform="translate(69.78 16.608) rotate(-22.5)" fill="#9e9569"/>
      <circle id="Elipse_7717" data-name="Elipse 7717" cx="5.037" cy="5.037" r="5.037" transform="translate(42.176 37.884) rotate(-80.783)" fill="#9e9569"/>
      <circle id="Elipse_7718" data-name="Elipse 7718" cx="5.037" cy="5.037" r="5.037" transform="translate(73.66 44.314)" fill="#9e9569"/>
    </g>
    <path id="Trazado_223201" data-name="Trazado 223201" d="M1758.6,1046.224a121.8,121.8,0,0,0,9.677-41.176c1.939-34.766-11.647-60.7-17.5-70.582a137.276,137.276,0,0,1,7.713,60.865,134.135,134.135,0,0,1-14.291,48.228,72.315,72.315,0,0,0,5.243-36.8,69.862,69.862,0,0,0-13.209-33.445,74.548,74.548,0,0,1,4.9,41.167,70.535,70.535,0,0,1-20.271,39.032Z" transform="translate(-1210.203 -526.381)" fill="#9e9569"/>
    <path id="Trazado_223202" data-name="Trazado 223202" d="M1469.581,1175.16a102.831,102.831,0,0,0-2.613-38.053,98.406,98.406,0,0,0-35.952-53.258,83.528,83.528,0,0,1,19.415,28.844,92.086,92.086,0,0,1,5.571,47.1c2.035-14.471-3.273-28.82-13.731-36.947-12.788-9.938-27.2-5.847-29.166-5.25,3.4.517,16.986,3.017,26.041,15.919,9.607,13.689,10.244,33.569,1.514,50.239Z" transform="translate(-939.962 -657.552)" fill="#9e9569"/>
    <path id="Trazado_223203" data-name="Trazado 223203" d="M1725.654,1170.961a103.934,103.934,0,0,0,1.389-38.906c-4.914-31.516-23.265-51.816-30.916-59.4a114.992,114.992,0,0,1,14.937,99,60.866,60.866,0,0,0-21.537-61.138,62.386,62.386,0,0,1,.695,75.033Z" transform="translate(-1182.683 -647.723)" fill="#8b865c"/>
    <path id="Trazado_223204" data-name="Trazado 223204" d="M1353.262,1366.589a86.472,86.472,0,0,0-10-33.484c-14.051-25.941-37.508-36.695-45.55-39.957a76.72,76.72,0,0,1,24.614,21.653,77.7,77.7,0,0,1,14.665,40.942c-.846-13.381-8.841-25.083-20.649-30.117-14.439-6.156-27.714.585-29.519,1.54,3.427-.265,17.184-.933,28.556,8.673,12.065,10.192,16.581,27.84,11.317,44.62Z" transform="translate(-829.072 -841.334)" fill="#8b865c"/>
    <path id="Trazado_223205" data-name="Trazado 223205" d="M1225.722,1939.669a32.477,32.477,0,0,1-2.6-11.761,31.078,31.078,0,0,1,6.142-19.34,26.378,26.378,0,0,0-3.309,10.469,29.079,29.079,0,0,0,2.513,14.765,12.563,12.563,0,0,1,.865-12.417,10.447,10.447,0,0,1,8.367-4.192,12.4,12.4,0,0,0-6.469,7.145c-1.689,5-.11,11.083,4.022,15.354Z" transform="translate(-773.128 -1381.724)" fill="#9e9569"/>
    <path id="Trazado_223206" data-name="Trazado 223206" d="M1151.1,1932.245a32.818,32.818,0,0,1-5.252-11.116,34.154,34.154,0,0,1,1.567-21.089,36.314,36.314,0,0,0,8,30.588,19.222,19.222,0,0,1-1.371-20.424,19.7,19.7,0,0,0,9.15,21.858Z" transform="translate(-704.408 -1374.236)" fill="#8b865c"/>
    <path id="Trazado_223207" data-name="Trazado 223207" d="M1351.179,2074.686a13.686,13.686,0,0,0,1.211,4.982,29.677,29.677,0,0,1-1.749-4.982h-3.557a32.59,32.59,0,0,0,2.563,10.849l9.528.023a16.4,16.4,0,0,1-4.685-10.872Z" transform="translate(-881.99 -1527.589)" fill="#9e9569"/>
    <path id="Trazado_223208" data-name="Trazado 223208" d="M1285.987,2075.542c-.112-.287-.213-.573-.308-.856h-2.617a19.388,19.388,0,0,0,3.566,9.3,36.635,36.635,0,0,1-5.762-9.3h-3.755a32.858,32.858,0,0,0,5.2,10.913l12.1-.183A20.011,20.011,0,0,1,1285.987,2075.542Z" transform="translate(-820.548 -1527.589)" fill="#8b865c"/>
    <path id="Trazado_223209" data-name="Trazado 223209" d="M1548.809,2074.686a13.691,13.691,0,0,0,1.211,4.982,29.679,29.679,0,0,1-1.749-4.982h-3.557a32.585,32.585,0,0,0,2.563,10.849l9.528.023a16.4,16.4,0,0,1-4.685-10.872Z" transform="translate(-1055.525 -1527.589)" fill="#9e9569"/>
    <path id="Trazado_223210" data-name="Trazado 223210" d="M1483.617,2075.542c-.112-.287-.213-.573-.308-.856h-2.617a19.385,19.385,0,0,0,3.566,9.3,36.631,36.631,0,0,1-5.762-9.3h-3.755a32.853,32.853,0,0,0,5.2,10.913l12.1-.183A20.01,20.01,0,0,1,1483.617,2075.542Z" transform="translate(-994.083 -1527.589)" fill="#8b865c"/>
    <path id="Trazado_223211" data-name="Trazado 223211" d="M716.882,1939.669a27.4,27.4,0,0,1-3.221-11.761c-.35-10.106,5.509-17.079,7.6-19.34a23.088,23.088,0,0,0-4.1,10.469,24.338,24.338,0,0,0,3.11,14.765,10.544,10.544,0,0,1,1.07-12.417c3.7-4.151,9.553-4.2,10.357-4.192-1.219.46-6.036,2.429-8.007,7.145-2.091,5-.136,11.083,4.978,15.354Z" transform="translate(-325.778 -1381.724)" fill="#8b865c"/>
    <path id="Trazado_223212" data-name="Trazado 223212" d="M624.525,1932.245a30.67,30.67,0,0,1-6.5-11.116,28.157,28.157,0,0,1,1.94-21.089,29.88,29.88,0,0,0,1.159,17.745,35.379,35.379,0,0,0,8.749,12.843,17.37,17.37,0,0,1-4.5-10.138,16.457,16.457,0,0,1,2.807-10.286,16.321,16.321,0,0,0,.9,11.984c2.916,6.064,8.641,9.028,10.422,9.875Z" transform="translate(-240.721 -1374.236)" fill="#8b865c"/>
    <path id="Trazado_223213" data-name="Trazado 223213" d="M365.712,1037.1a127.993,127.993,0,0,1-12.5-41.573c-4-34.589,8.026-61.289,13.282-71.5a137.277,137.277,0,0,0-4.089,61.215,134.132,134.132,0,0,0,17.126,47.3,72.314,72.314,0,0,1-7.417-36.424,69.862,69.862,0,0,1,11.2-34.169,74.547,74.547,0,0,0-2.454,41.385c5,21.872,2.478,13.936,9.252,25.66C380.736,1037.074,378.411,1038.782,365.712,1037.1Z" transform="translate(-8.586 -517.222)" fill="#9e9569"/>
    <path id="Trazado_223214" data-name="Trazado 223214" d="M1063.173,1982.015a.122.122,0,0,1-.122-.114,32.008,32.008,0,0,1,1.627-12.553,31.64,31.64,0,0,1,2.673-5.812.122.122,0,1,1,.21.124,31.412,31.412,0,0,0-2.653,5.767,31.766,31.766,0,0,0-1.615,12.458.122.122,0,0,1-.114.13Z" transform="translate(-632.52 -1429.938)" fill="#8b865c"/>
    <path id="Trazado_223215" data-name="Trazado 223215" d="M669.617,1950.995a.122.122,0,0,1-.121-.115,36.437,36.437,0,0,1,1.626-13.419,35,35,0,0,1,2.673-6.214.122.122,0,0,1,.214.118,34.762,34.762,0,0,0-2.654,6.17,36.2,36.2,0,0,0-1.615,13.33.122.122,0,0,1-.114.129Z" transform="translate(-286.945 -1401.583)" fill="#8b865c"/>
    <ellipse id="Elipse_7719" data-name="Elipse 7719" cx="3.126" cy="5.08" rx="3.126" ry="5.08" transform="matrix(0.447, -0.894, 0.894, 0.447, 429.516, 534.183)" fill="#efbc73"/>
    <g id="Grupo_175510" data-name="Grupo 175510" transform="translate(386.783 394.097)">
      <path id="Trazado_223216" data-name="Trazado 223216" d="M715.627,862.249a14.514,14.514,0,0,0,14,25.285,17.894,17.894,0,0,0,29.929,7.046c.175.075.351.15.53.218a14.519,14.519,0,0,0,16.017-3.886,20.08,20.08,0,1,0,20.6-34.345,20.075,20.075,0,0,0-27.635-19.922,14.515,14.515,0,0,0-27.711-7.987,21.363,21.363,0,1,0-25.725,33.59Zm44.62,5.378c.078-.173.157-.344.232-.52.085.116.168.233.256.347C760.571,867.508,760.409,867.567,760.247,867.627Z" transform="translate(-704.755 -819.729)" fill="#e6d0be"/>
      <g id="Grupo_175509" data-name="Grupo 175509" transform="translate(12.624 39.398)">
        <path id="Trazado_223217" data-name="Trazado 223217" d="M846.287,1189.2a.12.12,0,0,1-.048-.01l-37.864-16.153a.122.122,0,0,1,.1-.224l37.864,16.153a.122.122,0,0,1-.048.234Z" transform="translate(-808.301 -1169.157)" fill="#d3bba3"/>
        <path id="Trazado_223218" data-name="Trazado 223218" d="M1119.657,1260.444a.122.122,0,0,1-.122-.122V1160.1a.122.122,0,1,1,.244,0v100.217A.122.122,0,0,1,1119.657,1260.444Z" transform="translate(-1081.59 -1157.899)" fill="#d3bba3"/>
        <path id="Trazado_223219" data-name="Trazado 223219" d="M1120.695,1186.423a.122.122,0,0,1-.039-.238l32.885-11a.122.122,0,1,1,.077.231l-32.885,11A.123.123,0,0,1,1120.695,1186.423Z" transform="translate(-1082.502 -1171.242)" fill="#d3bba3"/>
        <path id="Trazado_223220" data-name="Trazado 223220" d="M888.955,1150.889a.122.122,0,0,1-.066-.225l12.158-7.758a.122.122,0,0,1,.131.206l-12.158,7.758A.122.122,0,0,1,888.955,1150.889Z" transform="translate(-879.015 -1142.887)" fill="#d3bba3"/>
        <path id="Trazado_223221" data-name="Trazado 223221" d="M891.8,1277.462a.122.122,0,0,1-.046-.235l17.369-7.063a.122.122,0,0,1,.092.226l-17.369,7.063A.12.12,0,0,1,891.8,1277.462Z" transform="translate(-881.516 -1254.638)" fill="#d3bba3"/>
      </g>
      <circle id="Elipse_7720" data-name="Elipse 7720" cx="5.037" cy="5.037" r="5.037" transform="translate(65.369 33.191) rotate(-76.717)" fill="#efbc73"/>
      <circle id="Elipse_7721" data-name="Elipse 7721" cx="5.037" cy="5.037" r="5.037" transform="translate(86.773 47.401)" fill="#efbc73"/>
      <circle id="Elipse_7722" data-name="Elipse 7722" cx="5.037" cy="5.037" r="5.037" transform="translate(50.978 63.361) rotate(-45)" fill="#efbc73"/>
    </g>
    <path id="Trazado_223222" data-name="Trazado 223222" d="M549.2,481.421c.033-.414.055-.831.055-1.254a15.273,15.273,0,0,0-21.3-14.032,10.872,10.872,0,0,0-15.85-6.627,23.819,23.819,0,0,0-44.04,2.4,19.654,19.654,0,0,0-22.155,19.517Z" transform="translate(-90.69 -97.358)" fill="#fff" opacity="0.56"/>
    <ellipse id="Elipse_7723" data-name="Elipse 7723" cx="23.137" cy="3.446" rx="23.137" ry="3.446" transform="translate(405.344 376.793) rotate(-7.851)" fill="#d3bba3"/>
    <g id="Grupo_175521" data-name="Grupo 175521" transform="translate(343.231 370.487)">
      <g id="Grupo_175511" data-name="Grupo 175511" transform="translate(65.477 160.586)">
        <path id="Trazado_223223" data-name="Trazado 223223" d="M920.623,1960.016l-15.784.875,2.708-16.491,15.917-1.149Z" transform="translate(-902.37 -1943.252)" fill="#84524d"/>
        <path id="Trazado_223224" data-name="Trazado 223224" d="M923.133,2058.317H884.587l3.282-14.812h15.917l10.371,3.408a11.847,11.847,0,0,1,8.976,11.4Z" transform="translate(-884.587 -2031.282)" fill="#363e44"/>
      </g>
      <g id="Grupo_175512" data-name="Grupo 175512" transform="translate(0 160.586)">
        <path id="Trazado_223225" data-name="Trazado 223225" d="M402.737,1960.153l-14.306.738,6.989-16.491,16.672-1.149Z" transform="translate(-383.444 -1943.252)" fill="#84524d"/>
        <path id="Trazado_223226" data-name="Trazado 223226" d="M388.587,2057.743H347.523l6.494-14.892,15.223.08,10.371,3.408a11.847,11.847,0,0,1,8.976,11.4Z" transform="translate(-347.523 -2030.708)" fill="#363e44"/>
      </g>
      <g id="Grupo_175514" data-name="Grupo 175514" transform="translate(81.07 53.323)">
        <path id="Trazado_223227" data-name="Trazado 223227" d="M1019.3,1063.448c2.2.842,18.5,6.487,17.886,8.369-.363,1.1-3.13.059-3.9-.243.5.549,3.938,3.551,3.459,4.408-.824,1.473-4.827-2.008-4.891-2.009.563.506,5.118,3.83,4.507,4.627-1.258,1.641-5.144-1.858-5.935-2.238.031.148,4.437,3.811,3.8,4.644-.875,1.149-6.017-2.242-7.128-2.811-1.951-.746-7.633-1.546-11.073-3.124a11.935,11.935,0,0,1-3.545-2.419S1018.857,1063.278,1019.3,1063.448Z" transform="translate(-1012.487 -1063.445)" fill="#84524d"/>
        <g id="Grupo_175513" data-name="Grupo 175513" transform="translate(16.184 5.882)">
          <path id="Trazado_223228" data-name="Trazado 223228" d="M1157.064,1113.99a.123.123,0,0,1-.08-.03,10.61,10.61,0,0,0-3.522-2.029.122.122,0,0,1,.079-.231,10.857,10.857,0,0,1,3.6,2.076.122.122,0,0,1-.08.214Z" transform="translate(-1152.387 -1111.693)" fill="#363e44"/>
          <path id="Trazado_223229" data-name="Trazado 223229" d="M1151.995,1139.068a.122.122,0,0,1-.069-.022q-.126-.087-.259-.174a10.688,10.688,0,0,0-2.355-1.149.122.122,0,0,1,.079-.23,10.934,10.934,0,0,1,2.409,1.175q.136.089.265.178a.122.122,0,0,1-.07.222Z" transform="translate(-1148.742 -1134.341)" fill="#363e44"/>
          <path id="Trazado_223230" data-name="Trazado 223230" d="M1146.948,1163.262a.123.123,0,0,1-.058-.015,10.721,10.721,0,0,0-1.576-.687.122.122,0,1,1,.079-.23,10.989,10.989,0,0,1,1.611.7.122.122,0,0,1-.058.229Z" transform="translate(-1145.232 -1156.151)" fill="#363e44"/>
        </g>
      </g>
      <path id="Trazado_223231" data-name="Trazado 223231" d="M410.837,1280.444s30.322-77.324,40.144-96.451l33.044,13.434,14.817,46.442-7.349,36.628-19.989.57,3.651-32.641-12.641-25.986-30.346,57.675Z" transform="translate(-403.118 -1115.973)" fill="#363e44"/>
      <g id="Grupo_175515" data-name="Grupo 175515" transform="translate(24.145 18.285)">
        <path id="Trazado_223232" data-name="Trazado 223232" d="M545.8,808.414c2.083-7.438,27.34-42.322,55.189-29.591,24.887,11.377,8.215,32.29,8.215,32.29l-5.316,32.417-40.038-15.1,2.3-4.595C558.6,821.87,543.5,816.619,545.8,808.414Z" transform="translate(-545.565 -776.055)" fill="#fff"/>
        <path id="Trazado_223233" data-name="Trazado 223233" d="M935.437,793.075l.587-9.508a.122.122,0,0,1,.243.015l-.565,9.152,5.68-1.814a.122.122,0,0,1,.074.232Z" transform="translate(-887.905 -782.551)" fill="#363e44"/>
        <path id="Trazado_223234" data-name="Trazado 223234" d="M1012.715,844.91l-4.091-4.152a.122.122,0,1,1,.174-.171l3.8,3.858,1.575-5.318a.122.122,0,1,1,.234.069Z" transform="translate(-952.138 -831.36)" fill="#363e44"/>
        <path id="Trazado_223235" data-name="Trazado 223235" d="M719.621,1011.157a.12.12,0,0,1-.033,0,.122.122,0,0,1-.084-.151l.657-2.3-17.256-5.35a.122.122,0,0,1,.072-.233l17.483,5.421-.723,2.533A.122.122,0,0,1,719.621,1011.157Z" transform="translate(-683.648 -975.428)" fill="#363e44"/>
        <path id="Trazado_223236" data-name="Trazado 223236" d="M723.315,1162.041l-9.378-1.8a.122.122,0,1,1,.046-.239l9.2,1.766,1.343-2.611a.122.122,0,0,1,.217.111Z" transform="translate(-693.323 -1112.391)" fill="#363e44"/>
        <path id="Trazado_223237" data-name="Trazado 223237" d="M725.978,933.921a.122.122,0,0,1-.1-.2l8.487-10.548a.122.122,0,1,1,.19.153l-8.486,10.548A.121.121,0,0,1,725.978,933.921Z" transform="translate(-703.875 -905.198)" fill="#363e44"/>
        <path id="Trazado_223238" data-name="Trazado 223238" d="M1067.272,962.495h-.018a.122.122,0,0,1-.1-.138l2.006-13.772a.122.122,0,1,1,.241.035l-2.006,13.773A.122.122,0,0,1,1067.272,962.495Z" transform="translate(-1003.56 -927.457)" fill="#363e44"/>
      </g>
      <path id="Trazado_223239" data-name="Trazado 223239" d="M944.355,1192.936a.121.121,0,0,1-.1-.055L889.3,1109.989l21.9.142a7.2,7.2,0,0,1,5.8,3.006l50.545,70.745a.122.122,0,1,1-.2.142L916.8,1113.279a6.957,6.957,0,0,0-5.6-2.9l-21.439-.139,54.7,82.511a.122.122,0,0,1-.1.189Z" transform="translate(-823.252 -1050.992)" fill="#363e44"/>
      <path id="Trazado_223240" data-name="Trazado 223240" d="M1203.764,1692.916h-6.582a14.261,14.261,0,0,1-14.261-14.261v-24.037l20.842,15.994Z" transform="translate(-1081.073 -1529.221)" fill="#fff"/>
      <g id="Grupo_175517" data-name="Grupo 175517" transform="translate(55.037 53.659)">
        <path id="Trazado_223241" data-name="Trazado 223241" d="M803.842,1066.2c2.682.629,4.752,1.109,5.21,1.232,2.271.609,16.4,4.35,15.981,6.285-.247,1.137-4.455-.01-5.248-.231.553.495,4.285,3.124,3.9,4.025-.667,1.551-5.009-1.5-5.073-1.491.612.445,4.074,2.435,3.828,3.129-.526,1.485-4.174-.309-5-.6.046.144,3.067,1.57,2.752,2.57-.25.793-4.8-.206-5.869-.4-2.018-.54-7.434-1.328-11.337-1.959a40.592,40.592,0,0,1-4.028-.863Z" transform="translate(-798.955 -1066.204)" fill="#84524d"/>
        <g id="Grupo_175516" data-name="Grupo 175516" transform="translate(16.656 5.415)">
          <path id="Trazado_223242" data-name="Trazado 223242" d="M942.3,1112.535a.121.121,0,0,1-.07-.022,10.612,10.612,0,0,0-3.713-1.653.122.122,0,1,1,.055-.237,10.86,10.86,0,0,1,3.8,1.691.122.122,0,0,1-.07.222Z" transform="translate(-938.074 -1110.619)" fill="#363e44"/>
          <path id="Trazado_223243" data-name="Trazado 223243" d="M939.859,1138a.123.123,0,0,1-.059-.015q-.134-.074-.275-.146a10.7,10.7,0,0,0-2.462-.9.122.122,0,1,1,.055-.237,10.927,10.927,0,0,1,2.518.919q.144.074.282.15a.122.122,0,0,1-.059.229Z" transform="translate(-936.798 -1133.523)" fill="#363e44"/>
          <path id="Trazado_223244" data-name="Trazado 223244" d="M937.348,1162.591a.12.12,0,0,1-.046-.009,10.73,10.73,0,0,0-1.638-.52.122.122,0,1,1,.055-.238,10.968,10.968,0,0,1,1.676.532.122.122,0,0,1-.046.235Z" transform="translate(-935.569 -1155.578)" fill="#363e44"/>
        </g>
      </g>
      <g id="Grupo_175520" data-name="Grupo 175520" transform="translate(74.581 0)">
        <circle id="Elipse_7724" data-name="Elipse 7724" cx="2.507" cy="2.507" r="2.507" transform="translate(0.052 13.527) rotate(-76.717)" fill="#373e44"/>
        <circle id="Elipse_7725" data-name="Elipse 7725" cx="2.507" cy="2.507" r="2.507" transform="translate(0 10.168) rotate(-76.718)" fill="#373e44"/>
        <path id="Trazado_223245" data-name="Trazado 223245" d="M970.835,713.706l-4.586,6.973-4.09-10.5,5.94-10.823,7.136,2.69Z" transform="translate(-961.805 -690.424)" fill="#84524d"/>
        <path id="Trazado_223246" data-name="Trazado 223246" d="M1004.209,661.078c.32.076,3.372.847,4.467,3.487.815,1.965.313,3.959-1.036,7.175-1.588,3.788-3.378,6.307-4.772,6.628-3.413.785-6.209-4.315-7.041-8.38a8.25,8.25,0,0,1,2.98-7.925A6.192,6.192,0,0,1,1004.209,661.078Z" transform="translate(-991.238 -656.602)" fill="#84524d"/>
        <path id="Trazado_223247" data-name="Trazado 223247" d="M984.03,631.12a2.25,2.25,0,0,1,1.846-1.81c0-.045.01-.09.018-.135a1.542,1.542,0,0,1,1.574-1.26,2.138,2.138,0,0,1,3.389-1.265,5.282,5.282,0,0,0,4.02.392,1.661,1.661,0,0,1,.96.552,3.482,3.482,0,0,0,3.025,2,2.079,2.079,0,0,1,1.407,3.12,1.748,1.748,0,0,1-1.487,3.018c-.023,0-.044-.011-.066-.016a12.592,12.592,0,0,1-.628,1.107,12.414,12.414,0,0,0-2.747-2.875,1.747,1.747,0,0,1-3.048-.346,9.918,9.918,0,0,0-1.95,2.577,3.137,3.137,0,0,0-2.021-.767c-1.477.037-2.689,2.736-3.709,4.47a25.919,25.919,0,0,1,.068-6.737A2.248,2.248,0,0,1,984.03,631.12Z" transform="translate(-980.976 -626.073)" fill="#373e44"/>
        <path id="Trazado_223248" data-name="Trazado 223248" d="M1005.81,759.969a.12.12,0,0,1-.047-.009c-1.734-.719-3.414-2.947-4.5-5.96a.122.122,0,0,1,.23-.082c1.058,2.949,2.687,5.124,4.359,5.817a.122.122,0,0,1-.047.235Z" transform="translate(-996.14 -738.261)" fill="#363e44"/>
        <g id="Grupo_175518" data-name="Grupo 175518" transform="translate(10.872 11.384)">
          <path id="Trazado_223249" data-name="Trazado 223249" d="M1048.43,719.451a5.725,5.725,0,0,0,.568,2.45c.127.25,1.906-1.252,1.669-1.435A5.739,5.739,0,0,0,1048.43,719.451Z" transform="translate(-1048.43 -719.451)" fill="#fff"/>
          <path id="Trazado_223250" data-name="Trazado 223250" d="M1056.454,731.606a5.381,5.381,0,0,0-1.039-3.179,4.059,4.059,0,0,0-.665-.643,2.251,2.251,0,0,0-1.673,1.428,4.035,4.035,0,0,0,.472.735A5.381,5.381,0,0,0,1056.454,731.606Z" transform="translate(-1052.511 -726.768)" fill="#363e44"/>
        </g>
        <path id="Trazado_223251" data-name="Trazado 223251" d="M1081.743,759.269a1.679,1.679,0,0,0-.128.8c.039.4.218.58.138.8-.054.146-.228.321-.8.4Z" transform="translate(-1066.12 -743.03)" fill="#84524d"/>
        <path id="Trazado_223252" data-name="Trazado 223252" d="M1080.079,760.512a.122.122,0,0,1-.018-.242c.4-.059.642-.172.7-.326.029-.078.007-.15-.04-.293a1.932,1.932,0,0,1-.1-.45,1.788,1.788,0,0,1,.136-.857.122.122,0,0,1,.226.093,1.546,1.546,0,0,0-.119.741,1.7,1.7,0,0,0,.093.4.65.65,0,0,1,.038.455c-.092.25-.384.408-.892.483Z" transform="translate(-1065.242 -742.152)" fill="#363e44"/>
        <g id="Grupo_175519" data-name="Grupo 175519" transform="translate(4.812 7.604)">
          <ellipse id="Elipse_7726" data-name="Elipse 7726" cx="2.185" cy="2.585" rx="2.185" ry="2.585" transform="translate(0 0.496) rotate(-6.521)" fill="#84524d"/>
          <path id="Trazado_223253" data-name="Trazado 223253" d="M1008.994,701.731a.122.122,0,0,1-.117-.088,1.677,1.677,0,0,1-.057-.281,1.347,1.347,0,0,1,1.062-1.566,1.078,1.078,0,0,1,.5.06.122.122,0,0,1-.084.229.837.837,0,0,0-.385-.047,1.106,1.106,0,0,0-.847,1.3,1.438,1.438,0,0,0,.048.24.122.122,0,0,1-.083.151A.127.127,0,0,1,1008.994,701.731Z" transform="translate(-1007.58 -698.405)" fill="#363e44"/>
        </g>
        <path id="Trazado_223254" data-name="Trazado 223254" d="M1056.806,771.223a.959.959,0,0,1-.869-.528,1.017,1.017,0,0,1,.083-.946.122.122,0,0,1,.2.136.775.775,0,0,0-.066.7.724.724,0,0,0,.777.379.122.122,0,0,1,.04.241A1.023,1.023,0,0,1,1056.806,771.223Z" transform="translate(-1044.075 -752.186)" fill="#363e44"/>
        <circle id="Elipse_7727" data-name="Elipse 7727" cx="2.78" cy="2.78" r="2.78" transform="translate(15.891 6.339)" fill="#373e44"/>
      </g>
      <path id="Trazado_223255" data-name="Trazado 223255" d="M1286.285,1651.523h-89.573v-28.757l-15.518-13.808-.26-9.9,15.778,14.068h61.871l27.7,18.05Z" transform="translate(-1079.327 -1480.435)" fill="#efbc73"/>
      <path id="Trazado_223256" data-name="Trazado 223256" d="M1251.89,1655.718a.122.122,0,0,1-.1-.055l-12.23-18.449a.122.122,0,0,1,.2-.135l12.23,18.449a.122.122,0,0,1-.1.189Z" transform="translate(-1130.787 -1513.773)" fill="#363e44"/>
      <path id="Trazado_223257" data-name="Trazado 223257" d="M1344.914,1954.7a13.413,13.413,0,1,1,13.413-13.413A13.428,13.428,0,0,1,1344.914,1954.7Zm0-26.583a13.169,13.169,0,1,0,13.169,13.169A13.184,13.184,0,0,0,1344.914,1928.121Z" transform="translate(-1211.538 -1769.165)" fill="#363e44"/>
      <path id="Trazado_223258" data-name="Trazado 223258" d="M1389.247,1992.881a7.258,7.258,0,1,1,7.258-7.258A7.266,7.266,0,0,1,1389.247,1992.881Zm0-14.272a7.014,7.014,0,1,0,7.014,7.014A7.022,7.022,0,0,0,1389.247,1978.609Z" transform="translate(-1255.87 -1813.498)" fill="#363e44"/>
      <path id="Trazado_223259" data-name="Trazado 223259" d="M1817.593,1954.7a13.413,13.413,0,1,1,13.413-13.413A13.428,13.428,0,0,1,1817.593,1954.7Zm0-26.583a13.169,13.169,0,1,0,13.17,13.169A13.184,13.184,0,0,0,1817.593,1928.121Z" transform="translate(-1626.589 -1769.165)" fill="#363e44"/>
      <path id="Trazado_223260" data-name="Trazado 223260" d="M1861.926,1992.881a7.258,7.258,0,1,1,7.258-7.258A7.266,7.266,0,0,1,1861.926,1992.881Zm0-14.272a7.014,7.014,0,1,0,7.014,7.014A7.022,7.022,0,0,0,1861.926,1978.609Z" transform="translate(-1670.922 -1813.498)" fill="#363e44"/>
      <path id="Trazado_223261" data-name="Trazado 223261" d="M1514.992,1726.958H1451v-12.505h44.8Z" transform="translate(-1316.468 -1581.761)" fill="#fff"/>
      <path id="Trazado_223262" data-name="Trazado 223262" d="M1593.055,2073.93h-25.28a.122.122,0,1,1,0-.244h25.28a.122.122,0,1,1,0,.244Z" transform="translate(-1418.899 -1897.198)" fill="#363e44"/>
      <path id="Trazado_223263" data-name="Trazado 223263" d="M1671.454,2039.668a.122.122,0,0,1-.122-.122v-4.473a.122.122,0,1,1,.244,0v4.473A.122.122,0,0,1,1671.454,2039.668Z" transform="translate(-1509.938 -1863.185)" fill="#363e44"/>
    </g>
    <path id="Trazado_223264" data-name="Trazado 223264" d="M997.1,610.617l-2.926-6.564-13.861,1.969-.77,6.892Z" transform="translate(-559.254 -236.251)" fill="#d3bba3"/>
    <path id="Trazado_223265" data-name="Trazado 223265" d="M882.746,645.548a226.972,226.972,0,0,1,23.925-2.186.535.535,0,0,0,0-.153c-.26-1.885-10.732-2-23.391-.253-12.586,1.735-22.593,4.655-22.451,6.541C866.538,648.135,874.234,646.721,882.746,645.548Z" transform="translate(-455.018 -269.323)" fill="#e6d0be"/>
    <ellipse id="Elipse_7728" data-name="Elipse 7728" cx="3.126" cy="5.08" rx="3.126" ry="5.08" transform="matrix(0.447, -0.894, 0.894, 0.447, 381.825, 529.031)" fill="#efbc73"/>
  </g>
</svg>
