<svg xmlns="http://www.w3.org/2000/svg" width="256.141" height="256.638" viewBox="0 0 256.141 256.638">
  <g id="Grupo_176275" data-name="Grupo 176275" transform="translate(-997.488 -107.356)">
    <g id="Grupo_176267" data-name="Grupo 176267" transform="translate(997.488 107.356)">
      <g id="Grupo_176249" data-name="Grupo 176249" transform="translate(0 10.521)">
        <path id="Trazado_224194" data-name="Trazado 224194" d="M1110.137,293.392a67.342,67.342,0,0,1-30.835,11.386l-4.473.48-.688-11.693Z" transform="translate(-1004.678 -135.327)" fill="#66623c"/>
        <path id="Trazado_224195" data-name="Trazado 224195" d="M1046.447,239.607a.473.473,0,0,0-.612-.138.578.578,0,0,0-.4-.405.544.544,0,0,0-.993.059,8.092,8.092,0,0,1-.431,1.006q-.311.289-.63.571a15.048,15.048,0,0,1-6.784-.415,54.24,54.24,0,0,0-5.729-1.282,10.145,10.145,0,0,0-5.47.5,2.947,2.947,0,0,0-1.631,1.722,3.208,3.208,0,0,0,.2,2.3c.71,1.561,2.416,2.279,3.994,2.624a19.272,19.272,0,0,0,8.133-.03q-.979.665-1.954,1.331c-.875.4-1.752.785-2.628,1.156-5.154,2.179-10.481,4.065-15.2,7.138a26.167,26.167,0,0,0-6.86,6.3.52.52,0,0,0,.185.706.528.528,0,0,0,.706-.185c3.29-4.459,8.247-7.28,13.2-9.521,2.26-1.021,4.569-1.937,6.865-2.882a32.761,32.761,0,0,0-5.826,5.706,19.013,19.013,0,0,0-3.2,6.072.516.516,0,0,0,.995.274c1.182-3.9,3.857-7.112,6.874-9.766a57.392,57.392,0,0,1,5.4-4.111l.217-.1a13.083,13.083,0,0,0-4.019,4.856,6.2,6.2,0,0,0-.339,4.721,3.192,3.192,0,0,0,1.578,1.735,3.309,3.309,0,0,0,2.382.12,8.67,8.67,0,0,0,4-3.189,45.37,45.37,0,0,0,7.811-14.982q.2-.665.38-1.335A.545.545,0,0,0,1046.447,239.607Zm-8.088,4.8a18.9,18.9,0,0,1-8.81.981c-1.435-.191-3.125-.494-4.168-1.589a2.543,2.543,0,0,1-.711-1.768,1.771,1.771,0,0,1,1.05-1.539,6.069,6.069,0,0,1,2.321-.565,12.836,12.836,0,0,1,2.69.088,49.66,49.66,0,0,1,5.435,1.225,19.51,19.51,0,0,0,5.741.7c-.988.793-2.009,1.545-3.045,2.277Q1038.61,244.316,1038.359,244.406Zm3.285,5.461a44.9,44.9,0,0,1-2.9,4.567,13.661,13.661,0,0,1-3.421,3.7,3.611,3.611,0,0,1-2.006.68,2,2,0,0,1-1.6-.912,4.668,4.668,0,0,1-.025-4.133,10.55,10.55,0,0,1,2.672-3.7,30.667,30.667,0,0,1,3.784-2.946,40.083,40.083,0,0,0,3.866-2.9,27.913,27.913,0,0,0,3.16-2.615A44.428,44.428,0,0,1,1041.644,249.867Z" transform="translate(-998.604 -130.204)" fill="#8e8b5e"/>
        <path id="Trazado_224196" data-name="Trazado 224196" d="M1108.146,167.875c-.8-.07-.66.916-.9,1.684a29.484,29.484,0,0,0-.892,9.511c.037,1.6.148,3.335,1.213,4.524a.943.943,0,0,0,.448.315c.425.1.784-.313,1.012-.686a18.711,18.711,0,0,0,2.158-14.123Z" transform="translate(-1007.697 -123.553)" fill="#703d09"/>
        <path id="Trazado_224197" data-name="Trazado 224197" d="M1110.777,191.487l-5.3,12.041-5.274-3.21Z" transform="translate(-1007.122 -125.769)" fill="#8e8b5e"/>
        <path id="Trazado_224198" data-name="Trazado 224198" d="M1071.323,146.448a3.365,3.365,0,0,0-1.874.546,1.665,1.665,0,0,0-.692,1.726,1.123,1.123,0,0,0,1.562.7,2.3,2.3,0,0,0-.984,2.994,1.931,1.931,0,0,0,2.969.428.938.938,0,0,0-.668,1.264,1.713,1.713,0,0,0,1.276.95,3.088,3.088,0,0,0,3.21-1.343,2.3,2.3,0,0,0,2.915-1.49,5.874,5.874,0,0,0-.2-3.626c.45.293,1.064-.046,1.366-.49.894-1.314.21-3.1-.6-4.468a.85.85,0,0,0,.992-.833,1.581,1.581,0,0,0-.74-1.241c-1.343-.966-3.211-.6-4.758-.018l.964.009a4.714,4.714,0,0,0-4.338.783c-.32.256-.626.7-.406,1.04a.639.639,0,0,0,.832.137,1.862,1.862,0,0,0,.613-.684,3.627,3.627,0,0,0-2.848.259,1.955,1.955,0,0,0-.756,2.541Z" transform="translate(-1004.168 -121.03)"/>
        <g id="Grupo_176155" data-name="Grupo 176155" transform="translate(134.67 18.497)">
          <path id="Trazado_224199" data-name="Trazado 224199" d="M1146.521,165.021a11.337,11.337,0,0,1,8.025-3.072,13.077,13.077,0,0,0,3.465-.031,8.292,8.292,0,0,0,2.4-1.173l25.148-15.888c-2.759,3.918-5.563,7.881-9.235,10.961a55.655,55.655,0,0,1-7.048,4.776l-9.261,5.606a5.608,5.608,0,0,1-1.954.865c-1.566.254-3.012-.817-4.555-1.184-2.446-.579-4.92.639-7.137,1.821q-.135-1.282-.269-2.562Z" transform="translate(-1146.097 -139.892)" fill="#6da8c6"/>
          <path id="Trazado_224200" data-name="Trazado 224200" d="M1150.757,171.043c2.153-1.52,4.428-3.2,5.309-5.678.532-1.5.5-3.16,1.131-4.617a10.164,10.164,0,0,1,1.344-2.111,74.854,74.854,0,0,1,22.023-19.259A89.166,89.166,0,0,1,1166,156.454c-2,1.819-4.127,3.606-5.382,6-.683,1.3-1.078,2.734-1.647,4.09a17.269,17.269,0,0,1-6.906,8.022,5.549,5.549,0,0,1-1.368-3.218Z" transform="translate(-1146.529 -139.378)" fill="#33637a"/>
          <path id="Trazado_224201" data-name="Trazado 224201" d="M1158.616,165.373a.47.47,0,0,0-.192.694.7.7,0,0,0,.75.229.841.841,0,0,0,.485-1.237.674.674,0,0,0-1.162.311Z" transform="translate(-1147.246 -141.766)" fill="#6da8c6"/>
        </g>
        <path id="Trazado_224202" data-name="Trazado 224202" d="M1105.153,196.048q2.213,5.492,4.425,10.983a94.516,94.516,0,0,1,12.709-5.984,2.059,2.059,0,0,1,.956-.2c.362.042.6.43.965.485,4.386.662,5.7,2.027,7.6,3.447-4.89,4.936-11.935,10.424-17.322,14.811-2.265,1.843-4.826,3.726-7.745,3.67a8.684,8.684,0,0,1-5.763-2.736,25.749,25.749,0,0,1-3.789-5.3q-2.024-3.408-4.046-6.816a161.908,161.908,0,0,1,10.575-13.519Z" transform="translate(-1006.46 -126.088)" fill="#b96d4b"/>
        <g id="Grupo_176175" data-name="Grupo 176175" transform="translate(0 104.468)">
          <path id="Trazado_224203" data-name="Trazado 224203" d="M1064.508,354.059a65.089,65.089,0,0,1-1.32,9.092q-.821,4.236-1.64,8.47c2.974,2.2,6.52,6.043,10.354-.029.181-.286.535-.425.726-.7a3.7,3.7,0,0,0,.472-1.276,89.787,89.787,0,0,0,2.216-15.939l-8.24-.324Z" transform="translate(-1003.496 -245.419)" fill="#b96d4b"/>
          <path id="Trazado_224204" data-name="Trazado 224204" d="M1059.74,382.956c1.447.174,2.9.288,4.354.4,7.359.578,14.719,1.157,22.091,1.555a38.826,38.826,0,0,0,7.351-.089,1.478,1.478,0,0,0,1.571-1.77A5.116,5.116,0,0,0,1094,379.27c-1.12-1.1-2.879-1.085-4.446-1.205a17.966,17.966,0,0,1-12.392-6.488c-.79-.971-1.632-2.119-2.878-2.242-1.511-.15-2.663,1.279-3.442,2.583s-1.729,2.8-3.242,2.938c-2.853.251-3.849-4.569-6.6-3.786Z" transform="translate(-1003.327 -246.918)" fill="#6da8c6"/>
          <path id="Trazado_224205" data-name="Trazado 224205" d="M1015.68,343.236a15.482,15.482,0,0,1-7.544,6.816c-.9.379-1.938.758-2.336,1.652a3.186,3.186,0,0,0-.177,1.433,12.553,12.553,0,0,0,1.532,5.784,7.628,7.628,0,0,0,4.615,3.647,1.35,1.35,0,0,0,.7.032,1.521,1.521,0,0,0,.686-.567q5.753-7.083,12.171-13.589a8.331,8.331,0,0,0-9.311-6.451Z" transform="translate(-998.25 -244.344)" fill="#b96d4b"/>
          <path id="Trazado_224206" data-name="Trazado 224206" d="M998.305,352.486a2.855,2.855,0,0,0-.034.842,67.679,67.679,0,0,1-.36,17.137,22.517,22.517,0,0,0-.412,4.368,14.826,14.826,0,0,0,.96,4.262,13.165,13.165,0,0,0,4.013,6.21c1.984,1.521,4.922,2.013,6.992.613a3.393,3.393,0,0,0,1.227-1.382c.63-1.4-.055-3-.478-4.484-1.239-4.344-.092-9.069,2-13.075a8.86,8.86,0,0,0,1.39-3.808,3.107,3.107,0,0,0-.305-1.445c-.771-1.565-2.282-1.375-3.6-1.67a5.153,5.153,0,0,1-2.054-9.082,10.1,10.1,0,0,0-7.347-.667,2.839,2.839,0,0,0-1.992,2.181Z" transform="translate(-997.488 -245.096)" fill="#6da8c6"/>
          <path id="Trazado_224207" data-name="Trazado 224207" d="M1048.3,234.822a94.425,94.425,0,0,0-4.864,69.708c-11.572,6.7-19.948,17.662-28.01,28.334a62.119,62.119,0,0,0,20.887,17.041,208.777,208.777,0,0,1,27.229-36.511q-3.69,14.649-5.957,29.607a50.247,50.247,0,0,0,20.9,3.2,1.731,1.731,0,0,0,1.134-.352,1.76,1.76,0,0,0,.4-1q2.508-14.467,5.017-28.933a100.428,100.428,0,0,0,1.677-13c.221-5.366-.418-10.756.073-16.1.7-7.6,3.65-14.876,4.13-22.493.56-8.89-2.273-17.6-5.12-26.045l-26.961-3.266a69.154,69.154,0,0,0-10.74-.737Z" transform="translate(-999.17 -234.248)" fill="#f59f18"/>
          <g id="Grupo_176156" data-name="Grupo 176156" transform="translate(62.345 21.803)">
            <path id="Trazado_224208" data-name="Trazado 224208" d="M1066.9,318.231a28.15,28.15,0,0,0,4.769-9.071,84.436,84.436,0,0,0,2.527-10.1q1.334-6.409,2.448-12.862t2.01-12.938q.894-6.474,1.571-12.977.084-.81.165-1.62c.047-.472-.69-.469-.738,0q-.644,6.454-1.5,12.884-.859,6.41-1.933,12.788-1.076,6.4-2.367,12.755c-.712,3.509-1.387,7.047-2.438,10.474a31.152,31.152,0,0,1-4.264,9.159c-.244.339-.5.669-.768.99-.3.362.217.886.521.521Z" transform="translate(-1066.286 -258.307)" fill="#b7772f"/>
          </g>
          <g id="Grupo_176157" data-name="Grupo 176157" transform="translate(70.707 20.385)">
            <path id="Trazado_224209" data-name="Trazado 224209" d="M1076.055,260.529a18.711,18.711,0,0,1,8.881-3.048c.47-.035.475-.773,0-.738a19.477,19.477,0,0,0-9.253,3.148c-.394.26-.025.9.372.637Z" transform="translate(-1075.514 -256.743)" fill="#b7772f"/>
          </g>
          <g id="Grupo_176158" data-name="Grupo 176158" transform="translate(1.598 105.83)">
            <path id="Trazado_224210" data-name="Trazado 224210" d="M999.264,351.492a49.458,49.458,0,0,1,1.334,8.316,53.888,53.888,0,0,1-.09,8.448,35.678,35.678,0,0,0-.1,8.225,11.405,11.405,0,0,0,2.925,6.417,7.382,7.382,0,0,0,6.781,2.188c.462-.11.266-.821-.2-.712a6.567,6.567,0,0,1-5.861-1.8,10.529,10.529,0,0,1-2.914-6.134,33.062,33.062,0,0,1,.083-7.939,55.708,55.708,0,0,0,.147-8.158,50.774,50.774,0,0,0-1.4-9.045.369.369,0,0,0-.711.2Z" transform="translate(-999.251 -351.032)" fill="#fff"/>
          </g>
          <g id="Grupo_176159" data-name="Grupo 176159" transform="translate(5.746 135.049)">
            <path id="Trazado_224211" data-name="Trazado 224211" d="M1004.478,385.962a9.391,9.391,0,0,1,5.864-1.948.369.369,0,0,0,0-.738,10.183,10.183,0,0,0-6.385,2.165c-.374.291.151.809.521.521Z" transform="translate(-1003.828 -383.275)" fill="#fff"/>
          </g>
          <g id="Grupo_176160" data-name="Grupo 176160" transform="translate(6.923 105.902)">
            <path id="Trazado_224212" data-name="Trazado 224212" d="M1006.089,351.289a6.812,6.812,0,0,0,2.961,9.675c.428.2.8-.436.372-.637a6.076,6.076,0,0,1-2.7-8.665.369.369,0,0,0-.637-.372Z" transform="translate(-1005.127 -351.111)" fill="#fff"/>
          </g>
          <g id="Grupo_176161" data-name="Grupo 176161" transform="translate(2.49 104.433)">
            <path id="Trazado_224213" data-name="Trazado 224213" d="M1000.79,353.826a5.685,5.685,0,0,0,2.294-3.966.37.37,0,0,0-.369-.369.378.378,0,0,0-.369.369,4.877,4.877,0,0,1-1.928,3.329.38.38,0,0,0-.132.5.373.373,0,0,0,.5.132Z" transform="translate(-1000.235 -349.491)" fill="#fff"/>
          </g>
          <g id="Grupo_176162" data-name="Grupo 176162" transform="translate(7.26 121.324)">
            <path id="Trazado_224214" data-name="Trazado 224214" d="M1010.153,368.809c.023-.432-.36-.655-.747-.677a3.364,3.364,0,0,0-1.343.372,4.06,4.06,0,0,0-2.276,1.787,2.213,2.213,0,0,0,.219,2.518,3.364,3.364,0,0,0,2.411.866c.872.033,2.149-.168,2.166-1.3a.977.977,0,0,0-.713-.958,1.888,1.888,0,0,0-1.283.2c-1.561.728-3.157,2.3-2.983,4.163a3.058,3.058,0,0,0,1.3,2.3c1.041.676,2.233.239,3.26-.225.432-.2.058-.831-.372-.637a2.976,2.976,0,0,1-2.2.389,1.983,1.983,0,0,1-1.084-1.146,2.974,2.974,0,0,1,1.075-3.3,4.374,4.374,0,0,1,1.686-1c.214-.053.581-.083.574.231-.008.348-.41.5-.694.541-1.077.169-3-.107-2.922-1.551a2.334,2.334,0,0,1,1.291-1.8,6.824,6.824,0,0,1,1.123-.5,4.347,4.347,0,0,1,.546-.186c.052-.011.134,0,.182-.017.168-.051.036.088.043-.059-.024.474.713.473.738,0Z" transform="translate(-1005.5 -368.13)" fill="#fff"/>
          </g>
          <g id="Grupo_176163" data-name="Grupo 176163" transform="translate(57.365 129.413)">
            <path id="Trazado_224215" data-name="Trazado 224215" d="M1060.962,377.752a6.7,6.7,0,0,1,2.928,4.2c.1.463.814.267.711-.2a7.44,7.44,0,0,0-3.267-4.639c-.4-.255-.773.383-.372.637Z" transform="translate(-1060.79 -377.056)" fill="#fff"/>
          </g>
          <g id="Grupo_176164" data-name="Grupo 176164" transform="translate(56.985 134.018)">
            <path id="Trazado_224216" data-name="Trazado 224216" d="M1060.726,382.876l13.3.684,13.306.684,7.48.385c.475.024.473-.714,0-.738l-13.3-.685-13.3-.684-7.481-.384c-.474-.024-.473.713,0,.738Z" transform="translate(-1060.371 -382.137)" fill="#fff"/>
          </g>
          <g id="Grupo_176165" data-name="Grupo 176165" transform="translate(73.257 127.011)">
            <path id="Trazado_224217" data-name="Trazado 224217" d="M1079.679,374.454a2.552,2.552,0,0,0,2.054,4.658,3.434,3.434,0,0,0,1.5-1.12,4.057,4.057,0,0,0,.519-.843,1.475,1.475,0,0,0,.209-.952c-.185-.677-1.085-.66-1.587-.4a1.847,1.847,0,0,0-.967,1.543,2.351,2.351,0,0,0,.991,1.895,4.15,4.15,0,0,0,2.449.7.37.37,0,0,0,0-.739,2.671,2.671,0,0,1-2.6-1.288,1.15,1.15,0,0,1,.15-1.2.955.955,0,0,1,.489-.325.535.535,0,0,1,.259-.015c.128.038.105.033.061.169a3.011,3.011,0,0,1-1.715,1.879,1.816,1.816,0,0,1-1.445-3.324c.418-.227.045-.865-.372-.637Z" transform="translate(-1078.328 -374.406)" fill="#fff"/>
          </g>
          <g id="Grupo_176166" data-name="Grupo 176166" transform="translate(62.745 125.667)">
            <path id="Trazado_224218" data-name="Trazado 224218" d="M1066.977,376.206a4.6,4.6,0,0,0,5.8-2.832c.146-.453-.566-.647-.711-.2a3.856,3.856,0,0,1-4.889,2.316c-.445-.169-.637.545-.2.711Z" transform="translate(-1066.727 -372.922)" fill="#fff"/>
          </g>
          <g id="Grupo_176167" data-name="Grupo 176167" transform="translate(44.793 69.452)">
            <path id="Trazado_224219" data-name="Trazado 224219" d="M1047.274,311.627h6.96a.369.369,0,0,0,0-.738h-6.96a.369.369,0,0,0,0,.738Z" transform="translate(-1046.918 -310.889)" fill="#b7772f"/>
          </g>
          <g id="Grupo_176168" data-name="Grupo 176168" transform="translate(44.093 71.21)">
            <path id="Trazado_224220" data-name="Trazado 224220" d="M1046.4,313.562a37.33,37.33,0,0,0,6.273,1.547c.464.072.664-.639.2-.711a37.33,37.33,0,0,1-6.273-1.547c-.45-.154-.643.558-.2.711Z" transform="translate(-1046.145 -312.829)" fill="#b7772f"/>
          </g>
          <g id="Grupo_176169" data-name="Grupo 176169" transform="translate(19.57 95.201)">
            <path id="Trazado_224221" data-name="Trazado 224221" d="M1019.154,339.833a59.7,59.7,0,0,0,14.287,13.81q2.337,1.6,4.82,2.972c.416.229.788-.407.373-.637a58.867,58.867,0,0,1-15.327-12.2q-1.861-2.073-3.516-4.317c-.278-.379-.919-.011-.637.372Z" transform="translate(-1019.084 -339.302)" fill="#b7772f"/>
          </g>
          <g id="Grupo_176170" data-name="Grupo 176170" transform="translate(59.761 104.934)">
            <path id="Trazado_224222" data-name="Trazado 224222" d="M1063.7,350.768a52.269,52.269,0,0,0,16.008,1.582c1.515-.086,3.025-.243,4.527-.459a.372.372,0,0,0,.257-.454.378.378,0,0,0-.454-.257,51.319,51.319,0,0,1-15.791-.194q-2.2-.37-4.353-.93a.369.369,0,0,0-.2.711Z" transform="translate(-1063.434 -350.043)" fill="#b7772f"/>
          </g>
          <g id="Grupo_176171" data-name="Grupo 176171" transform="translate(26.857 5.601)">
            <path id="Trazado_224223" data-name="Trazado 224223" d="M1053.485,240.617a34.881,34.881,0,0,0-3.4,8.951,49.4,49.4,0,0,0-.256,10.065q.262,10.348-.113,20.7-.374,10.3-1.379,20.561a37.442,37.442,0,0,1-1.772,9.7,30.683,30.683,0,0,1-4.768,7.858c-4.1,5.234-8.465,10.275-12.909,15.217q-.828.922-1.664,1.837c-.319.351.2.874.522.522q6.83-7.494,13.226-15.371a45.974,45.974,0,0,0,5.179-7.384,25.436,25.436,0,0,0,2.558-8.94c.836-6.835,1.285-13.74,1.6-20.616q.481-10.342.323-20.7c-.052-3.409-.309-6.841-.156-10.248a21.078,21.078,0,0,1,.788-4.988,32.343,32.343,0,0,1,1.784-4.573c.347-.745.709-1.484,1.069-2.223.208-.425-.429-.8-.637-.372Z" transform="translate(-1027.125 -240.428)" fill="#b7772f"/>
          </g>
          <g id="Grupo_176172" data-name="Grupo 176172" transform="translate(70.8 84.952)">
            <path id="Trazado_224224" data-name="Trazado 224224" d="M1076.357,328.347q-.669,8.509-.735,17.052-.018,2.439.014,4.877a.369.369,0,0,0,.738,0q-.107-8.535.387-17.063.143-2.434.334-4.866c.037-.473-.7-.471-.738,0Z" transform="translate(-1075.616 -327.993)" fill="#b7772f"/>
          </g>
          <g id="Grupo_176173" data-name="Grupo 176173" transform="translate(72.116 67.865)">
            <path id="Trazado_224225" data-name="Trazado 224225" d="M1077.424,309.876a9.027,9.027,0,0,1,2.847.565.371.371,0,0,0,.453-.257.377.377,0,0,0-.257-.454,9.667,9.667,0,0,0-3.043-.591c-.475-.015-.474.722,0,.738Z" transform="translate(-1077.068 -309.138)" fill="#b7772f"/>
          </g>
          <g id="Grupo_176174" data-name="Grupo 176174" transform="translate(72.428 70.381)">
            <path id="Trazado_224226" data-name="Trazado 224226" d="M1077.592,312.6a6.94,6.94,0,0,0,3.171.7.369.369,0,0,0,0-.738,6.13,6.13,0,0,1-2.8-.594.379.379,0,0,0-.5.132.372.372,0,0,0,.132.5Z" transform="translate(-1077.412 -311.914)" fill="#b7772f"/>
          </g>
        </g>
        <path id="Trazado_224227" data-name="Trazado 224227" d="M1129.194,169.16c4.624-.478,17.909-5.894,17.488-1.138-.385,4.348-11.8,6.378-15.868,7.763a2.1,2.1,0,0,1-1.805.048c-.593-.392-.621-1.237-.584-1.947l.153-2.99Z" transform="translate(-1009.768 -123.385)" fill="#8e8b5e"/>
        <path id="Trazado_224228" data-name="Trazado 224228" d="M1129.215,199.041c-1.576.7-3.346-1.079-3.318-2.8s1.19-3.2,2.331-4.487a117.764,117.764,0,0,1,17.76-16.023c1.371-1.029,3.29-2.058,4.655-.939a2.419,2.419,0,0,1,.811,2.169c-.185,1.56-1.286,2.645-2.347,3.672L1132.179,197a10.891,10.891,0,0,1-2.838,1.981Z" transform="translate(-1009.532 -124.157)" fill="#8e8b5e"/>
        <path id="Trazado_224229" data-name="Trazado 224229" d="M1072.245,158.532c-2.422,1.267-6.04,1.558-8.691,2.23-3.2.811-6.632.726-9.66,2.035-3.714,1.606-6.324,5.164-7.6,9a33.726,33.726,0,0,0-1.2,12.012,100.917,100.917,0,0,0,1.523,13.859c1.083,6,2.711,11.918,3.325,17.988s.136,12.447-2.765,17.814c2.784.679,5.109,2.537,7.7,3.753a27.7,27.7,0,0,0,11.16,2.161,63.873,63.873,0,0,0,27.489-5.55A89.915,89.915,0,0,1,1096,202.346a53.776,53.776,0,0,0,1.736-7.735,41.234,41.234,0,0,0,.075-5.832c-.138-4.047-.29-8.168-1.639-11.986a37.739,37.739,0,0,0-5.289-9.173,29.424,29.424,0,0,0-4.84-5.632,10.469,10.469,0,0,0-6.78-2.67Z" transform="translate(-1001.947 -122.677)" fill="#e0dcb1"/>
        <path id="Trazado_224230" data-name="Trazado 224230" d="M1089.637,162.426c2.706,1.016,4.657,3.439,5.96,6.019s2.087,5.392,3.283,8.024a28.088,28.088,0,0,0,10.905,12.293l-13.262,14.523a71.036,71.036,0,0,0-4.991-23.01Z" transform="translate(-1006.131 -123.043)" fill="#e0dcb1"/>
        <path id="Trazado_224231" data-name="Trazado 224231" d="M1063.584,160.828c1.734,7.476,6.41,12.763,7.108,20.406.319,3.5,2.082,8.256,1.312,11.685a37.614,37.614,0,0,1-3.535,8.671l-6.166,12.127c-1.837,3.613-3.729,7.3-6.668,10.093-3.609,3.427-9,5.927-9.71,10.853a7.411,7.411,0,0,1,4.87,5.029,21.888,21.888,0,0,1,.725,7.234c-.15,12.852,1.208,34.721,1.058,47.573,11.3,1.279,26.505-7.749,37.8-9.047,5.9-.677,11.873-1.744,17.111-4.539-2.208-7.362-7.488-15.17-7.964-22.84-1.235-19.883-5.736-39.567-5.266-59.482.218-9.256,1.185-18.728-1.647-27.543-1.516-4.718-2.636-5.653-5.184-7.927a47.673,47.673,0,0,1,3.815,23.46,56.957,56.957,0,0,1-17.4,2.536c.334-10.017-4.724-19.057-7.284-28.747A13.422,13.422,0,0,0,1063.584,160.828Z" transform="translate(-1002.031 -122.848)" fill="#8e8b5e"/>
        <path id="Trazado_224232" data-name="Trazado 224232" d="M1099.239,151.635a5.6,5.6,0,0,1,0,2.272c-.457,1.633-2.275,2.525-3.966,2.658s-5.473-.259-5.643-.164a25.749,25.749,0,0,0-2.3,7.607,15.309,15.309,0,0,0,1.532,9.812c-5.122-5.78-12.084-10.5-15.94-17.19a24.506,24.506,0,0,0,3.895-6.55,2.021,2.021,0,0,1-2.3.65,3.485,3.485,0,0,1-1.833-1.72,4.536,4.536,0,0,1-.066-4.344,3.3,3.3,0,0,1,3.89-1.489c-.069-.458.55-4.584.481-5.041,5.8-3.406,9.913-5.9,16.343-7.873C1093.323,130.262,1098.4,145.57,1099.239,151.635Z" transform="translate(-1004.485 -120.026)" fill="#b96d4b"/>
        <path id="Trazado_224233" data-name="Trazado 224233" d="M1066.355,141.555c-.469-3.89-5.3-6.546-4.855-10.439a6.5,6.5,0,0,1,3-4.29c1.469-1.038,3.136-1.783,4.545-2.9,2.073-1.647,3.658-4.136,6.224-4.794,2.512-.644,5.074.712,7.227,2.158,3.229,2.166,6.238,4.639,9.242,7.108a99.742,99.742,0,0,0-25.163,13.182Z" transform="translate(-1003.489 -118.966)" fill="#f59f18"/>
        <path id="Trazado_224234" data-name="Trazado 224234" d="M1065.791,139.468a75.835,75.835,0,0,1,19.766-14.716,2.55,2.55,0,0,1,1.422-.4,2.468,2.468,0,0,1,1.138.567,24.815,24.815,0,0,1,4.148,3.963c-9.51,2.6-17.895,8.157-26.094,13.631l-.536-3.07Z" transform="translate(-1003.88 -119.47)" fill="#c23f37"/>
        <path id="Trazado_224235" data-name="Trazado 224235" d="M1130.1,204.3l-.192-2.855a6.1,6.1,0,0,1-3.494-.457,2.326,2.326,0,0,1-1.094-3.013,21.437,21.437,0,0,0,4.673-.68c.485-.127,1-.29,1.107-.969a1.441,1.441,0,0,0-.128-.829,6.118,6.118,0,0,0-1.349-1.512,4.891,4.891,0,0,1-1.312-4.082,1.713,1.713,0,0,1,.37-.85c.9-1.057,2.526-.186,3.55.7a1.556,1.556,0,1,1,1.7-2.234c-.2-1.266-.13-3.011,1.3-3.132a1.8,1.8,0,0,1,1.185.349l6.187,4.4-1.85-5.307a1.881,1.881,0,0,1,.084-2,1.692,1.692,0,0,1,1.39-.564,3.868,3.868,0,0,1,2.568,1.617,10.2,10.2,0,0,1,2.389,4.18,5,5,0,0,1-1,4.556c-.724.771-1.786,1.289-2.161,2.277-.209.553-.166,1.178-.386,1.727-.7,1.743-3.377,1.641-4.531,3.122-1.192,1.528-.175,3.854-.915,5.645-.756,1.829-2.925,2.388-4.972,2.576a2.875,2.875,0,0,1-3.124-2.67Z" transform="translate(-1009.456 -124.81)" fill="#f59f18"/>
        <g id="Grupo_176176" data-name="Grupo 176176" transform="translate(93.391 65.091)">
          <path id="Trazado_224236" data-name="Trazado 224236" d="M1102.286,191.146a32.533,32.533,0,0,1,.068,6.1,44.224,44.224,0,0,1-.922,6.373,32.717,32.717,0,0,1-.866,3.19c-.149.451.563.645.711.2a36.959,36.959,0,0,0,1.389-6,44.054,44.054,0,0,0,.532-6.514,27.98,27.98,0,0,0-.175-3.343c-.054-.466-.793-.471-.738,0Z" transform="translate(-1100.546 -190.794)" fill="#66623c"/>
        </g>
        <g id="Grupo_176177" data-name="Grupo 176177" transform="translate(95.54 63.816)">
          <path id="Trazado_224237" data-name="Trazado 224237" d="M1103.549,194.73l4.77-4.714c.338-.333-.184-.855-.522-.521l-4.77,4.713c-.338.334.184.855.522.522Z" transform="translate(-1102.917 -189.387)" fill="#66623c"/>
        </g>
        <g id="Grupo_176178" data-name="Grupo 176178" transform="translate(66.874 37.883)">
          <path id="Trazado_224238" data-name="Trazado 224238" d="M1071.328,161.329a77.436,77.436,0,0,1,5.292,13.141.373.373,0,0,0,.454.257c3.209-1.065,6.355.718,9.047,2.293a.369.369,0,0,0,.372-.637c-2.865-1.676-6.21-3.5-9.617-2.367l.454.258a78.549,78.549,0,0,0-5.366-13.318c-.217-.422-.854-.05-.637.372Z" transform="translate(-1071.283 -160.771)" fill="#66623c"/>
        </g>
        <g id="Grupo_176179" data-name="Grupo 176179" transform="translate(84.673 41.541)">
          <path id="Trazado_224239" data-name="Trazado 224239" d="M1091.866,176.344a7.981,7.981,0,0,1,1.464-6.691.383.383,0,0,0,0-.522c-.906-1.04-1.769-2.424-1.45-3.863.1-.462-.609-.66-.711-.2-.381,1.722.546,3.324,1.639,4.581v-.522a8.769,8.769,0,0,0-1.653,7.41c.109.461.82.266.711-.2Z" transform="translate(-1090.925 -164.807)" fill="#66623c"/>
        </g>
        <path id="Trazado_224240" data-name="Trazado 224240" d="M1053.268,199.551l3.392-1.3a30.456,30.456,0,0,0,15.409-13.14l-5.159-.574-11.694,8.484Z" transform="translate(-1002.72 -125.116)" fill="#66623c"/>
        <g id="Grupo_176180" data-name="Grupo 176180" transform="translate(78.754 72.164)">
          <path id="Trazado_224241" data-name="Trazado 224241" d="M1094.11,199.316a11.814,11.814,0,0,0,2.212.137l-.369-.37q-.17,2.087-.443,4.163c-.087.657-.175,1.317-.292,1.969a5.126,5.126,0,0,1-.56,1.719,6.458,6.458,0,0,1-2.643,2.149,11.306,11.306,0,0,1-3.241,1.1,11.032,11.032,0,0,1-3.918,0c-.464-.084-.663.627-.2.711a12.086,12.086,0,0,0,7.275-.955,8.537,8.537,0,0,0,3.014-2.149,7.165,7.165,0,0,0,1.178-3.67q.357-2.512.564-5.043a.372.372,0,0,0-.369-.369,10.706,10.706,0,0,1-2.015-.11c-.465-.072-.665.639-.2.711Z" transform="translate(-1084.394 -198.599)" fill="#66623c"/>
        </g>
        <g id="Grupo_176181" data-name="Grupo 176181" transform="translate(85.756 74.693)">
          <path id="Trazado_224242" data-name="Trazado 224242" d="M1092.578,202.478a11.649,11.649,0,0,1,3.769-.311.373.373,0,0,0,.369-.369.377.377,0,0,0-.369-.37,12.3,12.3,0,0,0-3.965.338.369.369,0,0,0,.2.711Z" transform="translate(-1092.12 -201.391)" fill="#66623c"/>
        </g>
        <g id="Grupo_176182" data-name="Grupo 176182" transform="translate(52.589 98.192)">
          <path id="Trazado_224243" data-name="Trazado 224243" d="M1055.871,232.781l15.222-1.843,15.162-1.835,8.585-1.04c.466-.056.471-.795,0-.738l-15.222,1.843L1064.456,231l-8.585,1.039c-.465.056-.471.795,0,.738Z" transform="translate(-1055.52 -227.322)" fill="#66623c"/>
        </g>
        <g id="Grupo_176183" data-name="Grupo 176183" transform="translate(59.936 105.023)">
          <path id="Trazado_224244" data-name="Trazado 224244" d="M1065.936,257.315a124.372,124.372,0,0,0,22.637-2.893q3.182-.709,6.322-1.585a.38.38,0,0,0,.271-.356,113.1,113.1,0,0,0-.355-13.437q-.165-1.91-.4-3.813c-.022-.181-.152-.392-.369-.369q-11.7,1.267-23.467,1.828-3.289.156-6.581.257a.372.372,0,0,0-.37.369l.655,6.63,1.043,10.57q.119,1.215.24,2.43c.046.469.785.473.738,0q-.328-3.315-.654-6.63-.522-5.285-1.044-10.57-.12-1.215-.24-2.43l-.368.369q11.765-.362,23.494-1.431,3.28-.3,6.554-.654l-.369-.369a113.126,113.126,0,0,1,.813,13.417q0,1.917-.062,3.833c.091-.119.18-.237.271-.355a123.331,123.331,0,0,1-22.376,4.063q-3.187.277-6.387.389C1065.463,256.593,1065.46,257.332,1065.936,257.315Z" transform="translate(-1063.628 -234.86)" fill="#66623c"/>
        </g>
        <g id="Grupo_176184" data-name="Grupo 176184" transform="translate(61.176 109.54)">
          <path id="Trazado_224245" data-name="Trazado 224245" d="M1065.352,241.747q11.237.107,22.46-.659,3.168-.216,6.332-.5c.469-.043.473-.781,0-.739q-11.192,1.015-22.44,1.155-3.175.039-6.352.008a.369.369,0,0,0,0,.738Z" transform="translate(-1064.996 -239.844)" fill="#66623c"/>
        </g>
        <g id="Grupo_176185" data-name="Grupo 176185" transform="translate(65.581 117.035)">
          <path id="Trazado_224246" data-name="Trazado 224246" d="M1086.386,248.305q-3.069,6.522-6.256,12.989-3.172,6.439-6.46,12.82-1.865,3.62-3.767,7.22c-.222.42.415.793.637.372q3.366-6.374,6.618-12.807,3.239-6.406,6.361-12.871,1.771-3.667,3.5-7.351c.2-.428-.435-.8-.637-.372Z" transform="translate(-1069.857 -248.115)" fill="#66623c"/>
        </g>
        <g id="Grupo_176186" data-name="Grupo 176186" transform="translate(72.254 120.796)">
          <path id="Trazado_224247" data-name="Trazado 224247" d="M1089.689,252.455q-4.982,10.607-9.741,21.317-1.356,3.053-2.693,6.112c-.188.43.447.806.637.372q4.694-10.738,9.612-21.375,1.4-3.031,2.822-6.053c.2-.428-.435-.8-.637-.372Z" transform="translate(-1077.221 -252.265)" fill="#66623c"/>
        </g>
        <g id="Grupo_176187" data-name="Grupo 176187" transform="translate(78.582 97.183)">
          <path id="Trazado_224248" data-name="Trazado 224248" d="M1084.251,226.764c.08.143.15.29.219.439l0,.008.027.065.038.1c.031.082.06.164.086.247.051.156.093.314.129.473.018.08.035.16.048.24.007.041.013.081.02.121s.006.045,0,.005l.008.07a.379.379,0,0,0,.369.369c.18-.008.393-.164.37-.369a5.794,5.794,0,0,0-.682-2.14.372.372,0,0,0-.5-.132.377.377,0,0,0-.133.5Z" transform="translate(-1084.203 -226.208)" fill="#66623c"/>
        </g>
        <g id="Grupo_176188" data-name="Grupo 176188" transform="translate(81.01 97.023)">
          <path id="Trazado_224249" data-name="Trazado 224249" d="M1086.883,226.4v1.756a.369.369,0,0,0,.738,0V226.4a.369.369,0,1,0-.738,0Z" transform="translate(-1086.883 -226.032)" fill="#66623c"/>
        </g>
        <g id="Grupo_176189" data-name="Grupo 176189" transform="translate(64.824 101.953)">
          <path id="Trazado_224250" data-name="Trazado 224250" d="M1069.451,231.739l-.419,1.74a.369.369,0,1,0,.711.2l.419-1.74a.369.369,0,0,0-.711-.2Z" transform="translate(-1069.021 -231.472)" fill="#66623c"/>
        </g>
        <g id="Grupo_176190" data-name="Grupo 176190" transform="translate(66.768 101.774)">
          <path id="Trazado_224251" data-name="Trazado 224251" d="M1071.4,231.54q-.111.7-.222,1.4a.4.4,0,0,0,.037.284.369.369,0,0,0,.674-.088q.112-.7.222-1.4a.4.4,0,0,0-.037-.285.378.378,0,0,0-.22-.169.374.374,0,0,0-.454.257Z" transform="translate(-1071.167 -231.274)" fill="#66623c"/>
        </g>
        <g id="Grupo_176191" data-name="Grupo 176191" transform="translate(69.068 101.949)">
          <path id="Trazado_224252" data-name="Trazado 224252" d="M1073.921,231.734l-.207,1.4a.407.407,0,0,0,.037.284.369.369,0,0,0,.674-.088l.207-1.4a.4.4,0,0,0-.037-.285.369.369,0,0,0-.674.088Z" transform="translate(-1073.705 -231.468)" fill="#66623c"/>
        </g>
        <g id="Grupo_176192" data-name="Grupo 176192" transform="translate(48.853 85.042)">
          <path id="Trazado_224253" data-name="Trazado 224253" d="M1051.962,216.678q3.852-1.7,7.814-3.132c.442-.16.251-.874-.2-.711q-4.048,1.468-7.99,3.206c-.433.191-.058.827.372.637Z" transform="translate(-1051.397 -212.811)" fill="#66623c"/>
        </g>
        <g id="Grupo_176193" data-name="Grupo 176193" transform="translate(51.351 87.74)">
          <path id="Trazado_224254" data-name="Trazado 224254" d="M1054.708,218.769a37.1,37.1,0,0,1,4.824-2.244c.439-.168.249-.881-.2-.711a38.536,38.536,0,0,0-5,2.317c-.415.23-.043.868.372.638Z" transform="translate(-1054.154 -215.788)" fill="#66623c"/>
        </g>
        <path id="Trazado_224255" data-name="Trazado 224255" d="M1090.437,158.881l-9.717-2.179,8.6,5.159.039-.138a17.972,17.972,0,0,1,1.08-2.843Z" transform="translate(-1005.295 -122.506)" fill="#69311c" opacity="0.61"/>
        <g id="Grupo_176194" data-name="Grupo 176194" transform="translate(69.276 24.736)">
          <path id="Trazado_224256" data-name="Trazado 224256" d="M1074.117,146.953a5.23,5.23,0,0,1,2,2.761.369.369,0,0,0,.711-.2,6.04,6.04,0,0,0-2.334-3.2.369.369,0,0,0-.372.638Z" transform="translate(-1073.935 -146.263)" fill="#69311c"/>
        </g>
        <g id="Grupo_176195" data-name="Grupo 176195" transform="translate(69.126 26.774)">
          <path id="Trazado_224257" data-name="Trazado 224257" d="M1074.323,149.9l1.637-.708a.37.37,0,0,0,.132-.5.38.38,0,0,0-.5-.132l-1.637.708a.37.37,0,0,0-.132.5.381.381,0,0,0,.5.132Z" transform="translate(-1073.769 -148.511)" fill="#69311c"/>
        </g>
        <g id="Grupo_176196" data-name="Grupo 176196" transform="translate(86.722 19.499)">
          <path id="Trazado_224258" data-name="Trazado 224258" d="M1093.222,141.048a52.711,52.711,0,0,0,4.368,7.8l.22-.542a6.41,6.41,0,0,1-3.355.114c-.462-.109-.659.6-.2.711a7.184,7.184,0,0,0,3.747-.114.372.372,0,0,0,.22-.542,52.761,52.761,0,0,1-4.367-7.8c-.2-.431-.832-.057-.637.372Z" transform="translate(-1093.186 -140.484)" fill="#69311c"/>
        </g>
        <g id="Grupo_176197" data-name="Grupo 176197" transform="translate(83.662 28.175)">
          <path id="Trazado_224259" data-name="Trazado 224259" d="M1089.824,150.524a2.67,2.67,0,0,0,3.009,1.78.373.373,0,0,0,.258-.454.378.378,0,0,0-.454-.257c-.035.006-.069.014-.1.018.054-.007,0,0-.024,0-.063.005-.127.007-.191.007s-.127,0-.19-.011c-.028,0-.077-.012-.023,0-.034-.006-.069-.012-.1-.019a2.263,2.263,0,0,1-.352-.1c-.022-.008-.073-.03-.024-.009-.033-.014-.064-.029-.1-.044-.058-.028-.114-.059-.169-.092s-.109-.068-.161-.105c-.006,0-.078-.059-.046-.034s-.038-.032-.044-.037a2.377,2.377,0,0,1-.27-.272c-.005-.005-.061-.076-.036-.044s-.028-.041-.033-.047a1.865,1.865,0,0,1-.109-.178c-.028-.05-.054-.1-.078-.155.03.065-.014-.037-.015-.041-.012-.034-.022-.066-.032-.1a.376.376,0,0,0-.454-.257.373.373,0,0,0-.258.453Z" transform="translate(-1089.81 -150.058)" fill="#69311c"/>
        </g>
        <ellipse id="Elipse_7754" data-name="Elipse 7754" cx="1.015" cy="1.422" rx="1.015" ry="1.422" transform="translate(80.469 21.723)"/>
        <path id="Trazado_224260" data-name="Trazado 224260" d="M1098.376,143.575c0,.786-.455,1.422-1.015,1.422s-1.016-.636-1.016-1.422.455-1.421,1.016-1.421S1098.376,142.79,1098.376,143.575Z" transform="translate(-1006.76 -121.141)"/>
        <path id="Trazado_224261" data-name="Trazado 224261" d="M1087.884,138.659a.929.929,0,0,1,1.019.849.567.567,0,0,1-.185.475,1.052,1.052,0,0,1-.347.179l-4.063,1.492c-.156.058-.332.116-.478-.032a.434.434,0,0,1-.025-.56,6.706,6.706,0,0,1,3.1-2.29.965.965,0,0,1,.244-.052Z" transform="translate(-1005.576 -120.813)"/>
        <path id="Trazado_224262" data-name="Trazado 224262" d="M1094.856,137.9a.928.928,0,0,0-1.02.849.569.569,0,0,0,.184.475,1.065,1.065,0,0,0,.348.179l4.063,1.492c.157.058.333.116.478-.032a.436.436,0,0,0,.025-.56,6.711,6.711,0,0,0-3.1-2.29.976.976,0,0,0-.244-.052Z" transform="translate(-1006.525 -120.742)"/>
        <path id="Trazado_224263" data-name="Trazado 224263" d="M1094.637,129.017c-.146.677.607,1.245,1.307,1.3s1.391-.191,2.094-.2,1.519.384,1.567,1.074a1.362,1.362,0,0,1-.159.669,3.106,3.106,0,0,1-3.647,1.544c-.4-.13-.755-.736-.355-.862a.55.55,0,0,1,.275.826,1.407,1.407,0,0,1-.868.518,6.628,6.628,0,0,1-1.59.229,1.6,1.6,0,0,1-1.317-.432c-.3-.372-.056-1.087.42-1.032a3.083,3.083,0,0,1-2.3,2.255,3.136,3.136,0,0,1-3.057-1.08c.586.295.452,1.242-.085,1.616a2.964,2.964,0,0,1-1.91.3,2.175,2.175,0,0,1-2.691,2.337,2.277,2.277,0,0,1-3,2.411c.4.381-.043,1.118-.6,1.181a2.273,2.273,0,0,1-1.514-.611c.664.117.744,1.192.161,1.526a1.279,1.279,0,0,1-1.677-.641,2.255,2.255,0,0,1,.136-1.923,2.989,2.989,0,0,1,.768-1.013,11.653,11.653,0,0,1,2.752-1.159,9.381,9.381,0,0,0,2.187-1.617,50.276,50.276,0,0,1,11.65-7.5Z" transform="translate(-1004.808 -119.883)"/>
        <path id="Trazado_224264" data-name="Trazado 224264" d="M1065.442,149.143a4.081,4.081,0,0,0,3.507-1.347,73.917,73.917,0,0,1,11.082-10.622,40.433,40.433,0,0,1,15.925-7.537c1.614-.335,3.568-.8,4.02-2.3a.51.51,0,0,0-.007-.4c-.125-.212-.445-.207-.7-.17a52.926,52.926,0,0,0-10.032,2.612,95.5,95.5,0,0,0-22.586,11.493c-1.55,1.071-3.146,2.295-3.729,4.021s.392,4.025,2.3,4.23Z" transform="translate(-1003.61 -119.696)" fill="#f59f18"/>
        <path id="Trazado_224265" data-name="Trazado 224265" d="M1078.306,142.41a.783.783,0,0,0-.179,1.157,2.845,2.845,0,0,0,1.106.743,1.622,1.622,0,0,1,.932.913,1.827,1.827,0,0,1-.575,1.5,1.251,1.251,0,0,1-.544.46.436.436,0,0,1-.572-.275c-.045-.293.46-.451.59-.185a.562.562,0,0,1-.6.4,1.136,1.136,0,0,1-.682-.354,2.42,2.42,0,0,1-.71-1.377.757.757,0,0,1,.218-.754c.228-.155.633.1.5.336a.435.435,0,0,1-.208.165,1.668,1.668,0,0,1-1.548-.02,1.14,1.14,0,0,1-.481-1.392Z" transform="translate(-1004.802 -121.165)"/>
        <g id="Grupo_176198" data-name="Grupo 176198" transform="translate(84.145 53.69)">
          <path id="Trazado_224266" data-name="Trazado 224266" d="M1090.357,178.683q.269.826.539,1.654a.369.369,0,1,0,.711-.2q-.27-.826-.539-1.655a.369.369,0,0,0-.711.2Z" transform="translate(-1090.342 -178.214)" fill="#66623c"/>
        </g>
        <path id="Trazado_224267" data-name="Trazado 224267" d="M1050.143,185.043a21.488,21.488,0,0,1,9.029-6.483c1.954-.735,4.2-1.164,6.084-.259a9.532,9.532,0,0,1,3.367,3.385l4.717,6.7c10.747-5.079,20.148-12.638,30.75-18.012a54.934,54.934,0,0,1,1.656,9.391,3.359,3.359,0,0,1-.089,1.443,3.472,3.472,0,0,1-.959,1.251l-17.628,16.868a116.9,116.9,0,0,1-9.87,8.758,10.694,10.694,0,0,1-2.942,1.736,7.828,7.828,0,0,1-6.554-1.089,20.785,20.785,0,0,1-4.883-4.785,134.186,134.186,0,0,1-11.335-16.5Z" transform="translate(-1002.427 -123.789)" fill="#b96d4b"/>
        <path id="Trazado_224268" data-name="Trazado 224268" d="M1107.666,167.669c1.154,5.386,1.778,10.936.66,16.33,1.871-1.435,4.467-1.509,6.778-1.042s4.514,1.4,6.84,1.789a5.865,5.865,0,0,0,3.066-.147,2.7,2.7,0,0,0,1.811-2.3,2.434,2.434,0,0,0,3.428-2.5,3.226,3.226,0,0,0,4.3-2.758c1.576.495,3.261,1,4.843.189a2.407,2.407,0,0,0,1.344-1.906c.114-1.346-1.008-2.168-2.075-2.738-3.43-1.831-7.475-2.638-10.355-5.251-.979-.887-1.857-2-3.126-2.364-1.836-.525-3.648.7-5.385,1.5a12.793,12.793,0,0,1-8.914.589,4.192,4.192,0,0,0-3.216.612Z" transform="translate(-1007.822 -123.27)" fill="#f59f18"/>
        <path id="Trazado_224269" data-name="Trazado 224269" d="M1052.3,199.3a48.88,48.88,0,0,1,19.112-15.66c-1.055-2.354-1.737-4.86-2.778-7.22a12.836,12.836,0,0,0-4.72-5.979c-3.578-2.181-8.5-1.317-11.657,1.443s-4.665,7.057-4.759,11.247a32.144,32.144,0,0,0,2.606,12.214Z" transform="translate(-1002.178 -123.679)" fill="#e0dcb1"/>
        <g id="Grupo_176199" data-name="Grupo 176199" transform="translate(50.204 40.246)">
          <path id="Trazado_224270" data-name="Trazado 224270" d="M1053.516,197.712a86.662,86.662,0,0,1,14.16-11.667q2.145-1.414,4.372-2.7a.371.371,0,0,0,.169-.417,90.769,90.769,0,0,0-8.211-15.389q-1.358-2.04-2.826-4c-.281-.376-.922-.008-.637.372a90.358,90.358,0,0,1,8.948,14.734q1.068,2.213,2.015,4.484c.057-.139.113-.278.17-.417a87.544,87.544,0,0,0-14.9,10.846q-1.948,1.76-3.784,3.635c-.333.339.188.861.521.522Z" transform="translate(-1052.888 -163.378)" fill="#66623c"/>
        </g>
        <g id="Grupo_176200" data-name="Grupo 176200" transform="translate(48.672 55.411)">
          <path id="Trazado_224271" data-name="Trazado 224271" d="M1051.824,193.878a67.909,67.909,0,0,1,13.15-10.678q2.053-1.276,4.191-2.4c.421-.222.048-.859-.372-.637a68.553,68.553,0,0,0-14.028,9.827q-1.792,1.623-3.464,3.371c-.328.343.193.865.522.521Z" transform="translate(-1051.198 -180.113)" fill="#66623c"/>
        </g>
        <g id="Grupo_176201" data-name="Grupo 176201" transform="translate(69.565 64.604)">
          <path id="Trazado_224272" data-name="Trazado 224272" d="M1075.016,190.716c.828,3.266-.148,6.542-.756,9.753-.088.464.623.663.712.2.633-3.349,1.619-6.741.755-10.146a.369.369,0,0,0-.711.2Z" transform="translate(-1074.253 -190.257)" fill="#69311c"/>
        </g>
        <g id="Grupo_176202" data-name="Grupo 176202" transform="translate(43.12 57.553)">
          <path id="Trazado_224273" data-name="Trazado 224273" d="M1045.086,182.935a63.324,63.324,0,0,0,4.745,12.358q.852,1.672,1.8,3.29a.369.369,0,0,0,.637-.372,62.4,62.4,0,0,1-5.415-11.93q-.582-1.755-1.06-3.542a.369.369,0,0,0-.711.2Z" transform="translate(-1045.071 -182.477)" fill="#66623c"/>
        </g>
        <g id="Grupo_176203" data-name="Grupo 176203" transform="translate(43.814 63.552)">
          <path id="Trazado_224274" data-name="Trazado 224274" d="M1045.888,189.652a3.268,3.268,0,0,0,1.458,1.253.405.405,0,0,0,.284.037.369.369,0,0,0,.258-.454.36.36,0,0,0-.169-.22,3.054,3.054,0,0,1-.383-.2c-.059-.037-.118-.075-.175-.116-.024-.017-.125-.1-.034-.024l-.081-.067a2.859,2.859,0,0,1-.3-.293l-.068-.08c-.013-.016-.025-.034-.04-.049.019.021.048.063.014.016s-.085-.12-.125-.181a.369.369,0,0,0-.637.372Z" transform="translate(-1045.836 -189.097)" fill="#66623c"/>
        </g>
        <path id="Trazado_224275" data-name="Trazado 224275" d="M1052.206,180.039a5.018,5.018,0,0,1,3.52.538,9.951,9.951,0,0,1,2.764,2.339,5.8,5.8,0,0,1,2.838-6.521,5.005,5.005,0,0,0-2.82.316,2.926,2.926,0,0,0-1.709,2.166,7.859,7.859,0,0,0-2.517-.227,2.66,2.66,0,0,0-2.07,1.29Z" transform="translate(-1002.62 -124.347)" fill="#66623c"/>
        <g id="Grupo_176204" data-name="Grupo 176204" transform="translate(55.099 43.271)">
          <path id="Trazado_224276" data-name="Trazado 224276" d="M1058.393,167.345c-.019-.024-.016-.019.012.016l.046.061c.03.041.061.082.09.123.06.082.118.165.176.249q.171.251.329.514a10.881,10.881,0,0,1,.567,1.079.37.37,0,0,0,.5.132.38.38,0,0,0,.132-.5,11.063,11.063,0,0,0-1.337-2.192.368.368,0,0,0-.521,0,.379.379,0,0,0,0,.521Z" transform="translate(-1058.29 -166.716)" fill="#66623c"/>
        </g>
        <g id="Grupo_176205" data-name="Grupo 176205" transform="translate(52.75 44.801)">
          <path id="Trazado_224277" data-name="Trazado 224277" d="M1055.745,168.959l.459.942a.372.372,0,0,0,.22.169.369.369,0,0,0,.454-.257.413.413,0,0,0-.037-.285q-.23-.47-.458-.942a.369.369,0,0,0-.674.088.413.413,0,0,0,.037.285Z" transform="translate(-1055.697 -168.404)" fill="#66623c"/>
        </g>
        <g id="Grupo_176206" data-name="Grupo 176206" transform="translate(49.581 46.088)">
          <path id="Trazado_224278" data-name="Trazado 224278" d="M1052.252,170.38l.351.469a.271.271,0,0,0,.094.1.285.285,0,0,0,.126.066.279.279,0,0,0,.147.006.264.264,0,0,0,.137-.044.373.373,0,0,0,.17-.22l.013-.1a.366.366,0,0,0-.051-.186l-.35-.469a.289.289,0,0,0-.1-.1.279.279,0,0,0-.125-.066.293.293,0,0,0-.148-.006.278.278,0,0,0-.137.044.367.367,0,0,0-.17.22l-.013.1a.363.363,0,0,0,.051.186Z" transform="translate(-1052.201 -169.825)" fill="#66623c"/>
        </g>
        <g id="Grupo_176207" data-name="Grupo 176207" transform="translate(53.072 79.697)">
          <path id="Trazado_224279" data-name="Trazado 224279" d="M1056.055,207.282l.149,1.166a.405.405,0,0,0,.109.261.369.369,0,0,0,.521,0,.354.354,0,0,0,.109-.261q-.075-.583-.15-1.166a.4.4,0,0,0-.108-.261.37.37,0,0,0-.522,0,.358.358,0,0,0-.108.261Z" transform="translate(-1056.053 -206.913)" fill="#66623c"/>
        </g>
        <g id="Grupo_176208" data-name="Grupo 176208" transform="translate(55.101 80.159)">
          <path id="Trazado_224280" data-name="Trazado 224280" d="M1058.3,207.89l.117.585a.369.369,0,0,0,.674.088l.037-.088a.377.377,0,0,0,0-.2l-.117-.586a.369.369,0,0,0-.674-.088l-.037.088a.381.381,0,0,0,0,.2Z" transform="translate(-1058.292 -207.422)" fill="#66623c"/>
        </g>
        <g id="Grupo_176209" data-name="Grupo 176209" transform="translate(49.209 77.004)">
          <path id="Trazado_224281" data-name="Trazado 224281" d="M1051.8,204.41l.342,1.174a.369.369,0,0,0,.711-.2q-.171-.587-.342-1.174a.369.369,0,1,0-.711.2Z" transform="translate(-1051.79 -203.941)" fill="#66623c"/>
        </g>
        <g id="Grupo_176210" data-name="Grupo 176210" transform="translate(64.32 3.833)">
          <path id="Trazado_224282" data-name="Trazado 224282" d="M1068.728,126.762a2.988,2.988,0,0,0,1.747-.171,10.76,10.76,0,0,0,1.577-.694,10.649,10.649,0,0,0,2.68-2.065c.326-.345-.195-.867-.521-.521a10,10,0,0,1-2.368,1.86,9.505,9.505,0,0,1-1.345.63,2.656,2.656,0,0,1-1.573.251.369.369,0,0,0-.2.711Z" transform="translate(-1068.466 -123.196)" fill="#a06117"/>
        </g>
        <g id="Grupo_176211" data-name="Grupo 176211" transform="translate(61.172 23.061)">
          <path id="Trazado_224283" data-name="Trazado 224283" d="M1066.044,144.508a3.013,3.013,0,0,0,1.113,5.185c.455.14.649-.572.2-.711a2.277,2.277,0,0,1-.787-3.952c.361-.31-.163-.829-.522-.522Z" transform="translate(-1064.991 -144.414)" fill="#a06117"/>
        </g>
        <g id="Grupo_176212" data-name="Grupo 176212" transform="translate(64.848 21.982)">
          <path id="Trazado_224284" data-name="Trazado 224284" d="M1069.136,143.491a1.944,1.944,0,0,0,.884,2.244.369.369,0,1,0,.372-.637c-.036-.02-.072-.042-.107-.064l-.051-.036c-.037-.025.056.049.005,0a1.888,1.888,0,0,1-.177-.174c-.007-.009-.054-.065-.018-.021s-.013-.018-.015-.024c-.024-.034-.047-.069-.068-.1s-.041-.072-.059-.111c-.01-.018-.018-.037-.027-.056-.021-.044.033.085,0,.007a1.828,1.828,0,0,1-.071-.24l-.01-.049c-.005-.032,0-.092,0,0,0-.036-.007-.074-.009-.111s0-.083,0-.124c0-.021,0-.042,0-.063s.011-.088,0-.025,0-.012,0-.024.008-.041.014-.061a1.243,1.243,0,0,1,.037-.132.372.372,0,0,0-.257-.454.378.378,0,0,0-.454.257Z" transform="translate(-1069.048 -143.223)" fill="#a06117"/>
        </g>
        <g id="Grupo_176213" data-name="Grupo 176213" transform="translate(68.767 21.038)">
          <path id="Trazado_224285" data-name="Trazado 224285" d="M1073.374,142.551a.359.359,0,0,0,0,.083.881.881,0,0,0,.03.173.8.8,0,0,0,.168.3.46.46,0,0,0,.057.061.9.9,0,0,0,.137.1.937.937,0,0,0,.157.072.421.421,0,0,0,.081.021.282.282,0,0,0,.148.006.277.277,0,0,0,.137-.044.416.416,0,0,0,.17-.221.37.37,0,0,0-.037-.284l-.058-.075a.368.368,0,0,0-.162-.094.42.42,0,0,1-.093-.026l.089.038a.426.426,0,0,1-.094-.055l.074.058a.467.467,0,0,1-.081-.082l.057.074a.489.489,0,0,1-.062-.105l.038.088a.42.42,0,0,1-.029-.1l.013.1a.381.381,0,0,1,0-.083.286.286,0,0,0-.032-.142.29.29,0,0,0-.076-.119.41.41,0,0,0-.261-.108.372.372,0,0,0-.261.108l-.058.074a.364.364,0,0,0-.05.187Z" transform="translate(-1073.372 -142.182)" fill="#a06117"/>
        </g>
        <g id="Grupo_176214" data-name="Grupo 176214" transform="translate(59.579 11.551)">
          <path id="Trazado_224286" data-name="Trazado 224286" d="M1063.449,131.892a2.636,2.636,0,0,0,1.222,3.4.38.38,0,0,0,.5-.132.373.373,0,0,0-.132-.5,1.6,1.6,0,0,1-.591-.431,1.4,1.4,0,0,1-.2-.275c-.033-.054-.063-.11-.091-.167-.015-.028-.028-.056-.041-.085-.05-.111.021.061-.021-.053a1.887,1.887,0,0,1-.139-.7c0-.07,0-.139.007-.208,0-.008.013-.1.006-.063s.011-.054.012-.063c.013-.062.027-.123.045-.183.011-.036.023-.072.035-.108,0-.011.044-.106.021-.053a.381.381,0,0,0-.132-.5.371.371,0,0,0-.5.132Z" transform="translate(-1063.234 -131.713)" fill="#a06117"/>
        </g>
        <g id="Grupo_176215" data-name="Grupo 176215" transform="translate(62.079 12.611)">
          <path id="Trazado_224287" data-name="Trazado 224287" d="M1065.994,133.252a1.656,1.656,0,0,0,.082.376,1.714,1.714,0,0,0,.168.343,1.67,1.67,0,0,0,.545.523.369.369,0,1,0,.372-.637,1.3,1.3,0,0,1-.139-.094l.074.058a1.294,1.294,0,0,1-.217-.217l.057.075a1.354,1.354,0,0,1-.169-.289l.037.088a1.253,1.253,0,0,1-.086-.309l.014.1a.326.326,0,0,0-.034-.157.29.29,0,0,0-.076-.119.38.38,0,0,0-.261-.108.373.373,0,0,0-.261.108.354.354,0,0,0-.108.261Z" transform="translate(-1065.992 -132.883)" fill="#a06117"/>
        </g>
        <g id="Grupo_176216" data-name="Grupo 176216" transform="translate(64.677 11.672)">
          <path id="Trazado_224288" data-name="Trazado 224288" d="M1068.968,132.477l.469.585a.411.411,0,0,0,.26.108.378.378,0,0,0,.261-.108.374.374,0,0,0,.109-.261l-.014-.1a.365.365,0,0,0-.095-.163l-.468-.585a.272.272,0,0,0-.119-.076.276.276,0,0,0-.142-.032.375.375,0,0,0-.261.108.369.369,0,0,0-.108.261l.013.1a.372.372,0,0,0,.095.163Z" transform="translate(-1068.86 -131.847)" fill="#a06117"/>
        </g>
        <g id="Grupo_176217" data-name="Grupo 176217" transform="translate(122.607 51.525)">
          <path id="Trazado_224289" data-name="Trazado 224289" d="M1132.948,176.529a13.185,13.185,0,0,0,6.559,2.366c.474.039.471-.7,0-.738a12.467,12.467,0,0,1-6.187-2.266c-.388-.275-.757.364-.373.637Z" transform="translate(-1132.786 -175.825)" fill="#a06117"/>
        </g>
        <g id="Grupo_176218" data-name="Grupo 176218" transform="translate(119.828 55.102)">
          <path id="Trazado_224290" data-name="Trazado 224290" d="M1129.9,180.459a14.729,14.729,0,0,0,3.136,1.3.369.369,0,0,0,.2-.711,13.9,13.9,0,0,1-2.96-1.231c-.414-.232-.786.405-.372.637Z" transform="translate(-1129.719 -179.772)" fill="#a06117"/>
        </g>
        <g id="Grupo_176219" data-name="Grupo 176219" transform="translate(117.122 57.951)">
          <path id="Trazado_224291" data-name="Trazado 224291" d="M1126.911,183.6a17.845,17.845,0,0,0,2.337.908.373.373,0,0,0,.454-.257.377.377,0,0,0-.258-.454,16.357,16.357,0,0,1-2.16-.834.378.378,0,0,0-.5.132.373.373,0,0,0,.132.5Z" transform="translate(-1126.732 -182.916)" fill="#a06117"/>
        </g>
        <g id="Grupo_176220" data-name="Grupo 176220" transform="translate(115.957 50.51)">
          <path id="Trazado_224292" data-name="Trazado 224292" d="M1132.862,174.87a106.019,106.019,0,0,1-7.32,8.97c-.308.358.211.882.522.521a107.7,107.7,0,0,0,7.435-9.119c.269-.393-.37-.762-.637-.372Z" transform="translate(-1125.447 -174.704)" fill="#a06117"/>
        </g>
        <g id="Grupo_176221" data-name="Grupo 176221" transform="translate(101.974 44.099)">
          <path id="Trazado_224293" data-name="Trazado 224293" d="M1110.021,168.093a90.051,90.051,0,0,1,.87,14.779.37.37,0,0,0,.739,0,91.267,91.267,0,0,0-.9-14.975c-.067-.469-.778-.269-.711.2Z" transform="translate(-1110.016 -167.63)" fill="#a06117"/>
        </g>
        <g id="Grupo_176222" data-name="Grupo 176222" transform="translate(105.059 51.781)">
          <path id="Trazado_224294" data-name="Trazado 224294" d="M1114.2,183.669a8.132,8.132,0,0,0-.045-3.162,5.367,5.367,0,0,1,.718-3.04c.2-.33.516-.693.944-.614a1.472,1.472,0,0,1,.87.791,7.081,7.081,0,0,1,.743,3.048,24.922,24.922,0,0,1-.139,3.666c-.042.473.7.47.738,0a24.433,24.433,0,0,0,.135-3.721,7.743,7.743,0,0,0-.862-3.4c-.491-.828-1.485-1.517-2.41-.872a4.422,4.422,0,0,0-1.421,2.968,7.4,7.4,0,0,0,.042,2.05,4.506,4.506,0,0,1-.024,2.094c-.153.45.559.644.711.2Z" transform="translate(-1113.422 -176.107)" fill="#a06117"/>
        </g>
        <g id="Grupo_176223" data-name="Grupo 176223" transform="translate(106.406 54.108)">
          <path id="Trazado_224295" data-name="Trazado 224295" d="M1115.664,179.663c.006-.016.032-.082,0-.014s0,.01,0,0,.017-.031.027-.045c.019-.03.066-.072-.013.014.022-.024.042-.049.066-.072.088-.079-.041.02.019-.019.028-.017.055-.035.084-.051s.032-.015.048-.024-.053.022-.052.023a1.1,1.1,0,0,1,.131-.043l.045-.01c.079-.014-.02,0-.022,0,.02.009.075-.005.1-.005.043,0,.169.023.031,0,.032.006.064.012.1.02.109.034-.01-.015.025,0s.058.028.086.046.067.048.012.005,0,0,.01.01l.038.038c.052.056-.015-.017-.012-.02s.052.085.056.092c.031.058-.022-.066-.008-.025,0,.014.01.028.015.043s.01.093.027.111c0,0-.01-.091-.008-.06s0,.059,0,.077c0,.037,0,.072,0,.109s.01-.062.008-.059c-.008.046-.012.062-.016.077a1.062,1.062,0,0,1-.031.105c-.012.029.025-.049.01-.023l-.023.05c-.017.032-.036.063-.056.093s.019-.025.02-.024l-.034.041c-.024.026-.052.05-.078.074s.073-.053.038-.03a.64.64,0,0,1-.063.042l-.041.022c-.063.034.085-.029.017-.007-.033.011-.066.019-.1.027-.058.014.1,0,.018,0-.021,0-.042,0-.062,0s-.094-.01-.022,0,0,0-.02-.006l-.051-.014c-.083-.027,0,.005.005.005-.035,0-.089-.045-.118-.064-.013-.008-.083-.06-.028-.018s-.014-.014-.024-.024a.418.418,0,0,1-.093-.1c0-.007.051.072.03.038-.037-.054-.048-.072-.058-.091s-.021-.043-.033-.064.025.053.02.047c-.024-.069-.059-.144-.047-.17,0,0,.009.105.007.045s0-.082,0-.106c0-.055-.02.093,0,.018.006-.026.013-.053.02-.078a.371.371,0,0,0-.257-.454.376.376,0,0,0-.454.257,1.216,1.216,0,0,0,.548,1.336,1.075,1.075,0,0,0,1.356-.144,1.28,1.28,0,0,0,.312-1.225,1.09,1.09,0,0,0-1.048-.758,1.206,1.206,0,0,0-1.168.791.372.372,0,0,0,.258.454.377.377,0,0,0,.453-.257Z" transform="translate(-1114.907 -178.675)" fill="#a06117"/>
        </g>
        <g id="Grupo_176224" data-name="Grupo 176224" transform="translate(120.623 63.719)">
          <path id="Trazado_224296" data-name="Trazado 224296" d="M1130.858,190.006c2.226.6,3.308,2.961,4.893,4.42.349.321.873-.2.522-.522-1.705-1.569-2.819-3.961-5.22-4.609a.369.369,0,0,0-.2.711Z" transform="translate(-1130.596 -189.28)" fill="#a06117"/>
        </g>
        <g id="Grupo_176225" data-name="Grupo 176225" transform="translate(123.596 61.637)">
          <path id="Trazado_224297" data-name="Trazado 224297" d="M1133.984,187.608a32.125,32.125,0,0,1,4.522,4.381c.307.362.826-.162.521-.522a32.049,32.049,0,0,0-4.522-4.381.38.38,0,0,0-.521,0,.372.372,0,0,0,0,.522Z" transform="translate(-1133.877 -186.983)" fill="#a06117"/>
        </g>
        <g id="Grupo_176226" data-name="Grupo 176226" transform="translate(124.838 62.482)">
          <path id="Trazado_224298" data-name="Trazado 224298" d="M1135.79,195.453l6.1-3.949a4.942,4.942,0,0,1,1.482-.768,3.541,3.541,0,0,0,1.35-.438,3.68,3.68,0,0,0,.792-.891,1.914,1.914,0,0,1,.761-.753c.438-.17.247-.884-.2-.711-.828.323-1.064,1.13-1.687,1.678a3.03,3.03,0,0,1-1.314.428,5.44,5.44,0,0,0-1.459.752l-6.2,4.015c-.4.257-.027.9.372.637Z" transform="translate(-1135.247 -187.916)" fill="#a06117"/>
        </g>
        <g id="Grupo_176227" data-name="Grupo 176227" transform="translate(118.367 65.306)">
          <path id="Trazado_224299" data-name="Trazado 224299" d="M1128.118,191.491a13.007,13.007,0,0,0,2.266,4.837c.265.349.543.688.84,1.01.334.362.706.694,1.005,1.087a17.447,17.447,0,0,1,1.293,2.5,3.882,3.882,0,0,0,1.94,1.9c.441.175.633-.538.2-.711a4.011,4.011,0,0,1-1.859-2.311,10.928,10.928,0,0,0-.775-1.53,9.653,9.653,0,0,0-1.14-1.313,12.352,12.352,0,0,1-3.056-5.669c-.11-.462-.821-.266-.711.2Z" transform="translate(-1128.106 -191.032)" fill="#a06117"/>
        </g>
        <g id="Grupo_176228" data-name="Grupo 176228" transform="translate(117.724 74.295)">
          <path id="Trazado_224300" data-name="Trazado 224300" d="M1127.58,201.637a5.488,5.488,0,0,0,4,.5l-.454-.453a4.609,4.609,0,0,0,1.028,4.132,3.213,3.213,0,0,0,3.748.64c.416-.228.045-.866-.372-.637a2.474,2.474,0,0,1-2.914-.587,3.87,3.87,0,0,1-.778-3.352.374.374,0,0,0-.454-.454,4.706,4.706,0,0,1-3.432-.421c-.417-.227-.79.41-.372.637Z" transform="translate(-1127.397 -200.952)" fill="#a06117"/>
        </g>
        <g id="Grupo_176229" data-name="Grupo 176229" transform="translate(109.389 44.221)">
          <path id="Trazado_224301" data-name="Trazado 224301" d="M1118.2,168.134q.075,1.58.15,3.159a.377.377,0,0,0,.369.369.372.372,0,0,0,.369-.369q-.075-1.58-.149-3.159a.369.369,0,0,0-.738,0Z" transform="translate(-1118.2 -167.765)" fill="#a06117"/>
        </g>
        <g id="Grupo_176230" data-name="Grupo 176230" transform="translate(110.704 44.683)">
          <path id="Trazado_224302" data-name="Trazado 224302" d="M1119.663,168.743q.294,1.112.586,2.225a.372.372,0,0,0,.453.257.377.377,0,0,0,.258-.454q-.294-1.112-.586-2.224a.369.369,0,1,0-.711.2Z" transform="translate(-1119.65 -168.275)" fill="#a06117"/>
        </g>
        <g id="Grupo_176231" data-name="Grupo 176231" transform="translate(136.291 51.762)">
          <path id="Trazado_224303" data-name="Trazado 224303" d="M1148.069,176.777a9.187,9.187,0,0,1,2.757,3.426.372.372,0,0,0,.5.132.379.379,0,0,0,.132-.5,9.929,9.929,0,0,0-3.021-3.691.371.371,0,0,0-.5.132.378.378,0,0,0,.132.5Z" transform="translate(-1147.886 -176.086)" fill="#66623c"/>
        </g>
        <g id="Grupo_176232" data-name="Grupo 176232" transform="translate(131.421 43.165)">
          <path id="Trazado_224304" data-name="Trazado 224304" d="M1142.566,167.149a8.07,8.07,0,0,1,1.106,4.387c-.018.475.72.474.738,0a8.79,8.79,0,0,0-1.206-4.759.369.369,0,0,0-.637.372Z" transform="translate(-1142.512 -166.599)" fill="#66623c"/>
        </g>
        <g id="Grupo_176233" data-name="Grupo 176233" transform="translate(127.922 45.058)">
          <path id="Trazado_224305" data-name="Trazado 224305" d="M1139.2,169.5a.61.61,0,0,1,.127-.072l-.089.037a.7.7,0,0,1,.172-.047l-.1.014a.692.692,0,0,1,.178,0l-.1-.014a.654.654,0,0,1,.161.044l-.088-.037a.467.467,0,0,1,.056.028.394.394,0,0,0,.285.037.373.373,0,0,0,.22-.17.369.369,0,0,0,.037-.284.375.375,0,0,0-.169-.22.944.944,0,0,0-.259-.1,1.046,1.046,0,0,0-.281-.026,1,1,0,0,0-.526.174.286.286,0,0,0-.1.1.277.277,0,0,0-.065.126.375.375,0,0,0,.037.284.369.369,0,0,0,.22.169.359.359,0,0,0,.284-.037Z" transform="translate(-1138.65 -168.688)" fill="#66623c"/>
        </g>
        <g id="Grupo_176234" data-name="Grupo 176234" transform="translate(128.954 46.913)">
          <path id="Trazado_224306" data-name="Trazado 224306" d="M1140.159,171.474h.7a.382.382,0,0,0,.261-.109.368.368,0,0,0,0-.521.386.386,0,0,0-.261-.109h-.7a.38.38,0,0,0-.261.109.369.369,0,0,0,0,.521.384.384,0,0,0,.261.109Z" transform="translate(-1139.79 -170.735)" fill="#66623c"/>
        </g>
        <g id="Grupo_176235" data-name="Grupo 176235" transform="translate(124.978 45.252)">
          <path id="Trazado_224307" data-name="Trazado 224307" d="M1135.671,169.627l.819.122a.279.279,0,0,0,.147.006.271.271,0,0,0,.138-.043.369.369,0,0,0,.132-.5.355.355,0,0,0-.221-.169l-.818-.122a.281.281,0,0,0-.148-.006.268.268,0,0,0-.137.044.377.377,0,0,0-.17.221.368.368,0,0,0,.037.284.355.355,0,0,0,.22.169Z" transform="translate(-1135.401 -168.902)" fill="#66623c"/>
        </g>
        <g id="Grupo_176236" data-name="Grupo 176236" transform="translate(130.128 44.682)">
          <path id="Trazado_224308" data-name="Trazado 224308" d="M1141.714,169.03l-.068.053a.6.6,0,0,1,.131-.076l-.089.037a.659.659,0,0,1,.154-.041l-.1.013a.6.6,0,0,1,.151,0l-.1-.014a.338.338,0,0,0,.169.01.326.326,0,0,0,.241-.139.276.276,0,0,0,.066-.125.376.376,0,0,0-.037-.285l-.058-.074a.364.364,0,0,0-.163-.1,1.107,1.107,0,0,0-.219-.021,1.439,1.439,0,0,0-.155.018.6.6,0,0,0-.068.014.945.945,0,0,0-.382.2.379.379,0,0,0,0,.521.371.371,0,0,0,.261.109l.1-.014a.357.357,0,0,0,.162-.1Z" transform="translate(-1141.085 -168.274)" fill="#66623c"/>
        </g>
        <g id="Grupo_176237" data-name="Grupo 176237" transform="translate(133.861 54.161)">
          <path id="Trazado_224309" data-name="Trazado 224309" d="M1145.759,179.883l.706-.463a.4.4,0,0,0,.169-.221.368.368,0,0,0-.258-.453.366.366,0,0,0-.284.037l-.706.463a.394.394,0,0,0-.17.22.376.376,0,0,0,.037.285.369.369,0,0,0,.5.132Z" transform="translate(-1145.204 -178.733)" fill="#66623c"/>
        </g>
        <g id="Grupo_176238" data-name="Grupo 176238" transform="translate(135.393 55.343)">
          <path id="Trazado_224310" data-name="Trazado 224310" d="M1147.451,180.843l.234-.118a.271.271,0,0,0,.1-.1.329.329,0,0,0,.073-.272.29.29,0,0,0-.044-.138l-.058-.074a.371.371,0,0,0-.163-.1l-.1-.013a.362.362,0,0,0-.186.05l-.235.117a.288.288,0,0,0-.1.1.284.284,0,0,0-.066.126.277.277,0,0,0-.006.147.265.265,0,0,0,.043.137l.058.075a.383.383,0,0,0,.162.1l.1.013a.371.371,0,0,0,.186-.05Z" transform="translate(-1146.895 -180.038)" fill="#66623c"/>
        </g>
        <g id="Grupo_176239" data-name="Grupo 176239" transform="translate(136.105 56.168)">
          <path id="Trazado_224311" data-name="Trazado 224311" d="M1148.236,181.995l.579-.361a.385.385,0,0,0,.169-.22.369.369,0,0,0-.257-.454.38.38,0,0,0-.285.037l-.579.361a.384.384,0,0,0-.169.221.375.375,0,0,0,.037.284.369.369,0,0,0,.22.169.376.376,0,0,0,.284-.037Z" transform="translate(-1147.681 -180.948)" fill="#66623c"/>
        </g>
        <g id="Grupo_176240" data-name="Grupo 176240" transform="translate(129.411 58.964)">
          <path id="Trazado_224312" data-name="Trazado 224312" d="M1140.924,184.894l.237-.23a.273.273,0,0,0,.076-.119.335.335,0,0,0,0-.285.272.272,0,0,0-.076-.119l-.074-.057a.365.365,0,0,0-.187-.051l-.1.013a.379.379,0,0,0-.163.1l-.238.231a.267.267,0,0,0-.076.119.332.332,0,0,0,0,.284.262.262,0,0,0,.076.119l.075.058a.372.372,0,0,0,.186.051l.1-.014a.365.365,0,0,0,.163-.1Z" transform="translate(-1140.294 -184.034)" fill="#66623c"/>
        </g>
        <g id="Grupo_176241" data-name="Grupo 176241" transform="translate(129.891 60.26)">
          <path id="Trazado_224313" data-name="Trazado 224313" d="M1141.291,186.306l.351-.117a.287.287,0,0,0,.126-.066.279.279,0,0,0,.094-.1.275.275,0,0,0,.044-.138.289.289,0,0,0-.006-.147l-.038-.088a.362.362,0,0,0-.132-.132l-.088-.037a.359.359,0,0,0-.2,0l-.352.117a.416.416,0,0,0-.22.169.267.267,0,0,0-.043.137.272.272,0,0,0,.006.148l.037.088a.369.369,0,0,0,.132.132l.088.037a.381.381,0,0,0,.2,0Z" transform="translate(-1140.823 -185.464)" fill="#66623c"/>
        </g>
        <g id="Grupo_176242" data-name="Grupo 176242" transform="translate(118.534 69.51)">
          <path id="Trazado_224314" data-name="Trazado 224314" d="M1128.847,196.593l.351-.235a.263.263,0,0,0,.1-.1.271.271,0,0,0,.066-.125.407.407,0,0,0-.037-.285l-.058-.074a.373.373,0,0,0-.162-.1l-.1-.013a.374.374,0,0,0-.187.05l-.351.235a.405.405,0,0,0-.17.22.278.278,0,0,0-.007.147.282.282,0,0,0,.044.138l.057.074a.373.373,0,0,0,.163.1l.1.013a.365.365,0,0,0,.187-.05Z" transform="translate(-1128.291 -195.671)" fill="#66623c"/>
        </g>
        <g id="Grupo_176243" data-name="Grupo 176243" transform="translate(117.945 71.483)">
          <path id="Trazado_224315" data-name="Trazado 224315" d="M1128.108,198.7l.349-.123a.278.278,0,0,0,.126-.066.283.283,0,0,0,.1-.1.291.291,0,0,0,.044-.137.285.285,0,0,0-.006-.148l-.037-.088a.381.381,0,0,0-.132-.132l-.089-.037a.377.377,0,0,0-.2,0l-.349.123a.277.277,0,0,0-.126.066.329.329,0,0,0-.139.24.277.277,0,0,0,.006.147l.037.089a.375.375,0,0,0,.132.132l.089.037a.378.378,0,0,0,.2,0Z" transform="translate(-1127.64 -197.849)" fill="#66623c"/>
        </g>
        <g id="Grupo_176244" data-name="Grupo 176244" transform="translate(117.257 69.515)">
          <path id="Trazado_224316" data-name="Trazado 224316" d="M1127.57,196.466l.117-.234a.277.277,0,0,0,.044-.138.336.336,0,0,0-.072-.272.271.271,0,0,0-.1-.1l-.088-.037a.359.359,0,0,0-.2,0l-.089.037a.378.378,0,0,0-.132.132l-.117.234a.276.276,0,0,0-.044.137.283.283,0,0,0,.007.148.279.279,0,0,0,.065.125.287.287,0,0,0,.1.1l.088.037a.377.377,0,0,0,.2,0l.089-.037a.378.378,0,0,0,.132-.132Z" transform="translate(-1126.882 -195.677)" fill="#66623c"/>
        </g>
        <g id="Grupo_176245" data-name="Grupo 176245" transform="translate(100.091 80.814)">
          <path id="Trazado_224317" data-name="Trazado 224317" d="M1110.46,208.392a43.644,43.644,0,0,0-2.516,9.432c-.07.465.641.665.711.2a43.609,43.609,0,0,1,2.516-9.432c.173-.442-.54-.634-.711-.2Z" transform="translate(-1107.939 -208.145)" fill="#69311c"/>
        </g>
        <g id="Grupo_176246" data-name="Grupo 176246" transform="translate(91.209 137.779)">
          <path id="Trazado_224318" data-name="Trazado 224318" d="M1104.146,271.021a28.224,28.224,0,0,0-5.825,2.332c-.418.225-.046.862.373.637a27.314,27.314,0,0,1,5.649-2.257.369.369,0,0,0-.2-.711Z" transform="translate(-1098.138 -271.006)" fill="#66623c"/>
        </g>
        <g id="Grupo_176247" data-name="Grupo 176247" transform="translate(93.127 139.718)">
          <path id="Trazado_224319" data-name="Trazado 224319" d="M1104.66,273.191a34.62,34.62,0,0,0-4.224,2.618.379.379,0,0,0-.132.5.371.371,0,0,0,.5.132,34.552,34.552,0,0,1,4.224-2.618c.42-.22.048-.857-.372-.637Z" transform="translate(-1100.254 -273.146)" fill="#66623c"/>
        </g>
        <g id="Grupo_176248" data-name="Grupo 176248" transform="translate(52.946 154.998)">
          <path id="Trazado_224320" data-name="Trazado 224320" d="M1056.268,302.894a61.106,61.106,0,0,0,20.291-4.918c3.187-1.384,6.275-3.132,9.739-3.732,3.55-.615,7.163-.1,10.738-.29,3.294-.174,6.752-.955,9.193-3.32.342-.331-.181-.852-.522-.521-2.15,2.082-5.183,2.847-8.09,3.067-3.49.262-7-.223-10.482.2-3.438.42-6.5,1.931-9.614,3.359a60.924,60.924,0,0,1-9.714,3.511,60.117,60.117,0,0,1-11.541,1.9c-.471.031-.475.768,0,.738Z" transform="translate(-1055.913 -290.007)" fill="#66623c"/>
        </g>
      </g>
      <g id="Grupo_176266" data-name="Grupo 176266" transform="translate(135.004)">
        <g id="Grupo_176257" data-name="Grupo 176257" transform="translate(5.047 36.613)">
          <path id="Trazado_224321" data-name="Trazado 224321" d="M1207.167,325.765a1.376,1.376,0,0,0-1.406-1.26,1.355,1.355,0,0,0-1.03,1.581,21.719,21.719,0,0,1-3.039,16.033,16.111,16.111,0,0,1-2.563,2.974,145.518,145.518,0,0,0-4.948-19.361,102.4,102.4,0,0,0-4.108-10.478,1.25,1.25,0,0,0-1.629-.794,1.487,1.487,0,0,0-.619,1.86,114.909,114.909,0,0,1,6.683,19.206,147.884,147.884,0,0,1,3.823,20.831c.416,3.744.682,7.5.753,11.26a1.35,1.35,0,0,0,1.406,1.26c.729-.1,1.045-.806,1.029-1.581a132.459,132.459,0,0,0-1.88-19.315,1.049,1.049,0,0,0,.7-.28c4.368-3.773,7.07-9.968,7.26-16.386A25.15,25.15,0,0,0,1207.167,325.765Z" transform="translate(-1155.38 -163.385)" fill="#b97216"/>
          <path id="Trazado_224322" data-name="Trazado 224322" d="M1177.247,354.462a111.666,111.666,0,0,1,.92-18.724,112.875,112.875,0,0,1,2.594-13.186,24.245,24.245,0,0,1-11.311-12.382,23.579,23.579,0,0,1-1.355-4.81,1.08,1.08,0,0,1,2.129-.333,21.954,21.954,0,0,0,11.1,15.432c.29-1.043.59-2.084.91-3.119q1.57-5.082,3.622-10.015c.524-1.261,2.516-.532,1.99.73a110.783,110.783,0,0,0-8.326,35.814q-.318,5.13-.144,10.261a1.117,1.117,0,0,1-.922,1.2A1.043,1.043,0,0,1,1177.247,354.462Z" transform="translate(-1153.54 -162.431)" fill="#b97216"/>
          <path id="Trazado_224323" data-name="Trazado 224323" d="M1225.854,326.927a1.051,1.051,0,0,0-1.463.169q-2.451,3.613-4.557,7.444a9.913,9.913,0,0,1-4.565-9.807,1.041,1.041,0,0,0-2.057-.318,12.016,12.016,0,0,0,5.637,11.964q-1.252,2.4-2.365,4.867a93.6,93.6,0,0,0-5.319,15.317q-1.112,4.392-1.783,8.877a1.041,1.041,0,0,0,2.057.318,90.133,90.133,0,0,1,3.678-15.312,91.994,91.994,0,0,1,5.861-13.656,1.175,1.175,0,0,0,.353-.671c.029-.053.056-.107.084-.159q2.112-3.9,4.607-7.571A1.067,1.067,0,0,0,1225.854,326.927Z" transform="translate(-1157.413 -164.249)" fill="#b97216"/>
          <path id="Trazado_224324" data-name="Trazado 224324" d="M1221.643,279.006c10.876-5.065,44.586-33.712,48.159-45.174a4.641,4.641,0,0,0-.162-3.279c-.835-1.854-2.4-1.851-3.833-1.711a27.721,27.721,0,0,0-12.363,4.333,51.693,51.693,0,0,0,6.653-29.236,6.689,6.689,0,0,0-10.416-5.1,42.666,42.666,0,0,0-8.588,8.469,65.65,65.65,0,0,0,6.674-38.07c-.728-5.674-3.325-12.333-8.984-13.159-3.667-.536-7.27,1.824-9.307,4.92s-2.827,6.822-3.579,10.45c.353-4.131.7-8.328-.11-12.394s-2.955-8.056-6.537-10.144c-2.256-1.314-5.321-1.709-7.365-.085-1.492,1.185-2.1,3.139-2.572,4.986a81.5,81.5,0,0,0-2.473,21.748c-3.57-.554-7.039,2.217-8.287,5.608s-.714,7.183.32,10.646c1.014,3.4,2.49,7.076,1.112,10.343a18.671,18.671,0,0,1-2.433,3.627c-4.019,5.46-5.169,12.688-4.084,19.381s4.233,12.9,8.111,18.466Z" transform="translate(-1155.885 -147.758)" fill="#8e8b5e"/>
          <path id="Trazado_224325" data-name="Trazado 224325" d="M1177.158,243.386a12.04,12.04,0,0,0-2.905-8.784c-2.18-2.3-5.829-3.313-8.67-1.911-3.608,1.782-4.675,6.551-4,10.517s2.624,7.623,3.375,11.577c-1.753-2.6-5.9-2.736-8.32-.741s-3.223,5.463-2.741,8.562a23.341,23.341,0,0,0,3.719,8.567c-3.328-.1-5.745,3.591-5.576,6.916s2.12,6.259,4,9l5.546,8.083a43.422,43.422,0,0,0,4.391,5.7c7.716,8,20.016,8.891,31.124,9.277q-4.4-30.806-9.741-61.467Z" transform="translate(-1152.035 -155.665)" fill="#8e8b5e"/>
          <path id="Trazado_224326" data-name="Trazado 224326" d="M1214.318,311.329c-5.617.421-11.331.751-16.825-.489s-10.827-4.268-13.621-9.159c-.922-1.613-1.548-3.386-2.526-4.965-2.994-4.829-8.714-7.105-13.084-10.738s-7.257-10.8-3.155-14.731a27.648,27.648,0,0,1-4.606-13.794c-.182-3.345.383-7,2.781-9.335s7.034-2.439,8.69.472a42.9,42.9,0,0,1-6.774-15.308c-.862-3.861-1-8.4,1.745-11.242s9-1.5,8.857,2.453a74.729,74.729,0,0,1-8.153-18.692c-1.109-3.944-1.895-8.1-1.157-12.128s3.266-7.933,7.11-9.349,8.867.426,10.1,4.333c-11.355-14.742-15.821-34.186-.275-38.783,14.66-4.334,22.723,10.454,22.216,30.626,1.859-5.493,3.833-11.18,7.857-15.355s10.729-6.373,15.766-3.5a13.839,13.839,0,0,1,5.465,6.555c2.864,6.412,2.584,13.787,1.408,20.71-1.78,10.481-5.456,20.532-9.114,30.514,4.239-4.2,9.683-8.743,15.446-7.209,4.383,1.166,7.2,5.732,7.642,10.246s-1.034,8.984-2.713,13.2a126.482,126.482,0,0,1-13.435,25.067c3.163-2.072,6.486-4.206,10.249-4.586s8.056,1.62,8.931,5.3c.662,2.788-.744,5.617-2.209,8.081a100.3,100.3,0,0,1-15.747,20.106c2.846.2,5.784.42,8.319,1.732s4.576,4.017,4.2,6.845c-.45,3.4-3.923,5.435-7.062,6.806-7.838,3.424-8.48,4.663-16.9,6.184Z" transform="translate(-1152.826 -147.885)" fill="#c1bf8e"/>
          <path id="Trazado_224327" data-name="Trazado 224327" d="M1196.483,316.728a34.174,34.174,0,0,0,29.962-16.815,7.33,7.33,0,0,0,1.212-3.58c-.015-2.785-2.944-4.835-5.727-4.924s-5.395,1.228-7.866,2.511c6.843-8.128,13.7-17.788,14.493-27.974a4.682,4.682,0,0,0-7.077-4.391,22.456,22.456,0,0,0-10.086,13.427,64.662,64.662,0,0,0,9.438-41.3c-.473-4.2-2.1-9.156-6.217-10.1-2.725-.624-5.511.862-7.573,2.749-8.478,7.762-8.4,20.907-7.694,32.38a33.311,33.311,0,0,0-3.62-17.26,4.71,4.71,0,0,0-1.811-1.95c-3.672-2.1-6.874,2.79-7.67,6.714a62.259,62.259,0,0,0,.678,27.645c.581-3.278-4.462-5.2-7.049-3.106s-2.784,6.024-1.9,9.234,2.594,6.184,3.11,9.473c.477,3.04-.1,6.149.11,9.218a18.452,18.452,0,0,0,16.708,16.564Z" transform="translate(-1154.423 -154.856)" fill="#e0dcb1"/>
          <g id="Grupo_176250" data-name="Grupo 176250" transform="translate(29.958 101.409)">
            <path id="Trazado_224328" data-name="Trazado 224328" d="M1205.585,281.4c1.581.031,2.66-1.345,3.388-2.582a26.018,26.018,0,0,0,3.49-15.089,5.176,5.176,0,0,0-1.412-3.5,2.242,2.242,0,0,0-1.67-.566,3.222,3.222,0,0,0-1.952,1.063,14.941,14.941,0,0,0-1.541,1.94,23.841,23.841,0,0,0-1.281,2.042,24.871,24.871,0,0,0-2.942,15.422.37.37,0,0,0,.616.163,13.072,13.072,0,0,0,1.889-12.521,6.345,6.345,0,0,0-1.661-2.764,1.545,1.545,0,0,0-1.487-.3,3.083,3.083,0,0,0-1.261,1.089,15.071,15.071,0,0,0-2.592,13.789c.12.381.75.334.724-.1a6.635,6.635,0,0,0-3.845-5.528,6.5,6.5,0,0,0-8.639,3.89,7.538,7.538,0,0,0-.054,4.129,14.975,14.975,0,0,0,1.724,3.992,21.025,21.025,0,0,0,2.467,3.459,8.42,8.42,0,0,0,3.7,2.495,5.491,5.491,0,0,0,4.321-.362.369.369,0,0,0-.372-.637c-2.227,1.265-4.9.167-6.593-1.466a16.3,16.3,0,0,1-2.323-2.952,18.242,18.242,0,0,1-1.852-3.553c-.829-2.256-.911-4.858.761-6.758a5.76,5.76,0,0,1,5.722-1.871,5.889,5.889,0,0,1,4.246,5.162l.725-.1a14.4,14.4,0,0,1,1.647-12.017,13.027,13.027,0,0,1,.907-1.241c.3-.359.7-.881,1.234-.749a1.876,1.876,0,0,1,.99.933,10.091,10.091,0,0,1,.682,1.356,12.337,12.337,0,0,1,.855,5.875,11.946,11.946,0,0,1-2.436,6.227l.617.163a24.116,24.116,0,0,1,4.383-17.222c.693-.953,1.805-2.667,3.213-2.264,1.08.309,1.5,1.7,1.676,2.675a13.576,13.576,0,0,1,.151,2.206q.016,1.179-.077,2.354a25.348,25.348,0,0,1-.844,4.748,25.068,25.068,0,0,1-2.019,5.076c-.66,1.242-1.62,3.184-3.274,3.152a.369.369,0,0,0,0,.738Z" transform="translate(-1185.094 -259.664)" fill="#8e8b5e"/>
          </g>
          <g id="Grupo_176251" data-name="Grupo 176251" transform="translate(45.339 128.554)">
            <path id="Trazado_224329" data-name="Trazado 224329" d="M1212.889,312.072c-.986,2.092-2.123,4.565-4.4,5.5a4.121,4.121,0,0,1-3.119.112,3.8,3.8,0,0,1-1.985-2.607,17.546,17.546,0,0,1-.27-7.988,13.825,13.825,0,0,1,2.946-6.766,5.35,5.35,0,0,1,2.692-1.7,3.829,3.829,0,0,1,2.717.463,2.893,2.893,0,0,1,1.522,2.058,1.068,1.068,0,0,1-.033.554.931.931,0,0,1-.429.415,1.657,1.657,0,0,1-1.156.1c-1.061-.274-1.461-1.47-1.552-2.448a9.229,9.229,0,0,1,.3-3.184,8.929,8.929,0,0,1,3.357-5.08,6.628,6.628,0,0,1,6.169-.643,16.537,16.537,0,0,1,5.775,4.217c.411.419.811.848,1.206,1.28.322.352.842-.171.522-.521-3.231-3.534-8.143-8.072-13.274-5.432a9.156,9.156,0,0,0-4.241,5.242,10.594,10.594,0,0,0-.583,3.471,4.255,4.255,0,0,0,1.255,3.377,2.39,2.39,0,0,0,2.853.086,1.479,1.479,0,0,0,.576-1.336,3.1,3.1,0,0,0-.466-1.444,4.4,4.4,0,0,0-2.557-1.821,4.533,4.533,0,0,0-3.271.346c-2.337,1.157-3.632,3.737-4.411,6.1a19.593,19.593,0,0,0-.756,8.936,8.214,8.214,0,0,0,1.277,3.778,3.869,3.869,0,0,0,3.173,1.532c2.78-.013,4.689-2.164,5.91-4.434.318-.59.605-1.2.891-1.8.2-.427-.434-.8-.637-.372Z" transform="translate(-1202.067 -289.619)" fill="#8e8b5e"/>
          </g>
          <g id="Grupo_176252" data-name="Grupo 176252" transform="translate(25.783 39.931)">
            <path id="Trazado_224330" data-name="Trazado 224330" d="M1204.916,197.7c-1.319-1.418-1.727-3.445-3.037-4.87a2.905,2.905,0,0,0-2.362-1,4.162,4.162,0,0,0-2.894,1.985,17.88,17.88,0,0,0-1.819,3.388,24.421,24.421,0,0,0-1.256,3.742,25.25,25.25,0,0,0-.667,7.81,24.387,24.387,0,0,0,1.8,7.669c.254.608.53,1.206.834,1.791.151.292.247.458.6.449a1.866,1.866,0,0,0,.774-.189,3.364,3.364,0,0,0,1.517-2.441,9.4,9.4,0,0,0,.024-3.154,7.381,7.381,0,0,0-1.008-2.963,3.927,3.927,0,0,0-2.309-1.747,4.174,4.174,0,0,0-3.42.758,10.454,10.454,0,0,0-3.758,6.624,14.142,14.142,0,0,0,.66,7.715,13.667,13.667,0,0,0,.845,1.791.371.371,0,0,0,.579.074,3.77,3.77,0,0,0-.883-5.252c-1.88-1.388-4.628-.72-6.218.79a9.142,9.142,0,0,0-2.43,6.674,13.523,13.523,0,0,0,1.768,6.55,13.3,13.3,0,0,0,5.4,5.283c.421.217.795-.419.372-.637a12.9,12.9,0,0,1-6.709-9.716,10.118,10.118,0,0,1,1.068-6.293,4.9,4.9,0,0,1,5.242-2.55,3.127,3.127,0,0,1,2.146,1.909,2.752,2.752,0,0,1-.279,2.72l.58.075a13.2,13.2,0,0,1,.084-13c1.011-1.676,2.967-3.487,5.079-2.709,1.649.607,2.289,2.574,2.487,4.159a8.125,8.125,0,0,1-.093,2.971c-.208.817-.672,1.86-1.663,1.814l.318.183a23.982,23.982,0,0,1-2.431-14.977,23.516,23.516,0,0,1,2.416-7.292,7.378,7.378,0,0,1,2.208-2.883,2.125,2.125,0,0,1,2.513.053,7.119,7.119,0,0,1,1.677,2.468,11.794,11.794,0,0,0,1.724,2.745c.324.348.845-.174.522-.522Z" transform="translate(-1180.487 -191.822)" fill="#8e8b5e"/>
          </g>
          <g id="Grupo_176253" data-name="Grupo 176253" transform="translate(70.136 72.555)">
            <path id="Trazado_224331" data-name="Trazado 224331" d="M1230.111,234.554c1.01-1.968,2.109-4.168,4.109-5.3a4.939,4.939,0,0,1,2.989-.67,3.752,3.752,0,0,1,2.587,1.672c2.117,3.009,2.142,7.109.81,10.434a11.781,11.781,0,0,1-3.037,4.376,10.165,10.165,0,0,1-2.173,1.491,2.36,2.36,0,0,1-1.567.382,1.006,1.006,0,0,1-.651-1.059c0-1.789,2.013-2.779,3.578-2.665a4.026,4.026,0,0,1,3.391,3.647,6.208,6.208,0,0,1-2.242,5.4,13.618,13.618,0,0,1-6.287,2.865c-.611.139-1.226.261-1.842.379-.465.089-.268.8.2.71a18.661,18.661,0,0,0,7.5-2.669,7.614,7.614,0,0,0,3.46-5.715,5.21,5.21,0,0,0-3.023-5.108,4.284,4.284,0,0,0-5.036,1.638,2.482,2.482,0,0,0,.031,2.855c.887.973,2.315.3,3.247-.229a11.707,11.707,0,0,0,4.2-4.158,12.557,12.557,0,0,0,.883-11.511,6.576,6.576,0,0,0-2.173-2.816,4.475,4.475,0,0,0-3.28-.6c-2.534.442-4.229,2.5-5.431,4.618-.309.545-.6,1.1-.882,1.659-.217.422.421.8.637.372Z" transform="translate(-1229.43 -227.824)" fill="#8e8b5e"/>
          </g>
          <g id="Grupo_176254" data-name="Grupo 176254" transform="translate(49.272 33.054)">
            <path id="Trazado_224332" data-name="Trazado 224332" d="M1228.231,195.005a11.875,11.875,0,0,0-.349-6.11,10.618,10.618,0,0,0-1.356-2.787,2.124,2.124,0,0,0-1.015-.855,1.659,1.659,0,0,0-1.385.235,9.483,9.483,0,0,0-2.155,2.072,15.415,15.415,0,0,0-2.865,5.257,5.091,5.091,0,0,0-.325,2.546c.124.626.476,1.4,1.16,1.566.322.077.829,0,.961-.346a5.664,5.664,0,0,0,.229-1.27,11.829,11.829,0,0,0-.457-5.095c-1-3.106-3.5-5.752-6.892-5.969-2.869-.185-6.06,1.309-7.109,4.114a5.069,5.069,0,0,0-.262,1.041c-.067.464.643.664.711.2.429-2.959,3.46-4.653,6.255-4.629a6.265,6.265,0,0,1,4.081,1.546,8.724,8.724,0,0,1,2.592,4.181,11.21,11.21,0,0,1,.141,5.689l.169-.22c-.434.216-.7-.387-.8-.71a3.093,3.093,0,0,1,.06-1.772,14.683,14.683,0,0,1,1.894-4.271,14.4,14.4,0,0,1,1.466-1.9q.371-.405.77-.78a3.516,3.516,0,0,1,.964-.733c.816-.345,1.289.616,1.614,1.2a10.829,10.829,0,0,1,.932,2.188,11.087,11.087,0,0,1,.255,5.421c-.1.464.616.661.711.2Z" transform="translate(-1206.407 -184.233)" fill="#8e8b5e"/>
          </g>
          <g id="Grupo_176255" data-name="Grupo 176255" transform="translate(34.86 21.256)">
            <path id="Trazado_224333" data-name="Trazado 224333" d="M1199.35,172.865a4.079,4.079,0,0,0-4.892-1.368,5.031,5.031,0,0,0-2.358,1.659,7.569,7.569,0,0,0-1.388,3.28,16.872,16.872,0,0,0-.149,4.174c.032.471.77.475.738,0-.144-2.143-.141-4.495.978-6.406a4.479,4.479,0,0,1,4.315-2.235,2.78,2.78,0,0,1,2.119,1.269c.248.4.887.034.637-.372Z" transform="translate(-1190.503 -171.215)" fill="#8e8b5e"/>
          </g>
          <g id="Grupo_176256" data-name="Grupo 176256" transform="translate(76.28 117.028)">
            <path id="Trazado_224334" data-name="Trazado 224334" d="M1239.855,278c2.622-1.155,5.783.464,7.063,2.859a4.873,4.873,0,0,1,.238,4.089,6.3,6.3,0,0,1-2.806,3.116,5.914,5.914,0,0,1-4.663.581l-.2.711a3.458,3.458,0,0,1,2.269,3.477,6.086,6.086,0,0,1-2.528,4.574,24.366,24.366,0,0,1-2.847,1.976c-.4.251-.032.89.372.637,1.86-1.162,3.831-2.418,4.969-4.356a5.377,5.377,0,0,0,.166-5.241,3.567,3.567,0,0,0-2.2-1.779.369.369,0,0,0-.2.711,7.083,7.083,0,0,0,8.153-3.693,5.622,5.622,0,0,0,.161-4.645,6.873,6.873,0,0,0-3.2-3.389,5.938,5.938,0,0,0-5.127-.266c-.433.19-.058.826.373.637Z" transform="translate(-1236.211 -276.899)" fill="#8e8b5e"/>
          </g>
          <path id="Trazado_224335" data-name="Trazado 224335" d="M1257.543,191.731a25.6,25.6,0,0,1,11.708-17.373c.484,3.666-1.1,7.364-3.459,10.211a39.533,39.533,0,0,1-8.249,7.162Z" transform="translate(-1161.931 -150.253)" fill="#8e8b5e"/>
          <path id="Trazado_224336" data-name="Trazado 224336" d="M1264.27,192.782a13.668,13.668,0,0,1,14.382-2.75,8.221,8.221,0,0,1-6.3,3.656c-2.5.279-5.617-.4-8.085-.905Z" transform="translate(-1162.562 -151.631)" fill="#8e8b5e"/>
        </g>
        <path id="Trazado_224337" data-name="Trazado 224337" d="M1159.459,222.739a45.947,45.947,0,0,1-9.49-7.165c-2.11-2.072-4.156-4.916-3.308-7.75a38.854,38.854,0,0,1,13.09,14.519c-.533-5.045-.976-10.516,1.692-14.832a20.844,20.844,0,0,1,.535,11.56c-.389,1.608-1.143,3.351-2.7,3.922Z" transform="translate(-1146.465 -116.75)" fill="#8e8b5e"/>
        <path id="Trazado_224338" data-name="Trazado 224338" d="M1218.745,209.26a17.5,17.5,0,0,1-3.223-9.67c-.018-.764.1-1.671.77-2.034,1.005-.539,2.063.619,2.569,1.64a28.86,28.86,0,0,1,2.668,8.489,13.844,13.844,0,0,1,6.022-8.982c.9-.581,2.334-.934,2.851,0a1.992,1.992,0,0,1,.109,1.234,14.326,14.326,0,0,1-5.355,9.228,12.128,12.128,0,0,1,10.65,5.3,2.207,2.207,0,0,1,.476,1.3c-.067,1.15-1.568,1.554-2.718,1.488a13.036,13.036,0,0,1-7.985-3.371q.62,5.564,1.241,11.127a3.535,3.535,0,0,1-.4,2.635,2.375,2.375,0,0,1-3.314-.034,6.133,6.133,0,0,1-1.571-3.3,36.574,36.574,0,0,1-.916-7.883,22.407,22.407,0,0,1-5.929,8.636c-1.278,1.149-3.589,2-4.441.507a2.879,2.879,0,0,1-.158-1.882,17.913,17.913,0,0,1,5.967-10.642,7.938,7.938,0,0,1-8.8-2.343c-.824-1.019-1.373-2.506-.679-3.618a3.2,3.2,0,0,1,2.363-1.254c3.264-.438,6.38,1.309,9.209,2.994Z" transform="translate(-1152.074 -115.804)" fill="#fff"/>
        <path id="Trazado_224339" data-name="Trazado 224339" d="M1201.708,261.85a39.562,39.562,0,0,1-5.164-14c-.112-.681-.129-1.537.468-1.883.763-.442,1.619.394,2.089,1.139a58.923,58.923,0,0,1,5.5,11.158,18.724,18.724,0,0,1,3.291-12.721c.665-.942,1.687-1.916,2.8-1.628,1.209.312,1.574,1.836,1.609,3.084a22.5,22.5,0,0,1-3.881,13.224,7.048,7.048,0,0,1,7.327-2.163,12.165,12.165,0,0,1,6.387,4.731c1.036,1.392,1.679,3.754.137,4.551a3.119,3.119,0,0,1-1.937.117,30.059,30.059,0,0,1-10.948-4.12,22.534,22.534,0,0,1,6.492,11.618,7.319,7.319,0,0,1,.008,3.812,3.182,3.182,0,0,1-2.795,2.288c-1.676,0-2.832-1.64-3.575-3.143a37.109,37.109,0,0,1-3.349-10.394,38.682,38.682,0,0,1-2.617,18.614,5.53,5.53,0,0,1-3.568-4.572,16.277,16.277,0,0,1,.562-6.061l1.755-7.917a17.611,17.611,0,0,1-5.21,7.383,7.642,7.642,0,0,1-4.082,1.969,3.655,3.655,0,0,1-3.758-2.062c-.519-1.373.1-2.9.827-4.177a23.278,23.278,0,0,1,6.842-7.5,7.793,7.793,0,0,1-10.125-1.276,4.026,4.026,0,0,1-.985-3.937c.627-1.55,2.512-2.153,4.181-2.233a12.879,12.879,0,0,1,11.125,5.643Z" transform="translate(-1150.137 -120.16)" fill="#fff"/>
        <g id="Grupo_176258" data-name="Grupo 176258" transform="translate(66.962 92.834)">
          <path id="Trazado_224340" data-name="Trazado 224340" d="M1220.518,210.506l5.289,3.841c.385.279.753-.361.372-.637l-5.289-3.841c-.384-.28-.753.36-.372.637Z" transform="translate(-1220.358 -209.799)" fill="#8e8b5e"/>
        </g>
        <g id="Grupo_176259" data-name="Grupo 176259" transform="translate(66.711 92.656)">
          <path id="Trazado_224341" data-name="Trazado 224341" d="M1224.342,209.637a7.326,7.326,0,0,0-4.258,5.8.371.371,0,0,0,.369.369.378.378,0,0,0,.369-.369,6.6,6.6,0,0,1,3.893-5.167c.434-.189.059-.826-.372-.637Z" transform="translate(-1220.082 -209.603)" fill="#8e8b5e"/>
        </g>
        <path id="Trazado_224342" data-name="Trazado 224342" d="M1187.693,199.836a13.191,13.191,0,0,1,7.29-2.43c.576-.014,1.26.073,1.532.581.407.758-.466,1.555-1.236,1.937a21.756,21.756,0,0,1-6.4,2.012,10.431,10.431,0,0,1,6.772,4.539c.439.679.7,1.76,0,2.15a1.5,1.5,0,0,1-.931.082,10.8,10.8,0,0,1-6.957-4.037,9.142,9.142,0,0,1-3.992,8.028,1.667,1.667,0,0,1-.978.359c-.867-.051-1.172-1.182-1.122-2.049a9.824,9.824,0,0,1,2.541-6.02l-8.389.935a2.656,2.656,0,0,1-1.986-.3,1.791,1.791,0,0,1,.025-2.5,4.635,4.635,0,0,1,2.487-1.184,27.617,27.617,0,0,1,5.943-.691,16.9,16.9,0,0,1-6.511-4.469c-.865-.963-1.507-2.707-.382-3.348a2.167,2.167,0,0,1,1.419-.119,13.5,13.5,0,0,1,8.023,4.5,5.983,5.983,0,0,1,1.766-6.633,2.466,2.466,0,0,1,2.727-.512,2.406,2.406,0,0,1,.945,1.782c.331,2.46-.987,4.809-2.256,6.942Z" transform="translate(-1148.986 -115.148)" fill="#fff"/>
        <g id="Grupo_176260" data-name="Grupo 176260" transform="translate(35.617 84.8)">
          <path id="Trazado_224343" data-name="Trazado 224343" d="M1188.718,201.116l-2.9,3.987a.372.372,0,0,0,.132.5.378.378,0,0,0,.5-.132l2.9-3.987a.372.372,0,0,0-.132-.5.378.378,0,0,0-.5.132Z" transform="translate(-1185.768 -200.934)" fill="#8e8b5e"/>
        </g>
        <g id="Grupo_176261" data-name="Grupo 176261" transform="translate(34.541 84.627)">
          <path id="Trazado_224344" data-name="Trazado 224344" d="M1189.4,204a5.612,5.612,0,0,0-4.454-3.255.371.371,0,0,0-.369.369.378.378,0,0,0,.369.369,4.889,4.889,0,0,1,3.817,2.89.372.372,0,0,0,.5.132.378.378,0,0,0,.132-.5Z" transform="translate(-1184.581 -200.743)" fill="#8e8b5e"/>
        </g>
        <path id="Trazado_224345" data-name="Trazado 224345" d="M1231.928,304.046a13.192,13.192,0,0,1,7.29-2.43c.576-.014,1.26.073,1.532.581.407.758-.466,1.555-1.236,1.937a21.772,21.772,0,0,1-6.4,2.012,10.433,10.433,0,0,1,6.772,4.539c.439.679.7,1.76,0,2.149a1.5,1.5,0,0,1-.931.083,10.808,10.808,0,0,1-6.957-4.037,9.142,9.142,0,0,1-3.992,8.028,1.673,1.673,0,0,1-.978.359c-.867-.051-1.172-1.182-1.122-2.049a9.828,9.828,0,0,1,2.541-6.021l-8.389.936a2.661,2.661,0,0,1-1.986-.3,1.791,1.791,0,0,1,.026-2.5,4.622,4.622,0,0,1,2.487-1.184,27.555,27.555,0,0,1,5.943-.691,16.9,16.9,0,0,1-6.511-4.47c-.865-.963-1.507-2.706-.382-3.347a2.167,2.167,0,0,1,1.419-.119,13.506,13.506,0,0,1,8.023,4.5,5.982,5.982,0,0,1,1.766-6.632,2.465,2.465,0,0,1,2.727-.512,2.409,2.409,0,0,1,.945,1.782c.331,2.46-.987,4.809-2.256,6.942Z" transform="translate(-1153.135 -124.923)" fill="#fff"/>
        <g id="Grupo_176262" data-name="Grupo 176262" transform="translate(75.702 179.235)">
          <path id="Trazado_224346" data-name="Trazado 224346" d="M1232.953,305.326l-2.9,3.987a.372.372,0,0,0,.132.5.378.378,0,0,0,.5-.132l2.9-3.987a.369.369,0,1,0-.637-.372Z" transform="translate(-1230.003 -305.143)" fill="#8e8b5e"/>
        </g>
        <g id="Grupo_176263" data-name="Grupo 176263" transform="translate(74.626 179.063)">
          <path id="Trazado_224347" data-name="Trazado 224347" d="M1233.639,308.21a5.612,5.612,0,0,0-4.454-3.255.37.37,0,0,0-.369.369.378.378,0,0,0,.369.369,4.886,4.886,0,0,1,3.817,2.89.372.372,0,0,0,.5.132.379.379,0,0,0,.132-.5Z" transform="translate(-1228.816 -304.953)" fill="#8e8b5e"/>
        </g>
        <g id="Grupo_176264" data-name="Grupo 176264" transform="translate(50.252 142.684)">
          <path id="Trazado_224348" data-name="Trazado 224348" d="M1202.107,265.487a48.943,48.943,0,0,0,7.021,2.778c.455.141.649-.572.2-.711a47.584,47.584,0,0,1-6.844-2.7c-.425-.208-.8.429-.372.637Z" transform="translate(-1201.919 -264.809)" fill="#8e8b5e"/>
        </g>
        <g id="Grupo_176265" data-name="Grupo 176265" transform="translate(52.053 141.797)">
          <path id="Trazado_224349" data-name="Trazado 224349" d="M1206.531,264a18.716,18.716,0,0,0-2.618,6.639c-.086.464.625.663.711.2a18.177,18.177,0,0,1,2.544-6.462c.255-.4-.383-.772-.637-.372Z" transform="translate(-1203.906 -263.83)" fill="#8e8b5e"/>
        </g>
        <path id="Trazado_224350" data-name="Trazado 224350" d="M1188.126,134.514c-.818-5.8-1.344-12.536,2.8-16.678a13.939,13.939,0,0,1-2.247,16.033Z" transform="translate(-1150.32 -108.339)" fill="#8e8b5e"/>
        <path id="Trazado_224351" data-name="Trazado 224351" d="M1170.2,134.926a17.285,17.285,0,0,1-8.834-12.939,1.4,1.4,0,0,1,.068-.8c.369-.723,1.469-.365,2.122.115A25.046,25.046,0,0,1,1171,130.05c.845,1.653,1.456,3.8.3,5.249Z" transform="translate(-1147.86 -108.615)" fill="#8e8b5e"/>
        <path id="Trazado_224352" data-name="Trazado 224352" d="M1175.18,121.46a17.262,17.262,0,0,1-4.3-14.1,13.325,13.325,0,0,1,4.534,13.162Z" transform="translate(-1148.738 -107.356)" fill="#8e8b5e"/>
      </g>
    </g>
    <g id="Grupo_176274" data-name="Grupo 176274" transform="translate(1119.634 302.36)">
      <path id="Trazado_224353" data-name="Trazado 224353" d="M1134.225,330.128a2.7,2.7,0,0,1-.73-2.9c.254-.914.989-1.852,1.933-1.765a2.652,2.652,0,0,1,1.554,1.01,1.965,1.965,0,0,1,3.812-.121,1.8,1.8,0,0,1,2.393-.888,2.478,2.478,0,0,1,1.293,2.38,4.083,4.083,0,0,1-1.232,2.531,6.231,6.231,0,0,1-6.4,1.511Z" transform="translate(-1132.379 -322.767)" fill="#3c6a7c"/>
      <g id="Grupo_176268" data-name="Grupo 176268" transform="translate(3.582 12.41)">
        <path id="Trazado_224354" data-name="Trazado 224354" d="M1138.282,369.771c-1.554-3.953-1.527-8.284-.94-12.432.628-4.43,1.886-8.741,2.554-13.164a32.193,32.193,0,0,0,.352-7.582c-.04-.469-.778-.473-.738,0,.4,4.591-.56,9.127-1.533,13.588-.921,4.226-1.859,8.509-1.734,12.86a20.488,20.488,0,0,0,1.328,6.928c.171.437.885.246.711-.2Z" transform="translate(-1136.231 -336.239)" fill="#c2b38c"/>
      </g>
      <path id="Trazado_224355" data-name="Trazado 224355" d="M1137.44,353.917a22.793,22.793,0,0,0,4.636-7.515c.839-2.41,1.126-4.984,1.933-7.405s2.3-4.811,4.661-5.773a28.124,28.124,0,0,0-2.662,10.159c-.287,2.52-.5,5.141-1.762,7.344s-3.911,3.85-6.322,3.061Z" transform="translate(-1132.762 -323.546)" fill="#c2b38c"/>
      <path id="Trazado_224356" data-name="Trazado 224356" d="M1137.251,354.34a21.794,21.794,0,0,0-4.77-14.077c.415,2.553.492,5.161,1.066,7.683a10.955,10.955,0,0,0,3.818,6.564Z" transform="translate(-1132.296 -324.207)" fill="#c2b38c"/>
      <path id="Trazado_224357" data-name="Trazado 224357" d="M1139.542,336.293a17.826,17.826,0,0,1-2.612-.445,6.9,6.9,0,0,1-4.022-3.172,4,4,0,0,1-.589-2.614,2.216,2.216,0,0,1,1.755-1.855c1.316-.169,2.321,1.1,3.029,2.222a9.545,9.545,0,0,1,.02-1.811,2.132,2.132,0,0,1,.393-1.165,1.665,1.665,0,0,1,2.458.313,4.816,4.816,0,0,1,.708,2.71,5.094,5.094,0,0,1,.763-2.12,2.088,2.088,0,0,1,1.945-.931c1.175.2,1.724,1.621,1.638,2.809a6.273,6.273,0,0,1-1.818,3.832,9.826,9.826,0,0,1-3.64,2.275Z" transform="translate(-1132.277 -322.966)" fill="#6da8c6"/>
      <g id="Grupo_176269" data-name="Grupo 176269" transform="translate(4.757 18.078)">
        <path id="Trazado_224358" data-name="Trazado 224358" d="M1137.99,354.766a5.828,5.828,0,0,0,2.684-1.027,5.735,5.735,0,0,0,1.629-1.966,17.362,17.362,0,0,0,1.352-5.386,11.724,11.724,0,0,1,.935-3.331c.208-.425-.428-.8-.637-.372a20.488,20.488,0,0,0-1.345,5.664,7.923,7.923,0,0,1-1.971,4.463,5.039,5.039,0,0,1-2.844,1.245c-.468.067-.269.778.2.711Z" transform="translate(-1137.527 -342.494)" fill="#87795b"/>
      </g>
      <g id="Grupo_176270" data-name="Grupo 176270" transform="translate(1.911 21.54)">
        <path id="Trazado_224359" data-name="Trazado 224359" d="M1134.392,346.776a22.862,22.862,0,0,0,2.715,7.438.369.369,0,0,0,.637-.372,22.265,22.265,0,0,1-2.641-7.261c-.082-.467-.793-.269-.711.2Z" transform="translate(-1134.386 -346.314)" fill="#87795b"/>
      </g>
      <g id="Grupo_176271" data-name="Grupo 176271" transform="translate(8.587)">
        <path id="Trazado_224360" data-name="Trazado 224360" d="M1142.515,326.544c-.127-.208.152-.624.245-.808a8.434,8.434,0,0,1,.563-.952,8.176,8.176,0,0,1,1.462-1.612.372.372,0,0,0,0-.521.376.376,0,0,0-.522,0,8.879,8.879,0,0,0-1.682,1.919,8.242,8.242,0,0,0-.594,1.079,1.321,1.321,0,0,0-.108,1.268.369.369,0,0,0,.637-.372Z" transform="translate(-1141.753 -322.545)" fill="#3c6a7c"/>
      </g>
      <g id="Grupo_176272" data-name="Grupo 176272" transform="translate(3.39 0.536)">
        <path id="Trazado_224361" data-name="Trazado 224361" d="M1136.122,323.764a6.6,6.6,0,0,1,1.318,2.572.369.369,0,1,0,.711-.2,7.419,7.419,0,0,0-1.507-2.9.371.371,0,0,0-.522,0,.377.377,0,0,0,0,.521Z" transform="translate(-1136.018 -323.136)" fill="#3c6a7c"/>
      </g>
      <g id="Grupo_176273" data-name="Grupo 176273" transform="translate(3.68 10.789)">
        <path id="Trazado_224362" data-name="Trazado 224362" d="M1137.027,336.252a1.36,1.36,0,0,1,1.157-.68c.566-.01,1.013.517,1.587.38a1.507,1.507,0,0,0,.617-.436,1.365,1.365,0,0,1,.633-.3,1.483,1.483,0,0,1,1.338.385.369.369,0,0,0,.521-.522,2.2,2.2,0,0,0-1.646-.627,2.314,2.314,0,0,0-.9.226,1.861,1.861,0,0,0-.329.207c-.113.086-.232.266-.356.325-.232.111-.662-.238-.9-.306a2.054,2.054,0,0,0-.888-.037,2.081,2.081,0,0,0-1.464,1.012.369.369,0,0,0,.637.372Z" transform="translate(-1136.338 -334.45)" fill="#3c6a7c"/>
      </g>
    </g>
  </g>
</svg>
