<svg id="suelo-tanana" xmlns="http://www.w3.org/2000/svg" width="70" height="70" viewBox="0 0 70 70">
  <g id="Grupo_176763" data-name="Grupo 176763" transform="translate(0)">
    <path id="Trazado_224971" data-name="Trazado 224971" d="M59.467,43.895c-19.326,0-33.47-20.547-30.791-25.506a34.971,34.971,0,0,1,61.18-.722C92.785,22.793,78.793,43.895,59.467,43.895Z" transform="translate(-24.467)" fill="#c798e9"/>
    <path id="Trazado_224972" data-name="Trazado 224972" d="M69.982,147.541C69.88,150.7,45.627,157.873,35,157.873S.181,152.222.021,147.634Q0,147.016,0,146.393A34.942,34.942,0,0,1,4.6,129,34.98,34.98,0,0,0,65.4,129,34.942,34.942,0,0,1,70,146.393S69.994,147.16,69.982,147.541Z" transform="translate(0 -111.333)" fill="#ab65dd"/>
  </g>
  <g id="Grupo_176764" data-name="Grupo 176764" transform="translate(0.012 14.485)">
    <path id="Trazado_224973" data-name="Trazado 224973" d="M270.489,268.111a35.121,35.121,0,0,0,.56-5.411H236l-3.174,6.14Z" transform="translate(-201.073 -241.259)" fill="#009f8b"/>
    <path id="Trazado_224974" data-name="Trazado 224974" d="M2.155,273.7,35.136,285.3V262.7H.087a34.951,34.951,0,0,0,2.068,11Z" transform="translate(-0.087 -241.286)" fill="#23d089"/>
    <path id="Trazado_224975" data-name="Trazado 224975" d="M2.155,273.7l14.675,5.159V262.7H.087a34.95,34.95,0,0,0,2.068,11Z" transform="translate(-0.087 -241.273)" fill="#84ed48"/>
    <path id="Trazado_224976" data-name="Trazado 224976" d="M177.873,302.3,166,324.669l3.632,5.185a35.1,35.1,0,0,0,42.55-24.839c.24-.859.447-1.8.633-2.806Z" transform="translate(-143.399 -275.426)" fill="#934940"/>
    <path id="Trazado_224977" data-name="Trazado 224977" d="M38.032,331.494V302.86H4.294A35.07,35.07,0,0,0,38.032,331.494Z" transform="translate(-3.718 -275.988)" fill="#a55f4f"/>
    <path id="Trazado_224978" data-name="Trazado 224978" d="M20.461,326.349V302.86H4.294A35.089,35.089,0,0,0,20.461,326.349Z" transform="translate(-3.718 -275.988)" fill="#d0795b"/>
    <path id="Trazado_224979" data-name="Trazado 224979" d="M94.813,454.64v-2.315H91.719A35.209,35.209,0,0,0,94.813,454.64Z" transform="translate(-79.192 -404.983)" fill="#934940"/>
    <path id="Trazado_224980" data-name="Trazado 224980" d="M386.962,376.771h3.374v3.374h-3.374Z" transform="translate(-334.074 -339.741)" fill="#66444e"/>
    <path id="Trazado_224981" data-name="Trazado 224981" d="M337.688,352.134h3.374v3.374h-3.374Z" transform="translate(-291.536 -318.471)" fill="#66444e"/>
    <path id="Trazado_224982" data-name="Trazado 224982" d="M308.347,411.756h-3.374v-1.912a5.067,5.067,0,0,0-5.061-5.061v-3.374a8.445,8.445,0,0,1,8.436,8.436Z" transform="translate(-258.929 -361.039)" fill="#ef9b4d"/>
    <path id="Trazado_224983" data-name="Trazado 224983" d="M143.144,411.756H139.77v-1.912a8.445,8.445,0,0,1,8.436-8.436v3.374a5.067,5.067,0,0,0-5.061,5.061Z" transform="translate(-120.677 -361.039)" fill="#febd67"/>
    <path id="Trazado_224984" data-name="Trazado 224984" d="M192.418,369.23h-3.374v-8.66a8.445,8.445,0,0,1,8.436-8.436v3.374a5.067,5.067,0,0,0-5.061,5.061Z" transform="translate(-163.216 -318.514)" fill="#febd67"/>
    <path id="Trazado_224985" data-name="Trazado 224985" d="M259.073,369.23H255.7v-8.66a5.067,5.067,0,0,0-5.061-5.061v-3.374a8.445,8.445,0,0,1,8.436,8.436Z" transform="translate(-216.39 -318.514)" fill="#ef9b4d"/>
    <path id="Trazado_224986" data-name="Trazado 224986" d="M243.55,218.318,242.425,233.5l2.812-5.061v-11.81Z" transform="translate(-209.295 -201.495)" fill="#009f8b"/>
    <path id="Trazado_224987" data-name="Trazado 224987" d="M238.318,216.631v11.81l1.687,5.061V218.318Z" transform="translate(-205.749 -201.495)" fill="#23d089"/>
    <path id="Trazado_224988" data-name="Trazado 224988" d="M240.005,302.86l-1.687,12.766,1.687,11.079h1.687V302.86Z" transform="translate(-205.75 -275.988)" fill="#ef9b4d"/>
    <path id="Trazado_224989" data-name="Trazado 224989" d="M238.318,302.86h1.687V326.7h-1.687Z" transform="translate(-205.749 -275.988)" fill="#febd67"/>
    <path id="Trazado_224990" data-name="Trazado 224990" d="M127.452,105.764a16.871,16.871,0,0,0,16.871,16.871A16.871,16.871,0,0,0,127.452,105.764Z" transform="translate(-110.048 -105.764)" fill="#23d089"/>
    <path id="Trazado_224991" data-name="Trazado 224991" d="M134.053,107.1a16.816,16.816,0,0,0-6.6-1.341,16.842,16.842,0,0,0,6.6,13.385Z" transform="translate(-110.042 -105.764)" fill="#84ed48"/>
    <path id="Trazado_224992" data-name="Trazado 224992" d="M267.508,105.764a16.871,16.871,0,0,0-16.871,16.871A16.871,16.871,0,0,0,267.508,105.764Z" transform="translate(-216.401 -105.764)" fill="#009f8b"/>
  </g>
  <g id="Grupo_176765" data-name="Grupo 176765" transform="translate(7.668 4.985)">
    <path id="Trazado_224993" data-name="Trazado 224993" d="M242.85,38.285h-.209a1.675,1.675,0,0,1-1.674-1.675V36.4h-1.194v.209a1.675,1.675,0,0,1-1.675,1.675h-.209v1.194h.209a1.675,1.675,0,0,1,1.675,1.674v.209h1.194v-.209a1.674,1.674,0,0,1,1.674-1.674h.209Z" transform="translate(-213.04 -36.402)" fill="#fff"/>
    <path id="Trazado_224994" data-name="Trazado 224994" d="M414.7,176.3h-.209a1.675,1.675,0,0,1-1.674-1.675v-.209h-1.194v.209a1.675,1.675,0,0,1-1.675,1.675h-.209v1.194h.209a1.675,1.675,0,0,1,1.675,1.674v.209h1.194v-.209a1.674,1.674,0,0,1,1.674-1.674h.209Z" transform="translate(-361.416 -155.511)" fill="#fff"/>
    <path id="Trazado_224995" data-name="Trazado 224995" d="M60.949,176.3h-.209a1.675,1.675,0,0,1-1.674-1.675v-.209H57.873v.209A1.675,1.675,0,0,1,56.2,176.3h-.209v1.194H56.2a1.675,1.675,0,0,1,1.675,1.674v.209h1.194v-.209a1.674,1.674,0,0,1,1.674-1.674h.209Z" transform="translate(-55.989 -155.511)" fill="#fff"/>
  </g>
</svg>
