<svg id="pesticida-3" xmlns="http://www.w3.org/2000/svg" width="112.712" height="112.712" viewBox="0 0 112.712 112.712">
  <g id="Grupo_953285" data-name="Grupo 953285">
    <path id="Trazado_692883" data-name="Trazado 692883" d="M23.884,102.42H88.828a56.356,56.356,0,1,0-64.944,0Z" fill="#efefef"/>
  </g>
  <g id="Grupo_953286" data-name="Grupo 953286" transform="translate(7.17 22.564)">
    <path id="Trazado_692884" data-name="Trazado 692884" d="M40.1,141.566a3.3,3.3,0,0,1,3.492-2.01,1.113,1.113,0,0,0,1.19-.665l1.792-4.327a1.113,1.113,0,0,0-.371-1.311,3.3,3.3,0,0,1,2.444-5.9,1.113,1.113,0,0,0,1.19-.665l1.792-4.327a1.113,1.113,0,0,0-.371-1.311,3.3,3.3,0,0,1,2.444-5.9,1.113,1.113,0,0,0,1.19-.665l.192-.462a4.4,4.4,0,0,1,4.068-2.718h8.786V102.5H59.147a13.209,13.209,0,0,0-12.2,8.154L32.907,144.545a4.4,4.4,0,0,0,8.135,3.37l.475-1.147a1.113,1.113,0,0,0-.371-1.311,3.3,3.3,0,0,1-1.048-3.89Z" transform="translate(-32.57 -102.5)" fill="#647892"/>
  </g>
  <g id="Grupo_953287" data-name="Grupo 953287" transform="translate(25.135 22.564)">
    <path id="Trazado_692885" data-name="Trazado 692885" d="M131.574,102.5h-8.786a13.2,13.2,0,0,0-8.613,3.2,4.507,4.507,0,0,1,5.967,6.5,4.4,4.4,0,0,1,2.646-.886h8.786Z" transform="translate(-114.176 -102.5)" fill="#4f6984"/>
  </g>
  <g id="Grupo_953288" data-name="Grupo 953288" transform="translate(71.823 23.665)">
    <path id="Trazado_692886" data-name="Trazado 692886" d="M326.259,107.5h7.155v6.6h-7.155Z" transform="translate(-326.259 -107.5)" fill="#4f6984"/>
  </g>
  <g id="Grupo_953289" data-name="Grupo 953289" transform="translate(23.884 42.377)">
    <path id="Trazado_692887" data-name="Trazado 692887" d="M154.231,192.5H127.815a77.776,77.776,0,0,0-19.321,51.3v8.739a56.374,56.374,0,0,0,65.058-.079V243.8a77.776,77.776,0,0,0-19.321-51.3Z" transform="translate(-108.494 -192.5)" fill="#8cce52"/>
  </g>
  <g id="Grupo_953290" data-name="Grupo 953290" transform="translate(23.884 42.377)">
    <path id="Trazado_692888" data-name="Trazado 692888" d="M126.105,243.8a77.776,77.776,0,0,1,19.321-51.3H127.815a77.776,77.776,0,0,0-19.321,51.3v8.739a56.131,56.131,0,0,0,17.611,8.309Z" transform="translate(-108.494 -192.5)" fill="#6eba3b"/>
  </g>
  <g id="Grupo_953291" data-name="Grupo 953291" transform="translate(37.855 64.309)">
    <circle id="Elipse_7762" data-name="Elipse 7762" cx="18.501" cy="18.501" r="18.501" fill="#fff"/>
  </g>
  <g id="Grupo_953343" data-name="Grupo 953343" transform="translate(38.709 61.704)">
    <g id="Grupo_953293" data-name="Grupo 953293" transform="translate(6.899 3.302)">
      <g id="Grupo_953292" data-name="Grupo 953292">
        <path id="Trazado_692889" data-name="Trazado 692889" d="M209.671,299.188a1.235,1.235,0,0,1-.928-.418l-1.254-1.419a1.238,1.238,0,0,1,1.856-1.64l1.254,1.419a1.238,1.238,0,0,1-.927,2.058Z" transform="translate(-207.178 -295.292)" fill="#4f6984"/>
      </g>
    </g>
    <g id="Grupo_953295" data-name="Grupo 953295" transform="translate(8.154 4.721)">
      <g id="Grupo_953294" data-name="Grupo 953294">
        <path id="Trazado_692890" data-name="Trazado 692890" d="M214.113,308.93a1.238,1.238,0,0,1-1.238-1.238v-4.714a1.238,1.238,0,0,1,2.477,0v4.714A1.238,1.238,0,0,1,214.113,308.93Z" transform="translate(-212.875 -301.739)" fill="#647892"/>
      </g>
    </g>
    <g id="Grupo_953297" data-name="Grupo 953297" transform="translate(8.153 9.435)">
      <g id="Grupo_953296" data-name="Grupo 953296">
        <path id="Trazado_692891" data-name="Trazado 692891" d="M222.367,330.328a1.232,1.232,0,0,1-.611-.162l-8.255-4.7a1.238,1.238,0,1,1,1.225-2.153l8.255,4.7a1.239,1.239,0,0,1-.613,2.315Z" transform="translate(-212.874 -323.154)" fill="#6d8499"/>
      </g>
    </g>
    <g id="Grupo_953299" data-name="Grupo 953299" transform="translate(0 26.262)">
      <g id="Grupo_953298" data-name="Grupo 953298">
        <path id="Trazado_692892" data-name="Trazado 692892" d="M177.077,402.975a1.238,1.238,0,0,1-.583-2.331l1.707-.909a1.238,1.238,0,1,1,1.164,2.186l-1.707.909A1.236,1.236,0,0,1,177.077,402.975Z" transform="translate(-175.837 -399.589)" fill="#4f6984"/>
      </g>
    </g>
    <g id="Grupo_953301" data-name="Grupo 953301" transform="translate(1.707 16.684)">
      <g id="Grupo_953300" data-name="Grupo 953300">
        <path id="Trazado_692893" data-name="Trazado 692893" d="M184.83,368.136a1.239,1.239,0,0,1-1.161-1.668l3.541-9.577a1.238,1.238,0,0,1,2.323.859l-3.541,9.577a1.239,1.239,0,0,1-1.162.809Z" transform="translate(-183.591 -356.081)" fill="#647892"/>
      </g>
    </g>
    <g id="Grupo_953303" data-name="Grupo 953303" transform="translate(5.249 16.684)">
      <g id="Grupo_953302" data-name="Grupo 953302">
        <path id="Trazado_692894" data-name="Trazado 692894" d="M212.078,358.56h-11.16a1.238,1.238,0,1,1,0-2.477h11.16a1.238,1.238,0,0,1,0,2.477Z" transform="translate(-199.679 -356.083)" fill="#6d8499"/>
      </g>
    </g>
    <g id="Grupo_953305" data-name="Grupo 953305" transform="translate(9.154 38.084)">
      <g id="Grupo_953304" data-name="Grupo 953304">
        <path id="Trazado_692895" data-name="Trazado 692895" d="M218.658,457.419a1.238,1.238,0,0,1-.876-2.114l1.651-1.651a1.238,1.238,0,1,1,1.751,1.751l-1.651,1.651A1.236,1.236,0,0,1,218.658,457.419Z" transform="translate(-217.419 -453.291)" fill="#4f6984"/>
      </g>
    </g>
    <g id="Grupo_953307" data-name="Grupo 953307" transform="translate(5.851 27.808)">
      <g id="Grupo_953306" data-name="Grupo 953306">
        <path id="Trazado_692896" data-name="Trazado 692896" d="M208.61,419.366a1.238,1.238,0,0,1-1.116-.7l-4.953-10.275a1.238,1.238,0,0,1,2.231-1.076l4.953,10.275a1.239,1.239,0,0,1-1.115,1.777Z" transform="translate(-202.418 -406.614)" fill="#647892"/>
      </g>
    </g>
    <g id="Grupo_953309" data-name="Grupo 953309" transform="translate(5.852 18.205)">
      <g id="Grupo_953308" data-name="Grupo 953308">
        <path id="Trazado_692897" data-name="Trazado 692897" d="M203.657,375.07a1.238,1.238,0,0,1-.862-2.127l9.906-9.6a1.238,1.238,0,1,1,1.724,1.778l-9.906,9.6A1.235,1.235,0,0,1,203.657,375.07Z" transform="translate(-202.419 -362.99)" fill="#6d8499"/>
      </g>
    </g>
    <g id="Grupo_953311" data-name="Grupo 953311" transform="translate(12.718)">
      <g id="Grupo_953310" data-name="Grupo 953310">
        <path id="Trazado_692898" data-name="Trazado 692898" d="M234.847,285.5a1.238,1.238,0,0,1-1.238-1.238v-2.733a1.238,1.238,0,1,1,2.477,0v2.733A1.238,1.238,0,0,1,234.847,285.5Z" transform="translate(-233.609 -280.293)" fill="#4f6984"/>
      </g>
    </g>
    <g id="Grupo_953313" data-name="Grupo 953313" transform="translate(12.718 2.733)">
      <g id="Grupo_953312" data-name="Grupo 953312">
        <path id="Trazado_692899" data-name="Trazado 692899" d="M238.537,298.177a1.233,1.233,0,0,1-.779-.277l-3.691-2.993a1.238,1.238,0,1,1,1.56-1.924l3.691,2.993a1.238,1.238,0,0,1-.781,2.2Z" transform="translate(-233.608 -292.708)" fill="#647892"/>
      </g>
    </g>
    <g id="Grupo_953315" data-name="Grupo 953315" transform="translate(24.664 3.302)">
      <g id="Grupo_953314" data-name="Grupo 953314">
        <path id="Trazado_692900" data-name="Trazado 692900" d="M289.113,299.187a1.238,1.238,0,0,1-.927-2.058l1.254-1.419a1.238,1.238,0,1,1,1.856,1.64l-1.254,1.419A1.235,1.235,0,0,1,289.113,299.187Z" transform="translate(-287.875 -295.292)" fill="#4f6984"/>
      </g>
    </g>
    <g id="Grupo_953317" data-name="Grupo 953317" transform="translate(24.664 4.721)">
      <g id="Grupo_953316" data-name="Grupo 953316">
        <path id="Trazado_692901" data-name="Trazado 692901" d="M289.113,308.93a1.238,1.238,0,0,1-1.238-1.238v-4.714a1.238,1.238,0,0,1,2.477,0v4.714A1.238,1.238,0,0,1,289.113,308.93Z" transform="translate(-287.875 -301.739)" fill="#647892"/>
      </g>
    </g>
    <g id="Grupo_953319" data-name="Grupo 953319" transform="translate(16.409 9.435)">
      <g id="Grupo_953318" data-name="Grupo 953318">
        <path id="Trazado_692902" data-name="Trazado 692902" d="M251.614,330.328a1.238,1.238,0,0,1-.613-2.315l8.255-4.7a1.238,1.238,0,0,1,1.225,2.153l-8.255,4.7a1.236,1.236,0,0,1-.611.162Z" transform="translate(-250.374 -323.154)" fill="#6d8499"/>
      </g>
    </g>
    <g id="Grupo_953321" data-name="Grupo 953321" transform="translate(31.11 26.262)">
      <g id="Grupo_953320" data-name="Grupo 953320">
        <path id="Trazado_692903" data-name="Trazado 692903" d="M320.1,402.975a1.235,1.235,0,0,1-.581-.146l-1.707-.909a1.238,1.238,0,0,1,1.164-2.186l1.707.909a1.238,1.238,0,0,1-.583,2.331Z" transform="translate(-317.156 -399.589)" fill="#4f6984"/>
      </g>
    </g>
    <g id="Grupo_953323" data-name="Grupo 953323" transform="translate(27.569 16.684)">
      <g id="Grupo_953322" data-name="Grupo 953322">
        <path id="Trazado_692904" data-name="Trazado 692904" d="M305.85,368.136a1.239,1.239,0,0,1-1.162-.809l-3.541-9.577a1.238,1.238,0,1,1,2.323-.859l3.541,9.577a1.239,1.239,0,0,1-1.161,1.668Z" transform="translate(-301.071 -356.081)" fill="#647892"/>
      </g>
    </g>
    <g id="Grupo_953325" data-name="Grupo 953325" transform="translate(16.409 16.684)">
      <g id="Grupo_953324" data-name="Grupo 953324">
        <path id="Trazado_692905" data-name="Trazado 692905" d="M262.774,358.56h-11.16a1.238,1.238,0,1,1,0-2.477h11.16a1.238,1.238,0,0,1,0,2.477Z" transform="translate(-250.375 -356.083)" fill="#6d8499"/>
      </g>
    </g>
    <g id="Grupo_953327" data-name="Grupo 953327" transform="translate(22.013 38.084)">
      <g id="Grupo_953326" data-name="Grupo 953326">
        <path id="Trazado_692906" data-name="Trazado 692906" d="M278.721,457.419a1.233,1.233,0,0,1-.875-.363l-1.651-1.651a1.238,1.238,0,1,1,1.751-1.751l1.651,1.651a1.238,1.238,0,0,1-.876,2.114Z" transform="translate(-275.831 -453.291)" fill="#4f6984"/>
      </g>
    </g>
    <g id="Grupo_953329" data-name="Grupo 953329" transform="translate(22.012 27.808)">
      <g id="Grupo_953328" data-name="Grupo 953328">
        <path id="Trazado_692907" data-name="Trazado 692907" d="M277.067,419.366a1.239,1.239,0,0,1-1.115-1.777l4.953-10.275a1.238,1.238,0,0,1,2.231,1.076l-4.953,10.275A1.238,1.238,0,0,1,277.067,419.366Z" transform="translate(-275.83 -406.613)" fill="#647892"/>
      </g>
    </g>
    <g id="Grupo_953331" data-name="Grupo 953331" transform="translate(17.06 18.205)">
      <g id="Grupo_953330" data-name="Grupo 953330">
        <path id="Trazado_692908" data-name="Trazado 692908" d="M264.476,375.07a1.234,1.234,0,0,1-.862-.349l-9.906-9.6a1.238,1.238,0,0,1,1.724-1.778l9.906,9.6a1.238,1.238,0,0,1-.862,2.127Z" transform="translate(-253.331 -362.989)" fill="#6d8499"/>
      </g>
    </g>
    <g id="Grupo_953333" data-name="Grupo 953333" transform="translate(20.1)">
      <g id="Grupo_953332" data-name="Grupo 953332">
        <path id="Trazado_692909" data-name="Trazado 692909" d="M268.379,285.5a1.238,1.238,0,0,1-1.238-1.238v-2.733a1.238,1.238,0,1,1,2.477,0v2.733A1.238,1.238,0,0,1,268.379,285.5Z" transform="translate(-267.141 -280.293)" fill="#4f6984"/>
      </g>
    </g>
    <g id="Grupo_953335" data-name="Grupo 953335" transform="translate(16.409 2.733)">
      <g id="Grupo_953334" data-name="Grupo 953334">
        <path id="Trazado_692910" data-name="Trazado 692910" d="M251.615,298.177a1.238,1.238,0,0,1-.781-2.2l3.691-2.993a1.238,1.238,0,1,1,1.56,1.924l-3.691,2.993A1.234,1.234,0,0,1,251.615,298.177Z" transform="translate(-250.376 -292.708)" fill="#647892"/>
      </g>
    </g>
    <g id="Grupo_953336" data-name="Grupo 953336" transform="translate(14.345 4.309)">
      <path id="Trazado_692911" data-name="Trazado 692911" d="M244.3,299.865a2.115,2.115,0,0,0-2.051,1.6l-1.251,5h6.6l-1.251-5A2.115,2.115,0,0,0,244.3,299.865Z" transform="translate(-241.001 -299.865)" fill="#6d8499"/>
    </g>
    <g id="Grupo_953337" data-name="Grupo 953337" transform="translate(11.043 9.872)">
      <path id="Trazado_692912" data-name="Trazado 692912" d="M232.762,325.139h-.315A6.447,6.447,0,0,0,226,331.586h13.208A6.447,6.447,0,0,0,232.762,325.139Z" transform="translate(-226 -325.139)" fill="#7d92a8"/>
    </g>
    <g id="Grupo_953338" data-name="Grupo 953338" transform="translate(11.043 9.872)">
      <path id="Trazado_692913" data-name="Trazado 692913" d="M235.84,325.92a6.417,6.417,0,0,0-3.078-.781h-.315A6.447,6.447,0,0,0,226,331.586h6.471A6.445,6.445,0,0,1,235.84,325.92Z" transform="translate(-226 -325.139)" fill="#647892"/>
    </g>
    <g id="Grupo_953339" data-name="Grupo 953339" transform="translate(9.392 15.371)">
      <path id="Trazado_692914" data-name="Trazado 692914" d="M226.755,368.277a8.255,8.255,0,0,1-8.255-8.255v-8.255a1.651,1.651,0,0,1,1.651-1.651h13.208a1.651,1.651,0,0,1,1.651,1.651v8.255A8.255,8.255,0,0,1,226.755,368.277Z" transform="translate(-218.5 -350.115)" fill="#96aabc"/>
    </g>
    <g id="Grupo_953340" data-name="Grupo 953340" transform="translate(9.392 15.371)">
      <path id="Trazado_692915" data-name="Trazado 692915" d="M223.064,360.021v-8.255a1.651,1.651,0,0,1,1.651-1.651h-4.564a1.651,1.651,0,0,0-1.651,1.651v8.255a8.254,8.254,0,0,0,10.537,7.933A8.257,8.257,0,0,1,223.064,360.021Z" transform="translate(-218.5 -350.115)" fill="#7d92a8"/>
    </g>
    <g id="Grupo_953341" data-name="Grupo 953341" transform="translate(13.956 6.24)">
      <circle id="Elipse_7763" data-name="Elipse 7763" cx="1.238" cy="1.238" r="1.238" fill="#4f6984"/>
    </g>
    <g id="Grupo_953342" data-name="Grupo 953342" transform="translate(18.862 6.24)">
      <circle id="Elipse_7764" data-name="Elipse 7764" cx="1.238" cy="1.238" r="1.238" fill="#4f6984"/>
    </g>
  </g>
  <g id="Grupo_953344" data-name="Grupo 953344" transform="translate(53.054 3.302)">
    <path id="Trazado_692916" data-name="Trazado 692916" d="M0,0H17.611V6.6H0Z" transform="translate(6.604) rotate(90)" fill="#647892"/>
  </g>
  <g id="Grupo_953345" data-name="Grupo 953345" transform="translate(53.054 10.141)">
    <path id="Trazado_692917" data-name="Trazado 692917" d="M244.3,49.366a3.3,3.3,0,0,1-3.3-3.3V56.837h6.6V46.064A3.3,3.3,0,0,1,244.3,49.366Z" transform="translate(-241 -46.064)" fill="#4f6984"/>
  </g>
  <g id="Grupo_953346" data-name="Grupo 953346" transform="translate(38.745)">
    <path id="Trazado_692918" data-name="Trazado 692918" d="M207.92,6.6H179.3a3.3,3.3,0,1,1,0-6.6H207.92a3.3,3.3,0,1,1,0,6.6Z" transform="translate(-176 0)" fill="#647892"/>
  </g>
  <g id="Grupo_953347" data-name="Grupo 953347" transform="translate(38.745)">
    <path id="Trazado_692919" data-name="Trazado 692919" d="M193.668,3.3a3.3,3.3,0,0,1,3.3-3.3H179.3a3.3,3.3,0,1,0,0,6.6H196.97A3.3,3.3,0,0,1,193.668,3.3Z" transform="translate(-176 0)" fill="#4f6984"/>
  </g>
  <g id="Grupo_953348" data-name="Grupo 953348" transform="translate(33.734 31.37)">
    <path id="Trazado_692920" data-name="Trazado 692920" d="M196.392,162.313H155.444a2.2,2.2,0,0,1-1.924-3.27l9.19-16.542h26.417l9.19,16.542A2.2,2.2,0,0,1,196.392,162.313Z" transform="translate(-153.239 -142.5)" fill="#647892"/>
  </g>
  <g id="Grupo_953349" data-name="Grupo 953349" transform="translate(33.734 31.37)">
    <path id="Trazado_692921" data-name="Trazado 692921" d="M188.245,152.957H168.368l5.809-10.457H162.71l-9.19,16.542a2.2,2.2,0,0,0,1.924,3.27h11.467a2.2,2.2,0,0,1-1.924-3.27l1.546-2.783h21.711a1.651,1.651,0,0,0,0-3.3Z" transform="translate(-153.24 -142.5)" fill="#4f6984"/>
  </g>
  <g id="Grupo_953350" data-name="Grupo 953350" transform="translate(38.802 18.162)">
    <path id="Trazado_692922" data-name="Trazado 692922" d="M209.28,82.5H178.46a2.2,2.2,0,0,0-2.2,2.2V97.91a2.2,2.2,0,0,0,2.2,2.2h30.82a2.2,2.2,0,0,0,2.2-2.2V84.7A2.2,2.2,0,0,0,209.28,82.5Z" transform="translate(-176.259 -82.5)" fill="#6d8499"/>
  </g>
  <g id="Grupo_953357" data-name="Grupo 953357" transform="translate(77.326 18.162)">
    <g id="Grupo_953351" data-name="Grupo 953351" transform="translate(10.181 5.504)">
      <path id="Trazado_692923" data-name="Trazado 692923" d="M397.509,107.5H416.5v6.6H397.509Z" transform="translate(-397.509 -107.5)" fill="#647892"/>
    </g>
    <g id="Grupo_953352" data-name="Grupo 953352" transform="translate(10.181 5.504)">
      <path id="Trazado_692924" data-name="Trazado 692924" d="M406.039,110.8a3.3,3.3,0,0,1,3.3-3.3H397.509v6.6h11.833A3.3,3.3,0,0,1,406.039,110.8Z" transform="translate(-397.509 -107.5)" fill="#4f6984"/>
    </g>
    <g id="Grupo_953353" data-name="Grupo 953353" transform="translate(1.651 2.201)">
      <path id="Trazado_692925" data-name="Trazado 692925" d="M370.505,103.666l-11.746,2.043V92.5l11.746,2.043a1.1,1.1,0,0,1,.912,1.084v6.954A1.1,1.1,0,0,1,370.505,103.666Z" transform="translate(-358.759 -92.5)" fill="#6d8499"/>
    </g>
    <g id="Grupo_953354" data-name="Grupo 953354" transform="translate(1.651 2.201)">
      <path id="Trazado_692926" data-name="Trazado 692926" d="M365.088,93.6l-6.329-1.1v13.208l6.329-1.1Z" transform="translate(-358.759 -92.5)" fill="#647892"/>
    </g>
    <g id="Grupo_953355" data-name="Grupo 953355">
      <path id="Trazado_692927" data-name="Trazado 692927" d="M352.91,100.111a1.651,1.651,0,0,0,1.651-1.651V84.151a1.651,1.651,0,0,0-3.3,0V98.46A1.651,1.651,0,0,0,352.91,100.111Z" transform="translate(-351.259 -82.5)" fill="#6d8499"/>
    </g>
    <g id="Grupo_953356" data-name="Grupo 953356" transform="translate(27.518 3.302)">
      <path id="Trazado_692928" data-name="Trazado 692928" d="M477.91,108.507a1.651,1.651,0,0,0,1.651-1.651v-7.7a1.651,1.651,0,1,0-3.3,0v7.7A1.651,1.651,0,0,0,477.91,108.507Z" transform="translate(-476.259 -97.5)" fill="#6d8499"/>
    </g>
  </g>
  <g id="Grupo_953358" data-name="Grupo 953358" transform="translate(42.322 18.162)">
    <path id="Trazado_692929" data-name="Trazado 692929" d="M192.25,82.5h3.3v17.611h-3.3Z" transform="translate(-192.25 -82.5)" fill="#647892"/>
  </g>
  <g id="Grupo_953359" data-name="Grupo 953359" transform="translate(48.513 18.162)">
    <path id="Trazado_692930" data-name="Trazado 692930" d="M220.375,82.5h3.3v17.611h-3.3Z" transform="translate(-220.375 -82.5)" fill="#647892"/>
  </g>
  <g id="Grupo_953360" data-name="Grupo 953360" transform="translate(54.705 18.162)">
    <path id="Trazado_692931" data-name="Trazado 692931" d="M248.5,82.5h3.3v17.611h-3.3Z" transform="translate(-248.5 -82.5)" fill="#647892"/>
  </g>
  <g id="Grupo_953361" data-name="Grupo 953361" transform="translate(60.896 18.162)">
    <path id="Trazado_692932" data-name="Trazado 692932" d="M276.625,82.5h3.3v17.611h-3.3Z" transform="translate(-276.625 -82.5)" fill="#647892"/>
  </g>
  <g id="Grupo_953362" data-name="Grupo 953362" transform="translate(67.088 18.162)">
    <path id="Trazado_692933" data-name="Trazado 692933" d="M304.75,82.5h3.3v17.611h-3.3Z" transform="translate(-304.75 -82.5)" fill="#647892"/>
  </g>
</svg>
