<svg xmlns="http://www.w3.org/2000/svg" width="236.857" height="224.95" viewBox="0 0 236.857 224.95">
  <g id="Mulching_plants" data-name="Mulching plants" transform="translate(-335.107 -335)">
    <path id="Trazado_223567" data-name="Trazado 223567" d="M118.429,0A118.429,118.429,0,0,1,236.857,118.429c0,65.406-53.022,102.075-118.429,102.075S0,183.835,0,118.429A118.429,118.429,0,0,1,118.429,0Z" transform="translate(335.107 335)" fill="#f2e6dc"/>
    <path id="Trazado_223460" data-name="Trazado 223460" d="M482.267,967.677c.031-.385.052-.774.052-1.167a14.221,14.221,0,0,0-19.828-13.065,10.122,10.122,0,0,0-14.757-6.17,22.178,22.178,0,0,0-41,2.231A18.3,18.3,0,0,0,386.1,967.677Z" transform="translate(-44.489 -521.94)" fill="#fff" opacity="0.5"/>
    <g id="Grupo_175646" data-name="Grupo 175646" transform="translate(413.592 335.981)">
      <path id="Trazado_223461" data-name="Trazado 223461" d="M941.97,401.336a27.443,27.443,0,0,0,38.482,25.509,18.647,18.647,0,0,0,36.868,3.66,25.79,25.79,0,0,0,42.458-10.618,25.8,25.8,0,1,0-8.229-50.785,18.653,18.653,0,0,0-17.262-12.261c-.247,0-.492,0-.736.008a22.988,22.988,0,0,0-39.068-5.838,18.646,18.646,0,0,0-28.738,23.509A27.45,27.45,0,0,0,941.97,401.336Zm80.077-11.557c-.159.095-.314.194-.47.292-.006-.245-.019-.488-.03-.731C1021.711,389.489,1021.877,389.637,1022.047,389.779Z" transform="translate(-941.967 -342.575)" fill="#e6d0be"/>
      <path id="Trazado_223462" data-name="Trazado 223462" d="M1836.622,638.183a11.849,11.849,0,0,1-2.568-.268.129.129,0,0,1-.08-.059.13.13,0,0,1-.014-.1c.01-.04,1.063-4.032,4.144-5.867s7.092-.858,7.132-.848a.13.13,0,0,1,.094.158c-.01.04-1.063,4.032-4.144,5.867A8.97,8.97,0,0,1,1836.622,638.183Zm-2.374-.491c.706.148,4.127.747,6.806-.849s3.783-4.888,3.989-5.579c-.706-.148-4.127-.747-6.806.848S1834.454,637,1834.248,637.692Z" transform="translate(-1718.451 -593.454)" fill="#d3bba3"/>
      <path id="Trazado_223463" data-name="Trazado 223463" d="M1569.27,457.984c-.522,0-.845-.033-.856-.035a.13.13,0,0,1-.113-.153,9.287,9.287,0,0,1,10.556-7.787.13.13,0,0,1,.113.153,11.018,11.018,0,0,1-3.668,6.076A10.469,10.469,0,0,1,1569.27,457.984Zm-.684-.28a9,9,0,0,0,10.1-7.449,9,9,0,0,0-10.1,7.449Z" transform="translate(-1487.194 -436.067)" fill="#d3bba3"/>
      <path id="Trazado_223464" data-name="Trazado 223464" d="M1590.264,758.365a.133.133,0,0,1-.038-.006,9.287,9.287,0,0,1-6.6-11.336.129.129,0,0,1,.061-.084.13.13,0,0,1,.1-.012,9.286,9.286,0,0,1,6.6,11.337.129.129,0,0,1-.126.1Zm-6.412-11.144a9,9,0,1,0,5.359,4.14A10.615,10.615,0,0,0,1583.852,747.221Z" transform="translate(-1500.361 -694.562)" fill="#d3bba3"/>
      <path id="Trazado_223465" data-name="Trazado 223465" d="M1309.856,675.464a.13.13,0,0,1-.089-.036,9.287,9.287,0,0,1-.858-13.089.129.129,0,0,1,.092-.048.133.133,0,0,1,.1.035,9.287,9.287,0,0,1,.859,13.089.13.13,0,0,1-.092.048Zm-.834-12.847a9,9,0,0,0,.821,12.521,9,9,0,0,0-.821-12.521Z" transform="translate(-1259.397 -620.89)" fill="#d3bba3"/>
      <path id="Trazado_223466" data-name="Trazado 223466" d="M986.122,772.6a.13.13,0,0,1-.129-.125,9.287,9.287,0,0,1,8.582-9.921.131.131,0,0,1,.1.031.129.129,0,0,1,.045.094,9.287,9.287,0,0,1-8.583,9.92Zm8.339-9.768a9,9,0,0,0-8.21,9.49,9,9,0,0,0,8.21-9.49Z" transform="translate(-980.291 -708.17)" fill="#d3bba3"/>
      <path id="Trazado_223467" data-name="Trazado 223467" d="M1816.795,960.7a11.432,11.432,0,0,1-6.029-2.052.13.13,0,0,1-.02-.189,9.288,9.288,0,0,1,13.046-1.371.13.13,0,0,1,.02.189,11.017,11.017,0,0,1-6.24,3.382A7.412,7.412,0,0,1,1816.795,960.7Zm-5.755-2.176a9,9,0,0,0,12.479-1.311,9,9,0,0,0-12.479,1.311Z" transform="translate(-1698.219 -875.727)" fill="#d3bba3"/>
      <path id="Trazado_223468" data-name="Trazado 223468" d="M1536.26,994.848h-.017a.129.129,0,0,1-.089-.053,9.287,9.287,0,0,1,1.678-13.01.134.134,0,0,1,.1-.029.13.13,0,0,1,.089.053,9.287,9.287,0,0,1-1.678,13.01A.13.13,0,0,1,1536.26,994.848Zm1.63-12.77a9,9,0,0,0-1.6,12.445,9,9,0,0,0,1.6-12.445Z" transform="translate(-1457.548 -898.985)" fill="#d3bba3"/>
      <path id="Trazado_223469" data-name="Trazado 223469" d="M1193.693,440.6a7.906,7.906,0,0,1-1.856-.213,11.016,11.016,0,0,1-5.74-4.174.129.129,0,0,1,.045-.185,9.287,9.287,0,0,1,12.752,3.076.13.13,0,0,1-.045.185A11.918,11.918,0,0,1,1193.693,440.6Zm-7.3-4.412a9,9,0,0,0,12.2,2.942,9,9,0,0,0-12.2-2.942Z" transform="translate(-1154.466 -422.788)" fill="#d3bba3"/>
    </g>
    <g id="Grupo_175657" data-name="Grupo 175657" transform="translate(347.741 398.695)">
      <g id="Grupo_175647" data-name="Grupo 175647" transform="translate(0 78.97)">
        <path id="Trazado_223470" data-name="Trazado 223470" d="M464.785,1782.507l-31.346-4.591,3.5,35,23.132-.428a23.7,23.7,0,0,0-11.994-13.922Z" transform="translate(-433.439 -1733.734)" fill="#84524d"/>
        <path id="Trazado_223471" data-name="Trazado 223471" d="M669.683,1667.457l-31.346-4.591,3.5,35,23.131-.428a23.7,23.7,0,0,0-11.994-13.922Z" transform="translate(-611.804 -1633.583)" fill="#84524d"/>
        <path id="Trazado_223472" data-name="Trazado 223472" d="M834.309,1437.1s19.28,56.85,5.1,72.865c-13.046,14.737-65.434-1.4-65.434-1.4l1.543-25.822L802.29,1480s-10.8-30.311-4.991-37.9C802.971,1434.677,834.309,1437.1,834.309,1437.1Z" transform="translate(-729.881 -1436.725)" fill="#8b865c"/>
        <path id="Trazado_223473" data-name="Trazado 223473" d="M620.216,1457.7s7.624,59.544-9.447,72.43c-15.709,11.857-63.857-14.346-63.857-14.346l7.7-30.267,25.718,7.873s-4.572-31.85,2.624-38.14C589.982,1449.112,620.216,1457.7,620.216,1457.7Z" transform="translate(-532.218 -1450.929)" fill="#8b865c"/>
        <path id="Trazado_223474" data-name="Trazado 223474" d="M1039.176,1673.471a.13.13,0,0,1-.078-.233c4.939-3.728,8.277-11.779,9.921-23.931a175.4,175.4,0,0,0,.863-31.62.129.129,0,0,1,.259-.013,175.629,175.629,0,0,1-.865,31.667c-1.654,12.222-5.026,20.332-10.022,24.1A.128.128,0,0,1,1039.176,1673.471Z" transform="translate(-960.625 -1594.136)" fill="#9e9569"/>
        <path id="Trazado_223475" data-name="Trazado 223475" d="M831.151,1774.735a.129.129,0,0,1-.112-.064c-3.462-5.9-9.712-9.764-14.346-11.972a51.817,51.817,0,0,0-9.326-3.413.13.13,0,0,1,.059-.252,52.128,52.128,0,0,1,9.378,3.432c4.667,2.223,10.963,6.122,14.458,12.074a.129.129,0,0,1-.111.2Z" transform="translate(-758.86 -1717.295)" fill="#9e9569"/>
      </g>
      <g id="Grupo_175648" data-name="Grupo 175648" transform="translate(42.336 26.65)">
        <path id="Trazado_223476" data-name="Trazado 223476" d="M1284.5,1081.273c27.834,21.951,38.24,43.038,32.151,47.708-3.533,2.709-16.081-4.093-27.408-15.346C1287.163,1105.018,1279.507,1087.168,1284.5,1081.273Z" transform="translate(-1215.186 -1074.981)" fill="#84524d"/>
        <path id="Trazado_223477" data-name="Trazado 223477" d="M784.589,1044.31c8.11-8.218,23.263-15.583,39.947-9.214,17.194,6.563,29.858,21.111,29.858,21.111l-18.87,16.451-8.958,24.66-66.188,3.387S771.468,1057.606,784.589,1044.31Z" transform="translate(-760.378 -1032.687)" fill="#efbc73"/>
      </g>
      <g id="Grupo_175649" data-name="Grupo 175649" transform="translate(129.096 37.77)">
        <path id="Trazado_223478" data-name="Trazado 223478" d="M1430.378,1167.016h0c13.318-12.535,22.527-21.683,25.481-24.4a7.39,7.39,0,0,1,1.711-1.227c3.178-1.626,5.574.245,9.7.06,4.677-.21,7.192-2.976,8-2.1.564.611-.091,1.922-2.291,3.891h0c1.844-1.3,4.421-2.963,5.139-1.942.766,1.223-2.034,3.528-3.8,4.84,2.132-1.588,3.741-1.794,4-1.125.407,1.053-.96,2.669-3.86,4.658h0c2.386-.814,3.086-.656,3.17-.009.153,1.181-2.261,2.771-4.611,3.85a14.926,14.926,0,0,1-6.678,1.216h0c-8.418,9.746-13.818,16.024-20.456,24.034a3.632,3.632,0,0,1-5.345.269A66.7,66.7,0,0,1,1430.378,1167.016Z" transform="translate(-1430.378 -1136.513)" fill="#84524d"/>
        <path id="Trazado_223479" data-name="Trazado 223479" d="M1430.675,1295.435a.13.13,0,0,1-.089-.224c2.939-2.767,5.852-5.532,8.906-8.454a.13.13,0,0,1,.179.187c-3.055,2.923-5.969,5.689-8.908,8.456A.129.129,0,0,1,1430.675,1295.435Z" transform="translate(-1430.524 -1264.945)" fill="#363e44"/>
        <path id="Trazado_223480" data-name="Trazado 223480" d="M1639.136,1124.825c3.164-3.384,3.588-5.275,3.035-5.759-.929-.814-4.812.969-10.059,5.333C1634.059,1124.693,1637.19,1124.531,1639.136,1124.825Z" transform="translate(-1605.99 -1118.833)" fill="#84524d"/>
        <path id="Trazado_223481" data-name="Trazado 223481" d="M1562.68,1148.389h0a.13.13,0,0,1-.1-.045l-12.468-14.57a.13.13,0,0,1,.01-.178c.429-.4,10.5-9.889,10.858-10.157,5.5-4.555,9.163-5.542,10.353-4.5.628.551.873,1.121-1.361,3.841a9.636,9.636,0,0,0,3.074-.2,22.083,22.083,0,0,0,3.8-1.5c1.608-.757,2.878-1.354,3.555-.886a1.023,1.023,0,0,1,.436.783,2.951,2.951,0,0,1-.756,1.923c.979-.514,2.671-1.222,3.283-.352a1.582,1.582,0,0,1,.16,1.319,4.437,4.437,0,0,1-1.458,2,1.835,1.835,0,0,1,1.026.05,1.3,1.3,0,0,1,.75.771c.455,1.179-1.25,2.68-2.871,4.037.571,0,1.542.073,1.828.6a1.28,1.28,0,0,1,.049,1.045c-.373,1.115-1.929,2.438-3.963,3.372a16.371,16.371,0,0,1-6.7,1.764h-.074c-3.482,4.032-9.28,10.773-9.338,10.841A.129.129,0,0,1,1562.68,1148.389Zm-12.29-14.69,12.29,14.362c.784-.911,6.05-7.033,9.279-10.771h0a.132.132,0,0,1,.068-.042.153.153,0,0,1,.034,0,15.872,15.872,0,0,0,6.72-1.74c1.941-.891,3.479-2.184,3.825-3.218a1.031,1.031,0,0,0-.031-.84c-.246-.456-1.391-.5-1.962-.453a.131.131,0,0,1-.129-.075.129.129,0,0,1,.035-.153l.035-.029c1.543-1.288,3.464-2.891,3.051-3.959a1.044,1.044,0,0,0-.6-.623,2.317,2.317,0,0,0-1.8.3.13.13,0,0,1-.116-.232,4.726,4.726,0,0,0,2.189-2.421,1.332,1.332,0,0,0-.126-1.106c-.561-.8-2.616.191-3.624.825a.131.131,0,0,1-.157-.013.129.129,0,0,1,0-.188,3.371,3.371,0,0,0,1.215-2.316.765.765,0,0,0-.325-.593c-.555-.383-1.826.215-3.3.908a22.251,22.251,0,0,1-3.848,1.52,9.872,9.872,0,0,1-3.407.177.129.129,0,0,1-.082-.211c2.413-2.9,1.99-3.271,1.541-3.664-.77-.675-3.856-.6-10.023,4.507C1560.861,1123.851,1554.04,1130.261,1550.391,1133.7Z" transform="translate(-1534.582 -1118.56)" fill="#fff"/>
        <path id="Trazado_223482" data-name="Trazado 223482" d="M1657.316,1150.649a.13.13,0,0,1-.008-.259l.208-.013a34.067,34.067,0,0,1,5.726-.014.129.129,0,1,1-.035.256,33.957,33.957,0,0,0-5.676.016l-.208.013Z" transform="translate(-1627.816 -1146.14)" fill="#fff"/>
        <path id="Trazado_223483" data-name="Trazado 223483" d="M1727.305,1157.515a.13.13,0,0,1-.13-.118.128.128,0,0,1,.117-.14,6.532,6.532,0,0,0,1.632-.292,17.445,17.445,0,0,0,4.792-2.9.129.129,0,1,1,.168.2,17.725,17.725,0,0,1-4.876,2.949,6.829,6.829,0,0,1-1.692.3Z" transform="translate(-1688.742 -1149.439)" fill="#fff"/>
        <path id="Trazado_223484" data-name="Trazado 223484" d="M1739.751,1180.458a.13.13,0,0,1-.011-.259,11.681,11.681,0,0,0,2.193-.523,26.974,26.974,0,0,0,4.215-2.349.129.129,0,1,1,.139.218,27.133,27.133,0,0,1-4.264,2.374,12.041,12.041,0,0,1-2.26.538Z" transform="translate(-1699.577 -1169.7)" fill="#fff"/>
        <path id="Trazado_223485" data-name="Trazado 223485" d="M1739.2,1214.174a.13.13,0,0,1-.011-.259,9.06,9.06,0,0,0,1.64-.294,36.533,36.533,0,0,0,4.417-1.937.129.129,0,1,1,.132.223,36,36,0,0,1-4.48,1.964,9.3,9.3,0,0,1-1.687.3Z" transform="translate(-1699.098 -1199.609)" fill="#fff"/>
      </g>
      <path id="Trazado_223486" data-name="Trazado 223486" d="M1390.495,951.26a70.861,70.861,0,0,0,28.242-25.67c19.513-31,9.488-71.808-4.341-93.45,11.547,12.247,21.895,36.411,20.536,59.986-1.749,30.354-12.159,42.076-11.372,49.424.606,5.653,11.58,10.911,11.372,12.159C1434.719,954.985,1425.263,955.09,1390.495,951.26Z" transform="translate(-1266.564 -831.459)" fill="#d3bba3"/>
      <g id="Grupo_175650" data-name="Grupo 175650" transform="translate(146.993 112.855)">
        <path id="Trazado_223487" data-name="Trazado 223487" d="M1743.079,1745.709a.13.13,0,0,1-.123-.089l-2.453-7.377a.13.13,0,0,1,.246-.082l2.453,7.377a.13.13,0,0,1-.082.164A.134.134,0,0,1,1743.079,1745.709Z" transform="translate(-1718.235 -1732.936)" fill="#363e44"/>
        <path id="Trazado_223488" data-name="Trazado 223488" d="M1714.81,1753.808a.129.129,0,0,1-.041-.252l9.724-3.3a.129.129,0,1,1,.083.245l-9.724,3.3A.128.128,0,0,1,1714.81,1753.808Z" transform="translate(-1695.763 -1743.537)" fill="#363e44"/>
        <path id="Trazado_223489" data-name="Trazado 223489" d="M1652.439,1734.672a.131.131,0,0,1-.1-.045l-7.743-9.041a.129.129,0,0,1,.2-.168l7.744,9.041a.13.13,0,0,1-.1.214Z" transform="translate(-1634.728 -1721.88)" fill="#363e44"/>
        <path id="Trazado_223490" data-name="Trazado 223490" d="M1635.082,1735.055a.13.13,0,0,1-.061-.244l8.211-4.385a.129.129,0,1,1,.122.228l-8.211,4.385A.129.129,0,0,1,1635.082,1735.055Z" transform="translate(-1626.359 -1726.266)" fill="#363e44"/>
        <path id="Trazado_223491" data-name="Trazado 223491" d="M1578.967,1748.217a.13.13,0,0,1-.054-.012l-10.249-4.671a.129.129,0,1,1,.107-.236l10.249,4.671a.129.129,0,0,1-.054.247Z" transform="translate(-1568.589 -1737.475)" fill="#363e44"/>
        <path id="Trazado_223492" data-name="Trazado 223492" d="M1793.043,1787.358a.129.129,0,0,1-.02-.257l5.927-.911a.13.13,0,0,1,.039.256l-5.927.911Z" transform="translate(-1763.865 -1774.82)" fill="#363e44"/>
        <path id="Trazado_223493" data-name="Trazado 223493" d="M1669.757,1702.482a.13.13,0,0,1-.072-.237l5.7-3.819a.129.129,0,1,1,.144.215l-5.7,3.819A.129.129,0,0,1,1669.757,1702.482Z" transform="translate(-1656.543 -1698.404)" fill="#363e44"/>
        <path id="Trazado_223494" data-name="Trazado 223494" d="M1717.781,1734.6a.13.13,0,0,1-.055-.247l6.984-3.263a.129.129,0,0,1,.109.235l-6.983,3.263A.128.128,0,0,1,1717.781,1734.6Z" transform="translate(-1698.349 -1726.846)" fill="#363e44"/>
        <path id="Trazado_223495" data-name="Trazado 223495" d="M1692.495,1753.375a.128.128,0,0,1-.071-.021l-7.565-4.958a.129.129,0,1,1,.142-.217l7.565,4.958a.129.129,0,0,1-.071.238Z" transform="translate(-1669.752 -1741.715)" fill="#363e44"/>
        <path id="Trazado_223496" data-name="Trazado 223496" d="M1777.928,1769.611a.128.128,0,0,1-.091-.038.129.129,0,0,1,0-.183l3.793-3.814a.129.129,0,1,1,.184.183l-3.793,3.814A.129.129,0,0,1,1777.928,1769.611Z" transform="translate(-1750.708 -1756.845)" fill="#363e44"/>
        <path id="Trazado_223497" data-name="Trazado 223497" d="M1784.356,1776.077a.128.128,0,0,1-.07-.021l-7.789-5.013a.13.13,0,0,1,.14-.218l7.789,5.013a.129.129,0,0,1-.07.238Z" transform="translate(-1749.523 -1761.429)" fill="#363e44"/>
        <path id="Trazado_223498" data-name="Trazado 223498" d="M1586.495,1742.076a.129.129,0,0,1-.075-.235l5.471-3.874a.13.13,0,1,1,.15.212l-5.471,3.874A.129.129,0,0,1,1586.495,1742.076Z" transform="translate(-1584.063 -1732.823)" fill="#363e44"/>
        <path id="Trazado_223499" data-name="Trazado 223499" d="M1575.675,1723.007a.128.128,0,0,1-.084-.031.129.129,0,0,1-.015-.182l4.684-5.494a.129.129,0,0,1,.2.168l-4.684,5.495A.129.129,0,0,1,1575.675,1723.007Z" transform="translate(-1574.644 -1714.813)" fill="#363e44"/>
        <path id="Trazado_223500" data-name="Trazado 223500" d="M1678.952,1707.29a.129.129,0,0,1-.052-.011l-3.64-1.612a.13.13,0,0,1,.105-.237l3.64,1.612a.129.129,0,0,1-.052.248Z" transform="translate(-1661.379 -1704.51)" fill="#363e44"/>
      </g>
      <g id="Grupo_175651" data-name="Grupo 175651" transform="translate(138.664 116.236)">
        <path id="Trazado_223501" data-name="Trazado 223501" d="M1586.037,1751.255a.13.13,0,0,1-.125-.1l-2.016-7.508a.129.129,0,1,1,.25-.067l2.017,7.508a.13.13,0,0,1-.092.159A.124.124,0,0,1,1586.037,1751.255Z" transform="translate(-1573.581 -1741.03)" fill="#363e44"/>
        <path id="Trazado_223502" data-name="Trazado 223502" d="M1551.115,1768.378a.13.13,0,0,1-.034-.254l9.9-2.723a.129.129,0,1,1,.069.25l-9.9,2.723A.133.133,0,0,1,1551.115,1768.378Z" transform="translate(-1544.936 -1760.102)" fill="#363e44"/>
        <path id="Trazado_223503" data-name="Trazado 223503" d="M1646.211,1756.3a.13.13,0,0,1-.1-.052l-7.2-9.479a.129.129,0,1,1,.206-.157l7.2,9.479a.13.13,0,0,1-.1.208Z" transform="translate(-1621.449 -1743.711)" fill="#363e44"/>
        <path id="Trazado_223504" data-name="Trazado 223504" d="M1641.209,1785.652a.13.13,0,0,1-.055-.247l8.454-3.9a.129.129,0,1,1,.109.235l-8.454,3.9A.129.129,0,0,1,1641.209,1785.652Z" transform="translate(-1623.364 -1774.117)" fill="#363e44"/>
        <path id="Trazado_223505" data-name="Trazado 223505" d="M1704.572,1771.211a.131.131,0,0,1-.061-.015l-9.957-5.264a.129.129,0,0,1,.121-.229l9.958,5.264a.13.13,0,0,1-.061.244Z" transform="translate(-1669.854 -1760.357)" fill="#363e44"/>
        <path id="Trazado_223506" data-name="Trazado 223506" d="M1504.4,1744.162a.129.129,0,0,1-.012-.258l5.97-.562a.13.13,0,0,1,.024.258l-5.97.562Z" transform="translate(-1504.267 -1740.903)" fill="#363e44"/>
        <path id="Trazado_223507" data-name="Trazado 223507" d="M1624.112,1819.518a.13.13,0,0,1-.066-.241l5.909-3.479a.129.129,0,1,1,.131.223l-5.909,3.479A.128.128,0,0,1,1624.112,1819.518Z" transform="translate(-1608.48 -1803.963)" fill="#363e44"/>
        <path id="Trazado_223508" data-name="Trazado 223508" d="M1568.155,1787.742a.13.13,0,0,1-.048-.25l7.162-2.848a.13.13,0,0,1,.1.241l-7.162,2.848A.134.134,0,0,1,1568.155,1787.742Z" transform="translate(-1559.769 -1776.85)" fill="#363e44"/>
        <path id="Trazado_223509" data-name="Trazado 223509" d="M1606.971,1758.672a.13.13,0,0,1-.077-.026l-7.261-5.393a.13.13,0,0,1,.155-.208l7.261,5.393a.129.129,0,0,1-.078.233Z" transform="translate(-1587.239 -1749.329)" fill="#363e44"/>
        <path id="Trazado_223510" data-name="Trazado 223510" d="M1534.722,1746.306a.129.129,0,0,1-.086-.226l4.01-3.585a.129.129,0,1,1,.173.193l-4.01,3.585A.127.127,0,0,1,1534.722,1746.306Z" transform="translate(-1530.665 -1740.138)" fill="#363e44"/>
        <path id="Trazado_223511" data-name="Trazado 223511" d="M1515.338,1730.234a.129.129,0,0,1-.076-.025l-7.481-5.461a.129.129,0,1,1,.153-.209l7.481,5.461a.129.129,0,0,1-.076.234Z" transform="translate(-1507.279 -1724.514)" fill="#363e44"/>
        <path id="Trazado_223512" data-name="Trazado 223512" d="M1711.273,1784.569a.129.129,0,0,1-.069-.239l5.689-3.547a.129.129,0,0,1,.137.22l-5.689,3.547A.128.128,0,0,1,1711.273,1784.569Z" transform="translate(-1684.355 -1773.48)" fill="#363e44"/>
        <path id="Trazado_223513" data-name="Trazado 223513" d="M1726.935,1795.032a.129.129,0,0,1-.093-.219l5-5.21a.13.13,0,0,1,.187.179l-5,5.21A.13.13,0,0,1,1726.935,1795.032Z" transform="translate(-1697.988 -1781.139)" fill="#363e44"/>
        <path id="Trazado_223514" data-name="Trazado 223514" d="M1639.089,1825.9a.129.129,0,0,1-.059-.014l-3.539-1.823a.129.129,0,1,1,.119-.23l3.539,1.823a.129.129,0,0,1-.059.245Z" transform="translate(-1618.437 -1810.957)" fill="#363e44"/>
      </g>
      <g id="Grupo_175652" data-name="Grupo 175652" transform="translate(89.816 82.571)">
        <path id="Trazado_223515" data-name="Trazado 223515" d="M1141.324,1464.537c7.406,5.7,25.512,18.254,27.23,19.55,3.212,2.423,20.116,15.872,18.44,18.522-.8,1.266-4.174-1.178-5.291-2.037.56,1.139,3.182,5.278,1.947,6.416-1.451,1.337-5.331-3.118-5.435-3.149.686,1.1,3.593,5.365,2.7,6.253-1.162,1.157-5.057-2-6.179-3-.019.258,2.745,4.664,2,5.343-.821.752-4.523-2.105-6.095-3.1-2.856-2.15-14.4-9.911-20.193-13.414-13.6-8.227-17.233-11.948-23.107-17.082C1125.046,1476.829,1136.3,1464.69,1141.324,1464.537Z" transform="translate(-1127.04 -1464.537)" fill="#84524d"/>
        <path id="Trazado_223516" data-name="Trazado 223516" d="M1329.426,1621c-1.479,0-4.168-1.61-5.442-2.758-3.077-2.316-21.891-14.543-22.081-14.667a.129.129,0,0,1-.059-.1.128.128,0,0,1,.042-.106l17.4-15.975a.129.129,0,0,1,.171,0c.058.049,5.828,4.935,11.3,10.113a103.919,103.919,0,0,1,7.388,7.57c2.176,2.556,3.01,4.15,2.552,4.875a1.6,1.6,0,0,1-1.136.7,5.958,5.958,0,0,1-3.63-.915c.09.156.193.328.3.512.984,1.65,2.471,4.143,1.312,5.21s-3.264-.474-4.571-1.616c1.12,1.484,2.4,3.41,1.53,4.526a1.211,1.211,0,0,1-.886.459c-1.46.132-3.8-1.608-4.848-2.464l.092.145c.823,1.3,2.2,3.464,1.307,4.26A1.092,1.092,0,0,1,1329.426,1621Zm-27.242-17.551c1.74,1.131,19.013,12.371,21.964,14.593,1.674,1.506,5.023,3.271,5.851,2.534.729-.649-.678-2.864-1.353-3.928-.382-.6-.463-.74-.455-.845a.129.129,0,0,1,.215-.087c1.259,1.121,3.775,2.985,5.192,2.856a.951.951,0,0,0,.7-.361c.863-1.105-.9-3.4-1.959-4.769-.164-.213-.319-.414-.445-.585a.13.13,0,0,1,.142-.2c.044.013.065.033.285.241,2.5,2.358,4.195,3.156,5.046,2.372,1-.925-.475-3.406-1.359-4.888-.237-.4-.442-.742-.567-1a.13.13,0,0,1,.2-.16,5.978,5.978,0,0,0,3.877,1.171,1.356,1.356,0,0,0,.963-.585c1.449-2.29-14.655-16.69-21.1-22.148Zm26.265,12.356h0Z" transform="translate(-1279.208 -1571.454)" fill="#fff"/>
        <path id="Trazado_223517" data-name="Trazado 223517" d="M1516.457,1707.369a.129.129,0,0,1-.109-.059,18.24,18.24,0,0,0-4.853-5.024.13.13,0,0,1,.149-.212,18.519,18.519,0,0,1,4.922,5.1.13.13,0,0,1-.109.2Z" transform="translate(-1461.663 -1671.293)" fill="#363e44"/>
        <path id="Trazado_223518" data-name="Trazado 223518" d="M1497.373,1743.843a.13.13,0,0,1-.1-.048q-.166-.2-.344-.41a18.345,18.345,0,0,0-3.344-3.016.13.13,0,0,1,.149-.212,18.617,18.617,0,0,1,3.391,3.059q.181.209.349.416a.129.129,0,0,1-.1.211Z" transform="translate(-1446.071 -1704.446)" fill="#363e44"/>
        <path id="Trazado_223519" data-name="Trazado 223519" d="M1478.7,1778.963a.13.13,0,0,1-.09-.037,18.473,18.473,0,0,0-2.276-1.883.13.13,0,1,1,.149-.212,18.769,18.769,0,0,1,2.308,1.91.129.129,0,0,1-.09.222Z" transform="translate(-1431.055 -1736.371)" fill="#363e44"/>
      </g>
      <g id="Grupo_175655" data-name="Grupo 175655" transform="translate(95.071)">
        <path id="Trazado_223520" data-name="Trazado 223520" d="M1265.832,848.447c.476.1,5.019,1.177,6.7,5.067,1.254,2.894.555,5.862-1.37,10.661-2.266,5.652-4.411,8.714-6.444,9.315-3.213.95-9.783-5.635-11.109-11.641a12.234,12.234,0,0,1,4.235-11.819C1261.266,847.168,1265.529,848.38,1265.832,848.447Z" transform="translate(-1242.252 -845.383)" fill="#84524d"/>
        <path id="Rect치ngulo_341775" data-name="Rect치ngulo 341775" d="M5.977,0h0a5.977,5.977,0,0,1,5.977,5.977V20.4a5.977,5.977,0,0,1-5.977,5.977h0A5.977,5.977,0,0,1,0,20.4V5.977A5.977,5.977,0,0,1,5.977,0Z" transform="translate(13.461 10.8) rotate(25.3)" fill="#84524d"/>
        <path id="Trazado_223521" data-name="Trazado 223521" d="M1262.084,964.02a.131.131,0,0,1-.069-.02,19.135,19.135,0,0,1-7.662-10.8.13.13,0,0,1,.253-.056,19.132,19.132,0,0,0,7.547,10.638.129.129,0,0,1-.069.239Z" transform="translate(-1243.12 -936.705)" fill="#363e44"/>
        <path id="Trazado_223522" data-name="Trazado 223522" d="M1185.381,827a12.294,12.294,0,0,0-7.745,4.277c-2.624,2.858-10.014,12.384-10.014,12.384l4.039,2.31,2.272-2.272-1.328,2.812,5.585,3.194,2.444-6.538a18.285,18.285,0,0,1,5.26-4.675c4.024-2.291,9.267.818,12.621-.948C1199.126,831.276,1191.315,826.027,1185.381,827Z" transform="translate(-1167.621 -826.883)" fill="#363e44"/>
        <g id="Grupo_175653" data-name="Grupo 175653" transform="translate(12.103 9.936)">
          <ellipse id="Elipse_7751" data-name="Elipse 7751" cx="3.24" cy="3.833" rx="3.24" ry="3.833" transform="translate(0 0.836) rotate(-7.411)" fill="#84524d"/>
          <path id="Trazado_223523" data-name="Trazado 223523" d="M1276.192,922.984a.13.13,0,0,1-.124-.091,2.46,2.46,0,0,1-.089-.406,1.947,1.947,0,0,1,1.493-2.289,1.547,1.547,0,0,1,.715.075.129.129,0,0,1-.085.245,1.293,1.293,0,0,0-.6-.063,1.69,1.69,0,0,0-1.27,2,2.214,2.214,0,0,0,.079.364.13.13,0,0,1-.085.162A.132.132,0,0,1,1276.192,922.984Z" transform="translate(-1274.034 -918.038)" fill="#363e44"/>
        </g>
        <g id="Grupo_175654" data-name="Grupo 175654" transform="translate(19.853 13.4)">
          <path id="Trazado_223524" data-name="Trazado 223524" d="M1320.936,930.364a7.9,7.9,0,0,1,3.329.944c.34.193-1.844,2.551-2.079,2.214A7.92,7.92,0,0,1,1320.936,930.364Z" transform="translate(-1320.936 -930.364)" fill="#fff"/>
          <path id="Trazado_223525" data-name="Trazado 223525" d="M1333.646,938.383a5.571,5.571,0,0,0-.983-.7,3.107,3.107,0,0,0-2.082,2.209,5.606,5.606,0,0,0,.842.961,2.475,2.475,0,1,0,2.223-2.469Z" transform="translate(-1329.332 -936.734)" fill="#373e44"/>
        </g>
        <path id="Trazado_223526" data-name="Trazado 223526" d="M1338.478,993.981a1.31,1.31,0,0,1-1.178-.7,1.387,1.387,0,0,1,.094-1.3.13.13,0,0,1,.217.141,1.137,1.137,0,0,0-.079,1.038,1.066,1.066,0,0,0,1.151.541.129.129,0,1,1,.047.255A1.4,1.4,0,0,1,1338.478,993.981Z" transform="translate(-1315.218 -970.553)" fill="#363e44"/>
        <path id="Trazado_223527" data-name="Trazado 223527" d="M1372.846,979.123a.129.129,0,0,1-.021-.257c.4-.066.908-.207,1.013-.5a.65.65,0,0,0-.064-.441,2.682,2.682,0,0,1-.155-.623,2.482,2.482,0,0,1,.171-1.192.129.129,0,1,1,.241.094,2.226,2.226,0,0,0-.155,1.069,2.444,2.444,0,0,0,.142.566.87.87,0,0,1,.063.613c-.119.339-.517.559-1.215.673Z" transform="translate(-1346.158 -956.711)" fill="#363e44"/>
      </g>
      <path id="Trazado_223528" data-name="Trazado 223528" d="M959.541,1220.483c-.729,31.915,29.575,58.031,39.45,50.923,8.169-5.879-13.066-36.33-19.084-45.073C970.619,1221.076,966.369,1223.734,959.541,1220.483Z" transform="translate(-891.404 -1169.515)" fill="#84524d"/>
      <rect id="Rect치ngulo_341776" data-name="Rect치ngulo 341776" width="30.548" height="20.807" transform="translate(61.134 52.27) rotate(-18.395)" fill="#efbc73"/>
      <path id="Trazado_223529" data-name="Trazado 223529" d="M928.049,1222.373l-4.094-12.311a.129.129,0,0,1,.246-.082l4.012,12.065,28.741-9.558-4.665-14.028a.13.13,0,0,1,.246-.082l4.747,14.274-.123.041Z" transform="translate(-860.432 -1150.195)" fill="#363e44"/>
      <g id="Grupo_175656" data-name="Grupo 175656" transform="translate(141.368 121.658)">
        <path id="Trazado_223530" data-name="Trazado 223530" d="M1693,1803.351a.129.129,0,0,1-.106-.055l-4.458-6.369a.13.13,0,0,1,.212-.149l4.458,6.369a.129.129,0,0,1-.106.2Z" transform="translate(-1667.272 -1792.795)" fill="#363e44"/>
        <path id="Trazado_223531" data-name="Trazado 223531" d="M1674.553,1800.518a.129.129,0,0,1-.075-.235l8.377-5.938a.129.129,0,0,1,.15.211l-8.377,5.938A.128.128,0,0,1,1674.553,1800.518Z" transform="translate(-1655.094 -1790.704)" fill="#363e44"/>
        <path id="Trazado_223532" data-name="Trazado 223532" d="M1602.982,1818.659a.128.128,0,0,1-.07-.021l-10-6.453a.129.129,0,1,1,.14-.217l10,6.453a.129.129,0,0,1-.07.238Z" transform="translate(-1584.084 -1806.047)" fill="#363e44"/>
        <path id="Trazado_223533" data-name="Trazado 223533" d="M1594.875,1808.22a.13.13,0,0,1-.091-.222l6.617-6.547a.129.129,0,1,1,.182.184l-6.617,6.547A.129.129,0,0,1,1594.875,1808.22Z" transform="translate(-1585.734 -1796.878)" fill="#363e44"/>
        <path id="Trazado_223534" data-name="Trazado 223534" d="M1536.438,1852.623h-.018l-11.156-1.55a.129.129,0,0,1,.036-.256l11.156,1.549a.13.13,0,0,1-.018.258Z" transform="translate(-1525.153 -1839.882)" fill="#363e44"/>
        <path id="Trazado_223535" data-name="Trazado 223535" d="M1754.525,1817.619a.13.13,0,0,1-.056-.247l5.42-2.566a.13.13,0,0,1,.111.234l-5.42,2.566A.129.129,0,0,1,1754.525,1817.619Z" transform="translate(-1724.71 -1808.526)" fill="#363e44"/>
        <path id="Trazado_223536" data-name="Trazado 223536" d="M1617.717,1771.931a.13.13,0,0,1-.1-.212l4.367-5.286a.129.129,0,0,1,.2.165l-4.367,5.287A.128.128,0,0,1,1617.717,1771.931Z" transform="translate(-1605.619 -1766.385)" fill="#363e44"/>
        <path id="Trazado_223537" data-name="Trazado 223537" d="M1671.847,1786.523a.129.129,0,0,1-.086-.226l5.76-5.122a.13.13,0,0,1,.172.194l-5.76,5.121A.128.128,0,0,1,1671.847,1786.523Z" transform="translate(-1652.738 -1779.231)" fill="#363e44"/>
        <path id="Trazado_223538" data-name="Trazado 223538" d="M1646.71,1825.144a.13.13,0,0,1-.037-.006l-8.666-2.591a.13.13,0,0,1,.074-.248l8.666,2.591a.13.13,0,0,1-.037.254Z" transform="translate(-1623.313 -1815.054)" fill="#363e44"/>
        <path id="Trazado_223539" data-name="Trazado 223539" d="M1740.545,1809.024a.129.129,0,0,1-.114-.191l2.546-4.738a.13.13,0,1,1,.228.123l-2.546,4.738A.13.13,0,0,1,1740.545,1809.024Z" transform="translate(-1712.541 -1799.152)" fill="#363e44"/>
        <path id="Trazado_223540" data-name="Trazado 223540" d="M1741.229,1820.667a.131.131,0,0,1-.036-.005l-8.9-2.58a.129.129,0,1,1,.072-.249l8.9,2.58a.13.13,0,0,1-.036.254Z" transform="translate(-1705.393 -1811.167)" fill="#363e44"/>
        <path id="Trazado_223541" data-name="Trazado 223541" d="M1549.336,1834.083a.13.13,0,0,1-.1-.209l4.137-5.276a.13.13,0,0,1,.2.16l-4.137,5.275A.13.13,0,0,1,1549.336,1834.083Z" transform="translate(-1546.092 -1820.499)" fill="#363e44"/>
        <path id="Trazado_223542" data-name="Trazado 223542" d="M1536.63,1820.412a.129.129,0,0,1-.118-.182l2.919-6.6a.129.129,0,1,1,.237.1l-2.92,6.6A.129.129,0,0,1,1536.63,1820.412Z" transform="translate(-1535.031 -1807.443)" fill="#363e44"/>
        <path id="Trazado_223543" data-name="Trazado 223543" d="M1620.571,1784.848h-.017l-3.949-.506a.13.13,0,1,1,.033-.257l3.949.506a.129.129,0,0,1-.016.258Z" transform="translate(-1604.664 -1781.791)" fill="#363e44"/>
      </g>
    </g>
    <g id="Grupo_175659" data-name="Grupo 175659" transform="translate(438.732 514.194)">
      <path id="Trazado_223544" data-name="Trazado 223544" d="M1140.751,1791.7a24.229,24.229,0,0,0-3.533,12.677,39.688,39.688,0,0,0,2.769,15.518c.669,1.528.2,4.3.955,5.061.908.923,4.312-.9,5.443-.286a24.681,24.681,0,0,0,12.892,3.056c4.839,0,9.764-1.92,14.253-2.865,1.361-.287,4.455.747,5.085,0,1.289-1.528-.143-3.056.621-6.016a52.806,52.806,0,0,0,2.1-14.468,24.231,24.231,0,0,0-3.533-12.677Z" transform="translate(-1137.075 -1782.26)" fill="#efbc73"/>
      <ellipse id="Elipse_7752" data-name="Elipse 7752" cx="21.916" cy="3.653" rx="21.916" ry="3.653" transform="translate(0 5.354)" fill="#efbc73"/>
      <ellipse id="Elipse_7753" data-name="Elipse 7753" cx="18.569" cy="1.699" rx="18.569" ry="1.699" transform="translate(3.347 7.091)" fill="#363e44"/>
      <path id="Trazado_223545" data-name="Trazado 223545" d="M1176.256,1804.56c-7.887,0-15.21-.712-19.112-1.858a.13.13,0,1,1,.073-.249c3.88,1.14,11.175,1.848,19.039,1.848,8.247,0,15.708-.759,19.471-1.981a.129.129,0,0,1,.08.246C1192.02,1803.8,1184.528,1804.56,1176.256,1804.56Z" transform="translate(-1154.34 -1791.502)" fill="#ffd092"/>
      <g id="Grupo_175658" data-name="Grupo 175658" transform="translate(7.801)">
        <path id="Trazado_223546" data-name="Trazado 223546" d="M1332.834,1750.9a.13.13,0,0,1-.112-.064l-3.138-5.346a.129.129,0,1,1,.223-.131l3.138,5.346a.129.129,0,0,1-.111.2Z" transform="translate(-1312.317 -1741.866)" fill="#363e44"/>
        <path id="Trazado_223547" data-name="Trazado 223547" d="M1315.813,1751.054a.13.13,0,0,1-.067-.241l7.036-4.187a.129.129,0,1,1,.132.223l-7.036,4.188A.13.13,0,0,1,1315.813,1751.054Z" transform="translate(-1300.232 -1743.01)" fill="#363e44"/>
        <path id="Trazado_223548" data-name="Trazado 223548" d="M1260.308,1757.345a.128.128,0,0,1-.078-.027l-7.541-5.765a.129.129,0,0,1,.157-.206l7.541,5.765a.129.129,0,0,1-.079.232Z" transform="translate(-1245.35 -1747.112)" fill="#363e44"/>
        <path id="Trazado_223549" data-name="Trazado 223549" d="M1251.73,1751.359a.129.129,0,0,1-.084-.229l5.676-4.784a.13.13,0,1,1,.167.2l-5.675,4.784A.128.128,0,0,1,1251.73,1751.359Z" transform="translate(-1244.447 -1742.756)" fill="#363e44"/>
        <path id="Trazado_223550" data-name="Trazado 223550" d="M1205.255,1780.113a.123.123,0,0,1-.028,0l-8.769-1.941a.13.13,0,0,1,.056-.253l8.769,1.941a.13.13,0,0,1-.028.256Z" transform="translate(-1196.356 -1770.261)" fill="#363e44"/>
        <path id="Trazado_223551" data-name="Trazado 223551" d="M1379.736,1768.468a.13.13,0,0,1-.046-.251l4.471-1.695a.129.129,0,1,1,.092.242l-4.471,1.695A.125.125,0,0,1,1379.736,1768.468Z" transform="translate(-1355.877 -1760.338)" fill="#363e44"/>
        <path id="Trazado_223552" data-name="Trazado 223552" d="M1272.732,1723.005a.13.13,0,0,1-.093-.22l3.808-3.924a.129.129,0,1,1,.186.18l-3.808,3.924A.128.128,0,0,1,1272.732,1723.005Z" transform="translate(-1262.729 -1718.822)" fill="#363e44"/>
        <path id="Trazado_223553" data-name="Trazado 223553" d="M1314.9,1738.639a.13.13,0,0,1-.078-.233l4.9-3.7a.13.13,0,1,1,.156.207l-4.9,3.7A.129.129,0,0,1,1314.9,1738.639Z" transform="translate(-1299.438 -1732.622)" fill="#363e44"/>
        <path id="Trazado_223554" data-name="Trazado 223554" d="M1294.654,1765.279a.125.125,0,0,1-.047-.009l-6.723-2.61a.13.13,0,1,1,.094-.242l6.723,2.611a.129.129,0,0,1-.047.25Z" transform="translate(-1275.96 -1756.765)" fill="#363e44"/>
        <path id="Trazado_223555" data-name="Trazado 223555" d="M1368.242,1759.519a.127.127,0,0,1-.07-.021.129.129,0,0,1-.039-.179l2.325-3.6a.13.13,0,0,1,.218.141l-2.325,3.6A.129.129,0,0,1,1368.242,1759.519Z" transform="translate(-1345.871 -1750.885)" fill="#363e44"/>
        <path id="Trazado_223556" data-name="Trazado 223556" d="M1370.07,1767.729a.132.132,0,0,1-.046-.008l-6.907-2.617a.13.13,0,1,1,.092-.242l6.907,2.616a.13.13,0,0,1-.046.251Z" transform="translate(-1341.45 -1758.893)" fill="#363e44"/>
        <path id="Trazado_223557" data-name="Trazado 223557" d="M1214.431,1767.964a.129.129,0,0,1-.1-.217l3.624-3.93a.129.129,0,1,1,.19.175l-3.624,3.93A.129.129,0,0,1,1214.431,1767.964Z" transform="translate(-1211.978 -1757.953)" fill="#363e44"/>
        <path id="Trazado_223558" data-name="Trazado 223558" d="M1204.633,1755.768a.13.13,0,0,1-.114-.191l2.741-5.063a.13.13,0,0,1,.228.123l-2.741,5.063A.13.13,0,0,1,1204.633,1755.768Z" transform="translate(-1203.448 -1746.35)" fill="#363e44"/>
        <path id="Trazado_223559" data-name="Trazado 223559" d="M1276.439,1731.585a.126.126,0,0,1-.027,0l-3.107-.653a.129.129,0,1,1,.053-.253l3.107.653a.129.129,0,0,1-.026.256Z" transform="translate(-1263.251 -1729.138)" fill="#363e44"/>
      </g>
      <path id="Trazado_223560" data-name="Trazado 223560" d="M1184.278,1968.589a.13.13,0,0,1-.108-.058l-5.157-7.831a.13.13,0,0,1,.216-.142l5.157,7.831a.129.129,0,0,1-.037.179A.127.127,0,0,1,1184.278,1968.589Z" transform="translate(-1173.439 -1929.204)" fill="#ffd092"/>
      <path id="Trazado_223561" data-name="Trazado 223561" d="M1201.4,1965.544a.13.13,0,0,1-.111-.064l-4.584-7.735a.129.129,0,1,1,.223-.132l4.584,7.735a.13.13,0,0,1-.045.178A.133.133,0,0,1,1201.4,1965.544Z" transform="translate(-1188.846 -1926.636)" fill="#ffd092"/>
      <path id="Trazado_223562" data-name="Trazado 223562" d="M1176.908,1971.623a.13.13,0,0,1-.065-.242l8.595-4.966a.13.13,0,0,1,.13.224l-8.595,4.966A.126.126,0,0,1,1176.908,1971.623Z" transform="translate(-1171.512 -1934.339)" fill="#ffd092"/>
      <path id="Trazado_223563" data-name="Trazado 223563" d="M1187.97,1998.736a.13.13,0,0,1-.048-.25l6.4-2.578a.13.13,0,1,1,.1.24l-6.4,2.578A.13.13,0,0,1,1187.97,1998.736Z" transform="translate(-1181.142 -1960.019)" fill="#ffd092"/>
    </g>
    <path id="Trazado_223564" data-name="Trazado 223564" d="M1342.8,1224.157a.127.127,0,0,1-.028,0,.129.129,0,0,1-.1-.154,52.076,52.076,0,0,0,.931-16.637.13.13,0,0,1,.258-.027,52.335,52.335,0,0,1-.935,16.72A.13.13,0,0,1,1342.8,1224.157Z" transform="translate(-877.195 -759.274)" fill="#363e44"/>
    <path id="Trazado_223565" data-name="Trazado 223565" d="M1299.677,908.162l-.837-.451,1.3-4.564,2.245.5Z" transform="translate(-839.036 -494.576)" fill="#363e44"/>
    <path id="Trazado_223566" data-name="Trazado 223566" d="M1662.958,751.578a49.908,49.908,0,0,1-26.582,23.49l.809,4.769a45.884,45.884,0,0,0,25.773-28.259Z" transform="translate(-1132.864 -362.634)" fill="#d3bba3"/>
  </g>
</svg>
