<svg id="hoguera" xmlns="http://www.w3.org/2000/svg" width="113" height="113" viewBox="0 0 113 113">
  <path id="Trazado_692934" data-name="Trazado 692934" d="M113,56.669a56.447,56.447,0,0,1-25.572,47.115,1.251,1.251,0,0,1-.686.2H26.225a1.144,1.144,0,0,1-.626-.186A56.5,56.5,0,1,1,113,56.669Z" fill="#0582b0"/>
  <path id="Trazado_692935" data-name="Trazado 692935" d="M60.9,29.931A9.932,9.932,0,1,1,50.967,20,9.931,9.931,0,0,1,60.9,29.931Zm49.658,5.517a7.724,7.724,0,1,0,7.725,7.724A7.724,7.724,0,0,0,110.557,35.449ZM35.518,59.725a5.517,5.517,0,1,0,5.518,5.517A5.517,5.517,0,0,0,35.518,59.725Zm91.592,12.138a5.517,5.517,0,1,0,5.518,5.517A5.517,5.517,0,0,0,127.109,71.863Z" transform="translate(-23.379 -15.586)" fill="#3693bd"/>
  <path id="Trazado_692936" data-name="Trazado 692936" d="M121.654,65.448a36.9,36.9,0,0,1-11.287,53.12h0a42.037,42.037,0,0,1-37.6,0h0a36.9,36.9,0,0,1-11.287-53.12s4.509-7.607,4.484-5.724C65.869,67.056,69.94,69.8,73,69.387,83.818,67.934,66.148,47.212,85.83,26.62,89.568,22.709,94.808,20,100.219,20h0c-9.12,20.755,14.512,24.473,9.914,49.388-.561,3.04,7.479-2.6,7.16-10.08C117.212,57.426,121.654,65.448,121.654,65.448ZM138.8,75.173a2.207,2.207,0,1,0,2.207,2.207A2.207,2.207,0,0,0,138.8,75.173ZM62.656,33.241a3.31,3.31,0,1,0-3.311-3.31A3.311,3.311,0,0,0,62.656,33.241Zm59.59,12.138a2.207,2.207,0,1,0-2.207-2.207A2.207,2.207,0,0,0,122.246,45.379ZM47.207,63.035a2.207,2.207,0,1,0,2.207,2.207A2.207,2.207,0,0,0,47.207,63.035Z" transform="translate(-35.068 -15.585)" fill="#ffdf8e"/>
  <path id="Trazado_692937" data-name="Trazado 692937" d="M134.333,20c-.185.421-.352.833-.51,1.241a22.268,22.268,0,0,0-7.968,5.38c-19.682,20.592-2.012,41.314-12.826,42.767a5.12,5.12,0,0,1-3.552-.912c5.449-4.457-7.354-23.209,10.468-41.855C123.683,22.709,128.923,20,134.333,20Zm-21.539,98.568A36.9,36.9,0,0,1,101.28,65.777a12.948,12.948,0,0,1-1.2-6.053c.025-1.883-4.484,5.724-4.484,5.724a36.9,36.9,0,0,0,11.287,53.12h0a42.023,42.023,0,0,0,21.753,4.329,42.006,42.006,0,0,1-15.844-4.329Z" transform="translate(-69.183 -15.585)" fill="#fbc56d"/>
  <path id="Trazado_692938" data-name="Trazado 692938" d="M196.857,248.445c3.16-2.011-2.5,14.769-2.5,14.769a10.639,10.639,0,0,1-13.131,8.529h0a10.629,10.629,0,0,1-2.469-.98,8.309,8.309,0,0,1-8.408,0,10.629,10.629,0,0,1-2.469.98h0a10.639,10.639,0,0,1-13.131-8.529s-5.105-17.462-2.5-14.769c7.522,7.781,11.195,1.9,11.195,1.9,6.833-7.733,12-26.069,11.112-35.616-.86-9.287,15.952,18.675,11.112,35.616C185.663,250.342,189.724,252.984,196.857,248.445Z" transform="translate(-118.067 -165.899)" fill="#ff8835"/>
  <path id="Trazado_692939" data-name="Trazado 692939" d="M167.964,255.906s-3.81,6.1-11.612-1.967c-2.7-2.793,2.6,15.32,2.6,15.32.052.305.119.6.194.9a10.591,10.591,0,0,1-4.4-6.941s-5.105-17.462-2.5-14.769c7.522,7.781,11.195,1.9,11.195,1.9,6.833-7.733,12-26.069,11.112-35.616-.343-3.7,2.125-1.483,4.909,3.6,0,.19.011.4.033.636C180.408,228.865,175.052,247.885,167.964,255.906Zm11.446-1.729a8.825,8.825,0,0,1-10.583,10.583,8.828,8.828,0,1,0,10.583-10.583Z" transform="translate(-118.066 -165.899)" fill="#ff7118"/>
  <path id="Trazado_692940" data-name="Trazado 692940" d="M115.127,451.379a11.027,11.027,0,0,1,9.375-5.211h0a10.989,10.989,0,0,1,7.237,2.709,10.989,10.989,0,0,1,7.238-2.709h0a10.989,10.989,0,0,1,7.237,2.709,10.988,10.988,0,0,1,7.238-2.709h0a10.988,10.988,0,0,1,7.237,2.709,10.988,10.988,0,0,1,7.238-2.709h0a11.022,11.022,0,0,1,9.372,5.214,56.516,56.516,0,0,1-62.17,0Z" transform="translate(-89.718 -347.697)" fill="#7a8c98"/>
  <path id="Trazado_692941" data-name="Trazado 692941" d="M192.627,452.663a56.235,56.235,0,0,1-14.772,6.92,5.528,5.528,0,0,1-.114-1.1h0a11.028,11.028,0,0,1,8.275-10.672A11.065,11.065,0,0,1,192.627,452.663Zm-20.4,5.818a11,11,0,0,1,3.79-8.319,11.034,11.034,0,0,0-4.472-2.353,11.028,11.028,0,0,0-8.275,10.672h0a5.487,5.487,0,0,0,1.195,3.422,56.56,56.56,0,0,0,8.3-1.042A5.484,5.484,0,0,1,172.224,458.481Zm-23.432,0h0a5.491,5.491,0,0,0,.435,2.145,56.517,56.517,0,0,0,9.728,1.289,5.485,5.485,0,0,1-1.205-3.434,11,11,0,0,1,3.789-8.319,11.033,11.033,0,0,0-4.472-2.353A11.029,11.029,0,0,0,148.792,458.481Zm-1.727-8.319a11.034,11.034,0,0,0-4.472-2.353,11.053,11.053,0,0,0-7.793,7.447,56.178,56.178,0,0,0,8.5,3.708c-.014-.159-.023-.32-.023-.483a10.994,10.994,0,0,1,3.789-8.319Z" transform="translate(-105.049 -348.976)" fill="#9facba"/>
</svg>
