<svg xmlns="http://www.w3.org/2000/svg" width="113" height="113" viewBox="0 0 113 113">
  <g id="Grupo_953364" data-name="Grupo 953364" transform="translate(-180 -9368)">
    <circle id="Elipse_5223" data-name="Elipse 5223" cx="56.5" cy="56.5" r="56.5" transform="translate(180 9368)" fill="#f5d4c8"/>
    <g id="trampa" transform="translate(178.688 9366.688)">
      <path id="Trazado_692942" data-name="Trazado 692942" d="M96.913,62.064a6.546,6.546,0,0,1,0,9.257L71.322,96.913a6.546,6.546,0,0,1-9.257,0L18.23,53.079a6.546,6.546,0,0,1,0-9.257L43.821,18.23a6.546,6.546,0,0,1,9.257,0Z" transform="translate(0 0)" fill="#daaa79"/>
      <path id="Trazado_692943" data-name="Trazado 692943" d="M0,0H1.033V12.739H0Z" transform="translate(60.395 60.964) rotate(-45)" fill="#6d7486"/>
      <path id="Trazado_692944" data-name="Trazado 692944" d="M307.828,295.789l5.131,5.159-12.084,12.084-11.1-11.1,6.049-6.049,6.035-6.037,2.923,2.9a2.15,2.15,0,0,0,3.042,3.04Z" transform="translate(-226.394 -226.452)" fill="#edb740"/>
      <path id="Trazado_692945" data-name="Trazado 692945" d="M109.162,84.135,90.177,65.152a2.451,2.451,0,0,0-3.469,0L65.152,86.708a2.451,2.451,0,0,0,0,3.469l18.983,18.985a2.456,2.456,0,0,0,3.47,0l21.557-21.557A2.456,2.456,0,0,0,109.162,84.135Z" transform="translate(-39.837 -39.837)" fill="#c79a83"/>
      <g id="Grupo_953363" data-name="Grupo 953363" transform="translate(70.712 71.7)">
        <path id="Trazado_692946" data-name="Trazado 692946" d="M379.242,349.433a1.488,1.488,0,1,1-2.105,0,1.488,1.488,0,0,1,2.105,0Z" transform="translate(-369.065 -347.118)" fill="#d8a43d"/>
        <path id="Trazado_692947" data-name="Trazado 692947" d="M346.925,379.539a.953.953,0,1,1-1.348,0,.953.953,0,0,1,1.348,0Z" transform="translate(-343.067 -372.172)" fill="#d8a43d"/>
        <path id="Trazado_692948" data-name="Trazado 692948" d="M333.965,338.359a.953.953,0,1,1-1.348,0A.953.953,0,0,1,333.965,338.359Z" transform="translate(-332.338 -338.08)" fill="#d8a43d"/>
      </g>
      <path id="Trazado_692949" data-name="Trazado 692949" d="M281.278,214.68l-4.581-1.649a1.546,1.546,0,1,0-1.047,2.909l4.579,1.649a1.546,1.546,0,1,0,1.048-2.909Z" transform="translate(-213.85 -162.781)" fill="#b0b5ca"/>
      <path id="Trazado_692950" data-name="Trazado 692950" d="M225.118,270.84l-4.581-1.649a1.53,1.53,0,0,0-.523-.091,1.546,1.546,0,0,0-.525,3l4.581,1.649a1.546,1.546,0,0,0,1.048-2.909Z" transform="translate(-167.357 -209.274)" fill="#b0b5ca"/>
      <path id="Trazado_692951" data-name="Trazado 692951" d="M267.238,228.72l-4.581-1.649a1.546,1.546,0,1,0-1.047,2.909l4.579,1.649a1.546,1.546,0,1,0,1.048-2.909Z" transform="translate(-202.227 -174.404)" fill="#ccd3df"/>
      <path id="Trazado_692952" data-name="Trazado 692952" d="M239.158,256.8l-4.581-1.649a1.53,1.53,0,0,0-.523-.091,1.546,1.546,0,0,0-.523,3l4.579,1.649a1.546,1.546,0,1,0,1.048-2.909Z" transform="translate(-178.981 -197.65)" fill="#ccd3df"/>
      <path id="Trazado_692953" data-name="Trazado 692953" d="M211.075,284.88l-4.581-1.649a1.53,1.53,0,0,0-.523-.091,1.547,1.547,0,0,0-.525,3l4.581,1.647a1.546,1.546,0,1,0,1.048-2.909Z" transform="translate(-155.731 -220.897)" fill="#ccd3df"/>
      <path id="Trazado_692954" data-name="Trazado 692954" d="M21.612,47.2,47.2,21.612a6.642,6.642,0,0,1,8.568-.69L53.079,18.23a6.546,6.546,0,0,0-9.257,0L18.23,43.821a6.546,6.546,0,0,0,0,9.257l2.692,2.692a6.642,6.642,0,0,1,.69-8.568Z" fill="#b28862"/>
      <path id="Trazado_692955" data-name="Trazado 692955" d="M67.789,91.885a2.519,2.519,0,0,1,.744-1.8L90.09,68.533a2.533,2.533,0,0,1,3.07-.4l-2.984-2.983a2.451,2.451,0,0,0-3.469,0L65.152,86.708a2.451,2.451,0,0,0,0,3.469l2.983,2.983A2.518,2.518,0,0,1,67.789,91.885Z" transform="translate(-39.837 -39.837)" fill="#a37b69"/>
      <path id="Trazado_692956" data-name="Trazado 692956" d="M89.772,257.854a.514.514,0,0,1-.365-.151l-7.823-7.823a.516.516,0,1,1,.73-.73l7.823,7.823a.516.516,0,0,1-.365.881Z" transform="translate(-53.911 -192.632)" fill="#f4f8fc"/>
      <path id="Trazado_692957" data-name="Trazado 692957" d="M137.923,306.005a.515.515,0,0,1-.365-.151l-1.074-1.074a.516.516,0,0,1,.73-.73l1.074,1.074a.516.516,0,0,1-.365.882Z" transform="translate(-99.361 -238.082)" fill="#f4f8fc"/>
      <path id="Trazado_692958" data-name="Trazado 692958" d="M215.274,215.792a.515.515,0,0,1-.365-.151l-6.3-6.3a.516.516,0,1,1,.73-.73l6.3,6.3a.516.516,0,0,1-.365.882Z" transform="translate(-159.074 -159.074)" fill="#6d7486"/>
      <path id="Trazado_692959" data-name="Trazado 692959" d="M253.189,242.76l-4.581-1.649a1.53,1.53,0,0,0-.523-.091,1.547,1.547,0,0,0-1.093.453,1.528,1.528,0,0,0-.368.584,1.546,1.546,0,0,0,.938,1.964l4.579,1.649a1.546,1.546,0,1,0,1.048-2.909Z" transform="translate(-190.594 -186.027)" fill="#b0b5ca"/>
    </g>
  </g>
</svg>
