<svg xmlns="http://www.w3.org/2000/svg" width="113" height="113" viewBox="0 0 113 113">
  <g id="Grupo_953517" data-name="Grupo 953517" transform="translate(-180 -9861.569)">
    <circle id="Elipse_5222" data-name="Elipse 5222" cx="56.5" cy="56.5" r="56.5" transform="translate(180 9861.569)" fill="#004c7b"/>
    <g id="Grupo_953380" data-name="Grupo 953380" transform="translate(-336.729 9746.616)">
      <g id="Grupo_953369" data-name="Grupo 953369" transform="translate(527.506 156.061)">
        <g id="Grupo_953366" data-name="Grupo 953366" transform="translate(67.453 0)">
          <g id="Grupo_953365" data-name="Grupo 953365">
            <path id="Trazado_692960" data-name="Trazado 692960" d="M740.279,238.719l11.008-9.214-1.142,4.895,14-9.213-16.4,14.928.006-4.928Z" transform="translate(-740.279 -220.042)" fill="#fff" opacity="0.79"/>
            <path id="Trazado_692961" data-name="Trazado 692961" d="M742.876,220.653l1.86-6.561.86,2.228,3.035-7.36L746.182,219.2l-1.315-1.937Z" transform="translate(-742.053 -208.959)" fill="#fff"/>
            <path id="Trazado_692962" data-name="Trazado 692962" d="M741.57,278.539l6.746,1-2.1,1.14,7.69,2.062-10.476-1.109,1.752-1.554Z" transform="translate(-741.161 -256.48)" fill="#fff"/>
          </g>
        </g>
        <g id="Grupo_953368" data-name="Grupo 953368" transform="translate(0 0)">
          <g id="Grupo_953367" data-name="Grupo 953367">
            <path id="Trazado_692963" data-name="Trazado 692963" d="M551.369,238.719,540.362,229.5,541.5,234.4l-14-9.213,16.4,14.928-.006-4.928Z" transform="translate(-527.506 -220.042)" fill="#fff" opacity="0.79"/>
            <path id="Trazado_692964" data-name="Trazado 692964" d="M587.786,220.653l-1.86-6.561-.86,2.228-3.035-7.36L584.48,219.2l1.315-1.937Z" transform="translate(-564.746 -208.959)" fill="#fff"/>
            <path id="Trazado_692965" data-name="Trazado 692965" d="M574.91,278.539l-6.746,1,2.1,1.14-7.69,2.062,10.476-1.109-1.752-1.554Z" transform="translate(-551.455 -256.48)" fill="#fff"/>
          </g>
        </g>
      </g>
      <g id="Grupo_953379" data-name="Grupo 953379" transform="translate(539.602 131.508)">
        <g id="Grupo_953378" data-name="Grupo 953378" transform="translate(0 0)">
          <g id="Grupo_953375" data-name="Grupo 953375" transform="translate(0.929)">
            <g id="Grupo_953371" data-name="Grupo 953371">
              <g id="Grupo_953370" data-name="Grupo 953370" transform="translate(18.928)">
                <path id="Trazado_692966" data-name="Trazado 692966" d="M655.372,138.284l-27.071-.076a10.715,10.715,0,0,1,2.182-1.838,12.743,12.743,0,0,1,4.624-1.872l0,0c.051-.084,1.948-3.062,6.723-2.987,4.842-.076,6.724,2.989,6.724,2.989a12.747,12.747,0,0,1,4.828,2.009A9.469,9.469,0,0,1,655.372,138.284Z" transform="translate(-628.301 -131.508)" fill="#00c8c8"/>
                <path id="Trazado_692967" data-name="Trazado 692967" d="M655.372,146.58,628.3,146.5a10.714,10.714,0,0,1,2.182-1.838,65.926,65.926,0,0,1,22.6-.063A10.937,10.937,0,0,1,655.372,146.58Z" transform="translate(-628.301 -139.803)" fill="#00a4a0"/>
              </g>
              <path id="Trazado_692968" data-name="Trazado 692968" d="M646.162,166.937c-.008.023-.012.044-.019.067q-1.517,5.318-2.686,10.719-.7,3.256-1.28,6.537-.084.476-.164.95-.116.685-.227,1.37c0,.011,0,.024-.006.036-.034.207-.066.413-.1.62-.016.1-.032.208-.048.312a170.477,170.477,0,0,0-2.028,26.215v5.059a64.555,64.555,0,0,1-29.8,0v-4.768a170.35,170.35,0,0,0-2.079-26.538c-.031-.2-.062-.394-.094-.592-.019-.114-.036-.229-.056-.344s-.034-.208-.05-.311q-.088-.535-.18-1.068-.082-.477-.167-.954-.578-3.253-1.282-6.482-1.047-4.81-2.374-9.561-.137-.488-.276-.975l-.083-.291a65.108,65.108,0,0,1,43,0Z" transform="translate(-592.202 -153.21)" fill="#00c8c8"/>
              <path id="Trazado_692969" data-name="Trazado 692969" d="M646.914,175.016q-1.516,5.318-2.685,10.719a140.378,140.378,0,0,0-37.564.041q-1.048-4.81-2.375-9.561Z" transform="translate(-592.974 -161.223)" fill="#00a4a0"/>
              <path id="Trazado_692970" data-name="Trazado 692970" d="M635.338,163.8s-24.739-3-33.372-2.6c-8.634-.4-33.372,2.6-33.372,2.6a32.881,32.881,0,0,1,3.514-6.616,18.971,18.971,0,0,1,3.791-4c10.46-3.2,26.067-3,26.067-3s16.146.21,26.606,3.413a16.6,16.6,0,0,1,3.866,4.047A21.737,21.737,0,0,1,635.338,163.8Z" transform="translate(-568.593 -144.265)" fill="#00c8c8"/>
              <path id="Trazado_692971" data-name="Trazado 692971" d="M651.251,316.968c-.126,2.394-.353,4.854-.661,7.365a67.525,67.525,0,0,1-33.28,0,59.778,59.778,0,0,1-.8-7.2,65.111,65.111,0,0,1,.8-13.675,123.611,123.611,0,0,1,33.28,0A59.284,59.284,0,0,1,651.251,316.968Z" transform="translate(-601.271 -248.179)" fill="#00c8c8"/>
              <path id="Trazado_692972" data-name="Trazado 692972" d="M651.415,348.5c-.126,2.394-.353,4.854-.661,7.365a67.526,67.526,0,0,1-33.28,0,59.768,59.768,0,0,1-.8-7.2A88.427,88.427,0,0,0,651.415,348.5Z" transform="translate(-601.435 -279.707)" fill="#00a4a0"/>
              <path id="Trazado_692973" data-name="Trazado 692973" d="M611.2,365.18a2.243,2.243,0,0,1,2.649-2.206,88.665,88.665,0,0,0,15.808,1.378,106.327,106.327,0,0,0,17.171-1.447,2.242,2.242,0,0,1,2.614,2.212h0a2.241,2.241,0,0,1-1.562,2.137c-2.535.8-8.287,2.162-18.223,2.162-9.253,0-14.54-1.273-16.918-2.057a2.241,2.241,0,0,1-1.539-2.13Z" transform="translate(-597.693 -289.526)" fill="#005c58"/>
              <path id="Trazado_692974" data-name="Trazado 692974" d="M665.343,184.868a5.53,5.53,0,0,1-10.715.062c2.4-.115,4.519-.155,6.1-.082C661.971,184.79,663.551,184.8,665.343,184.868Z" transform="translate(-627.353 -167.913)" fill="#007872"/>
              <path id="Trazado_692975" data-name="Trazado 692975" d="M640.008,157.649c-29.836-5.784-52.069-2.267-60.33-.462a18.975,18.975,0,0,1,3.791-4c10.46-3.2,26.067-3,26.067-3s16.146.21,26.606,3.413A16.6,16.6,0,0,1,640.008,157.649Z" transform="translate(-576.164 -144.265)" fill="#00e2de"/>
              <path id="Trazado_692976" data-name="Trazado 692976" d="M663.223,134.5a13.5,13.5,0,0,0-13.447,0c.051-.084,1.948-3.062,6.723-2.987C661.341,131.433,663.223,134.5,663.223,134.5Z" transform="translate(-624.04 -131.508)" fill="#00e2de"/>
            </g>
            <g id="Grupo_953372" data-name="Grupo 953372" transform="translate(16.914 57.088)">
              <path id="Trazado_692977" data-name="Trazado 692977" d="M622.324,311.858s-.593,7.307-.3,9.726a13.225,13.225,0,0,0,4.595.545l.244-10.542S624.3,311.661,622.324,311.858Z" transform="translate(-621.945 -311.587)" fill="#00fff8"/>
              <path id="Trazado_692978" data-name="Trazado 692978" d="M654.845,312s.035,9.464-.063,10.27c-2.146.013-3.522-.175-4.595-.182-.2-1.613.116-10,.116-10A36.835,36.835,0,0,1,654.845,312Z" transform="translate(-641.189 -311.842)" fill="#00fff8"/>
              <path id="Trazado_692979" data-name="Trazado 692979" d="M682.543,312.086s.314,8.385.116,10c-1.073.007-2.448.195-4.595.182-.1-.806-.064-10.27-.064-10.27A36.84,36.84,0,0,1,682.543,312.086Z" transform="translate(-660.226 -311.842)" fill="#00fff8"/>
              <path id="Trazado_692980" data-name="Trazado 692980" d="M710.109,311.858s.592,7.307.3,9.726a13.228,13.228,0,0,1-4.595.545l-.243-10.542S708.134,311.661,710.109,311.858Z" transform="translate(-679.057 -311.587)" fill="#00fff8"/>
            </g>
            <g id="Grupo_953373" data-name="Grupo 953373" transform="translate(15.371 32.535)">
              <path id="Trazado_692981" data-name="Trazado 692981" d="M651.286,235.006c-.034.207-.066.413-.1.62-.016.1-.032.208-.048.312a156.93,156.93,0,0,0-25.258-.624c-3.171.153-6.1.369-8.652.592-.031-.2-.062-.394-.094-.592-.018-.114-.036-.229-.056-.344,2.574-.227,5.545-.444,8.756-.6A157.707,157.707,0,0,1,651.286,235.006Z" transform="translate(-617.078 -234.137)" fill="#00a4a0"/>
            </g>
            <g id="Grupo_953374" data-name="Grupo 953374" transform="translate(14.973 30.265)">
              <path id="Trazado_692982" data-name="Trazado 692982" d="M650.826,227.758q-.084.476-.165.95a181.692,181.692,0,0,0-26.307-.534c-3.025.139-5.85.325-8.363.525q-.082-.477-.167-.954c2.545-.2,5.411-.392,8.481-.533A182.632,182.632,0,0,1,650.826,227.758Z" transform="translate(-615.824 -226.974)" fill="#00a4a0"/>
            </g>
          </g>
          <g id="Grupo_953377" data-name="Grupo 953377" transform="translate(25.223 34.806)">
            <path id="Trazado_692983" data-name="Trazado 692983" d="M661.385,255.968a6.42,6.42,0,1,1,1.2-3.6A6.432,6.432,0,0,1,661.385,255.968Z" transform="translate(-648.292 -244.369)" fill="#e8f1ff"/>
            <g id="Grupo_953376" data-name="Grupo 953376" transform="translate(2.373 2.354)">
              <path id="Trazado_692984" data-name="Trazado 692984" d="M658.364,258.726a.092.092,0,0,0,.071-.032,2.643,2.643,0,0,0,.562-1.241c.231-1.184-.3-2.085-.146-2.718l.679.847-.015,1.694,1.068.888-.008.863a.072.072,0,1,0,.144,0l.008-.931-1.068-.888.015-1.678-.772-.962a1.787,1.787,0,0,0,.078-.4l1.127,1.067-.014,1.6,1.337.909-.006.643a.072.072,0,1,0,.143,0l.006-.72-1.337-.909.014-1.589L659,253.985a3.4,3.4,0,0,0,1.761.573,4.861,4.861,0,0,0,3.35-.849,8.113,8.113,0,0,0-3.067-.745,5.328,5.328,0,0,0-2.26.383.787.787,0,0,0-.1-.125s.132-.011.219-.309c0-.014.007-.027.009-.04l.844-.466.024-2.714.909-.652a.072.072,0,0,0-.083-.117l-.969.695-.024,2.7-.709.392a.427.427,0,0,0-.214-.232.532.532,0,0,0,.435-.5.553.553,0,0,0-.074-.335.61.61,0,0,0-.2-.209l.259-.754.017-1.877a.072.072,0,0,0-.143,0l-.017,1.854-.245.714a.716.716,0,0,0-.236-.043h-.105a.709.709,0,0,0-.237.039l-.233-.719.016-1.854a.072.072,0,1,0-.144,0l-.017,1.877.246.759a.607.607,0,0,0-.207.2.557.557,0,0,0-.08.334.533.533,0,0,0,.426.506.428.428,0,0,0-.218.229l-.7-.4.024-2.7-.956-.711a.072.072,0,1,0-.086.115l.9.668-.024,2.714.835.481c0,.013,0,.027.008.041.082.3.213.313.213.313a.8.8,0,0,0-.1.123,5.331,5.331,0,0,0-2.253-.423,8.106,8.106,0,0,0-3.079.69,4.862,4.862,0,0,0,3.334.909,3.4,3.4,0,0,0,1.771-.542l-1.274,1.165-.014,1.589-1.353.885-.006.72a.072.072,0,0,0,.144,0l.006-.643,1.353-.885.014-1.6,1.145-1.047a1.784,1.784,0,0,0,.071.4l-.789.948-.015,1.678-1.084.869-.008.931a.072.072,0,0,0,.144,0l.008-.863,1.084-.869.015-1.694.694-.835c.143.636-.4,1.527-.194,2.715a2.642,2.642,0,0,0,.539,1.251.092.092,0,0,0,.07.033Z" transform="translate(-652.71 -248.725)" fill="#00403f"/>
            </g>
            <path id="Trazado_692985" data-name="Trazado 692985" d="M660.94,249.326a7.86,7.86,0,1,0-2.67,5.735A7.837,7.837,0,0,0,660.94,249.326Zm-14.291-.3a6.431,6.431,0,0,1,10.428-4.9l-9.2,8.817A6.4,6.4,0,0,1,646.65,249.022Zm11.667,3.876a6.426,6.426,0,0,1-9.161,1.353l9.184-8.8c.045.064.089.128.132.194a6.42,6.42,0,0,1-.155,7.253Z" transform="translate(-645.224 -241.299)" fill="#e82450"/>
          </g>
          <path id="Trazado_692986" data-name="Trazado 692986" d="M634.264,182.957s-22.073-2.935-34.3-3.018c-12.229.083-34.3,3.018-34.3,3.018a6.565,6.565,0,0,1,1.619-3.89c2.4-.438,4.87-.744,7.6-1.121C594.8,175.2,606,175.2,625.142,177.9c2.724.385,5.238.724,7.638,1.162A6.84,6.84,0,0,1,634.264,182.957Z" transform="translate(-565.661 -161.812)" fill="#005c58"/>
          <path id="Trazado_692987" data-name="Trazado 692987" d="M623.67,298.4a137.875,137.875,0,0,1,29.988,0l.089-2.288a122.579,122.579,0,0,0-30.138.06Z" transform="translate(-605.239 -243.319)" fill="#00a4a0"/>
        </g>
      </g>
    </g>
  </g>
</svg>
