<svg xmlns="http://www.w3.org/2000/svg" width="295.012" height="456.246" viewBox="0 0 295.012 456.246">
  <g id="Grupo_953393" data-name="Grupo 953393" transform="translate(-612.21 -60.237)">
    <path id="Trazado_692988" data-name="Trazado 692988" d="M661.549,211.577s33.527,155.137,185.939,27.968" transform="translate(12.817 29.535)" fill="none" stroke="#bbb3c1" stroke-miterlimit="10" stroke-width="2.899"/>
    <g id="Grupo_953382" data-name="Grupo 953382" transform="translate(612.211 60.238)">
      <g id="Grupo_953381" data-name="Grupo 953381" transform="translate(37.824 134.232)">
        <path id="Trazado_692989" data-name="Trazado 692989" d="M663.493,232.734l-14.647-60.691,7.1-1.7L670.6,231.04a3.547,3.547,0,0,1-2.627,4.273l-.2.049A3.548,3.548,0,0,1,663.493,232.734Z" transform="translate(-640.517 -165.866)" fill="#6d655f"/>
        <path id="Trazado_692990" data-name="Trazado 692990" d="M642.247,172.188l1.27,4.578a2.419,2.419,0,0,0,1.616,1.662c2.778.87,9.814,2.142,18.849-3.083a2.435,2.435,0,0,0,1.2-2.483l-.737-4.638Z" transform="translate(-642.232 -166.418)" fill="#4d4640"/>
        <path id="Trazado_692991" data-name="Trazado 692991" d="M664.445,168.6c.319,1.783-4.391,4.116-10.52,5.21s-11.356.538-11.674-1.246,4.391-4.116,10.52-5.21S664.127,166.814,664.445,168.6Z" transform="translate(-642.235 -166.79)" fill="#2f2b29"/>
      </g>
      <path id="Trazado_692992" data-name="Trazado 692992" d="M657.637,196.983,628.627,67.929,618.05,66.911l.349-3.634,13.206,1.27L661.2,196.18a1.2,1.2,0,0,1-.906,1.434l-1.223.276A1.2,1.2,0,0,1,657.637,196.983Z" transform="translate(-610.693 -59.448)" fill="#4d4640"/>
      <path id="Trazado_692993" data-name="Trazado 692993" d="M613.781,61.17l4.306-.892a1.978,1.978,0,0,1,1.594.362c1.251.94,3.4,3.314,2.893,8.348a1.985,1.985,0,0,1-1.46,1.721L616.6,71.9Z" transform="translate(-611.802 -60.238)" fill="#4d4640"/>
      <path id="Trazado_692994" data-name="Trazado 692994" d="M618.677,65.549c.779,2.964.03,5.729-1.67,6.175s-3.71-1.594-4.489-4.558-.03-5.729,1.67-6.175S617.9,62.584,618.677,65.549Z" transform="translate(-612.21 -60.058)" fill="#2f2b29"/>
    </g>
    <g id="Grupo_953383" data-name="Grupo 953383" transform="translate(652.808 178.481)">
      <path id="Trazado_692995" data-name="Trazado 692995" d="M662.445,211.25l5.142-20.927,41.876,28.965L735.935,193.1l15.156,15.32-30.762,30.43a10.773,10.773,0,0,1-10.149,2.8Z" transform="translate(-639.758 -151.302)" fill="#e6aa97"/>
      <path id="Trazado_692996" data-name="Trazado 692996" d="M668.328,213.857a16.685,16.685,0,1,1,7.847-22.253A16.685,16.685,0,0,1,668.328,213.857Z" transform="translate(-644.437 -153.433)" fill="#e6aa97"/>
      <path id="Rectángulo_341837" data-name="Rectángulo 341837" d="M12.33,0h9.043A14.806,14.806,0,0,1,36.179,14.806V66.79a2.886,2.886,0,0,1-2.886,2.886H2.886A2.886,2.886,0,0,1,0,66.79V12.33A12.33,12.33,0,0,1,12.33,0Z" transform="translate(127.648 0) rotate(44.799)" fill="#2f2f67"/>
    </g>
    <path id="Trazado_692997" data-name="Trazado 692997" d="M755.468,161.549h-5.656c-6.47-.14-12.174,4-15.108,7.85-5.368,7.047-7.988,19.038,1.2,42.487Z" transform="translate(30.555 20.196)" fill="#e5ad39"/>
    <path id="Trazado_692998" data-name="Trazado 692998" d="M899.2,434.5c0,3.884-57.334,7.032-128.06,7.032s-128.06-3.148-128.06-7.032,57.334-7.031,128.06-7.031S899.2,430.619,899.2,434.5Z" transform="translate(8.02 74.949)" fill="#c4c4c4" opacity="0.25" style="mix-blend-mode: multiply;isolation: isolate"/>
    <g id="Grupo_953385" data-name="Grupo 953385" transform="translate(823.475 151.969)">
      <g id="Grupo_953384" data-name="Grupo 953384">
        <rect id="Rectángulo_341838" data-name="Rectángulo 341838" width="78.007" height="152.644" rx="23.586" transform="translate(0 10.538)" fill="#e08263"/>
        <path id="Trazado_692999" data-name="Trazado 692999" d="M828.565,138.134h-27.4a5.661,5.661,0,0,0-5.644,5.645h0a5.66,5.66,0,0,0,5.644,5.644h27.4a5.66,5.66,0,0,0,5.644-5.644h0A5.661,5.661,0,0,0,828.565,138.134Z" transform="translate(-775.858 -138.134)" fill="#e5ad39"/>
      </g>
      <rect id="Rectángulo_341839" data-name="Rectángulo 341839" width="78.007" height="53.759" transform="translate(0 57.206)" fill="#fff"/>
    </g>
    <g id="Grupo_953386" data-name="Grupo 953386" transform="translate(742.309 480.692)">
      <path id="Trazado_693000" data-name="Trazado 693000" d="M747.2,410.338l17.453-.115,1.67,25.005-50.839.327h0a8.854,8.854,0,0,1,6.827-7.96l24.576-6.007Z" transform="translate(-715.482 -410.223)" fill="#211e21"/>
      <rect id="Rectángulo_341840" data-name="Rectángulo 341840" width="50.84" height="3.863" transform="translate(0.001 25.332) rotate(-0.368)" fill="#fff"/>
      <path id="Trazado_693001" data-name="Trazado 693001" d="M751.9,419.3a3.807,3.807,0,1,1-3.832-3.781A3.807,3.807,0,0,1,751.9,419.3Z" transform="translate(-707.999 -408.846)" fill="#fff"/>
    </g>
    <g id="Grupo_953387" data-name="Grupo 953387" transform="translate(807.154 480.383)">
      <path id="Trazado_693002" data-name="Trazado 693002" d="M797.49,410.093l17.453-.115,2.814,25.005-50.8.326h0a8.852,8.852,0,0,1,6.826-7.959l24.575-6.008Z" transform="translate(-766.956 -409.978)" fill="#211e21"/>
      <rect id="Rectángulo_341841" data-name="Rectángulo 341841" width="50.803" height="3.863" transform="translate(0 25.331) rotate(-0.368)" fill="#fff"/>
      <path id="Trazado_693003" data-name="Trazado 693003" d="M803.376,419.058a3.806,3.806,0,1,1-3.832-3.782A3.806,3.806,0,0,1,803.376,419.058Z" transform="translate(-759.473 -408.602)" fill="#fff"/>
    </g>
    <g id="Grupo_953388" data-name="Grupo 953388" transform="translate(761.013 279.999)">
      <rect id="Rectángulo_341842" data-name="Rectángulo 341842" width="66.076" height="29.483" transform="translate(12.607)" fill="#363039"/>
      <path id="Trazado_693004" data-name="Trazado 693004" d="M798.863,274.317l3.064,75.322,16.9,96.173h-28.21l-16.652-91.959L769.4,274.317Z" transform="translate(-720.18 -244.835)" fill="#363039"/>
      <path id="Trazado_693005" data-name="Trazado 693005" d="M772.4,274.317,757.112,349.64l8.944,96.173h-28.21l-7.518-91.959,12.607-79.536Z" transform="translate(-730.329 -244.835)" fill="#363039"/>
    </g>
    <rect id="Rectángulo_341843" data-name="Rectángulo 341843" width="39.999" height="49.595" transform="translate(792.172 132.942)" fill="#cc806f"/>
    <path id="Trazado_693006" data-name="Trazado 693006" d="M749.6,86.756v34.722s-14.783,19.252-2.407,34.722,32.66,9.97,41.254,4.812,13.064-26.814,8.25-37.128l-.76-39.007Z" transform="translate(33.781 6.4)" fill="#e6aa97"/>
    <path id="Trazado_693007" data-name="Trazado 693007" d="M765.023,103.977h-5.931a3.251,3.251,0,0,1-3.251-3.251h0a3.252,3.252,0,0,1,3.251-3.253h5.931a3.252,3.252,0,0,1,3.251,3.253h0A3.252,3.252,0,0,1,765.023,103.977Z" transform="translate(37.311 9.673)" fill="#363039"/>
    <path id="Trazado_693008" data-name="Trazado 693008" d="M751.8,103.977h-2.966a3.251,3.251,0,0,1-3.251-3.251h0a3.252,3.252,0,0,1,3.251-3.253H751.8a3.252,3.252,0,0,1,3.251,3.253h0A3.251,3.251,0,0,1,751.8,103.977Z" transform="translate(34.646 9.673)" fill="#363039"/>
    <path id="Trazado_693009" data-name="Trazado 693009" d="M762.9,106.863a2.053,2.053,0,1,1-2.052-2.052A2.053,2.053,0,0,1,762.9,106.863Z" transform="translate(38.078 11.579)" fill="#363039"/>
    <path id="Trazado_693010" data-name="Trazado 693010" d="M753.445,106.863a2.053,2.053,0,1,1-2.052-2.052A2.053,2.053,0,0,1,753.445,106.863Z" transform="translate(35.622 11.579)" fill="#363039"/>
    <path id="Trazado_693011" data-name="Trazado 693011" d="M738.2,76.843h0a12.763,12.763,0,0,0,12.763,12.763h23.661v25.607a6.128,6.128,0,0,0,6.127,6.128H801.01V96.119a19.276,19.276,0,0,0-19.276-19.276Z" transform="translate(32.728 4.314)" fill="#363039"/>
    <path id="Trazado_693012" data-name="Trazado 693012" d="M778.45,86.779a2.019,2.019,0,0,1-1.479-3.4c3.177-3.422-.147-8.317-.183-8.366a2.021,2.021,0,0,1,3.323-2.3c1.814,2.62,4.111,8.8-.181,13.417A2.014,2.014,0,0,1,778.45,86.779Z" transform="translate(42.659 3.016)" fill="#363039"/>
    <path id="Trazado_693013" data-name="Trazado 693013" d="M778.449,86.586a2.02,2.02,0,0,1-1.382-3.493c3.839-3.6,10.354-4.727,10.63-4.773a2.02,2.02,0,0,1,.671,3.985c-.055.01-5.6.98-8.536,3.736A2.019,2.019,0,0,1,778.449,86.586Z" transform="translate(42.659 4.69)" fill="#363039"/>
    <path id="Rectángulo_341844" data-name="Rectángulo 341844" d="M22.858,0H72.321A20.085,20.085,0,0,1,92.406,20.085V67.815a24.59,24.59,0,0,1-24.59,24.59H22.858A22.858,22.858,0,0,1,0,69.548V22.858A22.858,22.858,0,0,1,22.858,0Z" transform="translate(765.122 179.49)" fill="#3f3f80"/>
    <rect id="Rectángulo_341845" data-name="Rectángulo 341845" width="66.921" height="43.976" transform="translate(773.619 245.361)" fill="#3f3f80"/>
    <rect id="Rectángulo_341846" data-name="Rectángulo 341846" width="75.734" height="12.693" rx="4.082" transform="translate(770.52 286.069)" fill="#211e21"/>
    <circle id="Elipse_7765" data-name="Elipse 7765" cx="9.636" cy="9.636" r="9.636" transform="translate(822.811 117.557)" fill="#e6aa97"/>
    <path id="Trazado_693014" data-name="Trazado 693014" d="M788.458,109.709s-6.324,1.941-3.049,9.268" transform="translate(44.748 12.851)" fill="none" stroke="#cc806f" stroke-linecap="round" stroke-linejoin="round" stroke-width="1.406"/>
    <g id="Grupo_953389" data-name="Grupo 953389" transform="translate(807.171 175.637)">
      <path id="Trazado_693015" data-name="Trazado 693015" d="M792.7,310.446l-16.658-13.672L821.4,241.522,809.2,206.34l20.362-7.059,14.169,40.885a10.769,10.769,0,0,1-1.852,10.364Z" transform="translate(-764.611 -147.756)" fill="#e6aa97"/>
      <circle id="Elipse_7766" data-name="Elipse 7766" cx="16.685" cy="16.685" r="16.685" transform="translate(0 136.459)" fill="#e6aa97"/>
      <path id="Rectángulo_341847" data-name="Rectángulo 341847" d="M12.33,0h9.043A14.805,14.805,0,0,1,36.179,14.805V66.79a2.886,2.886,0,0,1-2.886,2.886H2.886A2.886,2.886,0,0,1,0,66.79V12.33A12.33,12.33,0,0,1,12.33,0Z" transform="translate(20.472 12.153) rotate(-19.627)" fill="#2f2f67"/>
    </g>
    <path id="Trazado_693016" data-name="Trazado 693016" d="M764.46,264.562h-6.992a9.169,9.169,0,0,1-9.142-9.142h0a9.17,9.17,0,0,1,9.142-9.142h6.992a9.17,9.17,0,0,1,9.142,9.142h0A9.169,9.169,0,0,1,764.46,264.562Z" transform="translate(35.359 37.874)" fill="#e7e4ee"/>
    <path id="Trazado_693017" data-name="Trazado 693017" d="M783.783,106.44s-2.213,17.123-17.067,19.252" transform="translate(40.136 12.002)" fill="none" stroke="#363039" stroke-miterlimit="10" stroke-width="3.014"/>
    <path id="Trazado_693018" data-name="Trazado 693018" d="M747.552,126.225a13.616,13.616,0,0,1-2.3-4.014,6.6,6.6,0,0,1,2.647-7.605l1.013-.677-.4,1.4a10.018,10.018,0,0,0,2.012,8.52Z" transform="translate(34.468 13.948)" fill="#363039"/>
    <g id="Grupo_953392" data-name="Grupo 953392" transform="translate(764.965 120.495)">
      <g id="Grupo_953391" data-name="Grupo 953391">
        <g id="Grupo_953390" data-name="Grupo 953390">
          <path id="Trazado_693019" data-name="Trazado 693019" d="M743.587,128.661,754.018,110.1a3.787,3.787,0,0,1,3.354-2.027h0a3.773,3.773,0,0,1,3.54,2.446c1.484,3.952,3.806,11.349,8.333,12.56,22.314,5.966,20.512,9.443,20.512,9.443l-17.259,28.4s-14.97,3.881-25.658-6.323Z" transform="translate(-730.838 -108.07)" fill="#9f98a5"/>
          <path id="Trazado_693020" data-name="Trazado 693020" d="M787.348,129.4l-.113-2.766-5.84-1.83-.006.018a14.183,14.183,0,0,0-3.7-1.022c-8.58-1.117-16.541,5.693-17.78,15.21-1.025,7.879,2.882,15.13,9.122,18.032l0,.01.271.106c.4.176.811.339,1.231.479l7.765,2.394-.976-1.846c6.876-1.114,12.624-7.163,13.662-15.129A18.174,18.174,0,0,0,787.348,129.4Z" transform="translate(-726.64 -104.014)" fill="#58535b"/>
          <ellipse id="Elipse_7767" data-name="Elipse 7767" cx="17.38" cy="15.666" rx="17.38" ry="15.666" transform="translate(37.695 54.385) rotate(-82.581)" fill="#6d6871"/>
          <path id="Trazado_693021" data-name="Trazado 693021" d="M788.244,142.372c-.709,5.447-5.264,9.344-10.175,8.705s-8.314-5.573-7.605-11.02,5.265-9.345,10.174-8.705S788.954,136.924,788.244,142.372Z" transform="translate(-723.88 -102.04)" fill="#58535b"/>
          <path id="Trazado_693022" data-name="Trazado 693022" d="M735.9,124.763l10.4-.348s6.488,7.46,4.789,27.428a4.716,4.716,0,0,1-4.049,4.3l-7.218.409Z" transform="translate(-732.834 -103.824)" fill="#58535b"/>
          <path id="Trazado_693023" data-name="Trazado 693023" d="M736.837,124.8c1.522,2.164,7.366,12.012,3.85,31.439-.048.26-.262.146-.519.092-6.259-1.328-9.359-22.982-3.828-31.436C736.468,124.7,736.7,124.612,736.837,124.8Z" transform="translate(-733.467 -103.751)" fill="#6d6871"/>
        </g>
        <path id="Trazado_693024" data-name="Trazado 693024" d="M758.18,112.193l-.207,11.653a3.448,3.448,0,0,0,3.609,3.566l18.177-.745-11.046-4.3a14.321,14.321,0,0,1-7.339-6.025Z" transform="translate(-727.101 -106.999)" fill="#908896"/>
      </g>
      <path id="Trazado_693025" data-name="Trazado 693025" d="M738.247,138.959c.455,5.276-.106,9.633-1.251,9.732s-2.441-4.1-2.9-9.374.107-9.632,1.252-9.732S737.794,133.683,738.247,138.959Z" transform="translate(-733.343 -102.481)" fill="#58535b"/>
    </g>
    <path id="Trazado_693026" data-name="Trazado 693026" d="M733.256,413.793H768.8l-2.044-16.215H732.141Z" transform="translate(31.154 67.184)" fill="#554d5b"/>
    <path id="Trazado_693027" data-name="Trazado 693027" d="M783.325,413.793h34.844l-2.109-16.215H780.347Z" transform="translate(43.677 67.184)" fill="#554d5b"/>
    <path id="Trazado_693028" data-name="Trazado 693028" d="M799.118,161.529v-6.35H770.483l-7.149,60.2-1.219-60.2H749.53l.184,7.249,1.234,66.416h29.574l5.509-54.886Z" transform="translate(35.671 18.595)" fill="#3f3f80"/>
    <path id="Trazado_693029" data-name="Trazado 693029" d="M767.108,160.219l-6.395,42.891-1.091-42.891Z" transform="translate(38.293 20.036)" fill="#e7e4ee"/>
    <rect id="Rectángulo_341848" data-name="Rectángulo 341848" width="17.937" height="4.557" transform="translate(769.964 210.012)" fill="#e7e4ee"/>
    <path id="Trazado_693030" data-name="Trazado 693030" d="M803.805,162.854s-22.642,10.923-5.47,50.319c0,0-17.861-13.9-12.758-37.24a8.3,8.3,0,0,1,.275-.966c.694-1.988,3.483-9.155,8.638-12.593a5.649,5.649,0,0,1,4.989-.619Z" transform="translate(44.797 20.155)" fill="#e5ad39"/>
  </g>
</svg>
