<svg id="abeja" xmlns="http://www.w3.org/2000/svg" width="113" height="113" viewBox="0 0 113 113">
  <circle id="XMLID_78_" cx="56.439" cy="56.439" r="56.439" fill="#97e9ff"/>
  <path id="Trazado_692868" data-name="Trazado 692868" d="M176.478,79.68a56.766,56.766,0,0,0-1.115-11.214L136.642,29.745c-9.4.205-10.851,17.391-10.851,17.391L110.574,31.919l-7.234,2.552,6.954,7.012,4.064,14.445-32.9,23.012L94.694,92.18,82.682,108.959l26.081,26.106A56.541,56.541,0,0,0,176.478,79.68Z" transform="translate(-63.478 -23.18)" fill="#6cf"/>
  <g id="Grupo_953284" data-name="Grupo 953284" transform="translate(13.538 5.59)">
    <g id="Grupo_953275" data-name="Grupo 953275" transform="translate(0 48.809)">
      <path id="Trazado_692869" data-name="Trazado 692869" d="M96.452,248.05s-29.538-7.883-34.523,11.684c-4.779,18.756,20.564,36.019,38.387,12.339Z" transform="translate(-61.34 -246.481)" fill="#f2f2f2"/>
      <path id="Trazado_692870" data-name="Trazado 692870" d="M277.927,248.05s29.538-7.883,34.523,11.684c4.779,18.756-20.564,36.019-38.387,12.339Z" transform="translate(-227.114 -246.481)" fill="#ddd"/>
    </g>
    <g id="Grupo_953276" data-name="Grupo 953276" transform="translate(0.36 23.045)">
      <path id="Trazado_692871" data-name="Trazado 692871" d="M97.233,143.566s-9.718-19.231-25.213-12.324S58.625,173.87,96.6,155.56Z" transform="translate(-62.972 -129.745)" fill="#fff"/>
      <path id="Trazado_692872" data-name="Trazado 692872" d="M293.793,143.566s9.718-19.231,25.213-12.324S332.4,173.87,294.424,155.56Z" transform="translate(-242.85 -129.745)" fill="#f2f2f2"/>
    </g>
    <g id="Grupo_953280" data-name="Grupo 953280" transform="translate(25.327)">
      <g id="Grupo_953278" data-name="Grupo 953278">
        <g id="Grupo_953277" data-name="Grupo 953277">
          <path id="Trazado_692873" data-name="Trazado 692873" d="M183.818,47.733l-3.082-12.245a6.431,6.431,0,0,0-3.034-4,3.31,3.31,0,0,1,3.34-5.715,13.066,13.066,0,0,1,6.115,8.1l3.082,12.245Z" transform="translate(-176.095 -25.329)" fill="#4c3c38"/>
        </g>
      </g>
      <g id="Grupo_953279" data-name="Grupo 953279" transform="translate(21.126)">
        <path id="Trazado_692874" data-name="Trazado 692874" d="M278.239,47.733l3.082-12.245a6.431,6.431,0,0,1,3.034-4,3.272,3.272,0,0,0,1.553-3.43,3.3,3.3,0,0,0-4.893-2.285,13.066,13.066,0,0,0-6.115,8.1l-3.082,12.245Z" transform="translate(-271.818 -25.329)" fill="#2d2726"/>
      </g>
    </g>
    <g id="Grupo_953283" data-name="Grupo 953283" transform="translate(21.808 17.56)">
      <g id="Grupo_953281" data-name="Grupo 953281" transform="translate(9.774 67.424)">
        <path id="Trazado_692875" data-name="Trazado 692875" d="M204.439,410.388l11.379,18.157h0l5.689-12.446-5.689-5.71Z" transform="translate(-204.439 -410.388)" fill="#755850"/>
        <path id="Trazado_692876" data-name="Trazado 692876" d="M256,410.388v18.156l11.379-18.156Z" transform="translate(-244.618 -410.388)" fill="#4c3c38"/>
      </g>
      <path id="Trazado_692877" data-name="Trazado 692877" d="M195.54,213.538l-4,6.831L181.305,237.86c-16.982,0-21.43-13.448-21.14-23.6l6.28-3.748-3.512-9.762a77.678,77.678,0,0,1,7.831-15.847H181.3l9.888,19.894Z" transform="translate(-160.152 -167.241)" fill="#ffce33"/>
      <path id="Trazado_692878" data-name="Trazado 692878" d="M256,237.86V184.9h10.542a77.679,77.679,0,0,1,7.831,15.847L272.5,209.22l4.633,5.036C277.427,224.412,273.489,237.86,256,237.86Z" transform="translate(-234.844 -167.241)" fill="#ffac33"/>
      <g id="Grupo_953282" data-name="Grupo 953282" transform="translate(0.013)">
        <path id="Trazado_692879" data-name="Trazado 692879" d="M184.729,118.014c0,7.247,7.042,13.123,15.729,13.123L213.1,118.014l-12.643-13.123C191.771,104.891,184.729,110.766,184.729,118.014Z" transform="translate(-179.318 -104.891)" fill="#755850"/>
        <path id="Trazado_692880" data-name="Trazado 692880" d="M271.726,118.014c0-7.247-7.042-13.123-15.729-13.123v26.245C264.684,131.136,271.726,125.261,271.726,118.014Z" transform="translate(-234.857 -104.891)" fill="#4c3c38"/>
        <path id="Trazado_692881" data-name="Trazado 692881" d="M274.369,256.7a30.518,30.518,0,0,1-8.485,4.047A34.1,34.1,0,0,1,256,262.192v15.684a34.069,34.069,0,0,0,10.238-1.552,29.628,29.628,0,0,0,10.9-6.112A45.215,45.215,0,0,0,274.369,256.7Z" transform="translate(-234.856 -223.197)" fill="#4c3c38"/>
        <path id="Trazado_692882" data-name="Trazado 692882" d="M162.977,256.7a45.221,45.221,0,0,0-2.767,13.511,31.659,31.659,0,0,0,21.14,7.664V262.192A32.425,32.425,0,0,1,162.977,256.7Z" transform="translate(-160.21 -223.197)" fill="#755850"/>
      </g>
    </g>
  </g>
</svg>
