<svg xmlns="http://www.w3.org/2000/svg" xmlns:xlink="http://www.w3.org/1999/xlink" width="222.97" height="223.108" viewBox="0 0 222.97 223.108">
  <defs>
    <clipPath id="clip-path">
      <path id="Trazado_223267" data-name="Trazado 223267" d="M942.334,514.59q3.036-4.083,5.747-8.509A111.668,111.668,0,0,0,853.2,336.211l-55.131,90.228Z" transform="translate(-798.066 -336.211)" fill="none"/>
    </clipPath>
  </defs>
  <g id="Soil_fertility" data-name="Soil fertility" transform="translate(-335.565 -335)">
    <ellipse id="Elipse_7729" data-name="Elipse 7729" cx="111.374" cy="111.464" rx="111.374" ry="111.464" transform="translate(335.565 335)" fill="#f2e6dc"/>
    <g id="Grupo_175524" data-name="Grupo 175524" transform="translate(391.951 335.148)">
      <circle id="Elipse_7730" data-name="Elipse 7730" cx="15.968" cy="15.968" r="15.968" transform="translate(100.966 56.684) rotate(-45)" fill="#efbc73"/>
      <g id="Grupo_175523" data-name="Grupo 175523" transform="translate(0 0)">
        <g id="Grupo_175522" data-name="Grupo 175522" clip-path="url(#clip-path)">
          <path id="Trazado_223266" data-name="Trazado 223266" d="M1254.127,488.827a.122.122,0,0,1-.11-.175l38.525-79.694L1271.3,443.731a.122.122,0,0,1-.208-.127l21.6-35.353-31,38.053a.122.122,0,1,1-.189-.154l30.862-37.884-51.871,49.957a.122.122,0,0,1-.169-.176l52.2-50.272-3.422,2.4a.122.122,0,0,1-.054.021l-66.567,46.4a.122.122,0,0,1-.14-.2l70.67-49.26-7.67,2.418a.119.119,0,0,1-.059,0l-37.43,11.732a.122.122,0,0,1-.153-.08.117.117,0,0,1-.006-.036.122.122,0,0,1,.085-.117l44.8-14.042-58.387,5.645a.122.122,0,0,1-.133-.11s0-.008,0-.012a.122.122,0,0,1,.11-.121l57.349-5.544a.122.122,0,0,1-.042-.144l-66.1-5.1a.122.122,0,0,1-.113-.122s0-.006,0-.009a.122.122,0,0,1,.131-.112l66.861,5.156-69.176-16.9a.122.122,0,0,1-.093-.118.125.125,0,0,1,0-.029.122.122,0,0,1,.147-.09l64.565,15.775-2.549-.729a.122.122,0,0,1-.088-.117.118.118,0,0,1,0-.033.122.122,0,0,1,.151-.084l1.236.354a.122.122,0,0,1,.152-.08l2.127.645-7.638-2.709a.122.122,0,1,1,.081-.23l11.732,4.161-71-48.993a.122.122,0,1,1,.139-.2l36.911,25.469a.121.121,0,0,1,.092.019l33.292,23.015-27.873-25.532a.122.122,0,0,1,.165-.18l27.614,25.294-46.037-53.024a.122.122,0,0,1,.184-.16l45.9,52.863-1.949-2.782a.122.122,0,1,1,.2-.14l1.568,2.239-27.385-46.719a.122.122,0,0,1,.21-.123l28.361,48.384-2.333-7.4a.126.126,0,0,1-.006-.037.122.122,0,0,1,.085-.116.149.149,0,0,1,.039-.006l-10.213-34.552a.122.122,0,0,1,.234-.069l12.39,41.919-3.352-34.677a.094.094,0,0,1,0-.012.122.122,0,0,1,.243-.012l3.262,33.739a.122.122,0,0,1,.1-.051c.016,0,.031,0,.045.009l2.22-28.79a.121.121,0,0,1,.131-.112.122.122,0,0,1,.113.122s0,.006,0,.009l-2.29,29.691,6.729-25.642a.122.122,0,0,1,.24.031.132.132,0,0,1,0,.031l-4.792,18.258a.122.122,0,0,1,.164.146l-.354,1.236a.122.122,0,0,1,.085.116.12.12,0,0,1-.005.036l-.645,2.127,2.709-7.639a.122.122,0,0,1,.237.041.121.121,0,0,1-.007.04l-3.662,10.325,9.93-20.995a.122.122,0,0,1,.22.1L1294.48,405.48l13.036-18.857a.122.122,0,0,1,.222.069.121.121,0,0,1-.022.069l-12.871,18.619,14.894-16.26a.122.122,0,1,1,.18.165l-15.166,16.556,17.659-13.5a.122.122,0,0,1,.171.023.122.122,0,0,1-.023.171l-14.171,10.837a.122.122,0,0,1,.116.213l-3.332,2.334,20.645-10.378a.122.122,0,0,1,.164.054.122.122,0,0,1-.054.164L1295.142,406.2l6.984-2.2a.122.122,0,0,1,.153.08.125.125,0,0,1,.005.037.122.122,0,0,1-.085.116l-5.583,1.76,22.049-5.017a.122.122,0,0,1,.146.092.117.117,0,0,1,0,.027.122.122,0,0,1-.095.118l-23.854,5.427,27.394-.264h0a.122.122,0,0,1,.122.121v0a.122.122,0,0,1-.121.122l-26.305.254a.122.122,0,0,1-.079.029h0l-.753,0,32.246,5.8a.122.122,0,0,1,.1.12.117.117,0,0,1,0,.022.122.122,0,0,1-.142.1l-31.235-5.621,6.223,1.781a.122.122,0,0,1-.067.234l-1.236-.354a.122.122,0,0,1-.152.08l-2.125-.645,7.637,2.709a.122.122,0,1,1-.081.23l-4.38-1.554,31.7,12.254a.122.122,0,0,1,.078.114.124.124,0,0,1-.008.044.122.122,0,0,1-.158.07l-38.877-15.026,22.589,15.587a.122.122,0,0,1,.047.062l17.184,11.879a.122.122,0,0,1-.139.2l-39.2-27.1L1323,433.422a.122.122,0,0,1-.165.18l-28.028-25.674,35.133,43.954a.122.122,0,0,1-.019.171.122.122,0,0,1-.171-.019l-33.706-42.168,1.082,1.544a.122.122,0,0,1-.2.14l-2.391-3.413,14.312,29.125a.122.122,0,1,1-.219.107l-14.3-29.1,2.174,6.9a.12.12,0,0,1,.006.037.122.122,0,0,1-.238.036l-1.882-5.972,9.279,43.363a.114.114,0,0,1,0,.025.122.122,0,0,1-.241.026l-9.373-43.8,5.552,57.434s0,.008,0,.012a.122.122,0,0,1-.243.012l-5.544-57.348a.125.125,0,0,1-.1.051.121.121,0,0,1-.044-.009l-5.1,66.1a.122.122,0,0,1-.243-.009s0-.006,0-.009l5.179-67.151-2.115,7.392a.122.122,0,0,1-.073.08l-17.03,58.338a.122.122,0,0,1-.239-.034.113.113,0,0,1,.005-.034l17.419-59.672a.122.122,0,0,1-.049-.1.124.124,0,0,1,.005-.036l.645-2.126-2.709,7.638a.122.122,0,0,1-.237-.041.12.12,0,0,1,.007-.04l3.725-10.5-38.636,79.924A.122.122,0,0,1,1254.127,488.827Z" transform="translate(-1170.184 -350.093)" fill="#efbc73"/>
        </g>
      </g>
    </g>
    <g id="Grupo_175525" data-name="Grupo 175525" transform="translate(335.625 426.556)">
      <path id="Trazado_223268" data-name="Trazado 223268" d="M351.883,1170.518H336.061v-72.23l7.911-12.317,7.911,12.317Z" transform="translate(-336.061 -1085.971)" fill="#f7f1eb"/>
      <path id="Trazado_223269" data-name="Trazado 223269" d="M538.6,1170.518H522.777v-72.23l7.911-12.317,7.911,12.317Z" transform="translate(-500.013 -1085.971)" fill="#f7f1eb"/>
      <path id="Trazado_223270" data-name="Trazado 223270" d="M725.314,1170.518H709.493v-72.23l7.911-12.317,7.911,12.317Z" transform="translate(-663.965 -1085.971)" fill="#f7f1eb"/>
      <path id="Trazado_223271" data-name="Trazado 223271" d="M912.03,1170.518H896.209v-72.23l7.911-12.317,7.911,12.317Z" transform="translate(-827.917 -1085.971)" fill="#f7f1eb"/>
      <path id="Trazado_223272" data-name="Trazado 223272" d="M1098.746,1170.518h-15.821v-72.23l7.911-12.317,7.911,12.317Z" transform="translate(-991.869 -1085.971)" fill="#f7f1eb"/>
      <rect id="Rectángulo_341766" data-name="Rectángulo 341766" width="215.065" height="6.621" transform="translate(7.037 25.559)" fill="#f7f1eb"/>
      <rect id="Rectángulo_341767" data-name="Rectángulo 341767" width="218.834" height="6.621" transform="translate(3.268 65.59)" fill="#f7f1eb"/>
      <path id="Trazado_223273" data-name="Trazado 223273" d="M1303.622,1177.313H1287.8v-72.23l7.911-12.317,7.911,12.317Z" transform="translate(-1171.768 -1091.938)" fill="#f7f1eb"/>
      <path id="Trazado_223274" data-name="Trazado 223274" d="M1490.338,1177.313h-15.821v-72.23l7.911-12.317,7.911,12.317Z" transform="translate(-1335.72 -1091.938)" fill="#f7f1eb"/>
      <path id="Trazado_223275" data-name="Trazado 223275" d="M1677.053,1177.313h-15.821v-72.23l7.911-12.317,7.911,12.317Z" transform="translate(-1499.672 -1091.938)" fill="#f7f1eb"/>
      <path id="Trazado_223276" data-name="Trazado 223276" d="M1863.769,1177.313h-15.821v-72.23l7.911-12.317,7.911,12.317Z" transform="translate(-1663.624 -1091.938)" fill="#f7f1eb"/>
      <path id="Trazado_223277" data-name="Trazado 223277" d="M2050.485,1177.313h-15.821v-72.23l7.911-12.317,7.911,12.317Z" transform="translate(-1827.576 -1091.938)" fill="#f7f1eb"/>
    </g>
    <g id="Grupo_175531" data-name="Grupo 175531" transform="translate(353.416 478.763)">
      <path id="Trazado_223278" data-name="Trazado 223278" d="M566.227,1647.02c-31.844,0-61.119,5.081-84.241,13.583,20.164,29,53.551,49.568,91.55,49.568,35.889,0,69.608-17.985,90.032-44.3C639.066,1654.552,603.611,1647.02,566.227,1647.02Z" transform="translate(-481.986 -1630.826)" fill="#40484c"/>
      <g id="Grupo_175530" data-name="Grupo 175530" transform="translate(23.556 0)">
        <g id="Grupo_175529" data-name="Grupo 175529" transform="translate(7.159)">
          <g id="Grupo_175526" data-name="Grupo 175526" transform="translate(38.911)">
            <path id="Trazado_223279" data-name="Trazado 223279" d="M1162.448,1555.594s6.919.1,11.584-4.088,5.308-11.078,5.308-11.078-6.919-.1-11.584,4.089S1162.448,1555.594,1162.448,1555.594Z" transform="translate(-1149.115 -1537.228)" fill="#9e9569"/>
            <path id="Trazado_223280" data-name="Trazado 223280" d="M1066.42,1532.622s.848-6.868-2.811-11.958-10.439-6.475-10.439-6.475-.848,6.868,2.811,11.958S1066.42,1532.622,1066.42,1532.622Z" transform="translate(-1053.085 -1514.189)" fill="#8b865c"/>
            <path id="Trazado_223281" data-name="Trazado 223281" d="M1155.367,1684.148a.122.122,0,0,1-.1-.189c2.769-4.154,2.153-6.693,1.307-8.442-.309-.637-.681-1.256-1.042-1.855a11.07,11.07,0,0,1-1.975-5.168,11.262,11.262,0,0,1,1.027-4.894.122.122,0,0,1,.223.1,11.015,11.015,0,0,0-1.007,4.781,10.872,10.872,0,0,0,1.941,5.058c.363.6.739,1.227,1.052,1.875.875,1.807,1.515,4.427-1.323,8.683A.121.121,0,0,1,1155.367,1684.148Z" transform="translate(-1141.294 -1645.32)" fill="#f2e6dc"/>
          </g>
          <g id="Grupo_175527" data-name="Grupo 175527" transform="translate(77.822)">
            <path id="Trazado_223282" data-name="Trazado 223282" d="M1481.609,1555.594s6.919.1,11.584-4.088,5.308-11.078,5.308-11.078-6.919-.1-11.584,4.089S1481.609,1555.594,1481.609,1555.594Z" transform="translate(-1468.276 -1537.228)" fill="#9e9569"/>
            <path id="Trazado_223283" data-name="Trazado 223283" d="M1385.581,1532.622s.848-6.868-2.811-11.958-10.439-6.475-10.439-6.475-.848,6.868,2.811,11.958S1385.581,1532.622,1385.581,1532.622Z" transform="translate(-1372.247 -1514.189)" fill="#8b865c"/>
            <path id="Trazado_223284" data-name="Trazado 223284" d="M1474.528,1684.148a.122.122,0,0,1-.1-.189c2.769-4.154,2.153-6.694,1.306-8.442-.309-.637-.681-1.256-1.042-1.855a11.068,11.068,0,0,1-1.975-5.169,11.256,11.256,0,0,1,1.027-4.894.122.122,0,0,1,.223.1,11.009,11.009,0,0,0-1.007,4.781,10.874,10.874,0,0,0,1.941,5.058c.363.6.739,1.227,1.052,1.875.875,1.807,1.515,4.427-1.323,8.683A.121.121,0,0,1,1474.528,1684.148Z" transform="translate(-1460.455 -1645.32)" fill="#f2e6dc"/>
          </g>
          <g id="Grupo_175528" data-name="Grupo 175528">
            <path id="Trazado_223285" data-name="Trazado 223285" d="M843.286,1555.594s6.919.1,11.584-4.088,5.308-11.078,5.308-11.078-6.919-.1-11.584,4.089S843.286,1555.594,843.286,1555.594Z" transform="translate(-829.953 -1537.228)" fill="#9e9569"/>
            <path id="Trazado_223286" data-name="Trazado 223286" d="M747.258,1532.622s.848-6.868-2.811-11.958-10.439-6.475-10.439-6.475-.848,6.868,2.811,11.958S747.258,1532.622,747.258,1532.622Z" transform="translate(-733.924 -1514.189)" fill="#8b865c"/>
            <path id="Trazado_223287" data-name="Trazado 223287" d="M836.205,1684.148a.122.122,0,0,1-.1-.189c2.769-4.154,2.153-6.694,1.306-8.442-.308-.637-.681-1.256-1.041-1.855a11.067,11.067,0,0,1-1.975-5.169,11.254,11.254,0,0,1,1.027-4.894.122.122,0,0,1,.223.1,11.009,11.009,0,0,0-1.007,4.781,10.872,10.872,0,0,0,1.941,5.058c.363.6.739,1.227,1.052,1.875.875,1.807,1.515,4.427-1.323,8.683A.122.122,0,0,1,836.205,1684.148Z" transform="translate(-822.132 -1645.32)" fill="#f2e6dc"/>
          </g>
        </g>
        <path id="Trazado_223288" data-name="Trazado 223288" d="M791.851,1728.5c0-.1.015-.2.015-.3a7.249,7.249,0,0,0-2.142-5.154,5.906,5.906,0,0,0-7.336-8.941,6.967,6.967,0,0,0-13.232.189,5.454,5.454,0,0,0-4.864,5.421c0,.155.01.308.023.459a7.252,7.252,0,0,0-8.978-3.309,8.17,8.17,0,0,0-15.052.557,8.01,8.01,0,0,0-12.123,1.967,6.957,6.957,0,0,0-11.99-3.82,8.158,8.158,0,0,0-9.495-2.527,8.026,8.026,0,0,0-15.593-1.812,6.769,6.769,0,0,0-6.716,7.789,7.417,7.417,0,0,0-8.81,9.482Z" transform="translate(-675.2 -1682.418)" fill="#2d353a"/>
      </g>
    </g>
    <g id="Grupo_175537" data-name="Grupo 175537" transform="translate(351.103 357.375)">
      <path id="Trazado_223289" data-name="Trazado 223289" d="M468.48,548.2c6.3,4.742,15.443,11.47,22.129,15.728,11.137,7.094,20.773,12.437,26.25,16.76a5.78,5.78,0,0,0,6.325-.615,5.51,5.51,0,0,0,1.757-3.576,4.926,4.926,0,0,0,6.493-.808,4.7,4.7,0,0,0,.4-4.757,5.863,5.863,0,0,0,5.214-.9,5.607,5.607,0,0,0,1.777-5.943,5.545,5.545,0,0,0,4.8-2.725c2.4-4.824-11.014-14.839-17.174-19.71-1.645-1.3-22.008-16.17-31.232-22.9A112.244,112.244,0,0,0,468.48,548.2Z" transform="translate(-467.814 -518.723)" fill="#bc8271"/>
      <path id="Trazado_223290" data-name="Trazado 223290" d="M514.858,581.91a7.288,7.288,0,0,1-2.99-.651.11.11,0,0,1-.023-.013c-3.806-2.842-9.592-6.154-16.292-9.988-3.659-2.094-7.806-4.467-12.078-7.022-6.268-3.749-14.557-9.434-20.406-13.544a.122.122,0,0,1,.14-.2c5.846,4.107,14.13,9.789,20.391,13.534,4.27,2.554,8.416,4.926,12.074,7.019,6.7,3.835,12.489,7.146,16.307,10a6.467,6.467,0,0,0,6.778-.737,5.75,5.75,0,0,0,1.938-3.679.122.122,0,0,1,.183-.091,5.486,5.486,0,0,0,6.949-.926,4.611,4.611,0,0,0,.5-4.839.122.122,0,0,1,.146-.167,6.644,6.644,0,0,0,5.6-1.01,5.675,5.675,0,0,0,2-6.095.122.122,0,0,1,.109-.156,6.236,6.236,0,0,0,5.194-2.859c1.06-1.988-.564-5.087-4.828-9.21a126.6,126.6,0,0,0-12.039-9.755c-.538-.4-1.046-.776-1.515-1.127-1.631-1.22-20.292-14.086-31.271-21.646a.122.122,0,0,1,.138-.2c10.98,7.562,29.645,20.429,31.279,21.652.469.351.976.727,1.514,1.127,7.293,5.413,19.5,14.471,16.937,19.276a6.427,6.427,0,0,1-5.244,2.976,5.918,5.918,0,0,1-2.126,6.211,6.831,6.831,0,0,1-5.576,1.113,4.822,4.822,0,0,1-.635,4.864,5.718,5.718,0,0,1-7.1,1.073,5.968,5.968,0,0,1-2,3.656A6.284,6.284,0,0,1,514.858,581.91Z" transform="translate(-463.017 -518.523)" fill="#fff"/>
      <path id="Trazado_223291" data-name="Trazado 223291" d="M815.923,806.2c-1.3,1.513-6.485-10.288-3.706-12.017,3.111-1.936,10.2,6.829,10.2,6.829s-7.981-10.451-4.94-12.682c3.334-2.445,11.378,6.764,11.378,6.764s-9.918-11.105-6.877-13.844c3.367-3.033,13.932,7.289,13.932,7.289s-10.688-9.42-8.059-12.644c2.138-2.622,10.949,1.573,13.328,7.357Z" transform="translate(-768.935 -743.819)" fill="#bc8271"/>
      <path id="Trazado_223292" data-name="Trazado 223292" d="M812.566,803.848a.122.122,0,0,1-.091-.04c-1.584-1.765-4.2-7.18-3.768-10.249a2.383,2.383,0,0,1,1.029-1.8c2.255-1.4,6.4,2.487,8.71,4.973-1.784-2.619-4.521-7.11-4.17-9.549a1.825,1.825,0,0,1,.71-1.271c2.263-1.66,6.509,1.76,9.175,4.323-2.755-3.489-6.868-9.429-4.684-11.4,2.148-1.936,7.008,1.288,10.421,4.048-2.879-3.059-6.221-7.356-4.562-9.39,2.139-2.623,7.125.27,9.734,2.394a.122.122,0,0,1-.154.189c-2.539-2.066-7.374-4.9-9.391-2.429-1.963,2.407,3.919,8.55,6.688,11.213.771.693,1.272,1.18,1.361,1.267a.122.122,0,0,1-.166.179c-.092-.081-.612-.542-1.353-1.251-2.943-2.631-9.876-8.326-12.416-6.039-2.773,2.5,5.866,12.509,6.805,13.581l.082.093a.122.122,0,0,1-.183.161l-.072-.081c-.8-.9-8.1-8.9-11.143-6.665a1.591,1.591,0,0,0-.613,1.109c-.49,3.407,5.517,11.32,5.578,11.4a.122.122,0,0,1-.192.151c-.07-.087-7.053-8.659-10.038-6.8a2.154,2.154,0,0,0-.917,1.628c-.42,2.953,2.19,8.361,3.708,10.052a.122.122,0,0,1-.091.2Z" transform="translate(-766.519 -741.493)" fill="#363e44"/>
      <path id="Trazado_223293" data-name="Trazado 223293" d="M957.595,784.312c.4,1.026-.988,2.977-2.325,2.775a2.382,2.382,0,0,1-1.466-3.148C954.505,782.879,957.161,783.2,957.595,784.312Z" transform="translate(-893.788 -751.011)" fill="#fff" opacity="0.5"/>
      <path id="Trazado_223294" data-name="Trazado 223294" d="M905.381,831.944c.312,1.055-1.233,2.884-2.549,2.571a2.382,2.382,0,0,1-1.2-3.259C902.423,830.257,905.043,830.8,905.381,831.944Z" transform="translate(-847.916 -792.669)" fill="#fff" opacity="0.5"/>
      <path id="Trazado_223295" data-name="Trazado 223295" d="M869.061,892.534c.214,1.079-1.493,2.758-2.774,2.326a2.383,2.383,0,0,1-.893-3.356C866.27,890.583,868.829,891.362,869.061,892.534Z" transform="translate(-816.009 -845.675)" fill="#fff" opacity="0.5"/>
      <path id="Trazado_223296" data-name="Trazado 223296" d="M822.994,943.329a2.254,2.254,0,0,1-2.876,1.66,2.186,2.186,0,0,1-.273-3.174C820.782,941.122,822.97,942.233,822.994,943.329Z" transform="translate(-775.85 -890.02)" fill="#fff" opacity="0.5"/>
      <g id="Grupo_175534" data-name="Grupo 175534" transform="translate(1.209 27.375)">
        <rect id="Rectángulo_341768" data-name="Rectángulo 341768" width="68.467" height="84.248" transform="translate(83.788 0) rotate(84.006)" fill="#d87355"/>
        <rect id="Rectángulo_341769" data-name="Rectángulo 341769" width="65.907" height="84.248" transform="matrix(0.104, 0.995, -0.995, 0.104, 84.602, 8.026)" fill="#efbc73"/>
        <circle id="Elipse_7731" data-name="Elipse 7731" cx="24.455" cy="24.455" r="24.455" transform="translate(6.833 45.267) rotate(-45)" fill="#fff"/>
        <g id="Grupo_175532" data-name="Grupo 175532" transform="translate(16.577 32.627)">
          <path id="Trazado_223297" data-name="Trazado 223297" d="M723.679,1028.153c-9.138-.684-14.014-7.112-12.964-11.536s8.334-8.077,16.765-4.484c8.392,3.577,15.526,12.144,15.526,12.144S733.451,1028.885,723.679,1028.153Z" transform="translate(-698.179 -1010.677)" fill="#8b865c"/>
          <path id="Trazado_223298" data-name="Trazado 223298" d="M646.241,1042.646a.126.126,0,0,1-.028,0L609,1033.815a.122.122,0,0,1,.056-.237l37.213,8.827a.122.122,0,0,1-.028.241Z" transform="translate(-608.907 -1030.783)" fill="#f2e6dc"/>
        </g>
        <g id="Grupo_175533" data-name="Grupo 175533" transform="translate(15.865 36.036)">
          <path id="Trazado_223299" data-name="Trazado 223299" d="M656.627,1107.673c-6.125-4.674-6.612-11.439-3.843-14.075s9.577-1.868,13.869,4.53c4.272,6.37,5.369,15.677,5.369,15.677S663.177,1112.671,656.627,1107.673Z" transform="translate(-645.304 -1085.65)" fill="#9e9569"/>
          <path id="Trazado_223300" data-name="Trazado 223300" d="M625.358,1062.172a.122.122,0,0,1-.088-.038L603.1,1038.846a.122.122,0,0,1,.177-.168l22.171,23.288a.122.122,0,0,1-.088.206Z" transform="translate(-603.065 -1038.64)" fill="#f2e6dc"/>
        </g>
        <rect id="Rectángulo_341770" data-name="Rectángulo 341770" width="47.614" height="7.667" transform="translate(77.046 17.748) rotate(84.006)" fill="#ffd092"/>
      </g>
      <g id="Grupo_175535" data-name="Grupo 175535" transform="translate(31.23 17.05)">
        <path id="Trazado_223301" data-name="Trazado 223301" d="M759.325,692.822c8.04,5.154,12.89,5.394,13.78,3.316,1.408-3.288-2.654-9.931-14.587-18.381.316,2.839-21.651-1.229-20.143,1.9C743.946,691.208,749.192,688.249,759.325,692.822Z" transform="translate(-735.969 -675.393)" fill="#bc8271"/>
        <path id="Trazado_223302" data-name="Trazado 223302" d="M761.56,701.815a.121.121,0,0,1-.052-.012c-.51-.243-1.132-.6-1.852-1.009a36.529,36.529,0,0,0-5.233-2.6c-2.571-.966-4.324-1.488-5.733-1.908a25.2,25.2,0,0,1-3.631-1.279c-3.752-1.749-6.918-5.108-9.408-9.985a.122.122,0,1,1,.217-.111c2.465,4.827,5.592,8.15,9.294,9.875a24.625,24.625,0,0,0,3.6,1.266c1.412.421,3.17.944,5.749,1.913a36.694,36.694,0,0,1,5.268,2.615c.716.409,1.334.761,1.836,1a.122.122,0,0,1-.052.232Z" transform="translate(-733.63 -681.619)" fill="#363e44"/>
        <path id="Trazado_223303" data-name="Trazado 223303" d="M753.809,680.944c-4.025,0-9.84-2.6-15.145-4.977a72.071,72.071,0,0,0-7.306-2.991,13.5,13.5,0,0,1-3.829-1.859,21.344,21.344,0,0,1-8.346-11.225.122.122,0,0,1,.23-.081,21.116,21.116,0,0,0,8.256,11.106,13.253,13.253,0,0,0,3.76,1.826,72.207,72.207,0,0,1,7.335,3c6.918,3.1,15.526,6.949,18.6,3.706,1.486-3.551.308-7.251-3.6-11.31-3.395-3.526-8.22-6.7-12.478-9.5l-.074-.049a.122.122,0,1,1,.134-.2l.074.049c4.268,2.807,9.106,5.988,12.52,9.534,3.99,4.144,5.18,7.937,3.64,11.594a.124.124,0,0,1-.023.036A4.9,4.9,0,0,1,753.809,680.944Zm3.655-1.426h0Z" transform="translate(-719.175 -658.369)" fill="#fff"/>
      </g>
      <g id="Grupo_175536" data-name="Grupo 175536" transform="translate(91.443 82.902)">
        <circle id="Elipse_7732" data-name="Elipse 7732" cx="3.318" cy="3.318" r="3.318" transform="translate(2.6)" fill="#363e44"/>
        <circle id="Elipse_7733" data-name="Elipse 7733" cx="3.318" cy="3.318" r="3.318" transform="translate(4.842 19.639)" fill="#363e44"/>
        <circle id="Elipse_7734" data-name="Elipse 7734" cx="3.004" cy="3.004" r="3.004" transform="translate(15.333 22.239)" fill="#363e44"/>
        <circle id="Elipse_7735" data-name="Elipse 7735" cx="2.421" cy="2.421" r="2.421" transform="translate(4.752 9.505)" fill="#363e44"/>
        <circle id="Elipse_7736" data-name="Elipse 7736" cx="2.421" cy="2.421" r="2.421" transform="translate(8.744 9.064) rotate(-76.718)" fill="#363e44"/>
        <circle id="Elipse_7737" data-name="Elipse 7737" cx="2.421" cy="2.421" r="2.421" transform="translate(10.312 14.706)" fill="#363e44"/>
        <circle id="Elipse_7738" data-name="Elipse 7738" cx="2.421" cy="2.421" r="2.421" transform="translate(8.86 28.157) rotate(-45)" fill="#363e44"/>
        <circle id="Elipse_7739" data-name="Elipse 7739" cx="1.838" cy="1.838" r="1.838" transform="translate(15.2 32.686) rotate(-45)" fill="#363e44"/>
        <circle id="Elipse_7740" data-name="Elipse 7740" cx="1.838" cy="1.838" r="1.838" transform="translate(13.63 37.484)" fill="#363e44"/>
        <circle id="Elipse_7741" data-name="Elipse 7741" cx="1.838" cy="1.838" r="1.838" transform="translate(13.63 9.505)" fill="#363e44"/>
        <circle id="Elipse_7742" data-name="Elipse 7742" cx="1.838" cy="1.838" r="1.838" transform="translate(0 8.788) rotate(-45)" fill="#363e44"/>
      </g>
      <path id="Trazado_223304" data-name="Trazado 223304" d="M540.636,980a.122.122,0,0,1-.013-.243l80.312-8.753L615.3,916.673a.122.122,0,0,1,.109-.134.121.121,0,0,1,.134.109L621.19,971.1a.122.122,0,0,1-.108.134L540.649,980Z" transform="translate(-531.066 -868.014)" fill="#363e44"/>
    </g>
    <g id="Grupo_175538" data-name="Grupo 175538" transform="translate(478.827 435.359)">
      <path id="Trazado_223305" data-name="Trazado 223305" d="M1658.564,1310.348l-18.329-24.616-1.885,4.625,18.964,41.758Z" transform="translate(-1622.78 -1270.181)" fill="#b77250"/>
      <ellipse id="Elipse_7743" data-name="Elipse 7743" cx="14.028" cy="6.561" rx="14.028" ry="6.561" transform="translate(0 25.036) rotate(-63.172)" fill="#d87355"/>
      <path id="Trazado_223306" data-name="Trazado 223306" d="M1633.163,1202.871a.537.537,0,0,1-.245-.057.768.768,0,0,1-.352-.7.122.122,0,0,1,.243-.011.546.546,0,0,0,.218.49c.149.075.374.008.619-.183a2.879,2.879,0,0,0,.74-.957c.434-.857.408-1.621.113-1.77a.358.358,0,0,0-.26-.012.122.122,0,0,1-.064-.235.6.6,0,0,1,.434.03c.471.238.469,1.16-.006,2.1a3.13,3.13,0,0,1-.807,1.038A1.069,1.069,0,0,1,1633.163,1202.871Z" transform="translate(-1617.702 -1194.384)" fill="#363e44"/>
      <path id="Trazado_223307" data-name="Trazado 223307" d="M1590.969,1226.251a.537.537,0,0,1-.245-.057.6.6,0,0,1-.281-.332.122.122,0,0,1,.228-.087.357.357,0,0,0,.164.2c.149.075.374.008.619-.184a3.2,3.2,0,0,0,1.072-2.12c.01-.311-.07-.532-.219-.607a.4.4,0,0,0-.329.011.122.122,0,0,1-.089-.227.636.636,0,0,1,.528,0,.835.835,0,0,1,.352.832,3.436,3.436,0,0,1-1.165,2.3A1.069,1.069,0,0,1,1590.969,1226.251Z" transform="translate(-1580.707 -1214.914)" fill="#363e44"/>
      <path id="Trazado_223308" data-name="Trazado 223308" d="M1638.385,1250.361a.529.529,0,0,1-.241-.056c-.285-.144-.406-.533-.332-1.066a.122.122,0,1,1,.241.034c-.057.411.02.723.2.814.294.149.925-.283,1.359-1.14s.408-1.621.113-1.77a.122.122,0,0,1,.11-.218c.471.238.469,1.16-.006,2.1C1639.431,1249.847,1638.842,1250.361,1638.385,1250.361Z" transform="translate(-1622.289 -1236.123)" fill="#363e44"/>
      <path id="Trazado_223309" data-name="Trazado 223309" d="M1555.3,1295.267a.53.53,0,0,1-.241-.056.836.836,0,0,1-.353-.832.122.122,0,0,1,.122-.118h0a.122.122,0,0,1,.118.126c-.01.311.07.532.219.607.294.149.925-.283,1.359-1.14s.408-1.621.113-1.77c-.172-.087-.444.016-.728.277a.122.122,0,1,1-.165-.18c.367-.337.732-.451,1-.315.471.238.469,1.16-.005,2.1C1556.344,1294.754,1555.755,1295.267,1555.3,1295.267Z" transform="translate(-1549.332 -1275.517)" fill="#363e44"/>
      <path id="Trazado_223310" data-name="Trazado 223310" d="M1608.557,1310.68a.527.527,0,0,1-.241-.056.836.836,0,0,1-.353-.832.122.122,0,0,1,.122-.118h0a.122.122,0,0,1,.118.125c-.01.311.07.532.219.607.295.149.925-.283,1.358-1.14s.408-1.621.113-1.77a.122.122,0,1,1,.11-.218c.471.238.469,1.16-.006,2.1C1609.6,1310.167,1609.014,1310.68,1608.557,1310.68Z" transform="translate(-1596.098 -1289.089)" fill="#363e44"/>
      <path id="Trazado_223311" data-name="Trazado 223311" d="M1592.65,1269.346a.528.528,0,0,1-.241-.056c-.354-.179-.451-.73-.253-1.437a.122.122,0,1,1,.235.066c-.157.562-.1,1.036.128,1.154.295.149.925-.283,1.359-1.14a2.878,2.878,0,0,0,.332-1.163c.01-.311-.07-.532-.219-.607a.122.122,0,1,1,.11-.218.835.835,0,0,1,.352.832,3.13,3.13,0,0,1-.358,1.266C1593.7,1268.833,1593.107,1269.346,1592.65,1269.346Z" transform="translate(-1582.129 -1252.794)" fill="#363e44"/>
      <path id="Trazado_223312" data-name="Trazado 223312" d="M1564.6,1341.226a.528.528,0,0,1-.241-.056c-.352-.178-.45-.725-.256-1.427a.122.122,0,0,1,.235.065c-.156.566-.1,1.026.131,1.145.295.149.925-.283,1.359-1.14s.408-1.621.113-1.77a.357.357,0,0,0-.26-.012.122.122,0,1,1-.064-.235.59.59,0,0,1,.434.03c.471.238.469,1.16-.006,2.1C1565.644,1340.713,1565.056,1341.226,1564.6,1341.226Z" transform="translate(-1557.498 -1315.872)" fill="#363e44"/>
      <path id="Trazado_223313" data-name="Trazado 223313" d="M1729.887,1291.183l-6.753,55.742c5.183,10.3,47.348,6.561,47.675-3.719l-13.84-55.134-25.605,1.74A1.56,1.56,0,0,0,1729.887,1291.183Z" transform="translate(-1697.228 -1272.235)" fill="#d87355"/>
      <path id="Trazado_223314" data-name="Trazado 223314" d="M2005.187,1347.712c8.569-7.366,15.557.64,17.194,4.516,2.473,5.858,5.633,19.239-11.364,26.229l-.648-3.692c17.507-2.911,12.431-34.473-4.855-24.011Z" transform="translate(-1944.894 -1321.964)" fill="#b77250"/>
      <path id="Trazado_223315" data-name="Trazado 223315" d="M1793.775,1280.445c-7.448.824-13.658-.069-13.871-2s4.229-3.57,11.676-4.394,15.049-.456,15.262,1.47S1801.222,1279.621,1793.775,1280.445Z" transform="translate(-1747.071 -1259.566)" fill="#d87355"/>
    </g>
  </g>
</svg>
