<?xml version="1.0" encoding="utf-8"?>
<!-- Generator: Adobe Illustrator 28.3.0, SVG Export Plug-In . SVG Version: 6.00 Build 0)  -->
<svg version="1.1" id="Capa_1" xmlns="http://www.w3.org/2000/svg" xmlns:xlink="http://www.w3.org/1999/xlink" x="0px" y="0px"
	 viewBox="0 0 1240 400.3" style="enable-background:new 0 0 1240 400.3;" xml:space="preserve">
<style type="text/css">
	.st0{fill:#0B481E;}
	.st1{enable-background:new    ;}
	.st2{fill:#FFFFFF;}
	.st3{fill:none;stroke:#0B481E;stroke-width:3;}
	.st4{fill:none;stroke:#F2AA8C;stroke-width:3;}
	.st5{fill:#FFA686;}
	.st6{fill:#FFD947;}
	.st7{fill:#12263F;}
</style>
<g id="Grupo_169703" transform="translate(-180 -3623)">
	<path id="Rectángulo_341473" class="st0" d="M636,3623h328c19.9,0,36,16.1,36,36l0,0c0,19.9-16.1,36-36,36H636
		c-19.9,0-36-16.1-36-36l0,0C600,3639.1,616.1,3623,636,3623z"/>
	<g class="st1">
		<path class="st2" d="M776.1,3660.8h-2.3v5.2h-2.9v-14.2h5.3c1.7,0,3,0.4,3.9,1.1s1.4,1.8,1.4,3.2c0,1-0.2,1.8-0.6,2.4
			s-1.1,1.2-1.9,1.5l3.1,5.8v0.1h-3.1L776.1,3660.8z M773.8,3658.4h2.4c0.7,0,1.3-0.2,1.7-0.6s0.6-0.9,0.6-1.5
			c0-0.7-0.2-1.2-0.6-1.6s-1-0.6-1.8-0.6h-2.4V3658.4z"/>
		<path class="st2" d="M789.5,3666c-0.1-0.3-0.2-0.6-0.3-0.9c-0.7,0.8-1.6,1.1-2.7,1.1c-1,0-1.9-0.3-2.6-0.9s-1-1.4-1-2.3
			c0-1.1,0.4-2,1.2-2.6s2-0.9,3.6-0.9h1.3v-0.6c0-0.5-0.1-0.9-0.4-1.2s-0.6-0.4-1.2-0.4c-0.5,0-0.8,0.1-1.1,0.3s-0.4,0.5-0.4,0.9
			h-2.8c0-0.6,0.2-1.2,0.6-1.7s0.9-0.9,1.6-1.2s1.5-0.4,2.3-0.4c1.3,0,2.3,0.3,3.1,1s1.1,1.6,1.1,2.8v4.6c0,1,0.1,1.8,0.4,2.3v0.2
			H789.5z M787.2,3664c0.4,0,0.8-0.1,1.2-0.3s0.6-0.4,0.8-0.7v-1.8h-1.1c-1.4,0-2.2,0.5-2.3,1.5l0,0.2c0,0.4,0.1,0.6,0.4,0.9
			S786.8,3664,787.2,3664z"/>
		<path class="st2" d="M797.2,3666h-2.8v-10.6h2.8V3666z M796.3,3651.1h3.1l-2.7,3h-2.3L796.3,3651.1z"/>
		<path class="st2" d="M804,3663.9c0.5,0,0.9-0.1,1.3-0.4c0.3-0.3,0.5-0.7,0.5-1.1h2.6c0,0.7-0.2,1.4-0.6,2
			c-0.4,0.6-0.9,1.1-1.6,1.4c-0.7,0.3-1.4,0.5-2.2,0.5c-1.5,0-2.7-0.5-3.6-1.4c-0.9-1-1.3-2.3-1.3-4v-0.2c0-1.6,0.4-2.9,1.3-3.9
			c0.9-1,2.1-1.5,3.6-1.5c1.3,0,2.4,0.4,3.2,1.1c0.8,0.8,1.2,1.8,1.2,3h-2.6c0-0.5-0.2-1-0.5-1.3c-0.3-0.3-0.8-0.5-1.3-0.5
			c-0.7,0-1.2,0.2-1.5,0.7c-0.3,0.5-0.5,1.3-0.5,2.3v0.3c0,1.1,0.2,1.9,0.5,2.3S803.3,3663.9,804,3663.9z"/>
		<path class="st2" d="M814.9,3666.2c-1.5,0-2.8-0.5-3.8-1.4c-1-1-1.5-2.2-1.5-3.8v-0.3c0-1.1,0.2-2,0.6-2.8s1-1.5,1.7-1.9
			s1.6-0.7,2.6-0.7c1.4,0,2.6,0.5,3.4,1.4s1.2,2.2,1.2,3.9v1.2h-6.7c0.1,0.7,0.4,1.2,0.8,1.7s1,0.6,1.7,0.6c1.1,0,1.9-0.4,2.5-1.2
			l1.4,1.6c-0.4,0.6-1,1.1-1.7,1.4S815.8,3666.2,814.9,3666.2z M814.6,3657.5c-0.6,0-1,0.2-1.4,0.6c-0.3,0.4-0.6,0.9-0.7,1.6h3.9
			v-0.2c0-0.6-0.2-1.1-0.5-1.5C815.6,3657.7,815.2,3657.5,814.6,3657.5z"/>
		<path class="st2" d="M826.6,3663.1c0-0.3-0.2-0.6-0.5-0.8s-0.9-0.4-1.6-0.5c-2.5-0.5-3.8-1.6-3.8-3.2c0-0.9,0.4-1.7,1.2-2.3
			c0.8-0.6,1.8-0.9,3.1-0.9c1.3,0,2.4,0.3,3.2,0.9c0.8,0.6,1.2,1.5,1.2,2.5h-2.8c0-0.4-0.1-0.7-0.4-1c-0.3-0.3-0.7-0.4-1.2-0.4
			c-0.5,0-0.8,0.1-1.1,0.3c-0.3,0.2-0.4,0.5-0.4,0.8c0,0.3,0.1,0.6,0.4,0.8c0.3,0.2,0.8,0.4,1.5,0.5s1.3,0.3,1.8,0.5
			c1.5,0.5,2.2,1.5,2.2,2.8c0,1-0.4,1.7-1.2,2.3c-0.8,0.6-1.9,0.9-3.2,0.9c-0.9,0-1.7-0.2-2.4-0.5c-0.7-0.3-1.2-0.7-1.6-1.3
			s-0.6-1.1-0.6-1.8h2.7c0,0.5,0.2,0.9,0.6,1.2c0.3,0.3,0.8,0.4,1.4,0.4c0.5,0,0.9-0.1,1.2-0.3
			C826.4,3663.7,826.6,3663.4,826.6,3663.1z"/>
	</g>
	<g id="Grupo_169683" transform="translate(0 2927.5)">
		<line id="Línea_154" class="st3" x1="799.8" y1="767.5" x2="799.8" y2="793.2"/>
	</g>
	<g id="Grupo_169684" transform="translate(158.167 2953.168)">
		<line id="Línea_154-2" class="st3" x1="799.8" y1="767.5" x2="799.8" y2="793.2"/>
	</g>
	<g id="Grupo_169686" transform="translate(-156.833 2953.168)">
		<line id="Línea_154-3" class="st3" x1="799.8" y1="767.5" x2="799.8" y2="793.2"/>
	</g>
	<g id="Grupo_169687" transform="translate(-471.833 2953.168)">
		<line id="Línea_154-4" class="st3" x1="799.8" y1="767.5" x2="799.8" y2="793.2"/>
	</g>
	<g id="Grupo_169689" transform="translate(-593.833 3028.835)">
		<line id="Línea_154-5" class="st4" x1="799.8" y1="767.5" x2="799.8" y2="895.9"/>
	</g>
	<g id="Grupo_169693" transform="translate(-279.051 3028.835)">
		<line id="Línea_154-6" class="st4" x1="799.8" y1="767.5" x2="799.8" y2="895.9"/>
	</g>
	<g id="Grupo_169697" transform="translate(35.949 3028.835)">
		<line id="Línea_154-7" class="st4" x1="799.8" y1="767.5" x2="799.8" y2="971.5"/>
	</g>
	<g id="Grupo_169701" transform="translate(350.949 3028.835)">
		<line id="Línea_154-8" class="st4" x1="799.8" y1="767.5" x2="799.8" y2="971.5"/>
	</g>
	<g id="Grupo_169690" transform="translate(-561.5 4647.335) rotate(-90)">
		<line id="Línea_154-9" class="st4" x1="799.8" y1="767.5" x2="799.8" y2="826.5"/>
	</g>
	<g id="Grupo_169694" transform="translate(-246.719 4647.335) rotate(-90)">
		<line id="Línea_154-10" class="st4" x1="799.8" y1="767.5" x2="799.8" y2="826.5"/>
	</g>
	<g id="Grupo_169696" transform="translate(68.281 4647.335) rotate(-90)">
		<line id="Línea_154-11" class="st4" x1="799.8" y1="767.5" x2="799.8" y2="826.5"/>
	</g>
	<g id="Grupo_169702" transform="translate(383.281 4647.335) rotate(-90)">
		<line id="Línea_154-12" class="st4" x1="799.8" y1="767.5" x2="799.8" y2="826.5"/>
	</g>
	<g id="Grupo_169691" transform="translate(-561.5 4723.002) rotate(-90)">
		<line id="Línea_154-13" class="st4" x1="799.8" y1="767.5" x2="799.8" y2="826.5"/>
	</g>
	<g id="Grupo_169692" transform="translate(-246.719 4723.002) rotate(-90)">
		<line id="Línea_154-14" class="st4" x1="799.8" y1="767.5" x2="799.8" y2="826.5"/>
	</g>
	<g id="Grupo_169695" transform="translate(68.281 4723.002) rotate(-90)">
		<line id="Línea_154-15" class="st4" x1="799.8" y1="767.5" x2="799.8" y2="826.5"/>
	</g>
	<g id="Grupo_169700" transform="translate(383.281 4723.002) rotate(-90)">
		<line id="Línea_154-16" class="st4" x1="799.8" y1="767.5" x2="799.8" y2="826.5"/>
	</g>
	<g id="Grupo_169698" transform="translate(68.281 4798.669) rotate(-90)">
		<line id="Línea_154-17" class="st4" x1="799.8" y1="767.5" x2="799.8" y2="826.5"/>
	</g>
	<g id="Grupo_169699" transform="translate(383.281 4798.669) rotate(-90)">
		<line id="Línea_154-18" class="st4" x1="799.8" y1="767.5" x2="799.8" y2="826.5"/>
	</g>
	<g id="Grupo_169688" transform="translate(2041.498 2920.835) rotate(90)">
		<line id="Línea_154-19" class="st3" x1="799.8" y1="767.5" x2="799.8" y2="1715.2"/>
	</g>
	<g id="Grupo_169685" transform="translate(472.667 2953.168)">
		<line id="Línea_154-20" class="st3" x1="799.8" y1="767.5" x2="799.8" y2="793.2"/>
	</g>
	<path id="Rectángulo_341474" class="st5" d="M1150,3746.3h245c13.8,0,25,11.2,25,25l0,0c0,13.8-11.2,25-25,25h-245
		c-13.8,0-25-11.2-25-25l0,0C1125,3757.5,1136.2,3746.3,1150,3746.3z"/>
	<path id="Rectángulo_341475" class="st5" d="M835,3746.3h245c13.8,0,25,11.2,25,25l0,0c0,13.8-11.2,25-25,25H835
		c-13.8,0-25-11.2-25-25l0,0C810,3757.5,821.2,3746.3,835,3746.3z"/>
	<path id="Rectángulo_341476" class="st5" d="M520,3746.3h245c13.8,0,25,11.2,25,25l0,0c0,13.8-11.2,25-25,25H520
		c-13.8,0-25-11.2-25-25l0,0C495,3757.5,506.2,3746.3,520,3746.3z"/>
	<path id="Rectángulo_341477" class="st5" d="M205,3746.3h245c13.8,0,25,11.2,25,25l0,0c0,13.8-11.2,25-25,25H205
		c-13.8,0-25-11.2-25-25l0,0C180,3757.5,191.2,3746.3,205,3746.3z"/>
	<path id="Rectángulo_341478" class="st6" d="M290,3822h160.2c13.8,0,25,11.2,25,25l0,0c0,13.8-11.2,25-25,25H290
		c-13.8,0-25-11.2-25-25l0,0C265,3833.2,276.2,3822,290,3822z"/>
	<path id="Rectángulo_341481" class="st6" d="M604.8,3822H765c13.8,0,25,11.2,25,25l0,0c0,13.8-11.2,25-25,25H604.8
		c-13.8,0-25-11.2-25-25l0,0C579.8,3833.2,591,3822,604.8,3822z"/>
	<path id="Rectángulo_341483" class="st6" d="M919.8,3822H1080c13.8,0,25,11.2,25,25l0,0c0,13.8-11.2,25-25,25H919.8
		c-13.8,0-25-11.2-25-25l0,0C894.8,3833.2,906,3822,919.8,3822z"/>
	<path id="Rectángulo_341487" class="st6" d="M1234.8,3822H1395c13.8,0,25,11.2,25,25l0,0c0,13.8-11.2,25-25,25h-160.2
		c-13.8,0-25-11.2-25-25l0,0C1209.8,3833.2,1221,3822,1234.8,3822z"/>
	<path id="Rectángulo_341479" class="st6" d="M290,3897.7h160.2c13.8,0,25,11.2,25,25l0,0c0,13.8-11.2,25-25,25H290
		c-13.8,0-25-11.2-25-25l0,0C265,3908.9,276.2,3897.7,290,3897.7z"/>
	<path id="Rectángulo_341480" class="st6" d="M604.8,3897.7H765c13.8,0,25,11.2,25,25l0,0c0,13.8-11.2,25-25,25H604.8
		c-13.8,0-25-11.2-25-25l0,0C579.8,3908.9,591,3897.7,604.8,3897.7z"/>
	<path id="Rectángulo_341482" class="st6" d="M919.8,3897.7H1080c13.8,0,25,11.2,25,25l0,0c0,13.8-11.2,25-25,25H919.8
		c-13.8,0-25-11.2-25-25l0,0C894.8,3908.9,906,3897.7,919.8,3897.7z"/>
	<path id="Rectángulo_341486" class="st6" d="M1234.8,3897.7H1395c13.8,0,25,11.2,25,25l0,0c0,13.8-11.2,25-25,25h-160.2
		c-13.8,0-25-11.2-25-25l0,0C1209.8,3908.9,1221,3897.7,1234.8,3897.7z"/>
	<path id="Rectángulo_341484" class="st6" d="M919.8,3973.3H1080c13.8,0,25,11.2,25,25l0,0c0,13.8-11.2,25-25,25H919.8
		c-13.8,0-25-11.2-25-25l0,0C894.8,3984.5,906,3973.3,919.8,3973.3z"/>
	<path id="Rectángulo_341485" class="st6" d="M1234.8,3973.3H1395c13.8,0,25,11.2,25,25l0,0c0,13.8-11.2,25-25,25h-160.2
		c-13.8,0-25-11.2-25-25l0,0C1209.8,3984.5,1221,3973.3,1234.8,3973.3z"/>
	<g class="st1">
		<path class="st7" d="M1178.1,3776.5h5v1.9h-7.3V3767h2.3V3776.5z"/>
		<path class="st7" d="M1189.3,3777.5c-0.6,0.7-1.3,1-2.3,1c-0.9,0-1.6-0.3-2.1-0.8s-0.7-1.3-0.7-2.3v-5.5h2.3v5.5
			c0,0.9,0.4,1.3,1.2,1.3c0.8,0,1.3-0.3,1.6-0.8v-6h2.3v8.5h-2.1L1189.3,3777.5z"/>
		<path class="st7" d="M1192.8,3774c0-1.3,0.3-2.3,0.9-3.1s1.4-1.2,2.5-1.2c0.9,0,1.6,0.3,2.2,1l0.1-0.8h2v8.2
			c0,0.7-0.2,1.4-0.5,1.9s-0.8,1-1.4,1.2s-1.3,0.4-2.1,0.4c-0.6,0-1.2-0.1-1.8-0.4c-0.6-0.2-1-0.6-1.3-1l1-1.4
			c0.6,0.6,1.2,0.9,2,0.9c0.6,0,1.1-0.2,1.4-0.5c0.3-0.3,0.5-0.8,0.5-1.4v-0.5c-0.5,0.6-1.2,0.9-2.1,0.9c-1,0-1.8-0.4-2.5-1.2
			C1193.1,3776.5,1192.8,3775.5,1192.8,3774L1192.8,3774z M1195.1,3774.2c0,0.8,0.2,1.4,0.5,1.8c0.3,0.4,0.7,0.7,1.3,0.7
			c0.7,0,1.2-0.3,1.5-0.8v-3.6c-0.3-0.5-0.8-0.8-1.5-0.8c-0.5,0-1,0.2-1.3,0.7C1195.2,3772.7,1195.1,3773.3,1195.1,3774.2z"/>
		<path class="st7" d="M1207.2,3778.3c-0.1-0.2-0.2-0.5-0.2-0.8c-0.5,0.6-1.3,0.9-2.1,0.9c-0.8,0-1.5-0.2-2.1-0.7
			c-0.5-0.5-0.8-1.1-0.8-1.8c0-0.9,0.3-1.6,1-2.1s1.6-0.7,2.9-0.7h1v-0.5c0-0.4-0.1-0.7-0.3-0.9c-0.2-0.2-0.5-0.4-0.9-0.4
			c-0.4,0-0.7,0.1-0.9,0.3c-0.2,0.2-0.3,0.4-0.3,0.8h-2.3c0-0.5,0.2-0.9,0.5-1.4c0.3-0.4,0.7-0.7,1.3-1c0.6-0.2,1.2-0.4,1.9-0.4
			c1,0,1.9,0.3,2.5,0.8c0.6,0.5,0.9,1.3,0.9,2.2v3.7c0,0.8,0.1,1.4,0.3,1.8v0.1H1207.2z M1205.3,3776.8c0.3,0,0.6-0.1,0.9-0.2
			s0.5-0.3,0.6-0.6v-1.5h-0.8c-1.1,0-1.7,0.4-1.8,1.2l0,0.1c0,0.3,0.1,0.5,0.3,0.7C1204.7,3776.7,1205,3776.8,1205.3,3776.8z"/>
		<path class="st7" d="M1215.6,3772c-0.3,0-0.6-0.1-0.8-0.1c-0.9,0-1.4,0.3-1.7,0.9v5.5h-2.3v-8.5h2.1l0.1,1
			c0.5-0.8,1.1-1.2,1.9-1.2c0.2,0,0.5,0,0.7,0.1L1215.6,3772z"/>
		<path class="st7" d="M1220.3,3774c0-1.3,0.3-2.4,0.9-3.1c0.6-0.8,1.4-1.2,2.4-1.2c0.8,0,1.5,0.3,2,0.9v-4.3h2.3v12h-2l-0.1-0.9
			c-0.6,0.7-1.3,1.1-2.2,1.1c-1,0-1.8-0.4-2.4-1.2S1220.3,3775.4,1220.3,3774z M1222.6,3774.2c0,0.8,0.1,1.4,0.4,1.8
			c0.3,0.4,0.7,0.6,1.2,0.6c0.7,0,1.2-0.3,1.5-0.9v-3.3c-0.3-0.6-0.8-0.9-1.5-0.9C1223.1,3771.6,1222.6,3772.4,1222.6,3774.2z"/>
		<path class="st7" d="M1229.3,3774c0-0.8,0.2-1.6,0.5-2.2c0.3-0.7,0.8-1.2,1.4-1.5c0.6-0.4,1.3-0.5,2.1-0.5c1.1,0,2.1,0.3,2.8,1
			c0.7,0.7,1.1,1.6,1.2,2.8l0,0.6c0,1.3-0.4,2.3-1.1,3.1c-0.7,0.8-1.7,1.2-2.9,1.2s-2.2-0.4-2.9-1.2s-1.1-1.8-1.1-3.2V3774z
			 M1231.6,3774.2c0,0.8,0.2,1.4,0.5,1.8c0.3,0.4,0.7,0.6,1.3,0.6c0.5,0,1-0.2,1.3-0.6c0.3-0.4,0.5-1.1,0.5-2c0-0.8-0.2-1.4-0.5-1.8
			c-0.3-0.4-0.7-0.6-1.3-0.6c-0.6,0-1,0.2-1.3,0.6C1231.7,3772.6,1231.6,3773.3,1231.6,3774.2z"/>
		<path class="st7" d="M1240.8,3769.9l0.1,1c0.6-0.8,1.4-1.1,2.4-1.1c0.9,0,1.6,0.3,2,0.8s0.7,1.3,0.7,2.4v5.5h-2.3v-5.4
			c0-0.5-0.1-0.8-0.3-1c-0.2-0.2-0.6-0.3-1-0.3c-0.6,0-1.1,0.3-1.4,0.8v6h-2.3v-8.5H1240.8z"/>
		<path class="st7" d="M1247.3,3774c0-1.3,0.3-2.4,0.9-3.1c0.6-0.8,1.4-1.2,2.4-1.2c0.8,0,1.5,0.3,2,0.9v-4.3h2.3v12h-2l-0.1-0.9
			c-0.6,0.7-1.3,1.1-2.2,1.1c-1,0-1.8-0.4-2.4-1.2S1247.3,3775.4,1247.3,3774z M1249.6,3774.2c0,0.8,0.1,1.4,0.4,1.8
			c0.3,0.4,0.7,0.6,1.2,0.6c0.7,0,1.2-0.3,1.5-0.9v-3.3c-0.3-0.6-0.8-0.9-1.5-0.9C1250.2,3771.6,1249.6,3772.4,1249.6,3774.2z"/>
		<path class="st7" d="M1260.6,3778.5c-1.2,0-2.2-0.4-3-1.1c-0.8-0.8-1.2-1.8-1.2-3v-0.2c0-0.8,0.2-1.6,0.5-2.3s0.8-1.2,1.4-1.5
			s1.3-0.5,2.1-0.5c1.2,0,2.1,0.4,2.7,1.1s1,1.8,1,3.1v0.9h-5.4c0.1,0.6,0.3,1,0.7,1.3s0.8,0.5,1.4,0.5c0.9,0,1.5-0.3,2-0.9l1.1,1.2
			c-0.3,0.5-0.8,0.9-1.4,1.1S1261.3,3778.5,1260.6,3778.5z M1260.3,3771.5c-0.4,0-0.8,0.2-1.1,0.5c-0.3,0.3-0.5,0.7-0.5,1.3h3.1
			v-0.2c0-0.5-0.1-0.9-0.4-1.2C1261.2,3771.7,1260.8,3771.5,1260.3,3771.5z"/>
		<path class="st7" d="M1273.9,3776c0-0.3-0.1-0.5-0.4-0.7s-0.7-0.3-1.3-0.4c-2-0.4-3-1.3-3-2.6c0-0.8,0.3-1.4,0.9-1.9
			c0.6-0.5,1.4-0.8,2.4-0.8c1.1,0,1.9,0.3,2.6,0.8c0.6,0.5,1,1.2,1,2h-2.3c0-0.3-0.1-0.6-0.3-0.8c-0.2-0.2-0.5-0.3-1-0.3
			c-0.4,0-0.7,0.1-0.9,0.3c-0.2,0.2-0.3,0.4-0.3,0.7c0,0.2,0.1,0.5,0.4,0.6c0.2,0.2,0.6,0.3,1.2,0.4s1,0.2,1.4,0.4
			c1.2,0.4,1.8,1.2,1.8,2.3c0,0.8-0.3,1.4-1,1.9c-0.7,0.5-1.5,0.7-2.6,0.7c-0.7,0-1.3-0.1-1.9-0.4c-0.5-0.3-1-0.6-1.3-1
			s-0.5-0.9-0.5-1.4h2.1c0,0.4,0.2,0.7,0.4,0.9c0.3,0.2,0.6,0.3,1.1,0.3c0.4,0,0.8-0.1,1-0.2
			C1273.8,3776.5,1273.9,3776.3,1273.9,3776z"/>
		<path class="st7" d="M1281.5,3778.5c-1.2,0-2.2-0.4-3-1.1c-0.8-0.8-1.2-1.8-1.2-3v-0.2c0-0.8,0.2-1.6,0.5-2.3s0.8-1.2,1.4-1.5
			s1.3-0.5,2.1-0.5c1.2,0,2.1,0.4,2.7,1.1s1,1.8,1,3.1v0.9h-5.4c0.1,0.6,0.3,1,0.7,1.3s0.8,0.5,1.4,0.5c0.9,0,1.5-0.3,2-0.9l1.1,1.2
			c-0.3,0.5-0.8,0.9-1.4,1.1S1282.2,3778.5,1281.5,3778.5z M1281.2,3771.5c-0.4,0-0.8,0.2-1.1,0.5c-0.3,0.3-0.5,0.7-0.5,1.3h3.1
			v-0.2c0-0.5-0.1-0.9-0.4-1.2C1282.1,3771.7,1281.7,3771.5,1281.2,3771.5z"/>
		<path class="st7" d="M1289.9,3774c0-1.3,0.3-2.4,0.9-3.1c0.6-0.8,1.4-1.2,2.4-1.2c0.8,0,1.5,0.3,2,0.9v-4.3h2.3v12h-2l-0.1-0.9
			c-0.6,0.7-1.3,1.1-2.2,1.1c-1,0-1.8-0.4-2.4-1.2S1289.9,3775.4,1289.9,3774z M1292.1,3774.2c0,0.8,0.1,1.4,0.4,1.8
			c0.3,0.4,0.7,0.6,1.2,0.6c0.7,0,1.2-0.3,1.5-0.9v-3.3c-0.3-0.6-0.8-0.9-1.5-0.9C1292.7,3771.6,1292.1,3772.4,1292.1,3774.2z"/>
		<path class="st7" d="M1303.1,3778.5c-1.2,0-2.2-0.4-3-1.1c-0.8-0.8-1.2-1.8-1.2-3v-0.2c0-0.8,0.2-1.6,0.5-2.3s0.8-1.2,1.4-1.5
			s1.3-0.5,2.1-0.5c1.2,0,2.1,0.4,2.7,1.1s1,1.8,1,3.1v0.9h-5.4c0.1,0.6,0.3,1,0.7,1.3s0.8,0.5,1.4,0.5c0.9,0,1.5-0.3,2-0.9l1.1,1.2
			c-0.3,0.5-0.8,0.9-1.4,1.1S1303.8,3778.5,1303.1,3778.5z M1302.9,3771.5c-0.4,0-0.8,0.2-1.1,0.5c-0.3,0.3-0.5,0.7-0.5,1.3h3.1
			v-0.2c0-0.5-0.1-0.9-0.4-1.2C1303.7,3771.7,1303.3,3771.5,1302.9,3771.5z"/>
		<path class="st7" d="M1312.4,3776c0-0.3-0.1-0.5-0.4-0.7s-0.7-0.3-1.3-0.4c-2-0.4-3-1.3-3-2.6c0-0.8,0.3-1.4,0.9-1.9
			c0.6-0.5,1.4-0.8,2.4-0.8c1.1,0,1.9,0.3,2.6,0.8c0.6,0.5,1,1.2,1,2h-2.3c0-0.3-0.1-0.6-0.3-0.8c-0.2-0.2-0.5-0.3-1-0.3
			c-0.4,0-0.7,0.1-0.9,0.3c-0.2,0.2-0.3,0.4-0.3,0.7c0,0.2,0.1,0.5,0.4,0.6c0.2,0.2,0.6,0.3,1.2,0.4s1,0.2,1.4,0.4
			c1.2,0.4,1.8,1.2,1.8,2.3c0,0.8-0.3,1.4-1,1.9c-0.7,0.5-1.5,0.7-2.6,0.7c-0.7,0-1.3-0.1-1.9-0.4c-0.5-0.3-1-0.6-1.3-1
			s-0.5-0.9-0.5-1.4h2.1c0,0.4,0.2,0.7,0.4,0.9c0.3,0.2,0.6,0.3,1.1,0.3c0.4,0,0.8-0.1,1-0.2
			C1312.3,3776.5,1312.4,3776.3,1312.4,3776z"/>
		<path class="st7" d="M1321,3778.3c-0.1-0.2-0.2-0.5-0.2-0.8c-0.5,0.6-1.3,0.9-2.1,0.9c-0.8,0-1.5-0.2-2.1-0.7
			c-0.5-0.5-0.8-1.1-0.8-1.8c0-0.9,0.3-1.6,1-2.1s1.6-0.7,2.9-0.7h1v-0.5c0-0.4-0.1-0.7-0.3-0.9c-0.2-0.2-0.5-0.4-0.9-0.4
			c-0.4,0-0.7,0.1-0.9,0.3c-0.2,0.2-0.3,0.4-0.3,0.8h-2.3c0-0.5,0.2-0.9,0.5-1.4c0.3-0.4,0.7-0.7,1.3-1c0.6-0.2,1.2-0.4,1.9-0.4
			c1,0,1.9,0.3,2.5,0.8c0.6,0.5,0.9,1.3,0.9,2.2v3.7c0,0.8,0.1,1.4,0.3,1.8v0.1H1321z M1319.1,3776.8c0.3,0,0.6-0.1,0.9-0.2
			s0.5-0.3,0.6-0.6v-1.5h-0.8c-1.1,0-1.7,0.4-1.8,1.2l0,0.1c0,0.3,0.1,0.5,0.3,0.7C1318.5,3776.7,1318.8,3776.8,1319.1,3776.8z"/>
		<path class="st7" d="M1329.4,3772c-0.3,0-0.6-0.1-0.8-0.1c-0.9,0-1.4,0.3-1.7,0.9v5.5h-2.3v-8.5h2.1l0.1,1
			c0.5-0.8,1.1-1.2,1.9-1.2c0.2,0,0.5,0,0.7,0.1L1329.4,3772z"/>
		<path class="st7" d="M1335.3,3772c-0.3,0-0.6-0.1-0.8-0.1c-0.9,0-1.4,0.3-1.7,0.9v5.5h-2.3v-8.5h2.1l0.1,1
			c0.5-0.8,1.1-1.2,1.9-1.2c0.2,0,0.5,0,0.7,0.1L1335.3,3772z"/>
		<path class="st7" d="M1335.7,3774c0-0.8,0.2-1.6,0.5-2.2c0.3-0.7,0.8-1.2,1.4-1.5c0.6-0.4,1.3-0.5,2.1-0.5c1.1,0,2.1,0.3,2.8,1
			c0.7,0.7,1.1,1.6,1.2,2.8l0,0.6c0,1.3-0.4,2.3-1.1,3.1c-0.7,0.8-1.7,1.2-2.9,1.2s-2.2-0.4-2.9-1.2s-1.1-1.8-1.1-3.2V3774z
			 M1338,3774.2c0,0.8,0.2,1.4,0.5,1.8c0.3,0.4,0.7,0.6,1.3,0.6c0.5,0,1-0.2,1.3-0.6c0.3-0.4,0.5-1.1,0.5-2c0-0.8-0.2-1.4-0.5-1.8
			c-0.3-0.4-0.7-0.6-1.3-0.6c-0.6,0-1,0.2-1.3,0.6C1338.1,3772.6,1338,3773.3,1338,3774.2z"/>
		<path class="st7" d="M1347.5,3778.3h-2.3v-12h2.3V3778.3z"/>
		<path class="st7" d="M1351.7,3778.3h-2.3v-12h2.3V3778.3z"/>
		<path class="st7" d="M1358.5,3778.3c-0.1-0.2-0.2-0.5-0.2-0.8c-0.5,0.6-1.3,0.9-2.1,0.9c-0.8,0-1.5-0.2-2.1-0.7
			c-0.5-0.5-0.8-1.1-0.8-1.8c0-0.9,0.3-1.6,1-2.1s1.6-0.7,2.9-0.7h1v-0.5c0-0.4-0.1-0.7-0.3-0.9c-0.2-0.2-0.5-0.4-0.9-0.4
			c-0.4,0-0.7,0.1-0.9,0.3c-0.2,0.2-0.3,0.4-0.3,0.8h-2.3c0-0.5,0.2-0.9,0.5-1.4c0.3-0.4,0.7-0.7,1.3-1c0.6-0.2,1.2-0.4,1.9-0.4
			c1,0,1.9,0.3,2.5,0.8c0.6,0.5,0.9,1.3,0.9,2.2v3.7c0,0.8,0.1,1.4,0.3,1.8v0.1H1358.5z M1356.6,3776.8c0.3,0,0.6-0.1,0.9-0.2
			s0.5-0.3,0.6-0.6v-1.5h-0.8c-1.1,0-1.7,0.4-1.8,1.2l0,0.1c0,0.3,0.1,0.5,0.3,0.7C1356,3776.7,1356.3,3776.8,1356.6,3776.8z"/>
		<path class="st7" d="M1364.3,3769.9l0.1,1c0.6-0.8,1.4-1.1,2.4-1.1c0.9,0,1.6,0.3,2,0.8s0.7,1.3,0.7,2.4v5.5h-2.3v-5.4
			c0-0.5-0.1-0.8-0.3-1c-0.2-0.2-0.6-0.3-1-0.3c-0.6,0-1.1,0.3-1.4,0.8v6h-2.3v-8.5H1364.3z"/>
	</g>
	<g class="st1">
		<path class="st7" d="M921.1,3774.5c-0.1,1.2-0.5,2.2-1.4,2.9s-1.9,1.1-3.2,1.1c-1.5,0-2.6-0.5-3.4-1.5s-1.3-2.3-1.3-4v-0.7
			c0-1.1,0.2-2.1,0.6-2.9s0.9-1.5,1.7-1.9s1.5-0.7,2.5-0.7c1.3,0,2.4,0.4,3.2,1.1s1.3,1.7,1.4,3h-2.3c-0.1-0.7-0.3-1.3-0.6-1.6
			s-0.9-0.5-1.6-0.5c-0.8,0-1.4,0.3-1.8,0.8s-0.6,1.4-0.6,2.6v0.9c0,1.2,0.2,2.1,0.6,2.7s1,0.9,1.8,0.9c0.7,0,1.3-0.2,1.6-0.5
			s0.6-0.8,0.6-1.5H921.1z"/>
		<path class="st7" d="M922.1,3774c0-0.8,0.2-1.6,0.5-2.2s0.8-1.2,1.4-1.5s1.3-0.5,2.1-0.5c1.1,0,2.1,0.3,2.8,1s1.1,1.6,1.2,2.8
			l0,0.6c0,1.3-0.4,2.3-1.1,3.1s-1.7,1.2-2.9,1.2s-2.2-0.4-2.9-1.2s-1.1-1.8-1.1-3.2V3774z M924.4,3774.2c0,0.8,0.2,1.4,0.5,1.8
			s0.7,0.6,1.3,0.6c0.5,0,1-0.2,1.3-0.6s0.5-1.1,0.5-2c0-0.8-0.2-1.4-0.5-1.8s-0.7-0.6-1.3-0.6c-0.6,0-1,0.2-1.3,0.6
			S924.4,3773.3,924.4,3774.2z"/>
		<path class="st7" d="M933.6,3769.9l0.1,1c0.6-0.8,1.4-1.1,2.4-1.1c0.9,0,1.6,0.3,2,0.8s0.7,1.3,0.7,2.4v5.5h-2.3v-5.4
			c0-0.5-0.1-0.8-0.3-1s-0.6-0.3-1-0.3c-0.6,0-1.1,0.3-1.4,0.8v6h-2.3v-8.5H933.6z"/>
		<path class="st7" d="M945.1,3776c0-0.3-0.1-0.5-0.4-0.7s-0.7-0.3-1.3-0.4c-2-0.4-3-1.3-3-2.6c0-0.8,0.3-1.4,0.9-1.9
			s1.4-0.8,2.4-0.8c1.1,0,1.9,0.3,2.6,0.8s1,1.2,1,2H945c0-0.3-0.1-0.6-0.3-0.8s-0.5-0.3-1-0.3c-0.4,0-0.7,0.1-0.9,0.3
			s-0.3,0.4-0.3,0.7c0,0.2,0.1,0.5,0.4,0.6s0.6,0.3,1.2,0.4s1,0.2,1.4,0.4c1.2,0.4,1.8,1.2,1.8,2.3c0,0.8-0.3,1.4-1,1.9
			s-1.5,0.7-2.6,0.7c-0.7,0-1.3-0.1-1.9-0.4s-1-0.6-1.3-1s-0.5-0.9-0.5-1.4h2.1c0,0.4,0.2,0.7,0.4,0.9s0.6,0.3,1.1,0.3
			c0.4,0,0.8-0.1,1-0.2S945.1,3776.3,945.1,3776z"/>
		<path class="st7" d="M948.7,3767.7c0-0.3,0.1-0.6,0.3-0.8s0.5-0.3,0.9-0.3c0.4,0,0.7,0.1,0.9,0.3s0.3,0.5,0.3,0.8
			c0,0.3-0.1,0.6-0.3,0.8s-0.5,0.3-0.9,0.3s-0.7-0.1-0.9-0.3S948.7,3768,948.7,3767.7z M951.1,3778.3h-2.3v-8.5h2.3V3778.3z"/>
		<path class="st7" d="M957.5,3776c0-0.3-0.1-0.5-0.4-0.7s-0.7-0.3-1.3-0.4c-2-0.4-3-1.3-3-2.6c0-0.8,0.3-1.4,0.9-1.9
			s1.4-0.8,2.4-0.8c1.1,0,1.9,0.3,2.6,0.8s1,1.2,1,2h-2.3c0-0.3-0.1-0.6-0.3-0.8s-0.5-0.3-1-0.3c-0.4,0-0.7,0.1-0.9,0.3
			s-0.3,0.4-0.3,0.7c0,0.2,0.1,0.5,0.4,0.6s0.6,0.3,1.2,0.4s1,0.2,1.4,0.4c1.2,0.4,1.8,1.2,1.8,2.3c0,0.8-0.3,1.4-1,1.9
			s-1.5,0.7-2.6,0.7c-0.7,0-1.3-0.1-1.9-0.4s-1-0.6-1.3-1s-0.5-0.9-0.5-1.4h2.1c0,0.4,0.2,0.7,0.4,0.9s0.6,0.3,1.1,0.3
			c0.4,0,0.8-0.1,1-0.2S957.5,3776.3,957.5,3776z"/>
		<path class="st7" d="M963.9,3767.8v2.1h1.4v1.7h-1.4v4.2c0,0.3,0.1,0.5,0.2,0.7s0.3,0.2,0.7,0.2c0.2,0,0.5,0,0.7-0.1v1.7
			c-0.4,0.1-0.9,0.2-1.4,0.2c-1.6,0-2.4-0.8-2.4-2.4v-4.6h-1.2v-1.7h1.2v-2.1H963.9z"/>
		<path class="st7" d="M970.5,3778.5c-1.2,0-2.2-0.4-3-1.1s-1.2-1.8-1.2-3v-0.2c0-0.8,0.2-1.6,0.5-2.3s0.8-1.2,1.4-1.5
			s1.3-0.5,2.1-0.5c1.2,0,2.1,0.4,2.7,1.1s1,1.8,1,3.1v0.9h-5.4c0.1,0.6,0.3,1,0.7,1.3s0.8,0.5,1.4,0.5c0.9,0,1.5-0.3,2-0.9l1.1,1.2
			c-0.3,0.5-0.8,0.9-1.4,1.1S971.2,3778.5,970.5,3778.5z M970.2,3771.5c-0.4,0-0.8,0.2-1.1,0.5s-0.5,0.7-0.5,1.3h3.1v-0.2
			c0-0.5-0.1-0.9-0.4-1.2S970.7,3771.5,970.2,3771.5z"/>
		<path class="st7" d="M977.3,3769.9l0.1,1c0.6-0.8,1.4-1.1,2.4-1.1c0.9,0,1.6,0.3,2,0.8s0.7,1.3,0.7,2.4v5.5h-2.3v-5.4
			c0-0.5-0.1-0.8-0.3-1s-0.6-0.3-1-0.3c-0.6,0-1.1,0.3-1.4,0.8v6h-2.3v-8.5H977.3z"/>
		<path class="st7" d="M987.7,3776.7c0.4,0,0.8-0.1,1-0.3s0.4-0.5,0.4-0.9h2.1c0,0.6-0.2,1.1-0.5,1.6s-0.7,0.8-1.3,1.1
			s-1.1,0.4-1.8,0.4c-1.2,0-2.2-0.4-2.9-1.2s-1-1.8-1-3.2v-0.1c0-1.3,0.3-2.3,1-3.1s1.6-1.2,2.9-1.2c1.1,0,1.9,0.3,2.5,0.9
			s1,1.4,1,2.4h-2.1c0-0.4-0.1-0.8-0.4-1.1c-0.3-0.3-0.6-0.4-1-0.4c-0.5,0-0.9,0.2-1.2,0.6s-0.4,1-0.4,1.9v0.2
			c0,0.9,0.1,1.5,0.4,1.9S987.2,3776.7,987.7,3776.7z"/>
		<path class="st7" d="M992.5,3767.7c0-0.3,0.1-0.6,0.3-0.8s0.5-0.3,0.9-0.3c0.4,0,0.7,0.1,0.9,0.3s0.3,0.5,0.3,0.8
			c0,0.3-0.1,0.6-0.3,0.8s-0.5,0.3-0.9,0.3s-0.7-0.1-0.9-0.3S992.5,3768,992.5,3767.7z M994.9,3778.3h-2.3v-8.5h2.3V3778.3z"/>
		<path class="st7" d="M1001.7,3778.3c-0.1-0.2-0.2-0.5-0.2-0.8c-0.5,0.6-1.3,0.9-2.1,0.9c-0.8,0-1.5-0.2-2.1-0.7s-0.8-1.1-0.8-1.8
			c0-0.9,0.3-1.6,1-2.1s1.6-0.7,2.9-0.7h1v-0.5c0-0.4-0.1-0.7-0.3-0.9s-0.5-0.4-0.9-0.4c-0.4,0-0.7,0.1-0.9,0.3s-0.3,0.4-0.3,0.8
			h-2.3c0-0.5,0.2-0.9,0.5-1.4s0.7-0.7,1.3-1s1.2-0.4,1.9-0.4c1,0,1.9,0.3,2.5,0.8s0.9,1.3,0.9,2.2v3.7c0,0.8,0.1,1.4,0.3,1.8v0.1
			H1001.7z M999.8,3776.8c0.3,0,0.6-0.1,0.9-0.2s0.5-0.3,0.6-0.6v-1.5h-0.8c-1.1,0-1.7,0.4-1.8,1.2l0,0.1c0,0.3,0.1,0.5,0.3,0.7
			S999.5,3776.8,999.8,3776.8z"/>
	</g>
	<g class="st1">
		<path class="st7" d="M601.9,3774.3v4h-2.3V3767h4.4c0.9,0,1.6,0.2,2.3,0.5s1.1,0.8,1.5,1.3c0.3,0.6,0.5,1.2,0.5,2
			c0,1.1-0.4,2-1.1,2.6c-0.8,0.6-1.8,1-3.2,1H601.9z M601.9,3772.4h2.1c0.6,0,1.1-0.1,1.4-0.4c0.3-0.3,0.5-0.7,0.5-1.2
			c0-0.6-0.2-1-0.5-1.4s-0.8-0.5-1.4-0.5h-2.1V3772.4z"/>
		<path class="st7" d="M614.5,3772c-0.3,0-0.6-0.1-0.8-0.1c-0.9,0-1.4,0.3-1.7,0.9v5.5h-2.3v-8.5h2.1l0.1,1c0.5-0.8,1.1-1.2,1.9-1.2
			c0.2,0,0.5,0,0.7,0.1L614.5,3772z"/>
		<path class="st7" d="M614.9,3774c0-0.8,0.2-1.6,0.5-2.2c0.3-0.7,0.8-1.2,1.4-1.5c0.6-0.4,1.3-0.5,2.1-0.5c1.1,0,2.1,0.3,2.8,1
			c0.7,0.7,1.1,1.6,1.2,2.8l0,0.6c0,1.3-0.4,2.3-1.1,3.1c-0.7,0.8-1.7,1.2-2.9,1.2s-2.2-0.4-2.9-1.2s-1.1-1.8-1.1-3.2V3774z
			 M617.2,3774.2c0,0.8,0.2,1.4,0.5,1.8c0.3,0.4,0.7,0.6,1.3,0.6c0.5,0,1-0.2,1.3-0.6c0.3-0.4,0.5-1.1,0.5-2c0-0.8-0.2-1.4-0.5-1.8
			c-0.3-0.4-0.7-0.6-1.3-0.6c-0.6,0-1,0.2-1.3,0.6C617.3,3772.6,617.2,3773.3,617.2,3774.2z"/>
		<path class="st7" d="M624.9,3778.3v-6.8h-1.3v-1.7h1.3v-0.7c0-0.9,0.3-1.7,0.8-2.2c0.5-0.5,1.3-0.8,2.3-0.8c0.3,0,0.7,0.1,1.1,0.2
			l0,1.8c-0.2,0-0.4-0.1-0.7-0.1c-0.8,0-1.3,0.4-1.3,1.2v0.7h1.7v1.7h-1.7v6.8H624.9z"/>
		<path class="st7" d="M635.1,3777.5c-0.6,0.7-1.3,1-2.3,1c-0.9,0-1.6-0.3-2.1-0.8s-0.7-1.3-0.7-2.3v-5.5h2.3v5.5
			c0,0.9,0.4,1.3,1.2,1.3c0.8,0,1.3-0.3,1.6-0.8v-6h2.3v8.5h-2.1L635.1,3777.5z"/>
		<path class="st7" d="M641.1,3769.9l0.1,1c0.6-0.8,1.4-1.1,2.4-1.1c0.9,0,1.6,0.3,2,0.8s0.7,1.3,0.7,2.4v5.5H644v-5.4
			c0-0.5-0.1-0.8-0.3-1c-0.2-0.2-0.6-0.3-1-0.3c-0.6,0-1.1,0.3-1.4,0.8v6H639v-8.5H641.1z"/>
		<path class="st7" d="M647.6,3774c0-1.3,0.3-2.4,0.9-3.1c0.6-0.8,1.4-1.2,2.4-1.2c0.8,0,1.5,0.3,2,0.9v-4.3h2.3v12h-2l-0.1-0.9
			c-0.6,0.7-1.3,1.1-2.2,1.1c-1,0-1.8-0.4-2.4-1.2S647.6,3775.4,647.6,3774z M649.9,3774.2c0,0.8,0.1,1.4,0.4,1.8
			c0.3,0.4,0.7,0.6,1.2,0.6c0.7,0,1.2-0.3,1.5-0.9v-3.3c-0.3-0.6-0.8-0.9-1.5-0.9C650.4,3771.6,649.9,3772.4,649.9,3774.2z"/>
		<path class="st7" d="M657,3767.7c0-0.3,0.1-0.6,0.3-0.8s0.5-0.3,0.9-0.3c0.4,0,0.7,0.1,0.9,0.3c0.2,0.2,0.3,0.5,0.3,0.8
			c0,0.3-0.1,0.6-0.3,0.8c-0.2,0.2-0.5,0.3-0.9,0.3c-0.4,0-0.7-0.1-0.9-0.3C657.1,3768.3,657,3768,657,3767.7z M659.4,3778.3h-2.3
			v-8.5h2.3V3778.3z"/>
		<path class="st7" d="M660.9,3774c0-1.3,0.3-2.4,0.9-3.1c0.6-0.8,1.4-1.2,2.4-1.2c0.8,0,1.5,0.3,2,0.9v-4.3h2.3v12h-2l-0.1-0.9
			c-0.6,0.7-1.3,1.1-2.2,1.1c-1,0-1.8-0.4-2.4-1.2S660.9,3775.4,660.9,3774z M663.1,3774.2c0,0.8,0.1,1.4,0.4,1.8
			c0.3,0.4,0.7,0.6,1.2,0.6c0.7,0,1.2-0.3,1.5-0.9v-3.3c-0.3-0.6-0.8-0.9-1.5-0.9C663.7,3771.6,663.1,3772.4,663.1,3774.2z"/>
		<path class="st7" d="M675.2,3778.3c-0.1-0.2-0.2-0.5-0.2-0.8c-0.5,0.6-1.3,0.9-2.1,0.9c-0.8,0-1.5-0.2-2.1-0.7
			c-0.5-0.5-0.8-1.1-0.8-1.8c0-0.9,0.3-1.6,1-2.1s1.6-0.7,2.9-0.7h1v-0.5c0-0.4-0.1-0.7-0.3-0.9c-0.2-0.2-0.5-0.4-0.9-0.4
			c-0.4,0-0.7,0.1-0.9,0.3c-0.2,0.2-0.3,0.4-0.3,0.8h-2.3c0-0.5,0.2-0.9,0.5-1.4c0.3-0.4,0.7-0.7,1.3-1c0.6-0.2,1.2-0.4,1.9-0.4
			c1,0,1.9,0.3,2.5,0.8c0.6,0.5,0.9,1.3,0.9,2.2v3.7c0,0.8,0.1,1.4,0.3,1.8v0.1H675.2z M673.3,3776.8c0.3,0,0.6-0.1,0.9-0.2
			s0.5-0.3,0.6-0.6v-1.5H674c-1.1,0-1.7,0.4-1.8,1.2l0,0.1c0,0.3,0.1,0.5,0.3,0.7C672.7,3776.7,672.9,3776.8,673.3,3776.8z"/>
		<path class="st7" d="M678.5,3774c0-1.3,0.3-2.4,0.9-3.1c0.6-0.8,1.4-1.2,2.4-1.2c0.8,0,1.5,0.3,2,0.9v-4.3h2.3v12h-2l-0.1-0.9
			c-0.6,0.7-1.3,1.1-2.2,1.1c-1,0-1.8-0.4-2.4-1.2S678.5,3775.4,678.5,3774z M680.7,3774.2c0,0.8,0.1,1.4,0.4,1.8
			c0.3,0.4,0.7,0.6,1.2,0.6c0.7,0,1.2-0.3,1.5-0.9v-3.3c-0.3-0.6-0.8-0.9-1.5-0.9C681.3,3771.6,680.7,3772.4,680.7,3774.2z"/>
	</g>
	<g class="st1">
		<path class="st7" d="M314.1,3772.9c0,1.1-0.2,2.1-0.6,2.9c-0.4,0.8-1,1.5-1.7,2c-0.7,0.5-1.6,0.7-2.5,0.7c-0.9,0-1.8-0.2-2.5-0.7
			c-0.7-0.5-1.3-1.1-1.7-1.9s-0.6-1.8-0.6-2.9v-0.6c0-1.1,0.2-2.1,0.6-3c0.4-0.9,1-1.5,1.7-2c0.7-0.5,1.6-0.7,2.5-0.7
			c0.9,0,1.8,0.2,2.5,0.7c0.7,0.5,1.3,1.1,1.7,2c0.4,0.9,0.6,1.8,0.6,2.9V3772.9z M311.8,3772.4c0-1.2-0.2-2.1-0.6-2.7
			c-0.4-0.6-1-0.9-1.8-0.9c-0.8,0-1.4,0.3-1.8,0.9c-0.4,0.6-0.6,1.5-0.6,2.7v0.6c0,1.2,0.2,2.1,0.6,2.7c0.4,0.6,1,1,1.8,1
			c0.8,0,1.4-0.3,1.8-0.9s0.6-1.5,0.6-2.7V3772.4z"/>
		<path class="st7" d="M320.4,3772c-0.3,0-0.6-0.1-0.8-0.1c-0.9,0-1.4,0.3-1.7,0.9v5.5h-2.3v-8.5h2.1l0.1,1c0.5-0.8,1.1-1.2,1.9-1.2
			c0.2,0,0.5,0,0.7,0.1L320.4,3772z"/>
		<path class="st7" d="M321.5,3767.7c0-0.3,0.1-0.6,0.3-0.8s0.5-0.3,0.9-0.3c0.4,0,0.7,0.1,0.9,0.3c0.2,0.2,0.3,0.5,0.3,0.8
			c0,0.3-0.1,0.6-0.3,0.8c-0.2,0.2-0.5,0.3-0.9,0.3c-0.4,0-0.7-0.1-0.9-0.3C321.6,3768.3,321.5,3768,321.5,3767.7z M323.9,3778.3
			h-2.3v-8.5h2.3V3778.3z"/>
		<path class="st7" d="M325.4,3774c0-1.3,0.3-2.3,0.9-3.1s1.4-1.2,2.5-1.2c0.9,0,1.6,0.3,2.2,1l0.1-0.8h2v8.2c0,0.7-0.2,1.4-0.5,1.9
			s-0.8,1-1.4,1.2s-1.3,0.4-2.1,0.4c-0.6,0-1.2-0.1-1.8-0.4c-0.6-0.2-1-0.6-1.3-1l1-1.4c0.6,0.6,1.2,0.9,2,0.9
			c0.6,0,1.1-0.2,1.4-0.5c0.3-0.3,0.5-0.8,0.5-1.4v-0.5c-0.5,0.6-1.2,0.9-2.1,0.9c-1,0-1.8-0.4-2.5-1.2
			C325.8,3776.5,325.4,3775.5,325.4,3774L325.4,3774z M327.7,3774.2c0,0.8,0.2,1.4,0.5,1.8c0.3,0.4,0.7,0.7,1.3,0.7
			c0.7,0,1.2-0.3,1.5-0.8v-3.6c-0.3-0.5-0.8-0.8-1.5-0.8c-0.5,0-1,0.2-1.3,0.7C327.9,3772.7,327.7,3773.3,327.7,3774.2z"/>
		<path class="st7" d="M338.8,3778.5c-1.2,0-2.2-0.4-3-1.1c-0.8-0.8-1.2-1.8-1.2-3v-0.2c0-0.8,0.2-1.6,0.5-2.3s0.8-1.2,1.4-1.5
			s1.3-0.5,2.1-0.5c1.2,0,2.1,0.4,2.7,1.1s1,1.8,1,3.1v0.9h-5.4c0.1,0.6,0.3,1,0.7,1.3s0.8,0.5,1.4,0.5c0.9,0,1.5-0.3,2-0.9l1.1,1.2
			c-0.3,0.5-0.8,0.9-1.4,1.1S339.5,3778.5,338.8,3778.5z M338.5,3771.5c-0.4,0-0.8,0.2-1.1,0.5c-0.3,0.3-0.5,0.7-0.5,1.3h3.1v-0.2
			c0-0.5-0.1-0.9-0.4-1.2C339.4,3771.7,339,3771.5,338.5,3771.5z"/>
		<path class="st7" d="M345.6,3769.9l0.1,1c0.6-0.8,1.4-1.1,2.4-1.1c0.9,0,1.6,0.3,2,0.8s0.7,1.3,0.7,2.4v5.5h-2.3v-5.4
			c0-0.5-0.1-0.8-0.3-1c-0.2-0.2-0.6-0.3-1-0.3c-0.6,0-1.1,0.3-1.4,0.8v6h-2.3v-8.5H345.6z"/>
	</g>
	<g class="st1">
		<path class="st7" d="M345.3,3854H343l-4.6-7.5v7.5h-2.3v-11.4h2.3l4.6,7.5v-7.5h2.3V3854z"/>
		<path class="st7" d="M346.9,3849.7c0-0.8,0.2-1.6,0.5-2.2c0.3-0.7,0.8-1.2,1.4-1.5c0.6-0.4,1.3-0.5,2.1-0.5c1.1,0,2.1,0.3,2.8,1
			c0.7,0.7,1.1,1.6,1.2,2.8l0,0.6c0,1.3-0.4,2.3-1.1,3.1c-0.7,0.8-1.7,1.2-2.9,1.2s-2.2-0.4-2.9-1.2s-1.1-1.8-1.1-3.2V3849.7z
			 M349.1,3849.9c0,0.8,0.2,1.4,0.5,1.8c0.3,0.4,0.7,0.6,1.3,0.6c0.5,0,1-0.2,1.3-0.6c0.3-0.4,0.5-1.1,0.5-2c0-0.8-0.2-1.4-0.5-1.8
			c-0.3-0.4-0.7-0.6-1.3-0.6c-0.6,0-1,0.2-1.3,0.6C349.3,3848.3,349.1,3849,349.1,3849.9z"/>
		<path class="st7" d="M361,3847.7c-0.3,0-0.6-0.1-0.8-0.1c-0.9,0-1.4,0.3-1.7,0.9v5.5h-2.3v-8.5h2.1l0.1,1c0.5-0.8,1.1-1.2,1.9-1.2
			c0.2,0,0.5,0,0.7,0.1L361,3847.7z"/>
		<path class="st7" d="M364.2,3845.5l0.1,0.9c0.6-0.7,1.4-1.1,2.4-1.1c1.1,0,1.8,0.4,2.2,1.3c0.6-0.9,1.4-1.3,2.5-1.3
			c0.9,0,1.6,0.3,2,0.8c0.4,0.5,0.7,1.3,0.7,2.4v5.4H372v-5.4c0-0.5-0.1-0.8-0.3-1.1s-0.5-0.3-1-0.3c-0.7,0-1.1,0.3-1.4,1l0,5.8H367
			v-5.4c0-0.5-0.1-0.8-0.3-1.1c-0.2-0.2-0.5-0.3-1-0.3c-0.6,0-1.1,0.3-1.4,0.8v6h-2.3v-8.5H364.2z"/>
		<path class="st7" d="M380.9,3854c-0.1-0.2-0.2-0.5-0.2-0.8c-0.5,0.6-1.3,0.9-2.1,0.9c-0.8,0-1.5-0.2-2.1-0.7
			c-0.5-0.5-0.8-1.1-0.8-1.8c0-0.9,0.3-1.6,1-2.1s1.6-0.7,2.9-0.7h1v-0.5c0-0.4-0.1-0.7-0.3-0.9c-0.2-0.2-0.5-0.4-0.9-0.4
			c-0.4,0-0.7,0.1-0.9,0.3c-0.2,0.2-0.3,0.4-0.3,0.8h-2.3c0-0.5,0.2-0.9,0.5-1.4c0.3-0.4,0.7-0.7,1.3-1c0.6-0.2,1.2-0.4,1.9-0.4
			c1,0,1.9,0.3,2.5,0.8c0.6,0.5,0.9,1.3,0.9,2.2v3.7c0,0.8,0.1,1.4,0.3,1.8v0.1H380.9z M379,3852.4c0.3,0,0.6-0.1,0.9-0.2
			s0.5-0.3,0.6-0.6v-1.5h-0.8c-1.1,0-1.7,0.4-1.8,1.2l0,0.1c0,0.3,0.1,0.5,0.3,0.7C378.4,3852.3,378.7,3852.4,379,3852.4z"/>
		<path class="st7" d="M386.9,3854h-2.3v-12h2.3V3854z"/>
		<path class="st7" d="M392.7,3854.2c-1.2,0-2.2-0.4-3-1.1c-0.8-0.8-1.2-1.8-1.2-3v-0.2c0-0.8,0.2-1.6,0.5-2.3s0.8-1.2,1.4-1.5
			s1.3-0.5,2.1-0.5c1.2,0,2.1,0.4,2.7,1.1s1,1.8,1,3.1v0.9h-5.4c0.1,0.6,0.3,1,0.7,1.3s0.8,0.5,1.4,0.5c0.9,0,1.5-0.3,2-0.9l1.1,1.2
			c-0.3,0.5-0.8,0.9-1.4,1.1S393.4,3854.2,392.7,3854.2z M392.4,3847.2c-0.4,0-0.8,0.2-1.1,0.5c-0.3,0.3-0.5,0.7-0.5,1.3h3.1v-0.2
			c0-0.5-0.1-0.9-0.4-1.2C393.3,3847.4,392.9,3847.2,392.4,3847.2z"/>
		<path class="st7" d="M402,3851.7c0-0.3-0.1-0.5-0.4-0.7s-0.7-0.3-1.3-0.4c-2-0.4-3-1.3-3-2.6c0-0.8,0.3-1.4,0.9-1.9
			c0.6-0.5,1.4-0.8,2.4-0.8c1.1,0,1.9,0.3,2.6,0.8c0.6,0.5,1,1.2,1,2h-2.3c0-0.3-0.1-0.6-0.3-0.8c-0.2-0.2-0.5-0.3-1-0.3
			c-0.4,0-0.7,0.1-0.9,0.3c-0.2,0.2-0.3,0.4-0.3,0.7c0,0.2,0.1,0.5,0.4,0.6c0.2,0.2,0.6,0.3,1.2,0.4s1,0.2,1.4,0.4
			c1.2,0.4,1.8,1.2,1.8,2.3c0,0.8-0.3,1.4-1,1.9c-0.7,0.5-1.5,0.7-2.6,0.7c-0.7,0-1.3-0.1-1.9-0.4c-0.5-0.3-1-0.6-1.3-1
			s-0.5-0.9-0.5-1.4h2.1c0,0.4,0.2,0.7,0.4,0.9c0.3,0.2,0.6,0.3,1.1,0.3c0.4,0,0.8-0.1,1-0.2C401.9,3852.1,402,3851.9,402,3851.7z"
			/>
	</g>
	<g class="st1">
		<path class="st7" d="M649.5,3850v4h-2.3v-11.4h4.4c0.9,0,1.6,0.2,2.3,0.5s1.1,0.8,1.5,1.3c0.3,0.6,0.5,1.2,0.5,2
			c0,1.1-0.4,2-1.1,2.6c-0.8,0.6-1.8,1-3.2,1H649.5z M649.5,3848.1h2.1c0.6,0,1.1-0.1,1.4-0.4c0.3-0.3,0.5-0.7,0.5-1.2
			c0-0.6-0.2-1-0.5-1.4s-0.8-0.5-1.4-0.5h-2.1V3848.1z"/>
		<path class="st7" d="M657.3,3843.4c0-0.3,0.1-0.6,0.3-0.8s0.5-0.3,0.9-0.3c0.4,0,0.7,0.1,0.9,0.3c0.2,0.2,0.3,0.5,0.3,0.8
			c0,0.3-0.1,0.6-0.3,0.8c-0.2,0.2-0.5,0.3-0.9,0.3c-0.4,0-0.7-0.1-0.9-0.3C657.4,3844,657.3,3843.7,657.3,3843.4z M659.7,3854h-2.3
			v-8.5h2.3V3854z"/>
		<path class="st7" d="M664.7,3851.2l1.6-5.7h2.4l-2.9,8.5h-2.2l-2.9-8.5h2.4L664.7,3851.2z"/>
		<path class="st7" d="M669.2,3849.7c0-0.8,0.2-1.6,0.5-2.2c0.3-0.7,0.8-1.2,1.4-1.5c0.6-0.4,1.3-0.5,2.1-0.5c1.1,0,2.1,0.3,2.8,1
			c0.7,0.7,1.1,1.6,1.2,2.8l0,0.6c0,1.3-0.4,2.3-1.1,3.1c-0.7,0.8-1.7,1.2-2.9,1.2s-2.2-0.4-2.9-1.2s-1.1-1.8-1.1-3.2V3849.7z
			 M671.4,3849.9c0,0.8,0.2,1.4,0.5,1.8c0.3,0.4,0.7,0.6,1.3,0.6c0.5,0,1-0.2,1.3-0.6c0.3-0.4,0.5-1.1,0.5-2c0-0.8-0.2-1.4-0.5-1.8
			c-0.3-0.4-0.7-0.6-1.3-0.6c-0.6,0-1,0.2-1.3,0.6C671.6,3848.3,671.4,3849,671.4,3849.9z"/>
		<path class="st7" d="M681.3,3843.5v2.1h1.4v1.7h-1.4v4.2c0,0.3,0.1,0.5,0.2,0.7c0.1,0.1,0.3,0.2,0.7,0.2c0.2,0,0.5,0,0.7-0.1v1.7
			c-0.4,0.1-0.9,0.2-1.4,0.2c-1.6,0-2.4-0.8-2.4-2.4v-4.6h-1.2v-1.7h1.2v-2.1H681.3z"/>
		<path class="st7" d="M688.9,3854c-0.1-0.2-0.2-0.5-0.2-0.8c-0.5,0.6-1.3,0.9-2.1,0.9c-0.8,0-1.5-0.2-2.1-0.7
			c-0.5-0.5-0.8-1.1-0.8-1.8c0-0.9,0.3-1.6,1-2.1s1.6-0.7,2.9-0.7h1v-0.5c0-0.4-0.1-0.7-0.3-0.9c-0.2-0.2-0.5-0.4-0.9-0.4
			c-0.4,0-0.7,0.1-0.9,0.3c-0.2,0.2-0.3,0.4-0.3,0.8h-2.3c0-0.5,0.2-0.9,0.5-1.4c0.3-0.4,0.7-0.7,1.3-1c0.6-0.2,1.2-0.4,1.9-0.4
			c1,0,1.9,0.3,2.5,0.8c0.6,0.5,0.9,1.3,0.9,2.2v3.7c0,0.8,0.1,1.4,0.3,1.8v0.1H688.9z M687,3852.4c0.3,0,0.6-0.1,0.9-0.2
			s0.5-0.3,0.6-0.6v-1.5h-0.8c-1.1,0-1.7,0.4-1.8,1.2l0,0.1c0,0.3,0.1,0.5,0.3,0.7C686.4,3852.3,686.6,3852.4,687,3852.4z"/>
		<path class="st7" d="M694.6,3845.5l0.1,1c0.6-0.8,1.4-1.1,2.4-1.1c0.9,0,1.6,0.3,2,0.8s0.7,1.3,0.7,2.4v5.5h-2.3v-5.4
			c0-0.5-0.1-0.8-0.3-1c-0.2-0.2-0.6-0.3-1-0.3c-0.6,0-1.1,0.3-1.4,0.8v6h-2.3v-8.5H694.6z"/>
		<path class="st7" d="M704.2,3843.5v2.1h1.4v1.7h-1.4v4.2c0,0.3,0.1,0.5,0.2,0.7c0.1,0.1,0.3,0.2,0.7,0.2c0.2,0,0.5,0,0.7-0.1v1.7
			c-0.4,0.1-0.9,0.2-1.4,0.2c-1.6,0-2.4-0.8-2.4-2.4v-4.6h-1.2v-1.7h1.2v-2.1H704.2z"/>
		<path class="st7" d="M710.8,3854.2c-1.2,0-2.2-0.4-3-1.1c-0.8-0.8-1.2-1.8-1.2-3v-0.2c0-0.8,0.2-1.6,0.5-2.3s0.8-1.2,1.4-1.5
			s1.3-0.5,2.1-0.5c1.2,0,2.1,0.4,2.7,1.1s1,1.8,1,3.1v0.9h-5.4c0.1,0.6,0.3,1,0.7,1.3s0.8,0.5,1.4,0.5c0.9,0,1.5-0.3,2-0.9l1.1,1.2
			c-0.3,0.5-0.8,0.9-1.4,1.1S711.5,3854.2,710.8,3854.2z M710.5,3847.2c-0.4,0-0.8,0.2-1.1,0.5c-0.3,0.3-0.5,0.7-0.5,1.3h3.1v-0.2
			c0-0.5-0.1-0.9-0.4-1.2C711.4,3847.4,711,3847.2,710.5,3847.2z"/>
		<path class="st7" d="M720.1,3851.7c0-0.3-0.1-0.5-0.4-0.7s-0.7-0.3-1.3-0.4c-2-0.4-3-1.3-3-2.6c0-0.8,0.3-1.4,0.9-1.9
			c0.6-0.5,1.4-0.8,2.4-0.8c1.1,0,1.9,0.3,2.6,0.8c0.6,0.5,1,1.2,1,2H720c0-0.3-0.1-0.6-0.3-0.8c-0.2-0.2-0.5-0.3-1-0.3
			c-0.4,0-0.7,0.1-0.9,0.3c-0.2,0.2-0.3,0.4-0.3,0.7c0,0.2,0.1,0.5,0.4,0.6c0.2,0.2,0.6,0.3,1.2,0.4s1,0.2,1.4,0.4
			c1.2,0.4,1.8,1.2,1.8,2.3c0,0.8-0.3,1.4-1,1.9c-0.7,0.5-1.5,0.7-2.6,0.7c-0.7,0-1.3-0.1-1.9-0.4c-0.5-0.3-1-0.6-1.3-1
			s-0.5-0.9-0.5-1.4h2.1c0,0.4,0.2,0.7,0.4,0.9c0.3,0.2,0.6,0.3,1.1,0.3c0.4,0,0.8-0.1,1-0.2C720,3852.1,720.1,3851.9,720.1,3851.7z
			"/>
	</g>
	<g class="st1">
		<path class="st7" d="M973,3852.1h5v1.9h-7.3v-11.4h2.3V3852.1z"/>
		<path class="st7" d="M983.1,3854.2c-1.2,0-2.2-0.4-3-1.1s-1.2-1.8-1.2-3v-0.2c0-0.8,0.2-1.6,0.5-2.3s0.8-1.2,1.4-1.5
			s1.3-0.5,2.1-0.5c1.2,0,2.1,0.4,2.7,1.1s1,1.8,1,3.1v0.9h-5.4c0.1,0.6,0.3,1,0.7,1.3s0.8,0.5,1.4,0.5c0.9,0,1.5-0.3,2-0.9l1.1,1.2
			c-0.3,0.5-0.8,0.9-1.4,1.1S983.8,3854.2,983.1,3854.2z M982.8,3847.2c-0.4,0-0.8,0.2-1.1,0.5s-0.5,0.7-0.5,1.3h3.1v-0.2
			c0-0.5-0.1-0.9-0.4-1.2S983.3,3847.2,982.8,3847.2z"/>
		<path class="st7" d="M989.9,3845.5l0.1,1c0.6-0.8,1.4-1.1,2.4-1.1c0.9,0,1.6,0.3,2,0.8s0.7,1.3,0.7,2.4v5.5h-2.3v-5.4
			c0-0.5-0.1-0.8-0.3-1s-0.6-0.3-1-0.3c-0.6,0-1.1,0.3-1.4,0.8v6h-2.3v-8.5H989.9z M994.4,3842.1c0,0.6-0.2,1.1-0.5,1.5
			s-0.8,0.6-1.3,0.6c-0.2,0-0.4,0-0.5-0.1s-0.4-0.1-0.6-0.3s-0.5-0.2-0.6-0.3s-0.2-0.1-0.4-0.1c-0.2,0-0.3,0.1-0.5,0.2
			s-0.2,0.3-0.2,0.6l-1.3-0.1c0-0.6,0.2-1.1,0.5-1.5s0.8-0.6,1.3-0.6c0.2,0,0.3,0,0.4,0.1s0.4,0.1,0.7,0.3s0.5,0.2,0.6,0.3
			s0.2,0,0.4,0c0.2,0,0.3-0.1,0.5-0.2s0.2-0.3,0.2-0.6L994.4,3842.1z"/>
		<path class="st7" d="M996.4,3849.7c0-0.8,0.2-1.6,0.5-2.2s0.8-1.2,1.4-1.5s1.3-0.5,2.1-0.5c1.1,0,2.1,0.3,2.8,1s1.1,1.6,1.2,2.8
			l0,0.6c0,1.3-0.4,2.3-1.1,3.1s-1.7,1.2-2.9,1.2s-2.2-0.4-2.9-1.2s-1.1-1.8-1.1-3.2V3849.7z M998.7,3849.9c0,0.8,0.2,1.4,0.5,1.8
			s0.7,0.6,1.3,0.6c0.5,0,1-0.2,1.3-0.6s0.5-1.1,0.5-2c0-0.8-0.2-1.4-0.5-1.8s-0.7-0.6-1.3-0.6c-0.6,0-1,0.2-1.3,0.6
			S998.7,3849,998.7,3849.9z"/>
		<path class="st7" d="M1010.4,3851.7c0-0.3-0.1-0.5-0.4-0.7s-0.7-0.3-1.3-0.4c-2-0.4-3-1.3-3-2.6c0-0.8,0.3-1.4,0.9-1.9
			s1.4-0.8,2.4-0.8c1.1,0,1.9,0.3,2.6,0.8s1,1.2,1,2h-2.3c0-0.3-0.1-0.6-0.3-0.8s-0.5-0.3-1-0.3c-0.4,0-0.7,0.1-0.9,0.3
			s-0.3,0.4-0.3,0.7c0,0.2,0.1,0.5,0.4,0.6s0.6,0.3,1.2,0.4s1,0.2,1.4,0.4c1.2,0.4,1.8,1.2,1.8,2.3c0,0.8-0.3,1.4-1,1.9
			s-1.5,0.7-2.6,0.7c-0.7,0-1.3-0.1-1.9-0.4s-1-0.6-1.3-1s-0.5-0.9-0.5-1.4h2.1c0,0.4,0.2,0.7,0.4,0.9s0.6,0.3,1.1,0.3
			c0.4,0,0.8-0.1,1-0.2S1010.4,3851.9,1010.4,3851.7z"/>
		<path class="st7" d="M1019,3854c-0.1-0.2-0.2-0.5-0.2-0.8c-0.5,0.6-1.3,0.9-2.1,0.9c-0.8,0-1.5-0.2-2.1-0.7s-0.8-1.1-0.8-1.8
			c0-0.9,0.3-1.6,1-2.1s1.6-0.7,2.9-0.7h1v-0.5c0-0.4-0.1-0.7-0.3-0.9s-0.5-0.4-0.9-0.4c-0.4,0-0.7,0.1-0.9,0.3s-0.3,0.4-0.3,0.8
			h-2.3c0-0.5,0.2-0.9,0.5-1.4s0.7-0.7,1.3-1s1.2-0.4,1.9-0.4c1,0,1.9,0.3,2.5,0.8s0.9,1.3,0.9,2.2v3.7c0,0.8,0.1,1.4,0.3,1.8v0.1
			H1019z M1017.1,3852.4c0.3,0,0.6-0.1,0.9-0.2s0.5-0.3,0.6-0.6v-1.5h-0.8c-1.1,0-1.7,0.4-1.8,1.2l0,0.1c0,0.3,0.1,0.5,0.3,0.7
			S1016.7,3852.4,1017.1,3852.4z"/>
		<path class="st7" d="M1027.2,3851.7c0-0.3-0.1-0.5-0.4-0.7s-0.7-0.3-1.3-0.4c-2-0.4-3-1.3-3-2.6c0-0.8,0.3-1.4,0.9-1.9
			s1.4-0.8,2.4-0.8c1.1,0,1.9,0.3,2.6,0.8s1,1.2,1,2h-2.3c0-0.3-0.1-0.6-0.3-0.8s-0.5-0.3-1-0.3c-0.4,0-0.7,0.1-0.9,0.3
			s-0.3,0.4-0.3,0.7c0,0.2,0.1,0.5,0.4,0.6s0.6,0.3,1.2,0.4s1,0.2,1.4,0.4c1.2,0.4,1.8,1.2,1.8,2.3c0,0.8-0.3,1.4-1,1.9
			s-1.5,0.7-2.6,0.7c-0.7,0-1.3-0.1-1.9-0.4s-1-0.6-1.3-1s-0.5-0.9-0.5-1.4h2.1c0,0.4,0.2,0.7,0.4,0.9s0.6,0.3,1.1,0.3
			c0.4,0,0.8-0.1,1-0.2S1027.2,3851.9,1027.2,3851.7z"/>
	</g>
	<g class="st1">
		<path class="st7" d="M1290.9,3854h-2.3v-4.9h-4.6v4.9h-2.3v-11.4h2.3v4.6h4.6v-4.6h2.3V3854z"/>
		<path class="st7" d="M1292.8,3843.4c0-0.3,0.1-0.6,0.3-0.8s0.5-0.3,0.9-0.3c0.4,0,0.7,0.1,0.9,0.3s0.3,0.5,0.3,0.8
			c0,0.3-0.1,0.6-0.3,0.8s-0.5,0.3-0.9,0.3s-0.7-0.1-0.9-0.3S1292.8,3843.7,1292.8,3843.4z M1295.2,3854h-2.3v-8.5h2.3V3854z"/>
		<path class="st7" d="M1304.7,3849.9c0,1.3-0.3,2.3-0.9,3.1s-1.4,1.2-2.4,1.2c-0.9,0-1.5-0.3-2.1-0.9v4h-2.3v-11.7h2.1l0.1,0.8
			c0.5-0.7,1.3-1,2.1-1c1,0,1.9,0.4,2.4,1.2s0.9,1.8,0.9,3.2V3849.9z M1302.4,3849.7c0-0.8-0.1-1.4-0.4-1.8s-0.7-0.6-1.2-0.6
			c-0.7,0-1.2,0.3-1.5,0.8v3.5c0.3,0.6,0.8,0.8,1.5,0.8C1301.9,3852.3,1302.4,3851.5,1302.4,3849.7z"/>
		<path class="st7" d="M1305.7,3849.7c0-0.8,0.2-1.6,0.5-2.2s0.8-1.2,1.4-1.5s1.3-0.5,2.1-0.5c1.1,0,2.1,0.3,2.8,1s1.1,1.6,1.2,2.8
			l0,0.6c0,1.3-0.4,2.3-1.1,3.1s-1.7,1.2-2.9,1.2s-2.2-0.4-2.9-1.2s-1.1-1.8-1.1-3.2V3849.7z M1308,3849.9c0,0.8,0.2,1.4,0.5,1.8
			s0.7,0.6,1.3,0.6c0.5,0,1-0.2,1.3-0.6s0.5-1.1,0.5-2c0-0.8-0.2-1.4-0.5-1.8s-0.7-0.6-1.3-0.6c-0.6,0-1,0.2-1.3,0.6
			S1308,3849,1308,3849.9z"/>
		<path class="st7" d="M1314.8,3849.7c0-1.3,0.3-2.3,0.9-3.1s1.4-1.2,2.5-1.2c0.9,0,1.6,0.3,2.2,1l0.1-0.8h2v8.2
			c0,0.7-0.2,1.4-0.5,1.9s-0.8,1-1.4,1.2s-1.3,0.4-2.1,0.4c-0.6,0-1.2-0.1-1.8-0.4s-1-0.6-1.3-1l1-1.4c0.6,0.6,1.2,0.9,2,0.9
			c0.6,0,1.1-0.2,1.4-0.5s0.5-0.8,0.5-1.4v-0.5c-0.5,0.6-1.2,0.9-2.1,0.9c-1,0-1.8-0.4-2.5-1.2S1314.8,3851.1,1314.8,3849.7
			L1314.8,3849.7z M1317.1,3849.9c0,0.8,0.2,1.4,0.5,1.8s0.7,0.7,1.3,0.7c0.7,0,1.2-0.3,1.5-0.8v-3.6c-0.3-0.5-0.8-0.8-1.5-0.8
			c-0.5,0-1,0.2-1.3,0.7S1317.1,3849,1317.1,3849.9z"/>
		<path class="st7" d="M1328.2,3854.2c-1.2,0-2.2-0.4-3-1.1s-1.2-1.8-1.2-3v-0.2c0-0.8,0.2-1.6,0.5-2.3s0.8-1.2,1.4-1.5
			s1.3-0.5,2.1-0.5c1.2,0,2.1,0.4,2.7,1.1s1,1.8,1,3.1v0.9h-5.4c0.1,0.6,0.3,1,0.7,1.3s0.8,0.5,1.4,0.5c0.9,0,1.5-0.3,2-0.9l1.1,1.2
			c-0.3,0.5-0.8,0.9-1.4,1.1S1328.9,3854.2,1328.2,3854.2z M1327.9,3847.2c-0.4,0-0.8,0.2-1.1,0.5s-0.5,0.7-0.5,1.3h3.1v-0.2
			c0-0.5-0.1-0.9-0.4-1.2S1328.4,3847.2,1327.9,3847.2z"/>
		<path class="st7" d="M1337.8,3854c-0.1-0.2-0.2-0.5-0.2-0.8c-0.5,0.6-1.3,0.9-2.1,0.9c-0.8,0-1.5-0.2-2.1-0.7s-0.8-1.1-0.8-1.8
			c0-0.9,0.3-1.6,1-2.1s1.6-0.7,2.9-0.7h1v-0.5c0-0.4-0.1-0.7-0.3-0.9s-0.5-0.4-0.9-0.4c-0.4,0-0.7,0.1-0.9,0.3s-0.3,0.4-0.3,0.8
			h-2.3c0-0.5,0.2-0.9,0.5-1.4s0.7-0.7,1.3-1s1.2-0.4,1.9-0.4c1,0,1.9,0.3,2.5,0.8s0.9,1.3,0.9,2.2v3.7c0,0.8,0.1,1.4,0.3,1.8v0.1
			H1337.8z M1335.9,3852.4c0.3,0,0.6-0.1,0.9-0.2s0.5-0.3,0.6-0.6v-1.5h-0.8c-1.1,0-1.7,0.4-1.8,1.2l0,0.1c0,0.3,0.1,0.5,0.3,0.7
			S1335.6,3852.4,1335.9,3852.4z"/>
		<path class="st7" d="M1346.1,3851.7c0-0.3-0.1-0.5-0.4-0.7s-0.7-0.3-1.3-0.4c-2-0.4-3-1.3-3-2.6c0-0.8,0.3-1.4,0.9-1.9
			s1.4-0.8,2.4-0.8c1.1,0,1.9,0.3,2.6,0.8s1,1.2,1,2h-2.3c0-0.3-0.1-0.6-0.3-0.8s-0.5-0.3-1-0.3c-0.4,0-0.7,0.1-0.9,0.3
			s-0.3,0.4-0.3,0.7c0,0.2,0.1,0.5,0.4,0.6s0.6,0.3,1.2,0.4s1,0.2,1.4,0.4c1.2,0.4,1.8,1.2,1.8,2.3c0,0.8-0.3,1.4-1,1.9
			s-1.5,0.7-2.6,0.7c-0.7,0-1.3-0.1-1.9-0.4s-1-0.6-1.3-1s-0.5-0.9-0.5-1.4h2.1c0,0.4,0.2,0.7,0.4,0.9s0.6,0.3,1.1,0.3
			c0.4,0,0.8-0.1,1-0.2S1346.1,3851.9,1346.1,3851.7z"/>
	</g>
	<g class="st1">
		<path class="st7" d="M334.9,3927.3h-4.1l-0.8,2.3h-2.5l4.2-11.4h2.2l4.3,11.4h-2.5L334.9,3927.3z M331.4,3925.4h2.8l-1.4-4.3
			L331.4,3925.4z"/>
		<path class="st7" d="M338.7,3925.4c0-1.3,0.3-2.4,0.9-3.1c0.6-0.8,1.4-1.2,2.4-1.2c0.8,0,1.5,0.3,2,0.9v-4.3h2.3v12h-2l-0.1-0.9
			c-0.6,0.7-1.3,1.1-2.2,1.1c-1,0-1.8-0.4-2.4-1.2S338.7,3926.8,338.7,3925.4z M341,3925.5c0,0.8,0.1,1.4,0.4,1.8
			c0.3,0.4,0.7,0.6,1.2,0.6c0.7,0,1.2-0.3,1.5-0.9v-3.3c-0.3-0.6-0.8-0.9-1.5-0.9C341.5,3922.9,341,3923.8,341,3925.5z"/>
		<path class="st7" d="M351.3,3926.9l1.6-5.7h2.4l-2.9,8.5h-2.2l-2.9-8.5h2.4L351.3,3926.9z"/>
		<path class="st7" d="M360,3929.8c-1.2,0-2.2-0.4-3-1.1c-0.8-0.8-1.2-1.8-1.2-3v-0.2c0-0.8,0.2-1.6,0.5-2.3s0.8-1.2,1.4-1.5
			s1.3-0.5,2.1-0.5c1.2,0,2.1,0.4,2.7,1.1s1,1.8,1,3.1v0.9h-5.4c0.1,0.6,0.3,1,0.7,1.3s0.8,0.5,1.4,0.5c0.9,0,1.5-0.3,2-0.9l1.1,1.2
			c-0.3,0.5-0.8,0.9-1.4,1.1S360.7,3929.8,360,3929.8z M359.7,3922.9c-0.4,0-0.8,0.2-1.1,0.5c-0.3,0.3-0.5,0.7-0.5,1.3h3.1v-0.2
			c0-0.5-0.1-0.9-0.4-1.2C360.6,3923,360.2,3922.9,359.7,3922.9z"/>
		<path class="st7" d="M366.8,3921.2l0.1,1c0.6-0.8,1.4-1.1,2.4-1.1c0.9,0,1.6,0.3,2,0.8s0.7,1.3,0.7,2.4v5.5h-2.3v-5.4
			c0-0.5-0.1-0.8-0.3-1c-0.2-0.2-0.6-0.3-1-0.3c-0.6,0-1.1,0.3-1.4,0.8v6h-2.3v-8.5H366.8z"/>
		<path class="st7" d="M376.4,3919.1v2.1h1.4v1.7h-1.4v4.2c0,0.3,0.1,0.5,0.2,0.7c0.1,0.1,0.3,0.2,0.7,0.2c0.2,0,0.5,0,0.7-0.1v1.7
			c-0.4,0.1-0.9,0.2-1.4,0.2c-1.6,0-2.4-0.8-2.4-2.4v-4.6h-1.2v-1.7h1.2v-2.1H376.4z"/>
		<path class="st7" d="M379.1,3919c0-0.3,0.1-0.6,0.3-0.8s0.5-0.3,0.9-0.3c0.4,0,0.7,0.1,0.9,0.3c0.2,0.2,0.3,0.5,0.3,0.8
			c0,0.3-0.1,0.6-0.3,0.8c-0.2,0.2-0.5,0.3-0.9,0.3c-0.4,0-0.7-0.1-0.9-0.3C379.2,3919.7,379.1,3919.4,379.1,3919z M381.5,3929.7
			h-2.3v-8.5h2.3V3929.7z"/>
		<path class="st7" d="M386.9,3928c0.4,0,0.8-0.1,1-0.3c0.3-0.2,0.4-0.5,0.4-0.9h2.1c0,0.6-0.2,1.1-0.5,1.6
			c-0.3,0.5-0.7,0.8-1.3,1.1c-0.5,0.3-1.1,0.4-1.8,0.4c-1.2,0-2.2-0.4-2.9-1.2c-0.7-0.8-1-1.8-1-3.2v-0.1c0-1.3,0.3-2.3,1-3.1
			c0.7-0.8,1.6-1.2,2.9-1.2c1.1,0,1.9,0.3,2.5,0.9c0.6,0.6,1,1.4,1,2.4h-2.1c0-0.4-0.1-0.8-0.4-1.1c-0.3-0.3-0.6-0.4-1-0.4
			c-0.5,0-0.9,0.2-1.2,0.6c-0.3,0.4-0.4,1-0.4,1.9v0.2c0,0.9,0.1,1.5,0.4,1.9S386.3,3928,386.9,3928z"/>
		<path class="st7" d="M391.7,3919c0-0.3,0.1-0.6,0.3-0.8s0.5-0.3,0.9-0.3c0.4,0,0.7,0.1,0.9,0.3c0.2,0.2,0.3,0.5,0.3,0.8
			c0,0.3-0.1,0.6-0.3,0.8c-0.2,0.2-0.5,0.3-0.9,0.3c-0.4,0-0.7-0.1-0.9-0.3C391.8,3919.7,391.7,3919.4,391.7,3919z M394.1,3929.7
			h-2.3v-8.5h2.3V3929.7z"/>
		<path class="st7" d="M400.8,3929.7c-0.1-0.2-0.2-0.5-0.2-0.8c-0.5,0.6-1.3,0.9-2.1,0.9c-0.8,0-1.5-0.2-2.1-0.7
			c-0.5-0.5-0.8-1.1-0.8-1.8c0-0.9,0.3-1.6,1-2.1s1.6-0.7,2.9-0.7h1v-0.5c0-0.4-0.1-0.7-0.3-0.9c-0.2-0.2-0.5-0.4-0.9-0.4
			c-0.4,0-0.7,0.1-0.9,0.3c-0.2,0.2-0.3,0.4-0.3,0.8h-2.3c0-0.5,0.2-0.9,0.5-1.4c0.3-0.4,0.7-0.7,1.3-1c0.6-0.2,1.2-0.4,1.9-0.4
			c1,0,1.9,0.3,2.5,0.8c0.6,0.5,0.9,1.3,0.9,2.2v3.7c0,0.8,0.1,1.4,0.3,1.8v0.1H400.8z M399,3928.1c0.3,0,0.6-0.1,0.9-0.2
			s0.5-0.3,0.6-0.6v-1.5h-0.8c-1.1,0-1.7,0.4-1.8,1.2l0,0.1c0,0.3,0.1,0.5,0.3,0.7C398.4,3928,398.6,3928.1,399,3928.1z"/>
		<path class="st7" d="M409.1,3927.3c0-0.3-0.1-0.5-0.4-0.7s-0.7-0.3-1.3-0.4c-2-0.4-3-1.3-3-2.6c0-0.8,0.3-1.4,0.9-1.9
			c0.6-0.5,1.4-0.8,2.4-0.8c1.1,0,1.9,0.3,2.6,0.8c0.6,0.5,1,1.2,1,2H409c0-0.3-0.1-0.6-0.3-0.8c-0.2-0.2-0.5-0.3-1-0.3
			c-0.4,0-0.7,0.1-0.9,0.3c-0.2,0.2-0.3,0.4-0.3,0.7c0,0.2,0.1,0.5,0.4,0.6c0.2,0.2,0.6,0.3,1.2,0.4s1,0.2,1.4,0.4
			c1.2,0.4,1.8,1.2,1.8,2.3c0,0.8-0.3,1.4-1,1.9c-0.7,0.5-1.5,0.7-2.6,0.7c-0.7,0-1.3-0.1-1.9-0.4c-0.5-0.3-1-0.6-1.3-1
			s-0.5-0.9-0.5-1.4h2.1c0,0.4,0.2,0.7,0.4,0.9c0.3,0.2,0.6,0.3,1.1,0.3c0.4,0,0.8-0.1,1-0.2C409,3927.8,409.1,3927.6,409.1,3927.3z
			"/>
	</g>
	<g class="st1">
		<path class="st7" d="M643.9,3926.7c0-0.4-0.2-0.8-0.5-1s-0.9-0.5-1.7-0.8s-1.5-0.5-1.9-0.8c-1.3-0.7-1.9-1.6-1.9-2.8
			c0-0.6,0.2-1.2,0.5-1.6c0.3-0.5,0.8-0.9,1.5-1.1s1.4-0.4,2.2-0.4c0.8,0,1.5,0.1,2.2,0.4c0.6,0.3,1.1,0.7,1.5,1.2s0.5,1.1,0.5,1.8
			H644c0-0.5-0.2-0.9-0.5-1.2s-0.8-0.4-1.4-0.4c-0.6,0-1,0.1-1.3,0.4c-0.3,0.2-0.5,0.6-0.5,1c0,0.4,0.2,0.7,0.6,0.9
			c0.4,0.2,0.9,0.5,1.6,0.7c1.3,0.4,2.3,0.9,2.9,1.5s0.9,1.3,0.9,2.2c0,1-0.4,1.8-1.1,2.3c-0.7,0.6-1.7,0.8-3,0.8
			c-0.9,0-1.7-0.2-2.4-0.5s-1.3-0.8-1.6-1.3c-0.4-0.6-0.6-1.2-0.6-1.9h2.4c0,1.3,0.8,1.9,2.2,1.9c0.6,0,1-0.1,1.3-0.3
			S643.9,3927.1,643.9,3926.7z"/>
		<path class="st7" d="M652.8,3928.8c-0.6,0.7-1.3,1-2.3,1c-0.9,0-1.6-0.3-2.1-0.8s-0.7-1.3-0.7-2.3v-5.5h2.3v5.5
			c0,0.9,0.4,1.3,1.2,1.3c0.8,0,1.3-0.3,1.6-0.8v-6h2.3v8.5h-2.1L652.8,3928.8z"/>
		<path class="st7" d="M664.3,3925.5c0,1.3-0.3,2.3-0.9,3.1c-0.6,0.8-1.4,1.2-2.4,1.2c-0.9,0-1.5-0.3-2.1-0.9v4h-2.3v-11.7h2.1
			l0.1,0.8c0.5-0.7,1.3-1,2.1-1c1,0,1.9,0.4,2.4,1.2s0.9,1.8,0.9,3.2V3925.5z M662,3925.4c0-0.8-0.1-1.4-0.4-1.8
			c-0.3-0.4-0.7-0.6-1.2-0.6c-0.7,0-1.2,0.3-1.5,0.8v3.5c0.3,0.6,0.8,0.8,1.5,0.8C661.5,3928,662,3927.1,662,3925.4z"/>
		<path class="st7" d="M669.6,3929.8c-1.2,0-2.2-0.4-3-1.1c-0.8-0.8-1.2-1.8-1.2-3v-0.2c0-0.8,0.2-1.6,0.5-2.3s0.8-1.2,1.4-1.5
			s1.3-0.5,2.1-0.5c1.2,0,2.1,0.4,2.7,1.1s1,1.8,1,3.1v0.9h-5.4c0.1,0.6,0.3,1,0.7,1.3s0.8,0.5,1.4,0.5c0.9,0,1.5-0.3,2-0.9l1.1,1.2
			c-0.3,0.5-0.8,0.9-1.4,1.1S670.3,3929.8,669.6,3929.8z M669.3,3922.9c-0.4,0-0.8,0.2-1.1,0.5c-0.3,0.3-0.5,0.7-0.5,1.3h3.1v-0.2
			c0-0.5-0.1-0.9-0.4-1.2C670.2,3923,669.8,3922.9,669.3,3922.9z"/>
		<path class="st7" d="M679.1,3923.3c-0.3,0-0.6-0.1-0.8-0.1c-0.9,0-1.4,0.3-1.7,0.9v5.5h-2.3v-8.5h2.1l0.1,1
			c0.5-0.8,1.1-1.2,1.9-1.2c0.2,0,0.5,0,0.7,0.1L679.1,3923.3z"/>
		<path class="st7" d="M681,3929.7v-6.8h-1.3v-1.7h1.3v-0.7c0-0.9,0.3-1.7,0.8-2.2c0.5-0.5,1.3-0.8,2.3-0.8c0.3,0,0.7,0.1,1.1,0.2
			l0,1.8c-0.2,0-0.4-0.1-0.7-0.1c-0.8,0-1.3,0.4-1.3,1.2v0.7h1.7v1.7h-1.7v6.8H681z"/>
		<path class="st7" d="M686.1,3919c0-0.3,0.1-0.6,0.3-0.8s0.5-0.3,0.9-0.3c0.4,0,0.7,0.1,0.9,0.3c0.2,0.2,0.3,0.5,0.3,0.8
			c0,0.3-0.1,0.6-0.3,0.8c-0.2,0.2-0.5,0.3-0.9,0.3c-0.4,0-0.7-0.1-0.9-0.3C686.2,3919.7,686.1,3919.4,686.1,3919z M688.5,3929.7
			h-2.3v-8.5h2.3V3929.7z"/>
		<path class="st7" d="M693.8,3928c0.4,0,0.8-0.1,1-0.3c0.3-0.2,0.4-0.5,0.4-0.9h2.1c0,0.6-0.2,1.1-0.5,1.6
			c-0.3,0.5-0.7,0.8-1.3,1.1c-0.5,0.3-1.1,0.4-1.8,0.4c-1.2,0-2.2-0.4-2.9-1.2c-0.7-0.8-1-1.8-1-3.2v-0.1c0-1.3,0.3-2.3,1-3.1
			c0.7-0.8,1.6-1.2,2.9-1.2c1.1,0,1.9,0.3,2.5,0.9c0.6,0.6,1,1.4,1,2.4h-2.1c0-0.4-0.1-0.8-0.4-1.1c-0.3-0.3-0.6-0.4-1-0.4
			c-0.5,0-0.9,0.2-1.2,0.6c-0.3,0.4-0.4,1-0.4,1.9v0.2c0,0.9,0.1,1.5,0.4,1.9S693.3,3928,693.8,3928z"/>
		<path class="st7" d="M698.6,3919c0-0.3,0.1-0.6,0.3-0.8s0.5-0.3,0.9-0.3c0.4,0,0.7,0.1,0.9,0.3c0.2,0.2,0.3,0.5,0.3,0.8
			c0,0.3-0.1,0.6-0.3,0.8c-0.2,0.2-0.5,0.3-0.9,0.3c-0.4,0-0.7-0.1-0.9-0.3C698.8,3919.7,698.6,3919.4,698.6,3919z M701,3929.7h-2.3
			v-8.5h2.3V3929.7z"/>
		<path class="st7" d="M707.8,3929.7c-0.1-0.2-0.2-0.5-0.2-0.8c-0.5,0.6-1.3,0.9-2.1,0.9c-0.8,0-1.5-0.2-2.1-0.7
			c-0.5-0.5-0.8-1.1-0.8-1.8c0-0.9,0.3-1.6,1-2.1s1.6-0.7,2.9-0.7h1v-0.5c0-0.4-0.1-0.7-0.3-0.9c-0.2-0.2-0.5-0.4-0.9-0.4
			c-0.4,0-0.7,0.1-0.9,0.3c-0.2,0.2-0.3,0.4-0.3,0.8h-2.3c0-0.5,0.2-0.9,0.5-1.4c0.3-0.4,0.7-0.7,1.3-1c0.6-0.2,1.2-0.4,1.9-0.4
			c1,0,1.9,0.3,2.5,0.8c0.6,0.5,0.9,1.3,0.9,2.2v3.7c0,0.8,0.1,1.4,0.3,1.8v0.1H707.8z M705.9,3928.1c0.3,0,0.6-0.1,0.9-0.2
			s0.5-0.3,0.6-0.6v-1.5h-0.8c-1.1,0-1.7,0.4-1.8,1.2l0,0.1c0,0.3,0.1,0.5,0.3,0.7C705.3,3928,705.6,3928.1,705.9,3928.1z"/>
		<path class="st7" d="M713.9,3929.7h-2.3v-12h2.3V3929.7z"/>
		<path class="st7" d="M719.6,3929.8c-1.2,0-2.2-0.4-3-1.1c-0.8-0.8-1.2-1.8-1.2-3v-0.2c0-0.8,0.2-1.6,0.5-2.3s0.8-1.2,1.4-1.5
			s1.3-0.5,2.1-0.5c1.2,0,2.1,0.4,2.7,1.1s1,1.8,1,3.1v0.9h-5.4c0.1,0.6,0.3,1,0.7,1.3s0.8,0.5,1.4,0.5c0.9,0,1.5-0.3,2-0.9l1.1,1.2
			c-0.3,0.5-0.8,0.9-1.4,1.1S720.3,3929.8,719.6,3929.8z M719.4,3922.9c-0.4,0-0.8,0.2-1.1,0.5c-0.3,0.3-0.5,0.7-0.5,1.3h3.1v-0.2
			c0-0.5-0.1-0.9-0.4-1.2C720.2,3923,719.8,3922.9,719.4,3922.9z"/>
		<path class="st7" d="M728.9,3927.3c0-0.3-0.1-0.5-0.4-0.7s-0.7-0.3-1.3-0.4c-2-0.4-3-1.3-3-2.6c0-0.8,0.3-1.4,0.9-1.9
			c0.6-0.5,1.4-0.8,2.4-0.8c1.1,0,1.9,0.3,2.6,0.8c0.6,0.5,1,1.2,1,2h-2.3c0-0.3-0.1-0.6-0.3-0.8c-0.2-0.2-0.5-0.3-1-0.3
			c-0.4,0-0.7,0.1-0.9,0.3c-0.2,0.2-0.3,0.4-0.3,0.7c0,0.2,0.1,0.5,0.4,0.6c0.2,0.2,0.6,0.3,1.2,0.4s1,0.2,1.4,0.4
			c1.2,0.4,1.8,1.2,1.8,2.3c0,0.8-0.3,1.4-1,1.9c-0.7,0.5-1.5,0.7-2.6,0.7c-0.7,0-1.3-0.1-1.9-0.4c-0.5-0.3-1-0.6-1.3-1
			s-0.5-0.9-0.5-1.4h2.1c0,0.4,0.2,0.7,0.4,0.9c0.3,0.2,0.6,0.3,1.1,0.3c0.4,0,0.8-0.1,1-0.2
			C728.8,3927.8,728.9,3927.6,728.9,3927.3z"/>
	</g>
	<g class="st1">
		<path class="st7" d="M975.8,3925.9c-0.1,1.2-0.5,2.2-1.4,2.9s-1.9,1.1-3.2,1.1c-1.5,0-2.6-0.5-3.4-1.5s-1.3-2.3-1.3-4v-0.7
			c0-1.1,0.2-2.1,0.6-2.9s0.9-1.5,1.7-1.9s1.5-0.7,2.5-0.7c1.3,0,2.4,0.4,3.2,1.1s1.3,1.7,1.4,3h-2.3c-0.1-0.7-0.3-1.3-0.6-1.6
			s-0.9-0.5-1.6-0.5c-0.8,0-1.4,0.3-1.8,0.8s-0.6,1.4-0.6,2.6v0.9c0,1.2,0.2,2.1,0.6,2.7s1,0.9,1.8,0.9c0.7,0,1.3-0.2,1.6-0.5
			s0.6-0.8,0.6-1.5H975.8z"/>
		<path class="st7" d="M982,3929.7c-0.1-0.2-0.2-0.5-0.2-0.8c-0.5,0.6-1.3,0.9-2.1,0.9c-0.8,0-1.5-0.2-2.1-0.7s-0.8-1.1-0.8-1.8
			c0-0.9,0.3-1.6,1-2.1s1.6-0.7,2.9-0.7h1v-0.5c0-0.4-0.1-0.7-0.3-0.9s-0.5-0.4-0.9-0.4c-0.4,0-0.7,0.1-0.9,0.3s-0.3,0.4-0.3,0.8
			H977c0-0.5,0.2-0.9,0.5-1.4s0.7-0.7,1.3-1s1.2-0.4,1.9-0.4c1,0,1.9,0.3,2.5,0.8s0.9,1.3,0.9,2.2v3.7c0,0.8,0.1,1.4,0.3,1.8v0.1
			H982z M980.2,3928.1c0.3,0,0.6-0.1,0.9-0.2s0.5-0.3,0.6-0.6v-1.5h-0.8c-1.1,0-1.7,0.4-1.8,1.2l0,0.1c0,0.3,0.1,0.5,0.3,0.7
			S979.8,3928.1,980.2,3928.1z"/>
		<path class="st7" d="M990.5,3923.3c-0.3,0-0.6-0.1-0.8-0.1c-0.9,0-1.4,0.3-1.7,0.9v5.5h-2.3v-8.5h2.1l0.1,1
			c0.5-0.8,1.1-1.2,1.9-1.2c0.2,0,0.5,0,0.7,0.1L990.5,3923.3z"/>
		<path class="st7" d="M993.6,3921.2l0.1,1c0.6-0.8,1.4-1.1,2.4-1.1c0.9,0,1.6,0.3,2,0.8s0.7,1.3,0.7,2.4v5.5h-2.3v-5.4
			c0-0.5-0.1-0.8-0.3-1s-0.6-0.3-1-0.3c-0.6,0-1.1,0.3-1.4,0.8v6h-2.3v-8.5H993.6z"/>
		<path class="st7" d="M1000.2,3925.4c0-0.8,0.2-1.6,0.5-2.2s0.8-1.2,1.4-1.5s1.3-0.5,2.1-0.5c1.1,0,2.1,0.3,2.8,1s1.1,1.6,1.2,2.8
			l0,0.6c0,1.3-0.4,2.3-1.1,3.1s-1.7,1.2-2.9,1.2s-2.2-0.4-2.9-1.2s-1.1-1.8-1.1-3.2V3925.4z M1002.4,3925.5c0,0.8,0.2,1.4,0.5,1.8
			s0.7,0.6,1.3,0.6c0.5,0,1-0.2,1.3-0.6s0.5-1.1,0.5-2c0-0.8-0.2-1.4-0.5-1.8s-0.7-0.6-1.3-0.6c-0.6,0-1,0.2-1.3,0.6
			S1002.4,3924.6,1002.4,3925.5z"/>
		<path class="st7" d="M1014.1,3927.3c0-0.3-0.1-0.5-0.4-0.7s-0.7-0.3-1.3-0.4c-2-0.4-3-1.3-3-2.6c0-0.8,0.3-1.4,0.9-1.9
			s1.4-0.8,2.4-0.8c1.1,0,1.9,0.3,2.6,0.8s1,1.2,1,2h-2.3c0-0.3-0.1-0.6-0.3-0.8s-0.5-0.3-1-0.3c-0.4,0-0.7,0.1-0.9,0.3
			s-0.3,0.4-0.3,0.7c0,0.2,0.1,0.5,0.4,0.6s0.6,0.3,1.2,0.4s1,0.2,1.4,0.4c1.2,0.4,1.8,1.2,1.8,2.3c0,0.8-0.3,1.4-1,1.9
			s-1.5,0.7-2.6,0.7c-0.7,0-1.3-0.1-1.9-0.4s-1-0.6-1.3-1s-0.5-0.9-0.5-1.4h2.1c0,0.4,0.2,0.7,0.4,0.9s0.6,0.3,1.1,0.3
			c0.4,0,0.8-0.1,1-0.2S1014.1,3927.6,1014.1,3927.3z"/>
		<path class="st7" d="M1022.7,3929.7c-0.1-0.2-0.2-0.5-0.2-0.8c-0.5,0.6-1.3,0.9-2.1,0.9c-0.8,0-1.5-0.2-2.1-0.7s-0.8-1.1-0.8-1.8
			c0-0.9,0.3-1.6,1-2.1s1.6-0.7,2.9-0.7h1v-0.5c0-0.4-0.1-0.7-0.3-0.9s-0.5-0.4-0.9-0.4c-0.4,0-0.7,0.1-0.9,0.3s-0.3,0.4-0.3,0.8
			h-2.3c0-0.5,0.2-0.9,0.5-1.4s0.7-0.7,1.3-1s1.2-0.4,1.9-0.4c1,0,1.9,0.3,2.5,0.8s0.9,1.3,0.9,2.2v3.7c0,0.8,0.1,1.4,0.3,1.8v0.1
			H1022.7z M1020.8,3928.1c0.3,0,0.6-0.1,0.9-0.2s0.5-0.3,0.6-0.6v-1.5h-0.8c-1.1,0-1.7,0.4-1.8,1.2l0,0.1c0,0.3,0.1,0.5,0.3,0.7
			S1020.5,3928.1,1020.8,3928.1z"/>
		<path class="st7" d="M1030.9,3927.3c0-0.3-0.1-0.5-0.4-0.7s-0.7-0.3-1.3-0.4c-2-0.4-3-1.3-3-2.6c0-0.8,0.3-1.4,0.9-1.9
			s1.4-0.8,2.4-0.8c1.1,0,1.9,0.3,2.6,0.8s1,1.2,1,2h-2.3c0-0.3-0.1-0.6-0.3-0.8s-0.5-0.3-1-0.3c-0.4,0-0.7,0.1-0.9,0.3
			s-0.3,0.4-0.3,0.7c0,0.2,0.1,0.5,0.4,0.6s0.6,0.3,1.2,0.4s1,0.2,1.4,0.4c1.2,0.4,1.8,1.2,1.8,2.3c0,0.8-0.3,1.4-1,1.9
			s-1.5,0.7-2.6,0.7c-0.7,0-1.3-0.1-1.9-0.4s-1-0.6-1.3-1s-0.5-0.9-0.5-1.4h2.1c0,0.4,0.2,0.7,0.4,0.9s0.6,0.3,1.1,0.3
			c0.4,0,0.8-0.1,1-0.2S1030.9,3927.6,1030.9,3927.3z"/>
	</g>
	<g class="st1">
		<path class="st7" d="M1286.4,3927.3h-4.1l-0.8,2.3h-2.5l4.2-11.4h2.2l4.3,11.4h-2.5L1286.4,3927.3z M1282.9,3925.4h2.8l-1.4-4.3
			L1282.9,3925.4z"/>
		<path class="st7" d="M1294.1,3928c0.4,0,0.8-0.1,1-0.3s0.4-0.5,0.4-0.9h2.1c0,0.6-0.2,1.1-0.5,1.6s-0.7,0.8-1.3,1.1
			s-1.1,0.4-1.8,0.4c-1.2,0-2.2-0.4-2.9-1.2s-1-1.8-1-3.2v-0.1c0-1.3,0.3-2.3,1-3.1s1.6-1.2,2.9-1.2c1.1,0,1.9,0.3,2.5,0.9
			s1,1.4,1,2.4h-2.1c0-0.4-0.1-0.8-0.4-1.1c-0.3-0.3-0.6-0.4-1-0.4c-0.5,0-0.9,0.2-1.2,0.6s-0.4,1-0.4,1.9v0.2
			c0,0.9,0.1,1.5,0.4,1.9S1293.6,3928,1294.1,3928z"/>
		<path class="st7" d="M1304,3928.8c-0.6,0.7-1.3,1-2.3,1c-0.9,0-1.6-0.3-2.1-0.8s-0.7-1.3-0.7-2.3v-5.5h2.3v5.5
			c0,0.9,0.4,1.3,1.2,1.3c0.8,0,1.3-0.3,1.6-0.8v-6h2.3v8.5h-2.1L1304,3928.8z"/>
		<path class="st7" d="M1312.8,3929.7c-0.1-0.2-0.2-0.5-0.2-0.8c-0.5,0.6-1.3,0.9-2.1,0.9c-0.8,0-1.5-0.2-2.1-0.7s-0.8-1.1-0.8-1.8
			c0-0.9,0.3-1.6,1-2.1s1.6-0.7,2.9-0.7h1v-0.5c0-0.4-0.1-0.7-0.3-0.9s-0.5-0.4-0.9-0.4c-0.4,0-0.7,0.1-0.9,0.3s-0.3,0.4-0.3,0.8
			h-2.3c0-0.5,0.2-0.9,0.5-1.4s0.7-0.7,1.3-1s1.2-0.4,1.9-0.4c1,0,1.9,0.3,2.5,0.8s0.9,1.3,0.9,2.2v3.7c0,0.8,0.1,1.4,0.3,1.8v0.1
			H1312.8z M1310.9,3928.1c0.3,0,0.6-0.1,0.9-0.2s0.5-0.3,0.6-0.6v-1.5h-0.8c-1.1,0-1.7,0.4-1.8,1.2l0,0.1c0,0.3,0.1,0.5,0.3,0.7
			S1310.6,3928.1,1310.9,3928.1z M1311.8,3917.7h2.5l-2.2,2.4h-1.8L1311.8,3917.7z"/>
		<path class="st7" d="M1319.2,3919.1v2.1h1.4v1.7h-1.4v4.2c0,0.3,0.1,0.5,0.2,0.7s0.3,0.2,0.7,0.2c0.2,0,0.5,0,0.7-0.1v1.7
			c-0.4,0.1-0.9,0.2-1.4,0.2c-1.6,0-2.4-0.8-2.4-2.4v-4.6h-1.2v-1.7h1.2v-2.1H1319.2z"/>
		<path class="st7" d="M1321.9,3919c0-0.3,0.1-0.6,0.3-0.8s0.5-0.3,0.9-0.3c0.4,0,0.7,0.1,0.9,0.3s0.3,0.5,0.3,0.8
			c0,0.3-0.1,0.6-0.3,0.8s-0.5,0.3-0.9,0.3s-0.7-0.1-0.9-0.3S1321.9,3919.4,1321.9,3919z M1324.3,3929.7h-2.3v-8.5h2.3V3929.7z"/>
		<path class="st7" d="M1329.6,3928c0.4,0,0.8-0.1,1-0.3s0.4-0.5,0.4-0.9h2.1c0,0.6-0.2,1.1-0.5,1.6s-0.7,0.8-1.3,1.1
			s-1.1,0.4-1.8,0.4c-1.2,0-2.2-0.4-2.9-1.2s-1-1.8-1-3.2v-0.1c0-1.3,0.3-2.3,1-3.1s1.6-1.2,2.9-1.2c1.1,0,1.9,0.3,2.5,0.9
			s1,1.4,1,2.4h-2.1c0-0.4-0.1-0.8-0.4-1.1c-0.3-0.3-0.6-0.4-1-0.4c-0.5,0-0.9,0.2-1.2,0.6s-0.4,1-0.4,1.9v0.2
			c0,0.9,0.1,1.5,0.4,1.9S1329.1,3928,1329.6,3928z"/>
		<path class="st7" d="M1339.4,3929.7c-0.1-0.2-0.2-0.5-0.2-0.8c-0.5,0.6-1.3,0.9-2.1,0.9c-0.8,0-1.5-0.2-2.1-0.7s-0.8-1.1-0.8-1.8
			c0-0.9,0.3-1.6,1-2.1s1.6-0.7,2.9-0.7h1v-0.5c0-0.4-0.1-0.7-0.3-0.9s-0.5-0.4-0.9-0.4c-0.4,0-0.7,0.1-0.9,0.3s-0.3,0.4-0.3,0.8
			h-2.3c0-0.5,0.2-0.9,0.5-1.4s0.7-0.7,1.3-1s1.2-0.4,1.9-0.4c1,0,1.9,0.3,2.5,0.8s0.9,1.3,0.9,2.2v3.7c0,0.8,0.1,1.4,0.3,1.8v0.1
			H1339.4z M1337.5,3928.1c0.3,0,0.6-0.1,0.9-0.2s0.5-0.3,0.6-0.6v-1.5h-0.8c-1.1,0-1.7,0.4-1.8,1.2l0,0.1c0,0.3,0.1,0.5,0.3,0.7
			S1337.2,3928.1,1337.5,3928.1z"/>
		<path class="st7" d="M1347.6,3927.3c0-0.3-0.1-0.5-0.4-0.7s-0.7-0.3-1.3-0.4c-2-0.4-3-1.3-3-2.6c0-0.8,0.3-1.4,0.9-1.9
			s1.4-0.8,2.4-0.8c1.1,0,1.9,0.3,2.6,0.8s1,1.2,1,2h-2.3c0-0.3-0.1-0.6-0.3-0.8s-0.5-0.3-1-0.3c-0.4,0-0.7,0.1-0.9,0.3
			s-0.3,0.4-0.3,0.7c0,0.2,0.1,0.5,0.4,0.6s0.6,0.3,1.2,0.4s1,0.2,1.4,0.4c1.2,0.4,1.8,1.2,1.8,2.3c0,0.8-0.3,1.4-1,1.9
			s-1.5,0.7-2.6,0.7c-0.7,0-1.3-0.1-1.9-0.4s-1-0.6-1.3-1s-0.5-0.9-0.5-1.4h2.1c0,0.4,0.2,0.7,0.4,0.9s0.6,0.3,1.1,0.3
			c0.4,0,0.8-0.1,1-0.2S1347.6,3927.6,1347.6,3927.3z"/>
	</g>
	<g class="st1">
		<path class="st7" d="M976.7,4000.7h-4.5v4.6h-2.3V3994h7.4v1.9h-5.1v2.9h4.5V4000.7z"/>
		<path class="st7" d="M978.5,3994.7c0-0.3,0.1-0.6,0.3-0.8s0.5-0.3,0.9-0.3c0.4,0,0.7,0.1,0.9,0.3s0.3,0.5,0.3,0.8
			c0,0.3-0.1,0.6-0.3,0.8s-0.5,0.3-0.9,0.3s-0.7-0.1-0.9-0.3S978.5,3995,978.5,3994.7z M980.9,4005.3h-2.3v-8.5h2.3V4005.3z"/>
		<path class="st7" d="M990.4,4001.2c0,1.4-0.3,2.4-0.9,3.2s-1.4,1.1-2.4,1.1c-0.9,0-1.6-0.4-2.2-1.1l-0.1,0.9h-2v-12h2.3v4.3
			c0.5-0.6,1.2-0.9,2.1-0.9c1,0,1.8,0.4,2.4,1.1s0.9,1.8,0.9,3.2V4001.2z M988.1,4001c0-0.9-0.1-1.5-0.4-1.9s-0.7-0.6-1.2-0.6
			c-0.7,0-1.2,0.3-1.5,0.9v3.3c0.3,0.6,0.8,0.9,1.5,0.9c0.7,0,1.2-0.4,1.4-1.1C988.1,4002.2,988.1,4001.7,988.1,4001z"/>
		<path class="st7" d="M996.5,3999c-0.3,0-0.6-0.1-0.8-0.1c-0.9,0-1.4,0.3-1.7,0.9v5.5h-2.3v-8.5h2.1l0.1,1c0.5-0.8,1.1-1.2,1.9-1.2
			c0.2,0,0.5,0,0.7,0.1L996.5,3999z"/>
		<path class="st7" d="M997,4001c0-0.8,0.2-1.6,0.5-2.2s0.8-1.2,1.4-1.5s1.3-0.5,2.1-0.5c1.1,0,2.1,0.3,2.8,1s1.1,1.6,1.2,2.8l0,0.6
			c0,1.3-0.4,2.3-1.1,3.1s-1.7,1.2-2.9,1.2s-2.2-0.4-2.9-1.2s-1.1-1.8-1.1-3.2V4001z M999.2,4001.2c0,0.8,0.2,1.4,0.5,1.8
			s0.7,0.6,1.3,0.6c0.5,0,1-0.2,1.3-0.6s0.5-1.1,0.5-2c0-0.8-0.2-1.4-0.5-1.8s-0.7-0.6-1.3-0.6c-0.6,0-1,0.2-1.3,0.6
			S999.2,4000.3,999.2,4001.2z"/>
		<path class="st7" d="M1010.9,4003c0-0.3-0.1-0.5-0.4-0.7s-0.7-0.3-1.3-0.4c-2-0.4-3-1.3-3-2.6c0-0.8,0.3-1.4,0.9-1.9
			s1.4-0.8,2.4-0.8c1.1,0,1.9,0.3,2.6,0.8s1,1.2,1,2h-2.3c0-0.3-0.1-0.6-0.3-0.8s-0.5-0.3-1-0.3c-0.4,0-0.7,0.1-0.9,0.3
			s-0.3,0.4-0.3,0.7c0,0.2,0.1,0.5,0.4,0.6s0.6,0.3,1.2,0.4s1,0.2,1.4,0.4c1.2,0.4,1.8,1.2,1.8,2.3c0,0.8-0.3,1.4-1,1.9
			s-1.5,0.7-2.6,0.7c-0.7,0-1.3-0.1-1.9-0.4s-1-0.6-1.3-1s-0.5-0.9-0.5-1.4h2.1c0,0.4,0.2,0.7,0.4,0.9s0.6,0.3,1.1,0.3
			c0.4,0,0.8-0.1,1-0.2S1010.9,4003.3,1010.9,4003z"/>
		<path class="st7" d="M1019.5,4005.3c-0.1-0.2-0.2-0.5-0.2-0.8c-0.5,0.6-1.3,0.9-2.1,0.9c-0.8,0-1.5-0.2-2.1-0.7s-0.8-1.1-0.8-1.8
			c0-0.9,0.3-1.6,1-2.1s1.6-0.7,2.9-0.7h1v-0.5c0-0.4-0.1-0.7-0.3-0.9s-0.5-0.4-0.9-0.4c-0.4,0-0.7,0.1-0.9,0.3s-0.3,0.4-0.3,0.8
			h-2.3c0-0.5,0.2-0.9,0.5-1.4s0.7-0.7,1.3-1s1.2-0.4,1.9-0.4c1,0,1.9,0.3,2.5,0.8s0.9,1.3,0.9,2.2v3.7c0,0.8,0.1,1.4,0.3,1.8v0.1
			H1019.5z M1017.6,4003.8c0.3,0,0.6-0.1,0.9-0.2s0.5-0.3,0.6-0.6v-1.5h-0.8c-1.1,0-1.7,0.4-1.8,1.2l0,0.1c0,0.3,0.1,0.5,0.3,0.7
			S1017.3,4003.8,1017.6,4003.8z"/>
		<path class="st7" d="M1027.7,4003c0-0.3-0.1-0.5-0.4-0.7s-0.7-0.3-1.3-0.4c-2-0.4-3-1.3-3-2.6c0-0.8,0.3-1.4,0.9-1.9
			s1.4-0.8,2.4-0.8c1.1,0,1.9,0.3,2.6,0.8s1,1.2,1,2h-2.3c0-0.3-0.1-0.6-0.3-0.8s-0.5-0.3-1-0.3c-0.4,0-0.7,0.1-0.9,0.3
			s-0.3,0.4-0.3,0.7c0,0.2,0.1,0.5,0.4,0.6s0.6,0.3,1.2,0.4s1,0.2,1.4,0.4c1.2,0.4,1.8,1.2,1.8,2.3c0,0.8-0.3,1.4-1,1.9
			s-1.5,0.7-2.6,0.7c-0.7,0-1.3-0.1-1.9-0.4s-1-0.6-1.3-1s-0.5-0.9-0.5-1.4h2.1c0,0.4,0.2,0.7,0.4,0.9s0.6,0.3,1.1,0.3
			c0.4,0,0.8-0.1,1-0.2S1027.7,4003.3,1027.7,4003z"/>
	</g>
	<g class="st1">
		<path class="st7" d="M1296.8,4003h-4.1l-0.8,2.3h-2.5l4.2-11.4h2.2l4.3,11.4h-2.5L1296.8,4003z M1293.3,4001.1h2.8l-1.4-4.3
			L1293.3,4001.1z"/>
		<path class="st7" d="M1304.8,4005.5c-1.2,0-2.2-0.4-3-1.1c-0.8-0.8-1.2-1.8-1.2-3v-0.2c0-0.8,0.2-1.6,0.5-2.3s0.8-1.2,1.4-1.5
			s1.3-0.5,2.1-0.5c1.2,0,2.1,0.4,2.7,1.1s1,1.8,1,3.1v0.9h-5.4c0.1,0.6,0.3,1,0.7,1.3s0.8,0.5,1.4,0.5c0.9,0,1.5-0.3,2-0.9l1.1,1.2
			c-0.3,0.5-0.8,0.9-1.4,1.1S1305.5,4005.5,1304.8,4005.5z M1304.6,3998.5c-0.4,0-0.8,0.2-1.1,0.5c-0.3,0.3-0.5,0.7-0.5,1.3h3.1
			v-0.2c0-0.5-0.1-0.9-0.4-1.2C1305.4,3998.7,1305.1,3998.5,1304.6,3998.5z M1304.8,3993.3h2.5l-2.2,2.4h-1.8L1304.8,3993.3z"/>
		<path class="st7" d="M1314.4,3999c-0.3,0-0.6-0.1-0.8-0.1c-0.9,0-1.4,0.3-1.7,0.9v5.5h-2.3v-8.5h2.1l0.1,1
			c0.5-0.8,1.1-1.2,1.9-1.2c0.2,0,0.5,0,0.7,0.1L1314.4,3999z"/>
		<path class="st7" d="M1319.2,4005.5c-1.2,0-2.2-0.4-3-1.1c-0.8-0.8-1.2-1.8-1.2-3v-0.2c0-0.8,0.2-1.6,0.5-2.3s0.8-1.2,1.4-1.5
			s1.3-0.5,2.1-0.5c1.2,0,2.1,0.4,2.7,1.1s1,1.8,1,3.1v0.9h-5.4c0.1,0.6,0.3,1,0.7,1.3s0.8,0.5,1.4,0.5c0.9,0,1.5-0.3,2-0.9l1.1,1.2
			c-0.3,0.5-0.8,0.9-1.4,1.1S1319.9,4005.5,1319.2,4005.5z M1318.9,3998.5c-0.4,0-0.8,0.2-1.1,0.5c-0.3,0.3-0.5,0.7-0.5,1.3h3.1
			v-0.2c0-0.5-0.1-0.9-0.4-1.2C1319.8,3998.7,1319.4,3998.5,1318.9,3998.5z"/>
		<path class="st7" d="M1328.8,4005.3c-0.1-0.2-0.2-0.5-0.2-0.8c-0.5,0.6-1.3,0.9-2.1,0.9c-0.8,0-1.5-0.2-2.1-0.7
			c-0.5-0.5-0.8-1.1-0.8-1.8c0-0.9,0.3-1.6,1-2.1s1.6-0.7,2.9-0.7h1v-0.5c0-0.4-0.1-0.7-0.3-0.9c-0.2-0.2-0.5-0.4-0.9-0.4
			c-0.4,0-0.7,0.1-0.9,0.3c-0.2,0.2-0.3,0.4-0.3,0.8h-2.3c0-0.5,0.2-0.9,0.5-1.4c0.3-0.4,0.7-0.7,1.3-1c0.6-0.2,1.2-0.4,1.9-0.4
			c1,0,1.9,0.3,2.5,0.8c0.6,0.5,0.9,1.3,0.9,2.2v3.7c0,0.8,0.1,1.4,0.3,1.8v0.1H1328.8z M1327,4003.8c0.3,0,0.6-0.1,0.9-0.2
			s0.5-0.3,0.6-0.6v-1.5h-0.8c-1.1,0-1.7,0.4-1.8,1.2l0,0.1c0,0.3,0.1,0.5,0.3,0.7C1326.4,4003.7,1326.6,4003.8,1327,4003.8z"/>
		<path class="st7" d="M1337.1,4003c0-0.3-0.1-0.5-0.4-0.7s-0.7-0.3-1.3-0.4c-2-0.4-3-1.3-3-2.6c0-0.8,0.3-1.4,0.9-1.9
			c0.6-0.5,1.4-0.8,2.4-0.8c1.1,0,1.9,0.3,2.6,0.8c0.6,0.5,1,1.2,1,2h-2.3c0-0.3-0.1-0.6-0.3-0.8c-0.2-0.2-0.5-0.3-1-0.3
			c-0.4,0-0.7,0.1-0.9,0.3c-0.2,0.2-0.3,0.4-0.3,0.7c0,0.2,0.1,0.5,0.4,0.6c0.2,0.2,0.6,0.3,1.2,0.4s1,0.2,1.4,0.4
			c1.2,0.4,1.8,1.2,1.8,2.3c0,0.8-0.3,1.4-1,1.9c-0.7,0.5-1.5,0.7-2.6,0.7c-0.7,0-1.3-0.1-1.9-0.4c-0.5-0.3-1-0.6-1.3-1
			s-0.5-0.9-0.5-1.4h2.1c0,0.4,0.2,0.7,0.4,0.9c0.3,0.2,0.6,0.3,1.1,0.3c0.4,0,0.8-0.1,1-0.2C1337,4003.5,1337.1,4003.3,1337.1,4003
			z"/>
	</g>
</g>
</svg>
