<svg xmlns="http://www.w3.org/2000/svg" width="170" height="266.654" viewBox="0 0 170 266.654">
  <g id="Grupo_175749" data-name="Grupo 175749" transform="translate(-240.383 -207.896)">
    <path id="Trazado_223568" data-name="Trazado 223568" d="M272.546,228.067a113.514,113.514,0,0,0,6.541,17.6,121.622,121.622,0,0,1-1.066-20.091Z" transform="translate(9.195 5.055)" fill="#66390c"/>
    <path id="Trazado_223569" data-name="Trazado 223569" d="M315.014,238.886a12.749,12.749,0,0,0,.847,5.81c.872,1.773,2.91,3.143,4.8,2.576a10.758,10.758,0,0,1-4.159,4.538,5.584,5.584,0,0,1-5.906-.208c-1.485-1.143-2.078-3.087-2.442-4.926Z" transform="translate(19.377 8.86)" fill="#66390c"/>
    <path id="Trazado_223570" data-name="Trazado 223570" d="M303.071,313.387c-12.085-3.712-25.831-3.714-36.757,2.646s-17.977,19.98-14.387,32.1A47.928,47.928,0,0,0,255.8,356.8l18.914,35.767a5.143,5.143,0,0,0,1.526,2,4.854,4.854,0,0,0,2.231.62,42.453,42.453,0,0,0,19.5-2.652q4.324-18.663,8.65-37.328c6.139-1.391,12.851-2.726,18.5.058A27.78,27.78,0,0,1,331.38,360l20.41,18.729a5.316,5.316,0,0,1,1.166,1.341,5.5,5.5,0,0,1,.449,2.428,81.438,81.438,0,0,0,4.223,23.047,167.2,167.2,0,0,0,20.286-.658,2.885,2.885,0,0,0,3.054-1.958l13.638-27.966c4.089-8.384,8.282-17.722,5.808-26.714-2.371-8.614-10.236-14.453-17.928-19s-16.079-8.8-20.947-16.295Z" transform="translate(3.03 29.439)" fill="#33637a"/>
    <path id="Trazado_223571" data-name="Trazado 223571" d="M329.909,362.887a264.207,264.207,0,0,0,42.159.84,151.3,151.3,0,0,0-7.48,45.578,2.991,2.991,0,0,0,.234,1.451c.32.6,5.551,5.618,17.648,11.985,2.554,1.345,3.9,3.616,1.859,5.655-1.267,1.267-3.26,1.353-5.051,1.346q-9.307-.037-18.6-.6c-2.882-.175-5.906-.436-8.311-2.033a4.738,4.738,0,0,0-1.535-.831c-1.571-.337-2.747,1.319-4,2.322-1.991,1.592-4.759,1.652-7.308,1.642-3.037-.014-11.666-1-11.167-4,.319-1.91-.692-6.306-.165-10.822C329.933,400.514,329.909,362.887,329.909,362.887Z" transform="translate(25.059 44.311)" fill="#5892a8"/>
    <path id="Trazado_223572" data-name="Trazado 223572" d="M301.613,353.816a264.208,264.208,0,0,1-42.038,3.306,151.3,151.3,0,0,1,10.134,45.063,2.979,2.979,0,0,1-.149,1.461c-.284.613-5.213,5.934-16.915,13-2.473,1.492-3.685,3.837-1.526,5.754,1.339,1.189,3.333,1.16,5.122,1.048q9.287-.581,18.532-1.69c2.868-.345,5.87-.782,8.178-2.516a4.725,4.725,0,0,1,1.484-.919c1.548-.428,2.819,1.156,4.13,2.084,2.081,1.472,4.848,1.372,7.391,1.211,3.031-.192,11.587-1.683,10.913-4.643-.43-1.889.321-6.336-.469-10.813C303.79,391.381,301.613,353.816,301.613,353.816Z" transform="translate(2.749 41.717)" fill="#5892a8"/>
    <path id="Trazado_223573" data-name="Trazado 223573" d="M301.131,263.578c-8.043,2.994-16.349,6.152-22.44,12.2a60.7,60.7,0,0,0-6.962,8.879q-5.032,7.318-10.067,14.632c-3.487,5.07-7.017,10.223-9,16.048a39.127,39.127,0,0,1-2.293,6.249c-1.436,2.639-3.777,4.664-5.473,7.143a17.278,17.278,0,0,0-2.956,10.706c3.613-3.458,9.3-3.943,14.093-2.5s8.9,4.507,12.894,7.515A71.663,71.663,0,0,0,289.343,317.3c.347-.81.795-1.731,1.652-1.935,1.007-.239,1.9.653,2.51,1.492,3.543,4.9,5.308,11.028,9.494,15.387,2.918,3.037,6.791,4.974,9.943,7.767,5.354,4.744,8.6,11.914,14.947,15.215l29.78-18.53c1.982-1.233,5.023-2.262,6.26-.283.346.557.471,1.287,1.008,1.66.7.485,1.643.09,2.411-.275,9.442-4.486,19.332-3.048,29.641-1.317,1.569-6.273-.228-12.338-3.351-17.694-1.967-3.373-4.818-6.217-6.408-9.783a30.993,30.993,0,0,1-1.88-6.934c-1.322-7.043-2.585-14.191-5.594-20.7s-8.036-12.4-14.78-14.824c-2.145-.769-4.408-1.171-6.559-1.921-4.026-1.4-7.593-4-11.717-5.082-3.487-.917-7.161-.7-10.76-.468L318,260.216Z" transform="translate(0.436 14.576)" fill="#ad680c"/>
    <path id="Trazado_223574" data-name="Trazado 223574" d="M241.963,323.413a8.641,8.641,0,0,1,6.878-6.438,32.6,32.6,0,0,1,8.213-.458c4.431.355,8.956,2.828,10.526,6.986a41.588,41.588,0,0,1,1.121,4.745c1.027,4.13,3.643,7.663,6.3,10.985q5.8,7.241,12.246,13.925c.674.7,1.416,1.543.66,2.661a2.848,2.848,0,0,1-.71.706l-9.919,7.187a2.758,2.758,0,0,1-4.078-.109l-25.066-17.855c-2.663-1.9-5.425-3.907-6.9-6.823C239.493,335.485,240.773,328.287,241.963,323.413Z" transform="translate(0 31.029)" fill="#fed5b7"/>
    <path id="Trazado_223575" data-name="Trazado 223575" d="M324.641,335.416c6.9-4.017,13.96-8.162,19.048-14.317a24.159,24.159,0,0,1,3.892-4.243c2.886-2.151,6.732-2.354,10.328-2.475,3.783-.126,7.659-.239,11.255.943,1.84.6,3.732,1.735,4.261,3.6a6.2,6.2,0,0,1-.076,2.991,20.258,20.258,0,0,1-10.18,13.416,68.6,68.6,0,0,1-8.479,3.249c-6.954,2.565-13.2,6.7-19.378,10.8a28.784,28.784,0,0,0-10.3-12.905Z" transform="translate(24.089 30.421)" fill="#fed5b7"/>
    <path id="Trazado_223576" data-name="Trazado 223576" d="M312.091,341.773a15.656,15.656,0,0,1-4.4-.03,40.882,40.882,0,0,0-8.639-.383,7.382,7.382,0,0,0-4.357,1.305,7.976,7.976,0,0,0-2.061,3.514,305.556,305.556,0,0,0-11.162,37.17,9.681,9.681,0,0,0-.328,4.264,7.879,7.879,0,0,0,2.425,3.782,19.679,19.679,0,0,0,12.024,5.411c2.708.211,5.428-.144,8.144-.1,4.979.082,9.827,1.506,14.748,2.27a6.358,6.358,0,0,0,7.92-3.691c5.591-9.181,8.408-19.738,11.158-30.131.769-2.9,1.543-5.91,1.078-8.878-.675-4.3-3.876-7.82-7.511-10.211a28.311,28.311,0,0,0-15.7-4.622,15.876,15.876,0,0,0-1.946.141Z" transform="translate(11.617 38.134)" fill="#eda156"/>
    <path id="Trazado_223577" data-name="Trazado 223577" d="M325.649,271.6c.225-.127-6.048-22.083-5.785-22.3,4.4.269,8.28-4.574,7.063-8.806s-7.081-6.273-10.661-3.71q-3.028-8.043-6.055-16.085l-35.869,9.117a150.611,150.611,0,0,0,5.492,28.04c1.494,5.033,3.946,10.673,9.013,12.049,3.382.918,6.926-.4,10.183-1.7-.01.054,4.151,13.791,5.176,16.843l.032.1c3.7,11.236,20.14,9.332,21.213-2.45C326,276.649,326.218,272.132,325.649,271.6Z" transform="translate(9.709 3.662)" fill="#fed5b7"/>
    <path id="Trazado_223578" data-name="Trazado 223578" d="M267.375,358.274a3.762,3.762,0,0,1-1.081-3.828,23.243,23.243,0,0,1,2.643-6.294,10.838,10.838,0,0,1,7.426-5.187,8.347,8.347,0,0,1,8.191,4.237c.968,1.814,1.224,3.94,2.176,5.762,1.776,3.4,5.569,5.124,8.477,7.624a18.5,18.5,0,0,1,4.718,6.234,4.479,4.479,0,0,1,.323,3.017c-.685,2.583-3.23,2.751-5.165,2.061-1.512-.539-2.843-1.508-4.377-1.992a1.816,1.816,0,0,0-.932-.075c-1.12.251-1.186,1.613-1.016,2.648a25.243,25.243,0,0,0,6.291,12.919c1.2,1.305,2.587,2.558,2.988,4.324a3.193,3.193,0,0,1-.6,2.776,2.6,2.6,0,0,1-3.139.557c-3.873-1.391-6.089-5.409-9.378-7.884-1.993-1.5-4.362-2.416-6.486-3.727s-4.107-3.206-4.553-5.662c-.554-3.049,1.251-6.7-.781-9.036-.684-.787-1.7-1.236-2.362-2.038-.916-1.1-1.012-2.642-1.393-4.025A6.891,6.891,0,0,0,267.375,358.274Z" transform="translate(7.366 38.598)" fill="#ad680c"/>
    <path id="Trazado_223579" data-name="Trazado 223579" d="M326.065,331.374c-.979,8.587-2.281,17.894-9.192,23.537a2.952,2.952,0,0,0-.455,4.142c2.191,2.63,6.457-2.3,8.877.436.282.318-.138,2.288,0,2.689,2.839,8.19-4.359,14.573-4.123,23.093a2.633,2.633,0,0,0,1.876-1.2,6.161,6.161,0,0,0-2.325,3.966,1.191,1.191,0,0,0,.125.736c.625,1.137,2.248-.04,2.86-1.151L335.9,365.534a12.726,12.726,0,0,0,1.425-3.283c.878-3.921-2.032-8.041-.877-11.889.669-2.231,2.564-3.844,4.4-5.275s3.792-2.922,4.677-5.074a4.954,4.954,0,0,0-.225-4.214c-1.286-2.389-3.163-1.615-4.836-2.006-1.987-.463-3.207-2.384-4.614-3.862s-3.856-2.589-5.381-1.233a3.312,3.312,0,0,0-4.376,2.542Z" transform="translate(21.552 34.361)" fill="#ad680c"/>
    <path id="Trazado_223580" data-name="Trazado 223580" d="M308.542,365.156c7.273-1.992,10.274-10.458,8.748-17.842-1.021-4.935-4.476-9.171-5.129-14.168-.892-6.823,3.617-13.16,8.562-17.946s10.727-9.072,13.661-15.3c2.943-6.244,2.649-13.756,6.2-19.677,1.368-2.282,3.976-4.42,6.458-3.464,2.3.886,2.938,3.792,3.107,6.249.51,7.467-.4,15.415-4.814,21.46-5.828,7.979-17.474,12.626-18.269,22.475-.269,3.316.859,6.568,1.317,9.865,1.808,13-6.795,26.858-19.839,28.344Z" transform="translate(19.486 19.621)" fill="#c1bf8e"/>
    <path id="Trazado_223581" data-name="Trazado 223581" d="M312.384,366.916c3.693-7.6,1.337-17.483-3.847-24.156-3.111-4-7.6-7.044-9.589-11.708-2.543-5.965-.279-12.869,2.775-18.591s6.967-11.234,7.9-17.651c.783-5.367-.579-11.088,1.447-16.121a10.948,10.948,0,0,1,8.549-6.895c3.82-.428,7.921,1.973,8.947,5.677a12.793,12.793,0,0,1,.08,5.156,50.351,50.351,0,0,1-8.623,21.917c-4.7,6.689-11.288,12.838-12,20.981-.651,7.4,3.8,14.141,6.675,20.994s3.629,16.119-2.392,20.478C311.574,367.524,312.384,366.916,312.384,366.916Z" transform="translate(16.429 18.253)" fill="#c1bf8e"/>
    <path id="Trazado_223582" data-name="Trazado 223582" d="M311.9,363.92c10.38-.478,18.14-7.483,22.326-16.992,2.772-6.3,3.135-13.341,4.274-20.128s3.373-13.873,8.727-18.194c2.621-2.115,5.8-3.4,8.641-5.21a27.645,27.645,0,0,0,10.871-13.272,6.956,6.956,0,0,1,1.789-3.116c2.508-2.012,6.126.859,7.33,3.84a16.984,16.984,0,0,1-3.678,17.96c-5.849,5.819-15.527,6.862-20.594,13.373-4.791,6.159-3.77,14.947-6.381,22.3-4.061,11.441-16.486,17.919-28.493,19.717-2.785.418-2.913,1.8-4.813-.279Z" transform="translate(20.445 22.426)" fill="#c1bf8e"/>
    <g id="Grupo_175672" data-name="Grupo 175672" transform="translate(254.05 459.459)">
      <path id="Trazado_223583" data-name="Trazado 223583" d="M251.47,407.021c3.652,1.114,7.557.383,11.262-.041l11.838-1.358,6.781-.778c.827-.1.837-1.405,0-1.31l-11.731,1.346c-3.856.442-7.715.977-11.583,1.307a16.392,16.392,0,0,1-6.219-.428c-.808-.247-1.152,1.017-.347,1.263Z" transform="translate(-251.012 -403.529)" fill="#173b49"/>
    </g>
    <g id="Grupo_175673" data-name="Grupo 175673" transform="translate(290.596 459.593)">
      <path id="Trazado_223584" data-name="Trazado 223584" d="M280.063,405.609a86.113,86.113,0,0,0,16.6-.706c.832-.116.478-1.377-.347-1.263a84.358,84.358,0,0,1-16.25.66c-.842-.046-.84,1.263,0,1.309Z" transform="translate(-279.432 -403.633)" fill="#173b49"/>
    </g>
    <g id="Grupo_175674" data-name="Grupo 175674" transform="translate(352.659 469.444)">
      <path id="Trazado_223585" data-name="Trazado 223585" d="M328.168,412.571a56,56,0,0,0,19.588.306c.829-.134.478-1.4-.347-1.263a54.151,54.151,0,0,1-18.892-.306c-.823-.159-1.175,1.1-.349,1.263Z" transform="translate(-327.696 -411.294)" fill="#173b49"/>
    </g>
    <g id="Grupo_175675" data-name="Grupo 175675" transform="translate(377.501 468.949)">
      <path id="Trazado_223586" data-name="Trazado 223586" d="M347.644,412.221q12.424,1.055,24.905,1.065a15.556,15.556,0,0,0,6.28-.914c.771-.332.105-1.461-.661-1.132a13.583,13.583,0,0,1-5.4.737q-3.036,0-6.071-.06-6.07-.123-12.131-.5-3.464-.214-6.921-.508c-.84-.072-.835,1.238,0,1.309Z" transform="translate(-347.016 -410.909)" fill="#173b49"/>
    </g>
    <g id="Grupo_175676" data-name="Grupo 175676" transform="translate(372.324 452.969)">
      <path id="Trazado_223587" data-name="Trazado 223587" d="M358.993,398.491a41.206,41.206,0,0,0-15.7,5.9c-.71.449-.054,1.583.661,1.13a40.3,40.3,0,0,1,15.386-5.769c.831-.129.477-1.39-.348-1.261Z" transform="translate(-342.989 -398.482)" fill="#173b49"/>
    </g>
    <g id="Grupo_175677" data-name="Grupo 175677" transform="translate(379.469 455.829)">
      <path id="Trazado_223588" data-name="Trazado 223588" d="M358.427,400.773q-4.882,2.253-9.562,4.908a.655.655,0,0,0,.661,1.13q4.677-2.652,9.562-4.907c.765-.354.1-1.483-.661-1.132Z" transform="translate(-348.546 -400.706)" fill="#173b49"/>
    </g>
    <g id="Grupo_175678" data-name="Grupo 175678" transform="translate(271.799 446.99)">
      <path id="Trazado_223589" data-name="Trazado 223589" d="M265.148,395.035A78.249,78.249,0,0,1,275.8,401.3c.692.484,1.348-.651.661-1.132a78.458,78.458,0,0,0-10.655-6.266c-.755-.368-1.418.761-.661,1.13Z" transform="translate(-264.814 -393.832)" fill="#173b49"/>
    </g>
    <g id="Grupo_175679" data-name="Grupo 175679" transform="translate(271.795 444.114)">
      <path id="Trazado_223590" data-name="Trazado 223590" d="M265.283,392.873a43.176,43.176,0,0,1,12.274,4.427c.741.4,1.4-.727.661-1.13a44.38,44.38,0,0,0-12.586-4.56c-.823-.163-1.175,1.1-.348,1.263Z" transform="translate(-264.811 -391.596)" fill="#173b49"/>
    </g>
    <g id="Grupo_175680" data-name="Grupo 175680" transform="translate(355.834 415.128)">
      <path id="Trazado_223591" data-name="Trazado 223591" d="M330.638,370.331A116.737,116.737,0,0,0,358.3,372.3q3.9-.191,7.775-.646c.827-.1.837-1.406,0-1.309a115.9,115.9,0,0,1-27.351-.062c-2.594-.315-5.176-.727-7.741-1.219-.823-.158-1.177,1.1-.348,1.263Z" transform="translate(-330.166 -369.054)" fill="#173b49"/>
    </g>
    <g id="Grupo_175681" data-name="Grupo 175681" transform="translate(356.264 419.348)">
      <path id="Trazado_223592" data-name="Trazado 223592" d="M330.974,373.605a164.052,164.052,0,0,0,27.39,1.78,17.484,17.484,0,0,0,6.8-1.186c.769-.338.1-1.466-.661-1.13a15.532,15.532,0,0,1-5.94,1c-2.168.051-4.337.044-6.505,0q-6.62-.129-13.215-.795-3.769-.378-7.516-.934c-.824-.122-1.181,1.139-.349,1.261Z" transform="translate(-330.5 -372.336)" fill="#173b49"/>
    </g>
    <g id="Grupo_175682" data-name="Grupo 175682" transform="translate(265.774 405.808)">
      <path id="Trazado_223593" data-name="Trazado 223593" d="M260.757,363.993l9.6-.873c.832-.076.84-1.386,0-1.31l-9.6.874c-.833.076-.841,1.385,0,1.309Z" transform="translate(-260.129 -361.807)" fill="#173b49"/>
    </g>
    <g id="Grupo_175683" data-name="Grupo 175683" transform="translate(267.369 408.214)">
      <path id="Trazado_223594" data-name="Trazado 223594" d="M262.187,365.463a20.152,20.152,0,0,1,5.819-.424.661.661,0,0,0,.655-.655.668.668,0,0,0-.655-.656,21.415,21.415,0,0,0-6.166.472c-.823.183-.474,1.445.347,1.263Z" transform="translate(-261.37 -363.677)" fill="#173b49"/>
    </g>
    <g id="Grupo_175684" data-name="Grupo 175684" transform="translate(287.103 416.233)">
      <path id="Trazado_223595" data-name="Trazado 223595" d="M276.755,370.71a16.75,16.75,0,0,0,2.536,4.787,25.247,25.247,0,0,0,3.559,3.647,21.211,21.211,0,0,1,3.669,3.361c.835,1.168,1.63,2.748,2.983,3.393a5.018,5.018,0,0,0,5.421-1.17c.568-.62-.355-1.548-.926-.926a3.418,3.418,0,0,1-2.074,1.065,3.2,3.2,0,0,1-1.993-.225c-1.11-.67-1.76-2.114-2.516-3.121a21.688,21.688,0,0,0-3.457-3.148,27.265,27.265,0,0,1-3.265-3.206,15.235,15.235,0,0,1-2.675-4.805c-.274-.792-1.539-.451-1.263.347Z" transform="translate(-276.715 -369.913)" fill="#66390c"/>
    </g>
    <g id="Grupo_175685" data-name="Grupo 175685" transform="translate(284.079 415.008)">
      <path id="Trazado_223596" data-name="Trazado 223596" d="M275.345,372.45l4.862-2.28a.659.659,0,0,0,.235-.895.67.67,0,0,0-.9-.235l-4.862,2.28a.661.661,0,0,0-.235.9.67.67,0,0,0,.9.234Z" transform="translate(-274.364 -368.961)" fill="#66390c"/>
    </g>
    <g id="Grupo_175686" data-name="Grupo 175686" transform="translate(275.404 392.239)">
      <path id="Trazado_223597" data-name="Trazado 223597" d="M268.732,356.821l4.355-4.452a.655.655,0,0,0-.926-.926l-4.355,4.452a.655.655,0,0,0,.926.926Z" transform="translate(-267.618 -351.254)" fill="#66390c"/>
    </g>
    <g id="Grupo_175687" data-name="Grupo 175687" transform="translate(276.192 394.639)">
      <path id="Trazado_223598" data-name="Trazado 223598" d="M269.219,357.2l3.967-2.855a.669.669,0,0,0,.234-.895.661.661,0,0,0-.895-.235l-3.967,2.855a.655.655,0,1,0,.661,1.13Z" transform="translate(-268.23 -353.121)" fill="#66390c"/>
    </g>
    <g id="Grupo_175688" data-name="Grupo 175688" transform="translate(280.63 397.792)">
      <path id="Trazado_223599" data-name="Trazado 223599" d="M272.915,364.27a18.1,18.1,0,0,1,9.122-7.393c.786-.285.446-1.551-.348-1.263a19.547,19.547,0,0,0-9.9,8c-.448.716.684,1.375,1.13.66Z" transform="translate(-271.682 -355.572)" fill="#66390c"/>
    </g>
    <g id="Grupo_175689" data-name="Grupo 175689" transform="translate(341.424 393.352)">
      <path id="Trazado_223600" data-name="Trazado 223600" d="M323.556,352.932c.949,3.621.134,7.417-.835,10.943-1,3.631-2.931,6.988-3.55,10.724a12.088,12.088,0,0,0,.134,5.144,4.744,4.744,0,0,0,1.026,2.159,1.486,1.486,0,0,0,2.019-.022c2.218-1.655,3.411-4.183,4.372-6.7,1.093-2.869,1.946-6,4.093-8.3.575-.615-.348-1.543-.926-.926a19.449,19.449,0,0,0-3.682,6.844c-.864,2.362-1.664,4.912-3.351,6.84a4.646,4.646,0,0,1-1.425,1.294c-.163.06-.136.087-.27-.06a1.537,1.537,0,0,1-.225-.414,7.245,7.245,0,0,1-.415-1.237,11.121,11.121,0,0,1,.033-4.919c.723-3.486,2.488-6.651,3.429-10.075,1.031-3.756,1.844-7.787.835-11.639a.655.655,0,0,0-1.263.347Z" transform="translate(-318.96 -352.119)" fill="#66390c"/>
    </g>
    <g id="Grupo_175690" data-name="Grupo 175690" transform="translate(345.037 389.021)">
      <path id="Trazado_223601" data-name="Trazado 223601" d="M321.977,349.853a8.762,8.762,0,0,1,2.861,5.586.673.673,0,0,0,.655.655.66.66,0,0,0,.654-.655,10.112,10.112,0,0,0-3.244-6.512c-.624-.563-1.552.359-.926.926Z" transform="translate(-321.769 -348.751)" fill="#66390c"/>
    </g>
    <g id="Grupo_175691" data-name="Grupo 175691" transform="translate(364.245 373.419)">
      <path id="Trazado_223602" data-name="Trazado 223602" d="M336.707,337.274v1.2a.68.68,0,0,0,.192.463.655.655,0,0,0,.926,0,.678.678,0,0,0,.192-.463v-1.2a.669.669,0,0,0-.192-.463.655.655,0,0,0-.926,0,.681.681,0,0,0-.192.463Z" transform="translate(-336.707 -336.619)" fill="#66390c"/>
    </g>
    <g id="Grupo_175692" data-name="Grupo 175692" transform="translate(347.428 365.811)">
      <path id="Trazado_223603" data-name="Trazado 223603" d="M324.284,332.011h3.6a.655.655,0,0,0,0-1.309h-3.6a.655.655,0,0,0,0,1.309Z" transform="translate(-323.629 -330.702)" fill="#66390c"/>
    </g>
    <g id="Grupo_175693" data-name="Grupo 175693" transform="translate(332.151 322.236)">
      <path id="Trazado_223604" data-name="Trazado 223604" d="M312.568,362.5c6.459-1.249,13.1-2.537,18.885-5.837,4.861-2.774,9.143-7.1,10.768-12.564,1.791-6.03-.117-12.28.113-18.408a14.639,14.639,0,0,1,2.724-8.379,26.477,26.477,0,0,1,6.455-5.659c4.571-3.132,10.007-6.428,11.645-12.1a11.313,11.313,0,0,0,.381-2.111c.077-.838-1.233-.833-1.309,0-.531,5.826-6.046,9.483-10.454,12.456a36.888,36.888,0,0,0-6.628,5.285,14.9,14.9,0,0,0-3.809,7.531c-1.087,6.049.887,12.136.2,18.2-.643,5.653-4.3,10.345-8.9,13.471-5.338,3.624-11.749,5.136-17.988,6.377q-1.209.241-2.423.473c-.826.159-.476,1.422.348,1.263Z" transform="translate(-311.748 -296.815)" fill="#594d35"/>
    </g>
    <g id="Grupo_175694" data-name="Grupo 175694" transform="translate(330.678 312.678)">
      <path id="Trazado_223605" data-name="Trazado 223605" d="M340.424,290.2c.826,5.532-2.488,10.516-6.153,14.315-3.792,3.927-8.4,6.932-12.248,10.8-3.622,3.639-6.684,8.155-6.76,13.466-.078,5.506,2.749,10.467,3.473,15.838a12.276,12.276,0,0,1-.085,4.2,12.066,12.066,0,0,1-1.956,4.229,29.542,29.542,0,0,1-2.884,3.388,33.656,33.656,0,0,0-3.091,3.733c-.482.693.652,1.348,1.132.661,1.616-2.322,3.766-4.177,5.47-6.424a12.855,12.855,0,0,0,2.857-7.584c.094-5.5-2.844-10.49-3.487-15.877-1.408-11.8,10.944-17.913,18.013-25,4.258-4.27,7.922-9.791,6.982-16.089-.125-.831-1.386-.478-1.263.347Z" transform="translate(-310.603 -289.382)" fill="#594d35"/>
    </g>
    <g id="Grupo_175695" data-name="Grupo 175695" transform="translate(316.975 310.686)">
      <path id="Trazado_223606" data-name="Trazado 223606" d="M312.355,361.755a29.348,29.348,0,0,0-4.471-28.627,59.083,59.083,0,0,1-4.892-6.174,11.926,11.926,0,0,1-1.681-7.423c.526-5.455,3.955-10.162,7.237-14.327,3.7-4.695,7.906-10.633,5.663-16.924-.282-.788-1.547-.449-1.263.348,2,5.6-1.66,10.98-4.966,15.192-3.291,4.193-6.651,8.618-7.724,13.97a13.584,13.584,0,0,0,.512,7.614,22.592,22.592,0,0,0,4.215,6.315,36.79,36.79,0,0,1,4.553,6.2,28.175,28.175,0,0,1,1.555,23.487c-.307.784.958,1.125,1.262.347Z" transform="translate(-299.947 -287.833)" fill="#594d35"/>
    </g>
    <g id="Grupo_175696" data-name="Grupo 175696" transform="translate(307.13 380.133)">
      <path id="Trazado_223607" data-name="Trazado 223607" d="M292.408,342.79l5.347,7.632c1.681,2.4,3.271,4.908,5.1,7.2a7.842,7.842,0,0,0,2.68,2.29,8.511,8.511,0,0,0,4.107.606c3.037-.147,6.072-.392,9.107-.59l10.489-.687c.837-.055.844-1.366,0-1.31L311.285,359.1a15.18,15.18,0,0,1-4.083-.008,5.485,5.485,0,0,1-2.981-1.875,34.329,34.329,0,0,1-2.352-3.2q-1.244-1.774-2.487-3.55l-5.844-8.342c-.48-.684-1.615-.031-1.13.661Z" transform="translate(-292.29 -341.84)" fill="#a06117"/>
    </g>
    <g id="Grupo_175697" data-name="Grupo 175697" transform="translate(307.225 400.214)">
      <path id="Trazado_223608" data-name="Trazado 223608" d="M303.784,357.793q-4.938,10.449-9.1,21.24-1.173,3.044-2.28,6.113c-.287.793.979,1.135,1.263.348q3.869-10.709,8.518-21.113,1.333-2.978,2.729-5.928c.357-.757-.77-1.422-1.132-.661Z" transform="translate(-292.364 -357.456)" fill="#a06117"/>
    </g>
    <g id="Grupo_175698" data-name="Grupo 175698" transform="translate(314.942 400.294)">
      <path id="Trazado_223609" data-name="Trazado 223609" d="M299.477,385.764c3.769-3.917,10.78-3.924,13.24-9.292,1.252-2.734.2-5.574.365-8.423a4.9,4.9,0,0,1,1.315-3.176,11.442,11.442,0,0,1,2.468-1.838c2.05-1.231,4.281-2.384,5.21-4.731.31-.783-.955-1.124-1.263-.348-.757,1.91-2.838,2.892-4.493,3.881-1.881,1.123-3.73,2.469-4.321,4.7-.717,2.707.507,5.482-.069,8.189-.564,2.645-2.945,4.312-5.219,5.452-2.812,1.412-5.919,2.334-8.159,4.663-.584.607.341,1.534.926.926Z" transform="translate(-298.365 -357.518)" fill="#a06117"/>
    </g>
    <g id="Grupo_175699" data-name="Grupo 175699" transform="translate(316.951 401.701)">
      <path id="Trazado_223610" data-name="Trazado 223610" d="M312.49,358.62c-2.9.414-4.578,3.22-5.326,5.8-.864,2.983-.535,6.372-2.209,9.1a7.408,7.408,0,0,1-4.564,3.087.655.655,0,0,0,.348,1.263,9.412,9.412,0,0,0,4.306-2.354,9.051,9.051,0,0,0,2.19-4.193c.745-2.943.584-6.127,2.137-8.83a4.824,4.824,0,0,1,3.464-2.61c.831-.12.478-1.381-.347-1.263Z" transform="translate(-299.927 -358.612)" fill="#a06117"/>
    </g>
    <g id="Grupo_175700" data-name="Grupo 175700" transform="translate(321.425 403.498)">
      <path id="Trazado_223611" data-name="Trazado 223611" d="M303.882,386.44a12.705,12.705,0,0,0,7.713-.907,7.906,7.906,0,0,0,4.169-5.048,10.493,10.493,0,0,0,.03-3.674,11.739,11.739,0,0,1-.145-3.665,4.9,4.9,0,0,1,2.023-2.837,13.5,13.5,0,0,0,2.516-2.388,9.2,9.2,0,0,0,1.564-7.443c-.183-.822-1.445-.474-1.263.348a7.9,7.9,0,0,1-1.193,6.1c-1.213,1.794-3.464,2.639-4.459,4.593-1.083,2.124-.332,4.489-.214,6.729a6.2,6.2,0,0,1-2.59,5.482,10.463,10.463,0,0,1-7.8,1.447c-.824-.126-1.179,1.135-.347,1.263Z" transform="translate(-303.407 -360.01)" fill="#a06117"/>
    </g>
    <g id="Grupo_175701" data-name="Grupo 175701" transform="translate(333.375 416.858)">
      <path id="Trazado_223612" data-name="Trazado 223612" d="M315.524,371.627a5.849,5.849,0,0,1,2.309,5.972,2.651,2.651,0,0,1-1.667,1.944A1.8,1.8,0,0,1,314,378.078a1.217,1.217,0,0,1,.589-1.242c.361-.14.908.194.783.606-.246.808,1.017,1.152,1.263.347a1.788,1.788,0,0,0-.927-2.052,1.9,1.9,0,0,0-2.2.261,2.8,2.8,0,0,0,.351,4.227,3.07,3.07,0,0,0,4.218-.4,5.349,5.349,0,0,0,1.156-4.34,7.7,7.7,0,0,0-3.054-4.988.66.66,0,0,0-.9.235.67.67,0,0,0,.235.9Z" transform="translate(-312.7 -370.399)" fill="#a06117"/>
    </g>
    <g id="Grupo_175702" data-name="Grupo 175702" transform="translate(308.852 395.397)">
      <path id="Trazado_223613" data-name="Trazado 223613" d="M297.437,353.745a5.974,5.974,0,0,0-1.663,10.165c.643.536,1.574-.384.926-.926a4.675,4.675,0,0,1,1.084-7.976.679.679,0,0,0,.458-.806.658.658,0,0,0-.8-.457Z" transform="translate(-293.629 -353.71)" fill="#a06117"/>
    </g>
    <g id="Grupo_175703" data-name="Grupo 175703" transform="translate(305.729 389.381)">
      <path id="Trazado_223614" data-name="Trazado 223614" d="M294.13,349.043a3.51,3.51,0,0,0-.862,6.663.676.676,0,0,0,.9-.235.659.659,0,0,0-.235-.895,2.212,2.212,0,0,1,.549-4.27.659.659,0,0,0,.457-.8.671.671,0,0,0-.8-.458Z" transform="translate(-291.201 -349.031)" fill="#a06117"/>
    </g>
    <g id="Grupo_175704" data-name="Grupo 175704" transform="translate(302.347 394.599)">
      <path id="Trazado_223615" data-name="Trazado 223615" d="M288.647,353.565a2.709,2.709,0,0,0,1.853,3.207.655.655,0,0,0,.348-1.263.548.548,0,0,1-.185-.059c.022.018.154.068.053.021l-.072-.035c-.057-.03-.112-.063-.165-.1l-.067-.046c-.064-.044.125.1.044.035a2.434,2.434,0,0,1-.255-.247c-.021-.024-.04-.051-.062-.075.13.141.055.072.026.028s-.066-.1-.1-.15-.058-.1-.084-.157c-.012-.024-.053-.12-.006-.01s0,0-.009-.027a2.115,2.115,0,0,1-.091-.343c-.019-.112.012.035.008.063a.479.479,0,0,0-.009-.1,1.639,1.639,0,0,1,0-.177c0-.063.037-.265-.006-.033.013-.064.023-.127.04-.19a.655.655,0,1,0-1.263-.347Z" transform="translate(-288.571 -353.089)" fill="#a06117"/>
    </g>
    <g id="Grupo_175705" data-name="Grupo 175705" transform="translate(302.185 410.17)">
      <path id="Trazado_223616" data-name="Trazado 223616" d="M293.231,366.007a6.378,6.378,0,0,1-4.323,7.659.655.655,0,0,0,.347,1.263,7.707,7.707,0,0,0,5.239-9.269.655.655,0,0,0-1.263.347Z" transform="translate(-288.444 -365.198)" fill="#a06117"/>
    </g>
    <g id="Grupo_175706" data-name="Grupo 175706" transform="translate(301.758 413.459)">
      <path id="Trazado_223617" data-name="Trazado 223617" d="M288.332,368.871a1.308,1.308,0,0,1,.121.133l-.1-.133a1.379,1.379,0,0,1,.166.285l-.066-.156a1.6,1.6,0,0,1,.1.346l-.024-.175a1.519,1.519,0,0,1,0,.411l.023-.174a1.47,1.47,0,0,1-.1.369l.066-.156a1.321,1.321,0,0,1-.154.264l.1-.132a1.3,1.3,0,0,1-.157.17.659.659,0,0,0,0,.926.67.67,0,0,0,.926,0,2.056,2.056,0,0,0,.03-2.9.655.655,0,0,0-.926.926Z" transform="translate(-288.112 -367.756)" fill="#a06117"/>
    </g>
    <g id="Grupo_175707" data-name="Grupo 175707" transform="translate(328.323 389.169)">
      <path id="Trazado_223618" data-name="Trazado 223618" d="M308.942,349.345a3.125,3.125,0,0,0-.159.768,3.2,3.2,0,0,0,.036.783.655.655,0,0,0,.3.391.656.656,0,0,0,.9-.235l.066-.156a.668.668,0,0,0,0-.348l0-.022.023.174a2.546,2.546,0,0,1,0-.664l-.023.174a2.542,2.542,0,0,1,.127-.516.654.654,0,0,0-.962-.739.725.725,0,0,0-.3.391Z" transform="translate(-308.771 -348.867)" fill="#a06117"/>
    </g>
    <g id="Grupo_175708" data-name="Grupo 175708" transform="translate(331.028 390.631)">
      <path id="Trazado_223619" data-name="Trazado 223619" d="M310.9,350.832a2.952,2.952,0,0,1,.114.5l-.023-.174a2.9,2.9,0,0,1,0,.761l.024-.174-.012.073a.5.5,0,0,0-.012.261.485.485,0,0,0,.078.243.654.654,0,0,0,.895.235.632.632,0,0,0,.3-.391,3.7,3.7,0,0,0,.05-.85,3.772,3.772,0,0,0-.156-.837.7.7,0,0,0-.3-.392.673.673,0,0,0-.505-.066.654.654,0,0,0-.456.8Z" transform="translate(-310.875 -350.003)" fill="#a06117"/>
    </g>
    <g id="Grupo_175709" data-name="Grupo 175709" transform="translate(323.262 386.365)">
      <path id="Trazado_223620" data-name="Trazado 223620" d="M305.068,347.013a2.058,2.058,0,0,0-.19.546,1.979,1.979,0,0,0-.032.584.674.674,0,0,0,.655.655.664.664,0,0,0,.463-.192l.1-.132a.654.654,0,0,0,.09-.33,1.409,1.409,0,0,1,0-.368l-.023.174a1.514,1.514,0,0,1,.1-.368l-.066.157.03-.066a.5.5,0,0,0,.078-.243.594.594,0,0,0-.13-.484.494.494,0,0,0-.184-.168.653.653,0,0,0-.5-.066.644.644,0,0,0-.391.3Z" transform="translate(-304.835 -346.686)" fill="#a06117"/>
    </g>
    <g id="Grupo_175710" data-name="Grupo 175710" transform="translate(318.348 382.626)">
      <path id="Trazado_223621" data-name="Trazado 223621" d="M302.521,343.867a3.412,3.412,0,0,0-1.483,1.868.655.655,0,1,0,1.263.349c.023-.073.05-.144.08-.215l-.066.156a2.81,2.81,0,0,1,.348-.594l-.1.132a2.813,2.813,0,0,1,.487-.486l-.132.1a2.915,2.915,0,0,1,.266-.18.688.688,0,0,0,.3-.391.673.673,0,0,0-.067-.505.665.665,0,0,0-.895-.235Z" transform="translate(-301.014 -343.778)" fill="#a06117"/>
    </g>
    <g id="Grupo_175711" data-name="Grupo 175711" transform="translate(324.316 379.962)">
      <path id="Trazado_223622" data-name="Trazado 223622" d="M305.83,342.362q-.085.731-.172,1.463a.655.655,0,0,0,.192.463.669.669,0,0,0,.463.192.659.659,0,0,0,.463-.192l.1-.132a.65.65,0,0,0,.089-.33l.174-1.463a.653.653,0,0,0-.192-.463.663.663,0,0,0-.463-.192.654.654,0,0,0-.463.192l-.1.132a.661.661,0,0,0-.09.33Z" transform="translate(-305.655 -341.707)" fill="#a06117"/>
    </g>
    <path id="Trazado_223623" data-name="Trazado 223623" d="M306.231,354.225a11.554,11.554,0,0,0,.885-4.339,6.148,6.148,0,0,0-.788-3.337c-1.061-1.682-3.123-2.361-4.857-3.337a13.443,13.443,0,0,1-6.575-9.4c-.383-2.329-.042-4.944,1.618-6.621s4.859-1.838,6.2.107c1.4,2.033.175,4.931,1.112,7.211.648,1.576,2.192,2.558,3.4,3.763a10.592,10.592,0,0,1-1.138,15.962Z" transform="translate(15.544 33.734)" fill="#c1bf8e"/>
    <path id="Trazado_223624" data-name="Trazado 223624" d="M303.951,355.189a4.839,4.839,0,0,1,4.373-4.466c1.192-.076,2.375.3,3.567.25,2.144-.1,3.944-1.551,5.684-2.807s3.86-2.427,5.933-1.867a4.438,4.438,0,0,1,3.111,4.051,5.342,5.342,0,0,1-2.5,4.58,6.744,6.744,0,0,1-5.262.734c-2-.517-3.9-1.844-5.932-1.5s-3.819,2.307-5.79,1.724c-1.025-.3-1.939-1.281-2.969-1Z" transform="translate(18.174 39.527)" fill="#c1bf8e"/>
    <g id="Grupo_175712" data-name="Grupo 175712" transform="translate(321.673 389.452)">
      <path id="Trazado_223625" data-name="Trazado 223625" d="M322.712,349.279c-1.236,1.229-3.221.557-4.7.3a7.047,7.047,0,0,0-2.721-.037,11.616,11.616,0,0,0-2.4.91,8,8,0,0,1-2.516.836c-.98.1-1.962-.062-2.943-.037a4.111,4.111,0,0,0-3.76,1.948c-.368.755.761,1.42,1.13.661.734-1.5,2.716-1.317,4.1-1.256a8.177,8.177,0,0,0,2.749-.247,20.072,20.072,0,0,0,2.387-1,5.948,5.948,0,0,1,2.465-.635,19.291,19.291,0,0,1,2.9.453,4.75,4.75,0,0,0,4.232-.968.655.655,0,0,0-.926-.926Z" transform="translate(-303.599 -349.087)" fill="#594d35"/>
    </g>
    <g id="Grupo_175713" data-name="Grupo 175713" transform="translate(315.148 366.519)">
      <path id="Trazado_223626" data-name="Trazado 223626" d="M306.247,351.9a10.292,10.292,0,0,0,2.462-8.879,4.7,4.7,0,0,0-2.73-3.64,14.889,14.889,0,0,1-4.5-2.36c-1.269-1.165-2.158-3.094-1.366-4.774.356-.757-.772-1.422-1.132-.661a5.109,5.109,0,0,0,.135,4.475,7.713,7.713,0,0,0,3.372,3.242,18.253,18.253,0,0,0,2.273,1,3.727,3.727,0,0,1,2.065,1.367,7.044,7.044,0,0,1,.7,4.548,8.959,8.959,0,0,1-2.2,4.757c-.563.624.359,1.552.926.926Z" transform="translate(-298.525 -331.252)" fill="#594d35"/>
    </g>
    <g id="Grupo_175714" data-name="Grupo 175714" transform="translate(328.08 242.262)">
      <path id="Trazado_223627" data-name="Trazado 223627" d="M309.693,240.616q1.9-2.438,3.81-4.877a.676.676,0,0,0,0-.926.659.659,0,0,0-.926,0q-1.906,2.438-3.81,4.877a.674.674,0,0,0,0,.926.659.659,0,0,0,.926,0Z" transform="translate(-308.582 -234.622)" fill="#ab6844"/>
    </g>
    <g id="Grupo_175715" data-name="Grupo 175715" transform="translate(330.07 244.737)">
      <path id="Trazado_223628" data-name="Trazado 223628" d="M310.322,237.663l1.832,1.463a.7.7,0,0,0,.463.192.654.654,0,0,0,.655-.655.639.639,0,0,0-.192-.463l-1.832-1.463a.711.711,0,0,0-.463-.192.654.654,0,0,0-.655.655.632.632,0,0,0,.192.463Z" transform="translate(-310.13 -236.546)" fill="#ab6844"/>
    </g>
    <path id="Trazado_223629" data-name="Trazado 223629" d="M293.541,258.7l14.586-4.721-12.98,8.517Z" transform="translate(15.197 13.175)" fill="#ab6844" opacity="0.56"/>
    <g id="Grupo_175716" data-name="Grupo 175716" transform="translate(300.447 248.017)">
      <path id="Trazado_223630" data-name="Trazado 223630" d="M288.523,239.907a15.188,15.188,0,0,1-1.348,11.51.662.662,0,0,0,.235.9c2.564,1.189,4.786-.733,6.41-2.533.563-.625-.36-1.553-.926-.926-1.135,1.259-2.911,3.216-4.823,2.329l.235.895a16.543,16.543,0,0,0,1.479-12.519.655.655,0,0,0-1.263.348Z" transform="translate(-287.093 -239.097)" fill="#ab6844"/>
    </g>
    <g id="Grupo_175717" data-name="Grupo 175717" transform="translate(305.801 256.1)">
      <path id="Trazado_223631" data-name="Trazado 223631" d="M292.062,252.048a7.278,7.278,0,0,0,5.011-6.01.658.658,0,0,0-.655-.655.671.671,0,0,0-.655.655,5.938,5.938,0,0,1-4.051,4.747c-.8.247-.46,1.511.348,1.263Z" transform="translate(-291.257 -245.383)" fill="#ab6844"/>
    </g>
    <g id="Grupo_175718" data-name="Grupo 175718" transform="translate(249.957 352.254)">
      <path id="Trazado_223632" data-name="Trazado 223632" d="M248.458,321.5A21.1,21.1,0,0,1,265,328.227c.572.622,1.5-.306.926-.926a22.38,22.38,0,0,0-17.466-7.111c-.837.046-.842,1.355,0,1.31Z" transform="translate(-247.828 -320.159)" fill="#ab6844"/>
    </g>
    <g id="Grupo_175719" data-name="Grupo 175719" transform="translate(291.092 407.39)">
      <path id="Trazado_223633" data-name="Trazado 223633" d="M280.8,366.464a17.532,17.532,0,0,1,7.754-2.118c.84-.03.844-1.339,0-1.309a19.017,19.017,0,0,0-8.415,2.3c-.741.4-.08,1.533.661,1.13Z" transform="translate(-279.818 -363.037)" fill="#66390c"/>
    </g>
    <g id="Grupo_175720" data-name="Grupo 175720" transform="translate(285.301 287.052)">
      <path id="Trazado_223634" data-name="Trazado 223634" d="M283.157,311.29a117.589,117.589,0,0,1-6.345-31.918q-.264-4.637-.159-9.285a.656.656,0,0,0-1.31,0,118.96,118.96,0,0,0,3.845,32.668q1.179,4.494,2.707,8.884c.275.791,1.54.45,1.263-.348Z" transform="translate(-275.314 -269.453)" fill="#66390c"/>
    </g>
    <g id="Grupo_175721" data-name="Grupo 175721" transform="translate(282.134 291.797)">
      <path id="Trazado_223635" data-name="Trazado 223635" d="M272.943,274.123l2.947,5.137a.656.656,0,0,0,1.132-.661l-2.947-5.137a.656.656,0,0,0-1.132.661Z" transform="translate(-272.851 -273.144)" fill="#66390c"/>
    </g>
    <g id="Grupo_175722" data-name="Grupo 175722" transform="translate(356.615 282.383)">
      <path id="Trazado_223636" data-name="Trazado 223636" d="M339.756,266.02a32.88,32.88,0,0,0-8.979,18.59c-.046.354.334.651.656.654a.672.672,0,0,0,.655-.654,31.41,31.41,0,0,1,8.595-17.664c.589-.6-.337-1.531-.926-.926Z" transform="translate(-330.773 -265.823)" fill="#66390c"/>
    </g>
    <g id="Grupo_175723" data-name="Grupo 175723" transform="translate(358.704 286.114)">
      <path id="Trazado_223637" data-name="Trazado 223637" d="M332.416,269.555q.293,1.352.588,2.706a.661.661,0,0,0,.806.458.67.67,0,0,0,.457-.806q-.293-1.352-.588-2.706a.659.659,0,0,0-.8-.457.669.669,0,0,0-.458.8Z" transform="translate(-332.398 -268.724)" fill="#66390c"/>
    </g>
    <g id="Grupo_175724" data-name="Grupo 175724" transform="translate(379.074 338.923)">
      <path id="Trazado_223638" data-name="Trazado 223638" d="M349.216,311.991c2.576-1.5,5.56-.77,8.331-.419,2.9.369,5.829.187,8.672.989a.655.655,0,0,0,.349-1.263c-3.035-.856-6.158-.625-9.248-1.066-2.952-.422-6.041-.959-8.765.628a.656.656,0,0,0,.661,1.132Z" transform="translate(-348.239 -309.792)" fill="#66390c"/>
    </g>
    <g id="Grupo_175725" data-name="Grupo 175725" transform="translate(368.582 317.596)">
      <path id="Trazado_223639" data-name="Trazado 223639" d="M341.3,297.58a7.86,7.86,0,0,1,1.676-1.871c.033-.028.068-.055.1-.082.167-.134-.1.068.076-.058.087-.066.176-.13.266-.192.171-.117.347-.229.526-.334s.382-.213.579-.309c.1-.048.2-.094.3-.138.059-.027-.048.017.055-.023l.183-.072a.67.67,0,0,0,.458-.8.663.663,0,0,0-.8-.458,9.314,9.314,0,0,0-4.543,3.68.66.66,0,0,0,.235.9.668.668,0,0,0,.895-.235Z" transform="translate(-340.08 -293.206)" fill="#66390c"/>
    </g>
    <g id="Grupo_175726" data-name="Grupo 175726" transform="translate(372.166 320.385)">
      <path id="Trazado_223640" data-name="Trazado 223640" d="M343.852,298.1l2.7-1.506a.655.655,0,0,0-.661-1.132l-2.7,1.507a.662.662,0,0,0-.235.9.669.669,0,0,0,.9.234Z" transform="translate(-342.866 -295.376)" fill="#66390c"/>
    </g>
    <g id="Grupo_175727" data-name="Grupo 175727" transform="translate(363.064 326.383)">
      <path id="Trazado_223641" data-name="Trazado 223641" d="M335.8,300.869l.6,4.2a.656.656,0,0,0,.8.458.675.675,0,0,0,.458-.8q-.3-2.1-.6-4.2a.657.657,0,0,0-.806-.457.675.675,0,0,0-.457.8Z" transform="translate(-335.789 -300.04)" fill="#66390c"/>
    </g>
    <g id="Grupo_175728" data-name="Grupo 175728" transform="translate(250.361 338.866)">
      <path id="Trazado_223642" data-name="Trazado 223642" d="M248.767,311.5c3.612-.415,7.405-.859,10.952.2a15.488,15.488,0,0,1,7.726,5.942c1.121,1.494,2.111,3.08,3.089,4.67.441.716,1.574.059,1.132-.661a34.835,34.835,0,0,0-6.266-8.2,14.511,14.511,0,0,0-4.339-2.675,16.91,16.91,0,0,0-5.7-1.021,47.414,47.414,0,0,0-6.6.438c-.827.1-.837,1.407,0,1.309Z" transform="translate(-248.143 -309.748)" fill="#66390c"/>
    </g>
    <g id="Grupo_175729" data-name="Grupo 175729" transform="translate(256.255 341.04)">
      <path id="Trazado_223643" data-name="Trazado 223643" d="M253.357,312.757a7.96,7.96,0,0,1,7.214,3.934.656.656,0,0,0,1.132-.661,9.272,9.272,0,0,0-8.345-4.582c-.838.04-.844,1.349,0,1.309Z" transform="translate(-252.726 -311.438)" fill="#66390c"/>
    </g>
    <g id="Grupo_175730" data-name="Grupo 175730" transform="translate(251.763 332.332)">
      <path id="Trazado_223644" data-name="Trazado 223644" d="M250.349,307.368a6.159,6.159,0,0,1,4.011-1.391.655.655,0,1,0,0-1.309,7.516,7.516,0,0,0-4.937,1.775.658.658,0,0,0,0,.926.669.669,0,0,0,.926,0Z" transform="translate(-249.233 -304.666)" fill="#66390c"/>
    </g>
    <g id="Grupo_175731" data-name="Grupo 175731" transform="translate(253.197 334.201)">
      <path id="Trazado_223645" data-name="Trazado 223645" d="M251.177,308.5a14.881,14.881,0,0,1,4.965-1.075.667.667,0,0,0,.655-.655.661.661,0,0,0-.655-.655,15.919,15.919,0,0,0-5.312,1.121.676.676,0,0,0-.458.806.659.659,0,0,0,.8.456Z" transform="translate(-250.348 -306.12)" fill="#66390c"/>
    </g>
    <g id="Grupo_175732" data-name="Grupo 175732" transform="translate(278.128 328.209)">
      <path id="Trazado_223646" data-name="Trazado 223646" d="M270.06,302.684a10.439,10.439,0,0,1,4,5.859.655.655,0,0,0,1.263-.348,11.835,11.835,0,0,0-4.6-6.64.661.661,0,0,0-.9.235.668.668,0,0,0,.235.895Z" transform="translate(-269.736 -301.46)" fill="#66390c"/>
    </g>
    <g id="Grupo_175733" data-name="Grupo 175733" transform="translate(281.465 328.176)">
      <path id="Trazado_223647" data-name="Trazado 223647" d="M272.52,302.546a23.718,23.718,0,0,1,3.507,4.069.673.673,0,0,0,.9.235.662.662,0,0,0,.235-.9,25.353,25.353,0,0,0-3.712-4.333.655.655,0,0,0-.926.926Z" transform="translate(-272.331 -301.434)" fill="#66390c"/>
    </g>
    <path id="Trazado_223648" data-name="Trazado 223648" d="M321.705,223.181c-.657-3.261-1.445-6.761-3.928-8.976s-7.232-2.061-8.424,1.044a26.9,26.9,0,0,0-6.021-5.738,9.1,9.1,0,0,0-7.971-1.123c-2.587,1.031-4.389,4.123-3.4,6.724A18.538,18.538,0,0,0,282,211.639c-1.26-.057-2.666.064-3.3,1.467a3.078,3.078,0,0,0-.09,2.129c.638,2.151,2.712,3.413,3.531,5.415a29.03,29.03,0,0,0-9.683-1.687,2.7,2.7,0,0,0-2.541,1.633c-.465,1.175.288,2.059,1.066,2.735a13.141,13.141,0,0,0,5.16,2.751,15,15,0,0,0-4.741.093,3.8,3.8,0,0,0-1.165,7.062,18.154,18.154,0,0,0,10.529,2.086,10.412,10.412,0,0,0,5.37-.085,32.007,32.007,0,0,0,8.745-3.355c.5,1.8,2.771,2.522,4.615,2.207s3.5-1.333,5.3-1.814a6.412,6.412,0,0,1,2.081-.2c1.526,1.3,2.214,3.509,3.384,5.228a9.356,9.356,0,0,0,8,4l-.3.422a8.349,8.349,0,0,1,7.286-.91Z" transform="translate(7.978)" fill="#66390c"/>
    <path id="Trazado_223649" data-name="Trazado 223649" d="M299.262,239.382c.126,1.331-.534,2.483-1.472,2.572s-1.8-.918-1.928-2.25.534-2.482,1.472-2.57S299.136,238.051,299.262,239.382Z" transform="translate(15.857 8.357)"/>
    <path id="Trazado_223650" data-name="Trazado 223650" d="M284.71,242.8c.126,1.331-.532,2.483-1.471,2.572s-1.8-.918-1.928-2.25.532-2.482,1.471-2.571S284.584,241.472,284.71,242.8Z" transform="translate(11.697 9.335)"/>
    <path id="Trazado_223651" data-name="Trazado 223651" d="M292.2,234.138c-.09.973,1,1.7,1.983,1.677a8.721,8.721,0,0,0,2.785-.874,8.789,8.789,0,0,1,4.546-.44,7.645,7.645,0,0,0-8.348-2.72,1.913,1.913,0,0,0-1.024.642.792.792,0,0,0,.131,1.092Z" transform="translate(14.752 6.73)" fill="#66390c"/>
    <path id="Trazado_223652" data-name="Trazado 223652" d="M286.662,235.051c.09.975-1.006,1.7-1.984,1.678a8.778,8.778,0,0,1-2.784-.874,8.794,8.794,0,0,0-4.547-.44,7.645,7.645,0,0,1,8.349-2.72,1.91,1.91,0,0,1,1.024.642.793.793,0,0,1-.131,1.092Z" transform="translate(10.568 6.991)" fill="#66390c"/>
    <g id="Grupo_175734" data-name="Grupo 175734" transform="translate(304.224 278.316)">
      <path id="Trazado_223653" data-name="Trazado 223653" d="M304.922,283.06a51.943,51.943,0,0,1-9.395-11.618.665.665,0,0,0-1.027-.132,32.591,32.591,0,0,0-4.276,4.116l1.117.463c.212-2.484.458-4.984.88-7.444.294-1.714.79-3.7,2.452-4.571.746-.393.085-1.524-.661-1.132-1.874.988-2.63,3.086-3,5.05a81.494,81.494,0,0,0-.981,8.1.661.661,0,0,0,1.117.463,32.591,32.591,0,0,1,4.276-4.116L294.4,272.1a53.179,53.179,0,0,0,9.6,11.883c.619.572,1.546-.352.926-.926Z" transform="translate(-290.03 -262.66)" fill="#66390c"/>
    </g>
    <g id="Grupo_175735" data-name="Grupo 175735" transform="translate(337.353 274.415)">
      <path id="Trazado_223654" data-name="Trazado 223654" d="M317.688,274.288q.945-2.382,1.892-4.764l-1.093.289a16.146,16.146,0,0,0,2.884,2.351.659.659,0,0,0,.985-.566,20.117,20.117,0,0,0-1.385-7.51,8.421,8.421,0,0,0-4.4-4.411c-.778-.32-1.117.945-.347,1.261,4.106,1.688,4.646,6.836,4.818,10.659l.985-.565a14.583,14.583,0,0,1-2.619-2.147.664.664,0,0,0-1.094.289l-1.893,4.766c-.311.783.954,1.123,1.263.347Z" transform="translate(-315.794 -259.626)" fill="#66390c"/>
    </g>
    <g id="Grupo_175736" data-name="Grupo 175736" transform="translate(322.523 301.474)">
      <path id="Trazado_223655" data-name="Trazado 223655" d="M304.383,281.3a49.543,49.543,0,0,0,1.081,14.308c.184.822,1.447.474,1.263-.348a48.268,48.268,0,0,1-1.035-13.96c.059-.841-1.25-.837-1.309,0Z" transform="translate(-304.261 -280.669)" fill="#66390c"/>
    </g>
    <g id="Grupo_175737" data-name="Grupo 175737" transform="translate(296.199 320.433)">
      <path id="Trazado_223656" data-name="Trazado 223656" d="M284.422,298.686a75.572,75.572,0,0,0,16.705-1.991c.82-.192.473-1.454-.348-1.263a73.975,73.975,0,0,1-16.357,1.944.655.655,0,0,0,0,1.309Z" transform="translate(-283.789 -295.413)" fill="#66390c"/>
    </g>
    <g id="Grupo_175738" data-name="Grupo 175738" transform="translate(359.23 380.182)">
      <path id="Trazado_223657" data-name="Trazado 223657" d="M339.427,342.2a66.145,66.145,0,0,0-6.6,16.168.655.655,0,0,0,1.263.348,64.761,64.761,0,0,1,6.464-15.855.655.655,0,0,0-1.13-.661Z" transform="translate(-332.806 -341.878)" fill="#1b4b5e"/>
    </g>
    <g id="Grupo_175739" data-name="Grupo 175739" transform="translate(361.031 383.43)">
      <path id="Trazado_223658" data-name="Trazado 223658" d="M334.211,345.059l.49,3.994a.673.673,0,0,0,.655.655c.319-.015.7-.291.655-.655l-.49-3.994a.672.672,0,0,0-.655-.655c-.319.014-.7.291-.655.655Z" transform="translate(-334.207 -344.404)" fill="#1b4b5e"/>
    </g>
    <g id="Grupo_175740" data-name="Grupo 175740" transform="translate(288.736 350.116)">
      <path id="Trazado_223659" data-name="Trazado 223659" d="M278.047,319.5a122.6,122.6,0,0,1,8.619,29.208q.7,4.265,1.089,8.569c.077.832,1.387.841,1.31,0A123.9,123.9,0,0,0,282.417,327q-1.474-4.137-3.24-8.162c-.336-.77-1.465-.1-1.13.661Z" transform="translate(-277.985 -318.496)" fill="#1b4b5e"/>
    </g>
    <g id="Grupo_175741" data-name="Grupo 175741" transform="translate(292.57 349.812)">
      <path id="Trazado_223660" data-name="Trazado 223660" d="M280.994,319.071a24.068,24.068,0,0,1,.745,8.632c-.078.838,1.231.833,1.309,0a25.13,25.13,0,0,0-.791-8.981.655.655,0,0,0-1.263.349Z" transform="translate(-280.967 -318.26)" fill="#1b4b5e"/>
    </g>
    <g id="Grupo_175742" data-name="Grupo 175742" transform="translate(305.583 344.72)">
      <path id="Trazado_223661" data-name="Trazado 223661" d="M291.411,315.527a37.59,37.59,0,0,1,6.418,6.215.66.66,0,0,0,.926,0,.669.669,0,0,0,0-.926,38.944,38.944,0,0,0-6.683-6.419.657.657,0,0,0-.895.235.669.669,0,0,0,.234.895Z" transform="translate(-291.087 -314.3)" fill="#66390c"/>
    </g>
    <g id="Grupo_175743" data-name="Grupo 175743" transform="translate(322.248 361.792)">
      <path id="Trazado_223662" data-name="Trazado 223662" d="M304.07,328.408a3.583,3.583,0,0,0,2.8,2.546.708.708,0,0,0,.5-.067.654.654,0,0,0-.157-1.2,2.774,2.774,0,0,1-.395-.09c-.066-.019-.129-.044-.192-.067-.1-.037.12.054.048.021-.031-.014-.062-.027-.093-.042a2.662,2.662,0,0,1-.338-.192c-.057-.037-.111-.077-.166-.117.179.127-.005-.008-.051-.048a3.278,3.278,0,0,1-.273-.278l-.066-.078c-.05-.059.094.129.03.04-.04-.055-.078-.111-.116-.167a2.881,2.881,0,0,1-.193-.356c-.05-.105.055.149.013.032-.012-.031-.024-.063-.036-.1-.023-.063-.042-.129-.06-.194a.655.655,0,0,0-1.263.348Z" transform="translate(-304.047 -327.576)" fill="#66390c"/>
    </g>
    <g id="Grupo_175744" data-name="Grupo 175744" transform="translate(347.027 314.959)">
      <path id="Trazado_223663" data-name="Trazado 223663" d="M323.317,291.811v3.2a.655.655,0,0,0,1.31,0v-3.2a.655.655,0,0,0-1.31,0Z" transform="translate(-323.317 -291.156)" fill="#66390c"/>
    </g>
    <g id="Grupo_175745" data-name="Grupo 175745" transform="translate(349.431 314.158)">
      <path id="Trazado_223664" data-name="Trazado 223664" d="M325.186,291.188v1.6a.655.655,0,1,0,1.309,0v-1.6a.675.675,0,0,0-.192-.463.655.655,0,0,0-1.117.463Z" transform="translate(-325.186 -290.533)" fill="#66390c"/>
    </g>
    <g id="Grupo_175746" data-name="Grupo 175746" transform="translate(350.163 306.163)">
      <path id="Trazado_223665" data-name="Trazado 223665" d="M325.773,285.147l.42,2a.66.66,0,0,0,.8.458.67.67,0,0,0,.458-.8l-.42-2a.66.66,0,0,0-.8-.458.671.671,0,0,0-.458.806Z" transform="translate(-325.756 -284.315)" fill="#66390c"/>
    </g>
    <g id="Grupo_175747" data-name="Grupo 175747" transform="translate(271.764 321.354)">
      <path id="Trazado_223666" data-name="Trazado 223666" d="M264.823,296.958a5.821,5.821,0,0,1,.258.761c.033.13.063.26.087.392.012.057.019.113.03.17.012.077.012.076,0,0l.01.086a5.766,5.766,0,0,1,.033.774c0,.135-.012.269-.024.4-.005.057-.012.114-.019.171.021-.159-.014.082-.019.111a.655.655,0,1,0,1.263.347,6.413,6.413,0,0,0-.357-3.559.718.718,0,0,0-.3-.391.671.671,0,0,0-.5-.067.663.663,0,0,0-.458.806Z" transform="translate(-264.787 -296.129)" fill="#66390c"/>
    </g>
    <g id="Grupo_175748" data-name="Grupo 175748" transform="translate(275.753 316.569)">
      <path id="Trazado_223667" data-name="Trazado 223667" d="M268.076,293.523a2.979,2.979,0,0,1,.213.246l-.1-.132a3.053,3.053,0,0,1,.378.644l-.067-.157a3.034,3.034,0,0,1,.21.75l-.024-.174a2.747,2.747,0,0,1,.027.356.655.655,0,1,0,1.309,0A3.637,3.637,0,0,0,269,292.6a.655.655,0,0,0-.926.926Z" transform="translate(-267.889 -292.408)" fill="#66390c"/>
    </g>
  </g>
</svg>
