<svg xmlns="http://www.w3.org/2000/svg" width="233.038" height="218.84" viewBox="0 0 233.038 218.84">
  <g id="Grupo_176459" data-name="Grupo 176459" transform="translate(-261.415 -245.02)">
    <path id="Trazado_224515" data-name="Trazado 224515" d="M294.465,406.61a23.831,23.831,0,0,1-10.3-7.034c-2.226-2.613-3.933-6.044-3.238-9.409.812-3.937,4.727-7.006,4.492-11.02-.193-3.274-3.048-5.627-5.37-7.934-3.555-3.535-6.409-8.234-6.17-13.251s4.551-9.97,9.528-9.471c2.233.222,4.495,1.446,6.609.692,2.893-1.032,3.614-5.067,6.313-6.536,3.081-1.679,7.051,1.149,7.9,4.568s-.418,6.965-1.668,10.255-2.519,6.835-1.679,10.255c1.344,5.469,7.676,8.891,8.224,14.5.446,4.572-3.216,8.745-2.953,13.331.168,2.928,1.843,6.212.059,8.533-1.137,1.479-3.2,1.787-5.051,1.981l-7.041.74Z" transform="translate(4.956 38.669)" fill="#8e8b5e"/>
    <path id="Trazado_224516" data-name="Trazado 224516" d="M387.393,333.191c-13.267-.668-26.754-1.317-39.662,1.82-7.007,1.7-14,4.693-18.7,10.156s-6.563,13.82-2.954,20.064c3.746,6.479,11.8,8.868,19.149,10.3a208.97,208.97,0,0,0,60.631,2.812,153.388,153.388,0,0,0-.888-37.4Z" transform="translate(24.987 34.883)" fill="#6da8c6"/>
    <path id="Trazado_224517" data-name="Trazado 224517" d="M346.21,356.621q-7.636-1.067-15.346-1.454a42.332,42.332,0,0,1-2.736,12.814c-.621,1.567-1.359,3.091-1.857,4.7-1.72,5.565-.439,11.562.85,17.243.263,1.158.617,2.445,1.646,3.037s2.742-.347,2.3-1.447a2.6,2.6,0,0,0,4.717,1.6,2.469,2.469,0,0,0,4.829-.07,5.02,5.02,0,0,0,2.125,2.993c1.829.871,4.008-.87,4.456-2.844s-.245-4-.748-5.963-.777-4.2.356-5.875a21.377,21.377,0,0,0,7,2.522,2.28,2.28,0,0,0,1.152-.01,1.668,1.668,0,0,0,.7-2.257,4.822,4.822,0,0,0-1.893-1.819l-5.748-3.772a3.288,3.288,0,0,1-1.344-1.317c-.394-.919.106-1.946.464-2.879,1.014-2.637.9-5.552.766-8.373l-.344-7.389Z" transform="translate(25.49 43.852)" fill="#4b8196"/>
    <path id="Trazado_224518" data-name="Trazado 224518" d="M394.5,349.5a255.484,255.484,0,0,0-41.8-6.672,1.956,1.956,0,0,0-2.592,1.752,166.72,166.72,0,0,0-4.959,30.889c18.8,3.273,38.124.516,57.133,2.154a8.81,8.81,0,0,1,3.922.986,7.383,7.383,0,0,1,2.9,4.79,18.524,18.524,0,0,1-2.522,14.2,5.485,5.485,0,0,0-.932,1.813c-.317,1.541,1.018,3.032,2.532,3.465a9.523,9.523,0,0,0,4.663-.257c4.872-1.095,10.378-2.673,12.531-7.177,1.159-2.423,1.075-5.229.969-7.912q-.2-4.956-.4-9.91c-.047-1.205-.158-2.547-1.051-3.354-.765-.691-2.128-1.591-1.387-2.306a1.518,1.518,0,0,1,.766-.3c2.719-.59,4.66-3.15,5.351-5.846s.368-5.534.041-8.3a9.173,9.173,0,0,0-1.219-4.232c-1.632-2.354-4.938-2.644-7.8-2.708l-19.922-.446Z" transform="translate(33.337 38.93)" fill="#d3831a"/>
    <path id="Trazado_224519" data-name="Trazado 224519" d="M335.156,338.684c-1.879,8.085-5.014,17.52-5.853,25.779a71.594,71.594,0,0,1,12.313,2.224l10.075-26.506a84.794,84.794,0,0,0-16.407-1.539Z" transform="translate(27.028 37.273)" fill="#d68a5f"/>
    <path id="Trazado_224520" data-name="Trazado 224520" d="M352.394,295.216a394.28,394.28,0,0,0-11.835,44.03c-.712,3.431-1.4,6.929-3.059,10.015-2.18,4.055-6.208,7.923-5.643,12.492,4.879-2.591,10.754,3.376,16.09,1.949a9,9,0,0,0,4.07-2.7c6.115-6.49,6.64-16.3,10.076-24.527,1.159-2.77,2.686-5.46,3.033-8.442.549-4.738-1.953-9.236-4.369-13.349l-6.519-11.1Z" transform="translate(28.023 19.984)" fill="#594d35"/>
    <path id="Trazado_224521" data-name="Trazado 224521" d="M445.034,351.027l-14.157-14.978a51.722,51.722,0,0,0-8.056-7.4,46.476,46.476,0,0,0-8.547-4.344c-11.147-4.636-23.112-8.431-35.112-7.112a11.26,11.26,0,0,0-4.843,1.394c-2.209,1.394-3.351,3.948-4.336,6.368-1.792,4.4-3.49,9.3-2,13.812.923,2.8,2.961,5.064,4.963,7.224,12.193,13.145,25.864,26.139,43.15,30.9a22.316,22.316,0,0,0,21.141-3.532,27.352,27.352,0,0,0,8.7-8.481c2.085-3.512,2.915-7.937,1.454-11.753Z" transform="translate(42.2 28.629)" fill="#6da8c6"/>
    <path id="Trazado_224522" data-name="Trazado 224522" d="M406.592,338.023a4.155,4.155,0,0,0-4.716-2.649,8.289,8.289,0,0,1-4.077-.357c-2.518-.867-4.844-2.468-7.5-2.626a25.332,25.332,0,0,0-5.029.638,16.557,16.557,0,0,1-8.1-.884c-1.671-.628-3.46-1.545-5.148-.315a3.646,3.646,0,0,0-1.376,2.289c-.4,2.107.517,4.032,1.365,5.892a114.865,114.865,0,0,1,10.143,53.438,32.64,32.64,0,0,1-1.9,10.546c-2.345,5.813-7.455,10.136-13.036,12.987-2.94,1.5-6.589,3.478-6.385,6.774.183,2.951,3.465,4.628,6.36,5.23a28.035,28.035,0,0,0,23.595-6.086c.955-.821,1.985-1.762,3.245-1.763a4.873,4.873,0,0,1,1.351.254c4.018,1.155,8.622,2.188,12.151-.057,3.595-2.286,4.594-7.171,4.069-11.4s-2.22-8.25-2.684-12.485c-.714-6.535,1.537-13,2.092-19.551a76.08,76.08,0,0,0-.773-15.325q-1.267-10.723-2.535-21.446Z" transform="translate(39.574 34.319)" fill="#f59f18"/>
    <path id="Trazado_224523" data-name="Trazado 224523" d="M301.562,414.225c-2.971-1.146-6.047-2.363-8.232-4.686s-3.2-6.094-1.444-8.762c2.707-4.123,10.719-4.53,10.082-9.7a5.5,5.5,0,0,0-2.2-3.711c-4.014-2.975-8.168-9.193-5.14-13.613,2.621-3.827,9.489-4.259,10.134-8.857.555-3.962-4.239-6.409-5.927-10.034a7.243,7.243,0,0,1,3.726-9.4c2.559-1.012,5.618-.464,7.989-1.862,4.7-2.77,3.246-10.606,7.29-14.278,3.075-2.792,8.515-1.646,10.809,1.825s1.639,8.378-.91,11.66a3.856,3.856,0,0,0-1.117,2.162c-.007,1.081.979,1.858,1.815,2.538,3.849,3.121,6.23,9.365,2.774,12.914-2.9,2.974-8.589,2.626-10.375,6.38-2.669,5.613,6.978,10.331,6.62,16.543-.2,3.458-3.4,5.82-6.132,7.936s-5.528,5.306-4.519,8.618c.5,1.627,1.827,2.845,2.641,4.338a6.7,6.7,0,0,1,.614,4.537,7.83,7.83,0,0,1-8.275,6.188Z" transform="translate(11.776 32.939)" fill="#c1bf8e"/>
    <path id="Trazado_224524" data-name="Trazado 224524" d="M291.4,403.844c-2.535-.713-4.728-2.968-7.263-3.681-3.975-1.119-8.063-2.293-11.314-4.85a8.254,8.254,0,0,1-2.5-2.937c-2.347-5.1,3.581-11.216,1.379-16.386-1.708-4.014-7.312-4.934-9.493-8.709a6.563,6.563,0,0,1,1.646-8.218,6.494,6.494,0,0,1,8.322.646c1.093,1.134,1.9,2.765,3.431,3.122,2.22.517,3.85-1.924,5.229-3.747a9.98,9.98,0,0,1,5.2-3.794,5.976,5.976,0,0,1,6,1.6c2.28,2.648,1.169,6.675.166,10.026s-1.43,7.726,1.485,9.644c1.121.737,2.524.916,3.681,1.594,3.3,1.931,3.144,7.016,1.032,10.211-1.036,1.564-2.48,3.448-1.567,5.089a7,7,0,0,0,1.228,1.349,5.784,5.784,0,0,1,.492,7.21,5.719,5.719,0,0,1-7,1.644Z" transform="translate(0 43.813)" fill="#c1bf8e"/>
    <g id="Grupo_176391" data-name="Grupo 176391" transform="translate(277.781 411.29)">
      <path id="Trazado_224525" data-name="Trazado 224525" d="M273.5,365.086a8.646,8.646,0,0,1,4.569,5.321c1,2.912.756,6.078.31,9.071-.407,2.735-1.072,5.516-.715,8.294a8.245,8.245,0,0,0,1.27,3.588,10.392,10.392,0,0,0,2.873,2.7c2.262,1.538,5.37,2.925,5.9,5.922.129.72,1.226.415,1.1-.3-.478-2.684-2.869-4.347-5.019-5.7a15.947,15.947,0,0,1-3.26-2.437,6.8,6.8,0,0,1-1.692-3.558c-.489-2.842.294-5.77.693-8.572.435-3.055.656-6.271-.341-9.244a9.879,9.879,0,0,0-5.387-6.182c-.677-.28-.97.821-.3,1.1Z" transform="translate(-273.121 -363.944)" fill="#8e8b5e"/>
    </g>
    <g id="Grupo_176392" data-name="Grupo 176392" transform="translate(313.681 376.547)">
      <path id="Trazado_224526" data-name="Trazado 224526" d="M299.775,409.825c3.765-3.618,7.4-7.6,9.758-12.3a21.515,21.515,0,0,0,2.227-7.184,19.563,19.563,0,0,0-.773-7.611c-.714-2.508-1.71-4.926-2.459-7.423a15.542,15.542,0,0,1-.754-7.368c.9-4.674,5.1-7.574,7.144-11.673a12.993,12.993,0,0,0,1.065-7.137c-.215-2.466-.773-5.088-.1-7.527a6.6,6.6,0,0,1,.721-1.658.57.57,0,0,0-.983-.575c-2.754,4.548.359,9.918-1.06,14.733a17.448,17.448,0,0,1-3.438,5.706,24.917,24.917,0,0,0-3.8,5.713c-2.038,4.86.02,9.948,1.629,14.6a27.023,27.023,0,0,1,1.762,7.52,18.021,18.021,0,0,1-1.3,7.374c-1.9,4.868-5.414,8.994-9.061,12.652q-.684.686-1.384,1.358c-.53.509.275,1.313.8.8Z" transform="translate(-298.798 -339.094)" fill="#8e8b5e"/>
    </g>
    <g id="Grupo_176393" data-name="Grupo 176393" transform="translate(322.247 389.182)">
      <path id="Trazado_224527" data-name="Trazado 224527" d="M308.466,357.066a8.417,8.417,0,0,1-2.068-8.232.57.57,0,0,0-1.1-.3,9.578,9.578,0,0,0,2.36,9.341.57.57,0,0,0,.805-.805Z" transform="translate(-304.925 -348.131)" fill="#8e8b5e"/>
    </g>
    <g id="Grupo_176394" data-name="Grupo 176394" transform="translate(323.179 406.781)">
      <path id="Trazado_224528" data-name="Trazado 224528" d="M306.571,368.642a26.652,26.652,0,0,0,5.279-7.062c.334-.65-.647-1.226-.983-.575a25.664,25.664,0,0,1-5.1,6.831c-.531.508.275,1.311.805.805Z" transform="translate(-305.592 -360.719)" fill="#8e8b5e"/>
    </g>
    <g id="Grupo_176395" data-name="Grupo 176395" transform="translate(283.432 418.305)">
      <path id="Trazado_224529" data-name="Trazado 224529" d="M278.114,377.5a15.275,15.275,0,0,0,3.589-7.824.59.59,0,0,0-.4-.7.574.574,0,0,0-.7.4,14.251,14.251,0,0,1-3.3,7.322c-.477.551.326,1.36.805.8Z" transform="translate(-277.163 -368.961)" fill="#8e8b5e"/>
    </g>
    <g id="Grupo_176396" data-name="Grupo 176396" transform="translate(275.114 415.081)">
      <path id="Trazado_224530" data-name="Trazado 224530" d="M271.375,367.632a12.861,12.861,0,0,0,8.18,3.881c.73.063.726-1.077,0-1.138a11.658,11.658,0,0,1-7.375-3.547c-.509-.53-1.313.275-.805.8Z" transform="translate(-271.213 -366.655)" fill="#8e8b5e"/>
    </g>
    <g id="Grupo_176397" data-name="Grupo 176397" transform="translate(288.103 433.262)">
      <path id="Trazado_224531" data-name="Trazado 224531" d="M281.627,387.463a27.725,27.725,0,0,0,1.137-7.255.569.569,0,0,0-1.138,0,26.522,26.522,0,0,1-1.1,6.953.57.57,0,0,0,1.1.3Z" transform="translate(-280.503 -379.659)" fill="#8e8b5e"/>
    </g>
    <path id="Trazado_224532" data-name="Trazado 224532" d="M332.61,414.1c2.88-4.963,5.753-11.305,2.573-16.081-1.36-2.043-3.586-3.308-5.731-4.5l-8.832-4.907a8.393,8.393,0,0,1-3.058-2.392c-1.573-2.335-.438-5.52,1.079-7.892s3.463-4.748,3.458-7.564c0-2.107-1.117-4.025-1.927-5.971-1.365-3.28-1.843-7.241.039-10.254s6.739-4.124,9.046-1.422c1.806,2.115,1.714,5.837,4.263,6.954a8.955,8.955,0,0,0,3.651.266c6.236-.014,11.311,7.177,9.209,13.046-.988,2.76-3.251,5.369-2.588,8.224.344,1.486,1.435,2.662,2.252,3.95,4.031,6.349,1.092,14.984-3.794,20.7a36.016,36.016,0,0,1-9.443,7.824Z" transform="translate(22.052 42.425)" fill="#c1bf8e"/>
    <path id="Trazado_224533" data-name="Trazado 224533" d="M364.046,356.345a133.876,133.876,0,0,1-20.585,24.116,1.678,1.678,0,0,1-2.4.347l-9.689-4.87q8.177-16.153,16.357-32.306a60.549,60.549,0,0,1,18.436,11.087Z" transform="translate(27.852 39.26)" fill="#f6a472"/>
    <path id="Trazado_224534" data-name="Trazado 224534" d="M323.553,279.977a10.118,10.118,0,0,1,.336-10.271,19.835,19.835,0,0,1,3.8-3.968l6.286-5.447c1.9-1.647,3.873-3.335,6.272-4.084,5.63-1.759,11.332,2.085,15.983,5.711,3.121,2.434,6.285,4.912,8.611,8.112s3.743,7.28,2.911,11.149c-1.242,5.769-7.994,9.665-13.609,7.855-1.464-.473-2.886-1.274-4.422-1.194a18.481,18.481,0,0,0-3.614,1.03,7.118,7.118,0,0,1-6.447-1.565Z" transform="translate(24.245 4.279)" fill="#b97216"/>
    <path id="Trazado_224535" data-name="Trazado 224535" d="M361.246,280.96c4.074-2.514,9.247-.263,13.95.624,7.284,1.37,15.583-.583,21.635,3.7,2.18,1.544,3.789,3.744,5.688,5.622,5.977,5.908,14.848,8.653,19.714,15.505,1.69,2.381,2.8,5.151,4.647,7.414,3.383,4.154,8.769,6.1,12.777,9.651,3.343,2.964,5.6,6.93,7.8,10.82q5.222,9.247,10.444,18.492c2.869,5.082,5.841,10.764,4.611,16.469a3.366,3.366,0,0,1-.66,1.541c-1.155,1.317-3.305.554-4.808-.347a73.517,73.517,0,0,1-21.01-18.982c-3.109-4.162-6.22-8.986-11.24-10.329-2.4-.642-4.934-.379-7.406-.6-7.195-.65-13.332-5.31-20.162-7.66a9.985,9.985,0,0,0-5.9-.577c-2.308.657-3.961,2.631-5.464,4.5-3.971,4.945-8,9.99-10.31,15.9-1.6,4.084-2.326,8.477-4.073,12.5-2.231,5.134-2.937,11.116-6.652,15.305-1.644,1.853-4.1,3.883-6.3,2.742a6.885,6.885,0,0,1-2.173-2.385c-2.294-3.251-8.937-7.276-12.838-8.057a3.756,3.756,0,0,1-2.1-.832c-.944-1-.354-2.619.3-3.828,5.24-9.787,11.578-19.427,12.984-30.44a13.766,13.766,0,0,0,.007-4.312,21.21,21.21,0,0,0-2.173-5.265c-2.77-5.6-2.156-12.966-2.81-19.174-.336-3.177-2.584-5.182-2.164-8.348a29.084,29.084,0,0,1,10.466-18.627Z" transform="translate(31.658 13.85)" fill="#8c7c58"/>
    <path id="Trazado_224536" data-name="Trazado 224536" d="M341.842,263.792a89.7,89.7,0,0,1,7.866,6.863,8.208,8.208,0,0,1,6.8-2.113,5.484,5.484,0,0,1,4.487,5.1c-.036,2.458-3.713,6.779-6.055,6.031,4.228,3.588,13.369,12.944,13.253,13.485-1.222,5.717-3.85,13.14-6.981,18.078q-4.383-5-8.768-9.994c-2.311,2.693-2.721,5.145-6.1,6.213-2.595.819-5.292-.878-7.262-2.754-1.834-1.746-5.576-7.157-6.257-7.382-.614-.2-5.049,1.346-6.63,1.906q2.122-3.307,4.247-6.612a83.239,83.239,0,0,1-6.35-9.706Z" transform="translate(24.952 7.473)" fill="#f6a472"/>
    <path id="Trazado_224537" data-name="Trazado 224537" d="M324.58,284.178c5.495.675,11.119-2.35,15.943-5.067l7.764-4.37a28.134,28.134,0,0,0,3.618-2.289,23.57,23.57,0,0,1,2.135-1.655,6.516,6.516,0,0,1,7.049.268c-5.27-8.488-12.593-11.576-22.552-10.773-1.523.123-12.749,10.594-14.31,12.291C320.21,276.956,324.58,284.178,324.58,284.178Z" transform="translate(24.331 6.031)" fill="#b97216"/>
    <path id="Trazado_224538" data-name="Trazado 224538" d="M339.85,264.411q-1.42-1.925-2.841-3.85a20.053,20.053,0,0,1-3.256-5.591,6.779,6.779,0,0,1,.763-6.2,6.454,6.454,0,0,1,5.931-2.083,13.576,13.576,0,0,1,5.934,2.689c2.926,2.1,5.672,5.163,5.525,8.763-.122,2.982-2.227,5.528-4.582,7.364-1.321,1.029-3.544,1.767-4.411.333Z" transform="translate(28.639 0.637)" fill="#b97216"/>
    <g id="Grupo_176398" data-name="Grupo 176398" transform="translate(347.677 404.223)">
      <path id="Trazado_224539" data-name="Trazado 224539" d="M323.307,359.831c2.289,1.853,2.395,5.033,2.364,7.74a22.6,22.6,0,0,0,.291,4.993,10.578,10.578,0,0,0,1.683,3.779c1.542,2.231,3.643,3.976,5.464,5.966a15.892,15.892,0,0,1,3.906,7.388,15.564,15.564,0,0,1-.835,9.4c-.287.667.693,1.247.983.575a16.863,16.863,0,0,0-2.024-16.709c-1.715-2.227-3.927-4-5.723-6.155a11.2,11.2,0,0,1-2.075-3.509,15.215,15.215,0,0,1-.54-5.1c.036-3.175.02-6.972-2.69-9.168-.565-.457-1.374.344-.805.805Z" transform="translate(-323.113 -358.889)" fill="#8e8b5e"/>
    </g>
    <path id="Trazado_224540" data-name="Trazado 224540" d="M350.208,373.615a69.14,69.14,0,0,1-13.748-9.938c-3.293,3.2-4.152,8.347-8.6,9.507a17.456,17.456,0,0,0-3.368.966,8.567,8.567,0,0,0-3.438,3.705c-2.445,4.383-3.351,9.475-3.82,14.447a1.909,1.909,0,0,0,1.783,2.114c1.935.062,1.732-2.87,2.919-4.282a8.34,8.34,0,0,0-1.481,3.164,3.367,3.367,0,0,0,.222,1.822,1.275,1.275,0,0,0,2.072.378,7.168,7.168,0,0,0,1.752-2.83,2.906,2.906,0,0,0,.259,4.432,2.561,2.561,0,0,0,3.769-1.935c-.6,1.785,1.23,3.7,3.112,3.706a5.5,5.5,0,0,0,4.464-3.017,27.378,27.378,0,0,0,1.929-5.295,8.981,8.981,0,0,1,2.96-4.694,21.727,21.727,0,0,1,3.911-1.749,10.755,10.755,0,0,0,6.183-8.833Z" transform="translate(22.221 47.24)" fill="#6da8c6"/>
    <g id="Grupo_176399" data-name="Grupo 176399" transform="translate(377.23 278.823)">
      <path id="Trazado_224541" data-name="Trazado 224541" d="M345.305,275.185l2.722-5.128c.344-.647-.639-1.223-.983-.575l-2.722,5.128c-.343.647.64,1.223.983.575Z" transform="translate(-344.251 -269.197)" fill="#ab6844"/>
    </g>
    <g id="Grupo_176400" data-name="Grupo 176400" transform="translate(379.188 281.185)">
      <path id="Trazado_224542" data-name="Trazado 224542" d="M345.816,271.859l1.774,1.569a.6.6,0,0,0,.4.168.57.57,0,0,0,.4-.972l-1.773-1.569a.6.6,0,0,0-.4-.168.57.57,0,0,0-.4.972Z" transform="translate(-345.652 -270.887)" fill="#ab6844"/>
    </g>
    <path id="Trazado_224543" data-name="Trazado 224543" d="M344.371,293.163l5.907-9.066-2.74,13.178Z" transform="translate(33.027 15.557)" fill="#ab6844" opacity="0.61"/>
    <g id="Grupo_176401" data-name="Grupo 176401" transform="translate(361.904 302.646)">
      <path id="Trazado_224544" data-name="Trazado 224544" d="M334.143,291.038a6.99,6.99,0,0,0,3.2-4.087.569.569,0,0,0-1.1-.3c-.053.185-.113.365-.183.544,0,0-.067.165-.029.077l-.059.13c-.041.087-.083.173-.126.259-.088.169-.183.336-.287.5-.056.09-.115.176-.175.263-.022.031-.045.062-.069.092,0,0-.106.14-.05.068a6.416,6.416,0,0,1-.787.832c-.073.063-.147.124-.219.185-.144.116.082-.057-.067.052l-.116.084c-.164.116-.334.224-.508.324a.569.569,0,0,0,.575.983Z" transform="translate(-333.289 -286.236)" fill="#ab6844"/>
    </g>
    <path id="Trazado_224545" data-name="Trazado 224545" d="M324.536,266.873a11.027,11.027,0,0,0-1.952,13.175,31.134,31.134,0,0,1,1.917,3.178,6.317,6.317,0,0,1,.488,1.971,3.518,3.518,0,0,1-.994,2.995,1.9,1.9,0,0,1-2.827-.354c1.235,1.7,4.076,1.657,5.528.138a5.137,5.137,0,0,0,.538-5.869c-.816-1.506-2.245-2.651-2.856-4.252a9.453,9.453,0,0,1-.138-4.652,15.582,15.582,0,0,1,1.151-4.682Z" transform="translate(23.789 8.7)" fill="#b97216"/>
    <g id="Grupo_176402" data-name="Grupo 176402" transform="translate(364.606 250.21)">
      <path id="Trazado_224546" data-name="Trazado 224546" d="M339.3,257.493a4.646,4.646,0,0,1-2.93-4.282,4.029,4.029,0,0,1,.782-2.74c.823-.976,1.886-.54,2.711.2,1.651,1.471,3.186,3.79,2.77,6.11,0,.013-.1.35-.1.352l.246,0-.089-.113a2.129,2.129,0,0,0-.259-.4c-.081-.136-.157-.275-.225-.419a4.736,4.736,0,0,1-.466-1.8,1.981,1.981,0,0,1,.331-1.349,1.48,1.48,0,0,1,1.367-.414,2.846,2.846,0,0,1,2.161,2.409,6.1,6.1,0,0,1-1.208,4.017c-.4.618.589,1.19.983.573a7.157,7.157,0,0,0,1.345-4.733,4.062,4.062,0,0,0-2.538-3.239,2.571,2.571,0,0,0-3.453,1.578,5.408,5.408,0,0,0,1.025,4.411c.439.6,1.2.854,1.7.15a3.487,3.487,0,0,0,.365-2.146,8.108,8.108,0,0,0-1.787-4.316c-.888-1.151-2.224-2.651-3.818-2.6-1.481.043-2.44,1.418-2.788,2.726a5.963,5.963,0,0,0,3.575,7.13c.7.229,1-.87.3-1.1Z" transform="translate(-335.221 -248.732)" fill="#874c0b"/>
    </g>
    <g id="Grupo_176403" data-name="Grupo 176403" transform="translate(347.582 272.999)">
      <path id="Trazado_224547" data-name="Trazado 224547" d="M323.229,274.562a13.134,13.134,0,0,0,12.274,2.606,12.646,12.646,0,0,0,5.623-3.491c.958-1,1.826-2.086,2.833-3.038a16.083,16.083,0,0,1,2.965-2.212,16.611,16.611,0,0,1,8.084-2.257.569.569,0,0,0,0-1.138,17.986,17.986,0,0,0-13,5.981,33.7,33.7,0,0,1-2.77,2.9,10.59,10.59,0,0,1-2.68,1.672,12.288,12.288,0,0,1-6.08.919,11.362,11.362,0,0,1-6.444-2.746c-.547-.485-1.355.317-.805.805Z" transform="translate(-323.046 -265.032)" fill="#874c0b"/>
    </g>
    <g id="Grupo_176404" data-name="Grupo 176404" transform="translate(351.858 277.645)">
      <path id="Trazado_224548" data-name="Trazado 224548" d="M326.17,269.218a4.851,4.851,0,0,0,3.881,2.448,10.855,10.855,0,0,0,5.527-1.317c.667-.3.09-1.279-.575-.983a10.051,10.051,0,0,1-4.7,1.184,3.744,3.744,0,0,1-3.147-1.907c-.329-.654-1.311-.08-.983.575Z" transform="translate(-326.104 -268.355)" fill="#874c0b"/>
    </g>
    <g id="Grupo_176405" data-name="Grupo 176405" transform="translate(357.598 272.652)">
      <path id="Trazado_224549" data-name="Trazado 224549" d="M330.288,265.638a3.62,3.62,0,0,0,4.844,1.092.569.569,0,1,0-.575-.983c-.074.048-.15.092-.229.133l-.119.057c-.056.025.064-.02-.034.011a4.319,4.319,0,0,1-.508.134c-.164.032.108,0-.059.008-.035,0-.07.006-.1.008q-.132.006-.264,0c-.088,0-.176-.01-.264-.018-.166-.015.1.027-.059-.008l-.13-.027a3.16,3.16,0,0,1-.506-.155c-.088-.035.113.059-.035-.017-.039-.02-.078-.038-.117-.059-.078-.041-.154-.084-.228-.131-.038-.024-.073-.05-.109-.074-.085-.055.015.017-.032-.022a2.548,2.548,0,0,1-.2-.173c-.063-.062-.12-.127-.179-.193-.039-.046.034.052-.024-.031-.031-.043-.061-.087-.089-.131a.569.569,0,0,0-.983.575Z" transform="translate(-330.21 -264.784)" fill="#874c0b"/>
    </g>
    <g id="Grupo_176406" data-name="Grupo 176406" transform="translate(387.436 277.446)">
      <path id="Trazado_224550" data-name="Trazado 224550" d="M351.712,269.192a3.539,3.539,0,0,1,.212,4.508.585.585,0,0,0,0,.8.574.574,0,0,0,.805,0,4.707,4.707,0,0,0-.212-6.117c-.508-.531-1.312.274-.805.805Z" transform="translate(-351.551 -268.212)" fill="#874c0b"/>
    </g>
    <g id="Grupo_176407" data-name="Grupo 176407" transform="translate(387.042 285.306)">
      <path id="Trazado_224551" data-name="Trazado 224551" d="M353.372,274.4c-.017.14.024-.13,0,.008-.007.034-.011.066-.018.1-.014.073-.031.144-.05.215a1.221,1.221,0,0,1-.129.382c.074-.1.015-.034-.006.013-.014.031-.029.062-.043.091-.034.066-.069.131-.1.2a3.951,3.951,0,0,1-.235.352c-.045.063.088-.1,0,0-.022.025-.043.052-.066.077-.048.056-.1.11-.151.162a3.374,3.374,0,0,1-.315.284c-.053.045.091-.064,0,0-.032.024-.064.048-.1.07-.056.038-.113.073-.171.108s-.117.066-.178.1l-.108.053c-.106.05.1-.042-.013.006a.585.585,0,0,0-.4.7.575.575,0,0,0,.7.4,4.047,4.047,0,0,0,2.515-3.3.571.571,0,0,0-.569-.569.585.585,0,0,0-.569.569Z" transform="translate(-351.269 -273.835)" fill="#874c0b"/>
    </g>
    <g id="Grupo_176408" data-name="Grupo 176408" transform="translate(364.776 260.607)">
      <path id="Trazado_224552" data-name="Trazado 224552" d="M336.054,257.338a3.518,3.518,0,0,1,2.588.92,7.874,7.874,0,0,0,2.7,1.408,3.829,3.829,0,0,0,1.743-.067,15.252,15.252,0,0,1,1.966-.559,3.037,3.037,0,0,1,2.921,1.493.57.57,0,0,0,.983-.575,4.194,4.194,0,0,0-3.094-2.037,4.675,4.675,0,0,0-2.017.246,4.8,4.8,0,0,1-2.1.419,7.829,7.829,0,0,1-2.872-1.545,4.066,4.066,0,0,0-3.112-.8c-.716.158-.412,1.256.3,1.1Z" transform="translate(-335.344 -256.169)" fill="#874c0b"/>
    </g>
    <g id="Grupo_176409" data-name="Grupo 176409" transform="translate(359.222 245.02)">
      <path id="Trazado_224553" data-name="Trazado 224553" d="M337.068,259.246a5.464,5.464,0,0,1-4.473-4.473,7.074,7.074,0,0,1,2.694-6.479,10.721,10.721,0,0,1,7.616-2.106,9.118,9.118,0,0,1,3.8.969c1.257.7,1.9,1.913,2.768,3.006.9,1.139,2.08,2.166,2.445,3.625a4.335,4.335,0,0,1-.949,3.874c-.487.545.316,1.353.8.8a5.5,5.5,0,0,0,1.4-3.92,6.571,6.571,0,0,0-1.822-3.922c-.5-.591-1.012-1.166-1.461-1.8a10.82,10.82,0,0,0-1.507-1.864,7.819,7.819,0,0,0-4.071-1.75,12.65,12.65,0,0,0-9.011,1.664,8.571,8.571,0,0,0-3.919,7.191,6.625,6.625,0,0,0,5.39,6.278.59.59,0,0,0,.7-.4.574.574,0,0,0-.4-.7Z" transform="translate(-331.371 -245.02)" fill="#b97216"/>
    </g>
    <g id="Grupo_176410" data-name="Grupo 176410" transform="translate(345.299 259.823)">
      <path id="Trazado_224554" data-name="Trazado 224554" d="M322.543,277c1.247-3.718,1.144-7.828,2.863-11.4a8.374,8.374,0,0,1,3.385-3.822c1.7-.94,3.643-1.338,5.383-2.2a29.655,29.655,0,0,0,3.016-1.76c.626-.411,1.788-1.489,2.563-.914.59.436,1.158-.551.575-.983a2.3,2.3,0,0,0-2.493.126c-.933.509-1.785,1.174-2.7,1.714a20.411,20.411,0,0,1-2.984,1.476c-.963.37-1.953.667-2.905,1.07a9.012,9.012,0,0,0-4.225,3.629,16.618,16.618,0,0,0-1.985,5.352,65.434,65.434,0,0,1-1.588,7.407c-.233.695.865.994,1.1.3Z" transform="translate(-321.413 -255.608)" fill="#b97216"/>
    </g>
    <g id="Grupo_176411" data-name="Grupo 176411" transform="translate(378.564 265.549)">
      <path id="Trazado_224555" data-name="Trazado 224555" d="M345.6,260.833a28.493,28.493,0,0,1,7.242,3.971c2.083,1.475,3.926,3.336,4.488,5.907a18.457,18.457,0,0,1,.161,4.966c-.039.731,1.1.73,1.139,0,.162-2.982.161-6.027-1.681-8.541a20.839,20.839,0,0,0-6.335-5.121,23.591,23.591,0,0,0-4.712-2.279c-.7-.232-1,.867-.3,1.1Z" transform="translate(-345.205 -259.703)" fill="#b97216"/>
    </g>
    <path id="Trazado_224556" data-name="Trazado 224556" d="M334.132,282.4c.679.99.674,2.174-.013,2.644s-1.792.048-2.47-.942-.674-2.176.013-2.645S333.454,281.412,334.132,282.4Z" transform="translate(27.76 14.431)"/>
    <path id="Trazado_224557" data-name="Trazado 224557" d="M328.35,279.662c.315.8.8,1.721,1.654,1.769a2.6,2.6,0,0,0,1.534-.689,9.375,9.375,0,0,1,5.054-1.7,2.588,2.588,0,0,0-1.724-1.376,7.591,7.591,0,0,0-2.266-.175c-1.713.038-3.757.273-4.537,1.8Z" transform="translate(26.535 12.925)" fill="#874c0b"/>
    <g id="Grupo_176412" data-name="Grupo 176412" transform="translate(384.487 308.174)">
      <path id="Trazado_224558" data-name="Trazado 224558" d="M350.566,335.78q1.479-4.933,2.957-9.867c.97-3.237,2.015-6.463,2.8-9.753a36.955,36.955,0,0,1,1.029-4.376,32.324,32.324,0,0,1,1.7-3.483,13.315,13.315,0,0,0,1.387-3.63c.122-.664.123-1.331.187-2a17.11,17.11,0,0,1,.368-2.141c.749-3.262,2.132-6.409,2.265-9.79.028-.733-1.11-.731-1.138,0-.117,2.963-1.267,5.77-2.008,8.61a21.532,21.532,0,0,0-.682,4.247,9.5,9.5,0,0,1-1.1,3.62c-.572,1.16-1.233,2.276-1.749,3.463a21.065,21.065,0,0,0-1.11,4.1c-.7,3.266-1.734,6.457-2.693,9.654l-3.309,11.044a.569.569,0,0,0,1.1.3Z" transform="translate(-349.442 -290.19)" fill="#594d35"/>
    </g>
    <g id="Grupo_176413" data-name="Grupo 176413" transform="translate(413.144 314.621)">
      <path id="Trazado_224559" data-name="Trazado 224559" d="M370.894,335.96a140.426,140.426,0,0,0,11.459-14.121,45.593,45.593,0,0,0,4.2-7.411,35.365,35.365,0,0,0,2.493-8.557,92.623,92.623,0,0,0,.907-10.521c.034-.731-1.1-.73-1.138,0-.285,6.015-.633,12.09-2.921,17.735-2.1,5.177-5.462,9.748-8.961,14.057q-3.322,4.09-6.841,8.013c-.488.545.315,1.352.8.805Z" transform="translate(-369.938 -294.802)" fill="#594d35"/>
    </g>
    <g id="Grupo_176414" data-name="Grupo 176414" transform="translate(431.886 317.523)">
      <path id="Trazado_224560" data-name="Trazado 224560" d="M385.92,297.426a9.579,9.579,0,0,1-2.424,5.89c-.488.544.315,1.352.805.805a10.832,10.832,0,0,0,2.757-6.7c.036-.733-1.1-.73-1.138,0Z" transform="translate(-383.343 -296.878)" fill="#594d35"/>
    </g>
    <g id="Grupo_176415" data-name="Grupo 176415" transform="translate(453.462 328.088)">
      <path id="Trazado_224561" data-name="Trazado 224561" d="M402.235,304.722q-1.7,3.33-3.392,6.661c-.333.652.649,1.228.983.575q1.694-3.33,3.392-6.662c.331-.65-.65-1.228-.983-.573Z" transform="translate(-398.775 -304.434)" fill="#594d35"/>
    </g>
    <g id="Grupo_176416" data-name="Grupo 176416" transform="translate(456.198 331.034)">
      <path id="Trazado_224562" data-name="Trazado 224562" d="M402.805,306.818q-1.149,2.573-2.048,5.244a.569.569,0,0,0,1.1.3q.847-2.531,1.934-4.973a.587.587,0,0,0-.2-.779.575.575,0,0,0-.779.2Z" transform="translate(-400.733 -306.541)" fill="#594d35"/>
    </g>
    <g id="Grupo_176417" data-name="Grupo 176417" transform="translate(385.657 296.197)">
      <path id="Trazado_224563" data-name="Trazado 224563" d="M350.432,305.732a16.485,16.485,0,0,1,2.886,4.5.575.575,0,0,0,.983,0,67.4,67.4,0,0,0,6.092-12.867,24.624,24.624,0,0,0,1.66-7.02,11.226,11.226,0,0,0-1.444-5.862c-.906-1.622-2.429-3.073-4.421-2.838-.719.084-.727,1.223,0,1.138,1.607-.189,2.711.973,3.437,2.275a10.087,10.087,0,0,1,1.282,5.464,24.109,24.109,0,0,1-1.583,6.459,64.779,64.779,0,0,1-2.464,6.078,66.892,66.892,0,0,1-3.541,6.6h.983a17.39,17.39,0,0,0-3.065-4.735c-.491-.545-1.295.261-.8.805Z" transform="translate(-350.279 -281.624)" fill="#594d35"/>
    </g>
    <g id="Grupo_176418" data-name="Grupo 176418" transform="translate(381.51 315.805)">
      <path id="Trazado_224564" data-name="Trazado 224564" d="M350.291,300.663a9.589,9.589,0,0,0-2.375,1.9l.952.252a35.374,35.374,0,0,1-.4-6.615c.024-.733-1.114-.731-1.138,0a36.946,36.946,0,0,0,.44,6.917.572.572,0,0,0,.951.252,8.526,8.526,0,0,1,2.145-1.72.57.57,0,0,0-.575-.983Z" transform="translate(-347.312 -295.648)" fill="#594d35"/>
    </g>
    <g id="Grupo_176419" data-name="Grupo 176419" transform="translate(384.906 322.081)">
      <path id="Trazado_224565" data-name="Trazado 224565" d="M349.767,300.84q1.722,5.815,3.441,11.631a.57.57,0,0,0,1.1-.3q-1.72-5.816-3.441-11.631a.57.57,0,0,0-1.1.3Z" transform="translate(-349.741 -300.137)" fill="#594d35"/>
    </g>
    <g id="Grupo_176420" data-name="Grupo 176420" transform="translate(376.702 375.058)">
      <path id="Trazado_224566" data-name="Trazado 224566" d="M344.282,339.141a34.333,34.333,0,0,1,20.02,12.52c.45.577,1.251-.233.805-.805a35.58,35.58,0,0,0-15.326-11.284,34.477,34.477,0,0,0-5.2-1.528c-.714-.151-1.021.947-.3,1.1Z" transform="translate(-343.874 -338.029)" fill="#594d35"/>
    </g>
    <g id="Grupo_176421" data-name="Grupo 176421" transform="translate(390.798 388.669)">
      <path id="Trazado_224567" data-name="Trazado 224567" d="M354.149,349.531a1.628,1.628,0,0,0,.008,1.553,2.009,2.009,0,0,0,1.242.966,3.565,3.565,0,0,0,2.8-.368,1.986,1.986,0,0,0,.842-2.428,2.339,2.339,0,0,0-2.21-1.488,3.014,3.014,0,0,0-2.55,1.834.588.588,0,0,0,.2.779.573.573,0,0,0,.779-.2,2.7,2.7,0,0,1,.246-.456c.021-.032.043-.063.066-.1-.046.063.013-.013.02-.021.063-.073.127-.144.2-.211a1.321,1.321,0,0,1,.34-.259c.066-.039.133-.074.2-.108.159-.08-.05.015.046-.02.053-.018.106-.036.161-.052.036-.01.073-.02.109-.027s.144-.028.042-.013a1.515,1.515,0,0,1,.225-.014c.039,0,.077,0,.115,0,.175,0-.062-.015.032,0a1.684,1.684,0,0,1,.246.068c.09.031-.11-.064.029.013.031.017.061.031.091.048a1.743,1.743,0,0,1,.173.112c-.08-.057-.008-.006.006.007.031.029.063.057.094.088s.059.063.088.094c.073.073-.011-.025.024.025a1.947,1.947,0,0,1,.123.193c.015.029.031.06.045.091-.045-.092-.007-.021,0,0,.022.071.043.141.061.214.008.035.01.138,0,.02,0,.05.006.1,0,.148,0,.032,0,.066-.006.1,0-.029.027-.1,0,0-.008.029-.018.066-.025.1-.032.148.029-.049-.01.034a1.483,1.483,0,0,1-.116.2c.013-.02.067-.074-.007.007-.034.039-.069.077-.106.113s-.052.046-.077.069c.069-.062.007,0-.01.007a2.321,2.321,0,0,1-.2.126l-.119.062-.014.006q-.128.05-.26.088c-.07.02-.141.036-.214.052-.045.01-.089.017-.136.025-.092.017.082-.008-.011,0a3.6,3.6,0,0,1-.562.02,1.986,1.986,0,0,1-.536-.1c-.1-.029-.067-.024-.039-.011a1.248,1.248,0,0,1-.165-.087,1.042,1.042,0,0,1-.1-.069c.066.05-.046-.047-.057-.06.006.007-.1-.127-.063-.069s-.041-.07-.046-.081c0,.007-.069-.151-.042-.082.018.045-.024-.094-.029-.113-.024-.088,0,.083,0-.008,0-.018,0-.173-.006-.111s.008-.038.013-.053a.7.7,0,0,1,.022-.077q-.034.082.013-.008a.569.569,0,0,0-.983-.575Z" transform="translate(-353.956 -347.765)" fill="#594d35"/>
    </g>
    <g id="Grupo_176422" data-name="Grupo 176422" transform="translate(401.014 359.435)">
      <path id="Trazado_224568" data-name="Trazado 224568" d="M361.34,327.708a29.9,29.9,0,0,0,4.442,6c.508.53,1.311-.275.805-.805a28.672,28.672,0,0,1-4.264-5.769.57.57,0,0,0-.983.575Z" transform="translate(-361.263 -326.854)" fill="#594d35"/>
    </g>
    <g id="Grupo_176423" data-name="Grupo 176423" transform="translate(403.217 358.625)">
      <path id="Trazado_224569" data-name="Trazado 224569" d="M362.86,327a6.743,6.743,0,0,0,4.117,4.33.574.574,0,0,0,.7-.4.582.582,0,0,0-.4-.7c-.055-.021-.109-.041-.164-.063-.175-.066.091.045-.08-.032-.1-.045-.194-.09-.289-.138a5.843,5.843,0,0,1-.579-.34,4.112,4.112,0,0,1-.468-.351,6.073,6.073,0,0,1-.487-.461c-.074-.078-.145-.158-.215-.239-.038-.045-.075-.089-.112-.136-.015-.02-.081-.1-.036-.046a5.967,5.967,0,0,1-.389-.583,4.705,4.705,0,0,1-.5-1.146.57.57,0,0,0-1.1.3Z" transform="translate(-362.838 -326.276)" fill="#594d35"/>
    </g>
    <g id="Grupo_176424" data-name="Grupo 176424" transform="translate(465.087 359.073)">
      <path id="Trazado_224570" data-name="Trazado 224570" d="M407.381,327.642c3.972,1.929,6.771,5.432,9.541,8.751a51.7,51.7,0,0,0,4.407,4.831,22.279,22.279,0,0,0,5.936,3.961,39.565,39.565,0,0,0,4.136,1.689,3.742,3.742,0,0,0,3.711-.351c.562-.471-.246-1.272-.8-.805-.865.726-2.233.214-3.146-.136-1.225-.468-2.447-.963-3.632-1.524a21.188,21.188,0,0,1-5.592-3.824c-3.07-2.912-5.451-6.452-8.432-9.449a20.68,20.68,0,0,0-5.549-4.126c-.656-.319-1.233.663-.575.983Z" transform="translate(-407.09 -326.596)" fill="#594d35"/>
    </g>
    <g id="Grupo_176425" data-name="Grupo 176425" transform="translate(476.577 366.198)">
      <path id="Trazado_224571" data-name="Trazado 224571" d="M415.49,332.65a31.48,31.48,0,0,0,7.711,5.127c.66.308,1.239-.672.575-.983a30.47,30.47,0,0,1-7.48-4.949c-.542-.489-1.351.313-.805.805Z" transform="translate(-415.308 -331.692)" fill="#594d35"/>
    </g>
    <g id="Grupo_176426" data-name="Grupo 176426" transform="translate(441.758 349.64)">
      <path id="Trazado_224572" data-name="Trazado 224572" d="M390.952,320.988l5.839.37a54.258,54.258,0,0,1,5.658.449,14.935,14.935,0,0,1,4.924,2.055l5.068,2.914a.57.57,0,0,0,.575-.983q-2.615-1.5-5.232-3.007a15.339,15.339,0,0,0-5.032-2.076,54.948,54.948,0,0,0-5.773-.477l-6.027-.383c-.731-.048-.728,1.091,0,1.138Z" transform="translate(-390.404 -319.849)" fill="#594d35"/>
    </g>
    <g id="Grupo_176427" data-name="Grupo 176427" transform="translate(451.358 348.035)">
      <path id="Trazado_224573" data-name="Trazado 224573" d="M397.682,319.811l3.365.675a.569.569,0,1,0,.3-1.1l-3.365-.675a.569.569,0,0,0-.3,1.1Z" transform="translate(-397.27 -318.701)" fill="#594d35"/>
    </g>
    <g id="Grupo_176428" data-name="Grupo 176428" transform="translate(394.768 324.176)">
      <path id="Trazado_224574" data-name="Trazado 224574" d="M356.957,302.6l3.878,3.986a.569.569,0,1,0,.805-.8l-3.878-3.987a.569.569,0,0,0-.805.805Z" transform="translate(-356.795 -301.636)" fill="#594d35"/>
    </g>
    <g id="Grupo_176429" data-name="Grupo 176429" transform="translate(396.706 323.144)">
      <path id="Trazado_224575" data-name="Trazado 224575" d="M358.6,302.022a24.336,24.336,0,0,1,4.133,2.036c.626.385,1.2-.6.575-.983a25.945,25.945,0,0,0-4.405-2.15.577.577,0,0,0-.7.4.583.583,0,0,0,.4.7Z" transform="translate(-358.181 -300.898)" fill="#594d35"/>
    </g>
    <g id="Grupo_176430" data-name="Grupo 176430" transform="translate(413.932 296.689)">
      <path id="Trazado_224576" data-name="Trazado 224576" d="M370.766,282.388a10.615,10.615,0,0,0-.238,3.1.569.569,0,1,0,1.138,0,10.068,10.068,0,0,1,0-1.451c.008-.123.02-.246.032-.369.006-.057.013-.113.02-.171-.011.1.008-.054.011-.074.036-.243.082-.487.137-.727a.569.569,0,0,0-1.1-.3Z" transform="translate(-370.502 -281.976)" fill="#594d35"/>
    </g>
    <g id="Grupo_176431" data-name="Grupo 176431" transform="translate(416.335 297.255)">
      <path id="Trazado_224577" data-name="Trazado 224577" d="M372.3,283.237q.38.891.758,1.783a.57.57,0,0,0,.34.261.593.593,0,0,0,.439-.057.577.577,0,0,0,.261-.341l.021-.151a.574.574,0,0,0-.078-.287q-.38-.891-.758-1.783a.57.57,0,0,0-.34-.261.569.569,0,0,0-.7.4l-.021.151a.559.559,0,0,0,.078.287Z" transform="translate(-372.221 -282.381)" fill="#594d35"/>
    </g>
    <g id="Grupo_176432" data-name="Grupo 176432" transform="translate(363.28 372.603)">
      <path id="Trazado_224578" data-name="Trazado 224578" d="M334.824,337.411c3.711,0,7.653.02,10.954,1.948a.57.57,0,0,0,.575-.983c-3.48-2.034-7.613-2.1-11.529-2.1a.569.569,0,0,0,0,1.138Z" transform="translate(-334.274 -336.273)" fill="#8c7c58"/>
    </g>
    <g id="Grupo_176433" data-name="Grupo 176433" transform="translate(370.951 357.446)">
      <path id="Trazado_224579" data-name="Trazado 224579" d="M340.329,326.573l5.311.568a.573.573,0,0,0,.569-.569.581.581,0,0,0-.569-.569l-5.311-.568a.572.572,0,0,0-.569.569.583.583,0,0,0,.569.569Z" transform="translate(-339.76 -325.432)" fill="#8c7c58"/>
    </g>
    <g id="Grupo_176434" data-name="Grupo 176434" transform="translate(371.91 359.711)">
      <path id="Trazado_224580" data-name="Trazado 224580" d="M340.861,328.175a6.579,6.579,0,0,0,4.062.113.569.569,0,0,0-.3-1.1,5.46,5.46,0,0,1-3.456-.113.574.574,0,0,0-.7.4.584.584,0,0,0,.4.7Z" transform="translate(-340.446 -327.052)" fill="#8c7c58"/>
    </g>
    <g id="Grupo_176435" data-name="Grupo 176435" transform="translate(431.896 374.352)">
      <path id="Trazado_224581" data-name="Trazado 224581" d="M398.038,339.22c-2.961-.5-5.92-1.008-8.884-1.5a6.72,6.72,0,0,0-3.484.066,3.422,3.422,0,0,0-2.057,2.433,14.261,14.261,0,0,0-.249,3.786,22.815,22.815,0,0,0,.277,4.074,3.784,3.784,0,0,0,1.848,2.7,7.032,7.032,0,0,0,3.269.64,90.624,90.624,0,0,0,9.969-.5c.721-.073.728-1.212,0-1.139q-4,.4-8.01.487c-1.823.035-4.847.442-5.739-1.653a9.987,9.987,0,0,1-.447-3.491,30.08,30.08,0,0,1,.02-3.638,2.933,2.933,0,0,1,1.309-2.545,4.886,4.886,0,0,1,2.922-.133c2.988.484,5.97,1.005,8.955,1.509.716.122,1.023-.976.3-1.1Z" transform="translate(-383.351 -337.524)" fill="#a06117"/>
    </g>
    <g id="Grupo_176436" data-name="Grupo 176436" transform="translate(412.124 368.38)">
      <path id="Trazado_224582" data-name="Trazado 224582" d="M369.587,334.394c3.553,1.447,7.391,2.89,11.26,1.874,1.776-.467,3.5-1.383,5.373-1.377a9.767,9.767,0,0,1,2.834.584l2.964.919,6.733,2.089c.7.218,1-.881.3-1.1l-5.925-1.837-3.053-.948a20.045,20.045,0,0,0-2.758-.749,11.235,11.235,0,0,0-5.414.9,11.489,11.489,0,0,1-5.63.584,29.6,29.6,0,0,1-6.382-2.04c-.678-.275-.973.825-.3,1.1Z" transform="translate(-369.209 -333.253)" fill="#a06117"/>
    </g>
    <g id="Grupo_176437" data-name="Grupo 176437" transform="translate(422.311 403.52)">
      <path id="Trazado_224583" data-name="Trazado 224583" d="M376.9,359.5a58.159,58.159,0,0,0,20.854,1.109q2.93-.38,5.808-1.044c.713-.165.411-1.264-.3-1.1a57.224,57.224,0,0,1-20.29,1,56.418,56.418,0,0,1-5.767-1.067c-.713-.168-1.016.928-.3,1.1Z" transform="translate(-376.495 -358.387)" fill="#a06117"/>
    </g>
    <g id="Grupo_176438" data-name="Grupo 176438" transform="translate(423.083 407.815)">
      <path id="Trazado_224584" data-name="Trazado 224584" d="M377.459,362.938a76.551,76.551,0,0,0,19.448.411q2.735-.3,5.442-.783c.72-.129.415-1.226-.3-1.1a75.415,75.415,0,0,1-18.848.974q-2.729-.2-5.435-.6c-.717-.106-1.026.99-.3,1.1Z" transform="translate(-377.047 -361.459)" fill="#a06117"/>
    </g>
    <g id="Grupo_176439" data-name="Grupo 176439" transform="translate(401.549 449.93)">
      <path id="Trazado_224585" data-name="Trazado 224585" d="M408.858,391.69c-2.564,1.89-5.86,2.048-8.92,1.739-3.61-.364-7.195-1.372-10.847-.906-6.424.819-11.223,5.727-17.348,7.395-3.122.852-6.6.895-9.284-1.142-.583-.442-1.151.545-.575.983a10.778,10.778,0,0,0,8.361,1.651,26.985,26.985,0,0,0,8.748-3.492c2.868-1.608,5.752-3.343,9-4.057,3.715-.815,7.463.15,11.156.618,3.476.44,7.35.358,10.285-1.8.583-.431.015-1.419-.575-.983Z" transform="translate(-361.645 -391.581)" fill="#a06117"/>
    </g>
    <g id="Grupo_176440" data-name="Grupo 176440" transform="translate(450.551 413.696)">
      <path id="Trazado_224586" data-name="Trazado 224586" d="M400.87,366.526a9.172,9.172,0,0,1,.825,4.059c.028,1.482-.015,2.974-.084,4.454a18.579,18.579,0,0,1-1.908,8.186,9.574,9.574,0,0,1-2.76,3.2c-.591.424-.022,1.411.575.983,5.163-3.7,5.358-10.738,5.32-16.491a10.87,10.87,0,0,0-.984-4.965c-.334-.651-1.316-.077-.983.575Z" transform="translate(-396.694 -365.665)" fill="#a06117"/>
    </g>
    <g id="Grupo_176441" data-name="Grupo 176441" transform="translate(455.341 406.712)">
      <path id="Trazado_224587" data-name="Trazado 224587" d="M401.092,362.853l.944-1.211a.448.448,0,0,0,.117-.183.441.441,0,0,0,.049-.219.568.568,0,0,0-.569-.569.546.546,0,0,0-.4.166l-.944,1.211a.421.421,0,0,0-.117.183.426.426,0,0,0-.049.22.579.579,0,0,0,.166.4.572.572,0,0,0,.4.166.552.552,0,0,0,.4-.166Z" transform="translate(-400.12 -360.67)" fill="#a06117"/>
    </g>
    <g id="Grupo_176442" data-name="Grupo 176442" transform="translate(408.502 386.5)">
      <path id="Trazado_224588" data-name="Trazado 224588" d="M366.784,347.077c1.379,2.756,1.52,5.9,1.446,8.928-.084,3.381-.348,6.761-.752,10.118q-.346,2.886-.85,5.749c-.124.716.973,1.023,1.1.3q.908-5.216,1.337-10.5a51.488,51.488,0,0,0,.151-10.082,15.3,15.3,0,0,0-1.446-5.089c-.327-.656-1.31-.08-.983.575Z" transform="translate(-366.618 -346.213)" fill="#a06117"/>
    </g>
    <g id="Grupo_176443" data-name="Grupo 176443" transform="translate(412.728 386.921)">
      <path id="Trazado_224589" data-name="Trazado 224589" d="M369.675,347.209c2.075,6.032,1.187,12.534.559,18.735l-.579,5.713c-.074.727,1.065.723,1.138,0,.338-3.34.7-6.677,1.005-10.02a47.6,47.6,0,0,0,.111-9.518,24.265,24.265,0,0,0-1.137-5.212c-.238-.689-1.337-.393-1.1.3Z" transform="translate(-369.641 -346.514)" fill="#a06117"/>
    </g>
    <g id="Grupo_176444" data-name="Grupo 176444" transform="translate(421.365 439.073)">
      <path id="Trazado_224590" data-name="Trazado 224590" d="M376.1,384.865a22,22,0,0,1,6.02,3.985c.535.5,1.342-.3.805-.8a22.919,22.919,0,0,0-6.251-4.164.587.587,0,0,0-.779.2.573.573,0,0,0,.2.779Z" transform="translate(-375.819 -383.815)" fill="#a06117"/>
    </g>
    <g id="Grupo_176445" data-name="Grupo 176445" transform="translate(423.763 437.609)">
      <path id="Trazado_224591" data-name="Trazado 224591" d="M377.811,383.819l4.693,2.216a.585.585,0,0,0,.779-.2.573.573,0,0,0-.2-.779l-4.693-2.216a.585.585,0,0,0-.779.2.573.573,0,0,0,.2.779Z" transform="translate(-377.533 -382.768)" fill="#a06117"/>
    </g>
    <g id="Grupo_176446" data-name="Grupo 176446" transform="translate(444.716 364.48)">
      <path id="Trazado_224592" data-name="Trazado 224592" d="M393.23,334.378A50.075,50.075,0,0,0,402,331.5c.67-.291.091-1.271-.575-.983a48.47,48.47,0,0,1-8.495,2.764c-.714.162-.412,1.26.3,1.1Z" transform="translate(-392.52 -330.464)" fill="#1b4b5e"/>
    </g>
    <g id="Grupo_176447" data-name="Grupo 176447" transform="translate(447.05 368.899)">
      <path id="Trazado_224593" data-name="Trazado 224593" d="M394.59,334.747a22.153,22.153,0,0,0,5.882.871.569.569,0,0,0,0-1.138,21.06,21.06,0,0,1-5.58-.83.569.569,0,0,0-.3,1.1Z" transform="translate(-394.19 -333.624)" fill="#1b4b5e"/>
    </g>
    <g id="Grupo_176448" data-name="Grupo 176448" transform="translate(350.16 438.921)">
      <path id="Trazado_224594" data-name="Trazado 224594" d="M325.782,383.985a8.765,8.765,0,0,0-.857,4.611.586.586,0,0,0,.57.569.572.572,0,0,0,.568-.569,7.654,7.654,0,0,1,.7-4.038.581.581,0,0,0-.2-.777.573.573,0,0,0-.779.2Z" transform="translate(-324.89 -383.707)" fill="#1b4b5e"/>
    </g>
    <g id="Grupo_176449" data-name="Grupo 176449" transform="translate(345.467 438.32)">
      <path id="Trazado_224595" data-name="Trazado 224595" d="M322.667,383.442a5.122,5.122,0,0,0-.963,4.512.57.57,0,0,0,1.1-.3,4.563,4.563,0,0,1-.1-.489c.011.07-.014-.136-.015-.159-.007-.084-.011-.166-.013-.25a3.541,3.541,0,0,1,.073-.875,4.241,4.241,0,0,1,.117-.453c.025-.08.053-.159.083-.238.014-.039.029-.077.046-.116-.017.041-.011.028.017-.036.073-.151.148-.3.235-.442.042-.071.088-.141.136-.21.024-.035.048-.068.073-.1q.061-.084.025-.034a.588.588,0,0,0,0-.805.575.575,0,0,0-.805,0Z" transform="translate(-321.532 -383.277)" fill="#1b4b5e"/>
    </g>
    <g id="Grupo_176450" data-name="Grupo 176450" transform="translate(341.925 437.105)">
      <path id="Trazado_224596" data-name="Trazado 224596" d="M320.5,382.57a4.593,4.593,0,0,0-1.29,4.741.581.581,0,0,0,.7.4.574.574,0,0,0,.4-.7,2.921,2.921,0,0,1-.166-.961,3.622,3.622,0,0,1,.028-.549c.013-.1-.013.07,0-.031.01-.05.018-.1.028-.151.018-.09.039-.179.064-.267a3.371,3.371,0,0,1,1.04-1.675.575.575,0,0,0,0-.805.581.581,0,0,0-.805,0Z" transform="translate(-318.999 -382.408)" fill="#1b4b5e"/>
    </g>
    <g id="Grupo_176451" data-name="Grupo 176451" transform="translate(341.891 435.542)">
      <path id="Trazado_224597" data-name="Trazado 224597" d="M319.369,382.418q6,1.948,12.091,3.62a.569.569,0,0,0,.3-1.1q-6.086-1.672-12.09-3.62c-.7-.228-1,.871-.3,1.1Z" transform="translate(-318.975 -381.29)" fill="#1b4b5e"/>
    </g>
    <g id="Grupo_176452" data-name="Grupo 176452" transform="translate(352.306 420.248)">
      <path id="Trazado_224598" data-name="Trazado 224598" d="M326.5,371.205a27.3,27.3,0,0,0,4.017,4.653c.537.5,1.345-.306.8-.8a26.061,26.061,0,0,1-3.838-4.424.584.584,0,0,0-.779-.2.575.575,0,0,0-.2.779Z" transform="translate(-326.424 -370.351)" fill="#1b4b5e"/>
    </g>
    <g id="Grupo_176453" data-name="Grupo 176453" transform="translate(354.56 420.177)">
      <path id="Trazado_224599" data-name="Trazado 224599" d="M328.12,371.156a7.3,7.3,0,0,0,4,2.71.569.569,0,0,0,.3-1.1c-.178-.046-.351-.1-.524-.158s-.309-.115-.4-.154a6.7,6.7,0,0,1-.956-.527c-.071-.048-.143-.1-.213-.147l-.092-.068c-.148-.109.038.032-.045-.034-.143-.113-.281-.234-.412-.358s-.247-.24-.363-.369c-.064-.07-.127-.143-.189-.217-.024-.029-.047-.059-.073-.088-.117-.145.062.082-.052-.067a.586.586,0,0,0-.779-.2.574.574,0,0,0-.2.779Z" transform="translate(-328.037 -370.3)" fill="#1b4b5e"/>
    </g>
    <g id="Grupo_176454" data-name="Grupo 176454" transform="translate(357.348 413.543)">
      <path id="Trazado_224600" data-name="Trazado 224600" d="M330.227,366.493a76.336,76.336,0,0,0,7.876,5.716c.689.415,1.393.808,2.11,1.173a11.089,11.089,0,0,1,1.876,1.026,2.38,2.38,0,0,1,.13,3.452c-.47.556.331,1.366.805.8a3.787,3.787,0,0,0,.713-4.011c-.7-1.475-2.535-2.006-3.866-2.738a64.722,64.722,0,0,1-8.839-6.227c-.568-.45-1.379.351-.805.805Z" transform="translate(-330.031 -365.555)" fill="#1b4b5e"/>
    </g>
    <g id="Grupo_176455" data-name="Grupo 176455" transform="translate(469.477 387.101)">
      <path id="Trazado_224601" data-name="Trazado 224601" d="M429.916,346.8a18.869,18.869,0,0,1-8.982,4.647,3.31,3.31,0,0,0-2.233,1.092,17.9,17.9,0,0,0-1.215,2.163,32.242,32.242,0,0,1-2.942,4.365,33.563,33.563,0,0,1-4.141,4.3.576.576,0,0,0,.25.952l1.811.693c.684.262.98-.839.3-1.1l-1.809-.693.252.951a34.035,34.035,0,0,0,6.731-7.992c.457-.756.872-1.532,1.281-2.315a2.669,2.669,0,0,1,.624-.9,3.038,3.038,0,0,1,1.316-.405,19.95,19.95,0,0,0,9.562-4.956c.538-.5-.268-1.3-.805-.805Z" transform="translate(-410.23 -346.643)" fill="#1b4b5e"/>
    </g>
    <g id="Grupo_176456" data-name="Grupo 176456" transform="translate(413.64 359.814)">
      <path id="Trazado_224602" data-name="Trazado 224602" d="M370.561,327.4a2.085,2.085,0,0,0-.151,1.714,2.358,2.358,0,0,0,.47.8,2.033,2.033,0,0,0,.78.516.569.569,0,0,0,.439-.057.569.569,0,0,0,.2-.779.667.667,0,0,0-.34-.261c.189.075.007,0-.038-.024s-.076-.049-.115-.073c-.087-.056.108.092.029.022l-.06-.053a1.225,1.225,0,0,1-.1-.1c-.018-.02-.035-.043-.053-.063.11.113.053.071.024.028s-.05-.076-.074-.115-.05-.1-.075-.145c-.041-.084.041.112.021.048-.008-.027-.02-.052-.029-.077-.015-.049-.029-.1-.041-.145-.02-.091-.035-.2-.021-.087s0,.02,0-.006,0-.055-.006-.081a1.329,1.329,0,0,1,0-.15c.013-.173-.024.08,0-.024.011-.049.02-.1.034-.145s.091-.2,0-.029c.025-.049.046-.1.074-.147a.569.569,0,1,0-.983-.573Z" transform="translate(-370.293 -327.126)" fill="#1b4b5e"/>
    </g>
    <g id="Grupo_176457" data-name="Grupo 176457" transform="translate(416.972 359.014)">
      <path id="Trazado_224603" data-name="Trazado 224603" d="M372.939,326.831a1.871,1.871,0,0,0,.614,2.529.569.569,0,0,0,.575-.983,1.242,1.242,0,0,1-.113-.077l.116.089a1.26,1.26,0,0,1-.207-.207l.089.115a1.389,1.389,0,0,1-.169-.292l.057.136a1.45,1.45,0,0,1-.1-.351l.021.152a1.386,1.386,0,0,1,0-.34l-.021.151a1.291,1.291,0,0,1,.081-.3l-.059.136a1.374,1.374,0,0,1,.1-.179.574.574,0,0,0-.2-.779.581.581,0,0,0-.779.2Z" transform="translate(-372.676 -326.554)" fill="#1b4b5e"/>
    </g>
    <g id="Grupo_176458" data-name="Grupo 176458" transform="translate(421.319 352.11)">
      <path id="Trazado_224604" data-name="Trazado 224604" d="M375.919,322.03a2.632,2.632,0,0,0-.092,1.309,2.584,2.584,0,0,0,.548,1.179.567.567,0,0,0,.4.166.583.583,0,0,0,.4-.166.577.577,0,0,0,.168-.4.67.67,0,0,0-.168-.4c.01.013.078.106.035.043-.059-.087-.082-.126-.1-.165s-.039-.07-.057-.1c-.054-.113.029.087-.008-.015a2.255,2.255,0,0,1-.129-.494l.021.151a2.114,2.114,0,0,1,0-.54l-.021.152a2.112,2.112,0,0,1,.1-.407.571.571,0,0,0-.4-.7.584.584,0,0,0-.7.4Z" transform="translate(-375.785 -321.616)" fill="#1b4b5e"/>
    </g>
  </g>
</svg>
