<svg xmlns="http://www.w3.org/2000/svg" xmlns:xlink="http://www.w3.org/1999/xlink" width="402.116" height="357.631" viewBox="0 0 402.116 357.631">
  <defs>
    <clipPath id="clip-path">
      <path id="Trazado_210244" data-name="Trazado 210244" d="M954,509.821s10.542-19.978,16.09-51.6,51.046-154.246,134.828-133.162c0,0,23.859,6.1,30.517,5.548,0,0-67.691,33.291-109.86,90.44S956.219,505.383,954,509.821Z" transform="translate(-954 -322.634)" fill="#89c026" stroke="#00923f" stroke-miterlimit="10" stroke-width="4"/>
    </clipPath>
  </defs>
  <g id="Grupo_170071" data-name="Grupo 170071" transform="translate(-600 -5518.45)">
    <path id="Trazado_693182" data-name="Trazado 693182" d="M10.816,0h-2.1L3.329-8.575V0h-2.1V-12.086h2.1l5.4,8.608v-8.608h2.083Zm6.242.166a4.173,4.173,0,0,1-3.109-1.208,4.381,4.381,0,0,1-1.191-3.217v-.249a5.389,5.389,0,0,1,.519-2.4,3.949,3.949,0,0,1,1.457-1.648,3.851,3.851,0,0,1,2.092-.589,3.525,3.525,0,0,1,2.835,1.17,4.949,4.949,0,0,1,1,3.312v.813H14.792a2.7,2.7,0,0,0,.743,1.76,2.23,2.23,0,0,0,1.639.647,2.731,2.731,0,0,0,2.258-1.121L20.52-1.527a3.631,3.631,0,0,1-1.44,1.249A4.509,4.509,0,0,1,17.058.166Zm-.241-7.695a1.7,1.7,0,0,0-1.341.581,3.012,3.012,0,0,0-.652,1.619h3.843v-.149a2.452,2.452,0,0,0-.54-1.531A1.686,1.686,0,0,0,16.817-7.529Zm10.11.39a4.991,4.991,0,0,0-.822-.066,1.85,1.85,0,0,0-1.868,1.063V0H22.221V-8.981h1.926l.05,1a2.273,2.273,0,0,1,2.025-1.17,1.888,1.888,0,0,1,.714.116Zm4.59,4.582,1.9-6.425H35.5L32.39,0H30.638L27.5-8.981h2.092ZM38.906,0H36.889V-8.981h2.017ZM36.764-11.314a1.071,1.071,0,0,1,.295-.772,1.113,1.113,0,0,1,.843-.307,1.127,1.127,0,0,1,.847.307,1.062,1.062,0,0,1,.3.772,1.038,1.038,0,0,1-.3.76,1.136,1.136,0,0,1-.847.3,1.122,1.122,0,0,1-.843-.3A1.046,1.046,0,0,1,36.764-11.314Zm3.959,6.74a5.3,5.3,0,0,1,.523-2.378,3.819,3.819,0,0,1,1.469-1.627,4.14,4.14,0,0,1,2.175-.569,3.923,3.923,0,0,1,2.951,1.17,4.6,4.6,0,0,1,1.224,3.1l.008.473a5.343,5.343,0,0,1-.51,2.374A3.773,3.773,0,0,1,47.1-.407a4.17,4.17,0,0,1-2.2.573A3.9,3.9,0,0,1,41.865-1.1a4.848,4.848,0,0,1-1.141-3.374Zm2.017.174a3.619,3.619,0,0,0,.573,2.171,1.862,1.862,0,0,0,1.594.784,1.842,1.842,0,0,0,1.59-.8,4,4,0,0,0,.569-2.333,3.572,3.572,0,0,0-.585-2.158,1.869,1.869,0,0,0-1.59-.8,1.852,1.852,0,0,0-1.569.784A3.922,3.922,0,0,0,42.741-4.4ZM55.814-2.44a.914.914,0,0,0-.444-.822,4.723,4.723,0,0,0-1.473-.5,7.574,7.574,0,0,1-1.718-.548,2.293,2.293,0,0,1-1.511-2.117,2.391,2.391,0,0,1,.979-1.942,3.872,3.872,0,0,1,2.49-.78,4.029,4.029,0,0,1,2.6.8,2.529,2.529,0,0,1,.992,2.067H55.715a1.243,1.243,0,0,0-.432-.967,1.654,1.654,0,0,0-1.146-.386,1.787,1.787,0,0,0-1.083.307.968.968,0,0,0-.419.822.818.818,0,0,0,.39.722,5.365,5.365,0,0,0,1.577.519,7.466,7.466,0,0,1,1.864.623,2.639,2.639,0,0,1,1,.867A2.212,2.212,0,0,1,57.8-2.548a2.34,2.34,0,0,1-1,1.963,4.283,4.283,0,0,1-2.631.751,4.644,4.644,0,0,1-1.967-.4,3.238,3.238,0,0,1-1.345-1.1,2.594,2.594,0,0,1-.481-1.5h1.959a1.421,1.421,0,0,0,.54,1.1,2.1,2.1,0,0,0,1.32.386,2.04,2.04,0,0,0,1.212-.3A.938.938,0,0,0,55.814-2.44Z" transform="translate(803.908 5530.843)" fill="#12263f"/>
    <path id="Trazado_693188" data-name="Trazado 693188" d="M8.292-5.4H3.329v3.719h5.8V0h-7.9V-12.086H9.073v1.693H3.329v3.337H8.292Zm4.225-3.586.058,1.038a3.229,3.229,0,0,1,2.615-1.2q2.806,0,2.855,3.212V0H16.029V-5.819a1.85,1.85,0,0,0-.369-1.266A1.554,1.554,0,0,0,14.452-7.5a1.944,1.944,0,0,0-1.818,1.1V0H10.617V-8.981Zm10.75,6.425,1.9-6.425h2.083L24.139,0H22.387L19.25-8.981h2.092Zm9.2,2.723a4.173,4.173,0,0,1-3.109-1.208,4.381,4.381,0,0,1-1.191-3.217v-.249a5.389,5.389,0,0,1,.519-2.4A3.949,3.949,0,0,1,30.14-8.558a3.851,3.851,0,0,1,2.092-.589,3.525,3.525,0,0,1,2.835,1.17,4.949,4.949,0,0,1,1,3.312v.813H30.2a2.7,2.7,0,0,0,.743,1.76,2.23,2.23,0,0,0,1.639.647,2.731,2.731,0,0,0,2.258-1.121l1.087,1.038a3.631,3.631,0,0,1-1.44,1.249A4.509,4.509,0,0,1,32.464.166Zm-.241-7.695a1.7,1.7,0,0,0-1.341.581,3.012,3.012,0,0,0-.652,1.619h3.843v-.149a2.452,2.452,0,0,0-.54-1.531A1.686,1.686,0,0,0,32.224-7.529Zm.457-5.221h2.3l-2.3,2.515-1.619,0ZM42.666-2.44a.914.914,0,0,0-.444-.822,4.723,4.723,0,0,0-1.473-.5,7.574,7.574,0,0,1-1.718-.548A2.293,2.293,0,0,1,37.52-6.425,2.391,2.391,0,0,1,38.5-8.367a3.872,3.872,0,0,1,2.49-.78,4.029,4.029,0,0,1,2.6.8,2.529,2.529,0,0,1,.992,2.067H42.566a1.243,1.243,0,0,0-.432-.967,1.654,1.654,0,0,0-1.146-.386,1.787,1.787,0,0,0-1.083.307.968.968,0,0,0-.419.822.818.818,0,0,0,.39.722,5.365,5.365,0,0,0,1.577.519,7.466,7.466,0,0,1,1.864.623,2.639,2.639,0,0,1,1,.867,2.212,2.212,0,0,1,.328,1.229,2.34,2.34,0,0,1-1,1.963,4.283,4.283,0,0,1-2.631.751,4.644,4.644,0,0,1-1.967-.4,3.238,3.238,0,0,1-1.345-1.1,2.594,2.594,0,0,1-.481-1.5H39.18a1.421,1.421,0,0,0,.54,1.1,2.1,2.1,0,0,0,1.32.386,2.04,2.04,0,0,0,1.212-.3A.938.938,0,0,0,42.666-2.44Z" transform="matrix(0.819, -0.574, 0.574, 0.819, 935.227, 5634.686)" fill="#12263f"/>
    <path id="Trazado_693187" data-name="Trazado 693187" d="M3.329-1.677H8.815V0H1.229V-12.086h2.1ZM15.6,0a3.113,3.113,0,0,1-.232-.838,3.14,3.14,0,0,1-2.357,1A3.169,3.169,0,0,1,10.8-.606a2.47,2.47,0,0,1-.855-1.909,2.55,2.55,0,0,1,1.067-2.2,5.169,5.169,0,0,1,3.051-.768H15.3v-.589a1.573,1.573,0,0,0-.39-1.116,1.547,1.547,0,0,0-1.187-.419,1.777,1.777,0,0,0-1.129.344,1.066,1.066,0,0,0-.44.876H10.135a2.239,2.239,0,0,1,.49-1.382,3.263,3.263,0,0,1,1.332-1.009,4.68,4.68,0,0,1,1.88-.365,3.769,3.769,0,0,1,2.515.793,2.827,2.827,0,0,1,.963,2.229v4.051a4.591,4.591,0,0,0,.34,1.934V0ZM13.381-1.453a2.294,2.294,0,0,0,1.125-.291,1.941,1.941,0,0,0,.793-.78V-4.217H14.211a2.973,2.973,0,0,0-1.685.39,1.264,1.264,0,0,0-.564,1.1,1.179,1.179,0,0,0,.386.926A1.5,1.5,0,0,0,13.381-1.453ZM14.5-12.75h2.3l-2.3,2.515-1.619,0Zm6.823,3.769.058.938a3.232,3.232,0,0,1,2.59-1.1A2.483,2.483,0,0,1,26.438-7.77a3.186,3.186,0,0,1,2.756-1.378,2.8,2.8,0,0,1,2.212.822A3.618,3.618,0,0,1,32.149-5.9V0H30.132V-5.844A1.786,1.786,0,0,0,29.758-7.1a1.635,1.635,0,0,0-1.237-.4,1.679,1.679,0,0,0-1.125.369,1.948,1.948,0,0,0-.61.967L26.795,0H24.778V-5.91A1.439,1.439,0,0,0,23.159-7.5a1.776,1.776,0,0,0-1.718.988V0H19.424V-8.981ZM36.366,0H34.349V-8.981h2.017ZM34.224-11.314a1.071,1.071,0,0,1,.295-.772,1.113,1.113,0,0,1,.843-.307,1.127,1.127,0,0,1,.847.307,1.062,1.062,0,0,1,.3.772,1.038,1.038,0,0,1-.3.76,1.136,1.136,0,0,1-.847.3,1.122,1.122,0,0,1-.843-.3A1.046,1.046,0,0,1,34.224-11.314Zm6.209,2.333.058,1.038a3.229,3.229,0,0,1,2.615-1.2q2.806,0,2.855,3.212V0H43.944V-5.819a1.85,1.85,0,0,0-.369-1.266A1.554,1.554,0,0,0,42.367-7.5a1.944,1.944,0,0,0-1.818,1.1V0H38.532V-8.981ZM53.382,0a3.113,3.113,0,0,1-.232-.838,3.14,3.14,0,0,1-2.357,1,3.169,3.169,0,0,1-2.208-.772,2.47,2.47,0,0,1-.855-1.909,2.55,2.55,0,0,1,1.067-2.2,5.169,5.169,0,0,1,3.051-.768h1.237v-.589a1.573,1.573,0,0,0-.39-1.116,1.547,1.547,0,0,0-1.187-.419,1.777,1.777,0,0,0-1.129.344,1.066,1.066,0,0,0-.44.876H47.92a2.239,2.239,0,0,1,.49-1.382,3.263,3.263,0,0,1,1.332-1.009,4.68,4.68,0,0,1,1.88-.365,3.769,3.769,0,0,1,2.515.793A2.827,2.827,0,0,1,55.1-6.126v4.051a4.591,4.591,0,0,0,.34,1.934V0ZM51.166-1.453a2.294,2.294,0,0,0,1.125-.291,1.941,1.941,0,0,0,.793-.78V-4.217H52a2.973,2.973,0,0,0-1.685.39,1.264,1.264,0,0,0-.564,1.1,1.179,1.179,0,0,0,.386.926A1.5,1.5,0,0,0,51.166-1.453Z" transform="translate(872.308 5740.833) rotate(-43)" fill="#12263f"/>
    <path id="Trazado_693189" data-name="Trazado 693189" d="M7.994-2.814H3.312L2.333,0H.149L4.715-12.086H6.6L11.173,0H8.981ZM3.9-4.507H7.4L5.653-9.521ZM6.284-15.323h2.3l-2.3,2.515-1.619,0ZM20.212-4.4a5.348,5.348,0,0,1-.946,3.324A3.031,3.031,0,0,1,16.726.166,3.051,3.051,0,0,1,14.36-.805V3.453H12.343V-8.981H14.2l.083.913A2.963,2.963,0,0,1,16.7-9.147a3.062,3.062,0,0,1,2.577,1.224,5.49,5.49,0,0,1,.934,3.4ZM18.2-4.574a3.746,3.746,0,0,0-.535-2.133A1.741,1.741,0,0,0,16.137-7.5,1.856,1.856,0,0,0,14.36-6.475V-2.49a1.873,1.873,0,0,0,1.793,1.046A1.739,1.739,0,0,0,17.66-2.22,4.124,4.124,0,0,0,18.2-4.574ZM24.064,0H22.047V-8.981h2.017ZM21.922-11.314a1.071,1.071,0,0,1,.295-.772,1.113,1.113,0,0,1,.843-.307,1.127,1.127,0,0,1,.847.307,1.062,1.062,0,0,1,.3.772,1.038,1.038,0,0,1-.3.76,1.136,1.136,0,0,1-.847.3,1.122,1.122,0,0,1-.843-.3A1.046,1.046,0,0,1,21.922-11.314Zm8.027,9.87a1.824,1.824,0,0,0,1.253-.44,1.5,1.5,0,0,0,.531-1.087h1.9a2.963,2.963,0,0,1-.523,1.565,3.43,3.43,0,0,1-1.328,1.15,3.958,3.958,0,0,1-1.81.423,3.829,3.829,0,0,1-2.988-1.22,4.84,4.84,0,0,1-1.1-3.37v-.208a4.759,4.759,0,0,1,1.1-3.283,3.8,3.8,0,0,1,2.988-1.233,3.69,3.69,0,0,1,2.611.934,3.345,3.345,0,0,1,1.058,2.453h-1.9a1.847,1.847,0,0,0-.527-1.27,1.7,1.7,0,0,0-1.258-.5,1.775,1.775,0,0,0-1.511.71,3.621,3.621,0,0,0-.54,2.154v.324a3.682,3.682,0,0,0,.527,2.179A1.773,1.773,0,0,0,29.949-1.444ZM39.113.166A4.173,4.173,0,0,1,36-1.042a4.381,4.381,0,0,1-1.191-3.217v-.249a5.389,5.389,0,0,1,.519-2.4,3.949,3.949,0,0,1,1.457-1.648,3.851,3.851,0,0,1,2.092-.589,3.525,3.525,0,0,1,2.835,1.17,4.949,4.949,0,0,1,1,3.312v.813H36.847a2.7,2.7,0,0,0,.743,1.76,2.23,2.23,0,0,0,1.639.647,2.731,2.731,0,0,0,2.258-1.121l1.087,1.038a3.631,3.631,0,0,1-1.44,1.249A4.509,4.509,0,0,1,39.113.166Zm-.241-7.695a1.7,1.7,0,0,0-1.341.581,3.012,3.012,0,0,0-.652,1.619h3.843v-.149a2.452,2.452,0,0,0-.54-1.531A1.686,1.686,0,0,0,38.873-7.529Z" transform="translate(941.509 5539.271)" fill="#12263f"/>
    <path id="Trazado_693183" data-name="Trazado 693183" d="M3.951-12.086,7.438-2.822l3.478-9.264H13.63V0H11.538V-3.984l.208-5.329L8.176,0h-1.5L3.113-9.305,3.32-3.984V0H1.229V-12.086ZM21.283,0a3.113,3.113,0,0,1-.232-.838,3.14,3.14,0,0,1-2.357,1,3.169,3.169,0,0,1-2.208-.772,2.47,2.47,0,0,1-.855-1.909,2.55,2.55,0,0,1,1.067-2.2,5.169,5.169,0,0,1,3.051-.768h1.237v-.589a1.573,1.573,0,0,0-.39-1.116,1.547,1.547,0,0,0-1.187-.419,1.777,1.777,0,0,0-1.129.344,1.066,1.066,0,0,0-.44.876H15.821a2.239,2.239,0,0,1,.49-1.382,3.263,3.263,0,0,1,1.332-1.009,4.68,4.68,0,0,1,1.88-.365,3.769,3.769,0,0,1,2.515.793A2.827,2.827,0,0,1,23-6.126v4.051a4.591,4.591,0,0,0,.34,1.934V0ZM19.067-1.453a2.294,2.294,0,0,0,1.125-.291,1.941,1.941,0,0,0,.793-.78V-4.217H19.9a2.973,2.973,0,0,0-1.685.39,1.264,1.264,0,0,0-.564,1.1,1.179,1.179,0,0,0,.386.926A1.5,1.5,0,0,0,19.067-1.453Zm10.75-5.686a4.991,4.991,0,0,0-.822-.066,1.85,1.85,0,0,0-1.868,1.063V0H25.11V-8.981h1.926l.05,1a2.273,2.273,0,0,1,2.025-1.17,1.888,1.888,0,0,1,.714.116Zm.921,2.582A5.253,5.253,0,0,1,31.721-7.9a3.157,3.157,0,0,1,2.611-1.249,2.958,2.958,0,0,1,2.416,1.071l.091-.9h1.818V-.274a3.619,3.619,0,0,1-1.1,2.789,4.189,4.189,0,0,1-2.968,1.021,4.783,4.783,0,0,1-1.93-.411A3.429,3.429,0,0,1,31.228,2.05L32.182.838a2.883,2.883,0,0,0,2.291,1.1A2.228,2.228,0,0,0,36.059,1.4,2.084,2.084,0,0,0,36.64-.2V-.805a2.97,2.97,0,0,1-2.324.971,3.15,3.15,0,0,1-2.577-1.253A5.423,5.423,0,0,1,30.738-4.557Zm2.009.174A3.616,3.616,0,0,0,33.3-2.254a1.775,1.775,0,0,0,1.531.776,1.941,1.941,0,0,0,1.81-1.046V-6.475A1.913,1.913,0,0,0,34.847-7.5a1.782,1.782,0,0,0-1.548.789A4.049,4.049,0,0,0,32.747-4.383ZM44.683.166a4.173,4.173,0,0,1-3.109-1.208,4.381,4.381,0,0,1-1.191-3.217v-.249a5.389,5.389,0,0,1,.519-2.4,3.949,3.949,0,0,1,1.457-1.648,3.851,3.851,0,0,1,2.092-.589,3.525,3.525,0,0,1,2.835,1.17,4.949,4.949,0,0,1,1,3.312v.813H42.417a2.7,2.7,0,0,0,.743,1.76,2.23,2.23,0,0,0,1.639.647,2.731,2.731,0,0,0,2.258-1.121l1.087,1.038A3.631,3.631,0,0,1,46.7-.278,4.509,4.509,0,0,1,44.683.166Zm-.241-7.695a1.7,1.7,0,0,0-1.341.581,3.012,3.012,0,0,0-.652,1.619h3.843v-.149a2.452,2.452,0,0,0-.54-1.531A1.686,1.686,0,0,0,44.442-7.529Zm7.28-1.453.058,1.038a3.229,3.229,0,0,1,2.615-1.2q2.806,0,2.855,3.212V0H55.233V-5.819a1.85,1.85,0,0,0-.369-1.266A1.554,1.554,0,0,0,53.656-7.5a1.944,1.944,0,0,0-1.818,1.1V0H49.821V-8.981Z" transform="translate(684.191 5539.271)" fill="#12263f"/>
    <path id="Trazado_693184" data-name="Trazado 693184" d="M10.824,0H8.732V-5.362h-5.4V0h-2.1V-12.086h2.1v5.03h5.4v-5.03h2.092Zm7.653,0a3.113,3.113,0,0,1-.232-.838,3.14,3.14,0,0,1-2.357,1A3.169,3.169,0,0,1,13.68-.606a2.47,2.47,0,0,1-.855-1.909,2.55,2.55,0,0,1,1.067-2.2,5.169,5.169,0,0,1,3.051-.768h1.237v-.589a1.573,1.573,0,0,0-.39-1.116A1.547,1.547,0,0,0,16.6-7.612a1.777,1.777,0,0,0-1.129.344,1.066,1.066,0,0,0-.44.876H13.016a2.239,2.239,0,0,1,.49-1.382,3.263,3.263,0,0,1,1.332-1.009,4.68,4.68,0,0,1,1.88-.365,3.769,3.769,0,0,1,2.515.793A2.827,2.827,0,0,1,20.2-6.126v4.051a4.591,4.591,0,0,0,.34,1.934V0ZM16.261-1.453a2.294,2.294,0,0,0,1.125-.291,1.941,1.941,0,0,0,.793-.78V-4.217H17.091a2.973,2.973,0,0,0-1.685.39,1.264,1.264,0,0,0-.564,1.1,1.179,1.179,0,0,0,.386.926A1.5,1.5,0,0,0,16.261-1.453Zm8.2-.158h4.781V0H21.956V-1.32l4.557-6.035H22.039V-8.981h7.031V-7.7Z" transform="translate(638.29 5601.836)" fill="#12263f"/>
    <path id="Trazado_693185" data-name="Trazado 693185" d="M1.229,0V-12.086H5.371a5.057,5.057,0,0,1,3.121.822A2.894,2.894,0,0,1,9.563-8.815a2.61,2.61,0,0,1-.448,1.494A2.885,2.885,0,0,1,7.8-6.292a2.668,2.668,0,0,1,1.515,1,2.913,2.913,0,0,1,.535,1.764A3.218,3.218,0,0,1,8.761-.913,4.746,4.746,0,0,1,5.636,0Zm2.1-5.454v3.777H5.661a2.257,2.257,0,0,0,1.544-.49,1.719,1.719,0,0,0,.556-1.361A1.725,1.725,0,0,0,5.835-5.454ZM3.329-7H5.387a2.381,2.381,0,0,0,1.531-.444A1.522,1.522,0,0,0,7.471-8.7a1.542,1.542,0,0,0-.51-1.295,2.578,2.578,0,0,0-1.59-.4H3.329Zm13.8,7a3.113,3.113,0,0,1-.232-.838,3.14,3.14,0,0,1-2.357,1,3.169,3.169,0,0,1-2.208-.772,2.47,2.47,0,0,1-.855-1.909,2.55,2.55,0,0,1,1.067-2.2,5.169,5.169,0,0,1,3.051-.768h1.237v-.589a1.573,1.573,0,0,0-.39-1.116,1.547,1.547,0,0,0-1.187-.419,1.777,1.777,0,0,0-1.129.344,1.066,1.066,0,0,0-.44.876H11.663a2.239,2.239,0,0,1,.49-1.382,3.263,3.263,0,0,1,1.332-1.009,4.68,4.68,0,0,1,1.88-.365,3.769,3.769,0,0,1,2.515.793,2.827,2.827,0,0,1,.963,2.229v4.051a4.591,4.591,0,0,0,.34,1.934V0ZM14.908-1.453a2.294,2.294,0,0,0,1.125-.291,1.941,1.941,0,0,0,.793-.78V-4.217H15.738a2.973,2.973,0,0,0-1.685.39,1.264,1.264,0,0,0-.564,1.1,1.179,1.179,0,0,0,.386.926A1.5,1.5,0,0,0,14.908-1.453ZM25.99-2.44a.914.914,0,0,0-.444-.822,4.723,4.723,0,0,0-1.473-.5,7.574,7.574,0,0,1-1.718-.548,2.293,2.293,0,0,1-1.511-2.117,2.391,2.391,0,0,1,.979-1.942,3.872,3.872,0,0,1,2.49-.78,4.029,4.029,0,0,1,2.6.8,2.529,2.529,0,0,1,.992,2.067H25.89a1.243,1.243,0,0,0-.432-.967,1.654,1.654,0,0,0-1.146-.386,1.787,1.787,0,0,0-1.083.307.968.968,0,0,0-.419.822.818.818,0,0,0,.39.722,5.365,5.365,0,0,0,1.577.519,7.466,7.466,0,0,1,1.864.623,2.639,2.639,0,0,1,1,.867,2.212,2.212,0,0,1,.328,1.229,2.34,2.34,0,0,1-1,1.963,4.283,4.283,0,0,1-2.631.751,4.644,4.644,0,0,1-1.967-.4,3.238,3.238,0,0,1-1.345-1.1,2.594,2.594,0,0,1-.481-1.5H22.5a1.421,1.421,0,0,0,.54,1.1,2.1,2.1,0,0,0,1.32.386,2.04,2.04,0,0,0,1.212-.3A.938.938,0,0,0,25.99-2.44ZM33.685.166a4.173,4.173,0,0,1-3.109-1.208,4.381,4.381,0,0,1-1.191-3.217v-.249a5.389,5.389,0,0,1,.519-2.4A3.949,3.949,0,0,1,31.36-8.558a3.851,3.851,0,0,1,2.092-.589,3.525,3.525,0,0,1,2.835,1.17,4.949,4.949,0,0,1,1,3.312v.813H31.418a2.7,2.7,0,0,0,.743,1.76,2.23,2.23,0,0,0,1.639.647,2.731,2.731,0,0,0,2.258-1.121l1.087,1.038a3.631,3.631,0,0,1-1.44,1.249A4.509,4.509,0,0,1,33.685.166Zm-.241-7.695a1.7,1.7,0,0,0-1.341.581,3.012,3.012,0,0,0-.652,1.619h3.843v-.149a2.452,2.452,0,0,0-.54-1.531A1.686,1.686,0,0,0,33.444-7.529Z" transform="translate(616.145 5745.313)" fill="#12263f"/>
    <path id="Trazado_693186" data-name="Trazado 693186" d="M3.329-4.482V0h-2.1V-12.086H5.852a4.675,4.675,0,0,1,3.217,1.055A3.549,3.549,0,0,1,10.26-8.239,3.431,3.431,0,0,1,9.094-5.471a4.9,4.9,0,0,1-3.266.989Zm0-1.693H5.852A2.485,2.485,0,0,0,7.562-6.7a1.937,1.937,0,0,0,.589-1.523,2.09,2.09,0,0,0-.6-1.565,2.3,2.3,0,0,0-1.644-.6H3.329ZM15.854.166a4.173,4.173,0,0,1-3.109-1.208,4.381,4.381,0,0,1-1.191-3.217v-.249a5.389,5.389,0,0,1,.519-2.4A3.949,3.949,0,0,1,13.53-8.558a3.851,3.851,0,0,1,2.092-.589,3.525,3.525,0,0,1,2.835,1.17,4.949,4.949,0,0,1,1,3.312v.813H13.588a2.7,2.7,0,0,0,.743,1.76,2.23,2.23,0,0,0,1.639.647,2.731,2.731,0,0,0,2.258-1.121l1.087,1.038a3.631,3.631,0,0,1-1.44,1.249A4.509,4.509,0,0,1,15.854.166Zm-.241-7.695a1.7,1.7,0,0,0-1.341.581,3.012,3.012,0,0,0-.652,1.619h3.843v-.149a2.452,2.452,0,0,0-.54-1.531A1.686,1.686,0,0,0,15.614-7.529Zm9.1,6.084a1.824,1.824,0,0,0,1.253-.44A1.5,1.5,0,0,0,26.5-2.972h1.9a2.963,2.963,0,0,1-.523,1.565,3.43,3.43,0,0,1-1.328,1.15,3.958,3.958,0,0,1-1.81.423,3.829,3.829,0,0,1-2.988-1.22,4.84,4.84,0,0,1-1.1-3.37v-.208a4.759,4.759,0,0,1,1.1-3.283,3.8,3.8,0,0,1,2.988-1.233,3.69,3.69,0,0,1,2.611.934A3.345,3.345,0,0,1,28.4-5.761H26.5a1.847,1.847,0,0,0-.527-1.27,1.7,1.7,0,0,0-1.258-.5,1.775,1.775,0,0,0-1.511.71,3.621,3.621,0,0,0-.54,2.154v.324a3.682,3.682,0,0,0,.527,2.179A1.773,1.773,0,0,0,24.711-1.444ZM32.066,0H30.049V-8.981h2.017ZM29.924-11.314a1.071,1.071,0,0,1,.295-.772,1.113,1.113,0,0,1,.843-.307,1.127,1.127,0,0,1,.847.307,1.062,1.062,0,0,1,.3.772,1.038,1.038,0,0,1-.3.76,1.136,1.136,0,0,1-.847.3,1.122,1.122,0,0,1-.843-.3A1.046,1.046,0,0,1,29.924-11.314Zm3.959,6.74a5.3,5.3,0,0,1,.523-2.378,3.819,3.819,0,0,1,1.469-1.627,4.14,4.14,0,0,1,2.175-.569A3.923,3.923,0,0,1,41-7.977a4.6,4.6,0,0,1,1.224,3.1l.008.473a5.343,5.343,0,0,1-.51,2.374A3.773,3.773,0,0,1,40.263-.407a4.17,4.17,0,0,1-2.2.573A3.9,3.9,0,0,1,35.025-1.1a4.848,4.848,0,0,1-1.141-3.374ZM35.9-4.4a3.619,3.619,0,0,0,.573,2.171,1.862,1.862,0,0,0,1.594.784,1.842,1.842,0,0,0,1.59-.8,4,4,0,0,0,.569-2.333,3.572,3.572,0,0,0-.585-2.158,1.869,1.869,0,0,0-1.59-.8,1.852,1.852,0,0,0-1.569.784A3.922,3.922,0,0,0,35.9-4.4ZM46.086,0H44.069V-12.75h2.017ZM47.9-4.574a5.3,5.3,0,0,1,.523-2.378A3.819,3.819,0,0,1,49.9-8.579a4.14,4.14,0,0,1,2.175-.569,3.923,3.923,0,0,1,2.951,1.17,4.6,4.6,0,0,1,1.224,3.1l.008.473a5.343,5.343,0,0,1-.51,2.374A3.773,3.773,0,0,1,54.283-.407a4.17,4.17,0,0,1-2.2.573A3.9,3.9,0,0,1,49.045-1.1,4.848,4.848,0,0,1,47.9-4.474Zm2.017.174a3.619,3.619,0,0,0,.573,2.171,1.862,1.862,0,0,0,1.594.784,1.842,1.842,0,0,0,1.59-.8,4,4,0,0,0,.569-2.333,3.572,3.572,0,0,0-.585-2.158,1.869,1.869,0,0,0-1.59-.8,1.852,1.852,0,0,0-1.569.784A3.922,3.922,0,0,0,49.921-4.4Z" transform="translate(682 5842)" fill="#12263f"/>
    <g id="Grupo_170064" data-name="Grupo 170064" transform="translate(600 5560.141)">
      <path id="Trazado_210233" data-name="Trazado 210233" d="M590.834,602.19S635.777,706.5,676.281,756.438c0,0-24.968-3.884-30.517-4.439l-54.93-90.655S581.957,586.1,590.834,602.19Z" transform="translate(-586.889 -440.497)" fill="#0d9143"/>
      <path id="Trazado_210234" data-name="Trazado 210234" d="M663.015,748.081s-10.716-20.537-1.839-21.092,9.987,15.536,9.987,15.536S668.183,748.643,663.015,748.081Z" transform="translate(-618.391 -497.049)" fill="#82c31d"/>
      <path id="Trazado_210235" data-name="Trazado 210235" d="M927.692,327.24s-135.938-45.61-220,24.08-59.091,142.93-5.271,136.272c0,0-22.194,39.394-29.962,61.033,0,0-6.658,9.987-10.542,13.316,0,0-3.884,5.549-.555,8.878s9.019,6.224,12.555,2.279,2.981-16.151,2.981-16.151,18.738-51.046,26.846-60.478c0,0,3.67-4.386,3.948,1.969s24.966,88.476,118.6-.857Z" transform="translate(-616.36 -312.582)" fill="#00923f" stroke="#006837" stroke-linecap="round" stroke-miterlimit="10" stroke-width="4"/>
      <g id="Grupo_170063" data-name="Grupo 170063" transform="translate(203.691 5.578)">
        <path id="Trazado_210236" data-name="Trazado 210236" d="M954,509.821s10.542-19.978,16.09-51.6,51.046-154.246,134.828-133.162c0,0,23.859,6.1,30.517,5.548,0,0-67.691,33.291-109.86,90.44S956.219,505.383,954,509.821Z" transform="translate(-954 -322.634)" fill="#89c026"/>
        <g id="Grupo_170062" data-name="Grupo 170062" transform="translate(0)" clip-path="url(#clip-path)">
          <path id="Trazado_210237" data-name="Trazado 210237" d="M1211.968,346s-21.084,18.865-24.968,37.175" transform="translate(-1057.72 -333.036)" fill="none" stroke="#00923f" stroke-linecap="round" stroke-miterlimit="10" stroke-width="4"/>
          <path id="Trazado_210238" data-name="Trazado 210238" d="M1183.852,341s-13.317,12.207-28.852,50.491" transform="translate(-1043.475 -330.81)" fill="none" stroke="#00923f" stroke-linecap="round" stroke-miterlimit="10" stroke-width="4"/>
          <path id="Trazado_210239" data-name="Trazado 210239" d="M1150.177,341s-26.847,34.955-30.176,77.679" transform="translate(-1027.895 -330.81)" fill="none" stroke="#00923f" stroke-linecap="round" stroke-miterlimit="10" stroke-width="4"/>
          <path id="Trazado_210240" data-name="Trazado 210240" d="M1083.266,352a267.153,267.153,0,0,0-19.975,55.485c-7.768,32.181-33.291,75.459-33.291,75.459" transform="translate(-987.831 -335.707)" fill="none" stroke="#00923f" stroke-linecap="round" stroke-miterlimit="10" stroke-width="4"/>
          <path id="Trazado_210241" data-name="Trazado 210241" d="M1039.859,423s-8.878,17.2-11.652,48.272S1016,521.208,1016,521.208" transform="translate(-981.599 -367.312)" fill="none" stroke="#00923f" stroke-linecap="round" stroke-miterlimit="10" stroke-width="4"/>
          <path id="Trazado_210242" data-name="Trazado 210242" d="M1009.016,511.5a55.322,55.322,0,0,0-1.575,24.691c2.219,13.871,1.575,30.971,1.575,30.971" transform="translate(-977.479 -406.708)" fill="none" stroke="#00923f" stroke-linecap="round" stroke-miterlimit="10" stroke-width="4"/>
          <path id="Trazado_210243" data-name="Trazado 210243" d="M982.406,583s-1.664,20.757,0,28.688" transform="translate(-966.316 -438.536)" fill="none" stroke="#00923f" stroke-linecap="round" stroke-miterlimit="10" stroke-width="4"/>
        </g>
        <path id="Trazado_210245" data-name="Trazado 210245" d="M954,509.821s10.542-19.978,16.09-51.6,51.046-154.246,134.828-133.162c0,0,23.859,6.1,30.517,5.548,0,0-67.691,33.291-109.86,90.44S956.219,505.383,954,509.821Z" transform="translate(-954 -322.634)" fill="none" stroke="#00923f" stroke-miterlimit="10" stroke-width="4"/>
      </g>
      <path id="Trazado_210246" data-name="Trazado 210246" d="M844.952,327s-77.788,17.2-5.326,105.7c0,0,23.636,24.691,59.7,34.123" transform="translate(-685.649 -319)" fill="none" stroke="#073" stroke-miterlimit="10" stroke-width="4"/>
      <path id="Trazado_210247" data-name="Trazado 210247" d="M908.25,327s-45.99,32.181-4.931,73.795c0,0,26.633,24.413,42.723,29.407" transform="translate(-720.157 -319)" fill="none" stroke="#073" stroke-miterlimit="10" stroke-width="4"/>
      <path id="Trazado_210248" data-name="Trazado 210248" d="M971.5,322.634s-35.285,17.4-9.207,57.353a97.279,97.279,0,0,0,23.3,18.865" transform="translate(-749.725 -317.057)" fill="none" stroke="#073" stroke-miterlimit="10" stroke-width="4"/>
      <path id="Trazado_210249" data-name="Trazado 210249" d="M1035.141,327s-23.186.555-15.419,42.723a65.928,65.928,0,0,0,12.207,7.768" transform="translate(-778.857 -319)" fill="none" stroke="#073" stroke-miterlimit="10" stroke-width="4"/>
      <path id="Trazado_210250" data-name="Trazado 210250" d="M935.417,336s-16.645-1.11-18.865,30.517c0,0-109.305,42.169-177.552,140.377" transform="translate(-654.601 -323.003)" fill="none" stroke="#073" stroke-miterlimit="10" stroke-width="4"/>
      <path id="Trazado_210251" data-name="Trazado 210251" d="M761.51,379s-36.065,23.858,24.968,102.647c0,0,29.219,43.07,80.359,40.677" transform="translate(-659.911 -342.148)" fill="none" stroke="#073" stroke-miterlimit="10" stroke-width="4"/>
      <path id="Trazado_210252" data-name="Trazado 210252" d="M691.944,464s-9.432,26.633,22.194,54.93,33.846,29.407,36.62,34.4,22.749,35.536,64.917,31.917" transform="translate(-633.068 -379.986)" fill="none" stroke="#073" stroke-miterlimit="10" stroke-width="4"/>
      <path id="Trazado_210253" data-name="Trazado 210253" d="M660,538s2.774,22.749,36.065,39.394,38.284,35.51,39.394,37.175S748.776,635.1,761.537,635.1" transform="translate(-619.434 -412.927)" fill="none" stroke="#073" stroke-miterlimit="10" stroke-width="4"/>
    </g>
    <path id="Trazado_210256" data-name="Trazado 210256" d="M-7634.557-6164.286l4.675,31.075" transform="translate(8346.67 11711.703)" fill="none" stroke="#f2aa8c" stroke-width="3"/>
    <path id="Trazado_210259" data-name="Trazado 210259" d="M-7655.933-6179.8l25.256,46.013" transform="translate(8308.665 11788.229)" fill="none" stroke="#f2aa8c" stroke-width="3"/>
    <path id="Trazado_210260" data-name="Trazado 210260" d="M-7659.208-6179.391l24.777-1.883" transform="translate(8312.638 11921.151)" fill="none" stroke="#f2aa8c" stroke-width="3"/>
    <path id="Trazado_210261" data-name="Trazado 210261" d="M-7665.688-6194.19l36.61,33.151" transform="translate(8335.769 11987.527)" fill="none" stroke="#f2aa8c" stroke-width="3"/>
    <path id="Trazado_210258" data-name="Trazado 210258" d="M-7653.5-6156.548l22.917,23.625" transform="translate(8615.713 11702.75)" fill="none" stroke="#f2aa8c" stroke-width="3"/>
    <path id="Trazado_210262" data-name="Trazado 210262" d="M-7671.841-6131.07l40.573-.941" transform="translate(8568.202 11750.805)" fill="none" stroke="#f2aa8c" stroke-width="3"/>
    <path id="Trazado_210257" data-name="Trazado 210257" d="M-7629.7-6134.6l62.568-67.159-31.1,97.7" transform="translate(8399.444 11737.751)" fill="none" stroke="#f2aa8c" stroke-width="3"/>
    <path id="Trazado_210263" data-name="Trazado 210263" d="M0,0V25.224H326.922V0" transform="translate(736.72 5795.816) rotate(-41)" fill="none" stroke="#f2aa8c" stroke-width="3"/>
  </g>
</svg>
