<svg xmlns="http://www.w3.org/2000/svg" xmlns:xlink="http://www.w3.org/1999/xlink" width="210.794" height="257.124" viewBox="0 0 210.794 257.124">
  <defs>
    <clipPath id="clip-path">
      <path id="Trazado_224761" data-name="Trazado 224761" d="M1031.164,110.658c2.6,3.837,6.51,6.555,10.328,9.183l13.864,9.54a3.2,3.2,0,0,1,1.334,1.4,3.106,3.106,0,0,1-.1,1.849c-.841,3.078-1.981,6.1-2.365,9.265-.543,4.485.456,8.994.855,13.494,1.231,13.895-3.275,27.645-3.9,41.581a1.853,1.853,0,0,0,.25,1.256,2.29,2.29,0,0,0,1.343.581c2.349.567,4,2.681,5.1,4.831s1.887,4.508,3.444,6.357c2.135,2.533,5.406,3.751,8.525,4.867l10.354,3.7c3.121,1.116,6.358,2.249,9.662,1.988,4.074-.323,7.654-2.707,11.027-5.015a3.83,3.83,0,0,0,1.451-1.439,4.15,4.15,0,0,0-.04-2.562,26.464,26.464,0,0,1-.343-9.078c.855-6.285,3.968-12.358,3.194-18.653a50.264,50.264,0,0,0-2-7.553c-2.138-7.489-2.033-15.4-2.605-23.169s-1.974-15.816-6.594-22.086c-2.107-2.859-4.812-5.243-6.864-8.144-1.607-2.272-2.917-4.958-5.368-6.276a19.179,19.179,0,0,0-4.1-1.3c-7.656-2.1-13.335-8.466-20.417-12.052a60.46,60.46,0,0,0-12.607-4.2c-3.38-.857-6.829-1.72-10.307-1.479Z" transform="translate(-1031.164 -97.504)" fill="#e2d5b7"/>
    </clipPath>
  </defs>
  <g id="Grupo_176648" data-name="Grupo 176648" transform="translate(-882.893 -66.878)">
    <path id="Trazado_224716" data-name="Trazado 224716" d="M1084.7,104.738c.244,1.469-.154,2.978,0,4.458s1.242,3.1,2.724,2.96a4.111,4.111,0,0,1-2.437,3.291c-1.332.527-7.4-4.739-8.224-5.912Z" transform="translate(-45.263 -8.839)" fill="#381d04"/>
    <path id="Trazado_224717" data-name="Trazado 224717" d="M1086.835,368.211a12.9,12.9,0,0,1-3.407,11.749,2.245,2.245,0,0,0-.679.941,2.049,2.049,0,0,0,.07.988q.826,3.465,1.652,6.929a2.457,2.457,0,0,0,.4.992,2.289,2.289,0,0,0,1.029.635,16.334,16.334,0,0,0,10.769.238c1.325-.435,2.738-1.209,3.077-2.563a5.955,5.955,0,0,0-.613-3.274c-1.048-3.049-.878-6.365-.694-9.583l.635-11.19-4.492.359Z" transform="translate(-46.651 -69.385)" fill="#f6a472"/>
    <path id="Trazado_224718" data-name="Trazado 224718" d="M1125.259,355.013a12.906,12.906,0,0,1,5.525,10.915,2.242,2.242,0,0,0,.145,1.151,2.061,2.061,0,0,0,.726.675l5.934,3.94a2.467,2.467,0,0,0,.967.455,2.3,2.3,0,0,0,1.185-.238,16.33,16.33,0,0,0,8.036-7.173c.672-1.223,1.177-2.752.5-3.972a5.954,5.954,0,0,0-2.682-1.976c-2.846-1.515-4.983-4.054-7.046-6.532l-7.17-8.614-3.039,3.328Z" transform="translate(-56.584 -64.614)" fill="#f6a472"/>
    <path id="Trazado_224719" data-name="Trazado 224719" d="M1109.013,278.3l1.617,9.484c1.368,8.03,5.93,13.212,9.112,20.711s5.2,17.373,12.454,21.077a45.442,45.442,0,0,1-17.223,15.453c-1.643-4.164-4.418-7.76-6.946-11.454a113.716,113.716,0,0,1-16.363-36.268,3.8,3.8,0,0,1-.117-2.106,3.866,3.866,0,0,1,1.291-1.589l15.633-13.392Z" transform="translate(-48.688 -49.358)" fill="#594d35"/>
    <path id="Trazado_224720" data-name="Trazado 224720" d="M1066.35,235.356c2.777,6.908,1.938,14.648,2.208,22.088.165,4.538.759,9.048,1.352,13.55l3.355,25.452c1.145,8.688,2.291,17.387,2.744,26.138.253,4.881.289,9.77.443,14.656a2.378,2.378,0,0,0,.271,1.246c.431.658,1.343.724,2.108.9,1.5.354,2.789,1.381,4.306,1.674a9.336,9.336,0,0,0,4.2-.491l14.237-3.933a1.838,1.838,0,0,0,1.039-.553,1.857,1.857,0,0,0,.152-1.4,148.313,148.313,0,0,1-1.616-29.345,57.6,57.6,0,0,0-.063-10.737c-.324-2.264-.972-4.487-1.077-6.772-.161-3.518.969-6.95,1.958-10.331a140.49,140.49,0,0,0,5.506-32.944,1.049,1.049,0,0,0-1.272-1.331c-2.187-.015-4.372.127-6.56.145-9.514.076-18.874-2.192-28.118-4.444Z" transform="translate(-42.831 -39.334)" fill="#8c7c58"/>
    <path id="Trazado_224721" data-name="Trazado 224721" d="M1079.671,380.709c1.239-1.837,1.484-2.861,2.84-1.109l.028.038c.953,1.261.53,8.171.488,9.751-.026.99-.064,2.2.789,2.7a2.306,2.306,0,0,0,1.2.225c2.264-.026,5.475.323,7.445-.792a2.841,2.841,0,0,1,1.61-.554c.669.068,2.861-.025,1.909,2.339s-3.327,2.3-5.8,2.936c-5.225,1.344-24.577.144-26.19-2.556a3.055,3.055,0,0,1-.458-1.922c.277-2.265,3.092-3.1,5.333-3.266A12.756,12.756,0,0,0,1079.671,380.709Z" transform="translate(-42.171 -72.798)" fill="#6da8c6"/>
    <path id="Trazado_224722" data-name="Trazado 224722" d="M1129.331,368.554c-.348-2.188-.867-3.1,1.319-2.749l.047.008c1.557.271,5.962,5.612,7.009,6.8.655.741,1.456,1.655,2.421,1.439a2.311,2.311,0,0,0,1.033-.657c1.637-1.564,4.223-3.5,4.9-5.659a2.846,2.846,0,0,1,.8-1.5c.536-.407,2.076-1.97,2.993.408s-.863,3.953-2.234,6.1c-2.9,4.547-17.87,16.872-20.891,16a3.057,3.057,0,0,1-1.647-1.093c-1.342-1.845.15-4.374,1.671-6.026A12.756,12.756,0,0,0,1129.331,368.554Z" transform="translate(-56.421 -69.682)" fill="#6da8c6"/>
    <g id="Grupo_176545" data-name="Grupo 176545" transform="translate(1034.904 315.379)">
      <path id="Trazado_224723" data-name="Trazado 224723" d="M1081.267,391.607a1.831,1.831,0,0,0,.393,1.672,1.464,1.464,0,0,0,1.613.447,1.565,1.565,0,0,0,1.043-1.451,1.271,1.271,0,0,0-.975-1.16,1.289,1.289,0,0,0-1.5.57.39.39,0,0,0,.674.394c.011-.021.061-.08.06-.1,0,.035-.055.064,0,.008.012-.014.027-.026.04-.04.054-.057-.013.023-.019.011a.448.448,0,0,1,.046-.031l.048-.028.041-.02-.041.017c.036-.01.071-.025.108-.034.018-.005.037-.008.056-.013.082-.019-.1.006-.011,0,.039,0,.077-.005.116-.005l.048,0c.013,0,.116.011.042,0s.007,0,.018,0l.069.016c.038.01.075.023.113.036s-.005.018-.028-.011a.266.266,0,0,0,.063.031c.036.02.081.067.118.075-.008,0-.071-.061-.025-.018l.05.048.031.034c.057.057-.047-.076,0-.006.021.033.04.065.059.1.032.059-.015-.022-.012-.028-.006.013.028.088.031.1a.3.3,0,0,1,.011.059c0-.105,0-.006,0,.015s0,.039,0,.058v.03c0,.044,0,.038,0-.017.01.028-.028.116-.037.143,0,.005-.041.09-.013.036s-.028.051-.034.06a1.262,1.262,0,0,1-.083.126c.057-.077-.044.043-.059.058s-.136.113-.06.058a1.259,1.259,0,0,1-.155.1c-.022.012-.045.022-.068.034-.052.027.087-.025,0,0-.049.014-.1.028-.146.04-.1.023.083,0-.015,0l-.061,0c-.031,0-.061,0-.09,0-.081,0,.065.02-.016,0l-.138-.039c-.091-.025.071.04-.012,0l-.051-.025c-.042-.022-.08-.049-.12-.074-.08-.051.058.056-.011-.008-.021-.019-.043-.038-.064-.057a1.507,1.507,0,0,1-.115-.127c.063.077,0,0-.007-.015s-.031-.048-.046-.074a1.5,1.5,0,0,1-.079-.155c.038.084.008.021,0,0s-.022-.064-.031-.1a.513.513,0,0,1-.037-.17c-.008.069,0,.05,0,.017s-.005-.077-.006-.116c0-.019,0-.038,0-.057s0-.153,0-.041a.625.625,0,0,1,.038-.17.39.39,0,0,0-.753-.208Z" transform="translate(-1081.203 -391.065)" fill="#1b4b5e"/>
    </g>
    <g id="Grupo_176546" data-name="Grupo 176546" transform="translate(1030.14 315.645)">
      <path id="Trazado_224724" data-name="Trazado 224724" d="M1075.281,392.922a1.294,1.294,0,0,0,2.2.85,1.458,1.458,0,0,0,.272-1.4,1.374,1.374,0,0,0-1.137-.941,1.664,1.664,0,0,0-1.568.68.392.392,0,0,0,.14.534.4.4,0,0,0,.534-.14c.047-.065-.061.07-.007.01.015-.017.028-.034.044-.049.031-.032.064-.061.1-.09.06-.054-.076.052-.009.007l.054-.037a1.162,1.162,0,0,1,.135-.075c.035-.018.083-.016-.012,0,.02,0,.042-.017.062-.023a1.17,1.17,0,0,1,.127-.037l.064-.014c.039-.007.088.005-.017,0,.05,0,.1-.009.152-.008s.087.008.13.008c-.11,0-.054-.008-.018,0l.063.015c.035.009.069.021.1.032.077.025-.084-.043-.013-.006.026.013.051.025.077.04s.038.022.056.035c.034.023.052.062-.01-.01.026.03.061.054.089.084.013.014.025.032.039.045-.073-.066-.035-.048-.012-.015a1.068,1.068,0,0,1,.071.122c.016.032.021.084-.007-.02.005.019.015.038.021.057.012.038.023.077.032.117l.011.06c.015.077-.008-.1,0-.023,0,.048.005.094,0,.142s-.006.067-.008.1c.006-.137,0-.005-.012.034s-.023.076-.036.113c-.025.072.044-.087.008-.021-.012.024-.024.048-.038.07s-.021.033-.031.05c-.039.064.064-.072.014-.016a1.079,1.079,0,0,1-.083.086c-.03.028-.069.034.017-.01-.017.008-.033.023-.05.034l-.051.029c-.09.046.067-.021,0,0a1.1,1.1,0,0,1-.11.031c-.041.008-.08-.006.028,0-.018,0-.038,0-.058,0a.81.81,0,0,1-.1,0c-.037,0-.086-.025.027,0-.025-.006-.051-.009-.077-.015a1.282,1.282,0,0,1-.13-.041c-.071-.025.088.043.021.008-.023-.012-.047-.023-.069-.036l-.051-.031c-.028-.018-.089-.079,0,0-.033-.031-.068-.057-.1-.09-.013-.014-.025-.028-.037-.043-.044-.049.059.087,0,0a.49.49,0,0,1-.029-.048c-.019-.034-.035-.107,0,.009-.012-.042-.027-.084-.037-.126-.018-.072.006.1,0,.028,0-.026,0-.052,0-.078a.39.39,0,1,0-.78,0Z" transform="translate(-1074.988 -391.413)" fill="#1b4b5e"/>
    </g>
    <g id="Grupo_176547" data-name="Grupo 176547" transform="translate(1036.11 311.791)">
      <path id="Trazado_224725" data-name="Trazado 224725" d="M1082.777,387.56a1.5,1.5,0,0,0,.893,1.384,1.4,1.4,0,0,0,.913.1,1.235,1.235,0,0,0,.645-.413,1.5,1.5,0,0,0,.274-1.45,1.218,1.218,0,0,0-.524-.629,1.28,1.28,0,0,0-.733-.157,1.343,1.343,0,0,0-1.256,1.029.426.426,0,0,0,.04.3.39.39,0,0,0,.713-.094.867.867,0,0,1,.025-.115c.006-.018.035-.091.008-.026s0-.007.013-.022c.018-.034.043-.064.063-.1,0,0-.059.065-.031.042a.232.232,0,0,0,.019-.022c.017-.018.035-.037.054-.054l.044-.038c.048-.042-.071.048-.017.014.039-.024.077-.049.117-.071a.5.5,0,0,0,.054-.026s-.086.033-.048.02l.028-.01a.976.976,0,0,1,.123-.038l.068-.015c.066-.014-.092.008-.025,0,.043,0,.085-.006.127-.005l.059,0c.082,0-.081-.017-.017,0a1.1,1.1,0,0,1,.122.03c.016,0,.081.031.017,0s0,0,.015.008a.64.64,0,0,1,.059.034c.014.008.08.056.024.015s0,0,.013.015.029.028.043.043.057.068.015.015.01.018.019.034.019.034.028.052.008.019.013.027-.032-.086-.02-.048.028.08.038.122c.005.022.008.046.014.068.01.039-.007-.06-.007-.054s0,.02,0,.029a1.032,1.032,0,0,1,0,.13c0,.023,0,.047,0,.07,0,.041.009-.058.008-.053s0,.02,0,.03c-.008.043-.017.086-.029.128-.006.019-.012.039-.019.058s-.037.1-.009.028,0,0-.011.018-.021.042-.034.062-.047.066-.067.1c0,0,.058-.067.03-.04-.009.009-.017.021-.026.031s-.031.034-.048.05l-.044.04c-.048.044.071-.047.016-.012-.039.025-.079.048-.12.071-.057.031.081-.028.019-.008-.021.007-.041.015-.061.02s-.046.011-.069.016c-.062.016.087,0,0,0-.05,0-.1,0-.149,0-.071,0,.081.018.012,0l-.079-.018c-.03-.008-.059-.018-.089-.028-.081-.028.053.028,0,0s-.1-.051-.143-.081c-.014-.009-.087-.063-.037-.025s-.029-.027-.042-.038c-.041-.038-.074-.08-.113-.12s.025.031.025.032-.021-.03-.027-.038c-.018-.026-.034-.052-.049-.08s-.024-.05-.037-.073.016.038.016.04a.215.215,0,0,0-.017-.044,1.734,1.734,0,0,1-.043-.169c-.009-.04.007.045.006.046s0-.036,0-.047c0-.031,0-.063,0-.1a.393.393,0,0,0-.39-.39.4.4,0,0,0-.39.39Z" transform="translate(-1082.776 -386.385)" fill="#1b4b5e"/>
    </g>
    <path id="Trazado_224726" data-name="Trazado 224726" d="M1101.61,387.173a8.767,8.767,0,0,0-4.887,8.542l2.509-.233a7.72,7.72,0,0,1,3.574-5.937,4.71,4.71,0,0,1-.563-2.4Z" transform="translate(-49.913 -74.772)" fill="#6da8c6"/>
    <path id="Trazado_224727" data-name="Trazado 224727" d="M1148.733,361.732a10.714,10.714,0,0,0-.046,8.722c.274.614.762,1.289,1.431,1.221a1.2,1.2,0,0,0,.949-.975,3.534,3.534,0,0,0-.085-1.442c-.435-2.185-.787-4.676.559-6.453l-2.5-.995Z" transform="translate(-61.842 -68.838)" fill="#6da8c6"/>
    <g id="Grupo_176548" data-name="Grupo 176548" transform="translate(1022.638 318.617)">
      <path id="Trazado_224728" data-name="Trazado 224728" d="M1065.477,396.056a64.4,64.4,0,0,0,21.706,1.991q3.06-.243,6.087-.777c.494-.087.284-.839-.208-.753a63.5,63.5,0,0,1-21.484.073q-2.976-.5-5.893-1.285a.39.39,0,0,0-.208.752Z" transform="translate(-1065.2 -395.289)" fill="#1b4b5e"/>
    </g>
    <g id="Grupo_176549" data-name="Grupo 176549" transform="translate(1069.661 298.066)">
      <path id="Trazado_224729" data-name="Trazado 224729" d="M1127.144,388.093a49.935,49.935,0,0,0,10.413-6.382c1.63-1.249,3.22-2.548,4.8-3.856a39.863,39.863,0,0,0,4.1-3.729,12.845,12.845,0,0,0,3.048-5.164.391.391,0,0,0-.753-.207c-.97,3.488-3.84,5.973-6.524,8.2a100.181,100.181,0,0,1-9.525,7.245,41.18,41.18,0,0,1-5.957,3.22c-.46.2-.063.872.394.674Z" transform="translate(-1126.545 -368.479)" fill="#1b4b5e"/>
    </g>
    <g id="Grupo_176550" data-name="Grupo 176550" transform="translate(1074.918 306.472)">
      <path id="Trazado_224730" data-name="Trazado 224730" d="M1133.411,381.25a1.579,1.579,0,0,0,1.162,1.181,1.455,1.455,0,0,0,1.6-.564,1.686,1.686,0,0,0,.086-1.652,1.4,1.4,0,0,0-1.432-.759,1.6,1.6,0,0,0-1.419,1.234.4.4,0,0,0,.272.48.4.4,0,0,0,.481-.272.959.959,0,0,1,.034-.148c.005-.015.035-.087.008-.028s.015-.029.024-.047.075-.092.079-.126c0,0-.053.063-.026.033l.022-.026a.871.871,0,0,1,.063-.067.81.81,0,0,0,.1-.092c0,.006-.077.054-.023.019l.028-.02c.023-.015.046-.03.07-.044s.048-.027.071-.039.087-.033.027-.015.015-.005.03-.011.058-.02.089-.028a.886.886,0,0,0,.147-.033s-.088.008-.047.005l.035,0a.921.921,0,0,1,.093,0c.044,0,.094.012.137.007-.072.009-.074-.012-.036,0l.034.006c.026.005.052.012.077.02s.051.019.076.025-.038-.015-.04-.017a.131.131,0,0,0,.031.015c.048.026.093.055.139.084s-.034-.025-.034-.026.02.018.025.022.039.036.057.055.03.033.045.05.035.041,0,0,0,0,.008.015a1.094,1.094,0,0,1,.068.116c.006.012.045.1.018.035s.006.021.012.038a1.329,1.329,0,0,1,.038.143l.006.034c.014.064,0-.029,0-.036,0,.026.006.054.008.08a1.374,1.374,0,0,1,0,.149c0,.023,0,.046,0,.069s-.021.042.005-.036a.29.29,0,0,0-.008.045,1.3,1.3,0,0,1-.035.143c-.007.021-.015.043-.022.064-.028.083.037-.069,0,.01-.021.041-.041.08-.066.118-.008.012-.018.024-.025.037-.02.035.028-.034.028-.034a.561.561,0,0,0-.051.059,1.121,1.121,0,0,0-.107.1s.067-.044.033-.027a.3.3,0,0,0-.028.019c-.026.017-.053.033-.08.048-.01.005-.021.009-.031.015-.033.021.039-.016.041-.016a.428.428,0,0,0-.076.027l-.066.018c-.018,0-.119.02-.049.012s-.012,0-.028,0-.054,0-.08,0l-.069,0c-.018,0-.109-.012-.041,0s-.033-.008-.051-.012-.053-.012-.079-.02-.06-.018-.089-.029c-.011,0-.022-.009-.033-.012-.045-.015.071.036.029.012s-.105-.051-.155-.083c-.026-.016-.051-.035-.077-.051-.051-.036.061.054,0,0a1.319,1.319,0,0,1-.123-.121l-.022-.027c-.032-.034.049.072.012.015-.015-.022-.03-.044-.044-.067s-.03-.054-.044-.08c-.039-.076.018.058,0,0a1.326,1.326,0,0,1-.047-.18.392.392,0,0,0-.48-.272.4.4,0,0,0-.273.48Z" transform="translate(-1133.404 -379.446)" fill="#1b4b5e"/>
    </g>
    <g id="Grupo_176551" data-name="Grupo 176551" transform="translate(1074.475 302.464)">
      <path id="Trazado_224731" data-name="Trazado 224731" d="M1133.175,376.045a1.268,1.268,0,0,0,1.151.816,1.243,1.243,0,0,0,1.2-.644,1.4,1.4,0,0,0-.146-1.428,1.435,1.435,0,0,0-.645-.5,1.274,1.274,0,0,0-.812-.014,1.555,1.555,0,0,0-1.094,1.464.39.39,0,1,0,.78,0c0-.027,0-.053,0-.08l0-.026c0-.044,0-.035,0,.025a.9.9,0,0,1,.029-.128c0-.008.018-.073.025-.074s-.043.089-.008.021a1.493,1.493,0,0,1,.077-.139.245.245,0,0,1,.045-.065l-.028.038.034-.041c.029-.033.061-.064.093-.094l.051-.043c.042-.037-.079.051-.005.005.045-.028.088-.057.136-.08l.023-.012c.039-.017.032-.015-.021.008,0-.009.064-.023.074-.026.042-.013.084-.021.126-.031.085-.018-.071,0-.014,0,.021,0,.043,0,.064,0s.052,0,.078,0c.084,0-.075-.018,0,0a.582.582,0,0,0,.13.037c-.006,0-.088-.042-.031-.013l.06.031a.986.986,0,0,0,.094.061c-.074-.028-.045-.037-.009,0,.017.015.033.031.049.046l.045.05.015.018-.02-.025a.554.554,0,0,0,.062.094c.019.033.035.067.052.1.037.074-.029-.088,0-.009.007.021.015.042.021.064a.889.889,0,0,0,.03.132c0-.005-.009-.1,0-.037,0,.022,0,.044,0,.067s0,.074,0,.11c0,.081.021-.1,0-.016-.005.021-.009.043-.015.064s-.013.042-.019.063c-.023.077.044-.082.005-.011-.018.033-.037.064-.056.1-.04.067.051-.053.016-.018-.013.012-.023.027-.035.039s-.03.028-.044.043c-.053.053.076-.05.014-.009a1.019,1.019,0,0,1-.1.058c-.015.008-.032.014-.047.022.09-.054.051-.021.016-.009a.909.909,0,0,1-.1.028c-.02,0-.041.006-.061.011.1-.028.058-.008.02,0a1.166,1.166,0,0,1-.126,0c-.021,0-.043-.006-.064-.005.117,0,.041.006,0,0a1.092,1.092,0,0,1-.121-.034.336.336,0,0,0-.039-.015c.061.027.073.031.036.015a.322.322,0,0,1-.037-.018c-.036-.018-.069-.048-.1-.064.079.035.05.041.015.011l-.044-.042c-.013-.015-.025-.033-.04-.046.073.063.034.047.012.013a.583.583,0,0,1-.031-.053c-.049-.093.021.061,0,0a.39.39,0,1,0-.752.208Z" transform="translate(-1132.826 -374.217)" fill="#1b4b5e"/>
    </g>
    <g id="Grupo_176552" data-name="Grupo 176552" transform="translate(1072.385 309.691)">
      <path id="Trazado_224732" data-name="Trazado 224732" d="M1130.376,384.726a1.1,1.1,0,0,0-.272.823,1.474,1.474,0,0,0,.346.8,1.3,1.3,0,0,0,1.574.367,1.663,1.663,0,0,0,.866-1.351,1.614,1.614,0,0,0-.783-1.567,1.1,1.1,0,0,0-1.134.008.986.986,0,0,0-.451,1.079.391.391,0,0,0,.753-.208c0-.011-.01-.1-.012-.043s.005-.041.006-.043c-.01.1.042-.066,0,.015.013-.024.029-.046.041-.07.024-.047-.059.051.01-.011a.5.5,0,0,0,.048-.046c-.047.051.007,0,.029-.018,0,0,.1-.046.043-.025s.048-.013.048-.012c.024-.009.065,0-.006,0a.676.676,0,0,0,.068,0c.1-.006-.037-.016.017,0,.027.008.056.015.084.021s.07.027,0,0a.875.875,0,0,1,.093.048l.058.038c.092.059-.03-.029.018.015s.077.074.113.114c.05.055.016.018.006,0,.017.025.034.049.049.074s.031.051.044.077.047.111.012.019a2.083,2.083,0,0,1,.071.255c-.025-.1,0,.025,0,.057a1.441,1.441,0,0,1,0,.163c0,.02,0,.039-.005.059.006-.09.005-.038,0-.016-.011.048-.02.1-.033.144s-.024.075-.037.112c-.029.088.03-.046,0,0-.015.024-.025.053-.039.078s-.043.075-.067.111c0,0-.061.077-.02.03s-.021.023-.024.027c-.025.028-.052.054-.08.08,0,0-.076.061-.026.024s-.031.02-.041.026c-.036.023-.074.04-.111.061.085-.048-.023.005-.055.014s-.047.011-.071.017c.012,0,.09-.005.019,0-.029,0-.117.018-.139,0,.028.025.07.016.008,0-.021-.007-.044-.011-.067-.018l-.052-.018c.087.029.028.013,0,0s-.072-.041-.108-.064c-.058-.035,0,0,.011.011-.022-.018-.044-.036-.064-.055-.038-.036-.069-.079-.107-.113s.048.076,0,0c-.015-.025-.031-.047-.046-.071s-.068-.154-.034-.057a1.3,1.3,0,0,1-.042-.13c0-.009-.022-.073-.016-.079-.011.012.007.09,0,0,0-.018,0-.035,0-.053,0-.084-.021.082,0,0,.009-.038.051-.143.008-.057.01-.021.02-.041.031-.06s.074-.1.012-.023a.4.4,0,0,0,0-.552.394.394,0,0,0-.552,0Z" transform="translate(-1130.099 -383.646)" fill="#1b4b5e"/>
    </g>
    <g id="Grupo_176553" data-name="Grupo 176553" transform="translate(1034.702 290.525)">
      <path id="Trazado_224733" data-name="Trazado 224733" d="M1081.114,361.868a19.746,19.746,0,0,0,3.892,2.214,7.642,7.642,0,0,0,4.454.335c1.577-.336,3.125-.882,4.659-1.374q2.411-.772,4.8-1.62,2.684-.953,5.332-2c.461-.182.261-.938-.208-.753q-4.531,1.791-9.165,3.31c-1.552.507-3.11,1.011-4.683,1.45a7.544,7.544,0,0,1-4.353.116,16.424,16.424,0,0,1-4.33-2.353c-.416-.284-.807.392-.394.674Z" transform="translate(-1080.939 -358.641)" fill="#594d35"/>
    </g>
    <g id="Grupo_176554" data-name="Grupo 176554" transform="translate(1051.394 245.919)">
      <path id="Trazado_224734" data-name="Trazado 224734" d="M1103.091,301.249a40.473,40.473,0,0,1,6.939.383.405.405,0,0,0,.481-.272.393.393,0,0,0-.273-.481,41.733,41.733,0,0,0-7.146-.412c-.5.015-.5.8,0,.781Z" transform="translate(-1102.715 -300.45)" fill="#594d35"/>
    </g>
    <g id="Grupo_176555" data-name="Grupo 176555" transform="translate(1053.687 247.575)">
      <path id="Trazado_224735" data-name="Trazado 224735" d="M1106.082,303.638l4.569-.247c.5-.027.5-.808,0-.78l-4.569.247c-.5.027-.5.808,0,.78Z" transform="translate(-1105.706 -302.61)" fill="#594d35"/>
    </g>
    <g id="Grupo_176556" data-name="Grupo 176556" transform="translate(1033.815 202.287)">
      <path id="Trazado_224736" data-name="Trazado 224736" d="M1079.843,244.105a15.244,15.244,0,0,0,6.272,5.639c.45.218.846-.455.394-.674a14.506,14.506,0,0,1-5.993-5.36c-.265-.425-.941-.034-.674.394Z" transform="translate(-1079.782 -243.528)" fill="#594d35"/>
    </g>
    <g id="Grupo_176557" data-name="Grupo 176557" transform="translate(1042.262 230.671)">
      <path id="Trazado_224737" data-name="Trazado 224737" d="M1091.591,280.934q.325,6.056.132,12.125-.1,3.031-.327,6.056c-.151,2-.356,3.994-.483,5.994a39.991,39.991,0,0,0,0,5.986c.17,1.958.562,3.886.871,5.824a64.362,64.362,0,0,1,.464,11.654,52.972,52.972,0,0,0,.794,13c.111.49.864.282.753-.208-1.732-7.623-.051-15.484-1.045-23.178-.246-1.906-.643-3.787-.9-5.691a34.284,34.284,0,0,1-.232-5.981c.081-2,.275-4,.442-5.99q.255-3.018.387-6.044.287-6.769-.079-13.543c-.027-.5-.807-.5-.78,0Z" transform="translate(-1090.802 -280.557)" fill="#594d35"/>
    </g>
    <g id="Grupo_176558" data-name="Grupo 176558" transform="translate(1038.183 252.409)">
      <path id="Trazado_224738" data-name="Trazado 224738" d="M1085.615,309.559c2.267,1.785,5.38,1.522,7.738,3.1.419.28.81-.4.394-.674a12.119,12.119,0,0,0-3.828-1.454,9.813,9.813,0,0,1-3.752-1.52c-.39-.307-.947.241-.552.552Z" transform="translate(-1085.479 -308.917)" fill="#594d35"/>
    </g>
    <g id="Grupo_176559" data-name="Grupo 176559" transform="translate(1039.015 256.456)">
      <path id="Trazado_224739" data-name="Trazado 224739" d="M1086.942,314.976a27.614,27.614,0,0,1,5.442.547c.491.1.7-.652.208-.752a28.667,28.667,0,0,0-5.65-.575.39.39,0,0,0,0,.78Z" transform="translate(-1086.565 -314.196)" fill="#594d35"/>
    </g>
    <path id="Trazado_224740" data-name="Trazado 224740" d="M949.636,118.727c-1.951-.3-3.235-2.368-3.3-4.339a12.035,12.035,0,0,1,1.662-5.613,118.826,118.826,0,0,1,9.295-15.6c1.581-2.244,3.311-4.5,5.71-5.829,3.161-1.758,7.075-1.657,10.55-.652a19.02,19.02,0,0,1,10.364,7.153,14.536,14.536,0,0,1,2.193,12.219,15.721,15.721,0,0,1-5.909-.626c-.217-3.689-.744-7.481-2.638-10.653s-5.452-5.592-9.123-5.165c-4.288.5-7.245,4.457-9.349,8.227-2.806,5.025-7.3,9.843-8.985,15.348-.406,1.328,1.677,3.682,2.96,4.214a3.368,3.368,0,0,1-3.856,1.4Z" transform="translate(-14.81 -4.458)" fill="#6da8c6"/>
    <path id="Trazado_224741" data-name="Trazado 224741" d="M943.44,119.43a115.521,115.521,0,0,1,10.781-14.264c1.713-1.935,3.607-3.887,6.076-4.653,3.679-1.141,7.582.626,10.933,2.525a107.849,107.849,0,0,1,16.318,11.356c1.87,1.577,3.781,3.368,4.355,5.746.665,2.75-.616,5.556-1.863,8.1a94.43,94.43,0,0,1-8.2,14.479,16.139,16.139,0,0,1-3.988,4.1c-4.318,2.833-10.237,1.759-14.644-.933a16.287,16.287,0,0,0-4.758-2.455,12.126,12.126,0,0,0-5.7.6L940.76,147.27c-4.224,1.145-8.8,2.533-11.281,6.14-.449.655-.874,1.417-1.621,1.684a2.96,2.96,0,0,1-1.745-.08,20,20,0,0,1-7.989-4.286,1.093,1.093,0,0,1,.738-1.916c.819.021,1.691.206,2.5.286,3.288.323,6.4-1.371,9.267-3.01l18.625-10.643a1.834,1.834,0,0,0,.837-.961c.366-1.042-.551-1.719-1.374-2.149a19.791,19.791,0,0,1-3.031-2A8.7,8.7,0,0,1,943.3,119.72Z" transform="translate(-8.138 -7.768)" fill="#6da8c6"/>
    <path id="Trazado_224742" data-name="Trazado 224742" d="M970.425,104.751a7.505,7.505,0,0,0-4.25,2.141,23.087,23.087,0,0,0-3.883,5.16,6.872,6.872,0,0,0-1.105,3.928,2.872,2.872,0,0,0,1.006,2.057c1.115.837,2.428.089,3.5-.668a19.125,19.125,0,0,0,4.68-4.308,9.789,9.789,0,0,0,1.927-6.473c-.092-.985-.7-2.172-1.5-1.89Z" transform="translate(-18.275 -8.82)" fill="#1b4b5e"/>
    <g id="Grupo_176560" data-name="Grupo 176560" transform="translate(943.624 126.285)">
      <path id="Trazado_224743" data-name="Trazado 224743" d="M962.61,145.222a6.529,6.529,0,0,1,5.433,1.878,13.181,13.181,0,0,1,3.16,5.351c.165.471.919.268.753-.208a13.765,13.765,0,0,0-3.514-5.836,7.3,7.3,0,0,0-6.04-1.939c-.494.086-.284.838.208.753Z" transform="translate(-962.12 -144.379)" fill="#1b4b5e"/>
    </g>
    <g id="Grupo_176561" data-name="Grupo 176561" transform="translate(914.199 142.098)">
      <path id="Trazado_224744" data-name="Trazado 224744" d="M924.017,165.767a7.455,7.455,0,0,1,5.069,3.344c.268.424.943.032.675-.394a8.212,8.212,0,0,0-5.537-3.7c-.491-.081-.7.671-.207.753Z" transform="translate(-923.734 -165.008)" fill="#1b4b5e"/>
    </g>
    <path id="Trazado_224745" data-name="Trazado 224745" d="M1023.359,96.222c-10.971-5.724-23.945-6.366-35.253-11.392-2.736-1.216-5.422-2.7-8.387-3.113s-6.38.565-7.81,3.195a16.2,16.2,0,0,1,7.206.488L975.5,87.253a2.528,2.528,0,0,0-.829.578c-.878,1.056.478,2.643,1.838,2.837s2.792-.276,4.1.145c1.535.494,2.566,2.116,4.152,2.4,1.148.206,2.313-.348,3.475-.253a6.443,6.443,0,0,1,2.723,1.137,170.4,170.4,0,0,0,30.875,14.8Z" transform="translate(-20.782 -3.443)" fill="#f6a472"/>
    <g id="Grupo_176577" data-name="Grupo 176577" transform="translate(996.548 90.354)" opacity="0.49">
      <path id="Trazado_224746" data-name="Trazado 224746" d="M1031.164,110.658c2.6,3.837,6.51,6.555,10.328,9.183l13.864,9.54a3.2,3.2,0,0,1,1.334,1.4,3.106,3.106,0,0,1-.1,1.849c-.841,3.078-1.981,6.1-2.365,9.265-.543,4.485.456,8.994.855,13.494,1.231,13.895-3.275,27.645-3.9,41.581a1.853,1.853,0,0,0,.25,1.256,2.29,2.29,0,0,0,1.343.581c2.349.567,4,2.681,5.1,4.831s1.887,4.508,3.444,6.357c2.135,2.533,5.406,3.751,8.525,4.867l10.354,3.7c3.121,1.116,6.358,2.249,9.662,1.988,4.074-.323,7.654-2.707,11.027-5.015a3.83,3.83,0,0,0,1.451-1.439,4.15,4.15,0,0,0-.04-2.562,26.464,26.464,0,0,1-.343-9.078c.855-6.285,3.968-12.358,3.194-18.653a50.264,50.264,0,0,0-2-7.553c-2.138-7.489-2.033-15.4-2.605-23.169s-1.974-15.816-6.594-22.086c-2.107-2.859-4.812-5.243-6.864-8.144-1.607-2.272-2.917-4.958-5.368-6.276a19.179,19.179,0,0,0-4.1-1.3c-7.656-2.1-13.335-8.466-20.417-12.052a60.46,60.46,0,0,0-12.607-4.2c-3.38-.857-6.829-1.72-10.307-1.479Z" transform="translate(-1031.164 -97.504)" fill="#e2d5b7"/>
      <g id="Grupo_176576" data-name="Grupo 176576" clip-path="url(#clip-path)">
        <g id="Grupo_176562" data-name="Grupo 176562" transform="translate(15.179 69.266)">
          <path id="Trazado_224747" data-name="Trazado 224747" d="M1051.025,189.358q2.465,6.461,4.995,12.9,2.518,6.407,5.1,12.787t5.227,12.735q2.692,6.465,5.447,12.9,2.708,6.329,5.479,12.629l.7,1.582a1.175,1.175,0,0,0,1.6.42,1.207,1.207,0,0,0,.42-1.6q-2.779-6.3-5.5-12.622c-1.819-4.235-3.522-8.256-5.276-12.455q-2.653-6.352-5.242-12.73t-5.114-12.781q-2.515-6.373-4.964-12.771-.309-.807-.618-1.615a1.2,1.2,0,0,0-1.44-.818,1.184,1.184,0,0,0-.818,1.44Z" transform="translate(-1050.966 -187.866)" fill="#fff"/>
        </g>
        <g id="Grupo_176563" data-name="Grupo 176563" transform="translate(15.61 45.828)">
          <path id="Trazado_224748" data-name="Trazado 224748" d="M1051.667,159.041q3.786,8.459,7.637,16.89,3.868,8.468,7.8,16.907,3.916,8.4,7.9,16.769t8.026,16.708q4.063,8.376,8.192,16.721l1.015,2.048a1.171,1.171,0,0,0,2.021-1.182q-4.117-8.3-8.171-16.638-4.071-8.372-8.079-16.776-3.989-8.365-7.913-16.762t-7.783-16.822q-3.876-8.465-7.688-16.96-.468-1.042-.934-2.085a1.179,1.179,0,0,0-1.6-.42,1.2,1.2,0,0,0-.42,1.6Z" transform="translate(-1051.528 -157.29)" fill="#fff"/>
        </g>
        <g id="Grupo_176564" data-name="Grupo 176564" transform="translate(20.57 44.701)">
          <path id="Trazado_224749" data-name="Trazado 224749" d="M1058.152,157.581q4.721,8.675,9.363,17.392,4.621,8.679,9.163,17.4,4.561,8.759,9.044,17.56,4.462,8.761,8.844,17.563,4.4,8.842,8.722,17.722l1.079,2.221a1.181,1.181,0,0,0,1.6.42,1.194,1.194,0,0,0,.42-1.6q-4.31-8.886-8.7-17.732-4.372-8.806-8.824-17.573-4.472-8.806-9.025-17.571-4.531-8.726-9.142-17.41-4.632-8.722-9.343-17.4l-1.179-2.169c-.721-1.324-2.743-.143-2.022,1.182Z" transform="translate(-1057.999 -155.819)" fill="#fff"/>
        </g>
        <g id="Grupo_176565" data-name="Grupo 176565" transform="translate(22.115 -0.053)">
          <path id="Trazado_224750" data-name="Trazado 224750" d="M1060.077,98.871q3.74,11.672,8.406,23.018,4.7,11.427,10.3,22.455c3.668,7.209,7.641,14.252,11.844,21.161,4.042,6.642,8.219,13.21,11.916,20.055a95.669,95.669,0,0,1,8.711,21.086q.366,1.395.672,2.8c.322,1.472,2.58.849,2.258-.622a89.563,89.563,0,0,0-8.094-21.551c-3.544-6.92-7.661-13.523-11.724-20.145-4.2-6.843-8.246-13.767-11.969-20.882q-5.705-10.9-10.517-22.246-4.767-11.235-8.6-22.839-.482-1.454-.949-2.914c-.458-1.43-2.72-.819-2.257.622Z" transform="translate(-1060.015 -97.435)" fill="#fff"/>
        </g>
        <g id="Grupo_176566" data-name="Grupo 176566" transform="translate(37.173 2.252)">
          <path id="Trazado_224751" data-name="Trazado 224751" d="M1080.482,101.681l.381-.209.948.241a.774.774,0,0,1,.2.337c-.079-.227-.007.077-.007.042a.458.458,0,0,1-.089.275.773.773,0,0,1-.809.38c-.007,0-.152-.084-.14-.091a1.105,1.105,0,0,1,.137.141c-.149-.176.069.151.1.2.006.011.081.172.029.054s.027.074.038.1l.184.53q.728,2.1,1.482,4.19,1.509,4.181,3.119,8.323,3.263,8.391,6.934,16.617,3.621,8.118,7.637,16.051,4.03,7.962,8.449,15.721,4.4,7.723,9.174,15.225.588.922,1.18,1.84a1.2,1.2,0,0,0,1.6.419,1.182,1.182,0,0,0,.42-1.6q-5.133-7.96-9.847-16.179-4.674-8.154-8.922-16.542-4.278-8.45-8.113-17.115c-2.526-5.706-4.888-11.453-7.118-17.3q-1.674-4.391-3.233-8.825c-.254-.721-.478-1.459-.763-2.169a2.923,2.923,0,0,0-1.44-1.739,1.636,1.636,0,0,0-2.142.633,1.913,1.913,0,0,0,.077,1.86,1.4,1.4,0,0,0,2.2.241,1.171,1.171,0,0,0-1.656-1.656Z" transform="translate(-1079.658 -100.442)" fill="#fff"/>
        </g>
        <g id="Grupo_176567" data-name="Grupo 176567" transform="translate(44.901 6.047)">
          <path id="Trazado_224752" data-name="Trazado 224752" d="M1089.877,107.15q2.978,6.9,6.182,13.693t6.632,13.482q3.427,6.685,7.074,13.255t7.508,13.013q3.845,6.417,7.9,12.7.515.8,1.034,1.6a1.171,1.171,0,0,0,2.022-1.181q-4.1-6.3-7.987-12.726T1112.683,148q-3.674-6.553-7.128-13.226t-6.687-13.454q-3.218-6.754-6.212-13.611-.381-.872-.757-1.745a1.174,1.174,0,0,0-1.6-.42,1.208,1.208,0,0,0-.42,1.6Z" transform="translate(-1089.74 -105.392)" fill="#fff"/>
        </g>
        <g id="Grupo_176568" data-name="Grupo 176568" transform="translate(-12.376 -10.624)">
          <path id="Trazado_224753" data-name="Trazado 224753" d="M1062.055,84.211a104.234,104.234,0,0,1-7.876,12.64q-1.089,1.512-2.218,2.994-.29.382-.583.761c-.023.03-.136.176-.013.016l-.13.169-.327.421q-.558.714-1.124,1.423c-1.566,1.964-3.173,3.9-4.8,5.807-3.252,3.811-6.6,7.54-9.925,11.286s-6.634,7.511-9.8,11.391a149.5,149.5,0,0,0-9.083,12.2q-.5.759-.99,1.525a1.181,1.181,0,0,0,.42,1.6,1.2,1.2,0,0,0,1.6-.42q2.011-3.155,4.221-6.178,1.1-1.513,2.242-3l.163-.212.071-.093c-.082.107.054-.071.073-.094.054-.071.109-.141.164-.211q.3-.381.593-.759.563-.715,1.134-1.424c3.148-3.919,6.45-7.711,9.781-11.474s6.676-7.477,9.948-11.273c3.3-3.824,6.506-7.724,9.512-11.781a109.5,109.5,0,0,0,8.119-12.542q.436-.8.856-1.6a1.171,1.171,0,0,0-2.022-1.182Z" transform="translate(-1015.019 -83.644)" fill="#fff"/>
        </g>
        <g id="Grupo_176569" data-name="Grupo 176569" transform="translate(-10.161 -5.242)">
          <path id="Trazado_224754" data-name="Trazado 224754" d="M1069.605,91.237q-.566.774-1.144,1.54-.264.35-.531.7c-.055.073-.111.145-.167.217-.02.027-.135.176-.018.024l-.3.389q-1.162,1.49-2.366,2.946-2.407,2.915-4.949,5.714c-3.364,3.72-6.868,7.311-10.411,10.86-3.574,3.581-7.189,7.122-10.751,10.716-3.537,3.57-7.023,7.2-10.351,10.962a138.736,138.736,0,0,0-9.484,11.9q-.537.761-1.06,1.532a1.177,1.177,0,0,0,.419,1.6,1.2,1.2,0,0,0,1.6-.419q1.063-1.564,2.177-3.089.565-.773,1.142-1.537.263-.348.53-.7c.025-.032.283-.367.15-.2.112-.144.223-.288.336-.432q2.32-2.973,4.8-5.818c3.28-3.782,6.728-7.415,10.238-10.983,3.547-3.607,7.16-7.149,10.742-10.722,3.564-3.556,7.1-7.143,10.507-10.852,3.44-3.745,6.739-7.619,9.8-11.679q.562-.744,1.111-1.5a1.175,1.175,0,0,0-.42-1.6,1.2,1.2,0,0,0-1.6.42Z" transform="translate(-1017.908 -90.665)" fill="#fff"/>
        </g>
        <g id="Grupo_176570" data-name="Grupo 176570" transform="translate(-11.647 8.683)">
          <path id="Trazado_224755" data-name="Trazado 224755" d="M1094.754,109q-7.951,6.025-15.811,12.168-7.8,6.1-15.509,12.313-7.678,6.191-15.261,12.5-7.613,6.331-15.129,12.777t-14.934,13l-1.8,1.6a1.171,1.171,0,0,0,1.656,1.656q7.378-6.547,14.852-12.983t15.047-12.757q7.571-6.322,15.237-12.527t15.426-12.3q7.7-6.043,15.492-11.97l1.919-1.456a1.21,1.21,0,0,0,.42-1.6,1.18,1.18,0,0,0-1.6-.42Z" transform="translate(-1015.969 -108.831)" fill="#fff"/>
        </g>
        <g id="Grupo_176571" data-name="Grupo 176571" transform="translate(-10.925 29.883)">
          <path id="Trazado_224756" data-name="Trazado 224756" d="M1109.952,136.821c-5.929,4.938-12.019,9.679-18.184,14.319-6.211,4.674-12.494,9.251-18.768,13.84s-12.526,9.18-18.694,13.9c-6.184,4.73-12.281,9.576-18.189,14.649-5.846,5.018-11.5,10.257-16.865,15.792q-1.014,1.047-2.014,2.109c-1.033,1.1.619,2.756,1.656,1.656,5.3-5.629,10.922-10.957,16.742-16.05,5.789-5.064,11.773-9.9,17.861-14.6,6.144-4.745,12.391-9.354,18.654-13.94s12.56-9.162,18.786-13.816,12.4-9.4,18.422-14.337q1.128-.926,2.25-1.859a1.18,1.18,0,0,0,0-1.656,1.2,1.2,0,0,0-1.656,0Z" transform="translate(-1016.911 -136.488)" fill="#fff"/>
        </g>
        <g id="Grupo_176572" data-name="Grupo 176572" transform="translate(7.477 42.407)">
          <path id="Trazado_224757" data-name="Trazado 224757" d="M1121.36,152.986q-8.193,5.172-16.246,10.56t-15.959,10.988q-7.875,5.579-15.6,11.364-7.784,5.83-15.414,11.862-7.6,6.009-15.039,12.219-.922.77-1.842,1.544a1.179,1.179,0,0,0,0,1.655,1.194,1.194,0,0,0,1.655,0q7.39-6.208,14.94-12.221,7.492-5.965,15.141-11.729,7.678-5.785,15.507-11.366,7.889-5.625,15.926-11.038,7.973-5.371,16.087-10.529,1.014-.645,2.03-1.287a1.171,1.171,0,1,0-1.182-2.021Z" transform="translate(-1040.918 -152.826)" fill="#fff"/>
        </g>
        <g id="Grupo_176573" data-name="Grupo 176573" transform="translate(2.583 76.667)">
          <path id="Trazado_224758" data-name="Trazado 224758" d="M1119.845,197.679q-8.844,5.407-17.486,11.134t-17.065,11.769q-8.483,6.081-16.737,12.474-8.2,6.342-16.161,12.983-7.931,6.614-15.616,13.515-.957.859-1.909,1.722a1.171,1.171,0,0,0,1.656,1.656q7.652-6.933,15.554-13.586t16.041-13.008q8.081-6.312,16.394-12.322,8.366-6.053,16.95-11.8t17.37-11.17q1.094-.675,2.192-1.346a1.171,1.171,0,0,0-1.182-2.022Z" transform="translate(-1034.533 -197.521)" fill="#fff"/>
        </g>
        <g id="Grupo_176574" data-name="Grupo 176574" transform="translate(-13.405 -7.044)">
          <path id="Trazado_224759" data-name="Trazado 224759" d="M1047.041,88.645q-6.408,5.417-12.845,10.8t-12.905,10.725q-3.631,3-7.273,5.99a1.175,1.175,0,0,0,0,1.656,1.2,1.2,0,0,0,1.656,0q6.484-5.324,12.939-10.683t12.879-10.756q3.607-3.031,7.205-6.072a1.176,1.176,0,0,0,0-1.656,1.2,1.2,0,0,0-1.656,0Z" transform="translate(-1013.677 -88.315)" fill="#fff"/>
        </g>
        <g id="Grupo_176575" data-name="Grupo 176575" transform="translate(21.173 102.297)">
          <path id="Trazado_224760" data-name="Trazado 224760" d="M1124.194,231.12l-12.657,7.944-12.657,7.944-12.657,7.944-12.657,7.944-12.6,7.909-1.6,1a1.171,1.171,0,0,0,1.182,2.021l12.657-7.944,12.657-7.944L1098.521,250l12.657-7.944,12.6-7.909,1.6-1a1.171,1.171,0,0,0-1.181-2.021Z" transform="translate(-1058.786 -230.958)" fill="#fff"/>
        </g>
      </g>
    </g>
    <g id="Grupo_176592" data-name="Grupo 176592" transform="translate(882.893 178.795)">
      <path id="Trazado_224762" data-name="Trazado 224762" d="M899.694,286.8a25.455,25.455,0,0,1-16.226-17.159c-1.2-4.424-.7-10.036,3.255-12.358,4.924-2.891,10.878,1.263,15.049,5.163a22.609,22.609,0,0,1,1.851-26.669,4.421,4.421,0,0,1,3.154-1.847,4.876,4.876,0,0,1,2.7,1.285l6.911,5.3c-1-7.5-1.091-16.028,4.076-21.558a14.113,14.113,0,0,1,22.811,16.188,10.768,10.768,0,0,1,16.964,13.166c.3-9.666,10.02-17.948,19.612-16.707,2.451.317,5,1.29,6.35,3.358s.894,5.374-1.368,6.371a11.649,11.649,0,0,1,1.023,20.712c3.053-.313,6.327.03,8.815,1.826s3.87,5.339,2.5,8.083c-.683,1.366-1.991,2.546-1.943,4.073.037,1.19.9,2.168,1.41,3.245,1.873,3.964-1.2,8.388-4.083,11.69a26.014,26.014,0,0,1-4.556,4.427,21.284,21.284,0,0,1-8.778,3.1c-5.758.954-12.178.863-16.789-2.716s-5.829-11.654-1.073-15.038c.832,1.824-1.654,3.353-3.633,3.683a31.143,31.143,0,0,1-24.338-6.388c1.971,1.147,1.52,4.39-.276,5.795s-4.258,1.5-6.539,1.527c-3.242.044-6.6.065-9.572-1.236s-5.453-4.315-5.061-7.534Z" transform="translate(-882.893 -213.289)" fill="#8e8b5e"/>
      <path id="Trazado_224763" data-name="Trazado 224763" d="M970.173,332.038a1.285,1.285,0,0,0-1.409-1.079,1.266,1.266,0,0,0-1.079,1.409,17.358,17.358,0,0,1-3.4,14.141,15.908,15.908,0,0,1-2.668,2.661,110.062,110.062,0,0,0-4.675-16.914,79.235,79.235,0,0,0-3.988-9.126,1.287,1.287,0,0,0-1.646-.666,1.266,1.266,0,0,0-.666,1.645,88.274,88.274,0,0,1,6.448,16.743,111.39,111.39,0,0,1,3.5,18.227,92.86,92.86,0,0,1,.553,9.878,1.262,1.262,0,0,0,1.409,1.079,1.288,1.288,0,0,0,1.079-1.409,99.555,99.555,0,0,0-1.55-16.93,1.22,1.22,0,0,0,.718-.259,19.813,19.813,0,0,0,7.71-14.532A18.887,18.887,0,0,0,970.173,332.038Z" transform="translate(-898.684 -238.442)" fill="#b97216"/>
      <path id="Trazado_224764" data-name="Trazado 224764" d="M952.242,369.9a114.472,114.472,0,0,0-15.857-28.381,25.369,25.369,0,0,0,5.271-16.24,24.827,24.827,0,0,0-.691-5.055c-.323-1.329-2.375-.766-2.05.566a23.1,23.1,0,0,1-1.859,15.748,22.585,22.585,0,0,1-2.011,3.255c-.677-.855-1.361-1.7-2.061-2.541q-3.436-4.1-7.247-7.868c-.974-.963-2.479.54-1.5,1.5a112.385,112.385,0,0,1,12.079,14.074,114.54,114.54,0,0,1,9.668,15.97q2.327,4.666,4.211,9.533a1.1,1.1,0,0,0,1.308.743A1.071,1.071,0,0,0,952.242,369.9Z" transform="translate(-892.471 -237.764)" fill="#b97216"/>
      <path id="Trazado_224765" data-name="Trazado 224765" d="M991.866,345.092a1.073,1.073,0,0,0-1.494.174q-2.5,3.691-4.657,7.6a10.125,10.125,0,0,1-4.663-10.02,1.064,1.064,0,0,0-2.1-.324,12.277,12.277,0,0,0,5.759,12.223q-1.279,2.451-2.416,4.973a95.459,95.459,0,0,0-5.434,15.649q-1.137,4.486-1.823,9.07a1.064,1.064,0,0,0,2.1.325,91.91,91.91,0,0,1,3.758-15.644,94.046,94.046,0,0,1,5.987-13.952,1.2,1.2,0,0,0,.362-.685c.029-.054.057-.109.086-.162q2.158-3.985,4.707-7.736A1.091,1.091,0,0,0,991.866,345.092Z" transform="translate(-904.402 -242.947)" fill="#b97216"/>
      <path id="Trazado_224766" data-name="Trazado 224766" d="M932.459,296.5c-.973,7.032-7.471,12.345-14.4,13.891s-14.169.025-20.944-2.1c-4.67-1.463-9.764-3.7-11.472-8.29s3.379-10.844,7.526-8.246c-3.346-5.516-4.487-12.92-.952-18.316s12.62-6.782,16.382-1.542c-2.219-6.824-4.467-13.919-3.593-21.042s5.819-14.285,12.925-15.277a18.632,18.632,0,0,1,8.4,1.105A37.848,37.848,0,0,1,947.52,254.61c-1.439-7.166,7.726-13.086,14.609-10.625s10.59,10.239,10.918,17.541c2.172-6.03,10.973-8.456,15.771-4.207s3.2,13.538-2.819,15.729c5.407-4.539,14.971-2.241,17.727,4.259s-2.243,14.971-9.265,15.7c8.9,1.915,12.383,14.919,6.314,21.7s-18.281,5.686-23.937-1.444c-2.416,6.95-11.248,10.361-18.214,7.991s-11.707-9.36-12.786-16.639a8.34,8.34,0,0,1-14.827-6.981Z" transform="translate(-883.456 -218.151)" fill="#c1bf8e"/>
      <path id="Trazado_224767" data-name="Trazado 224767" d="M987.188,226.405c-.908-.1-.886-1.443-.545-2.292a22.777,22.777,0,0,1,9.075-10.785,15.012,15.012,0,0,1-8.574,12.919,21.681,21.681,0,0,1-5.826-9.868c-.326-1.2-.374-2.81.749-3.351,1.216-.585,2.5.688,3.114,1.889,1.707,3.337,2.068,7.177,2.4,10.911Z" transform="translate(-905.825 -212.882)" fill="#8e8b5e"/>
      <path id="Trazado_224768" data-name="Trazado 224768" d="M1035.386,271.246a14.639,14.639,0,0,1,13.092-6.708,11.227,11.227,0,0,1-13.092,6.708Z" transform="translate(-918.495 -224.931)" fill="#8e8b5e"/>
      <path id="Trazado_224769" data-name="Trazado 224769" d="M1033.747,264.007a17.608,17.608,0,0,1,5.043-14.164c1.936,2.014,1.84,5.353.534,7.823a20.752,20.752,0,0,1-5.577,6.342Z" transform="translate(-918.087 -221.511)" fill="#8e8b5e"/>
      <path id="Trazado_224770" data-name="Trazado 224770" d="M930.786,323.457c-4.881-.694-9.95-1.459-14.031-4.224s-6.831-8.163-4.97-12.728a8.141,8.141,0,0,1,14.99-.209,24.269,24.269,0,0,1,6.312-21.6,8.966,8.966,0,0,1,3.474-2.405c3.042-1,6.425.911,8.164,3.6s2.218,5.971,2.655,9.142c-2.544-7.579,1.792-16.055,8.085-20.987a12.4,12.4,0,0,1,6.693-3.009c2.48-.146,5.183,1.21,5.91,3.586a8.288,8.288,0,0,1-.312,4.569,63.119,63.119,0,0,1-6.777,15.8c3.311-4.693,11.484-4.756,14.643.042s-.483,12.487-6.218,12.826a21.709,21.709,0,0,1,9.7-11.088,12.164,12.164,0,0,1,8.216-1.656,8.354,8.354,0,0,1,.4,16.247,8.667,8.667,0,0,1-5.318,15.572A7.83,7.83,0,0,1,968.3,331.9a12.1,12.1,0,0,1-15.811-5.344,27.039,27.039,0,0,1-23.763-3.653Z" transform="translate(-889.5 -226.455)" fill="#e0dcb1"/>
      <g id="Grupo_176578" data-name="Grupo 176578" transform="translate(86.327 61.971)">
        <path id="Trazado_224771" data-name="Trazado 224771" d="M996.286,300.834a12.924,12.924,0,0,1,2.228-4.7,4.479,4.479,0,0,1,4.14-1.584,5.434,5.434,0,0,1,3.7,2.387,5.529,5.529,0,0,1,.435,4.643,6.674,6.674,0,0,1-1.191,2.179,6.888,6.888,0,0,1-.867.877,3.132,3.132,0,0,1-1.182.714c-.77.182-1.243-.69-1.194-1.354a2.22,2.22,0,0,1,1.34-1.692c1.833-.912,3.927.209,5.574,1.025,1.481.734,3.193,1.676,3.71,3.368a4.757,4.757,0,0,1-1.5,4.6,10.67,10.67,0,0,1-5.284,2.379c-.486.108-.974.205-1.463.3s-.284.85.208.753c2.214-.437,4.552-.91,6.4-2.293a5.99,5.99,0,0,0,2.556-5.081c-.189-2.079-1.82-3.423-3.542-4.35a21.817,21.817,0,0,0-3.115-1.431,5.357,5.357,0,0,0-3.22-.229,3.494,3.494,0,0,0-2.136,1.6,2.323,2.323,0,0,0,.183,2.56c1.427,1.794,3.717-.584,4.558-1.83a7.061,7.061,0,0,0,1.1-5.441,5.858,5.858,0,0,0-3.331-3.968,5.455,5.455,0,0,0-5.044.136,8.739,8.739,0,0,0-3.338,4.787c-.17.471-.325.947-.477,1.425s.6.685.753.208Z" transform="translate(-995.513 -293.727)" fill="#8e8b5e"/>
      </g>
      <g id="Grupo_176579" data-name="Grupo 176579" transform="translate(40.22 66.831)">
        <path id="Trazado_224772" data-name="Trazado 224772" d="M936.157,303.84c-.224-2.418,3.052-3.639,4.927-2.639,2.548,1.358,2.709,5.1,1.659,7.451-.669,1.5-2.023,3.012-3.809,2.831l.276.666a5.442,5.442,0,0,1,6.76-1.216,5.224,5.224,0,0,1,1.945,6.474,4.143,4.143,0,0,1-2.533,2.49c-1.053.314-2.537.1-2.653-1.243-.126-1.484,1.305-2.612,2.576-3.009a6.83,6.83,0,0,1,4.178.146c1.4.473,2.988,1.489,3.275,3.062.228,1.249-.674,2.852-2.068,2.756-.5-.034-.5.747,0,.78a2.931,2.931,0,0,0,2.851-2.725,4.185,4.185,0,0,0-2.274-3.9,8.007,8.007,0,0,0-4.862-1.128,5.026,5.026,0,0,0-4.089,2.431,2.784,2.784,0,0,0-.142,2.458,2.279,2.279,0,0,0,1.578,1.215,4.147,4.147,0,0,0,3.917-1.462,5.916,5.916,0,0,0-8.246-8.456,5.1,5.1,0,0,0-.766.772.4.4,0,0,0,.276.666c1.808.184,3.318-1.137,4.171-2.61a7.918,7.918,0,0,0,.958-4.905,5.652,5.652,0,0,0-2.3-4.051,4.321,4.321,0,0,0-3.956-.285,3.5,3.5,0,0,0-2.428,3.428c.046.5.827.5.781,0Z" transform="translate(-935.363 -300.068)" fill="#8e8b5e"/>
      </g>
      <g id="Grupo_176580" data-name="Grupo 176580" transform="translate(63.173 57.601)">
        <path id="Trazado_224773" data-name="Trazado 224773" d="M965.961,289.437c1.009-1.151,2.823-.563,3.721.428a4.41,4.41,0,0,1,.949,2.527,15.736,15.736,0,0,1-.11,3.12c-.052.5.729.5.781,0a9.516,9.516,0,0,0-.507-5.382,3.93,3.93,0,0,0-3.372-2.1,2.612,2.612,0,0,0-2.014.859c-.33.376.219.931.552.552Z" transform="translate(-965.307 -288.026)" fill="#8e8b5e"/>
      </g>
      <g id="Grupo_176581" data-name="Grupo 176581" transform="translate(75.614 38.105)">
        <path id="Trazado_224774" data-name="Trazado 224774" d="M982.267,265.376a4.324,4.324,0,0,1,4.569-1.919,3.958,3.958,0,0,1,3.019,3.843,4.055,4.055,0,0,1-.915,2.783c-.325.379.225.934.552.552a5.121,5.121,0,0,0,.4-5.893,4.751,4.751,0,0,0-5.551-1.9,4.86,4.86,0,0,0-2.746,2.143.39.39,0,0,0,.674.394Z" transform="translate(-981.537 -262.593)" fill="#8e8b5e"/>
      </g>
      <g id="Grupo_176582" data-name="Grupo 176582" transform="translate(110.272 83.701)">
        <path id="Trazado_224775" data-name="Trazado 224775" d="M1027.038,322.849a6.271,6.271,0,0,1,2.983,2.49v-.394a9.582,9.582,0,0,1-3.069,2.6c-.441.239-.048.914.394.675a10.494,10.494,0,0,0,3.349-2.885.381.381,0,0,0,0-.394,7.152,7.152,0,0,0-3.449-2.849.393.393,0,0,0-.48.272.4.4,0,0,0,.272.481Z" transform="translate(-1026.751 -322.076)" fill="#8e8b5e"/>
      </g>
      <g id="Grupo_176583" data-name="Grupo 176583" transform="translate(111.925 57.481)">
        <path id="Trazado_224776" data-name="Trazado 224776" d="M1029.284,288.65a3.239,3.239,0,0,1,1.883,5.815c-.394.3-.005.979.394.674a4.016,4.016,0,0,0-2.277-7.269c-.5-.018-.5.763,0,.78Z" transform="translate(-1028.907 -287.87)" fill="#8e8b5e"/>
      </g>
      <g id="Grupo_176584" data-name="Grupo 176584" transform="translate(11.599 67.482)">
        <path id="Trazado_224777" data-name="Trazado 224777" d="M902.072,300.918a4.549,4.549,0,0,0-3.8,2.957,4.261,4.261,0,0,0,1.219,4.58,4.4,4.4,0,0,0,2.591,1.146c.5.044.5-.737,0-.78a3.573,3.573,0,0,1-.005-7.122c.5-.044.5-.825,0-.78Z" transform="translate(-898.026 -300.917)" fill="#8e8b5e"/>
      </g>
      <g id="Grupo_176585" data-name="Grupo 176585" transform="translate(19.933 69.836)">
        <path id="Trazado_224778" data-name="Trazado 224778" d="M911.6,303.993c-2.238.356-3.238,3.193-2.413,5.116a2.947,2.947,0,0,0,1.172,1.358c.429.264.822-.411.394-.674-1.927-1.185-1.134-4.7,1.055-5.048.494-.079.284-.831-.208-.753Z" transform="translate(-908.897 -303.988)" fill="#8e8b5e"/>
      </g>
      <path id="Trazado_224779" data-name="Trazado 224779" d="M930.66,260.059a8.257,8.257,0,0,1-3.9-8.042c.1-.712.427-1.542,1.136-1.654a1.775,1.775,0,0,1,1.3.511,11.947,11.947,0,0,1,4.388,7.664,9.227,9.227,0,0,1,2.32-7.058c1.1-1.2,3.25-2,4.189-.673a2.734,2.734,0,0,1,.392,1.535,8.959,8.959,0,0,1-3.38,7.142c1.947-1.7,5.1-1.082,7.118.533,1.231.984,2.232,2.79,1.309,4.067a2.723,2.723,0,0,1-1.611.958c-2.054.49-4.159-.389-6.089-1.248,1.259,2.991,2.494,6.528.856,9.329a1.474,1.474,0,0,1-.73.709,1.528,1.528,0,0,1-1.19-.241,7.036,7.036,0,0,1-3.436-7.1,12.07,12.07,0,0,1-2.51,5.934c-.564.71-1.387,1.413-2.271,1.211a1.848,1.848,0,0,1-1.272-1.692,5.434,5.434,0,0,1,.434-2.2l1.833-5.276a4.744,4.744,0,0,1-7.219.12,3.167,3.167,0,0,1-.646-2.9,3.608,3.608,0,0,1,2.34-2.02,7.182,7.182,0,0,1,5.821.516Z" transform="translate(-891.92 -221.574)" fill="#fff"/>
      <path id="Trazado_224780" data-name="Trazado 224780" d="M979.007,319.386a8.811,8.811,0,0,1-3.9-8.436c.1-.747.427-1.617,1.137-1.735a1.729,1.729,0,0,1,1.3.535,12.681,12.681,0,0,1,4.388,8.039,9.988,9.988,0,0,1,2.32-7.4c1.1-1.264,3.25-2.1,4.189-.705a2.979,2.979,0,0,1,.392,1.61,9.581,9.581,0,0,1-3.379,7.492c1.947-1.784,5.1-1.135,7.118.559,1.231,1.033,2.231,2.927,1.308,4.267a2.694,2.694,0,0,1-1.61,1c-2.054.514-4.16-.407-6.089-1.308,1.259,3.138,2.494,6.848.856,9.787a1.511,1.511,0,0,1-.73.744,1.471,1.471,0,0,1-1.19-.253,7.5,7.5,0,0,1-3.436-7.446,13,13,0,0,1-2.51,6.226c-.565.744-1.387,1.482-2.271,1.271a1.928,1.928,0,0,1-1.271-1.775,5.927,5.927,0,0,1,.434-2.312q.916-2.768,1.832-5.535a4.6,4.6,0,0,1-7.218.126,3.447,3.447,0,0,1-.647-3.042,3.668,3.668,0,0,1,2.341-2.119,6.88,6.88,0,0,1,5.82.54Z" transform="translate(-903.207 -235.312)" fill="#fff"/>
      <path id="Trazado_224781" data-name="Trazado 224781" d="M998.423,270.248a7.013,7.013,0,0,1-3.1-6.717c.078-.594.34-1.287.9-1.381a1.377,1.377,0,0,1,1.036.426,10.094,10.094,0,0,1,3.493,6.4,7.947,7.947,0,0,1,1.847-5.894c.872-1.006,2.587-1.673,3.335-.562a2.377,2.377,0,0,1,.312,1.282,7.628,7.628,0,0,1-2.691,5.964c1.55-1.42,4.06-.9,5.667.445.98.822,1.777,2.33,1.042,3.4a2.147,2.147,0,0,1-1.282.8c-1.635.409-3.311-.324-4.847-1.042,1,2.5,1.985,5.452.681,7.792a1.2,1.2,0,0,1-.581.592,1.168,1.168,0,0,1-.947-.2,5.973,5.973,0,0,1-2.735-5.928,10.35,10.35,0,0,1-2,4.957c-.449.592-1.1,1.18-1.807,1.011a1.534,1.534,0,0,1-1.012-1.413,4.722,4.722,0,0,1,.346-1.84q.729-2.2,1.459-4.407a3.664,3.664,0,0,1-5.747.1,2.744,2.744,0,0,1-.514-2.422,2.92,2.92,0,0,1,1.863-1.687,5.479,5.479,0,0,1,4.634.431Z" transform="translate(-908.174 -224.336)" fill="#fff"/>
      <g id="Grupo_176586" data-name="Grupo 176586" transform="translate(91.297 44.559)">
        <path id="Trazado_224782" data-name="Trazado 224782" d="M1002.189,271.74l3.273,2.149a.39.39,0,1,0,.394-.674l-3.274-2.149a.39.39,0,1,0-.393.674Z" transform="translate(-1001.997 -271.012)" fill="#8e8b5e"/>
      </g>
      <g id="Grupo_176587" data-name="Grupo 176587" transform="translate(92.349 44.037)">
        <path id="Trazado_224783" data-name="Trazado 224783" d="M1005.647,270.445l-2.168,2.719a.4.4,0,0,0,0,.552.393.393,0,0,0,.552,0L1006.2,271a.4.4,0,0,0,0-.553.393.393,0,0,0-.552,0Z" transform="translate(-1003.369 -270.331)" fill="#8e8b5e"/>
      </g>
      <g id="Grupo_176588" data-name="Grupo 176588" transform="translate(39.23 37.435)">
        <path id="Trazado_224784" data-name="Trazado 224784" d="M934.185,262.38a15.185,15.185,0,0,1,3.641,4.377c.243.44.917.047.674-.394a15.751,15.751,0,0,0-3.763-4.535.4.4,0,0,0-.552,0,.394.394,0,0,0,0,.552Z" transform="translate(-934.071 -261.718)" fill="#8e8b5e"/>
      </g>
      <g id="Grupo_176589" data-name="Grupo 176589" transform="translate(38.598 37.456)">
        <path id="Trazado_224785" data-name="Trazado 224785" d="M937.63,261.864l-4.271,4.415c-.35.361.2.914.552.552l4.271-4.415c.35-.361-.2-.914-.552-.552Z" transform="translate(-933.247 -261.746)" fill="#8e8b5e"/>
      </g>
      <g id="Grupo_176590" data-name="Grupo 176590" transform="translate(75.594 84.164)">
        <path id="Trazado_224786" data-name="Trazado 224786" d="M981.629,323.343a22.632,22.632,0,0,0,5.895,4.114c.451.217.847-.456.394-.674a21.98,21.98,0,0,1-5.737-3.992c-.362-.349-.914.2-.552.552Z" transform="translate(-981.511 -322.68)" fill="#8e8b5e"/>
      </g>
      <g id="Grupo_176591" data-name="Grupo 176591" transform="translate(75.003 84.676)">
        <path id="Trazado_224787" data-name="Trazado 224787" d="M985.2,323.409a13.229,13.229,0,0,0-4.4,4.591.391.391,0,0,0,.674.394,12.4,12.4,0,0,1,4.124-4.311c.423-.268.032-.943-.394-.674Z" transform="translate(-980.74 -323.347)" fill="#8e8b5e"/>
      </g>
    </g>
    <path id="Trazado_224788" data-name="Trazado 224788" d="M1047.663,95.738q2.167,6.249,4.333,12.5l-5.585,4.332,6.089-.519a38.345,38.345,0,0,0,4.082,9.9c1.326,1.864,10.144-2.372,10.459-1.942l4.751,6.468a67.829,67.829,0,0,0,9.72-6.177l-7.944-14.658a4.069,4.069,0,1,0-2.421-6.883l-3.863-10.706Z" transform="translate(-38.176 -4.943)" fill="#f6a472"/>
    <path id="Trazado_224789" data-name="Trazado 224789" d="M1032.5,96.217a31.734,31.734,0,0,1-2.916,13.576,1.492,1.492,0,0,0-.208.921,1.455,1.455,0,0,0,.483.688l2.934,2.8a1.238,1.238,0,0,0,.946.471c.354-.051.583-.391.762-.7a33.63,33.63,0,0,0,4.463-17.079l-6.721-.7Z" transform="translate(-34.194 -6.844)" fill="#8c7c58"/>
    <path id="Trazado_224790" data-name="Trazado 224790" d="M1091.283,208.031c-.862,9.508-3.1,22.824-4.319,32.293a8.01,8.01,0,0,1-.831,3.083c-.81,1.374-2.349,2.14-3.4,3.344-2.484,2.855-.632,3.814-3.381,6.414-.632.6-1.426,1.054-1.688,1.965a1.176,1.176,0,0,0,.392,1.265c1.371,1.031,2.714-2.365,4.439-2.025a13.649,13.649,0,0,0-.64,7.047,1.107,1.107,0,0,0,2.04.366,8.828,8.828,0,0,0,1.147-3.212c.153,1.238-1.275,2.234-1,3.52a1.039,1.039,0,0,0,.615.762,1.075,1.075,0,0,0,1.135-.356,13.835,13.835,0,0,0,2.106-2.3c-.74.318-.629,1.561.086,1.935a1.846,1.846,0,0,0,2.154-.6,5.4,5.4,0,0,0,.931-2.208l.371,1.421c1.131.377,2.1-.872,2.574-1.967,1.581-3.683,1-3.952.563-7.937a30.037,30.037,0,0,1-.416-4.573,17.115,17.115,0,0,1,.96-4.4,190.2,190.2,0,0,1,8.6-22.167,18.9,18.9,0,0,0,1.958-5.054,5.839,5.839,0,0,0-1.285-5.078c-1.589-1.613-4.117-1.7-6.381-1.693Z" transform="translate(-45.462 -32.919)" fill="#f6a472"/>
    <path id="Trazado_224791" data-name="Trazado 224791" d="M1093.6,202.75l.031,5.848a17.552,17.552,0,0,1,15.722,5.473,20.351,20.351,0,0,0,2.074-5.665,2.563,2.563,0,0,0,.038-1.211,2.369,2.369,0,0,0-.471-.81,8.2,8.2,0,0,0-3.811-2.612,16.818,16.818,0,0,0-3.895-.623l-7.386-.595a3.954,3.954,0,0,0-2.367.3Z" transform="translate(-49.178 -31.666)" fill="#8c7c58"/>
    <g id="Grupo_176593" data-name="Grupo 176593" transform="translate(1041.794 124.457)">
      <path id="Trazado_224792" data-name="Trazado 224792" d="M1093.878,189.155a6.466,6.466,0,0,1-1.367-4.167c-.051-1.619.169-3.228.241-4.843a63.9,63.9,0,0,0-.933-11.659,55.1,55.1,0,0,1-.8-10.81,23.235,23.235,0,0,1,1.947-8.3,13.516,13.516,0,0,1,6.16-6.667c.451-.222.055-.9-.394-.674-5.376,2.654-7.79,8.7-8.387,14.356-.8,7.588,1.73,15.052,1.654,22.63-.02,1.925-.31,3.84-.276,5.764a7.431,7.431,0,0,0,1.6,4.918c.332.379.881-.176.552-.552Z" transform="translate(-1090.191 -141.994)" fill="#8c7c58"/>
    </g>
    <g id="Grupo_176594" data-name="Grupo 176594" transform="translate(1043.242 116.183)">
      <path id="Trazado_224793" data-name="Trazado 224793" d="M1092.254,131.943a25.87,25.87,0,0,1,5.573,5.232.393.393,0,0,0,.552,0,.4.4,0,0,0,0-.552,26.53,26.53,0,0,0-5.731-5.353c-.414-.286-.8.39-.394.674Z" transform="translate(-1092.08 -131.2)" fill="#8c7c58"/>
    </g>
    <g id="Grupo_176595" data-name="Grupo 176595" transform="translate(1044.403 160.759)">
      <path id="Trazado_224794" data-name="Trazado 224794" d="M1093.984,190.135a13.453,13.453,0,0,1,3.176.824.393.393,0,0,0,.48-.273.4.4,0,0,0-.272-.48,14.236,14.236,0,0,0-3.384-.852.392.392,0,0,0-.39.39.4.4,0,0,0,.39.39Z" transform="translate(-1093.594 -189.352)" fill="#8c7c58"/>
    </g>
    <g id="Grupo_176596" data-name="Grupo 176596" transform="translate(1044.91 162.317)">
      <path id="Trazado_224795" data-name="Trazado 224795" d="M1094.447,192.106a8.252,8.252,0,0,0,2.99.832.393.393,0,0,0,.39-.39.4.4,0,0,0-.39-.39,7.279,7.279,0,0,1-2.6-.725.4.4,0,0,0-.534.14.393.393,0,0,0,.14.534Z" transform="translate(-1094.256 -191.385)" fill="#8c7c58"/>
    </g>
    <g id="Grupo_176597" data-name="Grupo 176597" transform="translate(1057.696 128.151)">
      <path id="Trazado_224796" data-name="Trazado 224796" d="M1110.994,147.4a28.63,28.63,0,0,1,5.935,17.478c-.013,3.5-.812,6.911-1.177,10.375a22.916,22.916,0,0,0-.025,5.281c.22,1.739.7,3.439.822,5.193a15.349,15.349,0,0,1-2.839,9.935c-.294.409.383.8.674.393a16.075,16.075,0,0,0,2.976-8.919,24.312,24.312,0,0,0-.6-5.108,21.568,21.568,0,0,1-.346-5.3c.216-3.609,1.12-7.141,1.276-10.757a29.269,29.269,0,0,0-6.016-18.963.4.4,0,0,0-.534-.14.393.393,0,0,0-.14.534Z" transform="translate(-1110.936 -146.814)" fill="#8c7c58"/>
    </g>
    <g id="Grupo_176598" data-name="Grupo 176598" transform="translate(1057.846 158.598)">
      <path id="Trazado_224797" data-name="Trazado 224797" d="M1115.38,188.066a4.52,4.52,0,0,0-3.858-1.505.4.4,0,0,0-.39.39.392.392,0,0,0,.39.39,3.8,3.8,0,0,1,3.306,1.277.393.393,0,0,0,.552,0,.4.4,0,0,0,0-.552Z" transform="translate(-1111.132 -186.533)" fill="#8c7c58"/>
    </g>
    <g id="Grupo_176599" data-name="Grupo 176599" transform="translate(1058.62 161.551)">
      <path id="Trazado_224798" data-name="Trazado 224798" d="M1115.423,190.678a4.222,4.222,0,0,0-2.995-.035.4.4,0,0,0-.273.48.394.394,0,0,0,.481.273,3.523,3.523,0,0,1,2.579.035.393.393,0,0,0,.48-.273.4.4,0,0,0-.272-.48Z" transform="translate(-1112.142 -190.386)" fill="#8c7c58"/>
    </g>
    <path id="Trazado_224799" data-name="Trazado 224799" d="M1086.522,125.49a16.259,16.259,0,0,1,2.848,3.37,124.253,124.253,0,0,0-11.456,6.988l-2.2-3.479a.612.612,0,0,1-.138-.532.768.768,0,0,1,.457-.334,46.445,46.445,0,0,0,10.7-6.077Z" transform="translate(-44.979 -13.669)" fill="#8c7c58"/>
    <g id="Grupo_176600" data-name="Grupo 176600" transform="translate(1024.556 123.398)">
      <path id="Trazado_224800" data-name="Trazado 224800" d="M1075.643,140.779a22.326,22.326,0,0,0-3.939,11.83c-.352,4.759.326,9.5.739,14.232a56.516,56.516,0,0,1,.246,7.588,48.381,48.381,0,0,1-.956,7.183c-.959,4.782-2.36,9.47-3.142,14.288a93.271,93.271,0,0,0-.888,15.085q0,.954.005,1.909a.391.391,0,0,0,.781,0,114.746,114.746,0,0,1,.608-15.1c.622-4.828,1.98-9.514,3.026-14.258a61.45,61.45,0,0,0,1.195-7.087,45.263,45.263,0,0,0,.073-7.435c-.311-4.835-1.106-9.65-1-14.506a23.98,23.98,0,0,1,3.035-12.031c.275-.45.573-.885.888-1.308.3-.4-.377-.793-.674-.394Z" transform="translate(-1067.703 -140.612)" fill="#8c7c58"/>
    </g>
    <g id="Grupo_176601" data-name="Grupo 176601" transform="translate(1031.206 143.487)">
      <path id="Trazado_224801" data-name="Trazado 224801" d="M1076.449,168.031a1.959,1.959,0,0,0,.462,1.7,1.13,1.13,0,0,0,.839.3,1,1,0,0,0,.757-.486,2.275,2.275,0,0,0,.18-1.594,1.359,1.359,0,0,0-1.013-1.117,1.052,1.052,0,0,0-1.295.884.391.391,0,0,0,.39.39.4.4,0,0,0,.39-.39c-.011.123.009,0,.012-.025,0-.044-.042.061-.012.03a.292.292,0,0,0,.029-.049c0,.008-.065.07-.018.025a.426.426,0,0,0,.032-.033c.042-.047-.013.017-.024.017a.435.435,0,0,0,.059-.039l.042-.022c.061-.035-.021.015-.026.01s.1-.029.106-.031.054,0,.062-.011c-.008.007-.1.005-.028.005.042,0,.084,0,.126,0,.059,0-.021.013-.028,0l.049.011.049.013.024.008c.031.012.031.012,0,0-.038,0-.021-.012.009.007l.043.026c.024.014.056.052,0,0,.019.018.039.035.057.054s.036.038.054.058c-.01-.011-.044-.065,0,0,.023.034.045.069.065.106.01.018.019.038.028.056.047.087-.014-.05,0,.008s.034.1.048.153.021.1.031.143c0,.018.011.077,0-.007,0,.022,0,.044.007.066a2.5,2.5,0,0,1,.009.3c0,.048,0,.1-.008.144,0,.02,0,.041-.005.061,0,.062.018-.1,0,0a2.031,2.031,0,0,1-.068.27c-.021.067,0,0,.006-.008-.009.018-.017.036-.027.054s-.025.042-.037.064-.048.058-.012.019-.117.09-.014.02c-.016.011-.033.021-.048.032-.066.047.063-.012-.017.01l-.058.015c0-.015.081,0,.015,0a.261.261,0,0,1-.06,0c.028.029.063.013,0,0a.5.5,0,0,1-.058-.016c-.013,0-.071-.031-.025-.008s-.035-.021-.037-.022c-.022-.013-.044-.028-.066-.042-.048-.03.059.062-.007-.008l-.057-.056c-.015-.016-.057-.073-.01-.006-.015-.021-.03-.044-.043-.066s-.025-.045-.037-.068c.025.048,0-.008-.011-.031a1.335,1.335,0,0,1-.049-.182c0-.018-.016-.1-.007-.028,0-.032-.007-.064-.008-.1,0-.064-.006-.128-.006-.192,0-.135.009-.27.018-.406a.393.393,0,0,0-.39-.39.4.4,0,0,0-.39.39Z" transform="translate(-1076.378 -166.819)" fill="#8c7c58"/>
    </g>
    <g id="Grupo_176602" data-name="Grupo 176602" transform="translate(1029.209 170.572)">
      <path id="Trazado_224802" data-name="Trazado 224802" d="M1074.191,203.343a.936.936,0,0,0-.417.814,1.242,1.242,0,0,0,.356.822,1.259,1.259,0,0,0,1.832-.232,1.7,1.7,0,0,0,.184-1.9,1.184,1.184,0,0,0-1.611-.543c-.558.334-.9,1.253-.307,1.726a.4.4,0,0,0,.552,0,.4.4,0,0,0,0-.552c-.02-.016-.038-.034-.057-.05-.051-.042.018.01.015.023a.392.392,0,0,0-.036-.059c-.041-.061.018.031.012.03a.26.26,0,0,1-.018-.067c.015-.015,0,.1.005.035,0-.022,0-.048,0-.07,0-.08-.021.087,0,.008.01-.04.021-.079.033-.118.025-.083-.044.076,0,0,.008-.015.015-.031.024-.045s.027-.043.041-.065c.028-.048-.015.007-.015.017,0-.028.087-.092.107-.112.057-.058-.055.028-.009.006.018-.01.035-.025.053-.035a.5.5,0,0,0,.055-.03c.038-.031-.089.026-.012.005.02-.005.041-.011.06-.018.071-.023,0,.024-.018,0a.3.3,0,0,0,.063,0c.1-.008-.065-.022.015,0,.028.008.166.057.07.013a1.275,1.275,0,0,1,.123.067c.058.033,0,0-.011-.012.021.018.043.036.063.055s.027.027.04.041.025.028.037.042c-.031-.041-.034-.045-.008-.011s.052.08.075.123l.026.052c.045.087-.022-.077.006.016.015.048.031.094.043.142.005.019.009.039.013.058s.008.039.011.059c-.006-.049-.008-.059,0-.029-.006.094.008.188,0,.283.011-.107-.011.041-.02.071s-.019.062-.029.093c-.034.1.035-.061-.015.033a1.653,1.653,0,0,1-.087.15c-.005.008-.075.1-.021.032l-.045.052a1.5,1.5,0,0,1-.124.118c.064-.055-.02.013-.03.02-.028.018-.057.035-.087.051,0,0-.1.042-.044.022s-.048.014-.047.014c-.026.008-.054.012-.08.019-.055.016.089,0-.01,0-.028,0-.055,0-.083,0s-.089-.02-.012,0l-.062-.015c-.091-.021.047.034-.011,0-.013-.008-.03-.018-.044-.025-.035-.024-.028-.018.018.017l-.038-.033-.036-.036-.034-.038c.031.042.039.051.022.028-.018-.041-.05-.081-.071-.122-.041-.077.023.083,0,0-.006-.025-.015-.048-.021-.073-.018-.074.017-.034,0,.005.008-.014,0-.059,0-.074s0-.041,0-.061,0-.016-.006.044c0-.015.006-.031.01-.046a.28.28,0,0,0,.015-.045c-.025.057-.029.067-.011.029a.43.43,0,0,1,.025-.041c.027-.049,0,.029-.018.023s.132-.1.015-.02a.39.39,0,1,0-.394-.674Z" transform="translate(-1073.773 -202.155)" fill="#8c7c58"/>
    </g>
    <g id="Grupo_176603" data-name="Grupo 176603" transform="translate(1021.257 118.169)">
      <path id="Trazado_224803" data-name="Trazado 224803" d="M1068.175,133.91a26.363,26.363,0,0,0-4.735,6.859c-.215.451.458.847.674.394a25.707,25.707,0,0,1,4.613-6.7c.347-.363-.2-.916-.552-.552Z" transform="translate(-1063.399 -133.79)" fill="#8c7c58"/>
    </g>
    <g id="Grupo_176604" data-name="Grupo 176604" transform="translate(1002.733 98.307)">
      <path id="Trazado_224804" data-name="Trazado 224804" d="M1039.426,108.61a5.393,5.393,0,0,0,2.746,1.045.391.391,0,0,0,.39-.39.4.4,0,0,0-.39-.391,4.69,4.69,0,0,1-2.352-.937.392.392,0,0,0-.534.14.4.4,0,0,0,.14.534Z" transform="translate(-1039.233 -107.879)" fill="#8c7c58"/>
    </g>
    <g id="Grupo_176605" data-name="Grupo 176605" transform="translate(1003.001 96.724)">
      <path id="Trazado_224805" data-name="Trazado 224805" d="M1039.972,106.6l3.04.328a.393.393,0,0,0,.39-.39.4.4,0,0,0-.39-.39l-3.04-.328a.393.393,0,0,0-.39.39.4.4,0,0,0,.39.39Z" transform="translate(-1039.582 -105.814)" fill="#8c7c58"/>
    </g>
    <g id="Grupo_176606" data-name="Grupo 176606" transform="translate(1058.012 175.22)">
      <path id="Trazado_224806" data-name="Trazado 224806" d="M1111.766,208.568a1.553,1.553,0,0,0,.777,2.556,1.363,1.363,0,0,0,1.409-.743,1.579,1.579,0,0,0,.012-1.55,1.325,1.325,0,0,0-2.007-.263.39.39,0,1,0,.552.552l.027-.028c.015-.015.035-.053.009-.012s-.02.013,0,0l.032-.021a.532.532,0,0,1,.079-.041c0,.005-.077.025-.035.015.017,0,.033-.012.049-.016s.058-.014.087-.021c.071-.015-.074,0,0,0s.123.008.182,0c-.011,0-.092-.017-.026,0l.039.009.076.021.038.013c.066.022-.015,0-.021-.009a.4.4,0,0,0,.082.043c.018.011.055.046.077.05,0,0-.052-.048-.029-.022a.3.3,0,0,0,.024.02c.018.016.035.033.051.051l.021.023c.036.037-.018-.022-.023-.032.022.041.052.077.074.118.009.017.015.037.025.054,0,0-.028-.084-.02-.048,0,.015.011.031.016.047.013.041.022.083.031.125,0,.01,0,.021.005.03s-.009-.1-.008-.054.005.054.006.08c0,.044,0,.088,0,.133,0,.02-.006.041-.006.061,0,.005.017-.094.007-.053,0,.017-.005.034-.009.051a1.253,1.253,0,0,1-.033.13c-.006.02-.012.04-.019.059l-.011.029c-.025.071.031-.065.011-.026s-.038.08-.061.12-.059.079-.078.12c0,0,.057-.067.03-.038-.007.007-.013.015-.019.023s-.031.036-.047.053c-.032.034-.068.064-.1.1s.043-.032.039-.031a.3.3,0,0,0-.032.022c-.017.011-.034.021-.051.031s-.041.022-.061.033c-.072.037.068-.022.011,0s-.083.025-.126.034c-.081.019.08,0,.013,0-.025,0-.049,0-.074,0l-.073,0c-.068,0,.087.018.022,0-.047-.011-.091-.023-.136-.037-.062-.019.083.041.011,0l-.054-.028-.06-.036c-.014-.009-.08-.058-.025-.017s-.01-.01-.022-.021-.03-.028-.044-.042-.033-.034-.048-.052l-.02-.024c-.034-.039.018.021.023.031-.021-.042-.056-.08-.08-.121s-.04-.09-.067-.13c0,0,.032.084.019.045l-.015-.039c-.01-.026-.018-.053-.027-.08-.015-.05-.025-.1-.035-.152s.009.1,0,0c0-.025,0-.048,0-.072a1.441,1.441,0,0,1,.005-.153c0-.061-.018.1,0,0,.005-.026.012-.052.019-.077s.014-.044.021-.067c.027-.079-.041.077,0,0,.024-.043.058-.084.079-.128,0,0-.057.065-.03.039.01-.01.018-.021.028-.031a.9.9,0,0,1,.068-.065.394.394,0,0,0,0-.552.4.4,0,0,0-.552,0Z" transform="translate(-1111.348 -208.218)" fill="#e2d5b7"/>
    </g>
    <g id="Grupo_176607" data-name="Grupo 176607" transform="translate(997.15 101.228)">
      <path id="Trazado_224807" data-name="Trazado 224807" d="M1031.95,113.471a1.831,1.831,0,0,0,1.254,1.6,1.744,1.744,0,0,0,1.015.057,1.58,1.58,0,0,0,.875-.6,1.936,1.936,0,0,0,.174-1.915,1.594,1.594,0,0,0-1.634-.908,1.845,1.845,0,0,0-1.656,1.414.4.4,0,0,0,.273.48.4.4,0,0,0,.48-.272,1.255,1.255,0,0,1,.042-.176c0-.013.031-.1.014-.043s0,0,.008-.016.016-.032.024-.048c.028-.053.063-.1.1-.15-.035.054-.021.026.008-.006s.049-.054.075-.08.04-.038.06-.056.029-.024.042-.036-.06.042-.024.018c.054-.036.107-.074.163-.106l.074-.039c.034-.017.095-.041.021-.012a1.763,1.763,0,0,1,.186-.062c.027-.008.054-.014.081-.02s.118-.027.057-.012.027,0,.044,0c.037,0,.073,0,.11,0s.055,0,.082,0l.041,0c.055,0,0-.013-.022,0,.034-.016.151.032.186.043l.077.028c-.061-.019-.033-.015.007.005a1.357,1.357,0,0,1,.166.1c-.062-.044-.012-.008.015.017s.039.038.057.057.041.047.061.071c-.05-.057-.012-.015.009.019a1.709,1.709,0,0,1,.085.152c.031.061-.025-.074.007.018.01.03.021.059.03.09.017.057.028.113.04.172.017.092,0-.052,0,.018,0,.032.005.064.006.1a1.7,1.7,0,0,1,0,.178.363.363,0,0,0,0,.041c0,.047,0-.038.005-.036a.358.358,0,0,1-.019.108,1.686,1.686,0,0,1-.047.17c0,.015-.028.1-.014.042s0,0-.008.015-.015.032-.024.048a1.3,1.3,0,0,1-.089.15c-.026.037-.046.051,0,.006-.025.026-.047.054-.071.08l-.058.056c-.013.011-.028.022-.041.034,0,0,.062-.041.026-.02-.056.033-.108.07-.166.1l-.039.018s.068-.022.027-.012-.063.021-.094.03-.054.015-.082.02a.358.358,0,0,0-.041.008c-.05.011.1-.006.006,0-.057,0-.113.006-.169,0l-.061,0c.055,0-.042-.008-.061-.011a1.458,1.458,0,0,1-.219-.064l-.04-.015c-.05-.016.058.032.014.005s-.069-.034-.1-.052c-.064-.035-.122-.077-.182-.117.064.044.005,0-.021-.02s-.057-.051-.084-.079-.046-.048-.067-.073l-.036-.044c.017.021.035.05.01.011a2.035,2.035,0,0,1-.106-.182c-.041-.08.009.038-.011-.023-.011-.036-.024-.071-.033-.108a.315.315,0,0,1-.024-.11s0,.079.005.032c0-.022,0-.05,0-.072a.39.39,0,0,0-.78,0Z" transform="translate(-1031.949 -111.69)" fill="#e2d5b7"/>
    </g>
    <g id="Grupo_176608" data-name="Grupo 176608" transform="translate(1033.218 94.488)">
      <path id="Trazado_224808" data-name="Trazado 224808" d="M1079.666,106.353l2.543-2.791a.4.4,0,0,0,0-.552.394.394,0,0,0-.552,0l-2.543,2.791a.4.4,0,0,0,0,.552.394.394,0,0,0,.552,0Z" transform="translate(-1079.003 -102.897)" fill="#ab6844"/>
    </g>
    <g id="Grupo_176609" data-name="Grupo 176609" transform="translate(1034.226 96.288)">
      <path id="Trazado_224809" data-name="Trazado 224809" d="M1080.431,105.908l1.8,1.5a.4.4,0,0,0,.552,0,.4.4,0,0,0,0-.553l-1.8-1.5a.4.4,0,0,0-.552,0,.394.394,0,0,0,0,.551Z" transform="translate(-1080.318 -105.246)" fill="#ab6844"/>
    </g>
    <path id="Trazado_224810" data-name="Trazado 224810" d="M1073.323,128.356l7.492-4.543-6.046,6.459Z" transform="translate(-44.459 -13.292)" fill="#ab6844" opacity="0.57"/>
    <g id="Grupo_176610" data-name="Grupo 176610" transform="translate(1037.577 223.531)">
      <path id="Trazado_224811" data-name="Trazado 224811" d="M1085.419,277.186a21.041,21.041,0,0,0,2.26-5.458.391.391,0,0,0-.753-.208,20.26,20.26,0,0,1-2.182,5.271.391.391,0,0,0,.674.394Z" transform="translate(-1084.689 -271.243)" fill="#ab6844"/>
    </g>
    <g id="Grupo_176611" data-name="Grupo 176611" transform="translate(1040.745 223.544)">
      <path id="Trazado_224812" data-name="Trazado 224812" d="M1089.6,276.28q.8-2.272,1.6-4.545c.167-.475-.587-.679-.753-.208l-1.6,4.545c-.167.475.586.679.753.208Z" transform="translate(-1088.823 -271.26)" fill="#ab6844"/>
    </g>
    <g id="Grupo_176612" data-name="Grupo 176612" transform="translate(1044.911 223.022)">
      <path id="Trazado_224813" data-name="Trazado 224813" d="M1095.019,274.882q.383-1.905.765-3.81a.4.4,0,0,0-.272-.48.394.394,0,0,0-.48.273l-.766,3.809a.4.4,0,0,0,.272.481.4.4,0,0,0,.481-.273Z" transform="translate(-1094.257 -270.58)" fill="#ab6844"/>
    </g>
    <g id="Grupo_176613" data-name="Grupo 176613" transform="translate(1038.584 223.028)">
      <path id="Trazado_224814" data-name="Trazado 224814" d="M1086.481,272.142a15.562,15.562,0,0,1,7.652-.527c.491.091.7-.661.208-.752a16.388,16.388,0,0,0-8.068.526c-.475.156-.271.91.208.753Z" transform="translate(-1086.003 -270.588)" fill="#ab6844"/>
    </g>
    <g id="Grupo_176614" data-name="Grupo 176614" transform="translate(1041.87 210.523)">
      <path id="Trazado_224815" data-name="Trazado 224815" d="M1090.769,255.333a6.008,6.008,0,0,1,3.376-.072.391.391,0,0,0,.208-.753,6.776,6.776,0,0,0-3.79.072c-.478.15-.274.9.207.753Z" transform="translate(-1090.29 -254.273)" fill="#ab6844"/>
    </g>
    <g id="Grupo_176615" data-name="Grupo 176615" transform="translate(1055.795 181.624)">
      <path id="Trazado_224816" data-name="Trazado 224816" d="M1108.78,216.855l-.317,1.768a.39.39,0,0,0,.753.207q.159-.883.317-1.767a.4.4,0,0,0-.273-.48.4.4,0,0,0-.48.272Z" transform="translate(-1108.456 -216.573)" fill="#ab6844"/>
    </g>
    <g id="Grupo_176616" data-name="Grupo 176616" transform="translate(952.954 80.846)">
      <path id="Trazado_224817" data-name="Trazado 224817" d="M974.868,89.456a33.941,33.941,0,0,1,7.631-3.581c.475-.154.272-.908-.208-.753a34.851,34.851,0,0,0-7.817,3.66c-.424.267-.033.943.394.674Z" transform="translate(-974.292 -85.101)" fill="#ab6844"/>
    </g>
    <g id="Grupo_176617" data-name="Grupo 176617" transform="translate(968.199 84.104)">
      <path id="Trazado_224818" data-name="Trazado 224818" d="M994.268,89.741a11.566,11.566,0,0,0,.463,4.941c.152.477.906.274.752-.207a11.04,11.04,0,0,1-.435-4.734.392.392,0,0,0-.39-.39.4.4,0,0,0-.39.39Z" transform="translate(-994.181 -89.351)" fill="#ab6844"/>
    </g>
    <g id="Grupo_176618" data-name="Grupo 176618" transform="translate(914.096 144.27)">
      <path id="Trazado_224819" data-name="Trazado 224819" d="M923.883,168.607l1.016.255a.406.406,0,0,0,.3-.039.391.391,0,0,0-.093-.714l-1.016-.255a.409.409,0,0,0-.3.039.391.391,0,0,0,.094.714Z" transform="translate(-923.599 -167.841)" fill="#1b4b5e"/>
    </g>
    <g id="Grupo_176619" data-name="Grupo 176619" transform="translate(911.817 142.212)">
      <path id="Trazado_224820" data-name="Trazado 224820" d="M920.909,165.923l1.013.269a.4.4,0,0,0,.3-.039.39.39,0,0,0-.094-.713l-1.012-.27a.4.4,0,0,0-.3.04.39.39,0,0,0,.093.713Z" transform="translate(-920.626 -165.157)" fill="#1b4b5e"/>
    </g>
    <g id="Grupo_176620" data-name="Grupo 176620" transform="translate(917.11 145.322)">
      <path id="Trazado_224821" data-name="Trazado 224821" d="M927.646,169.88l.517.5a.407.407,0,0,0,.276.114.291.291,0,0,0,.15-.034.3.3,0,0,0,.126-.08.394.394,0,0,0,.114-.276.4.4,0,0,0-.114-.276l-.517-.5a.4.4,0,0,0-.276-.114.437.437,0,0,0-.276.114.394.394,0,0,0-.114.276.4.4,0,0,0,.114.276Z" transform="translate(-927.532 -169.214)" fill="#1b4b5e"/>
    </g>
    <g id="Grupo_176621" data-name="Grupo 176621" transform="translate(961.364 106.619)">
      <path id="Trazado_224822" data-name="Trazado 224822" d="M985.383,119.386c4,3.863,5.508,9.513,5.36,14.942a33.687,33.687,0,0,1-.548,5.09c-.089.491.663.7.753.208,1.048-5.793.836-12.031-2.214-17.222a16.734,16.734,0,0,0-2.8-3.569c-.362-.35-.914.2-.552.551Z" transform="translate(-985.265 -118.723)" fill="#1b4b5e"/>
    </g>
    <g id="Grupo_176622" data-name="Grupo 176622" transform="translate(963.051 116.848)">
      <path id="Trazado_224823" data-name="Trazado 224823" d="M991.338,136.364a8.314,8.314,0,0,1-1.961-.925,4.111,4.111,0,0,1-.828-.642c-.146-.16-.434-.524-.235-.741.351-.382,1.156.317,1.4.536A5.841,5.841,0,0,1,991,136.255a.4.4,0,0,0,.714-.094,4.963,4.963,0,0,1,.868-2.171,4.75,4.75,0,0,1,.764-.829c.211-.182.52-.507.609-.082a2.269,2.269,0,0,1-.674,1.772,2.736,2.736,0,0,1-1.814.909c-.5.034-.5.815,0,.781a3.586,3.586,0,0,0,3.208-2.694c.144-.622.1-1.578-.665-1.758a1.326,1.326,0,0,0-1.1.425,5.319,5.319,0,0,0-.852.885,5.537,5.537,0,0,0-1.094,2.555l.713-.093a6.492,6.492,0,0,0-1.845-2.179c-.583-.438-1.561-.783-2.121-.117-.645.768.117,1.7.74,2.175a9.033,9.033,0,0,0,2.68,1.377c.479.155.685-.6.208-.753Z" transform="translate(-987.465 -132.067)" fill="#1b4b5e"/>
    </g>
    <g id="Grupo_176623" data-name="Grupo 176623" transform="translate(961.656 110.084)">
      <path id="Trazado_224824" data-name="Trazado 224824" d="M990.138,127.522a10.648,10.648,0,0,1-2.431-.731c-.182-.08-1.674-.717-1.178-1.018.448-.271,1.178.191,1.535.407a6.506,6.506,0,0,1,1.755,1.58c.21.269.681.041.666-.276a4.6,4.6,0,0,1,.389-2.686,1.291,1.291,0,0,1,1.771-.6c1.623,1.049-2.1,2.982-2.815,3.3-.458.2-.062.876.394.674a10.808,10.808,0,0,0,2.487-1.535,2.272,2.272,0,0,0,1.054-2.155,1.759,1.759,0,0,0-1.634-1.24,2.222,2.222,0,0,0-1.906,1.118,5.2,5.2,0,0,0-.521,3.12l.666-.276a7.007,7.007,0,0,0-2.385-1.961,1.86,1.86,0,0,0-2.08.018.945.945,0,0,0-.173,1.059,2.03,2.03,0,0,0,1,.86,11.253,11.253,0,0,0,3.2,1.09c.491.089.7-.663.207-.752Z" transform="translate(-985.644 -123.243)" fill="#1b4b5e"/>
    </g>
    <g id="Grupo_176624" data-name="Grupo 176624" transform="translate(952.049 115.457)">
      <path id="Trazado_224825" data-name="Trazado 224825" d="M973.113,131.767a1.5,1.5,0,0,0,1.063,1.28,1.45,1.45,0,0,0,.824.024,1.329,1.329,0,0,0,.711-.51,1.582,1.582,0,0,0,.119-1.567,1.319,1.319,0,0,0-1.337-.733,1.511,1.511,0,0,0-1.353,1.134.39.39,0,1,0,.753.207,1.173,1.173,0,0,1,.034-.133.13.13,0,0,0,.01-.029s-.038.08-.019.044.025-.05.038-.074l.033-.053.017-.026c.032-.051-.019.025-.024.029.035-.033.064-.075.1-.108l.047-.043.025-.02c.036-.032-.07.048-.028.022s.075-.051.116-.074c.021-.012.044-.024.066-.034s.083-.038.021-.011.018-.005.033-.011l.071-.021c.044-.012.091-.015.135-.028,0,0-.093.008-.051.008.014,0,.028,0,.042,0l.073,0c.021,0,.042,0,.063,0s.106.011.031,0,0,0,.02.005a.728.728,0,0,1,.081.021c.02.006.039.015.059.02.046.014-.077-.038-.035-.015l.028.014c.043.021.083.058.126.077,0,0-.064-.056-.038-.028a.31.31,0,0,0,.024.021c.018.016.035.033.051.051s.027.032.041.047-.031-.041-.029-.038a.243.243,0,0,0,.023.034,1.163,1.163,0,0,1,.067.117c.042.079-.023-.069,0-.008l.024.069a1.263,1.263,0,0,1,.032.132c0,.01,0,.021.005.031.01.048-.008-.09-.006-.041,0,.025,0,.049.006.074a1.372,1.372,0,0,1,0,.137c0,.021,0,.041-.005.063,0,.049.016-.09,0-.041,0,.014,0,.028-.008.041a1.3,1.3,0,0,1-.034.132c-.006.02-.014.039-.021.059s-.02.049,0-.008,0,0-.007.01a.979.979,0,0,1-.067.117c-.008.013-.052.073-.012.018s-.011.011-.023.024-.034.035-.051.051-.069.057-.016.016-.015.009-.028.018-.044.026-.066.038l-.029.015c-.055.029.027-.013.033-.014a.261.261,0,0,0-.061.021c-.024.007-.048.014-.073.018l-.032.007c-.053.012.028-.005.041,0-.045,0-.094.007-.14.006l-.064,0c-.09,0,.083.018,0,0a1.6,1.6,0,0,1-.159-.041c-.024-.008-.048-.018-.071-.026-.047-.017.075.037.032.013l-.039-.019a1.256,1.256,0,0,1-.142-.084c-.008-.006-.018-.014-.027-.019-.04-.025.061.053.028.021s-.044-.038-.066-.057c-.039-.037-.07-.084-.11-.12,0,0,.046.07.029.036-.008-.015-.021-.03-.03-.044a.673.673,0,0,1-.038-.065c-.012-.021-.02-.047-.033-.067.057.088.014.034,0-.007s-.015-.056-.021-.084c0-.011,0-.022-.006-.032-.013-.043.012.1,0,.028a.39.39,0,1,0-.78,0Z" transform="translate(-973.111 -130.253)" fill="#1b4b5e"/>
    </g>
    <g id="Grupo_176625" data-name="Grupo 176625" transform="translate(977.578 111.901)">
      <path id="Trazado_224826" data-name="Trazado 224826" d="M1006.417,127.136a1.565,1.565,0,0,0,.987,1.351,1.417,1.417,0,0,0,1.594-.308,1.665,1.665,0,0,0,.388-1.522,1.4,1.4,0,0,0-1.147-1.023,1.583,1.583,0,0,0-1.633.725.39.39,0,1,0,.674.394c.011-.021.024-.041.037-.061.028-.043.055-.038-.006,0a.954.954,0,0,0,.1-.1c.01-.009.048-.033.052-.046l-.042.032.038-.028a1.182,1.182,0,0,1,.12-.072.288.288,0,0,0,.064-.031l-.05.021.044-.017a1.194,1.194,0,0,1,.136-.04c.024-.006.047-.01.07-.015.084-.019-.1.007-.009,0,.048,0,.094-.008.142-.007a1.278,1.278,0,0,0,.142.008c-.088.011-.056-.008-.01,0l.069.016a.6.6,0,0,0,.133.043c-.007,0-.087-.042-.029-.011.028.014.056.028.083.043l.059.038c.071.043-.066-.06,0,0a1.125,1.125,0,0,1,.1.1l.015.018c.026.032.02.025-.018-.024,0,.007.021.031.027.039.028.044.045.1.077.142-.052-.068-.021-.05-.006-.007.008.021.014.044.02.066s.011.045.016.067c.008.04,0,.089,0-.011,0,.093.009.186,0,.28s.019-.094,0-.011c-.005.023-.009.046-.015.069a1.309,1.309,0,0,1-.04.135.232.232,0,0,0-.017.044l.021-.051c-.006.015-.012.029-.019.043a1.223,1.223,0,0,1-.08.142.405.405,0,0,0-.041.057c.03-.074.034-.042,0-.007a1.072,1.072,0,0,1-.1.1.337.337,0,0,0-.035.029c.053-.067.041-.031,0-.007-.019.013-.039.025-.06.036l-.041.021c-.038.018-.028.014.029-.011-.02-.008-.12.039-.146.045l-.025,0q-.064.011.03,0a.233.233,0,0,0-.05,0,1.089,1.089,0,0,1-.15,0l-.025,0c-.043,0-.033,0,.029,0-.009-.012-.082-.016-.1-.021l-.073-.021-.048-.016c-.039-.015-.031-.012.023.011a1.08,1.08,0,0,1-.136-.069l-.065-.041-.041-.029c-.034-.025-.028-.02.018.015-.015.007-.117-.108-.129-.122a.45.45,0,0,1-.05-.057c.032.042.04.052.022.028l-.021-.031a1.421,1.421,0,0,1-.087-.152c-.041-.077.026.084,0,0-.009-.032-.021-.064-.029-.1a.335.335,0,0,0-.015-.074c.008.062.009.071,0,.028,0-.017,0-.034,0-.051a.39.39,0,0,0-.78,0Z" transform="translate(-1006.416 -125.614)" fill="#1b4b5e"/>
    </g>
    <g id="Grupo_176626" data-name="Grupo 176626" transform="translate(965.119 122.881)">
      <path id="Trazado_224827" data-name="Trazado 224827" d="M990.758,153.381a21.242,21.242,0,0,0,9.681-9.368,20.871,20.871,0,0,0,1.457-3.594.391.391,0,0,0-.753-.208,20.322,20.322,0,0,1-10.779,12.5c-.454.214-.058.887.394.674Z" transform="translate(-990.163 -139.938)" fill="#1b4b5e"/>
    </g>
    <g id="Grupo_176627" data-name="Grupo 176627" transform="translate(964.465 96.299)">
      <path id="Trazado_224828" data-name="Trazado 224828" d="M989.311,105.633a6.243,6.243,0,0,0,7.017,5.444c.494-.079.284-.831-.208-.753a5.457,5.457,0,0,1-6.029-4.691c-.046-.5-.827-.5-.78,0Z" transform="translate(-989.309 -105.259)" fill="#1b4b5e"/>
    </g>
    <g id="Grupo_176628" data-name="Grupo 176628" transform="translate(933.411 109.876)">
      <path id="Trazado_224829" data-name="Trazado 224829" d="M948.986,127.329l3.321,1.915c.91.524,2.052,1.263,3.1.649a2.224,2.224,0,0,0,.959-2.116,3.629,3.629,0,0,0-1.518-2.393c-1.051-.843-2.2-1.572-3.309-2.343-.413-.288-.8.388-.394.674.872.608,1.748,1.21,2.616,1.824a4.4,4.4,0,0,1,1.724,1.83,1.628,1.628,0,0,1-.358,1.771c-.758.613-1.876-.253-2.54-.636l-3.21-1.85a.39.39,0,0,0-.394.674Z" transform="translate(-948.797 -122.972)" fill="#1b4b5e"/>
    </g>
    <g id="Grupo_176629" data-name="Grupo 176629" transform="translate(941.333 107.172)">
      <path id="Trazado_224830" data-name="Trazado 224830" d="M959.229,119.725a4.047,4.047,0,0,0,5.463,4.686.4.4,0,0,0,.273-.481.394.394,0,0,0-.481-.272,3.27,3.27,0,0,1-4.5-3.726c.109-.489-.643-.7-.753-.207Z" transform="translate(-959.132 -119.444)" fill="#1b4b5e"/>
    </g>
    <g id="Grupo_176630" data-name="Grupo 176630" transform="translate(942.744 98.325)">
      <path id="Trazado_224831" data-name="Trazado 224831" d="M961.451,127.488a21.652,21.652,0,0,0,8.55-5.2,22.908,22.908,0,0,0,5.447-8.423,20.943,20.943,0,0,0,1.215-5.585c.04-.5-.741-.5-.78,0a20.794,20.794,0,0,1-3,9.126,22.012,22.012,0,0,1-6.709,6.975,20.2,20.2,0,0,1-4.929,2.357c-.477.152-.274.905.207.752Z" transform="translate(-960.973 -107.903)" fill="#1b4b5e"/>
    </g>
    <g id="Grupo_176631" data-name="Grupo 176631" transform="translate(910.143 149.624)">
      <path id="Trazado_224832" data-name="Trazado 224832" d="M924.431,175.094c-1.521,4.336-3.045,8.681-4.178,13.138a52.85,52.85,0,0,0-1.809,13.489,35.3,35.3,0,0,0,.888,7.641c.114.489.867.282.753-.207a38.256,38.256,0,0,1-.5-13.436,73.374,73.374,0,0,1,3.121-13.149c.78-2.438,1.627-4.854,2.475-7.269.166-.474-.587-.679-.753-.208Z" transform="translate(-918.443 -174.826)" fill="#6da8c6"/>
    </g>
    <g id="Grupo_176632" data-name="Grupo 176632" transform="translate(917.226 151.333)">
      <path id="Trazado_224833" data-name="Trazado 224833" d="M929.406,177.33a45.133,45.133,0,0,0-.763,21.613,44.051,44.051,0,0,0,1.666,5.876c.169.469.923.267.753-.208a44,44,0,0,1-.9-27.074.391.391,0,0,0-.753-.208Z" transform="translate(-927.683 -177.055)" fill="#6da8c6"/>
    </g>
    <g id="Grupo_176633" data-name="Grupo 176633" transform="translate(900.421 147.31)">
      <path id="Trazado_224834" data-name="Trazado 224834" d="M916.326,171.881a17.512,17.512,0,0,0-4.848,6.35q-2.143,4.081-3.879,8.358-.975,2.4-1.816,4.844c-.164.476.589.681.753.208q1.457-4.234,3.312-8.315.934-2.045,1.963-4.044a38.816,38.816,0,0,1,1.968-3.491,12.11,12.11,0,0,1,2.941-3.235c.4-.293.014-.97-.394-.675Z" transform="translate(-905.76 -171.808)" fill="#6da8c6"/>
    </g>
    <g id="Grupo_176634" data-name="Grupo 176634" transform="translate(907.763 149.836)">
      <path id="Trazado_224835" data-name="Trazado 224835" d="M919.63,175.292a41.26,41.26,0,0,0-4.28,10.546.391.391,0,0,0,.753.208,40.469,40.469,0,0,1,4.2-10.36.391.391,0,0,0-.674-.394Z" transform="translate(-915.337 -175.103)" fill="#6da8c6"/>
    </g>
    <g id="Grupo_176635" data-name="Grupo 176635" transform="translate(887.281 142.788)">
      <path id="Trazado_224836" data-name="Trazado 224836" d="M907.676,166.042a106.277,106.277,0,0,0-16.019,26.891q-1.683,4.093-3.02,8.319c-.152.48.6.685.753.207a105.291,105.291,0,0,1,5.772-14.436,106.476,106.476,0,0,1,7.822-13.424q2.474-3.61,5.245-7c.315-.386-.234-.942-.552-.552Z" transform="translate(-888.617 -165.909)" fill="#6da8c6"/>
    </g>
    <g id="Grupo_176636" data-name="Grupo 176636" transform="translate(893.348 146.229)">
      <path id="Trazado_224837" data-name="Trazado 224837" d="M909.564,170.583a103.015,103.015,0,0,0-11.169,25.553q-1.075,3.8-1.854,7.665c-.1.491.653.7.753.208a101.979,101.979,0,0,1,9.122-26.2q1.779-3.488,3.822-6.831c.263-.43-.412-.822-.674-.394Z" transform="translate(-896.532 -170.397)" fill="#6da8c6"/>
    </g>
    <g id="Grupo_176637" data-name="Grupo 176637" transform="translate(900.137 173.696)">
      <path id="Trazado_224838" data-name="Trazado 224838" d="M906.98,206.5a28.634,28.634,0,0,0-1.566,10.581c.021.5.8.5.78,0a28.012,28.012,0,0,1,1.538-10.374c.166-.475-.588-.68-.753-.208Z" transform="translate(-905.389 -206.23)" fill="#6da8c6"/>
    </g>
    <g id="Grupo_176638" data-name="Grupo 176638" transform="translate(903.342 179.089)">
      <path id="Trazado_224839" data-name="Trazado 224839" d="M909.952,213.546a18.754,18.754,0,0,0,.068,7.855c.11.49.862.282.753-.208a17.781,17.781,0,0,1-.068-7.44c.1-.491-.652-.7-.753-.208Z" transform="translate(-909.57 -213.265)" fill="#6da8c6"/>
    </g>
    <g id="Grupo_176639" data-name="Grupo 176639" transform="translate(922.719 150.389)">
      <path id="Trazado_224840" data-name="Trazado 224840" d="M934.851,176.2a38,38,0,0,0,9.217,21.909c.33.379.88-.175.552-.552a37.446,37.446,0,0,1-8.2-16.211,36.434,36.434,0,0,1-.789-5.146c-.04-.5-.821-.5-.78,0Z" transform="translate(-934.849 -175.824)" fill="#6da8c6"/>
    </g>
    <g id="Grupo_176640" data-name="Grupo 176640" transform="translate(1051.273 205.063)">
      <path id="Trazado_224841" data-name="Trazado 224841" d="M1102.686,250.264a9.332,9.332,0,0,0,5.986,2.211,9.2,9.2,0,0,0,7.966-4.739c.243-.44-.431-.834-.674-.394a8.544,8.544,0,0,1-4.071,3.692,8.411,8.411,0,0,1-8.655-1.322c-.382-.323-.936.227-.552.552Z" transform="translate(-1102.557 -247.15)" fill="#8c7c58"/>
    </g>
    <g id="Grupo_176641" data-name="Grupo 176641" transform="translate(1026.745 198.384)">
      <path id="Trazado_224842" data-name="Trazado 224842" d="M1070.606,239.028a13.036,13.036,0,0,0,8.821,6.624,12.326,12.326,0,0,0,3.2.247c.5-.028.5-.808,0-.78a12.281,12.281,0,0,1-9.6-3.976,11.522,11.522,0,0,1-1.746-2.509c-.231-.447-.9-.052-.675.394Z" transform="translate(-1070.558 -238.438)" fill="#8c7c58"/>
    </g>
    <g id="Grupo_176642" data-name="Grupo 176642" transform="translate(1018.239 186.435)">
      <path id="Trazado_224843" data-name="Trazado 224843" d="M1059.654,223.58l4.555,3.452a.392.392,0,0,0,.534-.14.4.4,0,0,0-.14-.534l-4.556-3.452a.392.392,0,0,0-.534.14.4.4,0,0,0,.14.534Z" transform="translate(-1059.461 -222.848)" fill="#8c7c58"/>
    </g>
    <g id="Grupo_176643" data-name="Grupo 176643" transform="translate(1021.646 153.776)">
      <path id="Trazado_224844" data-name="Trazado 224844" d="M1064.178,181.016q6.37,2,12.6,4.414,1.761.683,3.51,1.4c.464.19.667-.564.208-.752q-6.179-2.527-12.515-4.648-1.791-.6-3.594-1.164c-.481-.151-.686.6-.208.753Z" transform="translate(-1063.906 -180.243)" fill="#8c7c58"/>
    </g>
    <g id="Grupo_176644" data-name="Grupo 176644" transform="translate(1024.712 158.626)">
      <path id="Trazado_224845" data-name="Trazado 224845" d="M1068.109,187.284a21.577,21.577,0,0,0,10.1,1.978c.5-.025.5-.8,0-.78a20.742,20.742,0,0,1-9.7-1.872c-.453-.21-.85.463-.394.674Z" transform="translate(-1067.906 -186.57)" fill="#8c7c58"/>
    </g>
    <path id="Trazado_224846" data-name="Trazado 224846" d="M1075.414,98.808a5.543,5.543,0,0,1,7.226.083,6.922,6.922,0,0,0-.767-3.84l-3.616-8.807a1.434,1.434,0,0,0-.5-.727,1.387,1.387,0,0,0-1.006-.051,20.672,20.672,0,0,0-6.647,2.686,61.562,61.562,0,0,1,4.61,10.819Z" transform="translate(-43.707 -4.324)" fill="#381d04"/>
    <path id="Trazado_224847" data-name="Trazado 224847" d="M1064.854,86.119a8,8,0,0,1-5.971,2.162,1.083,1.083,0,0,1-.859-.335c-.167-.252.128-.676.411-.533a2.028,2.028,0,0,1-.913,2.287,2.53,2.53,0,0,1-2.676-.088,6.2,6.2,0,0,1-5.644,2.644c-.593-.051-1.278-.76-.731-.973a1.017,1.017,0,0,1-.041,1.523,2.529,2.529,0,0,1-1.732.535c-3.131-.009-5.656-3.311-4.575-5.982l1.751.271a2.816,2.816,0,0,1-1.075-3.785,3.442,3.442,0,0,1,4.077-1.246,2.748,2.748,0,0,1-.359-4.528,3.348,3.348,0,0,1,4.8,1.259,7.877,7.877,0,0,1-.6-4.134,3.871,3.871,0,0,1,2.783-3.078c1.5-.352,3.318.635,3.351,2.039a7.616,7.616,0,0,1,.93-3.174,3.152,3.152,0,0,1,3-1.489c2.065.34,2.516,2.815,2.488,4.722a3.774,3.774,0,0,1,4.941-1.374,3.08,3.08,0,0,1,.866,4.629c.6-.931,2.32-.731,2.971.172a2.939,2.939,0,0,1-.073,3.091,2.47,2.47,0,0,1,1.511,3.964c-.258-.153.191-.514.428-.336s.195.514.131.788a3.494,3.494,0,0,1-1.276,2.346c-.809.511-2.271.076-2.179-.816a1.51,1.51,0,0,1-.524,2.316,1.806,1.806,0,0,1-2.383-.948c-.577.717-2.116.218-2.064-.668Z" transform="translate(-37.115 -0.604)" fill="#381d04"/>
    <g id="Grupo_176645" data-name="Grupo 176645" transform="translate(1016.648 104.582)">
      <path id="Trazado_224848" data-name="Trazado 224848" d="M1057.874,121.488c2.473-.454,3.94-2.815,5.078-4.838a.391.391,0,0,0-.675-.394c-1.039,1.849-2.343,4.063-4.61,4.479-.494.09-.285.842.207.753Z" transform="translate(-1057.385 -116.066)" fill="#ab6844"/>
    </g>
    <path id="Trazado_224849" data-name="Trazado 224849" d="M1059.72,111.136c.278.922.036,1.811-.54,1.985s-1.269-.433-1.548-1.356-.035-1.811.541-1.985S1059.443,110.213,1059.72,111.136Z" transform="translate(-40.769 -10.009)" fill="#381d04"/>
    <path id="Trazado_224850" data-name="Trazado 224850" d="M1053.681,106.1c-.067.8.187,1.939.985,1.845a1.462,1.462,0,0,0,.531-.218,10.324,10.324,0,0,1,5.936-1.274,2.047,2.047,0,0,0-1.571-2.421,4.869,4.869,0,0,0-3.14.523,10.651,10.651,0,0,1-3.037,1.1Z" transform="translate(-39.804 -8.653)" fill="#381d04"/>
    <g id="Grupo_176646" data-name="Grupo 176646" transform="translate(1023.706 66.878)">
      <path id="Trazado_224851" data-name="Trazado 224851" d="M1067.359,74.112a14.668,14.668,0,0,1,1.328-3.519,14.492,14.492,0,0,1,.987-1.591,3.768,3.768,0,0,1,1.189-1.153,1.809,1.809,0,0,1,2.465,1.276,7.662,7.662,0,0,1,.059,3.749,12.134,12.134,0,0,1-1.489,4.009l.675.394c.53-1.059,1.145-2.319,2.309-2.8a3.727,3.727,0,0,1,3.629.813,4.455,4.455,0,0,1,.868,6.189,4.014,4.014,0,0,1-3.38,1.509c-.5-.041-.5.74,0,.78a4.89,4.89,0,0,0,5.066-5.132c-.2-2.815-2.852-5.575-5.814-5.069-1.717.293-2.638,1.89-3.352,3.313a.391.391,0,0,0,.675.394,12.757,12.757,0,0,0,1.545-4.082,8.636,8.636,0,0,0-.038-4.278A2.735,2.735,0,0,0,1071.3,66.9c-1.328.18-2.182,1.463-2.829,2.51a15.4,15.4,0,0,0-1.862,4.5c-.116.488.635.7.753.207Z" transform="translate(-1066.594 -66.878)" fill="#381d04"/>
    </g>
    <g id="Grupo_176647" data-name="Grupo 176647" transform="translate(1003.944 78.703)">
      <path id="Trazado_224852" data-name="Trazado 224852" d="M1049.913,83.582a5.745,5.745,0,0,0-7.387.133,4.62,4.62,0,0,0-1.462,3.358,4.217,4.217,0,0,0,1.62,3.161,3.7,3.7,0,0,0,1.823.777c.619.077,1.442-.11,1.464-.87a.385.385,0,0,0-.193-.337,5.135,5.135,0,0,0-2.878-.592,2.291,2.291,0,0,0-1.962,1.12c-.406.906.249,1.76.89,2.347a9.23,9.23,0,0,0,2.51,1.635c.455.2.853-.471.394-.674a8.558,8.558,0,0,1-2.015-1.22c-.445-.366-1.327-1.039-1.092-1.719.193-.558.989-.7,1.495-.725a4.372,4.372,0,0,1,2.263.5l-.193-.337c0,.1-.34.115-.414.113a2.41,2.41,0,0,1-.69-.13,3.085,3.085,0,0,1-1.193-.737,3.4,3.4,0,0,1-1.042-2.638,4.212,4.212,0,0,1,4.168-3.681,5.688,5.688,0,0,1,3.5,1.188c.4.3.791-.376.394-.674Z" transform="translate(-1040.812 -82.304)" fill="#381d04"/>
    </g>
  </g>
</svg>
